<svg xmlns="http://www.w3.org/2000/svg" viewBox="0 0 700 799.63"><title>A</title><g id="Layer_2" data-name="Layer 2"><g id="Layer_1-2" data-name="Layer 1"><path d="M350,0C156.7,0,0,313.23,0,699.63a100,100,0,0,0,200,0C200,423.69,267.16,200,350,200c65.52,0,121.23,139.94,141.66,335-37.44-49.27-67.45-108.93-139.08-110.32q-1.27,0-2.58,0a100,100,0,0,0,0,200c124.13,0,125,172.58,247.42,175q1.27,0,2.58,0a100,100,0,0,0,100-100C700,313.23,543.3,0,350,0ZM600,774.63c-.65,0-1.3,0-1.94,0-31-.45-54.31-11.82-73.73-28.56h0C466.79,696.44,443,599.63,350,599.63a75,75,0,0,1,0-150c.65,0,1.3,0,1.94,0,89.79,1.31,114.41,93.87,169.47,143.81q-.93-13.59-2.09-26.93C499.67,341.24,431.31,175,350,175c-89.35,0-163.07,200.75-173.68,460Q175,666.78,175,699.63a75,75,0,0,1-150,0q0-34.39,1.63-67.94C43,291,181.56,25,350,25S657,291,673.37,631.69Q675,665.2,675,699.63A75,75,0,0,1,600,774.63Z"/></g></g></svg>