<svg xmlns="http://www.w3.org/2000/svg" xmlns:xlink="http://www.w3.org/1999/xlink" viewBox="0 0 140 427.38"><defs><style>.cls-1,.cls-13,.cls-14,.cls-19,.cls-4{fill:none;}.cls-2,.cls-8{fill:#ff0;}.cls-3{fill:#89c33f;}.cls-19,.cls-4,.cls-9{stroke:#000;}.cls-13,.cls-19,.cls-4,.cls-7,.cls-8,.cls-9{stroke-miterlimit:10;}.cls-5{fill:#007308;}.cls-6{fill:#efc651;}.cls-7{fill:#836e4e;stroke:#836e4e;}.cls-8{stroke:#ff0;}.cls-19,.cls-9{stroke-width:0.25px;}.cls-10{font-size:14.7px;fill:#fff;font-family:MyriadPro-Regular, Myriad Pro;}.cls-11{letter-spacing:-0.08em;}.cls-12{letter-spacing:0.01em;}.cls-13{stroke:#2434b6;}.cls-14{stroke:#fff;stroke-linecap:round;stroke-linejoin:round;}.cls-15{fill:#333;}.cls-16{fill:url(#LED_Yellow);}.cls-17{fill:#fcd833;}.cls-18{fill:#666;}</style><pattern id="LED_Yellow" data-name="LED Yellow" width="3" height="3" patternUnits="userSpaceOnUse" viewBox="0 0 3 3"><rect class="cls-1" width="3" height="3"/><circle class="cls-2" cx="0.32" cy="0.32" r="0.32"/><circle class="cls-2" cx="1.11" cy="1.11" r="0.32"/><circle class="cls-2" cx="1.89" cy="0.32" r="0.32"/><circle class="cls-2" cx="2.68" cy="1.11" r="0.32"/><circle class="cls-2" cx="0.32" cy="1.89" r="0.32"/><circle class="cls-2" cx="1.11" cy="2.68" r="0.32"/><circle class="cls-2" cx="1.89" cy="1.89" r="0.32"/><circle class="cls-2" cx="2.68" cy="2.68" r="0.32"/><circle class="cls-3" cx="0.32" cy="0.32" r="0.07"/><circle class="cls-3" cx="1.89" cy="0.32" r="0.07"/><circle class="cls-3" cx="2.68" cy="1.11" r="0.07"/><circle class="cls-3" cx="1.11" cy="1.11" r="0.07"/><circle class="cls-3" cx="0.32" cy="1.89" r="0.07"/><circle class="cls-3" cx="1.89" cy="1.89" r="0.07"/><circle class="cls-3" cx="1.11" cy="2.68" r="0.07"/><circle class="cls-3" cx="2.68" cy="2.68" r="0.07"/></pattern></defs><title>BigStelaElectro</title><g id="Layer_2" data-name="Layer 2"><g id="Layer_1-2" data-name="Layer 1"><line class="cls-4" x1="42.51" y1="53.23" x2="42.5" y2="53.24"/><polygon class="cls-5" points="127.5 312.65 127.5 365.65 47.5 387.09 47.5 334.09 127.5 312.65"/><polygon class="cls-5" points="127.5 255.65 127.5 307.65 47.5 329.09 47.5 277.09 127.5 255.65"/><polygon class="cls-5" points="127.5 37.15 127.5 109.78 47.5 131.22 47.5 58.59 127.5 37.15"/><path class="cls-6" d="M59.44,68a16.2,16.2,0,0,0-5.38,2.45,8.24,8.24,0,0,0-3.37,4.7A3.88,3.88,0,0,0,51.11,78a4.21,4.21,0,0,0,2.34,1.7,11.28,11.28,0,0,0,5.93-.17,11.32,11.32,0,0,1-6,.29A4.38,4.38,0,0,1,51,78.12a4.09,4.09,0,0,1-.5-3,8.51,8.51,0,0,1,3.39-5,16.48,16.48,0,0,1,5.47-2.63.24.24,0,0,1,.31.17.25.25,0,0,1-.17.31Z"/><path class="cls-6" d="M59.44,92a11,11,0,0,1-6.14.1,4.16,4.16,0,0,1-2.86-5,8.65,8.65,0,0,1,3.43-5,16,16,0,0,1,5.51-2.56A15.81,15.81,0,0,0,54,82.21a8.4,8.4,0,0,0-3.26,4.92,3.85,3.85,0,0,0,2.73,4.58,10.66,10.66,0,0,0,5.89-.23h0a.25.25,0,1,1,.13.48Z"/><path class="cls-6" d="M59.44,103.93a11.38,11.38,0,0,1-6.1.13,4.46,4.46,0,0,1-2.46-1.87,4.33,4.33,0,0,1-.44-3,8.6,8.6,0,0,1,3.45-4.91,16.24,16.24,0,0,1,5.49-2.53A16.2,16.2,0,0,0,54,94.35a8.35,8.35,0,0,0-3.28,4.86,4,4,0,0,0,.46,2.82,4.09,4.09,0,0,0,2.31,1.67,10.8,10.8,0,0,0,5.85-.26h0a.27.27,0,0,1,.31.18.25.25,0,0,1-.18.3Z"/><path class="cls-6" d="M59.44,115.89a11.28,11.28,0,0,1-6.1.13,4.42,4.42,0,0,1-2.46-1.87,4.32,4.32,0,0,1-.44-3,8.6,8.6,0,0,1,3.45-4.91,16.24,16.24,0,0,1,5.49-2.53A16.2,16.2,0,0,0,54,106.31a8.35,8.35,0,0,0-3.28,4.86,4,4,0,0,0,.46,2.82,4,4,0,0,0,2.31,1.67,10.8,10.8,0,0,0,5.85-.26h0a.25.25,0,0,1,.13.49Z"/><path class="cls-6" d="M69,65.29a7,7,0,0,1-1.19,3.85,6.69,6.69,0,0,1-3.11,2.5,4.11,4.11,0,0,1-3.88-.28,4.22,4.22,0,0,1-1.44-3.56,4.15,4.15,0,0,0,1.51,3.46,4,4,0,0,0,3.72.15,6.38,6.38,0,0,0,2.89-2.47,6.66,6.66,0,0,0,1-3.65.26.26,0,0,1,.25-.26.25.25,0,0,1,.25.25Z"/><path class="cls-6" d="M78.38,62.78a7,7,0,0,1-1.19,3.85,6.66,6.66,0,0,1-3.12,2.5,4.11,4.11,0,0,1-3.88-.28,4.22,4.22,0,0,1-1.44-3.56,4.17,4.17,0,0,0,1.52,3.46A4,4,0,0,0,74,68.9a6.37,6.37,0,0,0,2.9-2.48,6.6,6.6,0,0,0,1-3.64.25.25,0,0,1,.24-.26.25.25,0,0,1,.26.24Z"/><path class="cls-6" d="M87.75,60.26a7,7,0,0,1-1.19,3.86,6.69,6.69,0,0,1-3.11,2.5,4.17,4.17,0,0,1-3.88-.28,4.22,4.22,0,0,1-1.44-3.56,4.17,4.17,0,0,0,1.51,3.46,4,4,0,0,0,3.72.14,6.27,6.27,0,0,0,2.89-2.47,6.61,6.61,0,0,0,1-3.65A.25.25,0,0,1,87.5,60a.23.23,0,0,1,.25.24Z"/><path class="cls-6" d="M97.13,57.75a7,7,0,0,1-1.19,3.85,6.6,6.6,0,0,1-3.12,2.5,4.14,4.14,0,0,1-3.88-.27,4.24,4.24,0,0,1-1.44-3.57A4.18,4.18,0,0,0,89,63.73a3.93,3.93,0,0,0,3.71.14,6.41,6.41,0,0,0,2.9-2.47,6.63,6.63,0,0,0,1-3.65.24.24,0,0,1,.24-.25.24.24,0,0,1,.26.24Z"/><path class="cls-6" d="M106.5,55.24a7,7,0,0,1-1.19,3.85,6.63,6.63,0,0,1-3.11,2.5,4.14,4.14,0,0,1-3.88-.27,4.24,4.24,0,0,1-1.44-3.57,4.15,4.15,0,0,0,1.51,3.46,4,4,0,0,0,3.72.15A6.38,6.38,0,0,0,105,58.89a6.63,6.63,0,0,0,1-3.65.26.26,0,0,1,.25-.26.25.25,0,0,1,.25.25Z"/><path class="cls-6" d="M115.88,52.73a7,7,0,0,1-1.19,3.85,6.66,6.66,0,0,1-3.12,2.5,4.11,4.11,0,0,1-3.88-.28,4.22,4.22,0,0,1-1.44-3.56,4.16,4.16,0,0,0,1.52,3.46,3.93,3.93,0,0,0,3.71.15,6.41,6.41,0,0,0,2.9-2.47,6.66,6.66,0,0,0,1-3.65.25.25,0,1,1,.5,0Z"/><path class="cls-6" d="M69,77a7,7,0,0,1-1.19,3.85,6.63,6.63,0,0,1-3.11,2.5,4.14,4.14,0,0,1-3.88-.27,4.25,4.25,0,0,1-1.44-3.57A4.15,4.15,0,0,0,60.89,83a4,4,0,0,0,3.72.15,6.38,6.38,0,0,0,2.89-2.47,6.66,6.66,0,0,0,1-3.65.26.26,0,0,1,.25-.26A.25.25,0,0,1,69,77Z"/><path class="cls-6" d="M78.38,74.53a7,7,0,0,1-1.19,3.85,6.66,6.66,0,0,1-3.12,2.5,4.11,4.11,0,0,1-3.88-.28A4.22,4.22,0,0,1,68.75,77a4.16,4.16,0,0,0,1.52,3.46,3.93,3.93,0,0,0,3.71.15,6.37,6.37,0,0,0,2.9-2.48,6.6,6.6,0,0,0,1-3.64.25.25,0,0,1,.24-.26.25.25,0,0,1,.26.24Z"/><path class="cls-6" d="M87.75,72a7,7,0,0,1-1.19,3.85,6.69,6.69,0,0,1-3.11,2.5,4.14,4.14,0,0,1-3.88-.28,4.22,4.22,0,0,1-1.44-3.56A4.17,4.17,0,0,0,79.64,78a4,4,0,0,0,3.72.15,6.34,6.34,0,0,0,2.89-2.48,6.6,6.6,0,0,0,1-3.64.26.26,0,0,1,.25-.26.24.24,0,0,1,.25.24Z"/><path class="cls-6" d="M97.13,69.5a7.08,7.08,0,0,1-1.19,3.86,6.73,6.73,0,0,1-3.12,2.5,4.17,4.17,0,0,1-3.88-.28A4.22,4.22,0,0,1,87.5,72,4.17,4.17,0,0,0,89,75.48a3.93,3.93,0,0,0,3.71.14,6.41,6.41,0,0,0,2.9-2.47,6.61,6.61,0,0,0,1-3.65.25.25,0,0,1,.24-.25.24.24,0,0,1,.26.24Z"/><path class="cls-6" d="M106.5,67a7,7,0,0,1-1.19,3.85,6.63,6.63,0,0,1-3.11,2.5,4.14,4.14,0,0,1-3.88-.27,4.24,4.24,0,0,1-1.44-3.57A4.18,4.18,0,0,0,98.39,73a4,4,0,0,0,3.72.14A6.38,6.38,0,0,0,105,70.64,6.63,6.63,0,0,0,106,67a.26.26,0,0,1,.25-.26.25.25,0,0,1,.25.25Z"/><path class="cls-6" d="M115.88,64.48a7,7,0,0,1-1.19,3.85,6.6,6.6,0,0,1-3.12,2.5,4.14,4.14,0,0,1-3.88-.27A4.25,4.25,0,0,1,106.25,67a4.16,4.16,0,0,0,1.52,3.46,3.93,3.93,0,0,0,3.71.15,6.41,6.41,0,0,0,2.9-2.47,6.66,6.66,0,0,0,1-3.65.25.25,0,1,1,.5,0Z"/><path class="cls-6" d="M69,89.12A7,7,0,0,1,67.81,93a6.63,6.63,0,0,1-3.11,2.5,4.14,4.14,0,0,1-3.88-.27,4.24,4.24,0,0,1-1.44-3.57,4.15,4.15,0,0,0,1.51,3.46,4,4,0,0,0,3.72.15,6.38,6.38,0,0,0,2.89-2.47,6.63,6.63,0,0,0,1-3.65.26.26,0,0,1,.25-.26.25.25,0,0,1,.25.25Z"/><path class="cls-6" d="M78.38,86.61a7,7,0,0,1-1.19,3.85A6.66,6.66,0,0,1,74.07,93a4.11,4.11,0,0,1-3.88-.28,4.22,4.22,0,0,1-1.44-3.56,4.16,4.16,0,0,0,1.52,3.46,3.93,3.93,0,0,0,3.71.15,6.41,6.41,0,0,0,2.9-2.47,6.66,6.66,0,0,0,1-3.65.25.25,0,1,1,.5,0Z"/><path class="cls-6" d="M87.75,84.1A7,7,0,0,1,86.56,88a6.69,6.69,0,0,1-3.11,2.5,4.11,4.11,0,0,1-3.88-.28,4.22,4.22,0,0,1-1.44-3.56,4.15,4.15,0,0,0,1.51,3.46,4,4,0,0,0,3.72.15,6.34,6.34,0,0,0,2.89-2.48,6.6,6.6,0,0,0,1-3.64.26.26,0,0,1,.25-.26.25.25,0,0,1,.25.24Z"/><path class="cls-6" d="M97.13,81.58a7,7,0,0,1-1.19,3.86,6.66,6.66,0,0,1-3.12,2.5,4.14,4.14,0,0,1-3.88-.28A4.22,4.22,0,0,1,87.5,84.1,4.17,4.17,0,0,0,89,87.56a3.93,3.93,0,0,0,3.71.14,6.29,6.29,0,0,0,2.9-2.47,6.61,6.61,0,0,0,1-3.65.25.25,0,0,1,.24-.25.24.24,0,0,1,.26.24Z"/><path class="cls-6" d="M106.5,79.07a7.08,7.08,0,0,1-1.19,3.86,6.67,6.67,0,0,1-3.11,2.49,4.14,4.14,0,0,1-3.88-.27,4.24,4.24,0,0,1-1.44-3.57,4.17,4.17,0,0,0,1.51,3.47,4,4,0,0,0,3.72.14A6.38,6.38,0,0,0,105,82.72a6.61,6.61,0,0,0,1-3.65.25.25,0,0,1,.25-.25.23.23,0,0,1,.25.24Z"/><path class="cls-6" d="M115.88,76.56a7,7,0,0,1-1.19,3.85,6.6,6.6,0,0,1-3.12,2.5,4.14,4.14,0,0,1-3.88-.27,4.24,4.24,0,0,1-1.44-3.57,4.16,4.16,0,0,0,1.52,3.46,3.93,3.93,0,0,0,3.71.15,6.41,6.41,0,0,0,2.9-2.47,6.63,6.63,0,0,0,1-3.65.25.25,0,1,1,.5,0Z"/><path class="cls-6" d="M69,101.17A7.08,7.08,0,0,1,67.81,105a6.67,6.67,0,0,1-3.11,2.49,4.14,4.14,0,0,1-3.88-.27,4.24,4.24,0,0,1-1.44-3.57,4.17,4.17,0,0,0,1.51,3.47,4,4,0,0,0,3.72.14,6.38,6.38,0,0,0,2.89-2.47,6.61,6.61,0,0,0,1-3.65.25.25,0,0,1,.25-.25.23.23,0,0,1,.25.24Z"/><path class="cls-6" d="M78.38,98.66a7,7,0,0,1-1.19,3.85,6.6,6.6,0,0,1-3.12,2.5,4.14,4.14,0,0,1-3.88-.27,4.24,4.24,0,0,1-1.44-3.57,4.16,4.16,0,0,0,1.52,3.46,3.93,3.93,0,0,0,3.71.15,6.41,6.41,0,0,0,2.9-2.47,6.63,6.63,0,0,0,1-3.65.25.25,0,1,1,.5,0Z"/><path class="cls-6" d="M87.75,96.15A7,7,0,0,1,86.56,100a6.69,6.69,0,0,1-3.11,2.5,4.11,4.11,0,0,1-3.88-.28,4.22,4.22,0,0,1-1.44-3.56,4.15,4.15,0,0,0,1.51,3.46,4,4,0,0,0,3.72.15,6.38,6.38,0,0,0,2.89-2.47,6.66,6.66,0,0,0,1-3.65.26.26,0,0,1,.25-.26.25.25,0,0,1,.25.25Z"/><path class="cls-6" d="M97.13,93.64a7,7,0,0,1-1.19,3.85,6.66,6.66,0,0,1-3.12,2.5,4.11,4.11,0,0,1-3.88-.28,4.22,4.22,0,0,1-1.44-3.56A4.17,4.17,0,0,0,89,99.61a4,4,0,0,0,3.71.15,6.37,6.37,0,0,0,2.9-2.48,6.6,6.6,0,0,0,1-3.64.25.25,0,0,1,.24-.26.25.25,0,0,1,.26.24Z"/><path class="cls-6" d="M106.5,91.12A7,7,0,0,1,105.31,95a6.69,6.69,0,0,1-3.11,2.5,4.17,4.17,0,0,1-3.88-.28,4.22,4.22,0,0,1-1.44-3.56,4.17,4.17,0,0,0,1.51,3.46,4,4,0,0,0,3.72.14A6.27,6.27,0,0,0,105,94.77a6.61,6.61,0,0,0,1-3.65.25.25,0,0,1,.25-.25.23.23,0,0,1,.25.24Z"/><path class="cls-6" d="M115.88,88.61a7,7,0,0,1-1.19,3.85,6.6,6.6,0,0,1-3.12,2.5,4.14,4.14,0,0,1-3.88-.27,4.24,4.24,0,0,1-1.44-3.57,4.18,4.18,0,0,0,1.52,3.47,3.93,3.93,0,0,0,3.71.14,6.41,6.41,0,0,0,2.9-2.47,6.63,6.63,0,0,0,1-3.65.24.24,0,0,1,.24-.25.24.24,0,0,1,.26.24Z"/><path class="cls-6" d="M69,113.22a7,7,0,0,1-1.19,3.86,6.69,6.69,0,0,1-3.11,2.5,4.17,4.17,0,0,1-3.88-.28,4.22,4.22,0,0,1-1.44-3.56,4.17,4.17,0,0,0,1.51,3.46,4,4,0,0,0,3.72.14,6.27,6.27,0,0,0,2.89-2.47,6.61,6.61,0,0,0,1-3.65.25.25,0,0,1,.25-.25.23.23,0,0,1,.25.24Z"/><path class="cls-6" d="M78.38,110.71a7,7,0,0,1-1.19,3.85,6.6,6.6,0,0,1-3.12,2.5,4.14,4.14,0,0,1-3.88-.27,4.24,4.24,0,0,1-1.44-3.57,4.18,4.18,0,0,0,1.52,3.47,3.93,3.93,0,0,0,3.71.14,6.41,6.41,0,0,0,2.9-2.47,6.63,6.63,0,0,0,1-3.65.24.24,0,0,1,.24-.25.24.24,0,0,1,.26.24Z"/><path class="cls-6" d="M87.75,108.2a7,7,0,0,1-1.19,3.85,6.63,6.63,0,0,1-3.11,2.5,4.14,4.14,0,0,1-3.88-.27,4.24,4.24,0,0,1-1.44-3.57,4.15,4.15,0,0,0,1.51,3.46,4,4,0,0,0,3.72.15,6.38,6.38,0,0,0,2.89-2.47,6.63,6.63,0,0,0,1-3.65.26.26,0,0,1,.25-.26.25.25,0,0,1,.25.25Z"/><path class="cls-6" d="M97.13,105.69a7,7,0,0,1-1.19,3.85,6.66,6.66,0,0,1-3.12,2.5,4.11,4.11,0,0,1-3.88-.28,4.22,4.22,0,0,1-1.44-3.56A4.16,4.16,0,0,0,89,111.66a3.93,3.93,0,0,0,3.71.15,6.41,6.41,0,0,0,2.9-2.47,6.66,6.66,0,0,0,1-3.65.25.25,0,1,1,.5,0Z"/><path class="cls-6" d="M106.5,103.18a7,7,0,0,1-1.19,3.85,6.69,6.69,0,0,1-3.11,2.5,4.11,4.11,0,0,1-3.88-.28,4.22,4.22,0,0,1-1.44-3.56,4.17,4.17,0,0,0,1.51,3.46,4,4,0,0,0,3.72.15,6.34,6.34,0,0,0,2.89-2.48,6.6,6.6,0,0,0,1-3.64.26.26,0,0,1,.25-.26.25.25,0,0,1,.25.24Z"/><path class="cls-6" d="M115.88,100.66a7,7,0,0,1-1.19,3.86,6.66,6.66,0,0,1-3.12,2.5,4.17,4.17,0,0,1-3.88-.28,4.22,4.22,0,0,1-1.44-3.56,4.17,4.17,0,0,0,1.52,3.46,3.93,3.93,0,0,0,3.71.14,6.29,6.29,0,0,0,2.9-2.47,6.61,6.61,0,0,0,1-3.65.25.25,0,0,1,.24-.25.24.24,0,0,1,.26.24Z"/><path class="cls-6" d="M59.44,280.33a18.65,18.65,0,0,0-5.18,2.14,7.71,7.71,0,0,0-3.56,4.12,2.63,2.63,0,0,0,.58,2.55,4.37,4.37,0,0,0,2.48,1.18,14.26,14.26,0,0,0,5.62-.46,14.18,14.18,0,0,1-5.64.58,4.44,4.44,0,0,1-2.59-1.17,2.83,2.83,0,0,1-.69-2.73,8,8,0,0,1,3.6-4.39,19.19,19.19,0,0,1,5.25-2.3.24.24,0,0,1,.31.17.24.24,0,0,1-.17.31Z"/><path class="cls-6" d="M59.44,300.23a13.76,13.76,0,0,1-5.78.41,4.42,4.42,0,0,1-2.6-1.35,3.07,3.07,0,0,1-.6-2.82,8,8,0,0,1,3.63-4.38,18.26,18.26,0,0,1,5.29-2.23,18.29,18.29,0,0,0-5.22,2.33,7.87,7.87,0,0,0-3.46,4.34,2.81,2.81,0,0,0,.59,2.56,4.14,4.14,0,0,0,2.44,1.18,13.25,13.25,0,0,0,5.58-.52h0a.25.25,0,0,1,.31.17.26.26,0,0,1-.18.31Z"/><path class="cls-6" d="M59.44,310.18a14.11,14.11,0,0,1-5.75.44,4.52,4.52,0,0,1-2.61-1.3,3,3,0,0,1-.62-2.8,8,8,0,0,1,3.65-4.33,18.75,18.75,0,0,1,5.27-2.2,18.51,18.51,0,0,0-5.2,2.3,7.87,7.87,0,0,0-3.48,4.28,2.68,2.68,0,0,0,.61,2.54,4.18,4.18,0,0,0,2.44,1.14,13.65,13.65,0,0,0,5.56-.55h0a.25.25,0,1,1,.13.48Z"/><path class="cls-6" d="M59.44,320.14a14.11,14.11,0,0,1-5.75.43,4.52,4.52,0,0,1-2.61-1.3,3,3,0,0,1-.62-2.8,8,8,0,0,1,3.65-4.33,18.75,18.75,0,0,1,5.27-2.2,18.53,18.53,0,0,0-5.2,2.31,7.8,7.8,0,0,0-3.48,4.28,2.67,2.67,0,0,0,.61,2.53,4.18,4.18,0,0,0,2.44,1.14,13.65,13.65,0,0,0,5.56-.55h0a.26.26,0,0,1,.31.18.25.25,0,0,1-.18.3Z"/><path class="cls-6" d="M69,277.57A5.51,5.51,0,0,1,67.67,281a6.88,6.88,0,0,1-3,2.05,4.94,4.94,0,0,1-3.61,0,2.72,2.72,0,0,1-1.3-1.25,3.71,3.71,0,0,1-.36-1.76,3.8,3.8,0,0,0,.41,1.73,2.64,2.64,0,0,0,1.3,1.17,4.78,4.78,0,0,0,3.47-.14,6.67,6.67,0,0,0,2.82-2.06,5.07,5.07,0,0,0,1.12-3.22.25.25,0,0,1,.25-.25.25.25,0,0,1,.25.25Z"/><path class="cls-6" d="M78.38,275.06a5.49,5.49,0,0,1-1.33,3.45,6.85,6.85,0,0,1-3,2.06,4.92,4.92,0,0,1-3.6,0,2.74,2.74,0,0,1-1.31-1.25,4,4,0,0,1-.36-1.77,3.85,3.85,0,0,0,.42,1.74,2.62,2.62,0,0,0,1.3,1.16,4.74,4.74,0,0,0,3.47-.13,6.67,6.67,0,0,0,2.82-2.06,5.09,5.09,0,0,0,1.12-3.22.25.25,0,0,1,.24-.25.25.25,0,0,1,.26.24Z"/><path class="cls-6" d="M87.75,272.55A5.51,5.51,0,0,1,86.42,276a6.82,6.82,0,0,1-3,2.06,4.94,4.94,0,0,1-3.61,0,2.72,2.72,0,0,1-1.3-1.25,3.75,3.75,0,0,1-.36-1.77,3.87,3.87,0,0,0,.41,1.74,2.62,2.62,0,0,0,1.3,1.16,4.78,4.78,0,0,0,3.47-.13,6.61,6.61,0,0,0,2.82-2.07,5,5,0,0,0,1.12-3.21.25.25,0,0,1,.25-.25.23.23,0,0,1,.25.24Z"/><path class="cls-6" d="M97.13,270a5.51,5.51,0,0,1-1.33,3.45,7,7,0,0,1-3,2.06,4.87,4.87,0,0,1-3.6,0,2.68,2.68,0,0,1-1.31-1.24,4,4,0,0,1-.36-1.77,3.88,3.88,0,0,0,.42,1.74,2.62,2.62,0,0,0,1.3,1.16,4.74,4.74,0,0,0,3.47-.14,6.51,6.51,0,0,0,2.82-2.06A5.06,5.06,0,0,0,96.63,270a.26.26,0,0,1,.24-.26.26.26,0,0,1,.26.25Z"/><path class="cls-6" d="M106.5,267.53a5.51,5.51,0,0,1-1.33,3.45,7,7,0,0,1-3,2.06,4.94,4.94,0,0,1-3.61,0,2.68,2.68,0,0,1-1.3-1.25,3.69,3.69,0,0,1-.36-1.76,3.87,3.87,0,0,0,.41,1.74,2.62,2.62,0,0,0,1.3,1.16,4.78,4.78,0,0,0,3.47-.14,6.67,6.67,0,0,0,2.82-2.06,5.06,5.06,0,0,0,1.12-3.21.26.26,0,0,1,.25-.26.25.25,0,0,1,.25.25Z"/><path class="cls-6" d="M115.88,265a5.51,5.51,0,0,1-1.33,3.46,6.91,6.91,0,0,1-3,2,4.92,4.92,0,0,1-3.6,0,2.74,2.74,0,0,1-1.31-1.25,4,4,0,0,1-.36-1.76,3.81,3.81,0,0,0,.42,1.73,2.64,2.64,0,0,0,1.3,1.17,4.79,4.79,0,0,0,3.47-.14,6.67,6.67,0,0,0,2.82-2.06,5.07,5.07,0,0,0,1.12-3.22.25.25,0,0,1,.24-.25.26.26,0,0,1,.26.25Z"/><path class="cls-6" d="M69,287.35a5.49,5.49,0,0,1-1.33,3.45,6.82,6.82,0,0,1-3,2.06,4.94,4.94,0,0,1-3.61,0,2.72,2.72,0,0,1-1.3-1.25,3.73,3.73,0,0,1-.36-1.77,3.84,3.84,0,0,0,.41,1.74,2.62,2.62,0,0,0,1.3,1.16,4.73,4.73,0,0,0,3.47-.13,6.67,6.67,0,0,0,2.82-2.06,5.09,5.09,0,0,0,1.12-3.22.25.25,0,0,1,.25-.25.23.23,0,0,1,.25.24Z"/><path class="cls-6" d="M78.38,284.84a5.51,5.51,0,0,1-1.33,3.45,7,7,0,0,1-3,2.06,4.87,4.87,0,0,1-3.6,0,2.68,2.68,0,0,1-1.31-1.24,4,4,0,0,1-.36-1.77,3.88,3.88,0,0,0,.42,1.74,2.62,2.62,0,0,0,1.3,1.16,4.74,4.74,0,0,0,3.47-.14,6.51,6.51,0,0,0,2.82-2.06,5,5,0,0,0,1.12-3.21.25.25,0,0,1,.24-.25.24.24,0,0,1,.26.24Z"/><path class="cls-6" d="M87.75,282.33a5.51,5.51,0,0,1-1.33,3.45,7,7,0,0,1-3,2.06,4.94,4.94,0,0,1-3.61,0,2.7,2.7,0,0,1-1.3-1.24,3.75,3.75,0,0,1-.36-1.77,3.87,3.87,0,0,0,.41,1.74,2.62,2.62,0,0,0,1.3,1.16,4.73,4.73,0,0,0,3.47-.14,6.67,6.67,0,0,0,2.82-2.06,5.06,5.06,0,0,0,1.12-3.21.26.26,0,0,1,.25-.26.25.25,0,0,1,.25.25Z"/><path class="cls-6" d="M97.13,279.82a5.51,5.51,0,0,1-1.33,3.45,7,7,0,0,1-3,2.06,5,5,0,0,1-3.6,0,2.7,2.7,0,0,1-1.31-1.25,4,4,0,0,1-.36-1.76,3.81,3.81,0,0,0,.42,1.73,2.64,2.64,0,0,0,1.3,1.17,4.79,4.79,0,0,0,3.47-.14A6.67,6.67,0,0,0,95.51,283a5.06,5.06,0,0,0,1.12-3.21.25.25,0,1,1,.5,0Z"/><path class="cls-6" d="M106.5,277.3a5.49,5.49,0,0,1-1.33,3.45,6.82,6.82,0,0,1-3,2.06,4.94,4.94,0,0,1-3.61,0,2.72,2.72,0,0,1-1.3-1.25,3.71,3.71,0,0,1-.36-1.76,3.8,3.8,0,0,0,.41,1.73,2.62,2.62,0,0,0,1.3,1.16,4.73,4.73,0,0,0,3.47-.13,6.67,6.67,0,0,0,2.82-2.06A5.07,5.07,0,0,0,106,277.3a.25.25,0,0,1,.25-.25.25.25,0,0,1,.25.24Z"/><path class="cls-6" d="M115.88,274.79a5.49,5.49,0,0,1-1.33,3.45,6.85,6.85,0,0,1-3,2.06,4.92,4.92,0,0,1-3.6,0,2.74,2.74,0,0,1-1.31-1.25,4,4,0,0,1-.36-1.77,3.85,3.85,0,0,0,.42,1.74,2.62,2.62,0,0,0,1.3,1.16,4.74,4.74,0,0,0,3.47-.13,6.67,6.67,0,0,0,2.82-2.06,5.09,5.09,0,0,0,1.12-3.22.25.25,0,0,1,.24-.25.24.24,0,0,1,.26.24Z"/><path class="cls-6" d="M69,297.4a5.49,5.49,0,0,1-1.33,3.45,6.82,6.82,0,0,1-3,2.06,4.94,4.94,0,0,1-3.61,0,2.72,2.72,0,0,1-1.3-1.25,3.71,3.71,0,0,1-.36-1.76,3.83,3.83,0,0,0,.41,1.73,2.62,2.62,0,0,0,1.3,1.16,4.73,4.73,0,0,0,3.47-.13,6.67,6.67,0,0,0,2.82-2.06,5.09,5.09,0,0,0,1.12-3.22.25.25,0,0,1,.5,0Z"/><path class="cls-6" d="M78.38,294.89a5.49,5.49,0,0,1-1.33,3.45,6.85,6.85,0,0,1-3,2.06,4.92,4.92,0,0,1-3.6,0,2.74,2.74,0,0,1-1.31-1.25,4,4,0,0,1-.36-1.77,3.88,3.88,0,0,0,.42,1.74,2.62,2.62,0,0,0,1.3,1.16,4.74,4.74,0,0,0,3.47-.13,6.61,6.61,0,0,0,2.82-2.07,5,5,0,0,0,1.12-3.21.25.25,0,0,1,.24-.25.24.24,0,0,1,.26.24Z"/><path class="cls-6" d="M87.75,292.38a5.51,5.51,0,0,1-1.33,3.45,7,7,0,0,1-3,2.06,4.89,4.89,0,0,1-3.61,0,2.66,2.66,0,0,1-1.3-1.24,3.75,3.75,0,0,1-.36-1.77,3.87,3.87,0,0,0,.41,1.74,2.62,2.62,0,0,0,1.3,1.16,4.73,4.73,0,0,0,3.47-.14,6.51,6.51,0,0,0,2.82-2.06,5,5,0,0,0,1.12-3.21.26.26,0,0,1,.25-.26.25.25,0,0,1,.25.25Z"/><path class="cls-6" d="M97.13,289.87a5.51,5.51,0,0,1-1.33,3.45,7,7,0,0,1-3,2.06,4.92,4.92,0,0,1-3.6,0,2.72,2.72,0,0,1-1.31-1.24,4,4,0,0,1-.36-1.77,3.88,3.88,0,0,0,.42,1.74,2.62,2.62,0,0,0,1.3,1.16,4.74,4.74,0,0,0,3.47-.14,6.67,6.67,0,0,0,2.82-2.06,5.06,5.06,0,0,0,1.12-3.21.26.26,0,0,1,.24-.26.26.26,0,0,1,.26.25Z"/><path class="cls-6" d="M106.5,287.35a5.51,5.51,0,0,1-1.33,3.46,6.88,6.88,0,0,1-3,2.05,4.94,4.94,0,0,1-3.61,0,2.72,2.72,0,0,1-1.3-1.25,3.71,3.71,0,0,1-.36-1.76,3.8,3.8,0,0,0,.41,1.73,2.64,2.64,0,0,0,1.3,1.17,4.78,4.78,0,0,0,3.47-.14,6.67,6.67,0,0,0,2.82-2.06,5.07,5.07,0,0,0,1.12-3.22.25.25,0,0,1,.25-.25.25.25,0,0,1,.25.25Z"/><path class="cls-6" d="M115.88,284.84a5.49,5.49,0,0,1-1.33,3.45,6.85,6.85,0,0,1-3,2.06,4.92,4.92,0,0,1-3.6,0,2.74,2.74,0,0,1-1.31-1.25,4,4,0,0,1-.36-1.77,3.85,3.85,0,0,0,.42,1.74,2.62,2.62,0,0,0,1.3,1.16,4.74,4.74,0,0,0,3.47-.13,6.67,6.67,0,0,0,2.82-2.06,5.09,5.09,0,0,0,1.12-3.22.25.25,0,0,1,.24-.25.25.25,0,0,1,.26.24Z"/><path class="cls-6" d="M69,307.43a5.51,5.51,0,0,1-1.33,3.45,6.82,6.82,0,0,1-3,2.06A4.94,4.94,0,0,1,61,313a2.72,2.72,0,0,1-1.3-1.25,3.75,3.75,0,0,1-.36-1.77,3.87,3.87,0,0,0,.41,1.74,2.62,2.62,0,0,0,1.3,1.16,4.78,4.78,0,0,0,3.47-.13,6.61,6.61,0,0,0,2.82-2.07,5,5,0,0,0,1.12-3.21.25.25,0,0,1,.25-.25.23.23,0,0,1,.25.24Z"/><path class="cls-6" d="M78.38,304.92a5.51,5.51,0,0,1-1.33,3.45,7,7,0,0,1-3,2.06,4.87,4.87,0,0,1-3.6,0,2.68,2.68,0,0,1-1.31-1.24,4,4,0,0,1-.36-1.77,3.88,3.88,0,0,0,.42,1.74,2.62,2.62,0,0,0,1.3,1.16,4.74,4.74,0,0,0,3.47-.14,6.59,6.59,0,0,0,2.82-2.06,5.06,5.06,0,0,0,1.12-3.21.26.26,0,0,1,.24-.26.26.26,0,0,1,.26.25Z"/><path class="cls-6" d="M87.75,302.41a5.51,5.51,0,0,1-1.33,3.45,7,7,0,0,1-3,2.06,5,5,0,0,1-3.61,0,2.68,2.68,0,0,1-1.3-1.25,3.69,3.69,0,0,1-.36-1.76,3.87,3.87,0,0,0,.41,1.74,2.62,2.62,0,0,0,1.3,1.16,4.78,4.78,0,0,0,3.47-.14,6.67,6.67,0,0,0,2.82-2.06,5.06,5.06,0,0,0,1.12-3.21.26.26,0,0,1,.25-.26.25.25,0,0,1,.25.25Z"/><path class="cls-6" d="M97.13,299.89a5.46,5.46,0,0,1-1.33,3.45,6.85,6.85,0,0,1-3,2.06,4.92,4.92,0,0,1-3.6,0,2.74,2.74,0,0,1-1.31-1.25,4,4,0,0,1-.36-1.76,3.81,3.81,0,0,0,.42,1.73,2.64,2.64,0,0,0,1.3,1.17,4.79,4.79,0,0,0,3.47-.14,6.67,6.67,0,0,0,2.82-2.06,5.07,5.07,0,0,0,1.12-3.22.25.25,0,0,1,.24-.25.26.26,0,0,1,.26.25Z"/><path class="cls-6" d="M106.5,297.38a5.49,5.49,0,0,1-1.33,3.45,6.82,6.82,0,0,1-3,2.06,4.94,4.94,0,0,1-3.61,0,2.72,2.72,0,0,1-1.3-1.25,3.73,3.73,0,0,1-.36-1.77,3.84,3.84,0,0,0,.41,1.74,2.62,2.62,0,0,0,1.3,1.16,4.73,4.73,0,0,0,3.47-.13,6.67,6.67,0,0,0,2.82-2.06,5.09,5.09,0,0,0,1.12-3.22.25.25,0,0,1,.5,0Z"/><path class="cls-6" d="M115.88,294.87a5.51,5.51,0,0,1-1.33,3.45,6.93,6.93,0,0,1-3,2.06,4.92,4.92,0,0,1-3.6,0,2.74,2.74,0,0,1-1.31-1.25,4,4,0,0,1-.36-1.77,3.88,3.88,0,0,0,.42,1.74,2.62,2.62,0,0,0,1.3,1.16,4.79,4.79,0,0,0,3.47-.13,6.61,6.61,0,0,0,2.82-2.07,5,5,0,0,0,1.12-3.21.25.25,0,0,1,.24-.25.24.24,0,0,1,.26.24Z"/><path class="cls-6" d="M69,317.46a5.51,5.51,0,0,1-1.33,3.45,7,7,0,0,1-3,2.06A4.94,4.94,0,0,1,61,323a2.7,2.7,0,0,1-1.3-1.24,3.75,3.75,0,0,1-.36-1.77,3.87,3.87,0,0,0,.41,1.74,2.62,2.62,0,0,0,1.3,1.16,4.73,4.73,0,0,0,3.47-.14,6.67,6.67,0,0,0,2.82-2.06,5.06,5.06,0,0,0,1.12-3.21.26.26,0,0,1,.25-.26.25.25,0,0,1,.25.25Z"/><path class="cls-6" d="M78.38,315a5.51,5.51,0,0,1-1.33,3.45,7,7,0,0,1-3,2.06,5,5,0,0,1-3.6,0,2.7,2.7,0,0,1-1.31-1.25,4,4,0,0,1-.36-1.76,3.81,3.81,0,0,0,.42,1.73,2.64,2.64,0,0,0,1.3,1.17,4.79,4.79,0,0,0,3.47-.14,6.67,6.67,0,0,0,2.82-2.06A5.06,5.06,0,0,0,77.88,315a.25.25,0,1,1,.5,0Z"/><path class="cls-6" d="M87.75,312.43a5.49,5.49,0,0,1-1.33,3.45,6.82,6.82,0,0,1-3,2.06,4.94,4.94,0,0,1-3.61,0,2.72,2.72,0,0,1-1.3-1.25,3.71,3.71,0,0,1-.36-1.76,3.8,3.8,0,0,0,.41,1.73,2.62,2.62,0,0,0,1.3,1.16,4.73,4.73,0,0,0,3.47-.13,6.67,6.67,0,0,0,2.82-2.06,5.07,5.07,0,0,0,1.12-3.22.25.25,0,0,1,.25-.25.25.25,0,0,1,.25.24Z"/><path class="cls-6" d="M97.13,309.92a5.49,5.49,0,0,1-1.33,3.45,6.85,6.85,0,0,1-3,2.06,4.92,4.92,0,0,1-3.6,0,2.74,2.74,0,0,1-1.31-1.25,4,4,0,0,1-.36-1.77,3.85,3.85,0,0,0,.42,1.74,2.62,2.62,0,0,0,1.3,1.16,4.74,4.74,0,0,0,3.47-.13,6.67,6.67,0,0,0,2.82-2.06,5.09,5.09,0,0,0,1.12-3.22.25.25,0,0,1,.24-.25.24.24,0,0,1,.26.24Z"/><path class="cls-6" d="M106.5,307.41a5.51,5.51,0,0,1-1.33,3.45,7,7,0,0,1-3,2.06,4.89,4.89,0,0,1-3.61,0,2.66,2.66,0,0,1-1.3-1.24,3.75,3.75,0,0,1-.36-1.77,3.87,3.87,0,0,0,.41,1.74,2.62,2.62,0,0,0,1.3,1.16,4.73,4.73,0,0,0,3.47-.14,6.51,6.51,0,0,0,2.82-2.06,5,5,0,0,0,1.12-3.21.26.26,0,0,1,.25-.26.25.25,0,0,1,.25.25Z"/><path class="cls-6" d="M115.88,304.9a5.51,5.51,0,0,1-1.33,3.45,7,7,0,0,1-3,2.06,4.92,4.92,0,0,1-3.6,0,2.72,2.72,0,0,1-1.31-1.24,4,4,0,0,1-.36-1.77,3.88,3.88,0,0,0,.42,1.74,2.62,2.62,0,0,0,1.3,1.16,4.74,4.74,0,0,0,3.47-.14,6.67,6.67,0,0,0,2.82-2.06,5.06,5.06,0,0,0,1.12-3.21.26.26,0,0,1,.24-.26.26.26,0,0,1,.26.25Z"/><polygon class="cls-7" points="61.88 64.63 61.88 69.63 56.88 70.97 56.88 65.97 61.88 64.63"/><polygon class="cls-7" points="61.88 76.59 61.88 81.59 56.88 82.93 56.88 77.93 61.88 76.59"/><polygon class="cls-7" points="61.88 100.51 61.88 105.51 56.88 106.85 56.88 101.85 61.88 100.51"/><polygon class="cls-7" points="61.88 112.48 61.88 117.48 56.88 118.82 56.88 113.82 61.88 112.48"/><polygon class="cls-7" points="61.88 88.55 61.88 93.55 56.88 94.89 56.88 89.89 61.88 88.55"/><polygon class="cls-7" points="71.25 74.08 71.25 79.08 66.25 80.42 66.25 75.42 71.25 74.08"/><polygon class="cls-7" points="71.25 98 71.25 103 66.25 104.34 66.25 99.34 71.25 98"/><polygon class="cls-7" points="71.25 109.96 71.25 114.96 66.25 116.3 66.25 111.3 71.25 109.96"/><polygon class="cls-7" points="71.25 86.04 71.25 91.04 66.25 92.38 66.25 87.38 71.25 86.04"/><polygon class="cls-7" points="71.25 62.12 71.25 67.12 66.25 68.46 66.25 63.46 71.25 62.12"/><polygon class="cls-7" points="80.63 71.57 80.63 76.57 75.63 77.91 75.63 72.91 80.63 71.57"/><polygon class="cls-7" points="80.63 95.49 80.63 100.49 75.63 101.83 75.63 96.83 80.63 95.49"/><polygon class="cls-7" points="80.63 107.45 80.63 112.45 75.63 113.79 75.63 108.79 80.63 107.45"/><polygon class="cls-7" points="80.63 83.53 80.63 88.53 75.63 89.87 75.63 84.87 80.63 83.53"/><polygon class="cls-7" points="80.63 59.61 80.63 64.61 75.63 65.95 75.63 60.95 80.63 59.61"/><polygon class="cls-7" points="90 69.06 90 74.06 85 75.39 85 70.39 90 69.06"/><polygon class="cls-7" points="90 92.98 90 97.98 85 99.32 85 94.32 90 92.98"/><polygon class="cls-7" points="90 104.94 90 109.94 85 111.28 85 106.28 90 104.94"/><polygon class="cls-7" points="90 81.02 90 86.02 85 87.36 85 82.36 90 81.02"/><polygon class="cls-7" points="90 57.09 90 62.09 85 63.43 85 58.43 90 57.09"/><polygon class="cls-7" points="99.38 66.54 99.38 71.54 94.38 72.88 94.38 67.88 99.38 66.54"/><polygon class="cls-7" points="99.38 90.47 99.38 95.47 94.38 96.81 94.38 91.81 99.38 90.47"/><polygon class="cls-7" points="99.38 102.43 99.38 107.43 94.38 108.77 94.38 103.77 99.38 102.43"/><polygon class="cls-7" points="99.38 78.5 99.38 83.5 94.38 84.84 94.38 79.84 99.38 78.5"/><polygon class="cls-7" points="99.38 54.58 99.38 59.58 94.38 60.92 94.38 55.92 99.38 54.58"/><polygon class="cls-7" points="108.75 52.07 108.75 57.07 103.75 58.41 103.75 53.41 108.75 52.07"/><polygon class="cls-7" points="108.75 75.99 108.75 80.99 103.75 82.33 103.75 77.33 108.75 75.99"/><polygon class="cls-7" points="108.75 99.92 108.75 104.92 103.75 106.25 103.75 101.25 108.75 99.92"/><polygon class="cls-7" points="108.75 87.95 108.75 92.95 103.75 94.29 103.75 89.29 108.75 87.95"/><polygon class="cls-7" points="108.75 64.03 108.75 69.03 103.75 70.37 103.75 65.37 108.75 64.03"/><polygon class="cls-7" points="118.13 61.52 118.13 66.52 113.13 67.86 113.13 62.86 118.13 61.52"/><polygon class="cls-7" points="118.13 85.44 118.13 90.44 113.13 91.78 113.13 86.78 118.13 85.44"/><polygon class="cls-7" points="118.13 97.4 118.13 102.4 113.13 103.74 113.13 98.74 118.13 97.4"/><polygon class="cls-7" points="118.13 73.48 118.13 78.48 113.13 79.82 113.13 74.82 118.13 73.48"/><polygon class="cls-7" points="118.13 49.56 118.13 54.56 113.13 55.9 113.13 50.9 118.13 49.56"/><ellipse class="cls-8" cx="59.38" cy="67.8" rx="1.14" ry="0.87" transform="translate(-30.75 67.84) rotate(-48.82)"/><ellipse class="cls-8" cx="68.75" cy="65.29" rx="1.14" ry="0.87" transform="translate(-25.66 74.04) rotate(-48.82)"/><ellipse class="cls-8" cx="78.13" cy="62.78" rx="1.14" ry="0.87" transform="translate(-20.56 80.24) rotate(-48.82)"/><ellipse class="cls-8" cx="87.5" cy="60.26" rx="1.14" ry="0.87" transform="translate(-15.47 86.44) rotate(-48.82)"/><ellipse class="cls-8" cx="96.88" cy="57.75" rx="1.14" ry="0.87" transform="translate(-10.38 92.63) rotate(-48.82)"/><ellipse class="cls-8" cx="106.25" cy="55.24" rx="1.14" ry="0.87" transform="translate(-5.29 98.83) rotate(-48.82)"/><ellipse class="cls-8" cx="115.63" cy="52.73" rx="1.14" ry="0.87" transform="translate(-0.19 105.03) rotate(-48.82)"/><ellipse class="cls-8" cx="59.38" cy="79.55" rx="1.14" ry="0.87" transform="translate(-39.59 71.86) rotate(-48.82)"/><ellipse class="cls-8" cx="68.75" cy="77.04" rx="1.14" ry="0.87" transform="translate(-34.5 78.05) rotate(-48.82)"/><ellipse class="cls-8" cx="78.13" cy="74.53" rx="1.14" ry="0.87" transform="translate(-29.41 84.25) rotate(-48.82)"/><ellipse class="cls-8" cx="87.5" cy="72.02" rx="1.14" ry="0.87" transform="translate(-24.31 90.45) rotate(-48.82)"/><ellipse class="cls-8" cx="96.88" cy="69.5" rx="1.14" ry="0.87" transform="translate(-19.22 96.65) rotate(-48.82)"/><ellipse class="cls-8" cx="106.25" cy="66.99" rx="1.14" ry="0.87" transform="translate(-14.13 102.84) rotate(-48.82)"/><ellipse class="cls-8" cx="115.63" cy="64.48" rx="1.14" ry="0.87" transform="translate(-9.04 109.04) rotate(-48.82)"/><ellipse class="cls-8" cx="59.38" cy="91.72" rx="1.14" ry="0.87" transform="translate(-48.75 76.01) rotate(-48.82)"/><ellipse class="cls-8" cx="68.75" cy="89.21" rx="1.14" ry="0.87" transform="translate(-43.66 82.21) rotate(-48.82)"/><ellipse class="cls-8" cx="78.13" cy="86.7" rx="1.14" ry="0.87" transform="translate(-38.57 88.41) rotate(-48.82)"/><ellipse class="cls-8" cx="87.5" cy="84.19" rx="1.14" ry="0.87" transform="translate(-33.47 94.61) rotate(-48.82)"/><ellipse class="cls-8" cx="96.88" cy="81.67" rx="1.14" ry="0.87" transform="translate(-28.38 100.8) rotate(-48.82)"/><ellipse class="cls-8" cx="106.25" cy="79.16" rx="1.14" ry="0.87" transform="translate(-23.29 107) rotate(-48.82)"/><ellipse class="cls-8" cx="115.63" cy="76.65" rx="1.14" ry="0.87" transform="translate(-18.2 113.2) rotate(-48.82)"/><ellipse class="cls-8" cx="59.38" cy="103.68" rx="1.14" ry="0.87" transform="translate(-57.75 80.1) rotate(-48.82)"/><ellipse class="cls-8" cx="68.75" cy="101.17" rx="1.14" ry="0.87" transform="translate(-52.66 86.3) rotate(-48.82)"/><ellipse class="cls-8" cx="78.13" cy="98.66" rx="1.14" ry="0.87" transform="translate(-47.57 92.49) rotate(-48.82)"/><ellipse class="cls-8" cx="87.5" cy="96.15" rx="1.14" ry="0.87" transform="translate(-42.48 98.69) rotate(-48.82)"/><ellipse class="cls-8" cx="96.88" cy="93.64" rx="1.14" ry="0.87" transform="translate(-37.38 104.89) rotate(-48.82)"/><ellipse class="cls-8" cx="106.25" cy="91.12" rx="1.14" ry="0.87" transform="translate(-32.29 111.09) rotate(-48.82)"/><ellipse class="cls-8" cx="115.63" cy="88.61" rx="1.14" ry="0.87" transform="translate(-27.2 117.28) rotate(-48.82)"/><ellipse class="cls-8" cx="59.38" cy="115.65" rx="1.14" ry="0.87" transform="translate(-66.76 84.18) rotate(-48.82)"/><ellipse class="cls-8" cx="68.75" cy="113.13" rx="1.14" ry="0.87" transform="translate(-61.66 90.38) rotate(-48.82)"/><ellipse class="cls-8" cx="78.13" cy="110.62" rx="1.14" ry="0.87" transform="translate(-56.57 96.58) rotate(-48.82)"/><ellipse class="cls-8" cx="87.5" cy="108.11" rx="1.14" ry="0.87" transform="translate(-51.48 102.78) rotate(-48.82)"/><ellipse class="cls-8" cx="96.88" cy="105.6" rx="1.14" ry="0.87" transform="translate(-46.39 108.97) rotate(-48.82)"/><ellipse class="cls-8" cx="106.25" cy="103.09" rx="1.14" ry="0.87" transform="translate(-41.29 115.17) rotate(-48.82)"/><ellipse class="cls-8" cx="115.63" cy="100.57" rx="1.14" ry="0.87" transform="translate(-36.2 121.37) rotate(-48.82)"/><polygon class="cls-7" points="61.88 276.92 61.88 281.92 56.88 283.26 56.88 278.26 61.88 276.92"/><polygon class="cls-7" points="61.88 286.83 61.88 291.83 56.88 293.17 56.88 288.17 61.88 286.83"/><polygon class="cls-7" points="61.88 306.65 61.88 311.65 56.88 312.99 56.88 307.99 61.88 306.65"/><polygon class="cls-7" points="61.88 316.56 61.88 321.56 56.88 322.9 56.88 317.9 61.88 316.56"/><polygon class="cls-7" points="61.88 296.74 61.88 301.74 56.88 303.08 56.88 298.08 61.88 296.74"/><polygon class="cls-7" points="71.25 284.31 71.25 289.31 66.25 290.65 66.25 285.65 71.25 284.31"/><polygon class="cls-7" points="71.25 304.14 71.25 309.14 66.25 310.48 66.25 305.48 71.25 304.14"/><polygon class="cls-7" points="71.25 314.05 71.25 319.05 66.25 320.39 66.25 315.39 71.25 314.05"/><polygon class="cls-7" points="71.25 294.23 71.25 299.23 66.25 300.57 66.25 295.57 71.25 294.23"/><polygon class="cls-7" points="71.25 274.4 71.25 279.4 66.25 280.74 66.25 275.74 71.25 274.4"/><polygon class="cls-7" points="80.63 281.8 80.63 286.8 75.63 288.14 75.63 283.14 80.63 281.8"/><polygon class="cls-7" points="80.63 301.63 80.63 306.63 75.63 307.96 75.63 302.96 80.63 301.63"/><polygon class="cls-7" points="80.63 311.54 80.63 316.54 75.63 317.88 75.63 312.88 80.63 311.54"/><polygon class="cls-7" points="80.63 291.71 80.63 296.71 75.63 298.05 75.63 293.05 80.63 291.71"/><polygon class="cls-7" points="80.63 271.89 80.63 276.89 75.63 278.23 75.63 273.23 80.63 271.89"/><polygon class="cls-7" points="90 279.29 90 284.29 85 285.63 85 280.63 90 279.29"/><polygon class="cls-7" points="90 299.11 90 304.11 85 305.45 85 300.45 90 299.11"/><polygon class="cls-7" points="90 309.02 90 314.02 85 315.36 85 310.36 90 309.02"/><polygon class="cls-7" points="90 289.2 90 294.2 85 295.54 85 290.54 90 289.2"/><polygon class="cls-7" points="90 269.38 90 274.38 85 275.72 85 270.72 90 269.38"/><polygon class="cls-7" points="99.38 276.78 99.38 281.78 94.38 283.12 94.38 278.12 99.38 276.78"/><polygon class="cls-7" points="99.38 296.6 99.38 301.6 94.38 302.94 94.38 297.94 99.38 296.6"/><polygon class="cls-7" points="99.38 306.51 99.38 311.51 94.38 312.85 94.38 307.85 99.38 306.51"/><polygon class="cls-7" points="99.38 286.69 99.38 291.69 94.38 293.03 94.38 288.03 99.38 286.69"/><polygon class="cls-7" points="99.38 266.87 99.38 271.87 94.38 273.21 94.38 268.21 99.38 266.87"/><polygon class="cls-7" points="108.75 264.36 108.75 269.36 103.75 270.7 103.75 265.7 108.75 264.36"/><polygon class="cls-7" points="108.75 284.18 108.75 289.18 103.75 290.52 103.75 285.52 108.75 284.18"/><polygon class="cls-7" points="108.75 304 108.75 309 103.75 310.34 103.75 305.34 108.75 304"/><polygon class="cls-7" points="108.75 294.09 108.75 299.09 103.75 300.43 103.75 295.43 108.75 294.09"/><polygon class="cls-7" points="108.75 274.27 108.75 279.27 103.75 280.61 103.75 275.61 108.75 274.27"/><polygon class="cls-7" points="118.13 271.75 118.13 276.75 113.13 278.1 113.13 273.1 118.13 271.75"/><polygon class="cls-7" points="118.13 291.58 118.13 296.58 113.13 297.92 113.13 292.92 118.13 291.58"/><polygon class="cls-7" points="118.13 301.49 118.13 306.49 113.13 307.83 113.13 302.83 118.13 301.49"/><polygon class="cls-7" points="118.13 281.67 118.13 286.67 113.13 288.01 113.13 283.01 118.13 281.67"/><polygon class="cls-7" points="118.13 261.85 118.13 266.85 113.13 268.18 113.13 263.18 118.13 261.85"/><ellipse class="cls-8" cx="59.38" cy="280.09" rx="1.14" ry="0.87" transform="translate(-190.51 140.34) rotate(-48.82)"/><ellipse class="cls-8" cx="68.75" cy="277.57" rx="1.14" ry="0.87" transform="translate(-185.42 146.54) rotate(-48.82)"/><ellipse class="cls-8" cx="78.13" cy="275.06" rx="1.14" ry="0.87" transform="translate(-180.33 152.74) rotate(-48.82)"/><ellipse class="cls-8" cx="87.5" cy="272.55" rx="1.14" ry="0.87" transform="translate(-175.24 158.93) rotate(-48.82)"/><ellipse class="cls-8" cx="96.88" cy="270.04" rx="1.14" ry="0.87" transform="translate(-170.14 165.13) rotate(-48.82)"/><ellipse class="cls-8" cx="106.25" cy="267.53" rx="1.14" ry="0.87" transform="translate(-165.05 171.33) rotate(-48.82)"/><ellipse class="cls-8" cx="115.63" cy="265.01" rx="1.14" ry="0.87" transform="translate(-159.96 177.53) rotate(-48.82)"/><ellipse class="cls-8" cx="59.38" cy="289.79" rx="1.14" ry="0.87" transform="translate(-197.81 143.65) rotate(-48.82)"/><ellipse class="cls-8" cx="68.75" cy="287.27" rx="1.14" ry="0.87" transform="translate(-192.72 149.85) rotate(-48.82)"/><ellipse class="cls-8" cx="78.13" cy="284.76" rx="1.14" ry="0.87" transform="translate(-187.63 156.05) rotate(-48.82)"/><ellipse class="cls-8" cx="87.5" cy="282.25" rx="1.14" ry="0.87" transform="translate(-182.54 162.25) rotate(-48.82)"/><ellipse class="cls-8" cx="96.88" cy="279.74" rx="1.14" ry="0.87" transform="translate(-177.44 168.44) rotate(-48.82)"/><ellipse class="cls-8" cx="106.25" cy="277.23" rx="1.14" ry="0.87" transform="translate(-172.35 174.64) rotate(-48.82)"/><ellipse class="cls-8" cx="115.63" cy="274.71" rx="1.14" ry="0.87" transform="translate(-167.26 180.84) rotate(-48.82)"/><ellipse class="cls-8" cx="59.38" cy="299.91" rx="1.14" ry="0.87" transform="translate(-205.43 147.11) rotate(-48.82)"/><ellipse class="cls-8" cx="68.75" cy="297.4" rx="1.14" ry="0.87" transform="translate(-200.34 153.31) rotate(-48.82)"/><ellipse class="cls-8" cx="78.13" cy="294.88" rx="1.14" ry="0.87" transform="translate(-195.25 159.51) rotate(-48.82)"/><ellipse class="cls-8" cx="87.5" cy="292.37" rx="1.14" ry="0.87" transform="translate(-190.15 165.7) rotate(-48.82)"/><ellipse class="cls-8" cx="96.88" cy="289.86" rx="1.14" ry="0.87" transform="translate(-185.06 171.9) rotate(-48.82)"/><ellipse class="cls-8" cx="106.25" cy="287.35" rx="1.14" ry="0.87" transform="translate(-179.97 178.1) rotate(-48.82)"/><ellipse class="cls-8" cx="115.63" cy="284.84" rx="1.14" ry="0.87" transform="translate(-174.88 184.3) rotate(-48.82)"/><ellipse class="cls-8" cx="59.38" cy="309.82" rx="1.14" ry="0.87" transform="translate(-212.89 150.49) rotate(-48.82)"/><ellipse class="cls-8" cx="68.75" cy="307.31" rx="1.14" ry="0.87" transform="translate(-207.8 156.69) rotate(-48.82)"/><ellipse class="cls-8" cx="78.13" cy="304.79" rx="1.14" ry="0.87" transform="translate(-202.7 162.89) rotate(-48.82)"/><ellipse class="cls-8" cx="87.5" cy="302.28" rx="1.14" ry="0.87" transform="translate(-197.61 169.09) rotate(-48.82)"/><ellipse class="cls-8" cx="96.88" cy="299.77" rx="1.14" ry="0.87" transform="translate(-192.52 175.29) rotate(-48.82)"/><ellipse class="cls-8" cx="106.25" cy="297.26" rx="1.14" ry="0.87" transform="translate(-187.43 181.48) rotate(-48.82)"/><ellipse class="cls-8" cx="115.63" cy="294.75" rx="1.14" ry="0.87" transform="translate(-182.34 187.68) rotate(-48.82)"/><ellipse class="cls-8" cx="59.38" cy="319.73" rx="1.14" ry="0.87" transform="translate(-220.35 153.88) rotate(-48.82)"/><ellipse class="cls-8" cx="68.75" cy="317.22" rx="1.14" ry="0.87" transform="translate(-215.25 160.08) rotate(-48.82)"/><ellipse class="cls-8" cx="78.13" cy="314.71" rx="1.14" ry="0.87" transform="translate(-210.16 166.27) rotate(-48.82)"/><ellipse class="cls-8" cx="87.5" cy="312.19" rx="1.14" ry="0.87" transform="translate(-205.07 172.47) rotate(-48.82)"/><ellipse class="cls-8" cx="96.88" cy="309.68" rx="1.14" ry="0.87" transform="translate(-199.98 178.67) rotate(-48.82)"/><ellipse class="cls-8" cx="106.25" cy="307.17" rx="1.14" ry="0.87" transform="translate(-194.89 184.87) rotate(-48.82)"/><ellipse class="cls-8" cx="115.63" cy="304.66" rx="1.14" ry="0.87" transform="translate(-189.79 191.07) rotate(-48.82)"/><path class="cls-6" d="M59.44,336.8a18.65,18.65,0,0,0-5.18,2.14,7.73,7.73,0,0,0-3.56,4.13,2.63,2.63,0,0,0,.58,2.55,4.42,4.42,0,0,0,2.48,1.17,14.07,14.07,0,0,0,5.62-.45,14.37,14.37,0,0,1-5.64.58,4.57,4.57,0,0,1-2.59-1.17,2.84,2.84,0,0,1-.69-2.74,8,8,0,0,1,3.6-4.38,18.92,18.92,0,0,1,5.25-2.31.25.25,0,1,1,.14.48Z"/><path class="cls-6" d="M59.44,356.71a13.92,13.92,0,0,1-5.78.41,4.53,4.53,0,0,1-2.6-1.35,3.09,3.09,0,0,1-.6-2.83,8,8,0,0,1,3.63-4.38,18.51,18.51,0,0,1,5.29-2.22,18,18,0,0,0-5.22,2.33A7.82,7.82,0,0,0,50.7,353a2.8,2.8,0,0,0,.59,2.56,4.21,4.21,0,0,0,2.44,1.19,13.42,13.42,0,0,0,5.58-.53h0a.25.25,0,0,1,.13.49Z"/><path class="cls-6" d="M59.44,366.66a14.11,14.11,0,0,1-5.75.43,4.46,4.46,0,0,1-2.61-1.3,3,3,0,0,1-.62-2.8,8,8,0,0,1,3.65-4.33,18.44,18.44,0,0,1,5.27-2.19,18.22,18.22,0,0,0-5.2,2.3,7.83,7.83,0,0,0-3.48,4.28,2.67,2.67,0,0,0,.61,2.53,4.12,4.12,0,0,0,2.44,1.14,13.82,13.82,0,0,0,5.56-.54h0a.25.25,0,1,1,.13.49Z"/><path class="cls-6" d="M59.44,376.61a14.29,14.29,0,0,1-5.75.44,4.52,4.52,0,0,1-2.61-1.3,3,3,0,0,1-.62-2.81,7.93,7.93,0,0,1,3.65-4.32,18.46,18.46,0,0,1,5.27-2.2,18.51,18.51,0,0,0-5.2,2.3A7.87,7.87,0,0,0,50.7,373a2.67,2.67,0,0,0,.61,2.53,4.19,4.19,0,0,0,2.44,1.15,13.83,13.83,0,0,0,5.56-.55h0a.25.25,0,0,1,.31.17.26.26,0,0,1-.18.31Z"/><path class="cls-6" d="M69,334.05a5.51,5.51,0,0,1-1.33,3.45,7,7,0,0,1-3,2.06,4.89,4.89,0,0,1-3.61,0,2.66,2.66,0,0,1-1.3-1.24,3.75,3.75,0,0,1-.36-1.77,3.87,3.87,0,0,0,.41,1.74,2.62,2.62,0,0,0,1.3,1.16,4.73,4.73,0,0,0,3.47-.14,6.51,6.51,0,0,0,2.82-2.06,5,5,0,0,0,1.12-3.21.26.26,0,0,1,.25-.26A.25.25,0,0,1,69,334Z"/><path class="cls-6" d="M78.38,331.54A5.51,5.51,0,0,1,77.05,335a7,7,0,0,1-3,2.06,4.92,4.92,0,0,1-3.6,0,2.72,2.72,0,0,1-1.31-1.24,4,4,0,0,1-.36-1.77,3.88,3.88,0,0,0,.42,1.74,2.62,2.62,0,0,0,1.3,1.16,4.74,4.74,0,0,0,3.47-.14,6.67,6.67,0,0,0,2.82-2.06,5.06,5.06,0,0,0,1.12-3.21.26.26,0,0,1,.24-.26.26.26,0,0,1,.26.25Z"/><path class="cls-6" d="M87.75,329a5.51,5.51,0,0,1-1.33,3.45,6.88,6.88,0,0,1-3,2,4.94,4.94,0,0,1-3.61,0,2.68,2.68,0,0,1-1.3-1.25,3.71,3.71,0,0,1-.36-1.76,3.8,3.8,0,0,0,.41,1.73,2.64,2.64,0,0,0,1.3,1.17,4.78,4.78,0,0,0,3.47-.14,6.67,6.67,0,0,0,2.82-2.06A5.06,5.06,0,0,0,87.25,329a.26.26,0,0,1,.25-.26.25.25,0,0,1,.25.25Z"/><path class="cls-6" d="M97.13,326.51A5.49,5.49,0,0,1,95.8,330a6.85,6.85,0,0,1-3,2.06,4.92,4.92,0,0,1-3.6,0,2.74,2.74,0,0,1-1.31-1.25A4,4,0,0,1,87.5,329a3.84,3.84,0,0,0,.42,1.73,2.62,2.62,0,0,0,1.3,1.16,4.74,4.74,0,0,0,3.47-.13,6.67,6.67,0,0,0,2.82-2.06,5.09,5.09,0,0,0,1.12-3.22.25.25,0,0,1,.5,0Z"/><path class="cls-6" d="M106.5,324a5.49,5.49,0,0,1-1.33,3.45,6.82,6.82,0,0,1-3,2.06,4.94,4.94,0,0,1-3.61,0,2.72,2.72,0,0,1-1.3-1.25,3.75,3.75,0,0,1-.36-1.77,3.84,3.84,0,0,0,.41,1.74,2.62,2.62,0,0,0,1.3,1.16,4.73,4.73,0,0,0,3.47-.13,6.67,6.67,0,0,0,2.82-2.06A5.09,5.09,0,0,0,106,324a.25.25,0,0,1,.25-.25.23.23,0,0,1,.25.24Z"/><path class="cls-6" d="M115.88,321.49a5.51,5.51,0,0,1-1.33,3.45,7,7,0,0,1-3,2.06,4.87,4.87,0,0,1-3.6,0,2.68,2.68,0,0,1-1.31-1.24,4,4,0,0,1-.36-1.77,3.88,3.88,0,0,0,.42,1.74,2.62,2.62,0,0,0,1.3,1.16,4.74,4.74,0,0,0,3.47-.14,6.51,6.51,0,0,0,2.82-2.06,5,5,0,0,0,1.12-3.21.26.26,0,0,1,.24-.26.26.26,0,0,1,.26.25Z"/><path class="cls-6" d="M69,343.83a5.51,5.51,0,0,1-1.33,3.45,7,7,0,0,1-3,2.06,5,5,0,0,1-3.61,0,2.68,2.68,0,0,1-1.3-1.25,3.69,3.69,0,0,1-.36-1.76,3.87,3.87,0,0,0,.41,1.74,2.62,2.62,0,0,0,1.3,1.16,4.78,4.78,0,0,0,3.47-.14A6.67,6.67,0,0,0,67.38,347a5.06,5.06,0,0,0,1.12-3.21.26.26,0,0,1,.25-.26.25.25,0,0,1,.25.25Z"/><path class="cls-6" d="M78.38,341.31a5.46,5.46,0,0,1-1.33,3.45,6.85,6.85,0,0,1-3,2.06,4.92,4.92,0,0,1-3.6,0,2.74,2.74,0,0,1-1.31-1.25,4,4,0,0,1-.36-1.76,3.81,3.81,0,0,0,.42,1.73,2.64,2.64,0,0,0,1.3,1.17,4.79,4.79,0,0,0,3.47-.14,6.67,6.67,0,0,0,2.82-2.06,5.07,5.07,0,0,0,1.12-3.22.25.25,0,0,1,.24-.25.26.26,0,0,1,.26.25Z"/><path class="cls-6" d="M87.75,338.8a5.49,5.49,0,0,1-1.33,3.45,6.82,6.82,0,0,1-3,2.06,4.94,4.94,0,0,1-3.61,0,2.72,2.72,0,0,1-1.3-1.25,3.73,3.73,0,0,1-.36-1.77,3.84,3.84,0,0,0,.41,1.74,2.62,2.62,0,0,0,1.3,1.16,4.73,4.73,0,0,0,3.47-.13A6.67,6.67,0,0,0,86.13,342a5.09,5.09,0,0,0,1.12-3.22.25.25,0,0,1,.5,0Z"/><path class="cls-6" d="M97.13,336.29a5.51,5.51,0,0,1-1.33,3.45,6.93,6.93,0,0,1-3,2.06,4.92,4.92,0,0,1-3.6,0,2.74,2.74,0,0,1-1.31-1.25,4,4,0,0,1-.36-1.77,3.88,3.88,0,0,0,.42,1.74,2.62,2.62,0,0,0,1.3,1.16,4.79,4.79,0,0,0,3.47-.13,6.61,6.61,0,0,0,2.82-2.07,5,5,0,0,0,1.12-3.21.25.25,0,0,1,.24-.25.24.24,0,0,1,.26.24Z"/><path class="cls-6" d="M106.5,333.78a5.51,5.51,0,0,1-1.33,3.45,7,7,0,0,1-3,2.06,4.89,4.89,0,0,1-3.61,0,2.66,2.66,0,0,1-1.3-1.24,3.75,3.75,0,0,1-.36-1.77,3.87,3.87,0,0,0,.41,1.74,2.62,2.62,0,0,0,1.3,1.16,4.73,4.73,0,0,0,3.47-.14,6.59,6.59,0,0,0,2.82-2.06,5.06,5.06,0,0,0,1.12-3.21.26.26,0,0,1,.25-.26.25.25,0,0,1,.25.25Z"/><path class="cls-6" d="M115.88,331.27a5.51,5.51,0,0,1-1.33,3.45,7,7,0,0,1-3,2.06,5,5,0,0,1-3.6,0,2.7,2.7,0,0,1-1.31-1.25,3.94,3.94,0,0,1-.36-1.76,3.88,3.88,0,0,0,.42,1.74,2.62,2.62,0,0,0,1.3,1.16,4.79,4.79,0,0,0,3.47-.14,6.67,6.67,0,0,0,2.82-2.06,5.06,5.06,0,0,0,1.12-3.21.25.25,0,1,1,.5,0Z"/><path class="cls-6" d="M69,353.88a5.51,5.51,0,0,1-1.33,3.45,7,7,0,0,1-3,2.06,4.94,4.94,0,0,1-3.61,0,2.7,2.7,0,0,1-1.3-1.24,3.75,3.75,0,0,1-.36-1.77,3.87,3.87,0,0,0,.41,1.74,2.62,2.62,0,0,0,1.3,1.16,4.73,4.73,0,0,0,3.47-.14,6.59,6.59,0,0,0,2.82-2.06,5.06,5.06,0,0,0,1.12-3.21.26.26,0,0,1,.25-.26.25.25,0,0,1,.25.25Z"/><path class="cls-6" d="M78.38,351.37a5.51,5.51,0,0,1-1.33,3.45,7,7,0,0,1-3,2.06,5,5,0,0,1-3.6,0,2.7,2.7,0,0,1-1.31-1.25,4,4,0,0,1-.36-1.76,3.81,3.81,0,0,0,.42,1.73,2.6,2.6,0,0,0,1.3,1.17,4.79,4.79,0,0,0,3.47-.14,6.67,6.67,0,0,0,2.82-2.06,5.06,5.06,0,0,0,1.12-3.21.25.25,0,1,1,.5,0Z"/><path class="cls-6" d="M87.75,348.85a5.49,5.49,0,0,1-1.33,3.45,6.82,6.82,0,0,1-3,2.06,4.94,4.94,0,0,1-3.61,0,2.72,2.72,0,0,1-1.3-1.25,3.71,3.71,0,0,1-.36-1.76,3.8,3.8,0,0,0,.41,1.73,2.58,2.58,0,0,0,1.3,1.16,4.73,4.73,0,0,0,3.47-.13,6.67,6.67,0,0,0,2.82-2.06,5.07,5.07,0,0,0,1.12-3.22.25.25,0,0,1,.25-.25.25.25,0,0,1,.25.25Z"/><path class="cls-6" d="M97.13,346.34a5.49,5.49,0,0,1-1.33,3.45,6.85,6.85,0,0,1-3,2.06,4.92,4.92,0,0,1-3.6,0,2.74,2.74,0,0,1-1.31-1.25,4,4,0,0,1-.36-1.77,3.85,3.85,0,0,0,.42,1.74,2.62,2.62,0,0,0,1.3,1.16,4.74,4.74,0,0,0,3.47-.13,6.67,6.67,0,0,0,2.82-2.06,5.09,5.09,0,0,0,1.12-3.22.25.25,0,0,1,.24-.25.25.25,0,0,1,.26.24Z"/><path class="cls-6" d="M106.5,343.83a5.51,5.51,0,0,1-1.33,3.45,6.9,6.9,0,0,1-3,2.06,4.89,4.89,0,0,1-3.61,0,2.66,2.66,0,0,1-1.3-1.24,3.75,3.75,0,0,1-.36-1.77,3.87,3.87,0,0,0,.41,1.74,2.62,2.62,0,0,0,1.3,1.16,4.73,4.73,0,0,0,3.47-.14,6.51,6.51,0,0,0,2.82-2.06,5,5,0,0,0,1.12-3.21.25.25,0,0,1,.25-.25.23.23,0,0,1,.25.24Z"/><path class="cls-6" d="M115.88,341.32a5.51,5.51,0,0,1-1.33,3.45,7,7,0,0,1-3,2.06,4.92,4.92,0,0,1-3.6,0,2.72,2.72,0,0,1-1.31-1.24,4,4,0,0,1-.36-1.77,3.88,3.88,0,0,0,.42,1.74,2.62,2.62,0,0,0,1.3,1.16,4.74,4.74,0,0,0,3.47-.14,6.59,6.59,0,0,0,2.82-2.06,5.06,5.06,0,0,0,1.12-3.21.26.26,0,0,1,.24-.26.26.26,0,0,1,.26.25Z"/><path class="cls-6" d="M69,363.9a5.51,5.51,0,0,1-1.33,3.46,6.88,6.88,0,0,1-3,2.05,4.94,4.94,0,0,1-3.61,0,2.72,2.72,0,0,1-1.3-1.25,3.71,3.71,0,0,1-.36-1.76,3.8,3.8,0,0,0,.41,1.73,2.64,2.64,0,0,0,1.3,1.17,4.78,4.78,0,0,0,3.47-.14,6.67,6.67,0,0,0,2.82-2.06,5.07,5.07,0,0,0,1.12-3.22.25.25,0,0,1,.25-.25.25.25,0,0,1,.25.25Z"/><path class="cls-6" d="M78.38,361.39a5.49,5.49,0,0,1-1.33,3.45,6.85,6.85,0,0,1-3,2.06,4.92,4.92,0,0,1-3.6,0,2.74,2.74,0,0,1-1.31-1.25,4,4,0,0,1-.36-1.77,3.85,3.85,0,0,0,.42,1.74,2.62,2.62,0,0,0,1.3,1.16,4.74,4.74,0,0,0,3.47-.13,6.67,6.67,0,0,0,2.82-2.06,5.09,5.09,0,0,0,1.12-3.22.25.25,0,0,1,.24-.25.25.25,0,0,1,.26.24Z"/><path class="cls-6" d="M87.75,358.88a5.49,5.49,0,0,1-1.33,3.45,6.82,6.82,0,0,1-3,2.06,4.94,4.94,0,0,1-3.61,0,2.72,2.72,0,0,1-1.3-1.25,3.75,3.75,0,0,1-.36-1.77,3.87,3.87,0,0,0,.41,1.74,2.62,2.62,0,0,0,1.3,1.16,4.73,4.73,0,0,0,3.47-.13,6.61,6.61,0,0,0,2.82-2.07,5,5,0,0,0,1.12-3.21.25.25,0,0,1,.25-.25.23.23,0,0,1,.25.24Z"/><path class="cls-6" d="M97.13,356.37a5.51,5.51,0,0,1-1.33,3.45,7,7,0,0,1-3,2.06,4.87,4.87,0,0,1-3.6,0,2.68,2.68,0,0,1-1.31-1.24,4,4,0,0,1-.36-1.77,3.88,3.88,0,0,0,.42,1.74,2.62,2.62,0,0,0,1.3,1.16,4.74,4.74,0,0,0,3.47-.14,6.51,6.51,0,0,0,2.82-2.06,5,5,0,0,0,1.12-3.21.26.26,0,0,1,.24-.26.26.26,0,0,1,.26.25Z"/><path class="cls-6" d="M106.5,353.86a5.51,5.51,0,0,1-1.33,3.45,7,7,0,0,1-3,2.06,4.94,4.94,0,0,1-3.61,0,2.68,2.68,0,0,1-1.3-1.25,3.69,3.69,0,0,1-.36-1.76,3.87,3.87,0,0,0,.41,1.74,2.62,2.62,0,0,0,1.3,1.16,4.78,4.78,0,0,0,3.47-.14,6.67,6.67,0,0,0,2.82-2.06,5.06,5.06,0,0,0,1.12-3.21.26.26,0,0,1,.25-.26.25.25,0,0,1,.25.25Z"/><path class="cls-6" d="M115.88,351.34a5.51,5.51,0,0,1-1.33,3.46,6.91,6.91,0,0,1-3,2.05,4.92,4.92,0,0,1-3.6,0,2.74,2.74,0,0,1-1.31-1.25,4,4,0,0,1-.36-1.76,3.81,3.81,0,0,0,.42,1.73,2.64,2.64,0,0,0,1.3,1.17,4.79,4.79,0,0,0,3.47-.14,6.67,6.67,0,0,0,2.82-2.06,5.07,5.07,0,0,0,1.12-3.22.25.25,0,0,1,.24-.25.26.26,0,0,1,.26.25Z"/><path class="cls-6" d="M69,373.93a5.49,5.49,0,0,1-1.33,3.45,6.82,6.82,0,0,1-3,2.06,4.94,4.94,0,0,1-3.61,0,2.72,2.72,0,0,1-1.3-1.25,3.73,3.73,0,0,1-.36-1.77,3.84,3.84,0,0,0,.41,1.74,2.62,2.62,0,0,0,1.3,1.16,4.73,4.73,0,0,0,3.47-.13,6.67,6.67,0,0,0,2.82-2.06,5.09,5.09,0,0,0,1.12-3.22.25.25,0,0,1,.5,0Z"/><path class="cls-6" d="M78.38,371.42a5.51,5.51,0,0,1-1.33,3.45,6.93,6.93,0,0,1-3,2.06,4.92,4.92,0,0,1-3.6,0,2.74,2.74,0,0,1-1.31-1.25,4,4,0,0,1-.36-1.77,3.88,3.88,0,0,0,.42,1.74,2.62,2.62,0,0,0,1.3,1.16,4.79,4.79,0,0,0,3.47-.13,6.61,6.61,0,0,0,2.82-2.07,5,5,0,0,0,1.12-3.21.25.25,0,0,1,.24-.25.24.24,0,0,1,.26.24Z"/><path class="cls-6" d="M87.75,368.91a5.51,5.51,0,0,1-1.33,3.45,7,7,0,0,1-3,2.06,4.89,4.89,0,0,1-3.61,0,2.66,2.66,0,0,1-1.3-1.24,3.75,3.75,0,0,1-.36-1.77,3.87,3.87,0,0,0,.41,1.74,2.62,2.62,0,0,0,1.3,1.16,4.73,4.73,0,0,0,3.47-.14,6.59,6.59,0,0,0,2.82-2.06,5.06,5.06,0,0,0,1.12-3.21.26.26,0,0,1,.25-.26.25.25,0,0,1,.25.25Z"/><path class="cls-6" d="M97.13,366.4a5.51,5.51,0,0,1-1.33,3.45,7,7,0,0,1-3,2.06,5,5,0,0,1-3.6,0,2.7,2.7,0,0,1-1.31-1.25,3.94,3.94,0,0,1-.36-1.76,3.88,3.88,0,0,0,.42,1.74,2.62,2.62,0,0,0,1.3,1.16,4.79,4.79,0,0,0,3.47-.14,6.67,6.67,0,0,0,2.82-2.06,5.06,5.06,0,0,0,1.12-3.21.25.25,0,1,1,.5,0Z"/><path class="cls-6" d="M106.5,363.88a5.49,5.49,0,0,1-1.33,3.45,6.82,6.82,0,0,1-3,2.06,4.94,4.94,0,0,1-3.61,0,2.72,2.72,0,0,1-1.3-1.25,3.71,3.71,0,0,1-.36-1.76,3.8,3.8,0,0,0,.41,1.73,2.64,2.64,0,0,0,1.3,1.17,4.78,4.78,0,0,0,3.47-.14,6.67,6.67,0,0,0,2.82-2.06,5.07,5.07,0,0,0,1.12-3.22.25.25,0,0,1,.25-.25.25.25,0,0,1,.25.25Z"/><path class="cls-6" d="M115.88,361.37a5.49,5.49,0,0,1-1.33,3.45,6.85,6.85,0,0,1-3,2.06,4.92,4.92,0,0,1-3.6,0,2.74,2.74,0,0,1-1.31-1.25,4,4,0,0,1-.36-1.77,3.85,3.85,0,0,0,.42,1.74,2.62,2.62,0,0,0,1.3,1.16,4.74,4.74,0,0,0,3.47-.13,6.67,6.67,0,0,0,2.82-2.06,5.09,5.09,0,0,0,1.12-3.22.25.25,0,0,1,.24-.25.25.25,0,0,1,.26.24Z"/><polygon class="cls-7" points="61.88 333.39 61.88 338.39 56.88 339.73 56.88 334.73 61.88 333.39"/><polygon class="cls-7" points="61.88 343.3 61.88 348.3 56.88 349.64 56.88 344.64 61.88 343.3"/><polygon class="cls-7" points="61.88 363.12 61.88 368.12 56.88 369.46 56.88 364.46 61.88 363.12"/><polygon class="cls-7" points="61.88 373.03 61.88 378.03 56.88 379.37 56.88 374.37 61.88 373.03"/><polygon class="cls-7" points="61.88 353.21 61.88 358.21 56.88 359.55 56.88 354.55 61.88 353.21"/><polygon class="cls-7" points="71.25 340.79 71.25 345.79 66.25 347.13 66.25 342.13 71.25 340.79"/><polygon class="cls-7" points="71.25 360.61 71.25 365.61 66.25 366.95 66.25 361.95 71.25 360.61"/><polygon class="cls-7" points="71.25 370.52 71.25 375.52 66.25 376.86 66.25 371.86 71.25 370.52"/><polygon class="cls-7" points="71.25 350.7 71.25 355.7 66.25 357.04 66.25 352.04 71.25 350.7"/><polygon class="cls-7" points="71.25 330.88 71.25 335.88 66.25 337.22 66.25 332.22 71.25 330.88"/><polygon class="cls-7" points="80.63 338.28 80.63 343.28 75.63 344.62 75.63 339.62 80.63 338.28"/><polygon class="cls-7" points="80.63 358.1 80.63 363.1 75.63 364.44 75.63 359.44 80.63 358.1"/><polygon class="cls-7" points="80.63 368.01 80.63 373.01 75.63 374.35 75.63 369.35 80.63 368.01"/><polygon class="cls-7" points="80.63 348.19 80.63 353.19 75.63 354.53 75.63 349.53 80.63 348.19"/><polygon class="cls-7" points="80.63 328.37 80.63 333.37 75.63 334.71 75.63 329.71 80.63 328.37"/><polygon class="cls-7" points="90 335.77 90 340.77 85 342.11 85 337.11 90 335.77"/><polygon class="cls-7" points="90 355.59 90 360.59 85 361.93 85 356.93 90 355.59"/><polygon class="cls-7" points="90 365.5 90 370.5 85 371.84 85 366.84 90 365.5"/><polygon class="cls-7" points="90 345.68 90 350.68 85 352.02 85 347.02 90 345.68"/><polygon class="cls-7" points="90 325.86 90 330.86 85 332.19 85 327.19 90 325.86"/><polygon class="cls-7" points="99.38 333.25 99.38 338.25 94.38 339.59 94.38 334.59 99.38 333.25"/><polygon class="cls-7" points="99.38 353.07 99.38 358.07 94.38 359.42 94.38 354.42 99.38 353.07"/><polygon class="cls-7" points="99.38 362.99 99.38 367.99 94.38 369.33 94.38 364.33 99.38 362.99"/><polygon class="cls-7" points="99.38 343.17 99.38 348.17 94.38 349.5 94.38 344.5 99.38 343.17"/><polygon class="cls-7" points="99.38 323.34 99.38 328.34 94.38 329.68 94.38 324.68 99.38 323.34"/><polygon class="cls-7" points="108.75 320.83 108.75 325.83 103.75 327.17 103.75 322.17 108.75 320.83"/><polygon class="cls-7" points="108.75 340.65 108.75 345.65 103.75 346.99 103.75 341.99 108.75 340.65"/><polygon class="cls-7" points="108.75 360.47 108.75 365.47 103.75 366.81 103.75 361.81 108.75 360.47"/><polygon class="cls-7" points="108.75 350.56 108.75 355.56 103.75 356.9 103.75 351.9 108.75 350.56"/><polygon class="cls-7" points="108.75 330.74 108.75 335.74 103.75 337.08 103.75 332.08 108.75 330.74"/><polygon class="cls-7" points="118.13 328.23 118.13 333.23 113.13 334.57 113.13 329.57 118.13 328.23"/><polygon class="cls-7" points="118.13 348.05 118.13 353.05 113.13 354.39 113.13 349.39 118.13 348.05"/><polygon class="cls-7" points="118.13 357.96 118.13 362.96 113.13 364.3 113.13 359.3 118.13 357.96"/><polygon class="cls-7" points="118.13 338.14 118.13 343.14 113.13 344.48 113.13 339.48 118.13 338.14"/><polygon class="cls-7" points="118.13 318.32 118.13 323.32 113.13 324.66 113.13 319.66 118.13 318.32"/><ellipse class="cls-8" cx="59.38" cy="336.56" rx="1.14" ry="0.87" transform="translate(-233.01 159.63) rotate(-48.82)"/><ellipse class="cls-8" cx="68.75" cy="334.05" rx="1.14" ry="0.87" transform="translate(-227.92 165.83) rotate(-48.82)"/><ellipse class="cls-8" cx="78.13" cy="331.54" rx="1.14" ry="0.87" transform="translate(-222.83 172.02) rotate(-48.82)"/><ellipse class="cls-8" cx="87.5" cy="329.03" rx="1.14" ry="0.87" transform="translate(-217.74 178.22) rotate(-48.82)"/><ellipse class="cls-8" cx="96.88" cy="326.51" rx="1.14" ry="0.87" transform="translate(-212.65 184.42) rotate(-48.82)"/><ellipse class="cls-8" cx="106.25" cy="324" rx="1.14" ry="0.87" transform="translate(-207.55 190.62) rotate(-48.82)"/><ellipse class="cls-8" cx="115.63" cy="321.49" rx="1.14" ry="0.87" transform="translate(-202.46 196.81) rotate(-48.82)"/><ellipse class="cls-8" cx="59.38" cy="346.26" rx="1.14" ry="0.87" transform="translate(-240.32 162.94) rotate(-48.82)"/><ellipse class="cls-8" cx="68.75" cy="343.75" rx="1.14" ry="0.87" transform="translate(-235.22 169.14) rotate(-48.82)"/><ellipse class="cls-8" cx="78.13" cy="341.24" rx="1.14" ry="0.87" transform="translate(-230.13 175.34) rotate(-48.82)"/><ellipse class="cls-8" cx="87.5" cy="338.73" rx="1.14" ry="0.87" transform="translate(-225.04 181.53) rotate(-48.82)"/><ellipse class="cls-8" cx="96.88" cy="336.21" rx="1.14" ry="0.87" transform="translate(-219.95 187.73) rotate(-48.82)"/><ellipse class="cls-8" cx="106.25" cy="333.7" rx="1.14" ry="0.87" transform="translate(-214.85 193.93) rotate(-48.82)"/><ellipse class="cls-8" cx="115.63" cy="331.19" rx="1.14" ry="0.87" transform="translate(-209.76 200.13) rotate(-48.82)"/><ellipse class="cls-8" cx="59.38" cy="356.38" rx="1.14" ry="0.87" transform="translate(-247.93 166.4) rotate(-48.82)"/><ellipse class="cls-8" cx="68.75" cy="353.87" rx="1.14" ry="0.87" transform="translate(-242.84 172.59) rotate(-48.82)"/><ellipse class="cls-8" cx="78.13" cy="351.36" rx="1.14" ry="0.87" transform="translate(-237.75 178.79) rotate(-48.82)"/><ellipse class="cls-8" cx="87.5" cy="348.85" rx="1.14" ry="0.87" transform="translate(-232.66 184.99) rotate(-48.82)"/><ellipse class="cls-8" cx="96.88" cy="346.33" rx="1.14" ry="0.87" transform="translate(-227.56 191.19) rotate(-48.82)"/><ellipse class="cls-8" cx="106.25" cy="343.82" rx="1.14" ry="0.87" transform="translate(-222.47 197.39) rotate(-48.82)"/><ellipse class="cls-8" cx="115.63" cy="341.31" rx="1.14" ry="0.87" transform="translate(-217.38 203.58) rotate(-48.82)"/><ellipse class="cls-8" cx="59.38" cy="366.29" rx="1.14" ry="0.87" transform="translate(-255.39 169.78) rotate(-48.82)"/><ellipse class="cls-8" cx="68.75" cy="363.78" rx="1.14" ry="0.87" transform="translate(-250.3 175.98) rotate(-48.82)"/><ellipse class="cls-8" cx="78.13" cy="361.27" rx="1.14" ry="0.87" transform="translate(-245.21 182.18) rotate(-48.82)"/><ellipse class="cls-8" cx="87.5" cy="358.76" rx="1.14" ry="0.87" transform="translate(-240.11 188.37) rotate(-48.82)"/><ellipse class="cls-8" cx="96.88" cy="356.25" rx="1.14" ry="0.87" transform="translate(-235.02 194.57) rotate(-48.82)"/><ellipse class="cls-8" cx="106.25" cy="353.73" rx="1.14" ry="0.87" transform="translate(-229.93 200.77) rotate(-48.82)"/><ellipse class="cls-8" cx="115.63" cy="351.22" rx="1.14" ry="0.87" transform="translate(-224.84 206.97) rotate(-48.82)"/><ellipse class="cls-8" cx="59.38" cy="376.2" rx="1.14" ry="0.87" transform="translate(-262.85 173.17) rotate(-48.82)"/><ellipse class="cls-8" cx="68.75" cy="373.69" rx="1.14" ry="0.87" transform="translate(-257.76 179.36) rotate(-48.82)"/><ellipse class="cls-8" cx="78.13" cy="371.18" rx="1.14" ry="0.87" transform="translate(-252.67 185.56) rotate(-48.82)"/><ellipse class="cls-8" cx="87.5" cy="368.67" rx="1.14" ry="0.87" transform="translate(-247.57 191.76) rotate(-48.82)"/><ellipse class="cls-8" cx="96.88" cy="366.16" rx="1.14" ry="0.87" transform="translate(-242.48 197.96) rotate(-48.82)"/><ellipse class="cls-8" cx="106.25" cy="363.64" rx="1.14" ry="0.87" transform="translate(-237.39 204.15) rotate(-48.82)"/><ellipse class="cls-8" cx="115.63" cy="361.13" rx="1.14" ry="0.87" transform="translate(-232.3 210.35) rotate(-48.82)"/><path class="cls-1" d="M100,15.86v374L0,416.65v-374c0-14.36,22.39-32,50-39.39S100,1.5,100,15.86Z"/><path class="cls-1" d="M140,26.58v374L40,427.37v-374C40,39,62.39,21.37,90,14S140,12.22,140,26.58Z"/><polygon class="cls-9" points="132 115.06 132 139.56 72.5 155.5 72.5 131 132 115.06"/><polygon class="cls-9" points="72.5 131 72.5 155.5 48 162.06 48 137.56 72.5 131"/><polygon class="cls-9" points="132 142.9 132 167.4 72.5 183.34 72.5 158.84 132 142.9"/><polygon class="cls-9" points="72.5 158.84 72.5 183.34 48 189.91 48 165.41 72.5 158.84"/><polygon class="cls-9" points="132 170.74 132 195.24 72.5 211.18 72.5 186.68 132 170.74"/><polygon class="cls-9" points="72.5 186.68 72.5 211.18 48 217.75 48 193.25 72.5 186.68"/><polygon class="cls-9" points="132 198.58 132 223.08 72.5 239.02 72.5 214.52 132 198.58"/><polygon class="cls-9" points="72.5 214.53 72.5 239.03 48 245.59 48 221.09 72.5 214.53"/><polygon class="cls-9" points="132 226.41 132 250.91 72.5 266.87 72.5 242.37 132 226.41"/><polygon class="cls-9" points="72.5 242.37 72.5 266.87 48 273.43 48 248.93 72.5 242.37"/><text class="cls-10" transform="matrix(1.06, -0.28, 0, 1, 52.26, 153.4)">95</text><text class="cls-10" transform="matrix(1.06, -0.28, 0, 1, 52.26, 181.24)">92</text><text class="cls-10" transform="matrix(1.06, -0.28, 0, 1, 50.37, 209.08)"></text><text class="cls-10" transform="matrix(1.06, -0.28, 0, 1, 48.83, 237.15)"><tspan class="cls-11"></tspan><tspan class="cls-12" x="5.17" y="0"></tspan><tspan x="14.32" y="0"></tspan></text><text class="cls-10" transform="matrix(1.06, -0.28, 0, 1, 52.26, 264.76)">98</text><line class="cls-13" x1="105.19" y1="47.36" x2="105.18" y2="47.37"/><line class="cls-13" x1="74.81" y1="55.5" x2="74.8" y2="55.51"/><line class="cls-14" x1="48.75" y1="139.36" x2="71.75" y2="133.2"/><line class="cls-14" x1="48.75" y1="159.86" x2="71.75" y2="153.7"/><line class="cls-14" x1="48.75" y1="167.2" x2="71.75" y2="161.04"/><line class="cls-14" x1="48.75" y1="187.7" x2="71.75" y2="181.54"/><line class="cls-14" x1="48.75" y1="195.04" x2="71.75" y2="188.88"/><line class="cls-14" x1="48.75" y1="215.54" x2="71.75" y2="209.38"/><line class="cls-14" x1="48.75" y1="222.88" x2="71.75" y2="216.72"/><line class="cls-14" x1="48.75" y1="243.38" x2="71.75" y2="237.22"/><line class="cls-14" x1="48.75" y1="250.73" x2="71.75" y2="244.56"/><line class="cls-14" x1="48.75" y1="270.81" x2="71.75" y2="264.65"/><polygon class="cls-15" points="129.25 139.66 75.25 154.13 75.25 131.13 129.25 116.67 129.25 139.66"/><polygon class="cls-15" points="129.25 167.38 75.25 181.85 75.25 158.85 129.25 144.38 129.25 167.38"/><polygon class="cls-15" points="129.25 195.22 75.25 209.69 75.25 186.69 129.25 172.22 129.25 195.22"/><polygon class="cls-15" points="129.25 223.06 75.25 237.53 75.25 214.53 129.25 200.06 129.25 223.06"/><polygon class="cls-15" points="129.25 250.76 75.25 265.23 75.25 242.23 129.25 227.76 129.25 250.76"/><path class="cls-16" d="M86.5,138.49v-7.74l-1.75-1.29-7,1.88L76,133.56v7.74l.88.65L76,143.06v8l1.75,1.28,7-1.88,1.75-2.21v-8h0l-.87-.64.87-1.11ZM84.75,148l-.73.92-5.54,1.48-.73-.53v-6.54l.73-.93L84,140.91l.73.53Zm0-9.75-.73.92-5.54,1.48-.73-.53v-6.29l.73-.93L84,131.41l.73.53Z"/><path class="cls-16" d="M98.75,135.21v-7.75L97,126.18l-7,1.88-1.75,2.22V138l.88.64-.88,1.12v8L90,149.06l7-1.88L98.75,145v-8h0l-.87-.64.87-1.11ZM97,144.7l-.73.93-5.54,1.48-.73-.53V140l.73-.92,5.54-1.48.73.53ZM97,135l-.73.93-5.54,1.48-.73-.53v-6.29l.73-.93,5.54-1.48.73.53Z"/><path class="cls-16" d="M118,130.05l.87.64L118,131.8h0v8l1.75,1.29,7-1.88L128.5,137v-8l-.88-.65.88-1.12v-7.74l-1.75-1.28-7,1.88L118,122.3v7.75Zm1.74,2,.73-.92,5.54-1.49.73.54v6.54l-.73.93-5.54,1.48-.73-.53Zm0-9.5.73-.92,5.54-1.48.73.53V127l-.73.92-5.54,1.49-.73-.53Z"/><path class="cls-16" d="M105.76,133.33l.87.64-.87,1.11h0v8l1.75,1.28,7-1.88,1.75-2.22v-8l-.88-.65.88-1.11v-7.75l-1.75-1.28-7,1.88-1.75,2.22v7.75Zm1.74,2,.73-.93,5.54-1.48.73.53V140l-.73.93-5.54,1.48-.73-.53Zm0-9.5.73-.93,5.54-1.48.73.53v6.29l-.73.93-5.54,1.48-.73-.53Z"/><ellipse class="cls-16" cx="102.25" cy="144.03" rx="2" ry="1.53" transform="translate(-73.47 126.14) rotate(-48.82)"/><path class="cls-16" d="M86.5,166.34v-7.75l-1.75-1.28-7,1.87L76,161.4v7.74l.88.65L76,170.91v8l1.75,1.28,7-1.87,1.75-2.22v-8h0l-.87-.64.87-1.11Zm-1.75,9.49-.73.92-5.54,1.49-.73-.54v-6.54l.73-.93L84,168.75l.73.53Zm0-9.75L84,167l-5.54,1.48-.73-.53v-6.29l.73-.92L84,159.25l.73.53Z"/><path class="cls-16" d="M98.75,163.05V155.3L97,154l-7,1.88-1.75,2.22v7.74l.88.65-.88,1.11v8L90,176.9,97,175l1.75-2.22v-8h0l-.87-.65.87-1.1ZM97,172.55l-.73.92L90.73,175l-.73-.53v-6.54l.73-.93,5.54-1.48L97,166Zm0-9.76-.73.93-5.54,1.48-.73-.53v-6.29l.73-.93L96.27,156l.73.53Z"/><path class="cls-16" d="M118,157.89l.87.64-.87,1.11h0v8l1.75,1.28,7-1.88,1.75-2.22v-8l-.88-.65.88-1.12v-7.74l-1.75-1.28-7,1.88L118,150.15v7.75Zm1.74,2,.73-.92L126,157.5l.73.53v6.54l-.73.93L120.48,167l-.73-.53Zm0-9.49.73-.93L126,148l.73.53v6.29l-.73.93-5.54,1.48-.73-.53Z"/><path class="cls-16" d="M105.76,161.18l.87.64-.87,1.11h0v8l1.75,1.28,7-1.88,1.75-2.21v-8l-.88-.64.88-1.12v-7.74l-1.75-1.29-7,1.88-1.75,2.22v7.75Zm1.74,2,.73-.93,5.54-1.48.73.53v6.55l-.73.92-5.54,1.48-.73-.53Zm0-9.5.73-.93,5.54-1.48.73.53v6.29l-.73.93-5.54,1.48-.73-.53Z"/><ellipse class="cls-16" cx="102.25" cy="171.87" rx="2" ry="1.53" transform="translate(-94.43 135.65) rotate(-48.82)"/><path class="cls-16" d="M86.5,194.18v-7.75l-1.75-1.28-7,1.87L76,189.24V197l.88.65L76,198.75v8L77.75,208l7-1.87,1.75-2.22v-8h0l-.87-.64.87-1.11Zm-1.75,9.49-.73.92-5.54,1.49-.73-.54V199l.73-.92L84,196.59l.73.53Zm0-9.75-.73.92-5.54,1.49-.73-.54V189.5l.73-.92L84,187.09l.73.53Z"/><path class="cls-16" d="M98.75,190.89v-7.74L97,181.86l-7,1.88L88.25,186v7.74l.88.65-.88,1.11v8L90,204.74l7-1.88,1.75-2.21v-8h0l-.87-.64.87-1.11ZM97,200.39l-.73.92-5.54,1.48-.73-.53v-6.54l.73-.93,5.54-1.48.73.53Zm0-9.75-.73.92L90.73,193l-.73-.53v-6.29l.73-.93,5.54-1.48.73.53Z"/><path class="cls-16" d="M118,185.73l.87.65-.87,1.1h0v8l1.75,1.28,7-1.88,1.75-2.22v-8l-.88-.65.88-1.11v-7.75l-1.75-1.28-7,1.88L118,178v7.75Zm1.74,2,.73-.93,5.54-1.48.73.53v6.54l-.73.93-5.54,1.48-.73-.53Zm0-9.5.73-.93,5.54-1.48.73.53v6.29l-.73.93-5.54,1.48-.73-.53Z"/><path class="cls-16" d="M105.76,189l.87.64-.87,1.11h0v8l1.75,1.28,7-1.87,1.75-2.22v-8l-.88-.64.88-1.12v-7.74l-1.75-1.28-7,1.87-1.75,2.22V189Zm1.74,2,.73-.93,5.54-1.48.73.53v6.55l-.73.92-5.54,1.49-.73-.54Zm0-9.5.73-.92,5.54-1.49.73.53V186l-.73.92-5.54,1.48-.73-.53Z"/><ellipse class="cls-16" cx="102.25" cy="199.71" rx="2" ry="1.53" transform="translate(-115.38 145.15) rotate(-48.82)"/><path class="cls-16" d="M86.5,222v-7.75L84.75,213l-7,1.87L76,217.08v7.74l.88.65L76,226.59v8l1.75,1.28,7-1.87,1.75-2.22v-8h0l-.87-.64.87-1.11Zm-1.75,9.49-.73.92-5.54,1.49-.73-.53v-6.55l.73-.92L84,224.43l.73.53Zm0-9.75-.73.92-5.54,1.49-.73-.54v-6.29l.73-.92L84,214.93l.73.54Z"/><path class="cls-16" d="M98.75,218.74V211L97,209.71l-7,1.87-1.75,2.22v7.74l.88.65-.88,1.12v8L90,232.58l7-1.87,1.75-2.22v-8h0l-.87-.64.87-1.11ZM97,228.23l-.73.92-5.54,1.49L90,230.1v-6.54l.73-.92,5.54-1.49.73.53Zm0-9.75-.73.92-5.54,1.49-.73-.54v-6.29l.73-.92,5.54-1.49.73.53Z"/><path class="cls-16" d="M118,213.58l.87.64-.87,1.11h0v8l1.75,1.28,7-1.88,1.75-2.21v-8l-.88-.64.88-1.12V203l-1.75-1.29-7,1.88L118,205.83v7.75Zm1.74,2,.73-.93,5.54-1.48.73.53v6.55l-.73.92-5.54,1.48-.73-.53Zm0-9.5.73-.93,5.54-1.48.73.53v6.3l-.73.92-5.54,1.48-.73-.53Z"/><path class="cls-16" d="M105.76,216.86l.87.64-.87,1.11h0v8l1.75,1.28,7-1.87,1.75-2.22v-8l-.88-.64.88-1.12V206.3L114.5,205l-7,1.87-1.75,2.22v7.75Zm1.74,2,.73-.92,5.54-1.49.73.53v6.55l-.73.92L108.23,226l-.73-.54Zm0-9.5.73-.92,5.54-1.49.73.53v6.3l-.73.92-5.54,1.49-.73-.54Z"/><ellipse class="cls-16" cx="102.25" cy="227.55" rx="2" ry="1.53" transform="translate(-136.33 154.66) rotate(-48.82)"/><path class="cls-16" d="M86.5,249.86v-7.75l-1.75-1.28-7,1.87L76,244.92v7.75l.88.64L76,254.43v8l1.75,1.28,7-1.87,1.75-2.22v-8h0l-.87-.64.87-1.11Zm-1.75,9.49-.73.92-5.54,1.49-.73-.53v-6.55l.73-.92L84,252.27l.73.54Zm0-9.75-.73.92L78.48,252l-.73-.53v-6.3l.73-.92L84,242.77l.73.54Z"/><path class="cls-16" d="M98.75,246.58v-7.75L97,237.55l-7,1.87-1.75,2.22v7.74l.88.65-.88,1.12v8L90,260.42l7-1.87,1.75-2.22v-8h0l-.87-.64.87-1.11ZM97,256.07l-.73.92-5.54,1.49-.73-.54V251.4l.73-.92L96.27,249l.73.53Zm0-9.75-.73.92-5.54,1.49-.73-.54V241.9l.73-.92,5.54-1.49L97,240Z"/><path class="cls-16" d="M118,241.42l.87.64-.87,1.11h0v8l1.75,1.28,7-1.87,1.75-2.22v-8l-.88-.64.88-1.12v-7.74l-1.75-1.28-7,1.87L118,233.67v7.75Zm1.74,2,.73-.93L126,241l.73.53v6.55L126,249l-5.54,1.49-.73-.54Zm0-9.5.73-.92,5.54-1.49.73.53v6.3l-.73.92-5.54,1.48-.73-.53Z"/><path class="cls-16" d="M105.76,244.7l.87.64-.87,1.11h0v8l1.75,1.28,7-1.87,1.75-2.22v-8l-.88-.64.88-1.12v-7.74l-1.75-1.28-7,1.87L105.75,237v7.75Zm1.74,2,.73-.92,5.54-1.49.73.53v6.55l-.73.92-5.54,1.49-.73-.53Zm0-9.5.73-.92,5.54-1.49.73.54v6.29l-.73.92L108.23,244l-.73-.54Z"/><ellipse class="cls-16" cx="102.25" cy="255.39" rx="2" ry="1.53" transform="translate(-157.28 164.17) rotate(-48.82)"/><path class="cls-1" d="M124.64,11.94c-9-2.09-21.19-1.56-34.64,2C62.39,21.38,40,39,40,53.38L0,42.65c0-14.36,22.39-32,50-39.4,15.35-4.11,29.08-4.2,38.25-1l.07,0Z"/><line class="cls-17" x1="126.75" y1="12.5" x2="124.64" y2="11.94"/><polygon class="cls-1" points="40 53.38 40 427.38 0 416.65 0 42.66 40 53.38"/><polygon class="cls-18" points="132 226.41 72.5 242.37 48 248.93 43 247.93 127 225.41 132 226.41"/><polygon class="cls-15" points="48 248.93 48 273.43 43 272.43 43 247.93 48 248.93"/><polygon class="cls-15" points="48 221.09 48 245.59 43 244.59 43 220.09 48 221.09"/><line class="cls-18" x1="127" y1="197.58" x2="43" y2="220.09"/><line class="cls-19" x1="132" y1="198.58" x2="127" y2="197.58"/><polygon class="cls-15" points="48 193.25 48 217.75 43 216.75 43 192.25 48 193.25"/><polygon class="cls-18" points="132 170.74 72.5 186.68 48 193.25 43 192.25 127 169.74 132 170.74"/><polygon class="cls-15" points="48 165.41 48 189.91 43 188.91 43 164.41 48 165.41"/><polygon class="cls-18" points="132 142.9 72.5 158.84 48 165.41 43 164.41 127 141.9 132 142.9"/><polygon class="cls-18" points="132 115.06 72.5 131 48 137.56 43 136.56 127 114.06 132 115.06"/><polygon class="cls-15" points="48 137.56 48 162.06 43 161.06 43 136.56 48 137.56"/></g></g></svg>