<svg xmlns="http://www.w3.org/2000/svg" viewBox="0 0 141 428.53"><defs><style>.cls-1,.cls-17{fill:#fcd833;}.cls-1,.cls-12,.cls-13,.cls-16,.cls-6{stroke:#000;}.cls-1,.cls-16,.cls-3,.cls-6,.cls-7{stroke-miterlimit:10;}.cls-14,.cls-2{fill:#fff;}.cls-12,.cls-3,.cls-6{fill:none;}.cls-3,.cls-5,.cls-7{stroke:#2434b6;}.cls-4,.cls-5,.cls-7{fill:#2434b6;}.cls-12,.cls-13,.cls-5{stroke-linecap:round;stroke-linejoin:round;}.cls-12,.cls-13,.cls-16,.cls-6,.cls-7{stroke-width:0.5px;}.cls-7{font-size:14.2px;}.cls-11,.cls-14,.cls-15,.cls-7{font-family:ArialMT, Arial;}.cls-8{letter-spacing:-0.03em;}.cls-9{letter-spacing:-0.01em;}.cls-10{letter-spacing:-0.02em;}.cls-11{font-size:11.1px;}.cls-14,.cls-15{font-size:3.93px;}</style></defs><title>BigStelaAcril</title><g id="Layer_2" data-name="Layer 2"><g id="Layer_1-2" data-name="Layer 1"><path class="cls-1" d="M90.5,14.47c-27.61,7.41-50,25-50,39.41v374l100-26.81v-374C140.5,12.71,118.11,7.07,90.5,14.47Zm42,236.94-84,22.51v-24.5l84-22.51Zm0-27.84-84,22.51v-24.5l84-22.51Zm0-27.84-84,22.51v-24.5l84-22.51Zm0-27.84-84,22.51V165.9l84-22.51Zm0-27.84-84,22.51v-24.5l84-22.51Z"/><ellipse class="cls-2" cx="90.5" cy="60.53" rx="46.98" ry="20.12" transform="translate(-14.54 31.87) rotate(-18.51)"/><ellipse class="cls-3" cx="90.5" cy="60.53" rx="43.31" ry="17.22" transform="translate(-14.24 30.79) rotate(-17.93)"/><line class="cls-3" x1="105.69" y1="47.86" x2="105.68" y2="47.87"/><line class="cls-3" x1="75.31" y1="56" x2="75.3" y2="56.01"/><path class="cls-4" d="M127.16,49.86c-4.22-2.37-12.1-2.82-21.47-1h0q-2.52.48-5.18,1.18c-.64.18-1.27.35-1.9.54-6.33,2.16-8.1,6.77-8.1,10.9,0-4.13-1.77-7.79-8.1-6.56l-1.9.48c-1.77.48-3.51,1-5.19,1.59h0c-9.37,3.2-17.24,7.87-21.46,12.5,2.09-6.75,14.57-14.86,29.66-18.9q2.56-.69,5-1.16l2-2.63,2,1.56c1.63-.56,3.3-1.06,5-1.52C112.59,42.81,125.07,44.23,127.16,49.86Z"/><path class="cls-5" d="M82.6,75.09a1.13,1.13,0,0,1-.13.54.55.55,0,0,1-.34.28L76.55,77.4a.3.3,0,0,1-.34-.09.81.81,0,0,1-.13-.48V68.46a1.13,1.13,0,0,1,.13-.54.55.55,0,0,1,.34-.28l5.58-1.49a.3.3,0,0,1,.34.09.81.81,0,0,1,.13.48Zm-.4-8.37a.08.08,0,0,0-.07,0l-5.58,1.5a.12.12,0,0,0-.07,0,.36.36,0,0,0,0,.11v8.37a.2.2,0,0,0,0,.09.09.09,0,0,0,.07,0l5.58-1.5a.13.13,0,0,0,.07-.06.18.18,0,0,0,0-.1V66.82S82.22,66.74,82.2,66.72Z"/><path class="cls-5" d="M83.62,75.51l3-10.58.41-.11L84,75.4Zm6.1-1.64-3-8.94.41-.11,3,8.94Z"/><path class="cls-5" d="M90.87,73.57l3-10.58.41-.11-3,10.58ZM91.52,72v-.56L96.73,70v.56ZM97,71.93l-3-8.94.41-.11,3,8.94Z"/><path class="cls-5" d="M98.87,71.42a.29.29,0,0,1-.34-.1.76.76,0,0,1-.12-.47V62.48a1.13,1.13,0,0,1,.12-.54.57.57,0,0,1,.34-.28l5.58-1.49a.3.3,0,0,1,.34.09.72.72,0,0,1,.13.48V61l-.37.1v-.28a.13.13,0,0,0,0-.1.06.06,0,0,0-.07,0l-5.58,1.5a.13.13,0,0,0-.06.05.2.2,0,0,0,0,.11v8.37a.12.12,0,0,0,0,.09s0,0,.06,0l5.58-1.49a.11.11,0,0,0,.07-.06.2.2,0,0,0,0-.11v-.27l.37-.1v.27a1,1,0,0,1-.13.55.52.52,0,0,1-.34.28Z"/><polygon class="cls-6" points="135.5 253.67 45.5 277.79 45.5 135.81 135.5 111.69 135.5 253.67"/><polygon class="cls-6" points="135.5 253.67 45.5 277.79 45.5 302.79 135.5 278.67 135.5 253.67"/><polygon class="cls-6" points="135.5 278.67 45.5 302.79 45.5 338.81 135.5 314.69 135.5 278.67"/><text class="cls-7" transform="matrix(0.82, -0.22, -0.21, 0.98, 56.26, 313.56)">ЕНЕРГІЯ<tspan x="0" y="17.04" xml:space="preserve">    С</tspan><tspan class="cls-8" x="26.04" y="17.04">В</tspan><tspan x="35.04" y="17.04">О</tspan><tspan class="cls-9" x="46.09" y="17.04">Б</tspan><tspan class="cls-10" x="55.25" y="17.04">О</tspan><tspan x="65.99" y="17.04">ДИ</tspan></text><path class="cls-2" d="M65.54,293.42l-13.08,3.5a1.45,1.45,0,0,1-2-1.44V282.41a2.74,2.74,0,0,1,2-2.49l13.08-3.5a1.45,1.45,0,0,1,2,1.43v13.08A2.75,2.75,0,0,1,65.54,293.42Z"/><path class="cls-2" d="M86.54,287.79l-13.08,3.5a1.45,1.45,0,0,1-2-1.43V276.78a2.75,2.75,0,0,1,2-2.49l13.08-3.5a1.45,1.45,0,0,1,2,1.44V285.3A2.74,2.74,0,0,1,86.54,287.79Z"/><path class="cls-2" d="M107.54,282.16l-13.08,3.51a1.46,1.46,0,0,1-2-1.44V271.15a2.74,2.74,0,0,1,2-2.48l13.08-3.51a1.46,1.46,0,0,1,2,1.44v13.07A2.74,2.74,0,0,1,107.54,282.16Z"/><path class="cls-2" d="M128.54,276.54,115.46,280a1.45,1.45,0,0,1-2-1.44V265.53a2.74,2.74,0,0,1,2-2.49l13.08-3.5a1.45,1.45,0,0,1,2,1.43v13.08A2.75,2.75,0,0,1,128.54,276.54Z"/><path class="cls-6" d="M127.54,275.8l-11.08,3a1.45,1.45,0,0,1-2-1.43V266.26a2.75,2.75,0,0,1,2-2.49l11.08-3a1.46,1.46,0,0,1,2,1.44v11.08A2.74,2.74,0,0,1,127.54,275.8Z"/><path class="cls-6" d="M106.54,281.43l-11.08,3a1.45,1.45,0,0,1-2-1.44V271.89a2.74,2.74,0,0,1,2-2.49l11.08-3a1.45,1.45,0,0,1,2,1.44v11.07A2.74,2.74,0,0,1,106.54,281.43Z"/><path class="cls-6" d="M85.54,287.06l-11.08,3a1.46,1.46,0,0,1-2-1.44V277.51a2.74,2.74,0,0,1,2-2.48l11.08-3a1.45,1.45,0,0,1,2,1.43v11.08A2.75,2.75,0,0,1,85.54,287.06Z"/><path class="cls-6" d="M64.54,292.68l-11.08,3a1.45,1.45,0,0,1-2-1.43V283.14a2.75,2.75,0,0,1,2-2.49l11.08-3a1.46,1.46,0,0,1,2,1.44V290.2A2.74,2.74,0,0,1,64.54,292.68Z"/><path d="M64.53,284.8l-1.68.45-1.66-4.39L60,281.1l.9,4.68-3.8,1,.9-5.16-1.19.4-1.67,5.29-1.68.45a1.31,1.31,0,0,0-.93,1.18.69.69,0,0,0,.93.68c1.33-.36,1.11,4.47,1.85,4.27l7.38-2c.74-.2.52-4.91,1.84-5.27a1.29,1.29,0,0,0,.93-1.18A.69.69,0,0,0,64.53,284.8Zm-2.37,6.27-6.32,1.69c-.53.14-.44-3.65-1.38-3.4l9.07-2.43C62.6,287.18,62.69,290.93,62.16,291.07Z"/><text class="cls-11" transform="matrix(0.61, -0.16, 0, 1, 74.33, 286.46)">WC</text><path class="cls-6" d="M95.46,284.4l11.08-3a2.74,2.74,0,0,0,2-2.49V267.87a1.45,1.45,0,0,0-2-1.44l-11.08,3a2.74,2.74,0,0,0-2,2.49V283A1.45,1.45,0,0,0,95.46,284.4Z"/><path class="cls-12" d="M107.28,273.73a3.35,3.35,0,0,1-2.39,3,2.06,2.06,0,0,1-.73.07,5.45,5.45,0,0,1-3.16,2.48,3.65,3.65,0,0,1-1.56.09c1.56-.12,1.56-7.88,3.13-8a2.71,2.71,0,0,1,1.59.86,3.3,3.3,0,0,1,.73-.3A1.76,1.76,0,0,1,107.28,273.73Z"/><path class="cls-13" d="M102.57,271.43c-1.57.09-1.57,7.85-3.13,8h0a2.67,2.67,0,0,1-1.59-.87,2.86,2.86,0,0,1-.74.32,1.77,1.77,0,0,1-2.39-1.75,3.33,3.33,0,0,1,2.39-3,2.1,2.1,0,0,1,.73-.08,5.44,5.44,0,0,1,3.17-2.48A3.7,3.7,0,0,1,102.57,271.43Z"/><text class="cls-14" transform="matrix(1, -0.27, 0, 1, 95.97, 277.81)">Wi</text><text class="cls-15" transform="matrix(1, -0.27, 0, 1, 102.75, 275.99)">Fi</text><path class="cls-16" d="M123,263.28,116.75,265v12.49l2-.54v-4l4.25-1.13a5.47,5.47,0,0,0,2.25-1.26,5.75,5.75,0,0,0,2-3.92v-.43A3.14,3.14,0,0,0,123,263.28Zm2.25,3.87a3.22,3.22,0,0,1-2.25,2.64l-4.25,1.13v-4.51l4.25-1.13a1.66,1.66,0,0,1,2.25,1.41,1.77,1.77,0,0,1,0,.23A1.69,1.69,0,0,1,125.25,267.15Z"/><path class="cls-16" d="M127.25,266.18a1.27,1.27,0,0,1,0,.2,1.85,1.85,0,0,1,0,.23"/><line class="cls-13" x1="125.25" y1="267.15" x2="125.25" y2="266.69"/><polygon class="cls-4" points="91.14 349.9 82.34 352.26 67 379.37 82.34 398.26 91.14 395.9 75.79 377.01 91.14 349.9"/><polygon class="cls-4" points="102.57 346.84 93.77 349.2 78.43 376.31 93.77 395.2 102.57 392.84 87.23 373.95 102.57 346.84"/><polygon class="cls-4" points="114 343.78 105.2 346.13 89.86 373.24 105.2 392.13 114 389.78 98.66 370.89 114 343.78"/><path class="cls-1" d="M125.14,12.44c-9-2.09-21.19-1.56-34.64,2-27.61,7.41-50,25-50,39.41L.5,43.15c0-14.36,22.39-32,50-39.4,15.35-4.11,29.08-4.2,38.25-1l.07,0Z"/><line class="cls-17" x1="127.25" y1="13" x2="125.14" y2="12.44"/><polygon class="cls-1" points="40.5 53.88 40.5 427.88 0.5 417.15 0.5 43.16 40.5 53.88"/></g></g></svg>