<svg xmlns="http://www.w3.org/2000/svg" viewBox="0 0 140.17 428.18"><defs><style>.cls-1{fill:#ccc;}.cls-1,.cls-2,.cls-3,.cls-5{stroke:#000;}.cls-1,.cls-3,.cls-5,.cls-6{stroke-miterlimit:10;}.cls-2,.cls-3{fill:#333;}.cls-2{stroke-linecap:round;stroke-linejoin:round;}.cls-4,.cls-5,.cls-6{fill:none;}.cls-6{stroke:#b92200;}</style></defs><title>BigStelaKarkas</title><g id="Layer_2" data-name="Layer 2"><g id="Layer_1-2" data-name="Layer 1"><path class="cls-1" d="M102.84,15.62h0L77.09,8.75l-1.83-.49h0L66.53,5.93,53.81,9.34,43.64,17.5l-26.13,21h0l-2.33,1.87V386.2l90-24.12V16.23Zm-2.67,342.8-80,21.44v-53l80-21.44Zm0-58-80,21.44v-52l80-21.44Zm0-57-80,21.44v-24.5l80-21.44Zm0-27.84L20.17,237v-24.5l80-21.44Zm0-27.84-80,21.44v-24.5l80-21.44Zm0-27.85-80,21.44v-24.5l80-21.44Zm0-27.84-80,21.44V129l80-21.44Zm0-29.5L20.17,124V51.36l80-21.44Zm0-77.63-80,21.44V42l26-20.85h0L55.05,14l10.24-2.74,8.88,2.37h0l26,6.93Z"/><path class="cls-1" d="M105.17,16.24V362.09l30,8V24.27ZM130.89,364l-21.43-5.75v-53L130.89,311Zm0-58-21.43-5.75v-52L130.89,254Zm0-57-21.43-5.75v-24.5l21.43,5.75Zm0-27.84-21.43-5.75v-24.5l21.43,5.75Zm0-27.84-21.43-5.75v-24.5l21.43,5.75Zm0-27.85-21.43-5.75V135.2L130.89,141Zm0-27.84-21.43-5.75v-24.5l21.43,5.75Zm0-29.5-21.43-5.75v-80l21.43,5.75Z"/><polygon class="cls-2" points="116.41 34.28 116.41 399.58 106.41 402.26 106.41 46.96 46.41 63.04 46.41 418.34 36.41 421.02 36.41 55.72 116.41 34.28"/><polygon class="cls-2" points="116.41 34.28 36.41 55.72 26.38 53.04 106.38 31.61 116.41 34.28"/><polygon class="cls-2" points="36.41 55.72 36.41 421.02 26.38 418.35 26.38 53.04 36.41 55.72"/><polygon class="cls-3" points="106.41 46.96 106.41 402.26 96.38 399.59 96.38 49.65 106.41 46.96"/><polygon class="cls-4" points="0 417.46 40 428.18 40 51.38 0 40.66 0 417.46"/><polygon class="cls-4" points="100.17 389.88 140.17 400.6 140.17 23.81 100.17 13.09 100.17 389.88"/><path class="cls-4" d="M140.17,26.58v374l-100,26.8v-374c0-14.36,22.39-32,50-39.4S140.17,12.22,140.17,26.58Z"/><path class="cls-4" d="M100.17,15.91v374L.17,416.7V42.7c0-14.36,22.39-32,50-39.39S100.17,1.55,100.17,15.91Z"/><path class="cls-1" d="M132.84,23.65h0l-25.74-6.87-1.83-.49h0L96.53,14,83.81,17.38,73.64,25.54l-26.13,21a0,0,0,0,0,0,0l-2.33,1.87V394.24l90-24.12V24.27Zm-2.67,342.81-80,21.44v-53l80-21.44Zm0-58-80,21.44v-52l80-21.44Zm0-57-80,21.44V248.4l80-21.44Zm0-27.84-80,21.44v-24.5l80-21.44Zm0-27.84-80,21.44v-24.5l80-21.44Zm0-27.85-80,21.44v-24.5l80-21.44Zm0-27.84-80,21.44V137l80-21.44Zm0-29.5L50.17,132V59.4l80-21.44Zm0-77.63-80,21.44V50l26-20.86h0l8.88-7.13,10.24-2.74,8.88,2.37h0l26,6.93Z"/><line class="cls-5" x1="135.17" y1="29.93" x2="135.16" y2="29.92"/><polygon class="cls-4" points="0 416.7 40 427.42 40 50.62 0 39.91 0 416.7"/><path class="cls-4" d="M124.81,11.94c-9-2.09-21.19-1.56-34.64,2-27.61,7.41-50,25-50,39.41L.17,42.65c0-14.36,22.39-32,50-39.4,15.35-4.11,29.08-4.2,38.25-1l.07,0Z"/><polygon class="cls-4" points="40.17 53.38 40.17 427.38 0.17 416.65 0.17 42.66 40.17 53.38"/><line class="cls-6" x1="115.31" y1="399.3" x2="115.32" y2="399.3"/><line class="cls-6" x1="46.26" y1="418.31" x2="46.25" y2="418.31"/><path class="cls-1" d="M15.17,40.35V386.2l30,8V48.38ZM40.89,388.09l-21.43-5.75v-53l21.43,5.75Zm0-58-21.43-5.75v-52l21.43,5.75Zm0-57-21.43-5.75v-24.5l21.43,5.75Zm0-27.84L19.46,239.5V215l21.43,5.75Zm0-27.84-21.43-5.75v-24.5l21.43,5.75Zm0-27.85-21.43-5.75v-24.5l21.43,5.75Zm0-27.84L19.46,156v-24.5l21.43,5.75Zm0-29.5-21.43-5.75v-80l21.43,5.75Z"/><polygon class="cls-1" points="96.53 13.97 83.81 17.38 53.81 9.34 66.53 5.93 96.53 13.97"/></g></g></svg>