<svg xmlns="http://www.w3.org/2000/svg" xmlns:xlink="http://www.w3.org/1999/xlink" viewBox="0 0 141 428.53"><defs><style>.cls-1,.cls-10,.cls-13,.cls-18,.cls-22{fill:none;}.cls-2{fill:#ff0;}.cls-3{fill:#89c33f;}.cls-27,.cls-4{fill:#fcd833;}.cls-13,.cls-22,.cls-23,.cls-26,.cls-4,.cls-5{stroke:#000;}.cls-10,.cls-13,.cls-14,.cls-26,.cls-4,.cls-5{stroke-miterlimit:10;}.cls-5{stroke-width:0.25px;}.cls-6{font-size:14.7px;font-family:MyriadPro-Regular, Myriad Pro;}.cls-24,.cls-6,.cls-9{fill:#fff;}.cls-7{letter-spacing:-0.08em;}.cls-8{letter-spacing:0.01em;}.cls-10,.cls-12,.cls-14{stroke:#2434b6;}.cls-11,.cls-12,.cls-14{fill:#2434b6;}.cls-12,.cls-18,.cls-22,.cls-23{stroke-linecap:round;stroke-linejoin:round;}.cls-13,.cls-14,.cls-22,.cls-23,.cls-26{stroke-width:0.5px;}.cls-14{font-size:14.2px;}.cls-14,.cls-21,.cls-24,.cls-25{font-family:ArialMT, Arial;}.cls-15{letter-spacing:-0.03em;}.cls-16{letter-spacing:-0.01em;}.cls-17{letter-spacing:-0.02em;}.cls-18{stroke:#fff;}.cls-19{fill:#333;}.cls-20{fill:url(#LED_Yellow);}.cls-21{font-size:11.1px;}.cls-24,.cls-25{font-size:3.93px;}</style><pattern id="LED_Yellow" data-name="LED Yellow" width="3" height="3" patternUnits="userSpaceOnUse" viewBox="0 0 3 3"><rect class="cls-1" width="3" height="3"/><circle class="cls-2" cx="0.32" cy="0.32" r="0.32"/><circle class="cls-2" cx="1.11" cy="1.11" r="0.32"/><circle class="cls-2" cx="1.89" cy="0.32" r="0.32"/><circle class="cls-2" cx="2.68" cy="1.11" r="0.32"/><circle class="cls-2" cx="0.32" cy="1.89" r="0.32"/><circle class="cls-2" cx="1.11" cy="2.68" r="0.32"/><circle class="cls-2" cx="1.89" cy="1.89" r="0.32"/><circle class="cls-2" cx="2.68" cy="2.68" r="0.32"/><circle class="cls-3" cx="0.32" cy="0.32" r="0.07"/><circle class="cls-3" cx="1.89" cy="0.32" r="0.07"/><circle class="cls-3" cx="2.68" cy="1.11" r="0.07"/><circle class="cls-3" cx="1.11" cy="1.11" r="0.07"/><circle class="cls-3" cx="0.32" cy="1.89" r="0.07"/><circle class="cls-3" cx="1.89" cy="1.89" r="0.07"/><circle class="cls-3" cx="1.11" cy="2.68" r="0.07"/><circle class="cls-3" cx="2.68" cy="2.68" r="0.07"/></pattern></defs><title>BigStela</title><g id="Layer_2" data-name="Layer 2"><g id="Layer_1-2" data-name="Layer 1"><path class="cls-4" d="M140.5,27.08v374l-100,26.79v-374c0-14.36,22.39-32,50-39.4S140.5,12.72,140.5,27.08Z"/><polygon class="cls-5" points="132.5 115.55 132.5 140.05 73 156 73 131.5 132.5 115.55"/><polygon class="cls-5" points="73 131.5 73 156 48.5 162.56 48.5 138.06 73 131.5"/><polygon class="cls-5" points="132.5 143.4 132.5 167.9 73 183.84 73 159.34 132.5 143.4"/><polygon class="cls-5" points="73 159.34 73 183.84 48.5 190.4 48.5 165.9 73 159.34"/><polygon class="cls-5" points="132.5 171.24 132.5 195.74 73 211.68 73 187.18 132.5 171.24"/><polygon class="cls-5" points="73 187.18 73 211.68 48.5 218.24 48.5 193.74 73 187.18"/><polygon class="cls-5" points="132.5 199.08 132.5 223.58 73 239.52 73 215.02 132.5 199.08"/><polygon class="cls-5" points="73 215.02 73 239.52 48.5 246.09 48.5 221.59 73 215.02"/><polygon class="cls-5" points="132.5 226.92 132.5 251.42 73 267.36 73 242.86 132.5 226.92"/><polygon class="cls-5" points="73 242.86 73 267.36 48.5 273.93 48.5 249.43 73 242.86"/><text class="cls-6" transform="matrix(1.06, -0.28, 0, 1, 52.76, 153.9)">95</text><text class="cls-6" transform="matrix(1.06, -0.28, 0, 1, 52.76, 181.74)">92</text><text class="cls-6" transform="matrix(1.06, -0.28, 0, 1, 50.87, 209.58)">ДП</text><text class="cls-6" transform="matrix(1.06, -0.28, 0, 1, 49.33, 237.65)"><tspan class="cls-7">Г</tspan><tspan class="cls-8" x="5.17" y="0">А</tspan><tspan x="14.32" y="0">З</tspan></text><text class="cls-6" transform="matrix(1.06, -0.28, 0, 1, 52.76, 265.26)">98</text><ellipse class="cls-9" cx="90.5" cy="60.53" rx="46.98" ry="20.12" transform="translate(-14.54 31.87) rotate(-18.51)"/><ellipse class="cls-10" cx="90.5" cy="60.53" rx="43.31" ry="17.22" transform="translate(-14.24 30.79) rotate(-17.93)"/><line class="cls-10" x1="105.69" y1="47.86" x2="105.68" y2="47.87"/><line class="cls-10" x1="75.31" y1="56" x2="75.3" y2="56.01"/><path class="cls-11" d="M127.16,49.86c-4.22-2.37-12.1-2.82-21.47-1h0q-2.52.48-5.18,1.18c-.64.18-1.27.35-1.9.54-6.33,2.16-8.1,6.77-8.1,10.9,0-4.13-1.77-7.79-8.1-6.56l-1.9.48c-1.77.48-3.51,1-5.19,1.59h0c-9.37,3.2-17.24,7.87-21.46,12.5,2.09-6.75,14.57-14.86,29.66-18.9q2.56-.69,5-1.16l2-2.63,2,1.56c1.63-.56,3.3-1.06,5-1.52C112.59,42.81,125.07,44.23,127.16,49.86Z"/><path class="cls-12" d="M82.59,75.09a1.13,1.13,0,0,1-.12.54.57.57,0,0,1-.34.28L76.55,77.4a.3.3,0,0,1-.34-.09.81.81,0,0,1-.13-.48V68.46a1.13,1.13,0,0,1,.13-.54.55.55,0,0,1,.34-.28l5.58-1.49a.31.31,0,0,1,.34.09.81.81,0,0,1,.12.48Zm-.39-8.37a.08.08,0,0,0-.07,0l-5.58,1.5a.12.12,0,0,0-.07,0,.2.2,0,0,0,0,.11v8.37s0,.07,0,.09a.09.09,0,0,0,.07,0l5.58-1.5a.13.13,0,0,0,.07-.06.36.36,0,0,0,0-.1V66.82A.22.22,0,0,0,82.2,66.72Z"/><path class="cls-12" d="M83.62,75.51l3-10.58.41-.11L84,75.4Zm6.1-1.64-3-8.94.41-.11,3,8.94Z"/><path class="cls-12" d="M90.87,73.57l3-10.58.41-.11-3,10.58ZM91.52,72v-.56L96.73,70v.56ZM97,71.93l-3-8.94.41-.11,3,8.94Z"/><path class="cls-12" d="M98.87,71.42a.29.29,0,0,1-.34-.1.76.76,0,0,1-.12-.47V62.48a1.13,1.13,0,0,1,.12-.54.57.57,0,0,1,.34-.28l5.58-1.49a.3.3,0,0,1,.34.09.72.72,0,0,1,.13.48V61l-.38.1v-.28c0-.05,0-.08,0-.1a.06.06,0,0,0-.07,0l-5.58,1.5a.13.13,0,0,0-.06.05.2.2,0,0,0,0,.11v8.37a.12.12,0,0,0,0,.09s0,0,.06,0l5.58-1.49a.11.11,0,0,0,.07-.06.2.2,0,0,0,0-.11v-.27l.38-.1v.27a1,1,0,0,1-.13.55.55.55,0,0,1-.34.28Z"/><polygon class="cls-13" points="135.5 253.67 45.5 277.79 45.5 135.81 135.5 111.69 135.5 253.67"/><polygon class="cls-13" points="135.5 253.67 45.5 277.79 45.5 302.79 135.5 278.67 135.5 253.67"/><polygon class="cls-13" points="135.5 278.67 45.5 302.79 45.5 338.81 135.5 314.69 135.5 278.67"/><text class="cls-14" transform="matrix(0.82, -0.22, -0.21, 0.98, 56.26, 313.56)">ЕНЕРГІЯ<tspan x="0" y="17.04" xml:space="preserve">    С</tspan><tspan class="cls-15" x="26.04" y="17.04">В</tspan><tspan x="35.04" y="17.04">О</tspan><tspan class="cls-16" x="46.09" y="17.04">Б</tspan><tspan class="cls-17" x="55.25" y="17.04">О</tspan><tspan x="65.99" y="17.04">ДИ</tspan></text><line class="cls-18" x1="49.25" y1="139.86" x2="72.25" y2="133.7"/><line class="cls-18" x1="49.25" y1="160.36" x2="72.25" y2="154.2"/><line class="cls-18" x1="49.25" y1="167.7" x2="72.25" y2="161.54"/><line class="cls-18" x1="49.25" y1="188.2" x2="72.25" y2="182.04"/><line class="cls-18" x1="49.25" y1="195.54" x2="72.25" y2="189.38"/><line class="cls-18" x1="49.25" y1="216.04" x2="72.25" y2="209.88"/><line class="cls-18" x1="49.25" y1="223.38" x2="72.25" y2="217.22"/><line class="cls-18" x1="49.25" y1="243.88" x2="72.25" y2="237.72"/><line class="cls-18" x1="49.25" y1="251.23" x2="72.25" y2="245.06"/><line class="cls-18" x1="49.25" y1="271.73" x2="72.25" y2="265.56"/><polygon class="cls-19" points="129.75 140.16 75.75 154.63 75.75 131.63 129.75 117.17 129.75 140.16"/><polygon class="cls-19" points="129.75 167.88 75.75 182.35 75.75 159.35 129.75 144.88 129.75 167.88"/><polygon class="cls-19" points="129.75 195.72 75.75 210.19 75.75 187.19 129.75 172.72 129.75 195.72"/><polygon class="cls-19" points="129.75 223.56 75.75 238.03 75.75 215.03 129.75 200.56 129.75 223.56"/><polygon class="cls-19" points="129.75 251.26 75.75 265.73 75.75 242.73 129.75 228.26 129.75 251.26"/><path class="cls-20" d="M87,139v-7.74L85.25,130l-7,1.88-1.75,2.22v7.74l.88.65-.88,1.11v8l1.75,1.28,7-1.88L87,148.75v-8h0l-.87-.64L87,139Zm-1.75,9.5-.73.92L79,150.89l-.73-.53v-6.54l.73-.93,5.54-1.48.73.53Zm0-9.75-.73.92L79,141.14l-.73-.53v-6.29l.73-.93,5.54-1.48.73.53Z"/><path class="cls-20" d="M99.25,135.71V128l-1.75-1.28-7,1.88-1.75,2.22v7.74l.88.64-.88,1.12v8l1.75,1.28,7-1.88,1.75-2.22v-8h0l-.87-.64.87-1.11ZM97.5,145.2l-.73.93-5.54,1.48-.73-.53v-6.55l.73-.92,5.54-1.48.73.53Zm0-9.75-.73.93-5.54,1.48-.73-.53V131l.73-.93,5.54-1.48.73.53Z"/><path class="cls-20" d="M118.51,130.55l.87.64-.87,1.11h0v8l1.75,1.29,7-1.88,1.75-2.22v-8l-.88-.65.88-1.12V120l-1.75-1.28-7,1.88-1.75,2.21v7.75Zm1.74,2,.73-.92,5.54-1.49.73.54v6.54l-.73.93L121,139.64l-.73-.53Zm0-9.5.73-.92,5.54-1.48.73.53v6.29l-.73.92L121,129.89l-.73-.53Z"/><path class="cls-20" d="M106.26,133.83l.87.64-.87,1.11h0v8l1.75,1.28,7-1.88,1.75-2.22v-8l-.88-.65.88-1.11v-7.75L115,122l-7,1.88-1.75,2.22v7.75Zm1.74,2,.73-.93,5.54-1.48.73.53v6.54l-.73.93-5.54,1.48-.73-.53Zm0-9.5.73-.93,5.54-1.48.73.53v6.29l-.73.93-5.54,1.48-.73-.53Z"/><ellipse class="cls-20" cx="102.75" cy="144.53" rx="2" ry="1.53" transform="translate(-73.68 126.69) rotate(-48.82)"/><path class="cls-20" d="M87,166.84v-7.75l-1.75-1.28-7,1.87L76.5,161.9v7.74l.88.65-.88,1.12v8l1.75,1.28,7-1.87L87,176.59v-8h0l-.87-.64.87-1.11Zm-1.75,9.49-.73.92L79,178.74l-.73-.54v-6.54l.73-.93,5.54-1.48.73.53Zm0-9.75-.73.92L79,169l-.73-.53v-6.29l.73-.92,5.54-1.49.73.53Z"/><path class="cls-20" d="M99.25,163.55V155.8l-1.75-1.28-7,1.88-1.75,2.22v7.74l.88.65-.88,1.11v8l1.75,1.28,7-1.88,1.75-2.22v-8h0l-.87-.65.87-1.1Zm-1.75,9.5-.73.92-5.54,1.48-.73-.53v-6.54l.73-.93L96.77,166l.73.53Zm0-9.76-.73.93-5.54,1.48-.73-.53v-6.29l.73-.93,5.54-1.48.73.53Z"/><path class="cls-20" d="M118.51,158.39l.87.64-.87,1.11h0v8l1.75,1.28,7-1.88,1.75-2.22v-8l-.88-.65.88-1.12v-7.74l-1.75-1.28-7,1.88-1.75,2.22v7.75Zm1.74,2,.73-.92,5.54-1.48.73.53v6.54l-.73.93L121,167.48l-.73-.53Zm0-9.49L121,150l5.54-1.48.73.53v6.29l-.73.93L121,157.73l-.73-.53Z"/><path class="cls-20" d="M106.26,161.68l.87.64-.87,1.11h0v8l1.75,1.28,7-1.88,1.75-2.21v-8l-.88-.64.88-1.12v-7.74L115,149.83l-7,1.88-1.75,2.22v7.75Zm1.74,2,.73-.93,5.54-1.48.73.53v6.55l-.73.92-5.54,1.48-.73-.53Zm0-9.5.73-.93,5.54-1.48.73.53v6.29l-.73.93L108.73,161l-.73-.53Z"/><ellipse class="cls-20" cx="102.75" cy="172.37" rx="2" ry="1.53" transform="translate(-94.63 136.19) rotate(-48.82)"/><path class="cls-20" d="M87,194.68v-7.75l-1.75-1.28-7,1.87-1.75,2.22v7.74l.88.65-.88,1.12v8l1.75,1.28,7-1.87L87,204.43v-8h0l-.87-.64.87-1.11Zm-1.75,9.49-.73.92L79,206.58l-.73-.54V199.5l.73-.92,5.54-1.49.73.53Zm0-9.75-.73.92L79,196.83l-.73-.54V190l.73-.92,5.54-1.49.73.53Z"/><path class="cls-20" d="M99.25,191.39v-7.74l-1.75-1.29-7,1.88-1.75,2.22v7.74l.88.65L88.75,196v8l1.75,1.28,7-1.88,1.75-2.21v-8h0l-.87-.64.87-1.11Zm-1.75,9.5-.73.92-5.54,1.48-.73-.53v-6.54l.73-.93,5.54-1.48.73.53Zm0-9.75-.73.92-5.54,1.48L90.5,193v-6.29l.73-.93,5.54-1.48.73.53Z"/><path class="cls-20" d="M118.51,186.23l.87.65-.87,1.1h0v8l1.75,1.28,7-1.88,1.75-2.22v-8l-.88-.65.88-1.11v-7.75l-1.75-1.28-7,1.88-1.75,2.22v7.75Zm1.74,2,.73-.93,5.54-1.48.73.53v6.54l-.73.93L121,195.32l-.73-.53Zm0-9.5.73-.93,5.54-1.48.73.53v6.29l-.73.93L121,185.57l-.73-.53Z"/><path class="cls-20" d="M106.26,189.52l.87.64-.87,1.11h0v8l1.75,1.28,7-1.87,1.75-2.22v-8l-.88-.64.88-1.12V179L115,177.68l-7,1.87-1.75,2.22v7.75Zm1.74,2,.73-.93,5.54-1.48.73.53v6.55l-.73.92-5.54,1.49-.73-.54Zm0-9.5.73-.92,5.54-1.49.73.53v6.3l-.73.92-5.54,1.48-.73-.53Z"/><ellipse class="cls-20" cx="102.75" cy="200.21" rx="2" ry="1.53" transform="translate(-115.58 145.7) rotate(-48.82)"/><path class="cls-20" d="M87,222.52v-7.75l-1.75-1.28-7,1.87-1.75,2.22v7.74l.88.65-.88,1.12v8l1.75,1.28,7-1.87L87,232.27v-8h0l-.87-.64.87-1.11ZM85.25,232l-.73.92L79,234.42l-.73-.53v-6.55l.73-.92,5.54-1.49.73.53Zm0-9.75-.73.92L79,224.67l-.73-.54v-6.29l.73-.92,5.54-1.49.73.54Z"/><path class="cls-20" d="M99.25,219.24v-7.75l-1.75-1.28-7,1.87-1.75,2.22V222l.88.65-.88,1.12v8l1.75,1.28,7-1.87L99.25,229v-8h0l-.87-.64.87-1.11Zm-1.75,9.49-.73.92-5.54,1.49-.73-.54v-6.54l.73-.92,5.54-1.49.73.53Zm0-9.75-.73.92-5.54,1.49-.73-.54v-6.29l.73-.92,5.54-1.49.73.53Z"/><path class="cls-20" d="M118.51,214.08l.87.64-.87,1.11h0v8l1.75,1.28,7-1.88L129,221v-8l-.88-.64.88-1.12v-7.74l-1.75-1.29-7,1.88-1.75,2.22v7.75Zm1.74,2,.73-.93,5.54-1.48.73.53v6.55l-.73.92L121,223.16l-.73-.53Zm0-9.5.73-.93,5.54-1.48.73.53V211l-.73.92L121,213.41l-.73-.53Z"/><path class="cls-20" d="M106.26,217.36l.87.64-.87,1.11h0v8l1.75,1.28,7-1.87,1.75-2.22v-8l-.88-.64.88-1.12V206.8L115,205.52l-7,1.87-1.75,2.22v7.75Zm1.74,2,.73-.92,5.54-1.49.73.53V224l-.73.92-5.54,1.49-.73-.54Zm0-9.5.73-.92,5.54-1.49.73.53v6.3l-.73.92-5.54,1.49-.73-.54Z"/><ellipse class="cls-20" cx="102.75" cy="228.05" rx="2" ry="1.53" transform="translate(-136.54 155.21) rotate(-48.82)"/><path class="cls-20" d="M87,250.36v-7.75l-1.75-1.28-7,1.87-1.75,2.22v7.75l.88.64-.88,1.12v8l1.75,1.28,7-1.87L87,260.11v-8h0l-.87-.64.87-1.11Zm-1.75,9.49-.73.92L79,262.26l-.73-.53v-6.55l.73-.92,5.54-1.49.73.54Zm0-9.75-.73.92L79,252.51l-.73-.53v-6.3l.73-.92,5.54-1.49.73.54Z"/><path class="cls-20" d="M99.25,247.08v-7.75l-1.75-1.28-7,1.87-1.75,2.22v7.74l.88.65-.88,1.12v8l1.75,1.28,7-1.87,1.75-2.22v-8h0l-.87-.64.87-1.11Zm-1.75,9.49-.73.92L91.23,259l-.73-.54V251.9l.73-.92,5.54-1.49.73.53Zm0-9.75-.73.92-5.54,1.49-.73-.54V242.4l.73-.92L96.77,240l.73.53Z"/><path class="cls-20" d="M118.51,241.92l.87.64-.87,1.11h0v8l1.75,1.28,7-1.87,1.75-2.22v-8l-.88-.64.88-1.12v-7.74l-1.75-1.28-7,1.87-1.75,2.22v7.75Zm1.74,2L121,243l5.54-1.48.73.53v6.55l-.73.92L121,251l-.73-.54Zm0-9.5.73-.92,5.54-1.49.73.53v6.3l-.73.92L121,241.25l-.73-.53Z"/><path class="cls-20" d="M106.26,245.2l.87.64-.87,1.11h0v8l1.75,1.28,7-1.87,1.75-2.22v-8l-.88-.64.88-1.12v-7.74L115,233.36l-7,1.87-1.75,2.22v7.75Zm1.74,2,.73-.92,5.54-1.49.73.53v6.55l-.73.92-5.54,1.49-.73-.53Zm0-9.5.73-.92,5.54-1.49.73.54v6.29l-.73.92-5.54,1.49L108,244Z"/><ellipse class="cls-20" cx="102.75" cy="255.89" rx="2" ry="1.53" transform="translate(-157.49 164.72) rotate(-48.82)"/><path class="cls-9" d="M65.54,293.42l-13.08,3.5a1.45,1.45,0,0,1-2-1.44V282.41a2.74,2.74,0,0,1,2-2.49l13.08-3.5a1.45,1.45,0,0,1,2,1.43v13.08A2.75,2.75,0,0,1,65.54,293.42Z"/><path class="cls-9" d="M86.54,287.79l-13.08,3.5a1.45,1.45,0,0,1-2-1.43V276.78a2.75,2.75,0,0,1,2-2.49l13.08-3.5a1.45,1.45,0,0,1,2,1.44V285.3A2.74,2.74,0,0,1,86.54,287.79Z"/><path class="cls-9" d="M107.54,282.16l-13.08,3.51a1.46,1.46,0,0,1-2-1.44V271.15a2.74,2.74,0,0,1,2-2.48l13.08-3.51a1.46,1.46,0,0,1,2,1.44v13.07A2.74,2.74,0,0,1,107.54,282.16Z"/><path class="cls-9" d="M128.54,276.54,115.46,280a1.45,1.45,0,0,1-2-1.44V265.53a2.74,2.74,0,0,1,2-2.49l13.08-3.5a1.45,1.45,0,0,1,2,1.43v13.08A2.75,2.75,0,0,1,128.54,276.54Z"/><path class="cls-13" d="M127.54,275.8l-11.08,3a1.45,1.45,0,0,1-2-1.43V266.26a2.75,2.75,0,0,1,2-2.49l11.08-3a1.46,1.46,0,0,1,2,1.44v11.08A2.74,2.74,0,0,1,127.54,275.8Z"/><path class="cls-13" d="M106.54,281.43l-11.08,3a1.45,1.45,0,0,1-2-1.44V271.89a2.74,2.74,0,0,1,2-2.49l11.08-3a1.45,1.45,0,0,1,2,1.44v11.07A2.74,2.74,0,0,1,106.54,281.43Z"/><path class="cls-13" d="M85.54,287.06l-11.08,3a1.46,1.46,0,0,1-2-1.44V277.51a2.74,2.74,0,0,1,2-2.48l11.08-3a1.45,1.45,0,0,1,2,1.43v11.08A2.75,2.75,0,0,1,85.54,287.06Z"/><path class="cls-13" d="M64.54,292.68l-11.08,3a1.45,1.45,0,0,1-2-1.43V283.14a2.75,2.75,0,0,1,2-2.49l11.08-3a1.46,1.46,0,0,1,2,1.44V290.2A2.74,2.74,0,0,1,64.54,292.68Z"/><path d="M64.53,284.8l-1.68.45-1.66-4.39L60,281.1l.9,4.68-3.8,1,.9-5.16-1.19.4-1.67,5.29-1.68.45a1.31,1.31,0,0,0-.93,1.18.69.69,0,0,0,.93.68c1.33-.36,1.11,4.47,1.85,4.27l7.38-2c.74-.2.52-4.91,1.84-5.27a1.29,1.29,0,0,0,.93-1.18A.69.69,0,0,0,64.53,284.8Zm-2.37,6.27-6.32,1.69c-.53.14-.44-3.65-1.38-3.4l9.07-2.43C62.6,287.18,62.69,290.93,62.16,291.07Z"/><text class="cls-21" transform="matrix(0.61, -0.16, 0, 1, 74.33, 286.46)">WC</text><path class="cls-13" d="M95.46,284.4l11.08-3a2.74,2.74,0,0,0,2-2.49V267.87a1.45,1.45,0,0,0-2-1.44l-11.08,3a2.74,2.74,0,0,0-2,2.49V283A1.45,1.45,0,0,0,95.46,284.4Z"/><path class="cls-22" d="M107.28,273.73a3.35,3.35,0,0,1-2.39,3,2.06,2.06,0,0,1-.73.07,5.45,5.45,0,0,1-3.16,2.48,3.65,3.65,0,0,1-1.56.09c1.56-.12,1.56-7.88,3.13-8a2.71,2.71,0,0,1,1.59.86,3.3,3.3,0,0,1,.73-.3A1.76,1.76,0,0,1,107.28,273.73Z"/><path class="cls-23" d="M102.57,271.43c-1.57.09-1.57,7.85-3.13,8h0a2.67,2.67,0,0,1-1.59-.87,2.86,2.86,0,0,1-.74.32,1.77,1.77,0,0,1-2.39-1.75,3.33,3.33,0,0,1,2.39-3,2.1,2.1,0,0,1,.73-.08,5.44,5.44,0,0,1,3.17-2.48A3.7,3.7,0,0,1,102.57,271.43Z"/><text class="cls-24" transform="matrix(1, -0.27, 0, 1, 95.97, 277.81)">Wi</text><text class="cls-25" transform="matrix(1, -0.27, 0, 1, 102.75, 275.99)">Fi</text><path class="cls-26" d="M123,263.28,116.75,265v12.49l2-.54v-4l4.25-1.13a5.47,5.47,0,0,0,2.25-1.26,5.75,5.75,0,0,0,2-3.92v-.43A3.14,3.14,0,0,0,123,263.28Zm2.25,3.87a3.22,3.22,0,0,1-2.25,2.64l-4.25,1.13v-4.51l4.25-1.13a1.66,1.66,0,0,1,2.25,1.41,1.77,1.77,0,0,1,0,.23A1.69,1.69,0,0,1,125.25,267.15Z"/><path class="cls-26" d="M127.25,266.18a1.27,1.27,0,0,1,0,.2,1.85,1.85,0,0,1,0,.23"/><line class="cls-23" x1="125.25" y1="267.15" x2="125.25" y2="266.69"/><polygon class="cls-11" points="91.14 349.9 82.34 352.26 67 379.37 82.34 398.26 91.14 395.9 75.79 377.01 91.14 349.9"/><polygon class="cls-11" points="102.57 346.84 93.77 349.2 78.43 376.31 93.77 395.2 102.57 392.84 87.23 373.95 102.57 346.84"/><polygon class="cls-11" points="114 343.78 105.2 346.13 89.86 373.24 105.2 392.13 114 389.78 98.66 370.89 114 343.78"/><path class="cls-4" d="M125.14,12.44c-9-2.09-21.19-1.56-34.64,2-27.61,7.41-50,25-50,39.41L.5,43.15c0-14.36,22.39-32,50-39.4,15.35-4.11,29.08-4.2,38.25-1l.07,0Z"/><line class="cls-27" x1="127.25" y1="13" x2="125.14" y2="12.44"/><polygon class="cls-4" points="40.5 53.88 40.5 427.88 0.5 417.15 0.5 43.16 40.5 53.88"/></g></g></svg>