<svg xmlns="http://www.w3.org/2000/svg" viewBox="0 0 140.09 422.5"><defs><style>.cls-1{fill:blue;}.cls-2{opacity:0.6;}.cls-3,.cls-4{fill:#ecffff;}.cls-4,.cls-6{fill-rule:evenodd;}.cls-5{opacity:0.78;}.cls-7{fill:#1b2c3e;}.cls-16,.cls-19,.cls-8,.cls-9{fill:none;}.cls-8,.cls-9{stroke:#1b2c3e;}.cls-11,.cls-12,.cls-14,.cls-15,.cls-16,.cls-8{stroke-miterlimit:10;}.cls-17,.cls-19,.cls-9{stroke-linecap:round;stroke-linejoin:round;}.cls-10,.cls-14{fill:#141419;}.cls-11,.cls-12,.cls-13,.cls-15,.cls-17{fill:#f7f7f7;}.cls-11,.cls-12{stroke:#141419;}.cls-12,.cls-15,.cls-16,.cls-17{stroke-width:0.25px;}.cls-14,.cls-15,.cls-16,.cls-17{stroke:#f7f7f7;}.cls-18{fill:#251f24;}.cls-19{stroke:#000;}.cls-20{fill:#5e1a1d;}</style></defs><title>BussinesStella</title><g id="Layer_2" data-name="Layer 2"><g id="Layer_1-2" data-name="Layer 1"><polygon class="cls-1" points="44.85 80.21 44.85 422.5 30.28 419.75 30.28 86.97 44.85 80.21"/><g class="cls-2"><polygon points="44.85 80.21 44.85 422.5 30.28 419.75 30.28 86.97 44.85 80.21"/></g><polygon class="cls-1" points="116.21 113.44 116.21 408.97 44.85 422.5 44.85 80.21 116.21 113.44"/><path class="cls-3" d="M103.81,270.68C85.45,274,66.47,287.73,46.87,312.87l-43.74.88Q16.87,297.47,30.28,288v10.83l14.57-.7c15.7-15.76,31-24.4,45.94-26.36Z"/><path class="cls-4" d="M48.57,387.91,4.82,382.58c-7.15-21.95-5.13-45.32-1.69-68.83l43.74-.88C43.41,338.52,41.37,364,48.57,387.91Z"/><g class="cls-5"><path d="M103.81,270.68C85.45,274,66.47,287.73,46.87,312.87l-43.74.88Q16.87,297.47,30.28,288v10.83l14.57-.7c15.7-15.76,31-24.4,45.94-26.36Z"/></g><g class="cls-2"><path class="cls-6" d="M48.57,387.91,4.82,382.58c-7.15-21.95-5.13-45.32-1.69-68.83l43.74-.88C43.41,338.52,41.37,364,48.57,387.91Z"/></g><polygon class="cls-3" points="131 151.78 60.64 124.08 60.64 4.66 131 48.94 131 151.78"/><path class="cls-7" d="M58.41,0V126.47l74.24,28.74v-108ZM131,151.78l-70.37-27.7V4.66L131,48.94Z"/><path class="cls-8" d="M102.39,53.8l-8-4.62c0-3.5,1.81-5.27,4-4S102.39,50.36,102.39,53.8Z"/><polygon class="cls-8" points="102.39 62.06 94.44 57.58 94.44 54.36 102.39 58.89 102.39 62.06"/><polyline class="cls-8" points="94.88 88.55 94.88 88.54 95.04 83.57 95.2 78.94 95.35 74.3 95.5 69.67 95.66 65.05 95.81 60.42 95.88 58.39"/><line class="cls-8" x1="101.12" y1="65.43" x2="95.8" y2="60.41"/><line class="cls-8" x1="101.27" y1="70.29" x2="95.65" y2="65.04"/><line class="cls-8" x1="101.42" y1="75.14" x2="95.5" y2="69.67"/><line class="cls-8" x1="101.58" y1="79.99" x2="95.34" y2="74.3"/><line class="cls-8" x1="101.73" y1="84.83" x2="95.19" y2="78.93"/><line class="cls-8" x1="101.88" y1="89.68" x2="95.04" y2="83.57"/><line class="cls-8" x1="112.44" y1="64.87" x2="103.59" y2="58.05"/><line class="cls-8" x1="93.19" y1="50.03" x2="83.49" y2="42.55"/><line class="cls-8" x1="112.44" y1="59.36" x2="103.59" y2="56.02"/><line class="cls-8" x1="93.19" y1="52.08" x2="83.49" y2="48.41"/><line class="cls-8" x1="96.94" y1="55.79" x2="96.94" y2="50.64"/><line class="cls-8" x1="99.94" y1="57.49" x2="99.94" y2="52.38"/><line class="cls-8" x1="95.43" y1="54.92" x2="95.43" y2="49.76"/><line class="cls-8" x1="101.43" y1="58.34" x2="101.43" y2="53.24"/><line class="cls-8" x1="98.45" y1="56.64" x2="98.45" y2="51.51"/><polyline class="cls-8" points="100.99 61.27 101.12 65.43 101.28 70.29 101.43 75.14 101.58 79.99 101.73 84.83 101.88 89.68 101.96 92.07"/><path class="cls-7" d="M99.06,45.67a4.31,4.31,0,0,0-.62-.46,2.83,2.83,0,0,0-.62-.28l.63-3.25Z"/><path class="cls-9" d="M111.78,97.78c0,.42-.44.62-.87.41-.87-.43-.87-2.11-1.74-2.55s-.88,1.26-1.76.82-.88-2.13-1.76-2.57-.89,1.26-1.79.82-.89-2.15-1.79-2.6-.91,1.27-1.81.82-.91-2.17-1.82-2.62h0c-.92-.45-.92,1.28-1.83.82s-.93-2.19-1.86-2.65-.93,1.28-1.86.82S92,87.08,91,86.62s-1,1.28-1.9.81-1-2.23-1.91-2.71-1,1.29-1.93.82a1.94,1.94,0,0,1-1-1.37"/><path class="cls-7" d="M83.65,92.78c-2.5-1.19-4.54.94-4.54,4.78s2,7.87,4.54,9,4.46-1,4.46-4.83S86.13,94,83.65,92.78Zm0,11.94c-1.83-.83-3.32-3.78-3.32-6.6s1.49-4.37,3.32-3.51,3.28,3.8,3.28,6.57S85.47,105.54,83.65,104.72Z"/><path class="cls-7" d="M121.89,111c-2.12-1-3.85,1-3.85,4.56s1.73,7.18,3.85,8.13,3.78-1.12,3.78-4.6S124,112,121.89,111Zm0,11c-1.55-.7-2.82-3.37-2.82-6s1.27-4.08,2.82-3.34,2.78,3.39,2.78,5.94S123.43,122.72,121.89,122Z"/><path class="cls-7" d="M71.33,86.9l-3.69-1.76V99.37L71.33,101c2.61,1.17,4.69-1,4.69-4.9S73.94,88.15,71.33,86.9Zm0,12.25-2.42-1.09V87.64l2.42,1.14c1.92.91,3.45,3.94,3.45,6.78S73.25,100,71.33,99.15Z"/><polygon class="cls-7" points="98.84 100.02 98.84 113.37 97.71 112.86 97.71 102.17 96.02 104.37 95.26 105.38 94.49 103.66 92.78 99.84 92.78 110.65 91.62 110.13 91.62 96.58 92.78 97.13 92.78 97.14 95.26 102.68 97.71 99.5 97.71 99.49 98.84 100.02"/><polygon class="cls-7" points="104.3 102.63 104.3 115.82 103.2 115.33 103.2 102.11 104.3 102.63"/><polygon class="cls-7" points="114.87 107.67 114.87 120.56 113.82 120.09 113.82 118.09 109.83 108.94 109.83 118.3 108.75 117.81 108.75 104.75 109.83 105.27 109.83 106.33 113.82 115.5 113.82 107.17 114.87 107.67"/><path class="cls-7" d="M84.15,116.24l1.44-1.75.52.23-1.57,1.86v-.16l1.73,3.5-.57-.24-1.55-3.16h0V119l-.42-.18v-5.17l.42.18v2.38Z"/><path class="cls-7" d="M88.73,119.5l-1.31-.56-.34,1.33-.44-.19,1.23-4.6.41.17,1.22,5.64-.43-.18Zm-1.19-1,1.07.46-.53-2.56h0Z"/><path class="cls-7" d="M90.6,121a2.65,2.65,0,0,1-.5-.94,3.68,3.68,0,0,1-.18-1.17,2.45,2.45,0,0,1,.18-1,.87.87,0,0,1,.5-.51,1.05,1.05,0,0,1,.77,0v-.5l.4.18v.5a2,2,0,0,1,.76.6,2.92,2.92,0,0,1,.5.94,3.68,3.68,0,0,1,.18,1.17,2.44,2.44,0,0,1-.18,1,.9.9,0,0,1-.5.51,1.07,1.07,0,0,1-.76,0v.53l-.4-.17v-.53A2.15,2.15,0,0,1,90.6,121Zm.77-3a.76.76,0,0,0-.55,0,.65.65,0,0,0-.36.38,1.67,1.67,0,0,0-.13.73,2.67,2.67,0,0,0,.13.86,1.93,1.93,0,0,0,.36.68,1.47,1.47,0,0,0,.55.44Zm1.3,1.3a2.08,2.08,0,0,0-.35-.68,1.48,1.48,0,0,0-.55-.45v3.06a.71.71,0,0,0,.55,0,.64.64,0,0,0,.35-.37,1.75,1.75,0,0,0,.13-.74A2.55,2.55,0,0,0,92.67,119.29Z"/><path class="cls-7" d="M96,124l-2-.85v-5.06l2,.87v.56l-1.59-.68v1.62l1.51.64v.56l-1.51-.64v1.73l1.59.68Z"/><path class="cls-7" d="M99.85,125.17a.81.81,0,0,1-.47.23.94.94,0,0,1-.54-.08,1.35,1.35,0,0,1-.55-.41,2,2,0,0,1-.38-.66,2.35,2.35,0,0,1-.14-.79,1.37,1.37,0,0,1,.16-.72.91.91,0,0,1,.47-.41l0,0h.08c-.1-.2-.17-.38-.23-.53a3.35,3.35,0,0,1-.13-.43,2.58,2.58,0,0,1,0-.38,1.14,1.14,0,0,1,.11-.52.49.49,0,0,1,.28-.27.5.5,0,0,1,.41,0,1.07,1.07,0,0,1,.42.32,1.73,1.73,0,0,1,.28.52,1.83,1.83,0,0,1,.1.62,1,1,0,0,1-.16.61,1,1,0,0,1-.51.38l.78,1.67a2,2,0,0,0,.11-.5,5.44,5.44,0,0,0,0-.76v-.15l.36.15v.15q0,.39,0,.69a3.42,3.42,0,0,1-.09.53,1.59,1.59,0,0,1-.14.42l.55,1.16-.49-.21Zm-1.58-2.06a.93.93,0,0,0-.11.47,1.55,1.55,0,0,0,.09.53,1.39,1.39,0,0,0,.25.43,1,1,0,0,0,.37.28.74.74,0,0,0,.28.06.55.55,0,0,0,.26,0,.54.54,0,0,0,.21-.16l-.89-1.92h-.11A.92.92,0,0,0,98.27,123.11Zm1-1.17a.71.71,0,0,0,.11-.43,1.12,1.12,0,0,0,0-.36.73.73,0,0,0-.15-.29.63.63,0,0,0-.22-.18.27.27,0,0,0-.23,0,.32.32,0,0,0-.15.17.87.87,0,0,0,0,.31,1.5,1.5,0,0,0,0,.29,1.82,1.82,0,0,0,.11.33,3.84,3.84,0,0,0,.2.43A.9.9,0,0,0,99.24,121.94Z"/><path class="cls-7" d="M102.69,124.2l1.34-1.71.48.21-1.45,1.81v-.15l1.59,3.34-.52-.22-1.44-3h0v2.42l-.38-.17v-5l.38.17v2.29Z"/><path class="cls-7" d="M105.25,128V123l.38.16v4.94Z"/><path class="cls-7" d="M108.55,129.35v-2.23l-1.68-.72v2.24l-.38-.16v-4.92l.38.16v2.13l1.68.72v-2.12l.38.16v4.9Z"/><path class="cls-7" d="M111.78,126.08a3.16,3.16,0,0,1,.48,1.08,5.54,5.54,0,0,1,.17,1.4,4.06,4.06,0,0,1-.17,1.27,1.11,1.11,0,0,1-.48.66.8.8,0,0,1-.74,0,1.78,1.78,0,0,1-.73-.62,3.16,3.16,0,0,1-.48-1.08,5.19,5.19,0,0,1-.17-1.41,3.79,3.79,0,0,1,.17-1.27,1.11,1.11,0,0,1,.48-.67.78.78,0,0,1,.73,0A1.7,1.7,0,0,1,111.78,126.08Zm-1.27-.06a.93.93,0,0,0-.34.53,3.08,3.08,0,0,0-.13,1,4.07,4.07,0,0,0,.13,1.09,2.53,2.53,0,0,0,.34.83,1.23,1.23,0,0,0,.53.47.57.57,0,0,0,.54,0,.89.89,0,0,0,.34-.53,3.36,3.36,0,0,0,.12-1,4.61,4.61,0,0,0-.12-1.09,2.62,2.62,0,0,0-.34-.83A1.27,1.27,0,0,0,111,126,.55.55,0,0,0,110.51,126Z"/><path class="cls-4" d="M54,245.83c0,19-2.88,37.71-5.59,56.47L4.61,304.05c2.69-17.22,5.56-34.43,5.56-51.86,0-6-.72-14.49-1.75-24.39l43.77-8.57C53.22,230,54,239.27,54,245.83Z"/><g class="cls-2"><path class="cls-7" d="M51.3,220.42C52.13,229.24,53,239,53,245.83c0,17.84-2.61,35.79-5.12,53.15l-.34,2.35L5.78,303l.29-1.83c2.51-16,5.1-32.5,5.1-49,0-6.5-.87-15.89-1.66-23.58l41.79-8.19m.89-1.19L8.42,227.8c1,9.9,1.75,18.37,1.75,24.39,0,17.43-2.87,34.64-5.56,51.86l43.75-1.75C51.07,283.54,54,264.81,54,245.83c0-6.56-.73-15.8-1.76-26.6Z"/><path class="cls-6" d="M54,245.83c0,19-2.88,37.71-5.59,56.47L4.61,304.05c2.69-17.22,5.56-34.43,5.56-51.86,0-6-.72-14.49-1.75-24.39l43.77-8.57C53.22,230,54,239.27,54,245.83Z"/></g><path class="cls-3" d="M116.21,271.71v-3.95a52.89,52.89,0,0,0-17.1-3.83,49.11,49.11,0,0,1,17.1-1.41,54.67,54.67,0,0,1,22,7.28Z"/><g class="cls-2"><path d="M116.21,271.71v-3.95a52.89,52.89,0,0,0-17.1-3.83,49.11,49.11,0,0,1,17.1-1.41,54.67,54.67,0,0,1,22,7.28Z"/></g><path class="cls-3" d="M136.35,365.32c-11.7-15.93-41.68-5.9-87.78,22.59-7.2-23.87-5.16-49.39-1.7-75,19.6-25.14,38.58-38.9,56.94-42.19a49.73,49.73,0,0,1,9.69-.77,52.39,52.39,0,0,1,23.15,6.2A278.66,278.66,0,0,1,136.35,365.32Z"/><path class="cls-7" d="M86.34,305.12l3.06.11a2.26,2.26,0,0,1,1.51.78,6.51,6.51,0,0,1,1.22,2,13.06,13.06,0,0,1,.83,2.8,17.9,17.9,0,0,1,.3,3.32,17.5,17.5,0,0,1-.3,3.29,13,13,0,0,1-.81,2.79,6.36,6.36,0,0,1-1.23,1.92,2.14,2.14,0,0,1-1.52.71H86.34Zm2.07,13.81h.48a1.43,1.43,0,0,0,1-.36,3.08,3.08,0,0,0,.71-1A6.43,6.43,0,0,0,91,316a11.74,11.74,0,0,0,.15-2A12.06,12.06,0,0,0,91,312.1a6.67,6.67,0,0,0-.45-1.57,2.92,2.92,0,0,0-.7-1,1.4,1.4,0,0,0-.94-.4l-.48,0Z"/><path class="cls-7" d="M96.55,317.63c0,1.79.37,2.68,1.12,2.69.39,0,.69-.36.9-1.09h1.75q-.52,4-2.66,4a1.87,1.87,0,0,1-1.21-.45,3.5,3.5,0,0,1-.94-1.28,8,8,0,0,1-.61-2,14.43,14.43,0,0,1-.22-2.58,15.27,15.27,0,0,1,.21-2.66,8.23,8.23,0,0,1,.58-2,3.43,3.43,0,0,1,.91-1.25,1.81,1.81,0,0,1,2.39.06,3.46,3.46,0,0,1,.88,1.31,8.6,8.6,0,0,1,.55,2.07,17.63,17.63,0,0,1,.19,2.75v.43Zm2.15-2.38a3.83,3.83,0,0,0-.38-1.4.83.83,0,0,0-.68-.54.79.79,0,0,0-.7.49,3.69,3.69,0,0,0-.34,1.42Z"/><path class="cls-7" d="M103.73,304.06v18.76h-1.79V304Z"/><path class="cls-7" d="M105.33,306.83a4.88,4.88,0,0,1,.08-.88,4,4,0,0,1,.22-.73,1.61,1.61,0,0,1,.32-.48.51.51,0,0,1,.38-.16.56.56,0,0,1,.39.19,1.77,1.77,0,0,1,.31.51,4.08,4.08,0,0,1,.22.74,4.91,4.91,0,0,1,.07.88,5,5,0,0,1-.07.89,4.09,4.09,0,0,1-.22.72,1.37,1.37,0,0,1-.31.48.5.5,0,0,1-.39.17A.56.56,0,0,1,106,309a1.54,1.54,0,0,1-.32-.51,4,4,0,0,1-.22-.73A5.11,5.11,0,0,1,105.33,306.83Zm1.89,4.49v11.51h-1.77V311.27Z"/><path class="cls-7" d="M110.37,311.4l1.16,5.88,1.18-5.82,1.91.06-2.52,11.31h-1.16l-2.53-11.48Z"/><path class="cls-7" d="M117,317.88c0,1.71.34,2.57,1,2.57.36,0,.64-.34.82-1h1.61q-.48,3.84-2.44,3.84a1.63,1.63,0,0,1-1.1-.43,3.42,3.42,0,0,1-.87-1.22,8,8,0,0,1-.55-1.9,14.19,14.19,0,0,1-.2-2.47,15,15,0,0,1,.19-2.54,8,8,0,0,1,.53-1.92,3.28,3.28,0,0,1,.84-1.2,1.55,1.55,0,0,1,1.1-.39,1.63,1.63,0,0,1,1.08.45,3.35,3.35,0,0,1,.81,1.26,8.9,8.9,0,0,1,.5,2,17.44,17.44,0,0,1,.18,2.63v.41Zm2-2.27a3.73,3.73,0,0,0-.34-1.34c-.17-.34-.38-.51-.63-.52a.7.7,0,0,0-.63.47,3.44,3.44,0,0,0-.31,1.35Z"/><path class="cls-7" d="M121.89,311.71l1.64,0v1.82a4.8,4.8,0,0,1,.64-1.51,1.05,1.05,0,0,1,.88-.51h.14a.35.35,0,0,1,.18.05v3.72a1,1,0,0,0-.7-.4c-.38,0-.66.26-.85.8a7.39,7.39,0,0,0-.29,2.36v4.76h-1.64Z"/><path class="cls-7" d="M128.48,321.36l-2.2-9.54,1.86.05,1.21,5.65,1.17-5.59,1.81.05-3.6,16.35-1.8,0Z"/><path class="cls-7" d="M60.58,322.75a17,17,0,0,1-1.69-2.81,12.78,12.78,0,0,1-1-2.73,8.24,8.24,0,0,1-.17-2.43,4.24,4.24,0,0,1,.63-1.94,2.38,2.38,0,0,1,1.29-1,2.6,2.6,0,0,1,1.66.11,6.42,6.42,0,0,1,1.9,1.22,13.68,13.68,0,0,1,2,2.28,16.57,16.57,0,0,1,1.65,2.79,12.07,12.07,0,0,1,.93,2.68,7.66,7.66,0,0,1,.18,2.39,4.39,4.39,0,0,1-.61,1.91,2.36,2.36,0,0,1-1.25,1.05,2.52,2.52,0,0,1-1.64-.07,5.92,5.92,0,0,1-1.9-1.16A13.5,13.5,0,0,1,60.58,322.75ZM62,320.51a12,12,0,0,0,1.09,1.3,5.69,5.69,0,0,0,1,.8,1.65,1.65,0,0,0,.81.26.69.69,0,0,0,.56-.35,1.42,1.42,0,0,0,.19-.84,3.93,3.93,0,0,0-.24-1.17,8.87,8.87,0,0,0-.61-1.38,12.53,12.53,0,0,0-1-1.51,11.81,11.81,0,0,0-1.08-1.3,5.91,5.91,0,0,0-1-.82,1.51,1.51,0,0,0-.82-.26.63.63,0,0,0-.56.33,1.43,1.43,0,0,0-.2.86,4,4,0,0,0,.24,1.17,8.62,8.62,0,0,0,.62,1.4A13.51,13.51,0,0,0,62,320.51Z"/><path class="cls-7" d="M66.46,302.4l.79,6.38,0,0a2.85,2.85,0,0,1,.16-.82,1.84,1.84,0,0,1,.21-.38,1.67,1.67,0,0,1,1-.66,2,2,0,0,1,1.2.17,4,4,0,0,1,1.26.92,7.48,7.48,0,0,1,1.18,1.58,9.34,9.34,0,0,1,.93,2.1,8.66,8.66,0,0,1,.4,2.14,6.78,6.78,0,0,1-.18,2,4.63,4.63,0,0,1-.81,1.72,2.67,2.67,0,0,1-1.25,1,2.17,2.17,0,0,1-1.38,0,3.52,3.52,0,0,1-1.38-.84,6.87,6.87,0,0,1-1.25-1.58,13.68,13.68,0,0,1-1.17-2.64,18.71,18.71,0,0,1-.79-3.39l-.76-5.42Zm2.42,11.73a3.28,3.28,0,0,0,.57.71,1.71,1.71,0,0,0,.6.39,1,1,0,0,0,.58,0,.82.82,0,0,0,.47-.32,1.52,1.52,0,0,0,.28-.66,3.45,3.45,0,0,0,0-.86,4.71,4.71,0,0,0-.18-.94,4.18,4.18,0,0,0-.41-.92,2.75,2.75,0,0,0-.56-.71,1.9,1.9,0,0,0-.6-.4,1.07,1.07,0,0,0-.58-.06.84.84,0,0,0-.48.33,1.59,1.59,0,0,0-.28.66,3.45,3.45,0,0,0,0,.86,4.61,4.61,0,0,0,.19.94A4,4,0,0,0,68.88,314.13Z"/><path class="cls-7" d="M73.49,304.51c-.94.09-1.76-.58-2.44-2a7.64,7.64,0,0,1-.6-1.76,7,7,0,0,1-.13-1.68,4.55,4.55,0,0,1,.3-1.5,3.5,3.5,0,0,1,.75-1.18,2.08,2.08,0,0,1,1-.62,1.59,1.59,0,0,1,1.05.09,3.06,3.06,0,0,1,1,.78,5.43,5.43,0,0,1,.9,1.42,8.79,8.79,0,0,1,.41,1,4.69,4.69,0,0,1,.2,1,5.57,5.57,0,0,1,0,1,7,7,0,0,1-.2,1.1c1.19-.15,2.16.58,2.92,2.2a7.64,7.64,0,0,1,.58,1.79,7.38,7.38,0,0,1,.11,1.8,5.83,5.83,0,0,1-.34,1.64,3.94,3.94,0,0,1-.8,1.31,2.34,2.34,0,0,1-1.07.7,1.81,1.81,0,0,1-1.15,0,2.91,2.91,0,0,1-1.12-.74,5.81,5.81,0,0,1-1-1.44A6.4,6.4,0,0,1,73.49,304.51Zm-1-3.5a1.91,1.91,0,0,0,.72.89.51.51,0,0,0,.7-.07.84.84,0,0,0,.21-.41,1.69,1.69,0,0,0,.06-.56,2.87,2.87,0,0,0-.08-.64,2.77,2.77,0,0,0-.22-.63,1.89,1.89,0,0,0-.7-.86.51.51,0,0,0-.71.06,1.29,1.29,0,0,0-.28.95A2.89,2.89,0,0,0,72.53,301Zm2.83,6.17a3.12,3.12,0,0,0,.37.59,1.54,1.54,0,0,0,.41.37.68.68,0,0,0,.4.11.5.5,0,0,0,.36-.18,1,1,0,0,0,.22-.43,2.4,2.4,0,0,0,.07-.62,4.36,4.36,0,0,0-.09-.69,3.43,3.43,0,0,0-.25-.7,2,2,0,0,0-.77-.95.57.57,0,0,0-.75.07,1.42,1.42,0,0,0-.3,1A3.41,3.41,0,0,0,75.36,307.18Z"/><path class="cls-7" d="M83.91,293.56a.35.35,0,0,0,.12-.07l.08-.06a1,1,0,0,0,.39-.81,3,3,0,0,0-.16-1.26,2.24,2.24,0,0,0-.54-1,.47.47,0,0,0-.63-.07,1,1,0,0,0-.35.84,3.7,3.7,0,0,0,.2,1.37l-1.6,1.13A12.77,12.77,0,0,1,81,291.4a9.2,9.2,0,0,1,0-1.9,4.52,4.52,0,0,1,.42-1.47,2.61,2.61,0,0,1,.82-1,1.56,1.56,0,0,1,1-.32,1.73,1.73,0,0,1,1,.39,3.85,3.85,0,0,1,.88,1.06,8.29,8.29,0,0,1,.73,1.68,7.47,7.47,0,0,1,.38,1.87,5.46,5.46,0,0,1-.13,1.53,1.56,1.56,0,0,1,1.19.71,6.28,6.28,0,0,1,1,2,9.44,9.44,0,0,1,.45,2.13,7.72,7.72,0,0,1,0,1.93,5.48,5.48,0,0,1-.49,1.59,3.18,3.18,0,0,1-.93,1.11,1.77,1.77,0,0,1-1.58.34A3.26,3.26,0,0,1,84,301.72a6.59,6.59,0,0,1-.64-1.13c-.18-.41-.34-.84-.49-1.28l1.71-1.24a3.06,3.06,0,0,0,.78,1.38.65.65,0,0,0,.86.05,1.27,1.27,0,0,0,.48-1,4.18,4.18,0,0,0-.23-1.51,2.42,2.42,0,0,0-.72-1.26.58.58,0,0,0-.76-.06.75.75,0,0,0-.16.15l-.15.19Z"/><path class="cls-7" d="M92.44,285.45l-2.33,1.21.3,1.75.28-.23A1.24,1.24,0,0,1,91,288a1.26,1.26,0,0,1,1-.09,2.32,2.32,0,0,1,1,.71,6,6,0,0,1,.9,1.44,11,11,0,0,1,.7,2.06,11.83,11.83,0,0,1,.34,2.32,8.76,8.76,0,0,1-.15,2,4.45,4.45,0,0,1-.63,1.54,2.92,2.92,0,0,1-1.06,1,2.29,2.29,0,0,1-1.23.3,2.57,2.57,0,0,1-1.28-.45L89.94,295a3.77,3.77,0,0,0,1.24.84,1.2,1.2,0,0,0,1,0,1.45,1.45,0,0,0,.69-1.11,4.24,4.24,0,0,0-.09-1.79,2.9,2.9,0,0,0-.86-1.61,1.08,1.08,0,0,0-1.27-.11,2.31,2.31,0,0,0-.59.48,3.73,3.73,0,0,0-.52.82l-1.45-8.56,3.54-1.81Z"/><path class="cls-7" d="M97,287.75c-.83-.42-1.38-1.43-1.67-3a9.45,9.45,0,0,1-.14-1.86,6.47,6.47,0,0,1,.23-1.54,3.36,3.36,0,0,1,.58-1.15,2,2,0,0,1,.89-.63,1.47,1.47,0,0,1,1,0,2.07,2.07,0,0,1,.88.63,4.76,4.76,0,0,1,.7,1.21,7.4,7.4,0,0,1,.48,1.71,10.36,10.36,0,0,1,.14,1.12,4.82,4.82,0,0,1,0,.94,4.25,4.25,0,0,1-.21.87,5.15,5.15,0,0,1-.4.87c1,.48,1.74,1.64,2,3.46a8.12,8.12,0,0,1,.13,1.88,6.31,6.31,0,0,1-.28,1.65,3.93,3.93,0,0,1-.64,1.26,2.19,2.19,0,0,1-1,.74,1.58,1.58,0,0,1-1.07,0,2.19,2.19,0,0,1-1-.64,4.22,4.22,0,0,1-.81-1.25,7.54,7.54,0,0,1-.52-1.77A5.93,5.93,0,0,1,97,287.75Zm-.09-3.56a2.82,2.82,0,0,0,.43,1.15c.2.28.41.39.62.31a.5.5,0,0,0,.27-.25,1.46,1.46,0,0,0,.16-.46,3.78,3.78,0,0,0,.07-.61,3.66,3.66,0,0,0-.06-.65,2.73,2.73,0,0,0-.42-1.13c-.2-.29-.41-.39-.62-.32s-.36.3-.44.68A3.22,3.22,0,0,0,96.88,284.19ZM98,291.08a4.72,4.72,0,0,0,.19.72,3.37,3.37,0,0,0,.28.54,1,1,0,0,0,.32.31.4.4,0,0,0,.35,0,.65.65,0,0,0,.28-.27,1.69,1.69,0,0,0,.18-.51,2.73,2.73,0,0,0,.07-.66,3.25,3.25,0,0,0-.06-.75,3,3,0,0,0-.47-1.23q-.33-.45-.66-.33c-.22.08-.38.33-.47.75A3.41,3.41,0,0,0,98,291.08Z"/><path class="cls-7" d="M107.33,284.88A4.43,4.43,0,0,1,106,281.6a9,9,0,0,1,0-1.81,5.66,5.66,0,0,1,.34-1.43,2.63,2.63,0,0,1,.65-1,1.59,1.59,0,0,1,.89-.43,1.5,1.5,0,0,1,1,.19,2.3,2.3,0,0,1,.78.8,4.89,4.89,0,0,1,.58,1.3,8.41,8.41,0,0,1,.32,1.75,8.56,8.56,0,0,1,0,1.1,5.06,5.06,0,0,1-.1.9,3.77,3.77,0,0,1-.27.8,4.44,4.44,0,0,1-.45.74,4.86,4.86,0,0,1,1.68,3.77,8,8,0,0,1,0,1.84,5.9,5.9,0,0,1-.39,1.53,3.49,3.49,0,0,1-.71,1.09,1.83,1.83,0,0,1-1,.51,1.55,1.55,0,0,1-1-.18,2.66,2.66,0,0,1-.89-.83,5,5,0,0,1-.67-1.37,7.54,7.54,0,0,1-.35-1.82A5.39,5.39,0,0,1,107.33,284.88Zm.2-3.45a3.1,3.1,0,0,0,.32,1.2c.17.31.36.46.56.43a.43.43,0,0,0,.28-.19,1.2,1.2,0,0,0,.19-.41,2.22,2.22,0,0,0,.11-.56,3.53,3.53,0,0,0,0-.65,3,3,0,0,0-.31-1.17c-.17-.32-.36-.46-.56-.43s-.37.21-.48.56A3.14,3.14,0,0,0,107.53,281.43Zm.53,6.88a5.27,5.27,0,0,0,.13.73,2.6,2.6,0,0,0,.22.58,1.11,1.11,0,0,0,.29.37.37.37,0,0,0,.32.1.42.42,0,0,0,.29-.2,1.35,1.35,0,0,0,.22-.45,2.64,2.64,0,0,0,.12-.61,4.57,4.57,0,0,0,0-.74,3.28,3.28,0,0,0-.35-1.29c-.19-.34-.39-.49-.6-.46s-.4.24-.52.63A3.55,3.55,0,0,0,108.06,288.31Z"/><path class="cls-7" d="M113.72,280.34l-1,0-.14-3.39,2.64,0,.66,15.29-1.69.08Z"/><path class="cls-7" d="M123.76,280.9l-.92-.14.07-3.3,2.53.4-.29,14.92-1.62-.2Z"/><path class="cls-7" d="M131.84,282.53l-2.1-.5-.18,1.59h.27l.25,0a1.52,1.52,0,0,1,.83.59,4.22,4.22,0,0,1,.62,1.22,8.8,8.8,0,0,1,.35,1.73,13.21,13.21,0,0,1,.06,2.11,11.2,11.2,0,0,1-.29,2.1,5.6,5.6,0,0,1-.59,1.51,2.33,2.33,0,0,1-.85.86,1.59,1.59,0,0,1-1.08.13,2.34,2.34,0,0,1-1-.54,4.45,4.45,0,0,1-.89-1.19l.42-3.55a6.28,6.28,0,0,0,.77,1.46,1.45,1.45,0,0,0,.77.62c.33.07.59-.09.8-.47a3.45,3.45,0,0,0,.36-1.5,3.92,3.92,0,0,0-.29-1.85,1.45,1.45,0,0,0-.95-.9,1.27,1.27,0,0,0-.58,0,1.5,1.5,0,0,0-.6.33l.92-7.79,3.17.78Z"/><path class="cls-10" d="M71.07,356.18l-10.55.7c-1.82.12-3.33-2-3.33-4.66V336.38c0-2.67,1.51-4.89,3.33-4.92l10.55-.17c1.74,0,3.15,2.07,3.15,4.66v15.31C74.22,353.85,72.81,356.07,71.07,356.18Z"/><path class="cls-10" d="M90.65,354.89l-9.72.64c-1.69.11-3.07-1.9-3.07-4.47v-15.2c0-2.57,1.38-4.69,3.07-4.72l9.72-.16c1.6,0,2.91,2,2.91,4.48v14.71C93.56,352.66,92.25,354.78,90.65,354.89Z"/><path class="cls-10" d="M108.74,353.69l-9,.6c-1.55.1-2.84-1.84-2.84-4.31v-14.6c0-2.47,1.29-4.51,2.84-4.54l9-.14c1.49,0,2.7,1.92,2.7,4.31v14.15C111.44,351.56,110.23,353.6,108.74,353.69Z"/><path class="cls-10" d="M125.56,352.59l-8.34.55c-1.44.09-2.63-1.78-2.63-4.15V334.93c0-2.38,1.19-4.34,2.63-4.37l8.34-.13c1.38,0,2.5,1.85,2.5,4.16v13.64C128.06,350.53,126.94,352.49,125.56,352.59Z"/><path class="cls-11" d="M72.39,352.35c0,1.07-2.91,2.12-6.54,2.34s-6.73-.47-6.73-1.57,3-2.15,6.73-2.36S72.39,351.28,72.39,352.35Z"/><path class="cls-12" d="M70.34,344.43c0-.53,0-1.06,0-1.59,0-1.22-2-2.14-4.5-2.06s-4.58,1.17-4.58,2.41c0,4.9,0,9.81,4.58,9.54l.32,0a4.34,4.34,0,0,0,1.62-.49h0a4.29,4.29,0,0,0,2-2.66C72.34,347.2,72.91,344.1,70.34,344.43Zm-4.49,0c-2.1.09-3.81-.47-3.81-1.25s1.71-1.47,3.81-1.55,3.76.49,3.76,1.26S67.93,344.32,65.85,344.41ZM70,348.6a19.71,19.71,0,0,0,.32-3.56C72,345.07,71.74,346.36,70,348.6Z"/><path class="cls-10" d="M69.61,342.87c0,.76-1.68,1.45-3.76,1.54S62,343.94,62,343.16s1.71-1.47,3.81-1.55S69.61,342.1,69.61,342.87Z"/><path class="cls-13" d="M65.37,339.88c-.5-.88,1.5-3.12.95-3.93C67.63,337.86,65,339.19,65.37,339.88Z"/><path class="cls-13" d="M63.69,339.22c-.32-.56,1-2,.61-2.51C65.15,337.93,63.47,338.78,63.69,339.22Z"/><path class="cls-13" d="M67.48,339.11c-.31-.55,1-2,.6-2.49C68.91,337.83,67.26,338.67,67.48,339.11Z"/><path class="cls-14" d="M64.43,351.63c-1.09.06-2.18-3.06-2.18-5.12a.92.92,0,0,0,1.09.36A8.62,8.62,0,0,0,64.43,351.63Z"/><path class="cls-13" d="M86.19,341.34c0,.3-.16.54-.35.55s-.35-.23-.35-.52.15-.55.35-.55S86.19,341.05,86.19,341.34Z"/><path class="cls-13" d="M87.1,339.89v.78l-.5,0h0c-.15-.41-.44-.68-.76-.67s-.62.3-.77.73h0l-.51,0V340a1.57,1.57,0,0,1,1.28-1A1.43,1.43,0,0,1,87.1,339.89Z"/><path class="cls-13" d="M88,338.53v.76h-.49a1.9,1.9,0,0,0-1.64-1.17,2.05,2.05,0,0,0-1.65,1.29h-.51v-.76a2.67,2.67,0,0,1,2.16-1.61A2.48,2.48,0,0,1,88,338.53Z"/><path class="cls-13" d="M88.82,337.18v.76h-.49a2.88,2.88,0,0,0-2.49-1.69,3.13,3.13,0,0,0-2.53,1.85h-.5v-.76a3.78,3.78,0,0,1,3-2.18A3.48,3.48,0,0,1,88.82,337.18Z"/><path class="cls-13" d="M89.68,335.83v.76h-.49a3.93,3.93,0,0,0-3.35-2.22,4.25,4.25,0,0,0-3.41,2.41l-.5,0V336a4.88,4.88,0,0,1,3.91-2.74A4.55,4.55,0,0,1,89.68,335.83Z"/><path class="cls-13" d="M89.43,349.43l-7.24.39c-.84.05-1.53-1-1.53-2.25v-1.69c0-1.28.69-2.36,1.53-2.39l7.24-.3c.82,0,1.48,1,1.48,2.22v1.65C90.91,348.32,90.25,349.38,89.43,349.43Z"/><path d="M82.58,348.44l-.28,0-.67-3H82l.49,2.46h0l.55-2.51h.3l.55,2.45h0l.49-2.5.31,0L84,348.37l-.28,0L83.16,346h0Z"/><path d="M85.14,345.67a.21.21,0,0,1,0-.16.24.24,0,0,1,0-.16.16.16,0,0,1,.26,0,.25.25,0,0,1,0,.16.3.3,0,0,1,0,.16.16.16,0,0,1-.13.07A.12.12,0,0,1,85.14,345.67Zm0,.46h.29v2.18h-.29Z"/><path d="M86,347.21v-.34l1.08-.05v.34Z"/><path d="M87.65,348.18v-3l1.44-.07v.34l-1.14.05v1l1,0v.33l-1,.05v1.31Z"/><path d="M89.59,345.47a.28.28,0,0,1,0-.32.14.14,0,0,1,.12-.07.12.12,0,0,1,.13.06.2.2,0,0,1,0,.15.25.25,0,0,1,0,.17.17.17,0,0,1-.13.07A.16.16,0,0,1,89.59,345.47Zm0,.45h.29v2.16h-.29Z"/><path class="cls-13" d="M83,353.78v-2.29l1.1-.06v.26l-.88.05v.78l.81,0v.26l-.81,0v1Z"/><path class="cls-13" d="M84.66,353.67h-.23v-2.27l.68,0a.48.48,0,0,1,.3.07.43.43,0,0,1,.2.22.78.78,0,0,1,.08.35.93.93,0,0,1-.1.42.57.57,0,0,1-.27.26l.42.91-.26,0-.39-.88-.43,0Zm0-1.15.43,0a.32.32,0,0,0,.27-.13.49.49,0,0,0,.09-.32.51.51,0,0,0-.09-.32.37.37,0,0,0-.28-.1l-.42,0Z"/><path class="cls-13" d="M87.22,353.51l-1.11.07v-2.27l1.11-.06v.25l-.88.05v.73l.84,0v.25l-.84,0v.78l.88-.05Z"/><path class="cls-13" d="M88.75,353.41l-1.1.07v-2.26l1.1-.06v.25l-.88,0v.73l.84-.05v.25l-.84.05v.78l.88-.06Z"/><path class="cls-15" d="M109.6,341c-.39,0-.8,1-1.46,1-.32,0-.47-1.11-1-1.4a6.38,6.38,0,0,0,.14-1.33c0-2.29-1.15-4.11-2.59-4.08s-2.61,1.94-2.61,4.25a5.5,5.5,0,0,0,.63,2.68l-.93.48a4.52,4.52,0,0,0,.3-1.64c0-1.69-.86-3-1.93-3s-2,1.44-2,3.14A3,3,0,0,0,99.71,344a1.1,1.1,0,0,0-.41.68v4.55c0,.34.22.66.43.65l7.73-.44c.2,0,.41-.35.41-.68V345c0-.22.14-.44.27-.45.66,0,1.07.89,1.46.87l.58,0v-4.43Zm-9.41,2.33c-.8,0-1.45-1-1.45-2.25s.65-2.31,1.45-2.34,1.44,1,1.44,2.24S101,343.24,100.19,343.28Zm6.46-2.66c-.32,1.19-1.06,2-1.92,2.07a1.72,1.72,0,0,1-1.45-.87,4.37,4.37,0,0,1-.67-2.44c0-1.88,1-3.43,2.12-3.46s2.11,1.45,2.11,3.31A5.19,5.19,0,0,1,106.65,340.62Z"/><path class="cls-16" d="M100.65,341c0,.41-.2.74-.46.75s-.46-.31-.46-.71.21-.74.46-.75S100.65,340.56,100.65,341Z"/><path class="cls-16" d="M105.56,339.27c0,.73-.37,1.34-.83,1.36s-.82-.57-.82-1.3.37-1.34.82-1.35S105.56,338.54,105.56,339.27Z"/><polygon class="cls-17" points="119.26 339.94 115.72 340.07 115.72 335.98 119.26 335.88 119.26 339.94"/><path class="cls-15" d="M118.45,345.44c-.67,0-1.21,1-1.21,2.06s.54,2,1.21,1.94,1.21-1,1.21-2.07S119.12,345.41,118.45,345.44Zm0,3.25c-.42,0-.76-.52-.76-1.21s.34-1.27.76-1.29.76.52.76,1.21S118.87,348.66,118.45,348.69Z"/><path class="cls-16" d="M118.68,347.43c0-.21-.1-.37-.23-.37s-.22.18-.22.39.1.37.22.37S118.68,347.63,118.68,347.43Z"/><path class="cls-15" d="M124.36,345.15c-.65,0-1.18,1-1.18,2s.53,1.94,1.18,1.91,1.18-1,1.18-2S125,345.12,124.36,345.15Zm0,3.21c-.41,0-.74-.51-.74-1.2s.33-1.25.74-1.27.74.51.74,1.19S124.77,348.33,124.36,348.36Z"/><path class="cls-16" d="M124.58,347.11c0-.2-.1-.36-.22-.36s-.22.18-.22.39.1.36.22.35S124.58,347.32,124.58,347.11Z"/><path class="cls-13" d="M126.06,345.52l-.54,0a1.32,1.32,0,0,0-1.16-.9c-.71,0-1.3.89-1.44,2l-3,.16c-.15-1.11-.76-1.92-1.48-1.88s-1.33.9-1.48,2l-.49,0c0-4.2-.47-2.87-.47-6.5l3.31-.13.14.88,1.1-.05a1,1,0,0,1,0,.87c-.3,0-.6.13-.6.76,0,1.26.21,3,.42,3l1.79-.09c.49,0,1.31-1.49,1.31-2l-.48-3.75-.68.53-.17-.64,1-.78.13.66.76,3.79A2.17,2.17,0,0,1,126.06,345.52Z"/><path class="cls-3" d="M116.21,260V248.3c-16.73-24.11-39.76-37.9-71.36-39l-14.57,3.17v4.14a116.47,116.47,0,0,0-23.18-1l43.77-9.69c41.17-1.5,68.75,17.31,87.15,51.75Z"/><g class="cls-5"><path d="M116.21,260V248.3c-16.73-24.11-39.76-37.9-71.36-39l-14.57,3.17v4.14a116.47,116.47,0,0,0-23.18-1l43.77-9.69c41.17-1.5,68.75,17.31,87.15,51.75Z"/></g><path class="cls-3" d="M138.26,269.8a54.67,54.67,0,0,0-22-7.28,49.11,49.11,0,0,0-17.1,1.41h0c-16.42,4.24-33.34,16.81-50.74,38.37C51.07,283.54,54,264.81,54,245.83c0-6.56-.73-15.8-1.76-26.6C93.31,215.61,120.48,234.19,138.26,269.8Z"/><path class="cls-18" d="M73.18,226.94c-1,1.33-3.16,2.07-5.79,1.95a4.12,4.12,0,0,1-1.06,2.7l0,0a1.41,1.41,0,0,0,0,1.38,1.69,1.69,0,0,0-.81-.45,1.15,1.15,0,0,0-.81.16c.25-.17.25-1,0-1.37l0-.06a5.85,5.85,0,0,1-1.07-3.11,11.3,11.3,0,0,1-6-4.29l6.68,1.31c.43.08.43-.69,0-.78l-.45-.09c-.38-.07-.69-.59-.69-1.15s.31-1,.69-.88l3.37.68c.38.07.68.59.68,1.14s-.3.95-.68.88l-.44-.09c-.43-.08-.43.69,0,.77Z"/><path class="cls-19" d="M74.49,249.48c0,10.2-.65,20.33-9,19.43-9.86-1.07-10.4-16-2-14.82,9.24,1.27,12.77-16.26,1-18.32-4.74-.82-4.51,6.74.67,14.8"/><path class="cls-20" d="M67.19,235.36c0,1.38-.75,2.36-1.69,2.2s-1.7-1.41-1.7-2.79.77-2.37,1.7-2.2S67.19,234,67.19,235.36Z"/><path class="cls-7" d="M76.15,248.4a1.65,1.65,0,0,1,.63,0,2.42,2.42,0,0,1,1.58,1c.78,1.12,2.1,2.88,3.26,3a1,1,0,0,0,1-.34,1.19,1.19,0,0,0,0-1.31c-1.43-2-4.21-4.08-4.21-7.27a9.87,9.87,0,0,1,4.91-8.29,2.18,2.18,0,0,1,1.51-.24,1.8,1.8,0,0,1,1.2.86,8,8,0,0,1,1,2.84,5.41,5.41,0,0,1-.58,3.07c-.47.91-1,2.42-1.31,3.11-.18.47-.39.68-.77,0a3.46,3.46,0,0,1-.47-1.75,7.35,7.35,0,0,1,.9-3.06c.49-1.06,1-2.33.75-2.68-.73-1-5.07,2.83-5.17,6.41-.06,2.05,2.67,4.25,3.44,5.24a2.8,2.8,0,0,1,.59,1.66,4.72,4.72,0,0,1-.77,2.37,2.59,2.59,0,0,1-2.68,1.2c-1.46-.21-3.41-1.77-5-4.87C75.72,248.84,75.86,248.51,76.15,248.4Z"/><path class="cls-7" d="M91.43,255.62c-1.26-.18-1.84-1.28-1.84-2.87a17.9,17.9,0,0,1,1.67-6.13c.37-.94.65-1.63.52-1.65a9.42,9.42,0,0,0-3,4.07,49,49,0,0,0-1.82,5.41c-.16.53-.45.58-.68.09s-.59-1.41-.1-3.38a119.52,119.52,0,0,1,6.15-15.63c.31-.55.59-.38.76.26a4.38,4.38,0,0,1,.15,1.18,9,9,0,0,1-.68,3.1c-.38.94-1.56,3.58-1.76,4a2.25,2.25,0,0,1,1.61-.77c.55.1,1.1,1.13,1.1,2.32a3.51,3.51,0,0,1-.21,1.24c-1,2.81-1.52,4-1.73,4.72a7.15,7.15,0,0,0-.25,1.76c0,.64.1,1.05.36,1.09.67.1,1.68-1.91,2.25-3.68.13-.43.43-.45.58.09a3.43,3.43,0,0,1,0,2C93.89,254.45,92.65,255.79,91.43,255.62Z"/><path class="cls-7" d="M96.18,256.26c-1.15-.16-1.66-1.29-1.66-2.81a10.11,10.11,0,0,1,.23-2,43.28,43.28,0,0,1,2.36-6.82c.28-.55.5-.57.74-.08a4.55,4.55,0,0,1,0,3.4c-.35,1.24-1.21,3.36-1.53,4.52a8.12,8.12,0,0,0-.26,1.78c0,.48.08.76.28.79.75.11,1.72-1.76,2.29-3.72.15-.52.39-.42.56.14a3.57,3.57,0,0,1-.09,2C98.56,255.34,97.28,256.42,96.18,256.26Zm2.38-15c.52.09,1,1.26,1,2.13s-.28,1.45-.74,1.37-1.1-1.08-1.1-2S98.13,241.21,98.56,241.28Z"/><path class="cls-7" d="M99.58,250.15c.37-.45.65-.25.7.47.61-1.31,1.25-2.76,1.73-4a3.59,3.59,0,0,1,.71-2.21,1,1,0,0,1,.89-.47c.49.08.6.76,0,2.17,0,.36,0,.86,0,1.25,0,2.11.23,4.07.2,5.67a8.45,8.45,0,0,1-.31,2.19,5.78,5.78,0,0,0,1.57-3c.17-.66.44-.41.56.08a3.61,3.61,0,0,1-.18,2c-.68,2-2,2.92-3.32,2.81-1.09-.1-2.2-.73-2.82-2.71a6.4,6.4,0,0,1-.32-2A3.78,3.78,0,0,1,99.58,250.15Zm2.48,2.15c0-1,0-1.91,0-2.72-.44,1.06-1,2.27-1.51,3.47.22,1.44.61,2.54,1,2.6S102.06,254.24,102.06,252.3Z"/><path class="cls-7" d="M110.22,258.3c-1.16-.17-1.69-1.22-1.69-2.75a17.39,17.39,0,0,1,1.54-5.89c.33-.91.59-1.57.47-1.59a8.9,8.9,0,0,0-2.78,3.92,46,46,0,0,0-1.68,5.21c-.14.51-.41.56-.63.09s-.54-1.35-.09-3.24A117.82,117.82,0,0,1,111,239c.28-.54.55-.37.71.24a5,5,0,0,1,.14,1.14,9,9,0,0,1-.64,3c-.35.9-1.44,3.44-1.62,3.82a2.07,2.07,0,0,1,1.48-.75c.51.09,1,1.08,1,2.22a3.41,3.41,0,0,1-.19,1.19c-1,2.71-1.41,3.87-1.6,4.55a7,7,0,0,0-.23,1.69c0,.62.09,1,.34,1,.61.09,1.54-1.84,2.06-3.54.13-.42.41-.44.55.08a3.6,3.6,0,0,1-.06,1.89C112.49,257.16,111.35,258.46,110.22,258.3Z"/><path class="cls-7" d="M117.86,247.43c.62.11,1,.69,1.14,1.46l.32-.84c.21-.54.49-.52.7-.08a5.08,5.08,0,0,1,0,3.32c-.44,1.51-1.87,4.42-1.87,6.35,0,.43.07.7.24.73.61.08,1.46-1.74,2-3.52.18-.54.33-.55.5.08a3.81,3.81,0,0,1-.07,1.85c-.43,1.51-1.52,2.87-2.55,2.72-.85-.12-1.35-.94-1.49-2-.49.74-1.27,1.52-2,1.43-1-.15-1.57-1.48-1.57-3.2a10.57,10.57,0,0,1,.93-4.18C115.58,248.41,117,247.28,117.86,247.43Zm-.59,6.36a14,14,0,0,0,1-4c0-.35,0-.56-.21-.58-.34-.06-1.52,1.56-2.39,3.8a11,11,0,0,0-.81,3.7c0,.52.06.88.24.9C115.64,257.74,116.43,256.09,117.27,253.79Z"/><path class="cls-20" d="M65.74,254c1.41.46,2.51,3.22,2.51,6.39,0,2.71,1.21,4.91,2.28,7.23a14.07,14.07,0,0,1,1.59,6c0,2.11-2.94,3.55-6.62,3.21s-6.8-2.39-6.8-4.56a12,12,0,0,1,1.66-5.8c1.12-2.12,2.37-4.06,2.37-6.81,0-3.38,1.24-5.95,2.77-5.74l.23,0Z"/><path class="cls-18" d="M66.67,251.08c0,1.34-1,2.72-.66,3.06a1.36,1.36,0,0,0-.51-.18,1.26,1.26,0,0,0-.51,0c.39-.23-.67-1.9-.67-3.25s1.09-2.73.48-3a.2.2,0,0,0-.08,0,3.08,3.08,0,0,1-2-2.7c0-2.84,2.6-7.13,2.12-7.71a1.43,1.43,0,0,0,.65.3,1.1,1.1,0,0,0,.65-.08c-.48.42,2.1,5.54,2.1,8.35a2.09,2.09,0,0,1-2,2.08H66.2C65.59,248,66.67,249.75,66.67,251.08Z"/><path class="cls-19" d="M60.36,266.51a8.55,8.55,0,0,0,5.14,2.4,6.48,6.48,0,0,0,5-1.28"/><path class="cls-20" d="M76,238.88c0,.32-.28.56-.71.64h0c-.29,0-.29,1.14,0,1.19l-1.53-.26c.29.05.29-1,0-1.19h0a1.16,1.16,0,0,1-.71-.89c0-.5.66-.78,1.48-.64S76,238.38,76,238.88Z"/><path class="cls-18" d="M75,235.54v2.32a3.62,3.62,0,0,0-.47-.13,2.74,2.74,0,0,0-.48,0v-2.32c0-.39.22-.67.48-.62A.77.77,0,0,1,75,235.54Z"/><path class="cls-18" d="M75.7,241.33l-2.43-.41c-.28,0-.28-.59,0-.55l2.43.41C76,240.83,76,241.37,75.7,241.33Z"/><path class="cls-18" d="M75.7,247.36,73.27,247c-.28,0-.28-.59,0-.55l2.43.38C76,246.85,76,247.4,75.7,247.36Z"/><path class="cls-18" d="M75.7,249.55l-2.43-.37c-.28,0-.28-.59,0-.55l2.43.37C76,249,76,249.59,75.7,249.55Z"/><path class="cls-20" d="M75.25,246.74l-1.53-.24a15.87,15.87,0,0,0,0-5.5l1.53.25A16.06,16.06,0,0,0,75.25,246.74Z"/><path class="cls-20" d="M75.25,248.93l-1.53-.23a1.84,1.84,0,0,0,0-1.65l1.53.24A1.82,1.82,0,0,0,75.25,248.93Z"/><polygon class="cls-7" points="116.21 159.72 116.21 158.84 44.85 132.79 44.85 131.43 58.41 126.47 132.65 155.21 116.21 159.72"/><g class="cls-2"><polygon points="116.21 159.72 116.21 158.84 44.85 132.79 44.85 131.43 58.41 126.47 132.65 155.21 116.21 159.72"/></g><polygon class="cls-7" points="58.41 0 58.41 126.47 14.62 142.48 14.62 26.3 58.41 0"/><path class="cls-3" d="M138,257.69c-18.4-34.44-46-53.25-87.15-51.75C46.35,161.58,39.8,100.87,53.39,89.43a7.8,7.8,0,0,1,4.2-1.84v39.69l44.52,17.14C124.43,168.93,135.88,206.23,138,257.69Z"/><g id="Perspective_Text" data-name="Perspective Text"><path class="cls-7" d="M64.36,154.92,64.25,156l-.35.5.05.45a2.33,2.33,0,0,0-.42.19l-.06,0c0,.29-.15.44-.31.45a1.29,1.29,0,0,1-.88.59c-.19.36-.4.55-.65.54l-.29.21-.45,0-.22.21-.11,0a.63.63,0,0,1-.24.21l-.22.25-.51-.05-.24.32-.93.22a3.42,3.42,0,0,0-.54,0l-.42.51a1,1,0,0,0-.42-.18H56.9l-.14.12-.29.08-.18.19-.15,0,.31.64-.07.86.3,1.16.08.8.12.32c.33.1.52.42.58,1a1.05,1.05,0,0,1-.72,1.14l-.61.26-.83-1.36-.45-1.46-.13-1.33-.41-.9.19-.37-.11-.42v-.28a5,5,0,0,1-.93-.27l-1-1.76H54.2l0-.36.09-.4,0-1.47.11-.2-.2-1.35v-.55l-.19-1.91.2-.78,0-.06,0-.11a.93.93,0,0,1,.29-.66l.5,0,.16,0a1.21,1.21,0,0,1,1.1,1.24,3.5,3.5,0,0,1-.19,1.23v.17a2.7,2.7,0,0,0,.43,1.13l-.3.1.09.88-.31.32.16.5-.12.51.13.67,0,.31,0,.32.15-.12.45,0a.87.87,0,0,1,.71-.34l.27-.38A1.07,1.07,0,0,0,58,158c.15-.1.42-.25.8-.47l.28,0,.33-.31.18,0v-.07l.16,0a.84.84,0,0,0,.76-.33l.49,0v-.17l.29-.18.12-.29a.77.77,0,0,0,.23.06l.14-.57c.07-.08.12-.12.17-.12s.07.06.1.15a.51.51,0,0,1,.28-.28v-.17l.14-.15v-.28l-.16-.46-.21-.33L62,154l-.48-.6-.88-.58a9.55,9.55,0,0,0-1.11-.92l-.33.29-.69-.67H58l-.37-.35-.36,0-.35-.31H56.8l-.11,0a1.11,1.11,0,0,1-.59-.34l-.56-.19-.4,0-.46-.26-.46.12-.08-.08-.32.14-.29-.18v.14l-.55-.06-.38.31-.47.06-.58.4-.51-.94a4,4,0,0,1-.42-1.46l.21-.4c0-.4.16-.63.43-.7l.82-.24.19,0,.1.05.16.06,0,.12.46-.15H53l.2,0a.9.9,0,0,1,.46.27l.92.11.69.16,1.28.43.38.43.31-.1.61.31.67.09.12.22.47.05.56.55.5.13.14.26a1.42,1.42,0,0,1,.85.55l.43-.09.25.71.27.31.38,0,.35.69.92.86,0,.52Z"/><path class="cls-7" d="M69.94,145.41a.73.73,0,0,1-.31.65v.07c-.26.44-.48.67-.68.69l-.31.52-.19.39-.5.06-.2.43-.34.19-.53.65-.37-.6,0-.83.22-.55a.88.88,0,0,1,.31-.73v-.13l.12-.1v-.51l.35,0v-.31h.26a1.25,1.25,0,0,1,.32-.88l.07,0,.12-.17.14-.77A2.67,2.67,0,0,1,69.94,145.41Zm3,18.34c0,.51,0,.82-.13.93l-.1.11-.08.45-.34.09a1.37,1.37,0,0,1-.42.74l-.19.06-.26.41-.25,0c-.08.38-.28.55-.6.5l-.18.37a1,1,0,0,1-.65.26h-.11l-.14.27-.44-.1-.33.33-.94-1.2-.48-1.41L67.2,164l-.11-.43.13-2.92.08-.11c0-.35-.09-.68-.11-1s0-.61.08-1.22l.08-.76a2.24,2.24,0,0,0-.2-.48l.1-.61v-.77l0-.09a3.77,3.77,0,0,1-.14-.7,1.27,1.27,0,0,0,0-.18,1.21,1.21,0,0,0,0-.18,3.39,3.39,0,0,1-.09-.59c0-.54.16-.74.56-.6l.26.06a.79.79,0,0,1,.32-.09c.29.07.5.37.63.89v.13a4,4,0,0,1,.12.8,1.33,1.33,0,0,1,0,.43l-.08,1.65.18.51a1.87,1.87,0,0,1-.22,1l.11.43-.23,1.22c0,.55,0,1,0,1.26l0,.84-.11.44,0,.34V164l.08.62.34.47h.26l0-.09.17.07.28-.07.22-.32.08-.18h.15l0-.16.06-.12.13.16.2-.28.14.06,0-.23h0l0-.25.19-.1.4-.21a1.06,1.06,0,0,1,1-.31l.08,0A1.6,1.6,0,0,1,72.93,163.75Z"/><path class="cls-7" d="M85.11,170.31a.93.93,0,0,1-.14.56l-.42.66-.13.47-.36,0-.1.25h-.54l-.42-.15-.8-.45-.31.09-.4-.34-.56,0-.14-.31h-.17a1.58,1.58,0,0,1-.48-.1l-.4-.24-.69-.31-.52-.12a2,2,0,0,0-.61-.45,1.63,1.63,0,0,0-.68,0l-.46-.43a.52.52,0,0,1-.23,0,.5.5,0,0,1-.28-.23l-.35.43-.32,0-.33.18-.27.1-.49-.53-.2-.63,0-.68.16-.38.28-.22.14-.29.32-.31h.24l.13-.12.26-.27,0-.05,0-.09,0,0a.1.1,0,0,0,0-.05s0,0,0-.08l.13,0,.65-.55.07-.14c.24-.28.43-.41.56-.39l.11-.19,0-.18.26-.3.16-.3.27,0,.16-.4c.1,0,.15-.08.17-.2a.64.64,0,0,1,.45-.33l0-.15.32-.18.35-.55.15-.08-.17,0,.71-.55.13-.34.25-.17.35-.68.32-.2.06-.17-.37-.14L81,160l-.38-.24-.33,0-.21-.24-.61.09a1.93,1.93,0,0,0-.61-.36,1.72,1.72,0,0,0-.55-.1L78,158.9l-.44-.07-.17-.17-.38,0-.72-.5-.55-.14-.32-.28-.59-.39h-.43l-.31-.55-.18-1.15.36-.59.23.15.15,0,.41.09.32.29.32.12L76,156l.55.21.27.23.38,0,.3.24a.54.54,0,0,1,.27,0,.92.92,0,0,1,.26.16l0-.07.35.2,1,.36,1.23.38.13.11.21,0,.44.17.75,0,.37.05.31.18.44-.06.35.17.25,0,.16,0c.47.18.71.77.74,1.77l-.38.18-.21.24-.31,0-.68.68h-.14l-.45.67a.84.84,0,0,0-.61.36l-.1.39-.34.33-.41.72-.25.07-.9,1.26-.32.08-.26.43-.13,0c-.07.08-.15.17-.23.28a1.33,1.33,0,0,1-.27.26l-.19.42-.48.38-.39.55-.28.26,0,.09.72.13.21-.06.53.12.2.24,1.07.26,1,.61.25,0a.54.54,0,0,1,.25.19l.3-.16.43.42.31,0L83,170l.17.06a.45.45,0,0,1,.31-.11c.1-.16.19-.25.27-.26l.09-.23,0,0v-.22l.32-.63.57.31A4.13,4.13,0,0,1,85.11,170.31Z"/><path class="cls-7" d="M96.89,176.74a.77.77,0,0,1-.17.51l-.47.53-.17.42-.34,0-.13.22-.52-.11-.39-.21-.74-.58h-.31l-.35-.39-.55-.14-.11-.32-.16,0a1.87,1.87,0,0,1-.46-.19l-.36-.31-.64-.42-.51-.22a2.06,2.06,0,0,0-.55-.54,1.59,1.59,0,0,0-.66-.11l-.41-.49-.22-.1a.53.53,0,0,1-.25-.26l-.37.34-.31-.05-.34.1a1.7,1.7,0,0,1-.28,0l-.42-.59-.14-.64.09-.63.18-.32.3-.16.15-.24.34-.22.23,0,.14-.09.28-.2,0-.05,0-.06,0,0a.1.1,0,0,0,0-.05l.06-.06.13,0,.67-.39.08-.12c.26-.22.45-.3.57-.25l.13-.16.06-.16.27-.23.18-.25.26.08.18-.34c.1,0,.16,0,.19-.15a.54.54,0,0,1,.46-.22l0-.14.32-.1.39-.45.15-.05-.16-.06.72-.38.16-.29.26-.1.39-.58.33-.13.08-.14-.35-.21-.27,0-.34-.29-.33,0-.18-.26-.6,0a2,2,0,0,0-.56-.46,1.78,1.78,0,0,0-.52-.21l-.2-.28-.42-.15-.15-.18-.37-.06-.65-.61-.53-.24-.28-.33-.54-.48-.42-.08-.25-.58-.07-1.11.39-.48.21.19h.15l.39.16.28.33.3.18.19.34.52.31.24.27.37.09.27.28a.61.61,0,0,1,.26.1.7.7,0,0,1,.23.2v-.08l.33.26.88.53,1.16.59.11.13h.21l.41.24.73.18.35.11.29.24.43,0,.32.22.24.09.15.08q.66.39.57,1.8l-.38.09-.23.19-.3,0-.71.51-.14,0-.5.54a.79.79,0,0,0-.62.22l-.12.34-.35.24-.46.61h-.25l-1,1h-.31l-.29.35h-.12l-.25.22a1.07,1.07,0,0,1-.28.19l-.23.36-.49.26-.42.44-.3.19,0,.08.69.26h.21l.5.22.18.26,1,.45L93,175a1.26,1.26,0,0,1,.24.07.72.72,0,0,1,.23.23l.3-.09.38.47.3.05.38.31.16.09a.4.4,0,0,1,.31-.05.43.43,0,0,1,.29-.19l.1-.19,0,0,0-.21.36-.53.53.4A3.94,3.94,0,0,1,96.89,176.74Z"/><path class="cls-7" d="M104.92,182.65a.93.93,0,0,1-.49.58,1.2,1.2,0,0,1-.42.52l-.11-.06-.31.37-.34-.17-.42.07-.28.36-.2-.16a1,1,0,0,1-.36-.11l-.15.14a1.77,1.77,0,0,0-.17-.13c-.16-.13-.34-.09-.55.12l-.19-.54-.22-.17a1.37,1.37,0,0,1-.37-.46l-.32-.24-.12-.26a2.48,2.48,0,0,1-.72-1.5l0-.08-.19-.35V180l-.18-.4.09-.42,0-1.4.2-1,.2-.36.12-.58.19-.37,0-.21.19-.24,0,0a1.12,1.12,0,0,1,.2-.46l0-.14.08-.72a.77.77,0,0,1,.44-.62.57.57,0,0,0,.06-.15c0-.08,0-.25,0-.52a3.22,3.22,0,0,1,0-.54,1.83,1.83,0,0,1,.25-.61,1.1,1.1,0,0,0,.36.68l0,0a.41.41,0,0,1,.22-.12,2.37,2.37,0,0,1,.64-.85l.09-.05a4.93,4.93,0,0,1,.24-.55l.15.12.06-.11.16.06a1.2,1.2,0,0,1,.17-.17l.46,0a.55.55,0,0,1,.29-.18l.21,0,.1-.1a2.1,2.1,0,0,1,.67.25.86.86,0,0,1,.24.33l.1,0,.1.22a6.82,6.82,0,0,0,.35.76l.23.61,0,.11a3.15,3.15,0,0,1,.13,1.75l-.11.24-.13,1-.19,0-.33.58-.46.31-.11.43a5.12,5.12,0,0,1-1.27.17c-.16.18-.36.17-.59,0l-.06,0-.41.06-.29-.23-.5-.07-.27-.51,0,0a4.76,4.76,0,0,0-.21.62l-.18.05-.09.32-.21.4c-.06.47-.11.77-.14.9l-.08,0c0,.24-.09.42-.12.52l0,.08,0,.08a.8.8,0,0,0,.07.49,1,1,0,0,0,.1.56l.09.28.37.48,0,.09.14.17.62.49.39.2.22,0,.12,0,.26-.27.1.05.5.13a.37.37,0,0,1,.3-.14l.08-.1c.26.12.44,0,.54-.25a.63.63,0,0,1,.73.13l.07.06A3.45,3.45,0,0,1,104.92,182.65Zm-.17-9.44a3.26,3.26,0,0,0,0-.38l-.08-.1h-.05l-.07-.06a.13.13,0,0,1-.08,0l0-.07-.06,0-.22,0-.17-.1-.1,0-.43.36-.24.07-.45.54-.2,0a1.12,1.12,0,0,1-.42.6l-.11.14a.63.63,0,0,1,.49.17l.15,0,.1-.21.25.23.21-.21.11.08.18.28.17-.35.13.1.06-.3.26.1.07,0,.08-.22.34-.34A.86.86,0,0,0,104.75,173.21Z"/><path class="cls-7" d="M115.33,183.45l-.38.7-.65-.51h-.43l-.17-.37-.29,0-.29-.1h-.22l0,.09-.42-.09-.37.22-.12-.12a1.15,1.15,0,0,1-.54.14l-.41.35-.1,0a3.17,3.17,0,0,0-.3.49l-.28-.11-.19.2-.21.12-.15.35-.15-.06-.12.38-.07,0c0,.12,0,.25,0,.4l-.3-.1-.13.3-.3.26v.44l-.36.24a2.09,2.09,0,0,1-.08.39l0,.11a.54.54,0,0,0-.05.11l0,.26.15.76-.4.37-.27,0-.58-.12-.52-1,.18-.59v-.3l.17-.34c.06-.3.11-.52.15-.65a1,1,0,0,1,.08-.19c0-.09,0-.15.05-.18l.06-.28a1,1,0,0,1,0-.53.62.62,0,0,1,.26-.34l.2-.81.07,0,0-.38.13-.28,0-.21.23-.54,0-.36.15-.21,0-.41a3.19,3.19,0,0,0,.14-.39,1.56,1.56,0,0,0,.08-.58l.12-.09.07-.53,0-.49.2-.32,0-.22.12-.69.06-.2a1.23,1.23,0,0,1,0-.47c.11-.34.44-.37,1-.1l.39.57-.06.57.06.5-.25.64c-.07.38-.14.79-.22,1.25l-.07.46a2.86,2.86,0,0,1,0,.31.53.53,0,0,1-.19.25l-.1.56-.2.53-.15.19,0,.15,0,.29a.49.49,0,0,0,.23-.26l.18-.32a.24.24,0,0,1,.22-.07l.19-.31.29,0,.13-.27.28-.12.24-.24a.69.69,0,0,1,.56,0l.06,0,.25-.2.19.12.07,0,.11-.09.23,0,.15-.07.09.13.17,0,.11-.08.24.05.37,0,.46.21.26.2v0s0,0,0,0h0a.49.49,0,0,0,.23.11c.08,0,.16,0,.26.14a1.57,1.57,0,0,1,.22.29A1.22,1.22,0,0,1,115.33,183.45Z"/><path class="cls-7" d="M118.74,195.84q-.21.53-.39.51h-.12l-.2.23-.29-.2a.61.61,0,0,1-.56.17l-.17-.11-.33.07-.21-.16c-.19.19-.39.14-.63-.13a1.53,1.53,0,0,1-.25.1A1.15,1.15,0,0,1,115,196l-.09-.08-.19.07-.31-.39-.36,0-.35-1.5.08-1.28.45-1.15.06-.36,1-1.8h.1a5.1,5.1,0,0,1,.23-.72,5.29,5.29,0,0,1,.45-.74l.29-.43a1.67,1.67,0,0,0,0-.45l.28-.32.25-.49,0,0a2.66,2.66,0,0,1,.12-.56l.08-.09.07-.1a1.65,1.65,0,0,1,.11-.45c.15-.37.36-.36.62,0l.18.24a.93.93,0,0,1,.28.18,1.31,1.31,0,0,1,.2,1l0,.09a2.19,2.19,0,0,1-.15.6.75.75,0,0,1-.15.26l-.58,1,0,.46a.73.73,0,0,1-.48.49l-.06.36-.55.61a7,7,0,0,1-.44.78l-.24.58-.23.2-.07.25-.26.49-.14.46.12.57.2.19.06,0,.12.18.23.16.28,0,.12-.06.11.12.08-.08.08,0,.06.21.25,0,.08.14.1-.12,0,0,.12-.13.17.09.38.16a1.34,1.34,0,0,1,.83.51l.06.08A1.76,1.76,0,0,1,118.74,195.84Zm3.41-14.07c-.07.18-.22.24-.44.18l0,0a.76.76,0,0,1-.74-.07l-.39.11-.27.09-.4-.32-.29.12-.31-.13h-.62l-.1-.66.28-.5.34-.19a.38.38,0,0,1,.47-.23l0-.09.13,0,.16-.32.28.23.08-.2.2.19c.16-.25.34-.35.52-.32l.07,0,.14,0,.35-.38A3.28,3.28,0,0,1,122.15,181.77Z"/><path class="cls-7" d="M128.53,201.73l-.28,0-.16.64h-.34l-.3.3-.09,0,0,.14c-.11.19-.22.27-.33.26h-.06l0,.08a1.3,1.3,0,0,1-.11.32.35.35,0,0,1-.09.12l0,.1-.18.12-.1.31-.19,0-.12.34v.27l-.21,0-.18.31-.27.16-.12.43-.17,0,.06.36-.45.14,0,0,.11.26-.35.3,0,.08a1.58,1.58,0,0,1-.14.2l0,.08.19.39-.06.68-.26.14.16.22a2.28,2.28,0,0,1-.15.57l-.37,0a1.1,1.1,0,0,1-.43-.16l-.32-.19v-.21l-.2-.12V207l.19-.33a4.39,4.39,0,0,1,.34-.87l.07-.11.59-1.3.58-.64.19-.6-.54.17-.42.31-.15-.09-.44.12-.59-.1-.24.09-.51-.11-.22.14-.66-.31h-.9l-.3-.34-.3-.09a2.33,2.33,0,0,1-.29-1.23,3.27,3.27,0,0,1,.09-2.31l.11.05,0-.14.13-.26.07-.39.24-.14.27-.37.48-.5,0-.08a.17.17,0,0,1,0-.1.64.64,0,0,1,.14-.15,1.12,1.12,0,0,1,.08-.18,1.25,1.25,0,0,1,.35-.32l.13.1a.59.59,0,0,1,0-.35l.07-.12s0-.09.08-.14a.23.23,0,0,1,.37-.08.64.64,0,0,1,.38-.15l0-.27.34,0,0-.08a.73.73,0,0,1,.57-.4l.2-.37h.1l0-.06a.45.45,0,0,1,0-.08c0-.07.1-.11.17-.1l.07-.12a1.23,1.23,0,0,1,.62-.11,2.24,2.24,0,0,0,.72-.12v.21l.2.14.09.08.61.44,1,1.79-.08.13.26.63a1.43,1.43,0,0,1,.23,1,.47.47,0,0,1,.09-.12s0-.06,0-.08l.07.84.2.49.57.62-.11.77Zm-1.83-1.08,0-.23-.08-.21-.13-1.17-.23-.5-.21-.36,0-.12L126,198l-.07-.28-.35-.58v.15l-.4-.36H125l0-.05a1.65,1.65,0,0,0-.61-.07l-.37.32-.15.08,0,.5-.37-.12,0,.12a1.07,1.07,0,0,0-.57.48l-.22,0-.21.35h-.21l-.13.13-.06,0-.16.28-.1,0a1.77,1.77,0,0,1-.24.33l0,.14-.33.17,0,.21-.21,0-.12.53-.31,0-.2.42,0,.06,0,.13.08.09.24,0,.06-.2.21.27.13-.07,1.34.36.1.09.29-.18a1.71,1.71,0,0,0,.32.22l.26-.17.11.18.15-.4.21.27a.53.53,0,0,1,.2,0,.71.71,0,0,1,.25,0l1.45-.2.27-.12,0-.1.22-.06.15-.17.21,0Z"/></g><path class="cls-7" d="M71.59,193.62a4.75,4.75,0,0,0-.53-1.22,4.21,4.21,0,0,0-.76-.93,3.62,3.62,0,0,0-.86-.6,7.11,7.11,0,0,1-2.52-2.22,1.54,1.54,0,0,1-.23-.51,2.82,2.82,0,0,1-.15-.71,16.54,16.54,0,0,1,.08-2.44,7.59,7.59,0,0,1,.39-1.85,3.39,3.39,0,0,1,1.63-1.72,4.12,4.12,0,0,1,2.74-.37,3.27,3.27,0,0,1,1.42.56,1.31,1.31,0,0,1,.55,1,7.29,7.29,0,0,1-.06,1.58,1.75,1.75,0,0,1-.24.7,2.78,2.78,0,0,1-.5.41,3.23,3.23,0,0,0-.66.52,4.59,4.59,0,0,0-.48.55c-.13.18-.21.27-.25.26s-.06,0-.07-.12a1.65,1.65,0,0,1,.2-.67,2.55,2.55,0,0,1,.51-.75q.33-.33.33-.45c0-.12-.14-.2-.4-.24a4.72,4.72,0,0,0-2.16.08,3,3,0,0,0-1.54.94,2.05,2.05,0,0,0-.51,1.43,1,1,0,0,0,.28.73,11.06,11.06,0,0,0,1.1.85,10.89,10.89,0,0,1,1.52,1.33,8.38,8.38,0,0,1,1.46,2,5.54,5.54,0,0,1,.54,2.14,6.7,6.7,0,0,1-.1,1.55,5.15,5.15,0,0,1-.44,1.39,3.23,3.23,0,0,1-.72,1,3.47,3.47,0,0,1-.92.52,4.64,4.64,0,0,1-1.22.3,5,5,0,0,1-1.28,0,3.83,3.83,0,0,1-1.85-.72,1.94,1.94,0,0,1-.76-1.5,4.89,4.89,0,0,1,.17-1.28,2,2,0,0,1,.49-1.11.91.91,0,0,1,.53-.19c.17,0,.26.06.27.17a.24.24,0,0,1,0,.08.09.09,0,0,1,0,.06l0,.05-.2.14a.75.75,0,0,0-.13.11.27.27,0,0,0,0,.17c0,.19.47.36,1.36.49a8.3,8.3,0,0,0,1.89.11,2.56,2.56,0,0,0,1.27-.46A3.4,3.4,0,0,0,71.59,193.62Z"/><path class="cls-7" d="M81.56,189.23q-.59,1.77-1,3.24c-.27,1-.47,1.83-.61,2.53a9.85,9.85,0,0,0-.2,1.6c0,.67.14,1,.41,1.1s.92-.62,1.9-2v.92q-1.71,3.44-2.52,3.24c-.64-.16-1-1-1-2.42a15.45,15.45,0,0,1,.57-3.57c.39-1.5,1-3.41,1.76-5.73q-1.4,3-2.33,4.92c-.63,1.29-1.28,2.54-2,3.73l-.44.81a2,2,0,0,1-.4.55.46.46,0,0,1-.43.14c-.25-.07-.46-.32-.62-.78a5.38,5.38,0,0,1-.26-1.83,8,8,0,0,1,.19-1.66,18.12,18.12,0,0,1,.6-2.11c.27-.8.6-1.65,1-2.57.63-1.51,1.07-2.57,1.31-3.19a4.6,4.6,0,0,0,.36-1.22c0-.13,0-.21-.1-.23a.66.66,0,0,0-.39.13,4.39,4.39,0,0,0-.73.58c-.3.27-.69.68-1.17,1.21a4.73,4.73,0,0,1-1.06.91c-.35.21-.6.3-.74.26a.35.35,0,0,1-.22-.2,1,1,0,0,1-.08-.41,7.1,7.1,0,0,1,.12-1c.09-.47.2-1,.34-1.45a8.29,8.29,0,0,1,.37-1.09A4.3,4.3,0,0,1,75.48,182a4.55,4.55,0,0,1,1.6-.83,2.59,2.59,0,0,1,1.36-.07,1,1,0,0,1,.58.45,2.24,2.24,0,0,1,.19,1,10.8,10.8,0,0,1-.16,2.18,18.67,18.67,0,0,1-.55,1.9c-.09.3-.23.71-.41,1.22l-.57,1.5c-.19.49-.34.9-.47,1.22s-.25.7-.38,1.1c-.36,1.06-.58,1.75-.67,2.06a2.46,2.46,0,0,0-.14.84c0,.31.07.49.21.52s.24,0,.36-.2.36-.56.74-1.19.86-1.46,1.27-2.25.78-1.56,1.11-2.28.76-1.67,1.27-2.82c.57-1.31.93-2.13,1.09-2.45s.28-.47.39-.45.17.21.24.55a6.87,6.87,0,0,1,.11,1.36,4.19,4.19,0,0,1-.2,1.16C82.31,187,82,187.87,81.56,189.23Z"/><path class="cls-7" d="M88.85,198.45a5.16,5.16,0,0,0-.41-1.24,4.21,4.21,0,0,0-.63-1,4.71,4.71,0,0,0-.76-.73,7.81,7.81,0,0,1-2.2-2.54,2.59,2.59,0,0,1-.17-.52,2.55,2.55,0,0,1-.08-.7,15,15,0,0,1,.28-2.25,6.25,6.25,0,0,1,.53-1.65,2.74,2.74,0,0,1,1.68-1.29,3.86,3.86,0,0,1,2.61.18,3.56,3.56,0,0,1,1.3.79,1.37,1.37,0,0,1,.42,1.06,6,6,0,0,1-.18,1.46,1.36,1.36,0,0,1-.29.61,2.19,2.19,0,0,1-.5.29,2.81,2.81,0,0,0-.67.35,3.61,3.61,0,0,0-.5.43c-.14.14-.22.2-.25.19s-.06-.05-.06-.12a1.48,1.48,0,0,1,.24-.6,2.08,2.08,0,0,1,.55-.59c.23-.17.34-.29.35-.36s-.12-.21-.36-.3a4.68,4.68,0,0,0-2-.34,2.57,2.57,0,0,0-1.52.58,1.67,1.67,0,0,0-.61,1.24,1.14,1.14,0,0,0,.2.74c.15.18.47.51,1,1a11,11,0,0,1,1.32,1.52,8.94,8.94,0,0,1,1.21,2.15,5.38,5.38,0,0,1,.33,2.1,6.18,6.18,0,0,1-.22,1.44,4.13,4.13,0,0,1-.54,1.2,2.37,2.37,0,0,1-.76.78,3,3,0,0,1-.91.31,4.65,4.65,0,0,1-1.19,0,4.74,4.74,0,0,1-1.2-.25,4.22,4.22,0,0,1-1.69-1,2,2,0,0,1-.59-1.55,4.64,4.64,0,0,1,.27-1.16,1.71,1.71,0,0,1,.56-.94.75.75,0,0,1,.52-.08c.16,0,.24.11.23.21a.14.14,0,0,1,0,.07.11.11,0,0,1,0,0l0,0-.21.1-.13.07a.26.26,0,0,0,0,.15c0,.18.41.42,1.24.72a8.19,8.19,0,0,0,1.78.46,2.28,2.28,0,0,0,1.24-.18A2.69,2.69,0,0,0,88.85,198.45Z"/><path class="cls-7" d="M93.08,192.46l-1.39.81q-.31.16-.42.12A.51.51,0,0,1,91,193a3,3,0,0,1,0-.81,8.38,8.38,0,0,1,.25-1.32,3.83,3.83,0,0,1,.38-1,2.38,2.38,0,0,1,.83-.67,6.79,6.79,0,0,1,1.51-.62,5.64,5.64,0,0,1,1.78-.25,3.52,3.52,0,0,1,1.62.37,1.48,1.48,0,0,1,.71.73,4.68,4.68,0,0,1,.06,2,6.08,6.08,0,0,1-.42,1.68,11.71,11.71,0,0,1-.79,1.63c-.29.51-.84,1.4-1.63,2.68a5.47,5.47,0,0,1,.77.15l.92.23c.65-1.36,1.18-2.43,1.58-3.23s.73-1.46,1-2,.43-.81.48-.88.17-.19.21-.12a1.05,1.05,0,0,1,0,.56,4,4,0,0,1-.13.8,3.49,3.49,0,0,1-.2.57,2.46,2.46,0,0,0-.14.29c-.13.31-.32.7-.56,1.19l-.7,1.44c-.23.48-.49,1.05-.79,1.72a5.37,5.37,0,0,1,1.21,1l-1.3,2.55a5.87,5.87,0,0,0-1.11-.67l-.37,1c-.09.26-.17.5-.24.73a3.68,3.68,0,0,0-.13.68,3.44,3.44,0,0,0,0,.56c0,.24,0,.38,0,.41a.79.79,0,0,1-.22.46,1.47,1.47,0,0,1-.44.31.46.46,0,0,1-.37,0c-.15-.06-.2-.33-.15-.8a14,14,0,0,1,1.06-3.74,11.42,11.42,0,0,0-2.14-.42c-.29.54-.55,1.07-.79,1.57l-.6,1.27a7.3,7.3,0,0,1-.34.69c-.07.11-.13.15-.2.12a.64.64,0,0,1-.25-.46,1,1,0,0,1-.05-.28c0-.09,0-.19,0-.29s0-.19,0-.26a1.48,1.48,0,0,1,.12-.41c.07-.17.22-.5.47-1l.54-1.11a1.66,1.66,0,0,1-.39-.15,1,1,0,0,1-.47-.48,1.27,1.27,0,0,1-.13-.69,3.1,3.1,0,0,1,.18-.82,2.07,2.07,0,0,1,.33-.65c.12-.15.24-.2.34-.15a.68.68,0,0,1,.24.26l1.56-.08c1-1.55,1.78-2.8,2.29-3.73a6.65,6.65,0,0,0,.81-1.89,1.87,1.87,0,0,0,0-.49,1.09,1.09,0,0,0-.16-.38.83.83,0,0,0-.28-.25,1.26,1.26,0,0,0-.61-.07,5.29,5.29,0,0,0-1,.17,14.69,14.69,0,0,0-1.54.5c-.46.16-.69.3-.7.4a.33.33,0,0,0,.07.27,1.37,1.37,0,0,0,.21.19c.09.06.13.11.13.15s0,.07-.08.11Z"/><path class="cls-7" d="M100.66,208.4l-.27-.75a.72.72,0,0,1,0-.35,4.47,4.47,0,0,1,.42-.93l.76-1.53c.33-.65.59-1.18.79-1.61s.45-1,.75-1.67.58-1.38.84-2.06a17.77,17.77,0,0,0,1-3.06q.13-.85-.18-1.05c-.15-.1-.39-.06-.72.1a4.48,4.48,0,0,0-1.07.79,6,6,0,0,0-1,1.27,3.86,3.86,0,0,0-.54,1.41.35.35,0,0,0,0,.18.19.19,0,0,0,.09.11c.09.06.25,0,.48-.07s.14,0,.12.13a2.07,2.07,0,0,1-.56.74c-.36.36-.6.5-.73.42s-.25-.38-.39-.94a3.5,3.5,0,0,1-.13-1.37,4.67,4.67,0,0,1,.31-.88,16.15,16.15,0,0,1,.72-1.45,7.19,7.19,0,0,1,.87-1.29,4.1,4.1,0,0,1,1.08-.94,3.2,3.2,0,0,1,1.07-.43,1.06,1.06,0,0,1,.76.1,1.44,1.44,0,0,1,.52,1,6.9,6.9,0,0,1,0,2,21.5,21.5,0,0,1-1.2,4.17,51.93,51.93,0,0,1-2.72,5.9v.29a2.26,2.26,0,0,1,0,.27.16.16,0,0,1,0,.08l-.06.12a.54.54,0,0,0,0,.08l-.61,1.22c-.07.14-.13.2-.18.17A.27.27,0,0,1,100.66,208.4Z"/><path class="cls-7" d="M109,205.82l.23.06a1.29,1.29,0,0,1,.26.3l.13.15a1,1,0,0,1,.09.13.35.35,0,0,1,0,.12,1.49,1.49,0,0,1-.41.43.9.9,0,0,1-.69.27,1.85,1.85,0,0,1-.69-.24,8.35,8.35,0,0,1-1.05-.66,3.16,3.16,0,0,1-.44-.38.4.4,0,0,1-.1-.35,1,1,0,0,1,.14-.29,2.08,2.08,0,0,1,.3-.38c.34-.35.82-.3,1.45.16A9.09,9.09,0,0,1,109,205.82Z"/><path class="cls-7" d="M114.58,209.22l-.42.43a11.12,11.12,0,0,1,.74.93c.2.31.39.6.56.9s.3.57.42.83a4.21,4.21,0,0,1,.28,2.7,2.41,2.41,0,0,1-1.9,1.88,3.09,3.09,0,0,1-1.32,0,2.64,2.64,0,0,1-1.1-.54,3.26,3.26,0,0,1-1-1.65,3.9,3.9,0,0,1,0-2.09,5.15,5.15,0,0,1,.7-1.55,17,17,0,0,1,1.45-1.82,2,2,0,0,1-.52-.78,1.47,1.47,0,0,1,0-.78.63.63,0,0,1,.16-.33.26.26,0,0,1,.23,0,4.92,4.92,0,0,1,.46.22l.85.49a7.45,7.45,0,0,1,1.52-1.35,1,1,0,0,1,1.13,0,.47.47,0,0,1,.09.06.1.1,0,0,1,0,.1.87.87,0,0,1-.2.25l-.58.59-1,.95a7.45,7.45,0,0,0,1.67.72,1.59,1.59,0,0,0,1.1-.07,1.19,1.19,0,0,0,.57-.82,2.17,2.17,0,0,0-.06-1.34,3.14,3.14,0,0,0-.89-1.19,4.22,4.22,0,0,0-.88-.59,6.3,6.3,0,0,0-.94-.39,3.77,3.77,0,0,0-.8-.16c-.24,0-.36,0-.38.08s0,0,0,.09a1.07,1.07,0,0,1,.16.54c0,.12-.33.12-.91,0a2.66,2.66,0,0,1-1.14-.39.55.55,0,0,1-.08-.57,4.3,4.3,0,0,1,.84-1.39c.48-.59.85-.91,1.13-.95a2.61,2.61,0,0,1,.63.09,9.12,9.12,0,0,1,1,.32,10,10,0,0,1,1.11.5,5,5,0,0,1,.94.65,3.82,3.82,0,0,1,1.21,2,4.63,4.63,0,0,1,0,2.25,3.66,3.66,0,0,1-.57,1.26,2.18,2.18,0,0,1-1,.73,2.68,2.68,0,0,1-1.45,0A6.42,6.42,0,0,1,114.58,209.22Zm-.88.95-.76.81a5.34,5.34,0,0,0-.51.59,2,2,0,0,0-.25.58,2.53,2.53,0,0,0,0,1.16,1.93,1.93,0,0,0,.61,1,2,2,0,0,0,1,.46,1.64,1.64,0,0,0,1-.17,1.2,1.2,0,0,0,.6-.8,1.81,1.81,0,0,0,0-1,5.29,5.29,0,0,0-.6-1.19C114.49,211.21,114.13,210.71,113.7,210.17Z"/><path class="cls-7" d="M121.41,219.47c-.38-.37-.66-.64-.83-.82s-.63-.68-1.1-1.21c-.17.14-.39.29-.63.47l-.7.48-.57.37-.38.25-1.16.76a2.41,2.41,0,0,1-.53.27.38.38,0,0,1-.42-.06.48.48,0,0,1-.06-.51,2.52,2.52,0,0,1,.61-.87,4.18,4.18,0,0,1,1-.79c.33-.18.55-.2.68-.07a.84.84,0,0,1,.11.26l1.57-1.16a4.77,4.77,0,0,0-.42-.54,1.87,1.87,0,0,1-.34-.47.64.64,0,0,1,0-.45,2.13,2.13,0,0,1,.88-.94.83.83,0,0,1,.65-.2,2.57,2.57,0,0,1,.84.68,1.17,1.17,0,0,0-.56-.27c-.13,0-.22.07-.29.25l.25.26a4,4,0,0,0,.3.31l.27.27c.86-.55,1.63-1,2.29-1.38a13.46,13.46,0,0,1,2-.91,8.34,8.34,0,0,1,2.06-.44,3.33,3.33,0,0,1-.14,1.08,2.63,2.63,0,0,1-.4.78c-.19.26-.55.74-1.1,1.42s-1.13,1.43-1.73,2.23l.21.23.17.21a2,2,0,0,1,.31.36.29.29,0,0,1,0,.26.56.56,0,0,1-.17.22c-.09.09-.24.23-.47.43s-.44.4-.66.62l-.72-.59a13.44,13.44,0,0,0-1.35,2,.59.59,0,0,0,.07.63,2.53,2.53,0,0,0,1.09-.07l-.21.51-.91.39-.56.23a1,1,0,0,1-.4.06.48.48,0,0,1-.3-.15,1.07,1.07,0,0,1-.2-.63,2.7,2.7,0,0,1,.13-1.05,3.28,3.28,0,0,1,.3-.59c.15-.24.29-.46.44-.67Zm-.13-3.26,1.52,1.52.93-1.15.78-1,.72-.86c.2-.23.42-.5.66-.8a7.78,7.78,0,0,0-1,.3c-.35.13-.75.3-1.2.52s-.87.44-1.24.66S121.7,215.92,121.28,216.21Z"/><path class="cls-7" d="M125.93,229.32l-.91-3.8a8.9,8.9,0,0,0-1.71,1.6.81.81,0,0,1-.52.43c-.2,0-.33,0-.38,0a.61.61,0,0,1-.07-.65,4.13,4.13,0,0,1,.76-.88,15.41,15.41,0,0,1,1.67-1.44c-.11-.37-.17-.6-.19-.71a.54.54,0,0,1,.07-.35,2,2,0,0,1,.42-.48,3.26,3.26,0,0,1,.4-.3.39.39,0,0,1,.23,0,.51.51,0,0,1,.22.11l.56.5L128.1,222c.57-.45,1-.79,1.34-1a12.42,12.42,0,0,0-1.06-.87c-.22-.15-.4-.29-.55-.4a1.76,1.76,0,0,0-.33-.2c-.06,0-.11,0-.14.08a.31.31,0,0,0,0,.26,2.55,2.55,0,0,0,.23.34,2.85,2.85,0,0,1,.21.31.24.24,0,0,1,0,.21q0,.09-.15,0l-.61-.69c-.18-.22-.34-.41-.47-.55s-.22-.25-.27-.32a.48.48,0,0,1-.1-.33,1.14,1.14,0,0,1,.09-.42,2.26,2.26,0,0,1,.32-.48,3.18,3.18,0,0,1,.58-.58,1,1,0,0,1,.62-.25,2.14,2.14,0,0,1,.92.29,6.06,6.06,0,0,1,1.2.83,8.07,8.07,0,0,1,1.17,1.23,7.27,7.27,0,0,1,.6.92c.19.32.35.63.49.93s.23.55.3.76a4.32,4.32,0,0,1,.24,1.6,4.51,4.51,0,0,1-.3,1.51,5.39,5.39,0,0,1-.62,1.17,2.71,2.71,0,0,1-.78.77,1.38,1.38,0,0,1-.86.23,2.79,2.79,0,0,1-1-.37,8.84,8.84,0,0,1-1.42-1,19.38,19.38,0,0,1-1.73-1.7c.3.9.57,1.77.82,2.59s.43,1.54.59,2.14.26,1.07.34,1.43.18.85.2,1a1.58,1.58,0,0,1-.05.57,6.56,6.56,0,0,1-.3.89,9.68,9.68,0,0,1-.43.94c-.11.18-.21.22-.29.12a2,2,0,0,1-.13-.44q-.09-.39-.24-1.11c-.09-.48-.18-.92-.27-1.3S126.13,230.12,125.93,229.32Zm3.81-8.06a.65.65,0,0,1,0,.13,1.16,1.16,0,0,1-.06.16,1.74,1.74,0,0,1-.32.51,3.41,3.41,0,0,1-.47.46c-.18.14-.43.34-.77.59l-.93.7c.7.51,1.31.91,1.82,1.21a5.79,5.79,0,0,0,1.32.62,1.49,1.49,0,0,0,.9,0,.93.93,0,0,0,.53-.55,1.82,1.82,0,0,0-.13-1.28,6.68,6.68,0,0,0-.94-1.61c-.08-.11-.18-.22-.27-.33s-.22-.24-.36-.38Z"/><path class="cls-3" d="M50.87,205.94,7.1,215.63C2.2,171.36-5.08,109.43,13.8,106.8L53.39,89.43C39.8,100.87,46.35,161.58,50.87,205.94Z"/><g class="cls-2"><path d="M50.87,205.94,7.1,215.63C2.2,171.36-5.08,109.43,13.8,106.8L53.39,89.43C39.8,100.87,46.35,161.58,50.87,205.94Z"/></g></g></g></svg>