<svg xmlns="http://www.w3.org/2000/svg" viewBox="0 0 90.43 90.55"><defs><style>.cls-1{fill:#10009e;}.cls-2{fill:aqua;}.cls-3{fill:lime;}.cls-3,.cls-4{stroke:#fff;stroke-linecap:round;stroke-linejoin:round;stroke-width:2px;}.cls-4{fill:#f0f;}</style></defs><title>Favicon_2</title><g id="Layer_2" data-name="Layer 2"><g id="Layer_1-2" data-name="Layer 1"><rect class="cls-1" x="1.67" y="2.14" width="86.63" height="86.63"/><path class="cls-2" d="M88.44,88.91c-7,.28-14,.52-21.2.74s-14.39.4-21.67.55l-10.93.19-11,.12c-7.32.07-14.67,0-22-.08H1.6A1.63,1.63,0,0,1,0,88.78H0L.55,67.11.84,56.28,1,45.45Q1.1,34.62,1,23.79C.93,16.58.71,9.36.57,2.14A1.07,1.07,0,0,1,1.62,1h0C8.88.87,16.1.66,23.32.53S37.76.32,45,.26L66.64.05C73.86,0,81.07,0,88.29,0h0a2.12,2.12,0,0,1,2.12,2.12v0c-.07,7.34-.1,14.69-.23,22s-.26,14.63-.45,21.89l-.62,21.63Zm-.29-.29-.69-22.08-.62-21.69q-.28-10.77-.45-21.42c-.13-7.11-.16-14.2-.23-21.29l2.13,2.13c-7.22,0-14.43,0-21.65,0L45,4C37.76,4,30.54,3.88,23.32,3.74S8.88,3.4,1.67,3.23L2.76,2.14c-.14,7.22-.36,14.44-.42,21.65s-.08,14.44,0,21.66l.18,10.83.29,10.83.55,21.66L1.67,87.1C8.79,87,15.88,87,23,87l10.68.11,10.72.19c7.16.15,14.36.33,21.65.56S80.66,88.34,88.15,88.62Z"/><path class="cls-3" d="M45,7.08c-21.82,0-39.5,13.88-39.5,31V86.22H18V55.15H72V86.22h12.5V38.08C84.48,21,66.79,7.08,45,7.08ZM72,46.32H18V38.08c0-10.22,12.09-18.5,27-18.5s27,8.28,27,18.5Z"/><path class="cls-4" d="M53,43.73a15.4,15.4,0,1,0-30-4.85V64.22A22,22,0,1,0,53,43.73ZM38.38,30.43a8.45,8.45,0,0,1,7.74,11.82q-.57,0-1.14,0a21.84,21.84,0,0,0-11.71,3.37,8.44,8.44,0,0,1,5.11-15.16ZM45,77.72a13.5,13.5,0,1,1,13.5-13.5A13.49,13.49,0,0,1,45,77.72Z"/></g></g></svg>