<svg xmlns="http://www.w3.org/2000/svg" viewBox="0 0 99.51 99.51"><defs><style>.cls-1,.cls-3{stroke:#000;stroke-miterlimit:10;}.cls-2{fill:#fff;}.cls-3{stroke-width:0.25px;}.cls-4{fill:lime;}</style></defs><title>Favicon_1</title><g id="Layer_2" data-name="Layer 2"><g id="Layer_1-2" data-name="Layer 1"><rect class="cls-1" x="0.5" y="0.5" width="98.51" height="98.51"/><rect class="cls-2" x="4.3" y="4.3" width="90.91" height="90.91"/><rect class="cls-3" x="6.44" y="6.44" width="86.63" height="86.63"/><path class="cls-4" d="M47.9,30.64l-3.19,1.58a101.3,101.3,0,0,1,4-13.87.62.62,0,0,0,0-.18c0-2.45-.89-4.43-2.38-5.29-.85-.5-2.29-.86-4.44.21C37.08,16,34.4,29.14,34.33,37.35L25,42a.52.52,0,0,0-.25.71.57.57,0,0,0,.5.28.54.54,0,0,0,.25-.06l8.8-4.36v.85c0,9.85.07,20-8.75,24.41-3.52,1.73-6.24,2.1-8.08,1.06-3.22-1.8-3.83-7.65-4-13.07.37-3.61,2.51-5.15,4.31-5.07,2.06.09,4.13,2.28,4.13,6.93a.55.55,0,0,0,1.1,0c0-5.34-2.6-7.86-5.18-8-2.32-.1-5,1.72-5.46,6.08.17,5.78.86,11.95,4.54,14a6,6,0,0,0,3,.72,14.28,14.28,0,0,0,6.17-1.78c9.42-4.65,9.38-15.16,9.35-25.34V38l7.78-3.85a99.4,99.4,0,0,0-1.84,22.18.55.55,0,0,0,.58.5.52.52,0,0,0,.52-.55,99.29,99.29,0,0,1,2-22.73l4-2a.51.51,0,0,0,.24-.71A.55.55,0,0,0,47.9,30.64Zm-4.43,2.19h0l-8,4c.18-8.14,2.82-20.29,7-22.82a3.47,3.47,0,0,1,3.32-.22c1.12.65,1.83,2.3,1.85,4.31A100.89,100.89,0,0,0,43.47,32.83Z"/><path class="cls-4" d="M48,30.77l-3.19,1.59a.17.17,0,0,1-.21-.07.18.18,0,0,1,0-.1A103.33,103.33,0,0,1,47.91,20l.53-1.49.07-.18c0-.05,0-.08,0-.14v-.39c0-.26,0-.52-.06-.77a6.43,6.43,0,0,0-1.05-2.87,3.53,3.53,0,0,0-2.5-1.52,5.39,5.39,0,0,0-2.95.65h0a11.72,11.72,0,0,0-3.74,5.1,37.51,37.51,0,0,0-2,6.15,58.2,58.2,0,0,0-1.67,12.86.2.2,0,0,1-.12.19L29.52,40l-2.45,1.21-1.23.61-.61.31c-.22.09-.26.16-.28.3a.29.29,0,0,0,.22.3.23.23,0,0,0,.2,0c.06,0,.18-.07.28-.12l1.23-.6,2.45-1.22,4.9-2.44a.24.24,0,0,1,.31.11.36.36,0,0,1,0,.1A81.37,81.37,0,0,1,34,51.29a22.29,22.29,0,0,1-1.83,6.16,13.86,13.86,0,0,1-4,5,17.14,17.14,0,0,1-5.77,2.86,8.26,8.26,0,0,1-3.25.33,4.71,4.71,0,0,1-2.94-1.5,11.81,11.81,0,0,1-2.42-6,48.77,48.77,0,0,1-.56-6.38v0a6.59,6.59,0,0,1,2-4.35,4,4,0,0,1,2.29-1,3.64,3.64,0,0,1,2.38.77,6.69,6.69,0,0,1,2.2,4.25,11.71,11.71,0,0,1,.14,1.19c0,.2,0,.4,0,.6a3,3,0,0,0,0,.49.28.28,0,0,0,.45.06.22.22,0,0,0,.05-.11s0-.18,0-.26l0-.57a9.78,9.78,0,0,0-1.14-4.36A4.72,4.72,0,0,0,18.15,46a4.48,4.48,0,0,0-3.89,1.64,7.68,7.68,0,0,0-1.59,4.16v0a45.35,45.35,0,0,0,.61,6.8,11.82,11.82,0,0,0,2.6,6.09,5.2,5.2,0,0,0,2.84,1.51A8.22,8.22,0,0,0,22,66a18.81,18.81,0,0,0,6.12-2.81,14.24,14.24,0,0,0,4.38-5.06,21.87,21.87,0,0,0,2-6.45A85.44,85.44,0,0,0,35.22,38a.22.22,0,0,1,.12-.19L43.12,34a.21.21,0,0,1,.28.09.3.3,0,0,1,0,.13,105,105,0,0,0-1.61,11.58c-.15,1.94-.26,3.89-.29,5.83,0,1,0,2,0,2.93l0,1.46,0,.35a.29.29,0,0,0,.11.21.38.38,0,0,0,.45,0,.29.29,0,0,0,.15-.18.85.85,0,0,0,0-.3l0-.73,0-1.47c0-1,0-2,0-2.93,0-2,.17-3.91.34-5.86A108.17,108.17,0,0,1,44.28,33.5a.17.17,0,0,1,.09-.11L47.11,32c.44-.23,1-.46,1.33-.67a.37.37,0,0,0,0-.49A.4.4,0,0,0,48,30.77Zm-.14-.26a.7.7,0,0,1,.88.18.67.67,0,0,1-.07.91c-.51.31-.92.48-1.39.72L44.52,33.7l.1-.13A107.61,107.61,0,0,0,43,45.14c-.16,2-.23,3.89-.25,5.84,0,1,0,1.94,0,2.91l.05,1.46,0,.73v.19a.86.86,0,0,1-.05.32,1,1,0,0,1-.4.5,1.06,1.06,0,0,1-.6.14,1,1,0,0,1-.59-.26,1,1,0,0,1-.3-.58l0-.4-.06-1.47c0-1,0-2,0-3,0-2,.06-3.93.16-5.89A107.86,107.86,0,0,1,42.27,34l1.37,1L36,39.05,36.62,38a84.14,84.14,0,0,1-.28,14A23.47,23.47,0,0,1,34.29,59a16.16,16.16,0,0,1-4.87,5.91,20.92,20.92,0,0,1-6.85,3.35,10.47,10.47,0,0,1-4.29.27A7.53,7.53,0,0,1,16,67.83c-.37-.19-.7-.42-1.05-.64s-.62-.51-.92-.77a11.29,11.29,0,0,1-2.33-3.67A20.91,20.91,0,0,1,10.64,59a50.55,50.55,0,0,1-.77-7.19,2.71,2.71,0,0,1,0-.29v-.05a10.42,10.42,0,0,1,2.19-5.72,7.31,7.31,0,0,1,6.44-2.67,7.05,7.05,0,0,1,3.4,1.39A8.57,8.57,0,0,1,24.13,47a12.88,12.88,0,0,1,1.56,5.66l0,.69v.4l0,.22A3.22,3.22,0,0,1,25,55.65a3.24,3.24,0,0,1-5.57-.94,3.43,3.43,0,0,1-.18-.89v-.51c0-.16,0-.32,0-.47,0-.31-.06-.62-.11-.9A4.12,4.12,0,0,0,18,49.54a.77.77,0,0,0-.38-.17,1,1,0,0,0-.54.25,3.78,3.78,0,0,0-1,2.43V51.7a45.84,45.84,0,0,0,.48,6,9.56,9.56,0,0,0,1.6,4.57,2,2,0,0,0,1.27.7,5.71,5.71,0,0,0,2.21-.19,15.52,15.52,0,0,0,2.6-1,14.71,14.71,0,0,0,2.32-1.36,11.39,11.39,0,0,0,3.45-4,20,20,0,0,0,1.79-5.48,78.12,78.12,0,0,0,.9-12.41L35,40l-5,2.3-2.49,1.15L26.33,44l-.16.07-.11.05-.27.09a1.79,1.79,0,0,1-1.1,0,1.9,1.9,0,0,1-.91-.66,1.8,1.8,0,0,1,.1-2.26,1.63,1.63,0,0,1,.46-.37l.24-.12.62-.29,1.24-.57,2.48-1.15,5-2.3-.55.9a59.68,59.68,0,0,1,2.06-13.06,41.9,41.9,0,0,1,2.2-6.23,12.34,12.34,0,0,1,4.08-5.32h0A6,6,0,0,1,45,12.07a4.08,4.08,0,0,1,2.83,1.77,7.12,7.12,0,0,1,1.08,3.09q0,.41.06.81v.41a1,1,0,0,1-.05.27l-.06.19L48.3,20.1a100.52,100.52,0,0,0-3.42,12.15l-.24-.18Z"/><path class="cls-4" d="M43.62,32.84h0l-.09.13-8,4a.19.19,0,0,1-.26-.09.1.1,0,0,1,0-.09,60,60,0,0,1,1.57-12.15,38,38,0,0,1,1.85-5.86,11,11,0,0,1,3.62-5h0a5.1,5.1,0,0,1,2.12-.56,2.77,2.77,0,0,1,2.06.85,4.77,4.77,0,0,1,1,1.92,8.16,8.16,0,0,1,.29,2.13.19.19,0,0,1,0,.08c-.9,2.39-1.68,4.82-2.38,7.27-.35,1.23-.68,2.46-1,3.7S43.87,31.62,43.62,32.84Zm-.3,0v-2l.1-1.95q.15-1.95.42-3.9c.21-1.28.43-2.57.7-3.85s.62-2.55,1-3.81l-.14.79A6.64,6.64,0,0,0,45,16.7a1.63,1.63,0,0,0-.5-.76c-.13,0,0,.07-.08.07a3.59,3.59,0,0,0-.87.33l.2-.11a5.71,5.71,0,0,0-1.2,1.43c-.21.33-.4.73-.6,1.09L41.41,20a39.29,39.29,0,0,0-1.86,5.36c-.57,1.86-1,3.78-1.42,5.7s-.77,3.87-1.08,5.82l-2.32-1.48c.71-.25,1.4-.52,2.13-.74l2.15-.7c.72-.23,1.45-.43,2.18-.64s1.47-.38,2.21-.58l-.09.14Z"/><path class="cls-4" d="M83.78,55.39c-1.66-1-3.92-1.09-6.83-.4,3.93-2.94,6.64-7.19,6.64-15.6a6,6,0,0,0-3.29-5.11,11.68,11.68,0,0,0-10.85.06l-.08,0-.11.06c-11.38,5.66-17.38,14-23.74,22.79a.58.58,0,0,0,.17.83.64.64,0,0,0,.87-.16c6.12-8.46,11.9-16.47,22.47-22V83.43c-6.79,3.23-13.74,2.62-21.08,2l-1.86-.16a.63.63,0,0,0-.68.56.61.61,0,0,0,.58.65l1.85.16c2.88.25,5.78.5,8.7.5a29.42,29.42,0,0,0,13.34-2.75l.07,0a.67.67,0,0,1,.12-.06c11.31-5.63,17-12.43,17-20.25C87.11,59.46,86.05,56.72,83.78,55.39ZM70.29,57.47V35.28a10.29,10.29,0,0,1,9.36,0,4.85,4.85,0,0,1,2.68,4.09c0,11.6-5.24,14.69-12,18.08h0l-.08,0A.25.25,0,0,1,70.29,57.47Zm0,25.34v-24c6.13-3,10.44-3.79,12.83-2.39C85,57.5,85.85,59.92,85.85,64,85.85,71.18,80.62,77.47,70.29,82.81Z"/><path class="cls-4" d="M83.7,55.52a6.9,6.9,0,0,0-3.28-.81,14.28,14.28,0,0,0-3.43.44A.16.16,0,0,1,76.8,55a.14.14,0,0,1,.06-.16A14.83,14.83,0,0,0,82.08,48a24.76,24.76,0,0,0,1.33-8.64,5.37,5.37,0,0,0-1.72-3.79,8.52,8.52,0,0,0-3.76-2.05,12.28,12.28,0,0,0-8.47,1.05l0,0-.11.07h0A48.59,48.59,0,0,0,56,44.47a74.65,74.65,0,0,0-5.44,6.33c-.85,1.1-1.68,2.21-2.51,3.34l-1.23,1.69-.61.85-.31.43c-.1.14-.23.29-.23.36s.12.42.33.44.36-.14.58-.46l1.23-1.7c.82-1.13,1.64-2.26,2.49-3.37a82.68,82.68,0,0,1,5.36-6.46A48.35,48.35,0,0,1,68.9,35.65a.29.29,0,0,1,.38.12.35.35,0,0,1,0,.14l0,47.52a.26.26,0,0,1-.15.24A28.37,28.37,0,0,1,57,86.16c-2.08,0-4.15-.12-6.22-.28l-3.09-.27-1.54-.13a.38.38,0,0,0-.36.63.38.38,0,0,0,.23.11l.37,0,.77.06,1.54.14,3.09.25c2.06.14,4.13.23,6.18.17a28.23,28.23,0,0,0,11.93-2.73h0L70,84.1h0a50.34,50.34,0,0,0,8-4.85,25.92,25.92,0,0,0,6.42-6.71,17.11,17.11,0,0,0,1.94-4.21,17.61,17.61,0,0,0,0-9.19A6.08,6.08,0,0,0,83.7,55.52Zm.15-.26A6.37,6.37,0,0,1,86.67,59a16.66,16.66,0,0,1,.65,4.7,17.1,17.1,0,0,1-.6,4.71,19.2,19.2,0,0,1-1.94,4.34,26.33,26.33,0,0,1-6.42,7,55.89,55.89,0,0,1-8,5.14l.06,0-.11.06-.07,0A29.34,29.34,0,0,1,58,88.18c-2.11.13-4.23.11-6.32,0l-3.12-.16L47,88l-.78,0h-.34l-.14,0a2.11,2.11,0,0,1-1.11-.52A2,2,0,0,1,44,86.22a2.07,2.07,0,0,1,.2-1.35,2.07,2.07,0,0,1,.93-.92,2,2,0,0,1,.62-.2,3,3,0,0,1,.31,0h.23l1.56.08L50.9,84c2.05.1,4.07.15,6.06.07A25.85,25.85,0,0,0,68.07,81.4l-1.29,2c-.11-4-.16-7.92-.24-11.88s-.13-7.92-.14-11.88l-.06-11.88.07-11.88,3.83,2.32a49.35,49.35,0,0,0-6.7,4.18,48,48,0,0,0-6,5.29c-1.86,1.95-3.64,4-5.38,6.13-.86,1.06-1.72,2.15-2.57,3.25l-1.28,1.65-.16.21-.12.16a2.59,2.59,0,0,1-.37.37,2.56,2.56,0,0,1-3,.24A2.62,2.62,0,0,1,44,59a2.45,2.45,0,0,1-.39-2.13,2.55,2.55,0,0,1,.22-.54,2.1,2.1,0,0,1,.15-.22l.06-.08.16-.21.31-.41.64-.82L46.45,53c.87-1.11,1.75-2.21,2.65-3.3a77.73,77.73,0,0,1,5.76-6.3,50.21,50.21,0,0,1,14-9.68l-.07,0,.11-.06.09,0a13.16,13.16,0,0,1,9.11-.84,9.36,9.36,0,0,1,4,2.3A6,6,0,0,1,84,39.35a25.79,25.79,0,0,1-1.51,8.79,15.22,15.22,0,0,1-5.4,7l-.16-.34a13.82,13.82,0,0,1,3.51-.42A7.11,7.11,0,0,1,83.85,55.26Z"/><path class="cls-4" d="M70.17,57.39,70,35.28a.28.28,0,0,1,.16-.24A10.67,10.67,0,0,1,79.65,35a5.38,5.38,0,0,1,2.91,3.89,27.68,27.68,0,0,1-.28,4.83A19.31,19.31,0,0,1,81,48.34a13.31,13.31,0,0,1-2.65,4c-2.25,2.36-5.16,3.83-8,5.24l.08-.13h0a.13.13,0,0,1-.08.13l-.11,0h0a.16.16,0,0,1-.2-.09.15.15,0,0,1,.08-.19Zm.25.16a.63.63,0,0,1-.12.11l-.15-.31.06,0-.11.17h0a.13.13,0,0,1,.05-.13l.06,0c2.54-2,5.13-3.91,6.8-6.2a13.28,13.28,0,0,0,1.09-1.78l.44-.92.34-1a13.81,13.81,0,0,0,.48-2c.14-.68.22-1.39.3-2.1s.08-1.45.1-2.17l0-1.11v-.55a1.26,1.26,0,0,0,0-.26,2.57,2.57,0,0,0-1.5-1.65A7.27,7.27,0,0,0,75,36.83a10.19,10.19,0,0,0-3.61.75l1.48-2.3c-.1,2-.17,3.92-.31,5.86S72.23,45,72,46.87s-.43,3.73-.7,5.51S70.75,55.9,70.42,57.55Z"/><path class="cls-4" d="M70.22,82.94,70,58.82a.27.27,0,0,1,.14-.23,43.13,43.13,0,0,1,5.53-2.28,12.91,12.91,0,0,1,6-.71,4.7,4.7,0,0,1,2.71,1.53,6.64,6.64,0,0,1,1.31,2.79,18.12,18.12,0,0,1,.24,6,17.6,17.6,0,0,1-5.75,10.31,35.48,35.48,0,0,1-4.69,3.7c-.84.54-1.67,1.08-2.54,1.57A29.79,29.79,0,0,1,70.22,82.94Zm.15-.26a9.25,9.25,0,0,0,1.15-1c.16-.15.29-.27.47-.42l.58-.47c.79-.6,1.51-1.27,2.27-1.88a45.56,45.56,0,0,0,4.06-4,22.43,22.43,0,0,0,3-4.49,14.24,14.24,0,0,0,1.36-4.83,17.79,17.79,0,0,0-.39-5,3.68,3.68,0,0,0-.72-1.54,1.77,1.77,0,0,0-1.06-.52,10.18,10.18,0,0,0-4.54.54A51.29,51.29,0,0,0,71.36,61l1.38-2.2c-.08,1.83-.17,3.64-.37,5.49S72,68,71.76,70L71,76.07C70.8,78.17,70.57,80.38,70.37,82.68Z"/></g></g></svg>