<svg xmlns="http://www.w3.org/2000/svg" viewBox="0 0 99.51 99.51"><defs><style>.cls-1,.cls-3{stroke:#000;stroke-miterlimit:10;}.cls-2{fill:#fff;}.cls-3{stroke-width:0.25px;}</style></defs><title>Favicon</title><g id="Layer_2" data-name="Layer 2"><g id="Layer_1-2" data-name="Layer 1"><rect class="cls-1" x="0.5" y="0.5" width="98.51" height="98.51"/><rect class="cls-2" x="4.3" y="4.3" width="90.91" height="90.91"/><rect class="cls-3" x="7.62" y="7.62" width="84.26" height="84.26"/><path class="cls-2" d="M70.43,29.45a.39.39,0,0,1-.77,0,.77.77,0,0,0-.31-.7,1.71,1.71,0,0,0-1-.24c-2.73,0-7.85,2.95-7.85,5.55V45.7a.35.35,0,0,1-.38.34.36.36,0,0,1-.38-.34V31.33a.37.37,0,0,1,.38-.35.36.36,0,0,1,.38.35V32a11.71,11.71,0,0,1,7.85-4.2,2.46,2.46,0,0,1,1.44.38A1.41,1.41,0,0,1,70.43,29.45Z"/><path class="cls-2" d="M51,62.19a.42.42,0,0,1-.84,0,.89.89,0,0,0-.35-.79,2,2,0,0,0-1.08-.25c-3,0-8.71,3.27-8.71,6.16V80.24a.43.43,0,0,1-.85,0v-16a.43.43,0,0,1,.85,0v.78c1.81-2.53,6.12-4.66,8.71-4.66a2.79,2.79,0,0,1,1.6.41A1.62,1.62,0,0,1,51,62.19Z"/><path class="cls-2" d="M76.37,49.77V62.59a.43.43,0,0,1-.85,0V49.82a.79.79,0,0,0-.33-.69,1.9,1.9,0,0,0-1.09-.26c-3,0-8.71,3.27-8.71,6.17V68a.4.4,0,0,1-.42.38.39.39,0,0,1-.42-.38V52a.4.4,0,0,1,.42-.38.4.4,0,0,1,.42.38v.77c1.82-2.51,6.12-4.65,8.71-4.65a2.71,2.71,0,0,1,1.6.42A1.51,1.51,0,0,1,76.37,49.77Z"/><path class="cls-2" d="M76.37,49.77a.61.61,0,0,1,0,.14.25.25,0,0,1,0,.08"/><path class="cls-2" d="M58.46,31.55l-2.2,1.07A66.43,66.43,0,0,1,59,23.26a.27.27,0,0,0,0-.12,4,4,0,0,0-1.64-3.58,3.19,3.19,0,0,0-3.07.14c-3.31,2-5.16,10.84-5.21,16.38L42.67,39.2a.34.34,0,0,0-.17.47.41.41,0,0,0,.35.19.35.35,0,0,0,.17,0l6.07-2.94v.58c0,6.64,0,13.52-6,16.47-2.43,1.17-4.31,1.42-5.58.72-2.22-1.22-2.64-5.17-2.76-8.83.26-2.43,1.74-3.47,3-3.42,1.42.06,2.85,1.54,2.85,4.68a.38.38,0,0,0,.76,0c0-3.61-1.79-5.31-3.57-5.39-1.61-.06-3.47,1.16-3.78,4.11.12,3.9.6,8.06,3.14,9.46a4.17,4.17,0,0,0,2,.49,9.93,9.93,0,0,0,4.26-1.2c6.5-3.14,6.48-10.23,6.45-17.1v-.94l5.37-2.6a65.49,65.49,0,0,0-1.27,15,.39.39,0,0,0,.4.34.36.36,0,0,0,.36-.37,65.49,65.49,0,0,1,1.36-15.34l2.74-1.33A.34.34,0,0,0,59,31.7.38.38,0,0,0,58.46,31.55ZM55.4,33h0l-5.54,2.68c.12-5.5,2-13.7,4.82-15.41A2.4,2.4,0,0,1,57,20.17a3.29,3.29,0,0,1,1.28,2.91A66.56,66.56,0,0,0,55.4,33Z"/><path class="cls-2" d="M81.76,33.86a9.3,9.3,0,0,1-3.61,3.87l-.06,0a4,4,0,0,1-1.75.44,2.47,2.47,0,0,1-1.3-.33,2.33,2.33,0,0,1-1.19-2.08V24.89l-2.11,1-.35-.62,2.46-1.19V10.46h.76V23.73l6.67-3.23.35.62-7,3.41V35.79a1.64,1.64,0,0,0,.82,1.48,2.5,2.5,0,0,0,2.26-.11l0,0a8.59,8.59,0,0,0,3.36-3.62l.36.14Z"/><line class="cls-2" x1="31.55" y1="68.05" x2="31.54" y2="68.06"/><path class="cls-2" d="M36.11,68.31a6.29,6.29,0,0,0-4.56-.26c2.63-1.93,4.44-4.7,4.44-10.2a3.91,3.91,0,0,0-2.2-3.35,8,8,0,0,0-7.26,0l-.05,0-.08,0c-7.6,3.7-11.62,9.14-15.87,14.9a.39.39,0,0,0,.11.55.45.45,0,0,0,.59-.11c4.09-5.53,8-10.77,15-14.37V86.65c-4.54,2.11-9.18,1.71-14.1,1.28l-1.24-.1a.41.41,0,0,0-.45.37.4.4,0,0,0,.39.42l1.23.1c1.93.17,3.87.34,5.82.34a20.17,20.17,0,0,0,8.92-1.8l.05,0,.08,0c7.56-3.67,11.4-8.12,11.4-13.24C38.35,71,37.64,69.18,36.11,68.31Zm-9,1.36V55.16a7,7,0,0,1,6.25,0,3.17,3.17,0,0,1,1.79,2.68c0,7.58-3.5,9.6-8,11.82h0l-.06,0A.09.09,0,0,1,27.1,69.67Zm0,16.57V70.55c4.1-2,7-2.48,8.58-1.56,1.25.7,1.82,2.28,1.82,5C37.5,78.63,34,82.75,27.1,86.24Z"/><line class="cls-2" x1="31.55" y1="68.05" x2="31.54" y2="68.06"/><path class="cls-2" d="M63.47,65.86a.44.44,0,0,0-.57.18c-1.25,2.33-2.57,4.11-4.9,5.24-1.67.8-2.94,1-3.75.51-1.49-.84-1.54-3.71-1.54-5.91l2.37-1.22c4.62-2.34,8.62-4.37,8.62-6.21,0-2.48-.94-3.54-1.72-4a4.23,4.23,0,0,0-3.93.21c-4.62,2.24-6.18,5-6.18,11h0c0,2.55,0,5.71,1.94,6.82a3.1,3.1,0,0,0,1.51.37A7.07,7.07,0,0,0,58.38,72a12,12,0,0,0,5.28-5.58A.39.39,0,0,0,63.47,65.86Zm-5-10.48a3.39,3.39,0,0,1,3.1-.24c.86.49,1.32,1.63,1.32,3.31,0,1.37-4.35,3.58-8.19,5.52-.65.33-1.31.66-2,1C52.83,59.77,54.29,57.39,58.44,55.38Z"/><path class="cls-2" d="M88.21,24.91V42.16a2.21,2.21,0,0,0-.39-.28,2.87,2.87,0,0,0-1.46-.36,5.85,5.85,0,0,0-2.47.64c-4.55,2.21-6.67,5.89-6.67,11.61,0,3.14.77,5.17,2.29,6a3.54,3.54,0,0,0,1.78.45,7,7,0,0,0,3-.81,14,14,0,0,0,3.92-2.56h.85v-32Zm0,30.28c0,.66-.75,1.81-4.32,3.55-1.66.8-3,.93-3.94.38-1.23-.7-1.88-2.54-1.88-5.35a13.43,13.43,0,0,1,1.49-6.72,10.41,10.41,0,0,1,4.72-4.19,3.54,3.54,0,0,1,3.1-.31,1.93,1.93,0,0,1,.83,1.84Z"/></g></g></svg>