<svg xmlns="http://www.w3.org/2000/svg" viewBox="0 0 86.63 86.63"><defs><style>.cls-1{fill:#fff;}.cls-2{fill:lime;stroke:lime;}.cls-2,.cls-3{stroke-linecap:round;stroke-linejoin:round;}.cls-3{fill:#f0f;stroke:#f0f;}</style></defs><title>Favicon_3</title><g id="Layer_2" data-name="Layer 2"><g id="Layer_1-2" data-name="Layer 1"><rect class="cls-1" width="86.63" height="86.63"/><path class="cls-2" d="M43.32,4.94c-21.82,0-39.5,13.88-39.5,31V84.08h12.5V53h54V84.08h12.5V35.94C82.82,18.82,65.13,4.94,43.32,4.94Zm27,39.24h-54V35.94c0-10.22,12.09-18.5,27-18.5s27,8.28,27,18.5Z"/><path class="cls-3" d="M51.34,41.59a15.4,15.4,0,1,0-30-4.85V62.08a22,22,0,1,0,30-20.49ZM36.72,28.29a8.45,8.45,0,0,1,7.74,11.82l-1.14,0a21.84,21.84,0,0,0-11.71,3.37,8.44,8.44,0,0,1,5.11-15.16Zm6.6,47.29a13.5,13.5,0,1,1,13.5-13.5A13.49,13.49,0,0,1,43.32,75.58Z"/></g></g></svg>