<svg xmlns="http://www.w3.org/2000/svg" viewBox="0 0 120.5 422.51"><defs><style>.cls-1{fill:#666;}.cls-1,.cls-2,.cls-3,.cls-4,.cls-5,.cls-7{stroke:#000;}.cls-1,.cls-3,.cls-7{stroke-linecap:round;stroke-linejoin:round;}.cls-1,.cls-2,.cls-7{stroke-width:0.5px;}.cls-2{fill:#fcd833;}.cls-2,.cls-4,.cls-5,.cls-6{stroke-miterlimit:10;}.cls-3,.cls-4{fill:#333;}.cls-5,.cls-6{fill:none;}.cls-6{stroke:#b92200;}.cls-7{fill:#ccc;}</style></defs><title>First_1</title><g id="Layer_2" data-name="Layer 2"><g id="Layer_1-2" data-name="Layer 1"><polygon class="cls-1" points="120.25 395.47 20.25 422.26 0.25 416.9 100.25 390.11 120.25 395.47"/><polygon class="cls-1" points="120.25 21.47 120.25 395.47 100.25 390.11 100.25 16.11 120.25 21.47"/><path class="cls-2" d="M100.25,16.11v374L.25,416.9V42.9c0-14.36,22.39-32,50-39.4S100.25,1.75,100.25,16.11Z"/><polygon class="cls-3" points="104.47 31.2 104.47 396.5 94.47 399.17 94.47 43.87 34.47 59.95 34.47 415.25 24.47 417.93 24.47 52.63 104.47 31.2"/><polygon class="cls-3" points="104.47 31.19 24.47 52.63 14.44 49.95 94.44 28.52 104.47 31.19"/><polygon class="cls-3" points="24.47 52.63 24.47 417.93 14.44 415.26 14.44 49.95 24.47 52.63"/><polygon class="cls-4" points="94.47 43.87 94.47 399.17 84.44 396.5 84.44 46.56 94.47 43.87"/><line class="cls-5" x1="115.25" y1="24.82" x2="115.24" y2="24.81"/><line class="cls-6" x1="95.39" y1="394.19" x2="95.4" y2="394.19"/><line class="cls-6" x1="26.34" y1="413.2" x2="26.33" y2="413.2"/><polygon class="cls-7" points="20.25 48.26 20.25 422.26 0.25 416.9 0.25 42.9 20.25 48.26"/><path class="cls-7" d="M104.71,6.8c-9-2-21.1-1.51-34.46,2.07-27.61,7.4-50,25-50,39.4l-20-5.36c0-14.36,22.39-32,50-39.4C64-.17,76.41-.62,85.44,1.61L86.82,2h0Z"/><path class="cls-1" d="M120.25,21.47l-20-5.36A12.61,12.61,0,0,0,94.62,5.63C109.91,6,120.25,11.71,120.25,21.47Z"/></g></g></svg>