<svg xmlns="http://www.w3.org/2000/svg" viewBox="0 0 124.94 124.44"><defs><style>.cls-1,.cls-2{fill:none;}.cls-2{stroke:#fff;stroke-miterlimit:10;stroke-width:0.5px;}.cls-3{fill:#fff;}</style></defs><title>LogoWhite_1</title><g id="Layer_2" data-name="Layer 2"><g id="Layer_1-2" data-name="Layer 1"><rect class="cls-1" x="0.25" width="124.44" height="124.44"/><polyline class="cls-2" points="0.25 61.28 0.25 15.26 94.34 15.26 115.19 15.26 124.69 15.26 124.69 18.69"/><polyline class="cls-2" points="124.69 38.49 124.69 86.89 46.23 86.89 8.76 86.89 0.25 86.89 0.25 84"/><polyline class="cls-2" points="5.7 59.11 1.99 25.43 94.34 15.26 114.95 12.99 115.19 15.26 115.65 19.4"/><polyline class="cls-2" points="118.64 46.47 122.16 78.54 46.23 86.89 9.21 90.97 8.76 86.89 8.31 82.81"/><path class="cls-3" d="M119.81,28.87c-3.18,0-5.1,2.52-10.21,2.52l-19,1.19a11.49,11.49,0,0,0-6,1.7c-.2-2.06-4.13-3.06-12.19-2.87-4.31-3.05-9.22-3.06-15.06,1.78a6.84,6.84,0,0,1-2.77,7.49c-2.09.75-2,1.5,2,1.5q3.51-2.32,2.72.78a38.18,38.18,0,0,1-15.07,2.58A76.92,76.92,0,0,0,42,30.1c-1.52-4.49-2.29-4.64-5.69-1.48L21,52.83c-1.62.28-3.28.53-5,.79-4.3,1.41-6.41,7.72-.84,6l2.18-1.05L10.69,69c-.57.8-1.27,1-1.71.3-.75-1.77-2.26-1.67-2.26.38l.53,7.38c0,.63,1.41.47,2.34-.46L21.26,56.72c7-3.14,13.47-5.35,18.68-5.51.84-.16,1.31,0,1.14,1.38C39.87,61.06,40.25,67.65,42.5,72c1,.85,7.39-3.32,6.35-5.25-1.76-4-2.73-9-2.65-15.57,5.77-.44,10.28-1.69,13.55-3.72-1.84,4.72-3.62,9.51-3.62,14.82,0,4.94-1.76,12.29-6.2,12.29-1.33,0-2.4,1.81-2.4,4s1.07,4,2.4,4c7.69,0,10.75-30.87,11.59-30.87,1.64,0,2.39,2.2,2.58,4.13,0,3.53,12.6,12.76,19.76,12.76,3,0,4.08-1.63,1.57-3.28-9.72-3-15.35-9.13-16-19A80.29,80.29,0,0,0,81.28,39c.86,1.33,1.5,2.79,3,2.79,2.61,0,4.78-5.7,6.69-5.7h6.49c.94,0-.78,5.7-.78,9.07,0,2.07-3.18,5.53-3.18,9.3-.23,5.77-5,11-5,15.74,0,.77,4.31.81,5.37-.25,2.45-2.45,4.83-13.15,4.83-19.89,0-3.56,5.77-11.76,5.77-14.81,0-.73,4.93-1.1,4.93,0,0,1.62,4.89.72,6.3-.69C117.55,32.62,122.16,28.87,119.81,28.87ZM39.06,48.81a140.26,140.26,0,0,1-15.22,3.53l9-15.28c1.88-2,3-1.93,3.36.09a12.72,12.72,0,0,0,3.26,6.52A8.27,8.27,0,0,1,39.06,48.81Zm23.1-1.32,3.59-10.56c5.26-.72,13-2.77,13,.31C78.8,40.14,68.35,44.23,62.16,47.49Z"/><path class="cls-3" d="M52.31,105.14a5,5,0,0,0,.59-1.27,7.32,7.32,0,0,0,0-4c-.41-1.33-1.2-2.27-2.13-2.39h-8v16.26h2.41v-7.44h4.21c.77,0,1.4,1.13,1.4,2.51v4.93h2.41v-4.93a8.44,8.44,0,0,0-.37-2.51A5.44,5.44,0,0,0,52.31,105.14Zm-2.94-1.27H45.16v-4h4.21c.77,0,1.4.9,1.4,2S50.14,103.87,49.37,103.87Z"/><polygon class="cls-3" points="62 99.86 62 103.87 66.84 103.87 66.84 106.28 62 106.28 62 111.31 68.42 111.31 68.42 113.72 59.59 113.72 59.59 97.45 68.42 97.45 68.42 99.86 62 99.86"/><polygon class="cls-3" points="85.26 97.45 85.26 113.72 82.85 113.72 77.24 102.59 77.24 113.72 74.83 113.72 74.83 97.45 77.24 97.45 78.45 99.86 80.47 103.87 81.69 106.28 82.85 108.59 82.85 97.45 85.26 97.45"/><path class="cls-3" d="M35.47,105.14a5,5,0,0,0,.59-1.27,7.32,7.32,0,0,0,0-4c-.44-1.43-1.32-2.4-2.33-2.4H25.91v16.26h7.82c1,0,1.78-1,2.24-2.41a8.73,8.73,0,0,0,0-5A6,6,0,0,0,35.47,105.14Zm-2.91,6.17H28.32v-5h4.24c.79,0,1.44,1.12,1.44,2.51S33.35,111.31,32.56,111.31Zm0-7.44H28.32v-4h4.24c.79,0,1.44.9,1.44,2S33.35,103.87,32.56,103.87Z"/><path class="cls-3" d="M102.08,99.86a2.57,2.57,0,0,0-2.59-2.4H91.67v16.26h7.82a2.6,2.6,0,0,0,2.59-2.41.65.65,0,0,0,0-.2v-11A.71.71,0,0,0,102.08,99.86ZM99.69,110a1.3,1.3,0,0,1-1.3,1.3H94.08V99.86h4.31a1.31,1.31,0,0,1,1.3,1.31Z"/></g></g></svg>