<svg xmlns="http://www.w3.org/2000/svg" viewBox="0 0 124.44 124.44"><defs><style>.cls-1,.cls-2{fill:none;}.cls-2{stroke:#fff;stroke-miterlimit:10;stroke-width:0.5px;}.cls-3{fill:#fff;}</style></defs><title>LogoWhite</title><g id="Layer_2" data-name="Layer 2"><g id="Layer_1-2" data-name="Layer 1"><rect class="cls-1" width="124.44" height="124.44"/><polyline class="cls-2" points="16.84 60.08 16.84 28.2 82.02 28.2 96.47 28.2 103.05 28.2 103.05 30.57"/><polyline class="cls-2" points="103.05 44.29 103.05 77.82 48.69 77.82 22.74 77.82 16.84 77.82 16.84 75.81"/><polyline class="cls-2" points="20.62 58.58 18.05 35.24 82.02 28.2 96.3 26.63 96.47 28.2 96.78 31.07"/><polyline class="cls-2" points="98.85 49.81 101.3 72.03 48.69 77.82 23.05 80.64 22.74 77.82 22.43 74.99"/><path class="cls-3" d="M99.66,37.63c-2.2,0-3.53,1.74-7.07,1.74l-13.13.83a8.09,8.09,0,0,0-4.15,1.17c-.14-1.43-2.86-2.12-8.43-2-3-2.12-6.39-2.12-10.44,1.23a4.73,4.73,0,0,1-1.92,5.18c-1.45.53-1.35,1.05,1.38,1.05q2.43-1.62,1.89.54a26.47,26.47,0,0,1-10.45,1.78,52.54,52.54,0,0,0-1.55-10.69c-1-3.11-1.58-3.22-3.94-1L31.19,54.23l-3.44.54c-3,1-4.43,5.34-.58,4.14.51-.25,1-.5,1.51-.73l-4.6,7.25c-.4.55-.89.72-1.19.2-.52-1.22-1.56-1.15-1.56.26L21.69,71c0,.43,1,.32,1.63-.32L31.4,56.92c4.86-2.18,9.33-3.71,12.94-3.82.58-.11.91,0,.79.95-.84,5.88-.58,10.44,1,13.47.67.59,5.12-2.29,4.4-3.63A25.55,25.55,0,0,1,48.68,53.1a20.82,20.82,0,0,0,9.38-2.58c-1.27,3.27-2.51,6.59-2.51,10.27,0,3.42-1.21,8.51-4.29,8.51-.92,0-1.67,1.26-1.67,2.8s.75,2.81,1.67,2.81c5.33,0,7.44-21.38,8-21.38,1.14,0,1.65,1.52,1.79,2.85,0,2.45,8.72,8.85,13.68,8.85,2,0,2.83-1.14,1.09-2.28-6.74-2.1-10.64-6.32-11.11-13.13A55.15,55.15,0,0,0,73,44.62c.59.92,1,1.93,2.06,1.93,1.81,0,3.31-3.95,4.63-3.95h4.5c.65,0-.54,3.95-.54,6.29,0,1.43-2.21,3.83-2.21,6.44-.15,4-3.48,7.62-3.48,10.91,0,.53,3,.56,3.72-.18C83.36,64.36,85,57,85,52.28c0-2.46,4-8.14,4-10.25,0-.51,3.42-.77,3.42,0,0,1.11,3.39.49,4.37-.49C98.1,40.23,101.3,37.63,99.66,37.63ZM43.73,51.44a96.05,96.05,0,0,1-10.55,2.44L39.39,43.3q1.95-2,2.33.06A8.77,8.77,0,0,0,44,47.88,5.74,5.74,0,0,1,43.73,51.44Zm16-.92,2.49-7.31c3.64-.5,9-1.92,9,.22S64,48.27,59.73,50.52Z"/><path class="cls-3" d="M52.91,90.46a3.23,3.23,0,0,0,.4-.88,4.93,4.93,0,0,0,0-2.78c-.28-.92-.82-1.57-1.47-1.65H46.29V96.4H48V91.25h2.92c.53,0,1,.78,1,1.74V96.4h1.67V93a5.79,5.79,0,0,0-.26-1.74A3.83,3.83,0,0,0,52.91,90.46Zm-2-.88H48V86.8h2.92c.53,0,1,.62,1,1.39S51.4,89.58,50.87,89.58Z"/><polygon class="cls-3" points="59.62 86.8 59.62 89.58 62.97 89.58 62.97 91.25 59.62 91.25 59.62 94.74 64.06 94.74 64.06 96.4 57.95 96.4 57.95 85.14 64.06 85.14 64.06 86.8 59.62 86.8"/><polygon class="cls-3" points="75.73 85.14 75.73 96.4 74.06 96.4 70.17 88.69 70.17 96.4 68.51 96.4 68.51 85.14 70.17 85.14 71.01 86.8 72.41 89.58 73.26 91.25 74.06 92.85 74.06 85.14 75.73 85.14"/><path class="cls-3" d="M41.24,90.46a3.57,3.57,0,0,0,.41-.88,5.18,5.18,0,0,0,0-2.78c-.3-1-.91-1.66-1.61-1.66H34.62V96.4H40c.65,0,1.23-.66,1.55-1.66A5.91,5.91,0,0,0,41.84,93a5.8,5.8,0,0,0-.25-1.74A3.84,3.84,0,0,0,41.24,90.46Zm-2,4.28H36.29V91.25h2.94c.55,0,1,.77,1,1.74S39.78,94.74,39.23,94.74Zm0-5.16H36.29V86.8h2.94c.55,0,1,.62,1,1.39S39.78,89.58,39.23,89.58Z"/><path class="cls-3" d="M87.39,86.8a1.78,1.78,0,0,0-1.8-1.66H80.17V96.4h5.42a1.81,1.81,0,0,0,1.8-1.66.71.71,0,0,0,0-.14V86.94A.71.71,0,0,0,87.39,86.8Zm-1.66,7a.91.91,0,0,1-.9.91h-3V86.8h3a.91.91,0,0,1,.9.91Z"/></g></g></svg>