<svg xmlns="http://www.w3.org/2000/svg" xmlns:xlink="http://www.w3.org/1999/xlink" viewBox="0 0 206 86"><defs><style>.cls-1,.cls-2{fill:#ffc72c;}.cls-10,.cls-11,.cls-12,.cls-13,.cls-14,.cls-15,.cls-16,.cls-17,.cls-18,.cls-19,.cls-2,.cls-20,.cls-21,.cls-22,.cls-23,.cls-24,.cls-25,.cls-26,.cls-27,.cls-28,.cls-29,.cls-30,.cls-31,.cls-32,.cls-33,.cls-34,.cls-35,.cls-36,.cls-37,.cls-38,.cls-39,.cls-40,.cls-41,.cls-42,.cls-43,.cls-44,.cls-45,.cls-46,.cls-47,.cls-48,.cls-49,.cls-5,.cls-50,.cls-51,.cls-52,.cls-53,.cls-54,.cls-55,.cls-56,.cls-57,.cls-58,.cls-59,.cls-6,.cls-60,.cls-61,.cls-62,.cls-63,.cls-64,.cls-65,.cls-66,.cls-67,.cls-68,.cls-69,.cls-7,.cls-70,.cls-71,.cls-72,.cls-73,.cls-74,.cls-8,.cls-9{stroke:#ffc72c;}.cls-10,.cls-11,.cls-12,.cls-13,.cls-14,.cls-15,.cls-16,.cls-17,.cls-18,.cls-19,.cls-2,.cls-20,.cls-21,.cls-22,.cls-23,.cls-24,.cls-25,.cls-26,.cls-27,.cls-28,.cls-29,.cls-30,.cls-31,.cls-32,.cls-33,.cls-34,.cls-35,.cls-36,.cls-37,.cls-38,.cls-39,.cls-4,.cls-40,.cls-41,.cls-42,.cls-43,.cls-44,.cls-45,.cls-46,.cls-47,.cls-48,.cls-49,.cls-5,.cls-50,.cls-51,.cls-52,.cls-53,.cls-54,.cls-55,.cls-56,.cls-57,.cls-58,.cls-59,.cls-6,.cls-60,.cls-61,.cls-62,.cls-63,.cls-64,.cls-65,.cls-66,.cls-67,.cls-68,.cls-69,.cls-7,.cls-70,.cls-71,.cls-72,.cls-73,.cls-74,.cls-8,.cls-9{stroke-miterlimit:10;}.cls-3{opacity:0.77;}.cls-4{stroke:#000;}.cls-5{fill:url(#radial-gradient);}.cls-6{fill:url(#radial-gradient-2);}.cls-7{fill:url(#radial-gradient-3);}.cls-8{fill:url(#radial-gradient-4);}.cls-9{fill:url(#radial-gradient-5);}.cls-10{fill:url(#radial-gradient-6);}.cls-11{fill:url(#radial-gradient-7);}.cls-12{fill:url(#radial-gradient-8);}.cls-13{fill:url(#radial-gradient-9);}.cls-14{fill:url(#radial-gradient-10);}.cls-15{fill:url(#radial-gradient-11);}.cls-16{fill:url(#radial-gradient-12);}.cls-17{fill:url(#radial-gradient-13);}.cls-18{fill:url(#radial-gradient-14);}.cls-19{fill:url(#radial-gradient-15);}.cls-20{fill:url(#radial-gradient-16);}.cls-21{fill:url(#radial-gradient-17);}.cls-22{fill:url(#radial-gradient-18);}.cls-23{fill:url(#radial-gradient-19);}.cls-24{fill:url(#radial-gradient-20);}.cls-25{fill:url(#radial-gradient-21);}.cls-26{fill:url(#radial-gradient-22);}.cls-27{fill:url(#radial-gradient-23);}.cls-28{fill:url(#radial-gradient-24);}.cls-29{fill:url(#radial-gradient-25);}.cls-30{fill:url(#radial-gradient-26);}.cls-31{fill:url(#radial-gradient-27);}.cls-32{fill:url(#radial-gradient-28);}.cls-33{fill:url(#radial-gradient-29);}.cls-34{fill:url(#radial-gradient-30);}.cls-35{fill:url(#radial-gradient-31);}.cls-36{fill:url(#radial-gradient-32);}.cls-37{fill:url(#radial-gradient-33);}.cls-38{fill:url(#radial-gradient-34);}.cls-39{fill:url(#radial-gradient-35);}.cls-40{fill:url(#radial-gradient-36);}.cls-41{fill:url(#radial-gradient-37);}.cls-42{fill:url(#radial-gradient-38);}.cls-43{fill:url(#radial-gradient-39);}.cls-44{fill:url(#radial-gradient-40);}.cls-45{fill:url(#radial-gradient-41);}.cls-46{fill:url(#radial-gradient-42);}.cls-47{fill:url(#radial-gradient-43);}.cls-48{fill:url(#radial-gradient-44);}.cls-49{fill:url(#radial-gradient-45);}.cls-50{fill:url(#radial-gradient-46);}.cls-51{fill:url(#radial-gradient-47);}.cls-52{fill:url(#radial-gradient-48);}.cls-53{fill:url(#radial-gradient-49);}.cls-54{fill:url(#radial-gradient-50);}.cls-55{fill:url(#radial-gradient-51);}.cls-56{fill:url(#radial-gradient-52);}.cls-57{fill:url(#radial-gradient-53);}.cls-58{fill:url(#radial-gradient-54);}.cls-59{fill:url(#radial-gradient-55);}.cls-60{fill:url(#radial-gradient-56);}.cls-61{fill:url(#radial-gradient-57);}.cls-62{fill:url(#radial-gradient-58);}.cls-63{fill:url(#radial-gradient-59);}.cls-64{fill:url(#radial-gradient-60);}.cls-65{fill:url(#radial-gradient-61);}.cls-66{fill:url(#radial-gradient-62);}.cls-67{fill:url(#radial-gradient-63);}.cls-68{fill:url(#radial-gradient-64);}.cls-69{fill:url(#radial-gradient-65);}.cls-70{fill:url(#radial-gradient-66);}.cls-71{fill:url(#radial-gradient-67);}.cls-72{fill:url(#radial-gradient-68);}.cls-73{fill:url(#radial-gradient-69);}.cls-74{fill:url(#radial-gradient-70);}</style><radialGradient id="radial-gradient" cx="19" cy="19" r="2.5" gradientTransform="translate(-4.29 -4.78) scale(1.04 1.11)" gradientUnits="userSpaceOnUse"><stop offset="0" stop-color="#fff"/><stop offset="0.06" stop-color="#fff8e6"/><stop offset="0.18" stop-color="#ffebb5"/><stop offset="0.31" stop-color="#ffe08b"/><stop offset="0.45" stop-color="#ffd769"/><stop offset="0.58" stop-color="#ffd04e"/><stop offset="0.71" stop-color="#ffcb3b"/><stop offset="0.85" stop-color="#ffc830"/><stop offset="1" stop-color="#ffc72c"/></radialGradient><radialGradient id="radial-gradient-2" cx="19" cy="27" r="2.5" xlink:href="#radial-gradient"/><radialGradient id="radial-gradient-3" cx="19" cy="35" r="2.5" xlink:href="#radial-gradient"/><radialGradient id="radial-gradient-4" cx="19" cy="43" r="2.5" xlink:href="#radial-gradient"/><radialGradient id="radial-gradient-5" cx="19" cy="51" r="2.5" xlink:href="#radial-gradient"/><radialGradient id="radial-gradient-6" cx="19" cy="59" r="2.5" xlink:href="#radial-gradient"/><radialGradient id="radial-gradient-7" cx="19" cy="67" r="2.5" xlink:href="#radial-gradient"/><radialGradient id="radial-gradient-8" cx="27" cy="35" r="2.5" xlink:href="#radial-gradient"/><radialGradient id="radial-gradient-9" cx="35" cy="43" r="2.5" xlink:href="#radial-gradient"/><radialGradient id="radial-gradient-10" cx="43" cy="35" r="2.5" xlink:href="#radial-gradient"/><radialGradient id="radial-gradient-11" cx="51" cy="19" r="2.5" xlink:href="#radial-gradient"/><radialGradient id="radial-gradient-12" cx="51" cy="27" r="2.5" xlink:href="#radial-gradient"/><radialGradient id="radial-gradient-13" cx="51" cy="35" r="2.5" xlink:href="#radial-gradient"/><radialGradient id="radial-gradient-14" cx="51" cy="43" r="2.5" xlink:href="#radial-gradient"/><radialGradient id="radial-gradient-15" cx="51" cy="51" r="2.5" xlink:href="#radial-gradient"/><radialGradient id="radial-gradient-16" cx="51" cy="59" r="2.5" xlink:href="#radial-gradient"/><radialGradient id="radial-gradient-17" cx="51" cy="67" r="2.5" xlink:href="#radial-gradient"/><radialGradient id="radial-gradient-18" cx="67" cy="19" r="2.5" xlink:href="#radial-gradient"/><radialGradient id="radial-gradient-19" cx="67" cy="27" r="2.5" xlink:href="#radial-gradient"/><radialGradient id="radial-gradient-20" cx="67" cy="35" r="2.5" xlink:href="#radial-gradient"/><radialGradient id="radial-gradient-21" cx="67" cy="43" r="2.5" xlink:href="#radial-gradient"/><radialGradient id="radial-gradient-22" cx="67" cy="51" r="2.5" xlink:href="#radial-gradient"/><radialGradient id="radial-gradient-23" cx="67" cy="59" r="2.5" xlink:href="#radial-gradient"/><radialGradient id="radial-gradient-24" cx="67" cy="67" r="2.5" xlink:href="#radial-gradient"/><radialGradient id="radial-gradient-25" cx="75" cy="19" r="2.5" xlink:href="#radial-gradient"/><radialGradient id="radial-gradient-26" cx="75" cy="43" r="2.5" xlink:href="#radial-gradient"/><radialGradient id="radial-gradient-27" cx="75" cy="67" r="2.5" xlink:href="#radial-gradient"/><radialGradient id="radial-gradient-28" cx="83" cy="19" r="2.5" xlink:href="#radial-gradient"/><radialGradient id="radial-gradient-29" cx="83" cy="43" r="2.5" xlink:href="#radial-gradient"/><radialGradient id="radial-gradient-30" cx="83" cy="67" r="2.5" xlink:href="#radial-gradient"/><radialGradient id="radial-gradient-31" cx="91" cy="19" r="2.5" xlink:href="#radial-gradient"/><radialGradient id="radial-gradient-32" cx="91" cy="67" r="2.5" xlink:href="#radial-gradient"/><radialGradient id="radial-gradient-33" cx="107" cy="19" r="2.5" xlink:href="#radial-gradient"/><radialGradient id="radial-gradient-34" cx="107" cy="27" r="2.5" xlink:href="#radial-gradient"/><radialGradient id="radial-gradient-35" cx="107" cy="35" r="2.5" xlink:href="#radial-gradient"/><radialGradient id="radial-gradient-36" cx="107" cy="43" r="2.5" xlink:href="#radial-gradient"/><radialGradient id="radial-gradient-37" cx="107" cy="51" r="2.5" xlink:href="#radial-gradient"/><radialGradient id="radial-gradient-38" cx="107" cy="59" r="2.5" xlink:href="#radial-gradient"/><radialGradient id="radial-gradient-39" cx="107" cy="67" r="2.5" xlink:href="#radial-gradient"/><radialGradient id="radial-gradient-40" cx="115" cy="43" r="2.5" xlink:href="#radial-gradient"/><radialGradient id="radial-gradient-41" cx="123" cy="43" r="2.5" xlink:href="#radial-gradient"/><radialGradient id="radial-gradient-42" cx="131" cy="19" r="2.5" xlink:href="#radial-gradient"/><radialGradient id="radial-gradient-43" cx="131" cy="27" r="2.5" xlink:href="#radial-gradient"/><radialGradient id="radial-gradient-44" cx="131" cy="35" r="2.5" xlink:href="#radial-gradient"/><radialGradient id="radial-gradient-45" cx="131" cy="43" r="2.5" xlink:href="#radial-gradient"/><radialGradient id="radial-gradient-46" cx="131" cy="51" r="2.5" xlink:href="#radial-gradient"/><radialGradient id="radial-gradient-47" cx="131" cy="59" r="2.5" xlink:href="#radial-gradient"/><radialGradient id="radial-gradient-48" cx="131" cy="67" r="2.5" xlink:href="#radial-gradient"/><radialGradient id="radial-gradient-49" cx="147" cy="19" r="2.5" xlink:href="#radial-gradient"/><radialGradient id="radial-gradient-50" cx="147" cy="27" r="2.5" xlink:href="#radial-gradient"/><radialGradient id="radial-gradient-51" cx="147" cy="35" r="2.5" xlink:href="#radial-gradient"/><radialGradient id="radial-gradient-52" cx="147" cy="43" r="2.5" xlink:href="#radial-gradient"/><radialGradient id="radial-gradient-53" cx="147" cy="51" r="2.5" xlink:href="#radial-gradient"/><radialGradient id="radial-gradient-54" cx="147" cy="59" r="2.5" xlink:href="#radial-gradient"/><radialGradient id="radial-gradient-55" cx="147" cy="67" r="2.5" xlink:href="#radial-gradient"/><radialGradient id="radial-gradient-56" cx="155" cy="43" r="2.5" xlink:href="#radial-gradient"/><radialGradient id="radial-gradient-57" cx="163" cy="27" r="2.5" xlink:href="#radial-gradient"/><radialGradient id="radial-gradient-58" cx="163" cy="35" r="2.5" xlink:href="#radial-gradient"/><radialGradient id="radial-gradient-59" cx="163" cy="43" r="2.5" xlink:href="#radial-gradient"/><radialGradient id="radial-gradient-60" cx="163" cy="51" r="2.5" xlink:href="#radial-gradient"/><radialGradient id="radial-gradient-61" cx="163" cy="59" r="2.5" xlink:href="#radial-gradient"/><radialGradient id="radial-gradient-62" cx="171" cy="19" r="2.5" xlink:href="#radial-gradient"/><radialGradient id="radial-gradient-63" cx="171" cy="67" r="2.5" xlink:href="#radial-gradient"/><radialGradient id="radial-gradient-64" cx="179" cy="19" r="2.5" xlink:href="#radial-gradient"/><radialGradient id="radial-gradient-65" cx="179" cy="67" r="2.5" xlink:href="#radial-gradient"/><radialGradient id="radial-gradient-66" cx="187" cy="27" r="2.5" xlink:href="#radial-gradient"/><radialGradient id="radial-gradient-67" cx="187" cy="35" r="2.5" xlink:href="#radial-gradient"/><radialGradient id="radial-gradient-68" cx="187" cy="43" r="2.5" xlink:href="#radial-gradient"/><radialGradient id="radial-gradient-69" cx="187" cy="51" r="2.5" xlink:href="#radial-gradient"/><radialGradient id="radial-gradient-70" cx="187" cy="59" r="2.5" xlink:href="#radial-gradient"/></defs><title>Menu_1</title><g id="Layer_2" data-name="Layer 2"><g id="Layer_1-2" data-name="Layer 1"><rect x="1.5" y="1.5" width="203" height="83"/><path class="cls-1" d="M203,3V83H3V3H203m3-3H0V86H206V0Z"/><ellipse class="cls-2" cx="7.17" cy="7.44" rx="2.6" ry="2.78"/><ellipse class="cls-2" cx="7.17" cy="16.33" rx="2.6" ry="2.78"/><ellipse class="cls-2" cx="7.17" cy="25.22" rx="2.6" ry="2.78"/><ellipse class="cls-2" cx="7.17" cy="34.11" rx="2.6" ry="2.78"/><ellipse class="cls-2" cx="7.17" cy="43" rx="2.6" ry="2.78"/><ellipse class="cls-2" cx="7.17" cy="51.89" rx="2.6" ry="2.78"/><ellipse class="cls-2" cx="7.17" cy="60.78" rx="2.6" ry="2.78"/><ellipse class="cls-2" cx="7.17" cy="69.67" rx="2.6" ry="2.78"/><ellipse class="cls-2" cx="7.17" cy="78.56" rx="2.6" ry="2.78"/><ellipse class="cls-2" cx="15.5" cy="7.44" rx="2.6" ry="2.78"/><ellipse class="cls-2" cx="15.5" cy="78.56" rx="2.6" ry="2.78"/><ellipse class="cls-2" cx="23.83" cy="7.44" rx="2.6" ry="2.78"/><ellipse class="cls-2" cx="23.83" cy="16.33" rx="2.6" ry="2.78"/><ellipse class="cls-2" cx="23.83" cy="25.22" rx="2.6" ry="2.78"/><ellipse class="cls-2" cx="23.83" cy="43" rx="2.6" ry="2.78"/><ellipse class="cls-2" cx="23.83" cy="51.89" rx="2.6" ry="2.78"/><ellipse class="cls-2" cx="23.83" cy="60.78" rx="2.6" ry="2.78"/><ellipse class="cls-2" cx="23.83" cy="69.67" rx="2.6" ry="2.78"/><ellipse class="cls-2" cx="23.83" cy="78.56" rx="2.6" ry="2.78"/><ellipse class="cls-2" cx="32.17" cy="7.44" rx="2.6" ry="2.78"/><ellipse class="cls-2" cx="32.17" cy="16.33" rx="2.6" ry="2.78"/><ellipse class="cls-2" cx="32.17" cy="25.22" rx="2.6" ry="2.78"/><ellipse class="cls-2" cx="32.17" cy="34.11" rx="2.6" ry="2.78"/><ellipse class="cls-2" cx="32.17" cy="51.89" rx="2.6" ry="2.78"/><ellipse class="cls-2" cx="32.17" cy="60.78" rx="2.6" ry="2.78"/><ellipse class="cls-2" cx="32.17" cy="69.67" rx="2.6" ry="2.78"/><ellipse class="cls-2" cx="32.17" cy="78.56" rx="2.6" ry="2.78"/><ellipse class="cls-2" cx="40.5" cy="7.44" rx="2.6" ry="2.78"/><ellipse class="cls-2" cx="40.5" cy="16.33" rx="2.6" ry="2.78"/><ellipse class="cls-2" cx="40.5" cy="25.22" rx="2.6" ry="2.78"/><ellipse class="cls-2" cx="40.5" cy="43" rx="2.6" ry="2.78"/><ellipse class="cls-2" cx="40.5" cy="51.89" rx="2.6" ry="2.78"/><ellipse class="cls-2" cx="40.5" cy="60.78" rx="2.6" ry="2.78"/><ellipse class="cls-2" cx="40.5" cy="69.67" rx="2.6" ry="2.78"/><ellipse class="cls-2" cx="40.5" cy="78.56" rx="2.6" ry="2.78"/><ellipse class="cls-2" cx="48.83" cy="7.44" rx="2.6" ry="2.78"/><ellipse class="cls-2" cx="48.83" cy="78.56" rx="2.6" ry="2.78"/><ellipse class="cls-2" cx="57.17" cy="7.44" rx="2.6" ry="2.78"/><ellipse class="cls-2" cx="57.17" cy="16.33" rx="2.6" ry="2.78"/><ellipse class="cls-2" cx="57.17" cy="25.22" rx="2.6" ry="2.78"/><ellipse class="cls-2" cx="57.17" cy="34.11" rx="2.6" ry="2.78"/><ellipse class="cls-2" cx="57.17" cy="43" rx="2.6" ry="2.78"/><ellipse class="cls-2" cx="57.17" cy="51.89" rx="2.6" ry="2.78"/><ellipse class="cls-2" cx="57.17" cy="60.78" rx="2.6" ry="2.78"/><ellipse class="cls-2" cx="57.17" cy="69.67" rx="2.6" ry="2.78"/><ellipse class="cls-2" cx="57.17" cy="78.56" rx="2.6" ry="2.78"/><ellipse class="cls-2" cx="65.5" cy="7.44" rx="2.6" ry="2.78"/><ellipse class="cls-2" cx="65.5" cy="78.56" rx="2.6" ry="2.78"/><ellipse class="cls-2" cx="73.83" cy="7.44" rx="2.6" ry="2.78"/><ellipse class="cls-2" cx="73.83" cy="25.22" rx="2.6" ry="2.78"/><ellipse class="cls-2" cx="73.83" cy="34.11" rx="2.6" ry="2.78"/><ellipse class="cls-2" cx="73.83" cy="51.89" rx="2.6" ry="2.78"/><ellipse class="cls-2" cx="73.83" cy="60.78" rx="2.6" ry="2.78"/><ellipse class="cls-2" cx="73.83" cy="78.56" rx="2.6" ry="2.78"/><ellipse class="cls-2" cx="82.17" cy="7.44" rx="2.6" ry="2.78"/><ellipse class="cls-2" cx="82.17" cy="25.22" rx="2.6" ry="2.78"/><ellipse class="cls-2" cx="82.17" cy="34.11" rx="2.6" ry="2.78"/><ellipse class="cls-2" cx="82.17" cy="51.89" rx="2.6" ry="2.78"/><ellipse class="cls-2" cx="82.17" cy="60.78" rx="2.6" ry="2.78"/><ellipse class="cls-2" cx="82.17" cy="78.56" rx="2.6" ry="2.78"/><ellipse class="cls-2" cx="90.5" cy="7.44" rx="2.6" ry="2.78"/><ellipse class="cls-2" cx="90.5" cy="25.22" rx="2.6" ry="2.78"/><ellipse class="cls-2" cx="90.5" cy="34.11" rx="2.6" ry="2.78"/><ellipse class="cls-2" cx="90.5" cy="43" rx="2.6" ry="2.78"/><ellipse class="cls-2" cx="90.5" cy="51.89" rx="2.6" ry="2.78"/><ellipse class="cls-2" cx="90.5" cy="60.78" rx="2.6" ry="2.78"/><ellipse class="cls-2" cx="90.5" cy="78.56" rx="2.6" ry="2.78"/><ellipse class="cls-2" cx="98.83" cy="7.44" rx="2.6" ry="2.78"/><ellipse class="cls-2" cx="98.83" cy="16.33" rx="2.6" ry="2.78"/><ellipse class="cls-2" cx="98.83" cy="25.22" rx="2.6" ry="2.78"/><ellipse class="cls-2" cx="98.83" cy="34.11" rx="2.6" ry="2.78"/><ellipse class="cls-2" cx="98.83" cy="43" rx="2.6" ry="2.78"/><ellipse class="cls-2" cx="98.83" cy="51.89" rx="2.6" ry="2.78"/><ellipse class="cls-2" cx="98.83" cy="60.78" rx="2.6" ry="2.78"/><ellipse class="cls-2" cx="98.83" cy="69.67" rx="2.6" ry="2.78"/><ellipse class="cls-2" cx="98.83" cy="78.56" rx="2.6" ry="2.78"/><ellipse class="cls-2" cx="107.17" cy="7.44" rx="2.6" ry="2.78"/><ellipse class="cls-2" cx="107.17" cy="78.56" rx="2.6" ry="2.78"/><ellipse class="cls-2" cx="115.5" cy="7.44" rx="2.6" ry="2.78"/><ellipse class="cls-2" cx="115.5" cy="16.33" rx="2.6" ry="2.78"/><ellipse class="cls-2" cx="115.5" cy="25.22" rx="2.6" ry="2.78"/><ellipse class="cls-2" cx="115.5" cy="34.11" rx="2.6" ry="2.78"/><ellipse class="cls-2" cx="115.5" cy="51.89" rx="2.6" ry="2.78"/><ellipse class="cls-2" cx="115.5" cy="60.78" rx="2.6" ry="2.78"/><ellipse class="cls-2" cx="115.5" cy="69.67" rx="2.6" ry="2.78"/><ellipse class="cls-2" cx="115.5" cy="78.56" rx="2.6" ry="2.78"/><ellipse class="cls-2" cx="123.83" cy="7.44" rx="2.6" ry="2.78"/><ellipse class="cls-2" cx="123.83" cy="16.33" rx="2.6" ry="2.78"/><ellipse class="cls-2" cx="123.83" cy="25.22" rx="2.6" ry="2.78"/><ellipse class="cls-2" cx="123.83" cy="34.11" rx="2.6" ry="2.78"/><ellipse class="cls-2" cx="123.83" cy="51.89" rx="2.6" ry="2.78"/><ellipse class="cls-2" cx="123.83" cy="60.78" rx="2.6" ry="2.78"/><ellipse class="cls-2" cx="123.83" cy="69.67" rx="2.6" ry="2.78"/><ellipse class="cls-2" cx="123.83" cy="78.56" rx="2.6" ry="2.78"/><ellipse class="cls-2" cx="132.17" cy="7.44" rx="2.6" ry="2.78"/><ellipse class="cls-2" cx="132.17" cy="78.56" rx="2.6" ry="2.78"/><ellipse class="cls-2" cx="140.5" cy="7.44" rx="2.6" ry="2.78"/><ellipse class="cls-2" cx="140.5" cy="16.33" rx="2.6" ry="2.78"/><ellipse class="cls-2" cx="140.5" cy="25.22" rx="2.6" ry="2.78"/><ellipse class="cls-2" cx="140.5" cy="34.11" rx="2.6" ry="2.78"/><ellipse class="cls-2" cx="140.5" cy="43" rx="2.6" ry="2.78"/><ellipse class="cls-2" cx="140.5" cy="51.89" rx="2.6" ry="2.78"/><ellipse class="cls-2" cx="140.5" cy="60.78" rx="2.6" ry="2.78"/><ellipse class="cls-2" cx="140.5" cy="69.67" rx="2.6" ry="2.78"/><ellipse class="cls-2" cx="140.5" cy="78.56" rx="2.6" ry="2.78"/><ellipse class="cls-2" cx="148.83" cy="7.44" rx="2.6" ry="2.78"/><ellipse class="cls-2" cx="148.83" cy="78.56" rx="2.6" ry="2.78"/><ellipse class="cls-2" cx="157.17" cy="7.44" rx="2.6" ry="2.78"/><ellipse class="cls-2" cx="157.17" cy="16.33" rx="2.6" ry="2.78"/><ellipse class="cls-2" cx="157.17" cy="25.22" rx="2.6" ry="2.78"/><ellipse class="cls-2" cx="157.17" cy="34.11" rx="2.6" ry="2.78"/><ellipse class="cls-2" cx="157.17" cy="51.89" rx="2.6" ry="2.78"/><ellipse class="cls-2" cx="157.17" cy="60.78" rx="2.6" ry="2.78"/><ellipse class="cls-2" cx="157.17" cy="69.67" rx="2.6" ry="2.78"/><ellipse class="cls-2" cx="157.17" cy="78.56" rx="2.6" ry="2.78"/><ellipse class="cls-2" cx="165.5" cy="7.44" rx="2.6" ry="2.78"/><ellipse class="cls-2" cx="165.5" cy="16.33" rx="2.6" ry="2.78"/><ellipse class="cls-2" cx="165.5" cy="69.67" rx="2.6" ry="2.78"/><ellipse class="cls-2" cx="165.5" cy="78.56" rx="2.6" ry="2.78"/><ellipse class="cls-2" cx="173.83" cy="7.44" rx="2.6" ry="2.78"/><ellipse class="cls-2" cx="173.83" cy="25.22" rx="2.6" ry="2.78"/><ellipse class="cls-2" cx="173.83" cy="34.11" rx="2.6" ry="2.78"/><ellipse class="cls-2" cx="173.83" cy="43" rx="2.6" ry="2.78"/><ellipse class="cls-2" cx="173.83" cy="51.89" rx="2.6" ry="2.78"/><ellipse class="cls-2" cx="173.83" cy="60.78" rx="2.6" ry="2.78"/><ellipse class="cls-2" cx="173.83" cy="78.56" rx="2.6" ry="2.78"/><ellipse class="cls-2" cx="182.17" cy="7.44" rx="2.6" ry="2.78"/><ellipse class="cls-2" cx="182.17" cy="25.22" rx="2.6" ry="2.78"/><ellipse class="cls-2" cx="182.17" cy="34.11" rx="2.6" ry="2.78"/><ellipse class="cls-2" cx="182.17" cy="43" rx="2.6" ry="2.78"/><ellipse class="cls-2" cx="182.17" cy="51.89" rx="2.6" ry="2.78"/><ellipse class="cls-2" cx="182.17" cy="60.78" rx="2.6" ry="2.78"/><ellipse class="cls-2" cx="182.17" cy="78.56" rx="2.6" ry="2.78"/><ellipse class="cls-2" cx="190.5" cy="7.44" rx="2.6" ry="2.78"/><ellipse class="cls-2" cx="190.5" cy="16.33" rx="2.6" ry="2.78"/><ellipse class="cls-2" cx="190.5" cy="69.67" rx="2.6" ry="2.78"/><ellipse class="cls-2" cx="190.5" cy="78.56" rx="2.6" ry="2.78"/><ellipse class="cls-2" cx="198.83" cy="7.44" rx="2.6" ry="2.78"/><ellipse class="cls-2" cx="198.83" cy="16.33" rx="2.6" ry="2.78"/><ellipse class="cls-2" cx="198.83" cy="25.22" rx="2.6" ry="2.78"/><ellipse class="cls-2" cx="198.83" cy="34.11" rx="2.6" ry="2.78"/><ellipse class="cls-2" cx="198.83" cy="43" rx="2.6" ry="2.78"/><ellipse class="cls-2" cx="198.83" cy="51.89" rx="2.6" ry="2.78"/><ellipse class="cls-2" cx="198.83" cy="60.78" rx="2.6" ry="2.78"/><ellipse class="cls-2" cx="198.83" cy="69.67" rx="2.6" ry="2.78"/><ellipse class="cls-2" cx="198.83" cy="78.56" rx="2.6" ry="2.78"/><g class="cls-3"><ellipse class="cls-4" cx="7.17" cy="7.44" rx="2.6" ry="2.78"/><ellipse class="cls-4" cx="7.17" cy="16.33" rx="2.6" ry="2.78"/><ellipse class="cls-4" cx="7.17" cy="25.22" rx="2.6" ry="2.78"/><ellipse class="cls-4" cx="7.17" cy="34.11" rx="2.6" ry="2.78"/><ellipse class="cls-4" cx="7.17" cy="43" rx="2.6" ry="2.78"/><ellipse class="cls-4" cx="7.17" cy="51.89" rx="2.6" ry="2.78"/><ellipse class="cls-4" cx="7.17" cy="60.78" rx="2.6" ry="2.78"/><ellipse class="cls-4" cx="7.17" cy="69.67" rx="2.6" ry="2.78"/><ellipse class="cls-4" cx="7.17" cy="78.56" rx="2.6" ry="2.78"/><ellipse class="cls-4" cx="15.5" cy="7.44" rx="2.6" ry="2.78"/><ellipse class="cls-4" cx="15.5" cy="78.56" rx="2.6" ry="2.78"/><ellipse class="cls-4" cx="23.83" cy="7.44" rx="2.6" ry="2.78"/><ellipse class="cls-4" cx="23.83" cy="16.33" rx="2.6" ry="2.78"/><ellipse class="cls-4" cx="23.83" cy="25.22" rx="2.6" ry="2.78"/><ellipse class="cls-4" cx="23.83" cy="43" rx="2.6" ry="2.78"/><ellipse class="cls-4" cx="23.83" cy="51.89" rx="2.6" ry="2.78"/><ellipse class="cls-4" cx="23.83" cy="60.78" rx="2.6" ry="2.78"/><ellipse class="cls-4" cx="23.83" cy="69.67" rx="2.6" ry="2.78"/><ellipse class="cls-4" cx="23.83" cy="78.56" rx="2.6" ry="2.78"/><ellipse class="cls-4" cx="32.17" cy="7.44" rx="2.6" ry="2.78"/><ellipse class="cls-4" cx="32.17" cy="16.33" rx="2.6" ry="2.78"/><ellipse class="cls-4" cx="32.17" cy="25.22" rx="2.6" ry="2.78"/><ellipse class="cls-4" cx="32.17" cy="34.11" rx="2.6" ry="2.78"/><ellipse class="cls-4" cx="32.17" cy="51.89" rx="2.6" ry="2.78"/><ellipse class="cls-4" cx="32.17" cy="60.78" rx="2.6" ry="2.78"/><ellipse class="cls-4" cx="32.17" cy="69.67" rx="2.6" ry="2.78"/><ellipse class="cls-4" cx="32.17" cy="78.56" rx="2.6" ry="2.78"/><ellipse class="cls-4" cx="40.5" cy="7.44" rx="2.6" ry="2.78"/><ellipse class="cls-4" cx="40.5" cy="16.33" rx="2.6" ry="2.78"/><ellipse class="cls-4" cx="40.5" cy="25.22" rx="2.6" ry="2.78"/><ellipse class="cls-4" cx="40.5" cy="43" rx="2.6" ry="2.78"/><ellipse class="cls-4" cx="40.5" cy="51.89" rx="2.6" ry="2.78"/><ellipse class="cls-4" cx="40.5" cy="60.78" rx="2.6" ry="2.78"/><ellipse class="cls-4" cx="40.5" cy="69.67" rx="2.6" ry="2.78"/><ellipse class="cls-4" cx="40.5" cy="78.56" rx="2.6" ry="2.78"/><ellipse class="cls-4" cx="48.83" cy="7.44" rx="2.6" ry="2.78"/><ellipse class="cls-4" cx="48.83" cy="78.56" rx="2.6" ry="2.78"/><ellipse class="cls-4" cx="57.17" cy="7.44" rx="2.6" ry="2.78"/><ellipse class="cls-4" cx="57.17" cy="16.33" rx="2.6" ry="2.78"/><ellipse class="cls-4" cx="57.17" cy="25.22" rx="2.6" ry="2.78"/><ellipse class="cls-4" cx="57.17" cy="34.11" rx="2.6" ry="2.78"/><ellipse class="cls-4" cx="57.17" cy="43" rx="2.6" ry="2.78"/><ellipse class="cls-4" cx="57.17" cy="51.89" rx="2.6" ry="2.78"/><ellipse class="cls-4" cx="57.17" cy="60.78" rx="2.6" ry="2.78"/><ellipse class="cls-4" cx="57.17" cy="69.67" rx="2.6" ry="2.78"/><ellipse class="cls-4" cx="57.17" cy="78.56" rx="2.6" ry="2.78"/><ellipse class="cls-4" cx="65.5" cy="7.44" rx="2.6" ry="2.78"/><ellipse class="cls-4" cx="65.5" cy="78.56" rx="2.6" ry="2.78"/><ellipse class="cls-4" cx="73.83" cy="7.44" rx="2.6" ry="2.78"/><ellipse class="cls-4" cx="73.83" cy="25.22" rx="2.6" ry="2.78"/><ellipse class="cls-4" cx="73.83" cy="34.11" rx="2.6" ry="2.78"/><ellipse class="cls-4" cx="73.83" cy="51.89" rx="2.6" ry="2.78"/><ellipse class="cls-4" cx="73.83" cy="60.78" rx="2.6" ry="2.78"/><ellipse class="cls-4" cx="73.83" cy="78.56" rx="2.6" ry="2.78"/><ellipse class="cls-4" cx="82.17" cy="7.44" rx="2.6" ry="2.78"/><ellipse class="cls-4" cx="82.17" cy="25.22" rx="2.6" ry="2.78"/><ellipse class="cls-4" cx="82.17" cy="34.11" rx="2.6" ry="2.78"/><ellipse class="cls-4" cx="82.17" cy="51.89" rx="2.6" ry="2.78"/><ellipse class="cls-4" cx="82.17" cy="60.78" rx="2.6" ry="2.78"/><ellipse class="cls-4" cx="82.17" cy="78.56" rx="2.6" ry="2.78"/><ellipse class="cls-4" cx="90.5" cy="7.44" rx="2.6" ry="2.78"/><ellipse class="cls-4" cx="90.5" cy="25.22" rx="2.6" ry="2.78"/><ellipse class="cls-4" cx="90.5" cy="34.11" rx="2.6" ry="2.78"/><ellipse class="cls-4" cx="90.5" cy="43" rx="2.6" ry="2.78"/><ellipse class="cls-4" cx="90.5" cy="51.89" rx="2.6" ry="2.78"/><ellipse class="cls-4" cx="90.5" cy="60.78" rx="2.6" ry="2.78"/><ellipse class="cls-4" cx="90.5" cy="78.56" rx="2.6" ry="2.78"/><ellipse class="cls-4" cx="98.83" cy="7.44" rx="2.6" ry="2.78"/><ellipse class="cls-4" cx="98.83" cy="16.33" rx="2.6" ry="2.78"/><ellipse class="cls-4" cx="98.83" cy="25.22" rx="2.6" ry="2.78"/><ellipse class="cls-4" cx="98.83" cy="34.11" rx="2.6" ry="2.78"/><ellipse class="cls-4" cx="98.83" cy="43" rx="2.6" ry="2.78"/><ellipse class="cls-4" cx="98.83" cy="51.89" rx="2.6" ry="2.78"/><ellipse class="cls-4" cx="98.83" cy="60.78" rx="2.6" ry="2.78"/><ellipse class="cls-4" cx="98.83" cy="69.67" rx="2.6" ry="2.78"/><ellipse class="cls-4" cx="98.83" cy="78.56" rx="2.6" ry="2.78"/><ellipse class="cls-4" cx="107.17" cy="7.44" rx="2.6" ry="2.78"/><ellipse class="cls-4" cx="107.17" cy="78.56" rx="2.6" ry="2.78"/><ellipse class="cls-4" cx="115.5" cy="7.44" rx="2.6" ry="2.78"/><ellipse class="cls-4" cx="115.5" cy="16.33" rx="2.6" ry="2.78"/><ellipse class="cls-4" cx="115.5" cy="25.22" rx="2.6" ry="2.78"/><ellipse class="cls-4" cx="115.5" cy="34.11" rx="2.6" ry="2.78"/><ellipse class="cls-4" cx="115.5" cy="51.89" rx="2.6" ry="2.78"/><ellipse class="cls-4" cx="115.5" cy="60.78" rx="2.6" ry="2.78"/><ellipse class="cls-4" cx="115.5" cy="69.67" rx="2.6" ry="2.78"/><ellipse class="cls-4" cx="115.5" cy="78.56" rx="2.6" ry="2.78"/><ellipse class="cls-4" cx="123.83" cy="7.44" rx="2.6" ry="2.78"/><ellipse class="cls-4" cx="123.83" cy="16.33" rx="2.6" ry="2.78"/><ellipse class="cls-4" cx="123.83" cy="25.22" rx="2.6" ry="2.78"/><ellipse class="cls-4" cx="123.83" cy="34.11" rx="2.6" ry="2.78"/><ellipse class="cls-4" cx="123.83" cy="51.89" rx="2.6" ry="2.78"/><ellipse class="cls-4" cx="123.83" cy="60.78" rx="2.6" ry="2.78"/><ellipse class="cls-4" cx="123.83" cy="69.67" rx="2.6" ry="2.78"/><ellipse class="cls-4" cx="123.83" cy="78.56" rx="2.6" ry="2.78"/><ellipse class="cls-4" cx="132.17" cy="7.44" rx="2.6" ry="2.78"/><ellipse class="cls-4" cx="132.17" cy="78.56" rx="2.6" ry="2.78"/><ellipse class="cls-4" cx="140.5" cy="7.44" rx="2.6" ry="2.78"/><ellipse class="cls-4" cx="140.5" cy="16.33" rx="2.6" ry="2.78"/><ellipse class="cls-4" cx="140.5" cy="25.22" rx="2.6" ry="2.78"/><ellipse class="cls-4" cx="140.5" cy="34.11" rx="2.6" ry="2.78"/><ellipse class="cls-4" cx="140.5" cy="43" rx="2.6" ry="2.78"/><ellipse class="cls-4" cx="140.5" cy="51.89" rx="2.6" ry="2.78"/><ellipse class="cls-4" cx="140.5" cy="60.78" rx="2.6" ry="2.78"/><ellipse class="cls-4" cx="140.5" cy="69.67" rx="2.6" ry="2.78"/><ellipse class="cls-4" cx="140.5" cy="78.56" rx="2.6" ry="2.78"/><ellipse class="cls-4" cx="148.83" cy="7.44" rx="2.6" ry="2.78"/><ellipse class="cls-4" cx="148.83" cy="78.56" rx="2.6" ry="2.78"/><ellipse class="cls-4" cx="157.17" cy="7.44" rx="2.6" ry="2.78"/><ellipse class="cls-4" cx="157.17" cy="16.33" rx="2.6" ry="2.78"/><ellipse class="cls-4" cx="157.17" cy="25.22" rx="2.6" ry="2.78"/><ellipse class="cls-4" cx="157.17" cy="34.11" rx="2.6" ry="2.78"/><ellipse class="cls-4" cx="157.17" cy="51.89" rx="2.6" ry="2.78"/><ellipse class="cls-4" cx="157.17" cy="60.78" rx="2.6" ry="2.78"/><ellipse class="cls-4" cx="157.17" cy="69.67" rx="2.6" ry="2.78"/><ellipse class="cls-4" cx="157.17" cy="78.56" rx="2.6" ry="2.78"/><ellipse class="cls-4" cx="165.5" cy="7.44" rx="2.6" ry="2.78"/><ellipse class="cls-4" cx="165.5" cy="16.33" rx="2.6" ry="2.78"/><ellipse class="cls-4" cx="165.5" cy="69.67" rx="2.6" ry="2.78"/><ellipse class="cls-4" cx="165.5" cy="78.56" rx="2.6" ry="2.78"/><ellipse class="cls-4" cx="173.83" cy="7.44" rx="2.6" ry="2.78"/><ellipse class="cls-4" cx="173.83" cy="25.22" rx="2.6" ry="2.78"/><ellipse class="cls-4" cx="173.83" cy="34.11" rx="2.6" ry="2.78"/><ellipse class="cls-4" cx="173.83" cy="43" rx="2.6" ry="2.78"/><ellipse class="cls-4" cx="173.83" cy="51.89" rx="2.6" ry="2.78"/><ellipse class="cls-4" cx="173.83" cy="60.78" rx="2.6" ry="2.78"/><ellipse class="cls-4" cx="173.83" cy="78.56" rx="2.6" ry="2.78"/><ellipse class="cls-4" cx="182.17" cy="7.44" rx="2.6" ry="2.78"/><ellipse class="cls-4" cx="182.17" cy="25.22" rx="2.6" ry="2.78"/><ellipse class="cls-4" cx="182.17" cy="34.11" rx="2.6" ry="2.78"/><ellipse class="cls-4" cx="182.17" cy="43" rx="2.6" ry="2.78"/><ellipse class="cls-4" cx="182.17" cy="51.89" rx="2.6" ry="2.78"/><ellipse class="cls-4" cx="182.17" cy="60.78" rx="2.6" ry="2.78"/><ellipse class="cls-4" cx="182.17" cy="78.56" rx="2.6" ry="2.78"/><ellipse class="cls-4" cx="190.5" cy="7.44" rx="2.6" ry="2.78"/><ellipse class="cls-4" cx="190.5" cy="16.33" rx="2.6" ry="2.78"/><ellipse class="cls-4" cx="190.5" cy="69.67" rx="2.6" ry="2.78"/><ellipse class="cls-4" cx="190.5" cy="78.56" rx="2.6" ry="2.78"/><ellipse class="cls-4" cx="198.83" cy="7.44" rx="2.6" ry="2.78"/><ellipse class="cls-4" cx="198.83" cy="16.33" rx="2.6" ry="2.78"/><ellipse class="cls-4" cx="198.83" cy="25.22" rx="2.6" ry="2.78"/><ellipse class="cls-4" cx="198.83" cy="34.11" rx="2.6" ry="2.78"/><ellipse class="cls-4" cx="198.83" cy="43" rx="2.6" ry="2.78"/><ellipse class="cls-4" cx="198.83" cy="51.89" rx="2.6" ry="2.78"/><ellipse class="cls-4" cx="198.83" cy="60.78" rx="2.6" ry="2.78"/><ellipse class="cls-4" cx="198.83" cy="69.67" rx="2.6" ry="2.78"/><ellipse class="cls-4" cx="198.83" cy="78.56" rx="2.6" ry="2.78"/></g><ellipse class="cls-5" cx="15.5" cy="16.33" rx="2.6" ry="2.78"/><ellipse class="cls-6" cx="15.5" cy="25.22" rx="2.6" ry="2.78"/><ellipse class="cls-7" cx="15.5" cy="34.11" rx="2.6" ry="2.78"/><ellipse class="cls-8" cx="15.5" cy="43" rx="2.6" ry="2.78"/><ellipse class="cls-9" cx="15.5" cy="51.89" rx="2.6" ry="2.78"/><ellipse class="cls-10" cx="15.5" cy="60.78" rx="2.6" ry="2.78"/><ellipse class="cls-11" cx="15.5" cy="69.67" rx="2.6" ry="2.78"/><ellipse class="cls-12" cx="23.83" cy="34.11" rx="2.6" ry="2.78"/><ellipse class="cls-13" cx="32.17" cy="43" rx="2.6" ry="2.78"/><ellipse class="cls-14" cx="40.5" cy="34.11" rx="2.6" ry="2.78"/><ellipse class="cls-15" cx="48.83" cy="16.33" rx="2.6" ry="2.78"/><ellipse class="cls-16" cx="48.83" cy="25.22" rx="2.6" ry="2.78"/><ellipse class="cls-17" cx="48.83" cy="34.11" rx="2.6" ry="2.78"/><ellipse class="cls-18" cx="48.83" cy="43" rx="2.6" ry="2.78"/><ellipse class="cls-19" cx="48.83" cy="51.89" rx="2.6" ry="2.78"/><ellipse class="cls-20" cx="48.83" cy="60.78" rx="2.6" ry="2.78"/><ellipse class="cls-21" cx="48.83" cy="69.67" rx="2.6" ry="2.78"/><ellipse class="cls-22" cx="65.5" cy="16.33" rx="2.6" ry="2.78"/><ellipse class="cls-23" cx="65.5" cy="25.22" rx="2.6" ry="2.78"/><ellipse class="cls-24" cx="65.5" cy="34.11" rx="2.6" ry="2.78"/><ellipse class="cls-25" cx="65.5" cy="43" rx="2.6" ry="2.78"/><ellipse class="cls-26" cx="65.5" cy="51.89" rx="2.6" ry="2.78"/><ellipse class="cls-27" cx="65.5" cy="60.78" rx="2.6" ry="2.78"/><ellipse class="cls-28" cx="65.5" cy="69.67" rx="2.6" ry="2.78"/><ellipse class="cls-29" cx="73.83" cy="16.33" rx="2.6" ry="2.78"/><ellipse class="cls-30" cx="73.83" cy="43" rx="2.6" ry="2.78"/><ellipse class="cls-31" cx="73.83" cy="69.67" rx="2.6" ry="2.78"/><ellipse class="cls-32" cx="82.17" cy="16.33" rx="2.6" ry="2.78"/><ellipse class="cls-33" cx="82.17" cy="43" rx="2.6" ry="2.78"/><ellipse class="cls-34" cx="82.17" cy="69.67" rx="2.6" ry="2.78"/><ellipse class="cls-35" cx="90.5" cy="16.33" rx="2.6" ry="2.78"/><ellipse class="cls-36" cx="90.5" cy="69.67" rx="2.6" ry="2.78"/><ellipse class="cls-37" cx="107.17" cy="16.33" rx="2.6" ry="2.78"/><ellipse class="cls-38" cx="107.17" cy="25.22" rx="2.6" ry="2.78"/><ellipse class="cls-39" cx="107.17" cy="34.11" rx="2.6" ry="2.78"/><ellipse class="cls-40" cx="107.17" cy="43" rx="2.6" ry="2.78"/><ellipse class="cls-41" cx="107.17" cy="51.89" rx="2.6" ry="2.78"/><ellipse class="cls-42" cx="107.17" cy="60.78" rx="2.6" ry="2.78"/><ellipse class="cls-43" cx="107.17" cy="69.67" rx="2.6" ry="2.78"/><ellipse class="cls-44" cx="115.5" cy="43" rx="2.6" ry="2.78"/><ellipse class="cls-45" cx="123.83" cy="43" rx="2.6" ry="2.78"/><ellipse class="cls-46" cx="132.17" cy="16.33" rx="2.6" ry="2.78"/><ellipse class="cls-47" cx="132.17" cy="25.22" rx="2.6" ry="2.78"/><ellipse class="cls-48" cx="132.17" cy="34.11" rx="2.6" ry="2.78"/><ellipse class="cls-49" cx="132.17" cy="43" rx="2.6" ry="2.78"/><ellipse class="cls-50" cx="132.17" cy="51.89" rx="2.6" ry="2.78"/><ellipse class="cls-51" cx="132.17" cy="60.78" rx="2.6" ry="2.78"/><ellipse class="cls-52" cx="132.17" cy="69.67" rx="2.6" ry="2.78"/><ellipse class="cls-53" cx="148.83" cy="16.33" rx="2.6" ry="2.78"/><ellipse class="cls-54" cx="148.83" cy="25.22" rx="2.6" ry="2.78"/><ellipse class="cls-55" cx="148.83" cy="34.11" rx="2.6" ry="2.78"/><ellipse class="cls-56" cx="148.83" cy="43" rx="2.6" ry="2.78"/><ellipse class="cls-57" cx="148.83" cy="51.89" rx="2.6" ry="2.78"/><ellipse class="cls-58" cx="148.83" cy="60.78" rx="2.6" ry="2.78"/><ellipse class="cls-59" cx="148.83" cy="69.67" rx="2.6" ry="2.78"/><ellipse class="cls-60" cx="157.17" cy="43" rx="2.6" ry="2.78"/><ellipse class="cls-61" cx="165.5" cy="25.22" rx="2.6" ry="2.78"/><ellipse class="cls-62" cx="165.5" cy="34.11" rx="2.6" ry="2.78"/><ellipse class="cls-63" cx="165.5" cy="43" rx="2.6" ry="2.78"/><ellipse class="cls-64" cx="165.5" cy="51.89" rx="2.6" ry="2.78"/><ellipse class="cls-65" cx="165.5" cy="60.78" rx="2.6" ry="2.78"/><ellipse class="cls-66" cx="173.83" cy="16.33" rx="2.6" ry="2.78"/><ellipse class="cls-67" cx="173.83" cy="69.67" rx="2.6" ry="2.78"/><ellipse class="cls-68" cx="182.17" cy="16.33" rx="2.6" ry="2.78"/><ellipse class="cls-69" cx="182.17" cy="69.67" rx="2.6" ry="2.78"/><ellipse class="cls-70" cx="190.5" cy="25.22" rx="2.6" ry="2.78"/><ellipse class="cls-71" cx="190.5" cy="34.11" rx="2.6" ry="2.78"/><ellipse class="cls-72" cx="190.5" cy="43" rx="2.6" ry="2.78"/><ellipse class="cls-73" cx="190.5" cy="51.89" rx="2.6" ry="2.78"/><ellipse class="cls-74" cx="190.5" cy="60.78" rx="2.6" ry="2.78"/></g></g></svg>