<svg xmlns="http://www.w3.org/2000/svg" viewBox="0 0 182.34 164.63"><defs><style>.cls-1{fill:#ffc72c;}</style></defs><title>Romb</title><g id="Layer_2" data-name="Layer 2"><g id="Layer_1-2" data-name="Layer 1"><polygon class="cls-1" points="181.56 90.19 143.34 156.04 53.34 156.04 8.34 78.54 51.16 4.79 61.94 11.84 28.34 68.54 68.33 136.04 148.34 136.04 177.21 87.33 181.56 90.19"/><path class="cls-1" d="M182.34,90l-7.77,16.52c-2.71,5.63-5.35,11.36-8.2,17.17s-5.64,11.71-8.62,17.62-6,11.87-9.1,17.81l-1.5,2.88-3.82.18c-7.5.36-15,.66-22.5.95s-15,.52-22.5.71-15,.36-22.5.52-15,.23-22.5.26H48.42l-2.51-4.28-5.64-9.68-5.56-9.73q-5.54-9.74-11-19.54L2.1,82.16,0,78.34l2.1-3.42c3.72-6.06,7.45-12.11,11.28-18.11s7.64-12,11.55-17.94L36.65,21c3.87-6,7.81-11.9,11.61-17.92l2-3.1L53,2c3.5,2.5,7,5,10.51,7.46l2.32,1.61L64.4,13.3q-4.43,6.94-8.71,14C52.81,32,50,36.68,47.21,41.42S41.7,50.92,39,55.71s-5.3,9.63-7.88,14.49V66.87q5.4,8.2,11,16.31l11,16.25q5.54,8.11,10.88,16.36c3.55,5.5,7.06,11,10.45,16.61l-6.15-3.5c3.34-.06,6.67-.07,10-.06s6.67,0,10,.06c6.67,0,13.34.17,20,.3s13.34.32,20,.54,13.34.5,20,.79l-4.73,2.7c2.62-3.93,5.21-7.88,7.86-11.79s5.31-7.83,8-11.72,5.42-7.77,8.17-11.62,5.53-7.69,8.39-11.48l.94-1.26,1,.8C179.6,87.44,181.07,88.82,182.34,90Zm-1.55.37c-1.64-.73-3.07-1.25-4.35-1.88l2-.45c-2,4.33-4,8.58-6,12.87s-4.16,8.5-6.28,12.74-4.26,8.44-6.44,12.63-4.38,8.38-6.57,12.56l-1.34,2.55-3.4.15c-6.66.3-13.33.58-20,.79s-13.33.4-20,.54-13.33.25-20,.3c-3.33,0-6.66.08-10,.07s-6.66,0-10-.06l-4.15-.08-2-3.42c-3.28-5.66-6.43-11.39-9.55-17.14s-6.15-11.56-9.12-17.4l-9-17.5q-4.45-8.76-9-17.44l-1-1.84,1-1.49Q30.06,60,34.45,53T43.06,39c2.81-4.71,5.6-9.44,8.32-14.21s5.44-9.55,8.09-14.36l.9,3.85C56.71,12,53,9.8,49.32,7.59l4.73-1.12c-3.34,6.28-6.54,12.64-9.8,19l-9.69,19C31.33,50.8,28,57.09,24.7,63.39S18,75.92,14.57,82.15V74.92l23.35,38.25q5.82,9.58,11.54,19.21L55.15,142l5.6,9.7-7.42-4.27c7.5,0,15,.13,22.5.25s15,.28,22.5.52,15,.46,22.5.71,15,.59,22.5.95L138,153c3.27-5,6.59-10.06,10-15.11s6.95-10.14,10.5-15.31Z"/></g></g></svg>