<svg xmlns="http://www.w3.org/2000/svg" viewBox="0 0 120.47 120.47"><defs><style>.cls-1{fill:#fff;}</style></defs><title>safari-pinned-tab</title><g id="Layer_2" data-name="Layer 2"><g id="Layer_1-2" data-name="Layer 1"><path class="cls-1" d="M119.84,49.22c.1.62.19,1.25.27,1.87l-57.9,65.85a58.61,58.61,0,0,1-16.71-2.35Z"/><path class="cls-1" d="M119.91,49c.16.58.4,1.28.55,2a.28.28,0,0,1,0,.24l0,0c-1.11,1.47-2.19,3-3.31,4.4l-3.37,4.33L107,68.71c-2.23,2.9-4.57,5.71-6.85,8.57s-4.59,5.7-6.93,8.51l-7,8.45c-2.33,2.82-4.71,5.59-7.07,8.38L72,111l-7.19,8.28a3.43,3.43,0,0,1-2.58,1.19h0A59.4,59.4,0,0,1,44.5,118l-.07,0a3.56,3.56,0,0,1-2.37-4.44,3.52,3.52,0,0,1,1.08-1.66l9.66-8.37c3.23-2.78,6.47-5.57,9.75-8.28,6.53-5.45,13.08-10.88,19.6-16.09s13-10.37,19.28-15.4l9.36-7.42Zm-.14.38-74,65.48-.15-.67a59.4,59.4,0,0,0,16.6,2.35l-.28.13L120,51l0,.16A15.37,15.37,0,0,1,119.77,49.41Z"/><path d="M54.47.36,5.33,44.18a57.84,57.84,0,0,1,2.5-7.68L34.19,7A58.27,58.27,0,0,1,54.47.36Z"/><path d="M54.65.28c-3.42,3.36-7,7-10.65,10.76L32.66,22.84C28.79,26.91,24.63,31,20.48,35S12,43,7.72,46.85a3.57,3.57,0,0,1-5.9-3.41l0-.13a42.18,42.18,0,0,1,1.2-4.12q.68-2,1.5-4l0-.07a3.27,3.27,0,0,1,.61-1c2.23-2.43,4.42-4.89,6.67-7.31l6.8-7.2c2.25-2.42,4.6-4.74,6.9-7.11s4.64-4.7,7-7l.21-.2A1.31,1.31,0,0,1,33.15,5,50.85,50.85,0,0,1,38.3,3q2.63-.88,5.31-1.52A52.61,52.61,0,0,1,49,.49c.9-.11,1.81-.18,2.72-.23L53.09.19A10.17,10.17,0,0,1,54.65.28Zm-.36.16a5.92,5.92,0,0,1-1.12.31L51.86,1c-.88.16-1.75.34-2.62.53-1.73.4-3.45.88-5.14,1.43a57.79,57.79,0,0,0-9.79,4.24l.07-.06L8.11,36.75l.07-.11a58.46,58.46,0,0,0-2.46,7.63l-.65-.39Z"/><path class="cls-1" d="M71.25.62,5.88,75A58.57,58.57,0,0,1,3.52,58.26L69.38.35C70,.43,70.63.52,71.25.62Z"/><path class="cls-1" d="M71.44.56,64.12,9.67Q60.41,14.31,56.71,19c-5,6.32-10.12,12.78-15.4,19.29s-10.65,13.07-16.1,19.6S14.12,70.9,8.56,77.33a3.55,3.55,0,0,1-5,.37,3.5,3.5,0,0,1-1.08-1.65l0-.08A55.65,55.65,0,0,1,.56,67.2a62.27,62.27,0,0,1-.56-9v0a3.53,3.53,0,0,1,1.2-2.58l8.28-7.18,8.37-7.08C23.4,36.61,29,32,34.69,27.3c2.8-2.34,5.65-4.63,8.5-6.93s5.67-4.62,8.57-6.85l8.66-6.75,4.33-3.38c1.45-1.12,2.93-2.2,4.39-3.3l0,0a.27.27,0,0,1,.23,0C70.15.15,70.85.39,71.44.56Zm-.38.13c-.61,0-1.15,0-1.71-.13l.16-.05-65.74,58,.12-.27A59.29,59.29,0,0,0,6.25,74.86l-.67-.15Z"/><path d="M95.76,10.46,10.25,85.65c-.05-.12-.11-.23-.16-.34L82.15,3.36A57.57,57.57,0,0,1,95.76,10.46Z"/><path d="M96,10.44l-19.8,19.1c-6.75,6.46-13.58,13-20.59,19.59S41.48,62.28,34.33,68.84c-3.56,3.29-7.19,6.55-10.82,9.78l-10.9,9.71a3.55,3.55,0,0,1-5-.29,3.83,3.83,0,0,1-.53-.8l-.21-.42A3.47,3.47,0,0,1,7.34,83L7.41,83c6-6.86,12.06-13.61,18.08-20.42S37.7,49,43.8,42.29l9.26-10c3.09-3.33,6.17-6.68,9.32-10s6.24-6.62,9.4-9.9l9.53-9.78.08-.08a1,1,0,0,1,1.14-.23,57.13,57.13,0,0,1,7,3.5c1.11.68,2.2,1.39,3.25,2.14.53.37,1.06.76,1.57,1.15l.77.59A10.78,10.78,0,0,1,96,10.44Zm-.4,0a4.84,4.84,0,0,1-.71-.4l-.79-.53c-.54-.34-1.08-.69-1.62-1-1.1-.66-2.21-1.29-3.35-1.88a57.6,57.6,0,0,0-7-3.07l.25-.06L10.39,85.57l.06-.42.16.32L10,85.35Z"/><path class="cls-1" d="M103.47,17,26.3,104.77a58.2,58.2,0,0,1-5.64-5,56.88,56.88,0,0,1-5-5.64Z"/><path class="cls-1" d="M103.61,16.85,99.16,22l-4.49,5.3q-4.48,5.34-8.91,10.8c-6,7.33-11.92,14.92-18.12,22.66-3.09,3.87-6.17,7.78-9.35,11.68L48.66,84.14c-6.43,7.8-13.12,15.4-19.68,23a3.53,3.53,0,0,1-4.8.51l-.05,0A58.81,58.81,0,0,1,12.88,96.34l0,0a3.55,3.55,0,0,1,.5-4.81c7.58-6.56,15.19-13.25,23-19.67L48,62.19c3.9-3.18,7.81-6.26,11.67-9.35L71.16,43.7l11.17-9q5.48-4.44,10.8-8.92l5.3-4.49Zm-.28.29L16,94.46l.05-.53a59,59,0,0,0,10.53,10.53l-.53.05Z"/><path d="M110,24.7a58,58,0,0,1,7.1,13.62l-82,72.06-.33-.16Z"/><path d="M110,24.5a9.06,9.06,0,0,1,.75.84l.6.77c.39.52.77,1,1.15,1.57.74,1.06,1.46,2.14,2.14,3.26a57.72,57.72,0,0,1,3.5,7,1,1,0,0,1-.23,1.15l-.08.08-9.78,9.53-9.9,9.41c-3.29,3.14-6.64,6.22-10,9.31s-6.66,6.21-10,9.27C71.43,82.77,64.75,89,57.94,95s-13.55,12.13-20.43,18.08h0a3.6,3.6,0,0,1-3.94.5l-.33-.16h0a3.55,3.55,0,0,1-1.61-4.76,3.83,3.83,0,0,1,.53-.78L41.85,97l4.86-5.44,4.92-5.37C58.19,79,64.75,71.85,71.34,64.91S84.47,51.07,90.93,44.32Zm0,.4L35.11,110.47l-.11-.6.33.16-.43,0L117,38.15l-.07.24a56.74,56.74,0,0,0-3.07-7c-.59-1.13-1.21-2.25-1.88-3.34q-.5-.83-1-1.62l-.53-.8A5.26,5.26,0,0,1,110,24.9Z"/><path d="M120.09,66a58.15,58.15,0,0,1-6.58,20.26v0L83.94,112.65a60,60,0,0,1-7.66,2.48Z"/><path d="M120.17,65.83a9,9,0,0,1,.09,1.56l-.06,1.36c-.06.91-.12,1.81-.24,2.72a49.82,49.82,0,0,1-.94,5.39c-.42,1.79-.93,3.56-1.51,5.31a50.75,50.75,0,0,1-2.09,5.14,1.41,1.41,0,0,1-.27.4l-.1.1-3.52,3.59L108,94.87c-2.37,2.31-4.71,4.67-7.13,6.92l-7.22,6.82L86.3,115.3a3.23,3.23,0,0,1-1,.62l-.06,0a55.65,55.65,0,0,1-8.1,2.67l-.1,0a3.57,3.57,0,0,1-3.44-5.88c3.89-4.26,7.78-8.6,11.83-12.76s8.11-8.3,12.17-12.16l11.8-11.34C113.18,72.87,116.81,69.26,120.17,65.83Zm-.16.36-43.43,49.2-.39-.64a61.86,61.86,0,0,0,7.61-2.45l-.11.07,29.64-26.28,0,.06a57.2,57.2,0,0,0,4.23-9.78c.56-1.69,1-3.4,1.43-5.13.2-.87.37-1.74.54-2.62l.22-1.31A5.92,5.92,0,0,1,120,66.19Z"/></g></g></svg>