<svg xmlns="http://www.w3.org/2000/svg" xmlns:xlink="http://www.w3.org/1999/xlink" viewBox="0 0 100 400"><defs><style>.cls-1,.cls-14,.cls-17,.cls-24{fill:none;}.cls-2{fill:#ff0;}.cls-3{fill:#89c33f;}.cls-4{fill:#9a72ae;}.cls-5{fill:#cd4b44;}.cls-6{fill:#fff343;}.cls-7{fill:url(#radial-gradient);}.cls-8{fill:url(#radial-gradient-2);}.cls-9{fill:url(#radial-gradient-3);}.cls-10,.cls-17,.cls-18,.cls-19,.cls-24{stroke:#000;}.cls-10,.cls-17,.cls-18{stroke-miterlimit:10;}.cls-10{stroke-width:0.25px;}.cls-11{font-size:14.7px;font-family:MyriadPro-Regular, Myriad Pro;}.cls-11,.cls-22,.cls-25{fill:#fff;}.cls-12{letter-spacing:-0.08em;}.cls-13{letter-spacing:0.01em;}.cls-14{stroke:#fff343;}.cls-14,.cls-19,.cls-24{stroke-linecap:round;stroke-linejoin:round;}.cls-15{fill:#333;}.cls-16{fill:url(#LED_Yellow);}.cls-17,.cls-18,.cls-19,.cls-24{stroke-width:0.5px;}.cls-20,.cls-21{fill:#6f0;}.cls-21{opacity:0.3;}.cls-23{font-size:11.1px;}.cls-23,.cls-25,.cls-26{font-family:ArialMT, Arial;}.cls-25,.cls-26{font-size:3.93px;}</style><radialGradient id="radial-gradient" cx="74.69" cy="57.14" r="48.7" gradientTransform="translate(-32.99 -5.48) scale(1.11 1.1)" gradientUnits="userSpaceOnUse"><stop offset="0.74" stop-color="#fff" stop-opacity="0"/><stop offset="0.76" stop-color="#fff" stop-opacity="0.01"/><stop offset="0.77" stop-color="#fff" stop-opacity="0.04"/><stop offset="0.79" stop-color="#fff" stop-opacity="0.1"/><stop offset="0.79" stop-color="#fff" stop-opacity="0.18"/><stop offset="0.8" stop-color="#fff" stop-opacity="0.28"/><stop offset="0.81" stop-color="#fff" stop-opacity="0.4"/><stop offset="0.82" stop-color="#fff" stop-opacity="0.5"/><stop offset="0.82" stop-color="#d8bd1f"/><stop offset="0.83" stop-color="#eed93a"/><stop offset="0.84" stop-color="#f2de3f"/><stop offset="0.84" stop-color="#d8bd1f"/><stop offset="0.84" stop-color="#d5b926"/><stop offset="0.87" stop-color="#c3a450"/><stop offset="0.89" stop-color="#b49272"/><stop offset="0.92" stop-color="#a9848c"/><stop offset="0.94" stop-color="#a07a9f"/><stop offset="0.97" stop-color="#9c74aa"/><stop offset="1" stop-color="#9a72ae"/></radialGradient><radialGradient id="radial-gradient-2" cx="74.69" cy="161.42" r="48.7" xlink:href="#radial-gradient"/><radialGradient id="radial-gradient-3" cx="74.69" cy="265.7" r="48.7" xlink:href="#radial-gradient"/><pattern id="LED_Yellow" data-name="LED Yellow" width="3" height="3" patternUnits="userSpaceOnUse" viewBox="0 0 3 3"><rect class="cls-1" width="3" height="3"/><circle class="cls-2" cx="0.32" cy="0.32" r="0.32"/><circle class="cls-2" cx="1.11" cy="1.11" r="0.32"/><circle class="cls-2" cx="1.89" cy="0.32" r="0.32"/><circle class="cls-2" cx="2.68" cy="1.11" r="0.32"/><circle class="cls-2" cx="0.32" cy="1.89" r="0.32"/><circle class="cls-2" cx="1.11" cy="2.68" r="0.32"/><circle class="cls-2" cx="1.89" cy="1.89" r="0.32"/><circle class="cls-2" cx="2.68" cy="2.68" r="0.32"/><circle class="cls-3" cx="0.32" cy="0.32" r="0.07"/><circle class="cls-3" cx="1.89" cy="0.32" r="0.07"/><circle class="cls-3" cx="2.68" cy="1.11" r="0.07"/><circle class="cls-3" cx="1.11" cy="1.11" r="0.07"/><circle class="cls-3" cx="0.32" cy="1.89" r="0.07"/><circle class="cls-3" cx="1.89" cy="1.89" r="0.07"/><circle class="cls-3" cx="1.11" cy="2.68" r="0.07"/><circle class="cls-3" cx="2.68" cy="2.68" r="0.07"/></pattern></defs><title>STCandyBack</title><g id="Layer_2" data-name="Layer 2"><g id="Layer_1-2" data-name="Layer 1"><rect class="cls-4" width="100" height="400"/><polygon class="cls-5" points="49.99 57.13 5 31.15 5 5 19.89 5 49.99 57.13"/><polygon class="cls-6" points="50 5 50 57.13 49.99 57.13 19.89 5 50 5"/><polygon class="cls-6" points="95 5 95 31.15 50 57.13 80.1 5 95 5"/><polygon class="cls-5" points="95 31.15 95 57.14 50 57.14 50 57.13 95 31.15"/><polygon class="cls-5" points="95 83.12 95 109.28 80.1 109.28 50 57.15 50 57.14 50.01 57.14 95 83.12"/><polygon class="cls-6" points="49.99 57.14 19.89 109.28 5 109.28 5 83.12 49.99 57.14"/><polygon class="cls-5" points="49.99 57.14 5 83.12 5 57.14 49.99 57.14"/><polygon class="cls-6" points="49.99 57.13 49.99 57.14 5 57.14 5 31.15 49.99 57.13"/><polygon class="cls-6" points="49.99 285.83 5 259.85 5 233.7 19.89 233.7 49.99 285.83"/><polygon class="cls-6" points="49.99 285.84 5 311.82 5 285.84 49.99 285.84"/><polygon class="cls-5" points="49.99 285.84 19.89 337.98 5 337.98 5 311.82 49.99 285.84"/><polygon class="cls-6" points="95 311.82 95 337.98 80.1 337.98 50 285.85 50 285.84 50.01 285.84 95 311.82"/><polygon class="cls-5" points="95 233.7 95 259.85 50 285.83 80.1 233.7 95 233.7"/><polygon class="cls-6" points="49.99 171.41 5 145.43 5 119.28 19.89 119.28 49.99 171.41"/><polygon class="cls-6" points="49.99 171.42 5 197.4 5 171.42 49.99 171.42"/><polygon class="cls-5" points="49.99 171.42 19.89 223.56 5 223.56 5 197.4 49.99 171.42"/><polygon class="cls-6" points="95 197.4 95 223.56 80.1 223.56 50 171.43 50 171.42 50.01 171.42 95 197.4"/><polygon class="cls-5" points="95 119.28 95 145.43 50 171.41 80.1 119.28 95 119.28"/><polygon class="cls-6" points="80.1 109.28 50 109.28 50 57.15 80.1 109.28"/><polygon class="cls-5" points="80.1 5 50 57.13 50 5 80.1 5"/><polygon class="cls-5" points="50 57.14 50 109.28 19.89 109.28 49.99 57.14 50 57.14"/><polygon class="cls-6" points="95 57.14 95 83.12 50.01 57.14 95 57.14"/><polygon class="cls-5" points="80.1 223.56 50 223.56 50 171.43 80.1 223.56"/><polygon class="cls-6" points="80.1 119.28 50 171.41 50 119.28 80.1 119.28"/><polygon class="cls-6" points="50 171.42 50 223.56 19.89 223.56 49.99 171.42 50 171.42"/><polygon class="cls-6" points="95 145.43 95 171.42 50 171.42 50 171.41 95 145.43"/><polygon class="cls-5" points="49.99 171.41 49.99 171.42 5 171.42 5 145.43 49.99 171.41"/><polygon class="cls-5" points="95 171.42 95 197.4 50.01 171.42 95 171.42"/><polygon class="cls-5" points="50 119.28 50 171.41 49.99 171.41 19.89 119.28 50 119.28"/><polygon class="cls-5" points="80.1 337.98 50 337.98 50 285.85 80.1 337.98"/><polygon class="cls-6" points="80.1 233.7 50 285.83 50 233.7 80.1 233.7"/><polygon class="cls-6" points="50 285.84 50 337.98 19.89 337.98 49.99 285.84 50 285.84"/><polygon class="cls-6" points="95 259.85 95 285.84 50 285.84 50 285.83 95 259.85"/><polygon class="cls-5" points="49.99 285.83 49.99 285.84 5 285.84 5 259.85 49.99 285.83"/><polygon class="cls-5" points="95 285.84 95 311.82 50.01 285.84 95 285.84"/><polygon class="cls-5" points="50 233.7 50 285.83 49.99 285.83 19.89 233.7 50 233.7"/><rect class="cls-7" width="100" height="114.28"/><rect class="cls-8" y="114.28" width="100" height="114.28"/><rect class="cls-9" y="228.57" width="100" height="114.28"/><rect class="cls-10" x="32.51" y="112.33" width="59.5" height="24.5"/><rect class="cls-10" x="8.01" y="112.33" width="24.5" height="24.5"/><rect class="cls-10" x="32.51" y="140.18" width="59.5" height="24.5"/><rect class="cls-10" x="8.01" y="140.18" width="24.5" height="24.5"/><rect class="cls-10" x="32.51" y="168.02" width="59.5" height="24.5"/><rect class="cls-10" x="8.01" y="168.02" width="24.5" height="24.5"/><rect class="cls-10" x="32.51" y="195.86" width="59.5" height="24.5"/><rect class="cls-10" x="8.01" y="195.86" width="24.5" height="24.5"/><rect class="cls-10" x="32.51" y="223.7" width="59.5" height="24.5"/><rect class="cls-10" x="8.01" y="223.7" width="24.5" height="24.5"/><text class="cls-11" transform="translate(12.27 129.31) scale(1.06 1)">95</text><text class="cls-11" transform="translate(12.27 157.15) scale(1.06 1)">92</text><text class="cls-11" transform="translate(10.38 184.49) scale(1.06 1)">ДП</text><text class="cls-11" transform="translate(8.84 212.15) scale(1.06 1)"><tspan class="cls-12">Г</tspan><tspan class="cls-13" x="5.17" y="0">А</tspan><tspan x="14.32" y="0">З</tspan></text><text class="cls-11" transform="translate(12.27 240.68) scale(1.06 1)">98</text><line class="cls-14" x1="8.76" y1="114.33" x2="31.76" y2="114.33"/><line class="cls-14" x1="8.76" y1="134.83" x2="31.76" y2="134.83"/><line class="cls-14" x1="8.76" y1="142.18" x2="31.76" y2="142.18"/><line class="cls-14" x1="8.76" y1="162.68" x2="31.76" y2="162.68"/><line class="cls-14" x1="8.76" y1="170.02" x2="31.76" y2="170.02"/><line class="cls-14" x1="8.76" y1="190.52" x2="31.76" y2="190.52"/><line class="cls-14" x1="8.76" y1="197.86" x2="31.76" y2="197.86"/><line class="cls-14" x1="8.76" y1="218.36" x2="31.76" y2="218.36"/><line class="cls-14" x1="8.76" y1="225.7" x2="31.76" y2="225.7"/><line class="cls-14" x1="8.76" y1="246.2" x2="31.76" y2="246.2"/><rect class="cls-15" x="35.26" y="113.21" width="54" height="23"/><rect class="cls-15" x="35.26" y="140.93" width="54" height="23"/><rect class="cls-15" x="35.26" y="168.77" width="54" height="23"/><rect class="cls-15" x="35.26" y="196.61" width="54" height="23"/><rect class="cls-15" x="35.26" y="224.31" width="54" height="23"/><path class="cls-16" d="M46.51,123.58v-7.75l-1.75-1.75h-7L36,115.83v7.75l.88.88-.88.88v8l1.75,1.75h7l1.75-1.75v-8h0l-.87-.87.87-.88Zm-1.75,9-.73.72H38.49l-.73-.72v-6.55l.73-.73H44l.73.73Zm0-9.75-.73.72H38.49l-.73-.72v-6.3l.73-.73H44l.73.73Z"/><path class="cls-16" d="M58.76,123.58v-7.75L57,114.08H50l-1.75,1.75v7.75l.88.88-.88.88v8L50,135.08h7l1.75-1.75v-8h0l-.87-.87.87-.88Zm-1.75,9-.73.72H50.74l-.73-.72v-6.55l.73-.73h5.54l.73.73Zm0-9.75-.73.72H50.74l-.73-.72v-6.3l.73-.73h5.54l.73.73Z"/><path class="cls-16" d="M78,123.58l.87.88-.87.87h0v8l1.75,1.75h7l1.75-1.75v-8l-.88-.88.88-.88v-7.75l-1.75-1.75h-7L78,115.83v7.75Zm1.74,2.48.73-.73H86l.73.73v6.55l-.73.72H80.49l-.73-.72Zm0-9.5.73-.73H86l.73.73v6.3l-.73.72H80.49l-.73-.72Z"/><path class="cls-16" d="M65.77,123.58l.87.88-.87.87h0v8l1.75,1.75h7l1.75-1.75v-8l-.88-.88.88-.88v-7.75l-1.75-1.75h-7l-1.75,1.75v7.75Zm1.74,2.48.73-.73h5.54l.73.73v6.55l-.73.72H68.24l-.73-.72Zm0-9.5.73-.73h5.54l.73.73v6.3l-.73.72H68.24l-.73-.72Z"/><circle class="cls-16" cx="62.26" cy="133.33" r="1.75"/><path class="cls-16" d="M46.51,151.42v-7.74l-1.75-1.75h-7L36,143.68v7.74l.88.88-.88.88v8l1.75,1.75h7l1.75-1.75v-8h0l-.87-.87.87-.88Zm-1.75,9-.73.73H38.49l-.73-.73V153.9l.73-.73H44l.73.73Zm0-9.75-.73.72H38.49l-.73-.72v-6.3l.73-.72H44l.73.72Z"/><path class="cls-16" d="M58.76,151.42v-7.74L57,141.93H50l-1.75,1.75v7.74l.88.88-.88.88v8L50,162.93h7l1.75-1.75v-8h0l-.87-.87.87-.88Zm-1.75,9-.73.73H50.74l-.73-.73V153.9l.73-.73h5.54l.73.73Zm0-9.75-.73.72H50.74L50,150.7v-6.3l.73-.72h5.54l.73.72Z"/><path class="cls-16" d="M78,151.42l.87.88-.87.87h0v8l1.75,1.75h7l1.75-1.75v-8l-.88-.88.88-.88v-7.74l-1.75-1.75h-7L78,143.68v7.74Zm1.74,2.48.73-.73H86l.73.73v6.55l-.73.73H80.49l-.73-.73Zm0-9.5.73-.72H86l.73.72v6.3l-.73.72H80.49l-.73-.72Z"/><path class="cls-16" d="M65.77,151.42l.87.88-.87.87h0v8l1.75,1.75h7l1.75-1.75v-8l-.88-.88.88-.88v-7.74l-1.75-1.75h-7l-1.75,1.75v7.74Zm1.74,2.48.73-.73h5.54l.73.73v6.55l-.73.73H68.24l-.73-.73Zm0-9.5.73-.72h5.54l.73.72v6.3l-.73.72H68.24l-.73-.72Z"/><circle class="cls-16" cx="62.26" cy="161.18" r="1.75"/><path class="cls-16" d="M46.51,179.27v-7.75l-1.75-1.75h-7L36,171.52v7.74l.88.88L36,181v8l1.75,1.75h7L46.51,189v-8h0l-.87-.88.87-.87Zm-1.75,9L44,189H38.49l-.73-.73v-6.55l.73-.72H44l.73.72Zm0-9.75-.73.73H38.49l-.73-.73v-6.29l.73-.73H44l.73.73Z"/><path class="cls-16" d="M58.76,179.27v-7.75L57,169.77H50l-1.75,1.75v7.74l.88.88-.88.88v8L50,190.77h7L58.76,189v-8h0l-.87-.88.87-.87Zm-1.75,9-.73.73H50.74l-.73-.73v-6.55l.73-.72h5.54l.73.72Zm0-9.75-.73.73H50.74l-.73-.73v-6.29l.73-.73h5.54l.73.73Z"/><path class="cls-16" d="M78,179.27l.87.87L78,181h0v8l1.75,1.75h7L88.51,189v-8l-.88-.88.88-.88v-7.74l-1.75-1.75h-7L78,171.52v7.75Zm1.74,2.47.73-.72H86l.73.72v6.55L86,189H80.49l-.73-.73Zm0-9.49.73-.73H86l.73.73v6.29l-.73.73H80.49l-.73-.73Z"/><path class="cls-16" d="M65.77,179.27l.87.87-.87.88h0v8l1.75,1.75h7L76.26,189v-8l-.88-.88.88-.88v-7.74l-1.75-1.75h-7l-1.75,1.75v7.75Zm1.74,2.47.73-.72h5.54l.73.72v6.55l-.73.73H68.24l-.73-.73Zm0-9.49.73-.73h5.54l.73.73v6.29l-.73.73H68.24l-.73-.73Z"/><circle class="cls-16" cx="62.26" cy="189.02" r="1.75"/><path class="cls-16" d="M46.51,207.11v-7.75l-1.75-1.75h-7L36,199.36v7.74l.88.88-.88.88v8l1.75,1.75h7l1.75-1.75v-8h0l-.87-.88.87-.87Zm-1.75,9-.73.73H38.49l-.73-.73v-6.54l.73-.73H44l.73.73Zm0-9.75-.73.73H38.49l-.73-.73v-6.29l.73-.73H44l.73.73Z"/><path class="cls-16" d="M58.76,207.11v-7.75L57,197.61H50l-1.75,1.75v7.74l.88.88-.88.88v8L50,218.61h7l1.75-1.75v-8h0l-.87-.88.87-.87Zm-1.75,9-.73.73H50.74l-.73-.73v-6.54l.73-.73h5.54l.73.73Zm0-9.75-.73.73H50.74l-.73-.73v-6.29l.73-.73h5.54l.73.73Z"/><path class="cls-16" d="M78,207.11l.87.87-.87.88h0v8l1.75,1.75h7l1.75-1.75v-8l-.88-.88.88-.88v-7.74l-1.75-1.75h-7L78,199.36v7.75Zm1.74,2.48.73-.73H86l.73.73v6.54l-.73.73H80.49l-.73-.73Zm0-9.5.73-.73H86l.73.73v6.29l-.73.73H80.49l-.73-.73Z"/><path class="cls-16" d="M65.77,207.11l.87.87-.87.88h0v8l1.75,1.75h7l1.75-1.75v-8l-.88-.88.88-.88v-7.74l-1.75-1.75h-7l-1.75,1.75v7.75Zm1.74,2.48.73-.73h5.54l.73.73v6.54l-.73.73H68.24l-.73-.73Zm0-9.5.73-.73h5.54l.73.73v6.29l-.73.73H68.24l-.73-.73Z"/><circle class="cls-16" cx="62.26" cy="216.86" r="1.75"/><path class="cls-16" d="M46.51,235V227.2l-1.75-1.75h-7L36,227.2v7.74l.88.88-.88.89v8l1.75,1.75h7l1.75-1.75v-8h0l-.87-.88.87-.87Zm-1.75,9-.73.73H38.49l-.73-.73v-6.54l.73-.73H44l.73.73Zm0-9.75L44,235H38.49l-.73-.73v-6.29l.73-.73H44l.73.73Z"/><path class="cls-16" d="M58.76,235V227.2L57,225.45H50l-1.75,1.75v7.74l.88.88-.88.89v8L50,246.45h7l1.75-1.75v-8h0l-.87-.88.87-.87ZM57,244l-.73.73H50.74L50,244v-6.54l.73-.73h5.54l.73.73Zm0-9.75-.73.73H50.74l-.73-.73v-6.29l.73-.73h5.54l.73.73Z"/><path class="cls-16" d="M78,235l.87.87-.87.88h0v8l1.75,1.75h7l1.75-1.75v-8l-.88-.89.88-.88V227.2l-1.75-1.75h-7L78,227.2V235Zm1.74,2.48.73-.73H86l.73.73V244l-.73.73H80.49l-.73-.73Zm0-9.5.73-.73H86l.73.73v6.29L86,235H80.49l-.73-.73Z"/><path class="cls-16" d="M65.77,235l.87.87-.87.88h0v8l1.75,1.75h7l1.75-1.75v-8l-.88-.89.88-.88V227.2l-1.75-1.75h-7l-1.75,1.75V235Zm1.74,2.48.73-.73h5.54l.73.73V244l-.73.73H68.24l-.73-.73Zm0-9.5.73-.73h5.54l.73.73v6.29l-.73.73H68.24l-.73-.73Z"/><circle class="cls-16" cx="62.26" cy="244.7" r="1.75"/><rect class="cls-17" x="53.01" y="256.26" width="15" height="15" rx="1.96" ry="1.96"/><path class="cls-18" d="M86.76,261.55a1.48,1.48,0,0,1,0,.21,1.62,1.62,0,0,1,0,.22"/><line class="cls-19" x1="84.76" y1="261.99" x2="84.76" y2="261.53"/><polygon class="cls-20" points="50.63 381.6 41.84 381.6 26.51 358.61 41.84 335.62 50.63 335.62 35.3 358.61 50.63 381.6"/><polygon class="cls-20" points="62.06 381.6 53.27 381.6 37.94 358.61 53.27 335.62 62.06 335.62 46.73 358.61 62.06 381.6"/><polygon class="cls-20" points="73.49 381.6 64.7 381.6 49.37 358.61 64.7 335.62 73.49 335.62 58.16 358.61 73.49 381.6"/><rect class="cls-21" x="5" y="251.26" width="90" height="25"/><rect class="cls-22" x="10.01" y="255.26" width="17" height="17" rx="1.96" ry="1.96"/><rect class="cls-22" x="31.01" y="255.26" width="17" height="17" rx="1.96" ry="1.96"/><rect class="cls-22" x="52.01" y="255.26" width="17" height="17" rx="1.96" ry="1.96"/><rect class="cls-22" x="73.01" y="255.26" width="17" height="17" rx="1.96" ry="1.96"/><rect class="cls-17" x="74.01" y="256.26" width="15" height="15" rx="1.96" ry="1.96"/><rect class="cls-17" x="32.01" y="256.26" width="15" height="15" rx="1.96" ry="1.96"/><rect class="cls-17" x="11.01" y="256.26" width="15" height="15" rx="1.96" ry="1.96"/><path d="M24,263.37H22.36l-1.66-4.84-1.19-.08.9,4.92h-3.8l.9-4.92-1.19.08-1.67,4.84H13a.93.93,0,1,0,0,1.86c1.33,0,1.11,4.77,1.85,4.77H22.2c.74,0,.52-4.77,1.84-4.77a.93.93,0,0,0,0-1.86ZM21.67,269H15.35c-.53,0-.44-3.77-1.38-3.77H23C22.11,265.23,22.2,269,21.67,269Z"/><text class="cls-23" transform="translate(33.84 267.65) scale(0.61 1)">WC</text><rect class="cls-17" x="53.01" y="256.26" width="15" height="15" rx="1.96" ry="1.96" transform="translate(121.02 527.51) rotate(-180)"/><path class="cls-24" d="M66.79,263.75a2.39,2.39,0,0,1-2.39,2.39,2.24,2.24,0,0,1-.73-.12,3.87,3.87,0,0,1-4.72,1.3c1.56.3,1.56-7.46,3.13-7.13a3.86,3.86,0,0,1,1.59,1.29,2.53,2.53,0,0,1,.73-.11A2.38,2.38,0,0,1,66.79,263.75Z"/><path class="cls-19" d="M62.08,260.19c-1.57-.33-1.57,7.43-3.13,7.13h0a3.81,3.81,0,0,1-1.59-1.3,2.25,2.25,0,0,1-.74.12,2.39,2.39,0,1,1,0-4.77,2.19,2.19,0,0,1,.73.12,3.9,3.9,0,0,1,4.74-1.3Z"/><text class="cls-25" transform="translate(55.48 264.8)">Wi</text><text class="cls-26" transform="translate(62.27 264.8)">Fi</text><path class="cls-18" d="M82.51,257.51H76.26V270h2v-4h4.25a4.12,4.12,0,0,0,2.25-.65,4.2,4.2,0,0,0,2-3.39v-.43A4.25,4.25,0,0,0,82.51,257.51ZM84.76,262a2.27,2.27,0,0,1-2.25,2H78.26v-4.51h4.25a2.27,2.27,0,0,1,2.25,2,1.77,1.77,0,0,1,0,.23A1.69,1.69,0,0,1,84.76,262Z"/></g></g></svg>