<svg xmlns="http://www.w3.org/2000/svg" xmlns:xlink="http://www.w3.org/1999/xlink" viewBox="0 0 349.07 514.27"><defs><style>.cls-1{fill:none;}.cls-2{fill:#ff0;}.cls-3{fill:#89c33f;}.cls-11,.cls-12,.cls-13,.cls-14,.cls-15,.cls-16,.cls-17,.cls-18,.cls-4,.cls-7,.cls-8{stroke:#000;}.cls-11,.cls-12,.cls-13,.cls-14,.cls-15,.cls-16,.cls-17,.cls-18,.cls-4,.cls-7{stroke-linecap:round;stroke-linejoin:round;stroke-width:3px;}.cls-4{fill:url(#linear-gradient);}.cls-5{fill:#0f0e90;}.cls-6{fill:#d0d0f2;}.cls-7{fill:url(#linear-gradient-2);}.cls-8{stroke-miterlimit:10;stroke-width:0.25px;}.cls-9{fill:url(#LED_Yellow);}.cls-10{fill:#fff;}.cls-11{fill:#34343d;}.cls-12{fill:url(#linear-gradient-3);}.cls-13{fill:#686879;}.cls-14{fill:url(#linear-gradient-4);}.cls-15{fill:#6f6ebc;}.cls-16{fill:url(#linear-gradient-5);}.cls-17{fill:url(#linear-gradient-6);}.cls-18{fill:url(#linear-gradient-7);}.cls-19{fill:url(#linear-gradient-8);}.cls-20{fill:url(#linear-gradient-9);}.cls-21{fill:url(#linear-gradient-10);}.cls-22{fill:url(#linear-gradient-11);}.cls-23{fill:url(#linear-gradient-12);}.cls-24{fill:url(#linear-gradient-13);}.cls-25{fill:url(#linear-gradient-14);}.cls-26{fill:url(#linear-gradient-15);}.cls-27{fill:url(#linear-gradient-16);}.cls-28{fill:url(#linear-gradient-17);}.cls-29{fill:url(#linear-gradient-18);}.cls-30{fill:url(#linear-gradient-19);}</style><linearGradient id="linear-gradient" x1="149.15" y1="196.16" x2="296" y2="196.16" gradientUnits="userSpaceOnUse"><stop offset="0" stop-color="#908fb2"/><stop offset="0.16" stop-color="#9695b6"/><stop offset="0.36" stop-color="#a5a4c1"/><stop offset="0.59" stop-color="#bfbfd3"/><stop offset="0.84" stop-color="#e3e3ec"/><stop offset="1" stop-color="#fff"/></linearGradient><linearGradient id="linear-gradient-2" x1="169.26" y1="187.69" x2="257.11" y2="187.69" gradientUnits="userSpaceOnUse"><stop offset="0" stop-color="#6f6ebc"/><stop offset="0.04" stop-color="#7372be"/><stop offset="0.69" stop-color="#b6b5e3"/><stop offset="1" stop-color="#d0d0f2"/></linearGradient><pattern id="LED_Yellow" data-name="LED Yellow" width="3" height="3" patternUnits="userSpaceOnUse" viewBox="0 0 3 3"><rect class="cls-1" width="3" height="3"/><circle class="cls-2" cx="0.32" cy="0.32" r="0.32"/><circle class="cls-2" cx="1.11" cy="1.11" r="0.32"/><circle class="cls-2" cx="1.89" cy="0.32" r="0.32"/><circle class="cls-2" cx="2.68" cy="1.11" r="0.32"/><circle class="cls-2" cx="0.32" cy="1.89" r="0.32"/><circle class="cls-2" cx="1.11" cy="2.68" r="0.32"/><circle class="cls-2" cx="1.89" cy="1.89" r="0.32"/><circle class="cls-2" cx="2.68" cy="2.68" r="0.32"/><circle class="cls-3" cx="0.32" cy="0.32" r="0.07"/><circle class="cls-3" cx="1.89" cy="0.32" r="0.07"/><circle class="cls-3" cx="2.68" cy="1.11" r="0.07"/><circle class="cls-3" cx="1.11" cy="1.11" r="0.07"/><circle class="cls-3" cx="0.32" cy="1.89" r="0.07"/><circle class="cls-3" cx="1.89" cy="1.89" r="0.07"/><circle class="cls-3" cx="1.11" cy="2.68" r="0.07"/><circle class="cls-3" cx="2.68" cy="2.68" r="0.07"/></pattern><linearGradient id="linear-gradient-3" x1="66.93" y1="188.08" x2="169.26" y2="188.08" gradientUnits="userSpaceOnUse"><stop offset="0" stop-color="#d0d0f2"/><stop offset="0.31" stop-color="#b6b5e3"/><stop offset="0.96" stop-color="#7372be"/><stop offset="1" stop-color="#6f6ebc"/></linearGradient><linearGradient id="linear-gradient-4" x1="115.1" y1="298.23" x2="149.15" y2="298.23" gradientUnits="userSpaceOnUse"><stop offset="0" stop-color="#908fb2"/><stop offset="0.18" stop-color="#9493b5"/><stop offset="0.37" stop-color="#a2a1be"/><stop offset="0.57" stop-color="#b7b7cd"/><stop offset="0.78" stop-color="#d6d5e2"/><stop offset="0.99" stop-color="#fcfcfd"/><stop offset="1" stop-color="#fff"/></linearGradient><linearGradient id="linear-gradient-5" x1="196.54" y1="15.85" x2="121.55" y2="90.84" gradientUnits="userSpaceOnUse"><stop offset="0" stop-color="#908fb2"/><stop offset="0.15" stop-color="#9796b7"/><stop offset="0.38" stop-color="#acabc5"/><stop offset="0.66" stop-color="#cdcddc"/><stop offset="0.97" stop-color="#fbfbfc"/><stop offset="1" stop-color="#fff"/></linearGradient><linearGradient id="linear-gradient-6" x1="115.1" y1="84.35" x2="149.15" y2="84.35" xlink:href="#linear-gradient-4"/><linearGradient id="linear-gradient-7" x1="158.61" y1="299.69" x2="158.61" y2="368.88" gradientUnits="userSpaceOnUse"><stop offset="0" stop-color="#fff"/><stop offset="0.01" stop-color="#fcfcfd"/><stop offset="0.22" stop-color="#d6d5e2"/><stop offset="0.43" stop-color="#b7b7cd"/><stop offset="0.63" stop-color="#a2a1be"/><stop offset="0.82" stop-color="#9493b5"/><stop offset="1" stop-color="#908fb2"/></linearGradient><linearGradient id="linear-gradient-8" x1="121.13" y1="70.69" x2="169.76" y2="70.69" gradientUnits="userSpaceOnUse"><stop offset="0" stop-opacity="0"/><stop offset="1"/></linearGradient><linearGradient id="linear-gradient-9" x1="20" y1="106.27" x2="67.43" y2="106.27" xlink:href="#linear-gradient-8"/><linearGradient id="linear-gradient-10" x1="149.19" y1="11.4" x2="203.49" y2="11.4" xlink:href="#linear-gradient-8"/><linearGradient id="linear-gradient-11" x1="254.58" y1="49.83" x2="284.16" y2="49.83" gradientUnits="userSpaceOnUse"><stop offset="0"/><stop offset="1" stop-opacity="0"/></linearGradient><linearGradient id="linear-gradient-12" x1="115.13" y1="25.44" x2="169.38" y2="25.44" xlink:href="#linear-gradient-8"/><linearGradient id="linear-gradient-13" x1="331.6" y1="449.79" x2="349.56" y2="449.79" xlink:href="#linear-gradient-11"/><linearGradient id="linear-gradient-14" x1="331.6" y1="463.7" x2="349.56" y2="463.7" xlink:href="#linear-gradient-11"/><linearGradient id="linear-gradient-15" x1="99.86" y1="486.49" x2="187.04" y2="486.49" xlink:href="#linear-gradient-8"/><linearGradient id="linear-gradient-16" x1="99.86" y1="504.9" x2="187.04" y2="504.9" xlink:href="#linear-gradient-8"/><linearGradient id="linear-gradient-17" x1="-0.5" y1="465.92" x2="84.47" y2="465.92" xlink:href="#linear-gradient-8"/><linearGradient id="linear-gradient-18" x1="-0.49" y1="481.85" x2="84.47" y2="481.85" xlink:href="#linear-gradient-8"/><linearGradient id="linear-gradient-19" x1="20" y1="297.19" x2="67.43" y2="297.19" xlink:href="#linear-gradient-8"/></defs><title>Stella_2</title><g id="Layer_2" data-name="Layer 2"><g id="Layer_1-2" data-name="Layer 1"><polygon class="cls-4" points="296 120.73 296 210.22 255.09 271.49 255.09 367.55 202.99 370.02 202.13 368.88 149.15 299.69 149.15 72.66 202.99 22.3 255.09 44.1 296 120.73"/><path class="cls-5" d="M249.25,89.33l3.08,1.08V84.73l-3.08-1.11A53.5,53.5,0,0,0,247.55,73h0l2.69-1.44-1.82-5.63-2.7,1.42A46.64,46.64,0,0,0,241,58.17l1.59-3.66-3.21-4.16L237.78,54a25.06,25.06,0,0,0-6.61-5.35v-5l-3.83-1.55v5a12.34,12.34,0,0,0-6.8.07h0l-1.68-5.08-3.43,1.62,1.7,5.1A17.09,17.09,0,0,0,212,54.55l-3-3.73-2,4.46L210,59a37,37,0,0,0-1.89,9.87l-3.5-1.26v6.08l3.5,1.22A53.51,53.51,0,0,0,210,86.12h0l-3,1.58,2,5.91,3-1.6a46,46,0,0,0,5.11,9.33l-1.7,3.89,3.43,4,1.69-3.88a23.37,23.37,0,0,0,6.8,4.89v5l3.83,1.17v-5a12,12,0,0,0,6.61-.67l1.6,4.8,3.21-1.9L241,108.94a18.21,18.21,0,0,0,4.72-5.85l2.7,3.34,1.82-4.35-2.69-3.33h0A37.64,37.64,0,0,0,249.25,89.33Z"/><path class="cls-6" d="M237.57,85.24c0,.3-.1.61-.16.89a11.2,11.2,0,0,1-1.88,4.39,6.13,6.13,0,0,1-.45.54,5.43,5.43,0,0,1-3.28,1.82,4.26,4.26,0,0,1-.63,0,5.73,5.73,0,0,1-1.91-.31,7.88,7.88,0,0,1-1.92-1c-.21-.15-.43-.31-.64-.48a14.3,14.3,0,0,1-3.35-4.1,8.91,8.91,0,0,1-.47-.87,21.74,21.74,0,0,1-2-5.81c-.07-.34-.13-.69-.17-1a20.76,20.76,0,0,1-.22-3,17.75,17.75,0,0,1,.22-2.89,8.81,8.81,0,0,1,.17-.92,10.73,10.73,0,0,1,2-4.42,6.06,6.06,0,0,1,.47-.54,5.32,5.32,0,0,1,3.35-1.71,4.56,4.56,0,0,1,.64,0,5.9,5.9,0,0,1,1.92.38,8,8,0,0,1,1.91,1,7.47,7.47,0,0,1,.63.48,14.72,14.72,0,0,1,3.28,4.14c.15.28.31.57.45.86a22.47,22.47,0,0,1,1.88,5.72c.06.33.12.67.16,1a21.22,21.22,0,0,1,.21,3A18.18,18.18,0,0,1,237.57,85.24Z"/><path class="cls-5" d="M286.43,128.73l2.77.86V124.2l-2.77-.88a51.83,51.83,0,0,0-1.53-10h0l2.41-1.51-1.62-5.24-2.43,1.5A42,42,0,0,0,279,99.68l1.42-3.55-2.87-3.76-1.43,3.54a20.85,20.85,0,0,0-5.91-4.69V86.49l-3.43-1.26V90a10.59,10.59,0,0,0-6.08.45h0l-1.5-4.71-3.06,1.73,1.51,4.72a17.54,17.54,0,0,0-4.56,5.67l-2.66-3.35-1.81,4.33,2.68,3.34a37.73,37.73,0,0,0-1.69,9.42l-3.12-1v5.73l3.12,1a51.41,51.41,0,0,0,1.69,10.48h0l-2.68,1.64,1.81,5.48,2.66-1.68a41.45,41.45,0,0,0,4.56,8.55l-1.51,3.77,3.06,3.64,1.5-3.75a19.12,19.12,0,0,0,6.08,4.27v4.76l3.43.91v-4.75a10.39,10.39,0,0,0,5.9-1l1.44,4.46,2.87-2L279,147.72a18.62,18.62,0,0,0,4.23-5.78l2.42,3,1.62-4.21-2.41-3h0A38.48,38.48,0,0,0,286.43,128.73Z"/><path class="cls-6" d="M276,125.48c0,.29-.09.58-.15.86a11.21,11.21,0,0,1-1.68,4.24,5.82,5.82,0,0,1-.4.54,5.16,5.16,0,0,1-2.93,1.89,3.43,3.43,0,0,1-.56.07,4.69,4.69,0,0,1-1.72-.19,6.1,6.1,0,0,1-1.71-.82c-.19-.13-.38-.26-.57-.41a12.23,12.23,0,0,1-3-3.7c-.15-.25-.29-.52-.42-.79a20.3,20.3,0,0,1-1.76-5.39c-.06-.32-.11-.65-.15-1a21.19,21.19,0,0,1-.2-2.87,18.29,18.29,0,0,1,.2-2.74c0-.31.09-.6.15-.89a11.24,11.24,0,0,1,1.75-4.28c.14-.19.27-.37.42-.54a5.06,5.06,0,0,1,3-1.8,3.66,3.66,0,0,1,.57,0,4.54,4.54,0,0,1,1.71.26,6.37,6.37,0,0,1,1.72.88,5.57,5.57,0,0,1,.56.43,12.64,12.64,0,0,1,2.93,3.73c.14.25.27.52.4.79a20.24,20.24,0,0,1,1.68,5.31c.06.31.11.63.15.95a20.06,20.06,0,0,1,.19,2.8A17.84,17.84,0,0,1,276,125.48Z"/><path class="cls-5" d="M290.43,193l2.74.59v-5.35l-2.74-.61a49,49,0,0,0-1.51-9.75h0l2.39-1.72-1.61-5-2.4,1.72a37.54,37.54,0,0,0-4.17-8l1.4-3.66-2.84-3.46-1.41,3.66a18,18,0,0,0-5.84-4.09v-4.71l-3.38-.91v4.73a10.83,10.83,0,0,0-6,1h0l-1.48-4.53-3,2,1.5,4.54a20,20,0,0,0-4.5,6.08l-2.64-3.07L253.13,167l2.64,3.06a40.08,40.08,0,0,0-1.67,9.52l-3.07-.69v5.7l3.07.66a49.78,49.78,0,0,0,1.67,10.24h0l-2.64,1.9,1.78,5.26,2.64-1.92a35.88,35.88,0,0,0,4.5,8.05l-1.5,3.89,3,3.33,1.49-3.88a16.48,16.48,0,0,0,6,3.66v4.74l3.38.57v-4.72a10.8,10.8,0,0,0,5.84-1.53l1.41,4.29,2.84-2.22-1.4-4.27a21.25,21.25,0,0,0,4.18-6.16l2.39,2.77,1.61-4.34-2.39-2.77h0A40,40,0,0,0,290.43,193Z"/><path class="cls-6" d="M280.09,190.79a7.9,7.9,0,0,1-.14.87,12.47,12.47,0,0,1-1.66,4.38c-.13.21-.26.39-.4.58a5.84,5.84,0,0,1-2.89,2.16,2.66,2.66,0,0,1-.56.12,4.58,4.58,0,0,1-1.69,0,5.74,5.74,0,0,1-1.69-.65,6.65,6.65,0,0,1-.56-.36,10.4,10.4,0,0,1-3-3.38c-.15-.24-.28-.49-.41-.75a18.76,18.76,0,0,1-1.74-5.19c-.06-.31-.1-.63-.14-1a19,19,0,0,1-.2-2.83,17.36,17.36,0,0,1,.2-2.75c0-.31.08-.6.14-.89a12.5,12.5,0,0,1,1.73-4.42c.14-.2.27-.4.42-.58a5.6,5.6,0,0,1,3-2.07,3.48,3.48,0,0,1,.56-.12,4.65,4.65,0,0,1,1.69.1,5.79,5.79,0,0,1,1.69.71,4.92,4.92,0,0,1,.56.37,11,11,0,0,1,2.89,3.42c.14.25.27.5.4.75a18.76,18.76,0,0,1,1.66,5.12,9,9,0,0,1,.14.93,19.43,19.43,0,0,1,.19,2.77A17.8,17.8,0,0,1,280.09,190.79Z"/><polygon class="cls-7" points="257.11 107.13 257.11 297.12 169.26 292.36 169.26 78.26 257.11 107.13"/><polygon class="cls-8" points="251.49 114.23 251.49 145.54 199.83 131.54 199.83 97.91 251.49 114.23"/><path class="cls-9" d="M212.66,117.14V106.69l-1.58-2.86-6.38-2-1.62,1.88V114.3l.82,1.45-.82,1v10.93l1.62,2.83,6.38,1.75,1.58-1.92V119.5h0l-.79-1.41.79-1Zm-1.58,11.73-.66.81-5-1.41-.67-1.18v-8.92l.67-.8,5,1.48.66,1.18Zm0-13.18-.66.79-5-1.49-.67-1.19v-8.58l.67-.79,5,1.56.66,1.19Z"/><path class="cls-9" d="M223.54,120.35v-10.3l-1.54-2.8-6.2-1.94-1.56,1.86V117.6L215,119l-.79,1v10.76l1.56,2.79,6.2,1.7,1.54-1.91V122.68h0l-.77-1.39.77-.94ZM222,131.92l-.64.79-4.91-1.36-.65-1.16V121.4l.65-.79,4.91,1.43.64,1.16Zm0-13-.64.78-4.91-1.45-.65-1.17v-8.45l.65-.78,4.91,1.52.64,1.17Z"/><polygon class="cls-8" points="199.83 97.91 199.83 131.54 176.27 125.16 176.27 90.47 199.83 97.91"/><path class="cls-9" d="M240,125.21l.74,1.35-.74.92h0v10.4l1.46,2.67,5.77,1.58,1.43-1.85V130l-.72-1.34.72-.92v-9.94l-1.43-2.69-5.77-1.81L240,115.14v10.07Zm1.46,3.64.6-.77,4.58,1.34.59,1.11V139l-.59.77-4.58-1.27-.6-1.11Zm0-12.31.6-.76,4.58,1.42.59,1.12v8.09l-.59.76-4.58-1.35-.6-1.13Z"/><path class="cls-9" d="M229.61,122.15l.75,1.37-.75.93h0V135l1.5,2.71,5.94,1.63,1.47-1.87V127.06l-.74-1.36.74-.93V114.69L237.05,112l-5.94-1.86-1.5,1.84v10.21Zm1.5,3.7.62-.78,4.71,1.37.61,1.13v8.54l-.61.78-4.71-1.31-.62-1.13Zm0-12.5.62-.76,4.71,1.45.61,1.14v8.21l-.61.77-4.71-1.39-.62-1.14Z"/><path class="cls-9" d="M228.1,134.58c0,1.27-.68,2.12-1.52,1.89a2.83,2.83,0,0,1-1.52-2.73c0-1.29.69-2.13,1.52-1.9A2.84,2.84,0,0,1,228.1,134.58Z"/><polygon class="cls-8" points="251.49 149.81 251.49 181.12 199.83 169.76 199.83 136.13 251.49 149.81"/><path class="cls-9" d="M212.66,154.7V144.25l-1.58-2.78-6.38-1.67-1.62,2v10.58l.82,1.41-.82,1v10.93l1.62,2.75,6.38,1.43,1.58-2v-10.8h0l-.79-1.37.79-1Zm-1.58,11.82-.66.83-5-1.14-.67-1.15v-8.92l.67-.84,5,1.22.66,1.15Zm0-13.19-.66.83-5-1.24-.67-1.16v-8.58l.67-.82,5,1.31.66,1.15Z"/><path class="cls-9" d="M223.54,157.36v-10.3L222,144.33l-6.2-1.62-1.56,1.94v10.43l.79,1.38-.79,1v10.76l1.56,2.71,6.2,1.38,1.54-2V159.68h0l-.77-1.35.77-1ZM222,169l-.64.83-4.91-1.11-.65-1.13V158.8l.65-.82,4.91,1.18.64,1.12Zm0-13-.64.82-4.91-1.2-.65-1.14V146l.65-.81,4.91,1.27.64,1.13Z"/><polygon class="cls-8" points="199.83 136.13 199.83 169.76 176.27 164.57 176.27 129.89 199.83 136.13"/><path class="cls-9" d="M240,161.38l.74,1.31-.74,1h0V174l1.46,2.6,5.77,1.29,1.43-1.93V165.75l-.72-1.31.72-1v-9.93l-1.43-2.62-5.77-1.51L240,151.31v10.07Zm1.46,3.56.6-.79,4.58,1.1.59,1.08v8.41l-.59.81-4.58-1-.6-1.08Zm0-12.31.6-.79,4.58,1.18.59,1.09v8.1l-.59.79-4.58-1.12-.6-1.09Z"/><path class="cls-9" d="M229.61,158.84l.75,1.34-.75,1h0v10.54l1.5,2.64,5.94,1.33,1.47-1.95V163.3l-.74-1.32.74-1V150.93l-1.47-2.66-5.94-1.56-1.5,1.92v10.21Zm1.5,3.63.62-.81,4.71,1.13.61,1.1v8.54l-.61.81-4.71-1.07-.62-1.1Zm0-12.5.62-.79,4.71,1.21.61,1.11v8.21l-.61.8-4.71-1.15-.62-1.11Z"/><path class="cls-9" d="M228.1,171.35c0,1.28-.68,2.16-1.52,2s-1.52-1.37-1.52-2.66.69-2.16,1.52-2S228.1,170.07,228.1,171.35Z"/><polygon class="cls-8" points="251.49 185.39 251.49 216.7 199.83 207.97 199.83 174.34 251.49 185.39"/><path class="cls-9" d="M212.66,192.26V181.81l-1.58-2.7-6.38-1.34-1.62,2V190.4l.82,1.36-.82,1.05v10.93l1.62,2.67,6.38,1.1,1.58-2.09v-10.8h0l-.79-1.33.79-1Zm-1.58,11.9-.66.87-5-.89L204.7,203V194.1l.67-.86,5,1,.66,1.11Zm0-13.19-.66.86-5-1-.67-1.12v-8.58l.67-.86,5,1.05.66,1.13Z"/><path class="cls-9" d="M223.54,194.36v-10.3L222,181.41l-6.2-1.3-1.56,2v10.43l.79,1.34-.79,1v10.76l1.56,2.63,6.2,1.07,1.54-2.07V196.69h0l-.77-1.31.77-1ZM222,206.09l-.64.85-4.91-.86L215.8,205V196.2l.65-.86,4.91.94.64,1.09Zm0-13-.64.84-4.91-.94-.65-1.11v-8.45l.65-.85,4.91,1,.64,1.11Z"/><polygon class="cls-8" points="199.83 174.34 199.83 207.97 176.27 203.99 176.27 169.3 199.83 174.34"/><path class="cls-9" d="M240,197.54l.74,1.28-.74,1h0v10.39l1.46,2.52,5.77,1,1.43-2V201.47l-.72-1.27.72-1v-9.94l-1.43-2.54-5.77-1.22-1.46,2v10.06Zm1.46,3.5.6-.83,4.58.87.59,1v8.41l-.59.83-4.58-.8-.6-1Zm0-12.32.6-.82,4.58.95.59,1.06V198l-.59.83-4.58-.89-.6-1.06Z"/><path class="cls-9" d="M229.61,195.54l.75,1.3-.75,1h0v10.55l1.5,2.56,5.94,1,1.47-2v-10.4l-.74-1.29.74-1V187.17l-1.47-2.59-5.94-1.25-1.5,2v10.22Zm1.5,3.55.62-.84,4.71.89.61,1.07v8.54l-.61.84-4.71-.83-.62-1.06Zm0-12.5.62-.83,4.71,1,.61,1.08V196l-.61.83-4.71-.91-.62-1.08Z"/><path class="cls-9" d="M228.1,208.12c0,1.28-.68,2.2-1.52,2.06s-1.52-1.31-1.52-2.59.69-2.2,1.52-2.05S228.1,206.85,228.1,208.12Z"/><polygon class="cls-8" points="251.49 220.97 251.49 252.28 199.83 246.19 199.83 212.56 251.49 220.97"/><path class="cls-9" d="M212.66,229.82V219.37l-1.58-2.61-6.38-1-1.62,2.13v10.58l.82,1.32-.82,1.09v10.93l1.62,2.58,6.38.78,1.58-2.17v-10.8h0l-.79-1.29.79-1.07Zm-1.58,12-.66.9-5-.63L204.7,241v-8.92l.67-.9,5,.7.66,1.08Zm0-13.19-.66.89-5-.71-.67-1.09v-8.58l.67-.89,5,.79.66,1.09Z"/><path class="cls-9" d="M223.54,231.37v-10.3L222,218.5l-6.2-1-1.56,2.11V230l.79,1.3-.79,1.07v10.76l1.56,2.55,6.2.75,1.54-2.14V233.7h0l-.77-1.28.77-1ZM222,243.17l-.64.89-4.91-.61-.65-1.06V233.6l.65-.89,4.91.68.64,1.06Zm0-13-.64.88-4.91-.7-.65-1.07v-8.45l.65-.88,4.91.77.64,1.07Z"/><polygon class="cls-8" points="199.83 212.56 199.83 246.19 176.27 243.41 176.27 208.72 199.83 212.56"/><path class="cls-9" d="M240,233.71l.74,1.24-.74,1h0v10.4l1.46,2.45,5.77.7,1.43-2.07V237.2l-.72-1.24.72-1V225l-1.43-2.47-5.77-.93-1.46,2v10.07Zm1.46,3.42.6-.86,4.58.64.59,1v8.41l-.59.86-4.58-.57-.6-1Zm0-12.31.6-.85,4.58.71.59,1v8.09l-.59.85-4.58-.65-.6-1Z"/><path class="cls-9" d="M229.61,232.23l.75,1.26-.75,1h0v10.55l1.5,2.48,5.94.73,1.47-2.1V235.79l-.74-1.25.74-1V223.41l-1.47-2.51-5.94-1-1.5,2.07v10.21Zm1.5,3.48.62-.87,4.71.65.61,1v8.53l-.61.88-4.71-.59-.62-1Zm0-12.5.62-.86,4.71.74.61,1v8.21l-.61.87-4.71-.67-.62-1Z"/><path class="cls-9" d="M228.1,244.9c0,1.27-.68,2.23-1.52,2.13s-1.52-1.23-1.52-2.51.69-2.23,1.52-2.13S228.1,243.62,228.1,244.9Z"/><polygon class="cls-8" points="251.49 256.55 251.49 287.86 199.83 284.4 199.83 250.77 251.49 256.55"/><path class="cls-9" d="M212.66,267.38V256.93l-1.58-2.53-6.38-.7-1.62,2.22V266.5l.82,1.28-.82,1.13v10.93l1.62,2.5,6.38.45,1.58-2.25v-10.8h0l-.79-1.25.79-1.11Zm-1.58,12.06-.66.93-5-.37-.67-1V270l.67-.94,5,.45.66,1Zm0-13.18-.66.92-5-.46-.67-1.06v-8.58l.67-.92,5,.53.66,1.06Z"/><path class="cls-9" d="M223.54,268.38v-10.3l-1.54-2.5-6.2-.67-1.56,2.19v10.42l.79,1.26-.79,1.11v10.76l1.56,2.47,6.2.44,1.54-2.22V270.7h0l-.77-1.23.77-1.09ZM222,280.25l-.64.93-4.91-.36-.65-1V271l.65-.92,4.91.43.64,1Zm0-13-.64.91-4.91-.45-.65-1v-8.45l.65-.91,4.91.52.64,1Z"/><polygon class="cls-8" points="199.83 250.77 199.83 284.4 176.27 282.82 176.27 248.14 199.83 250.77"/><path class="cls-9" d="M240,269.88l.74,1.2-.74,1.07h0v10.39l1.46,2.38,5.77.41,1.43-2.15V272.92l-.72-1.19.72-1.07v-9.93l-1.43-2.41-5.77-.62L240,259.81v10.07Zm1.46,3.34.6-.89,4.58.41.59,1v8.42l-.59.89-4.58-.33-.6-1Zm0-12.31.6-.88,4.58.48.59,1v8.09l-.59.88-4.58-.41-.6-1Z"/><path class="cls-9" d="M229.61,268.93l.75,1.22-.75,1.09h0v10.54l1.5,2.41,5.94.42,1.47-2.17V272l-.74-1.21.74-1.09V259.66l-1.47-2.44-5.94-.65-1.5,2.15v10.21Zm1.5,3.4.62-.91,4.71.42.61,1v8.54l-.61.9-4.71-.34-.62-1Zm0-12.5.62-.89,4.71.5.61,1v8.21l-.61.89-4.71-.43-.62-1Z"/><path class="cls-9" d="M228.1,281.67c0,1.28-.68,2.27-1.52,2.21s-1.52-1.15-1.52-2.43.69-2.27,1.52-2.21S228.1,280.4,228.1,281.67Z"/><path class="cls-10" d="M181.93,114.84a4.35,4.35,0,0,0,1.08.24,2.46,2.46,0,0,0,2.06-.7,5.09,5.09,0,0,0,1.3-3.18h-.05A2,2,0,0,1,184,112c-1.77-.51-2.91-2.67-2.91-5,0-2.54,1.35-4.37,3.37-3.76s3.24,3.2,3.24,6.6c0,2.93-.72,4.77-1.69,5.77a3.28,3.28,0,0,1-2.86,1,4.37,4.37,0,0,1-1.23-.25Zm.49-7.58c0,1.67.74,3.06,1.9,3.4a1.55,1.55,0,0,0,1.93-.83,1.35,1.35,0,0,0,.12-.62c0-2.28-.62-4.21-2-4.63C183.23,104.24,182.42,105.36,182.42,107.26Z"/><path class="cls-10" d="M194.66,108l-3.67-1.1-.37,3.3a3.4,3.4,0,0,1,.79.15,4.47,4.47,0,0,1,2.07,1.33,5.58,5.58,0,0,1,1.37,3.79c0,2.58-1.49,4.09-3.58,3.49a5.26,5.26,0,0,1-2.41-1.5l.33-1.28a4.85,4.85,0,0,0,2.07,1.33c1.23.35,2.28-.45,2.28-2.22a3.66,3.66,0,0,0-2.77-3.74,7.37,7.37,0,0,0-1.34-.25l.62-6.19,4.61,1.39Z"/><path class="cls-10" d="M181.93,154a5.17,5.17,0,0,0,1.08.19,2.61,2.61,0,0,0,2.06-.81,5.37,5.37,0,0,0,1.3-3.25h-.05A2.05,2.05,0,0,1,184,151c-1.77-.42-2.91-2.52-2.91-4.81,0-2.54,1.35-4.44,3.37-3.93s3.24,3,3.24,6.43c0,2.93-.72,4.81-1.69,5.86a3.44,3.44,0,0,1-2.86,1.12,4.54,4.54,0,0,1-1.23-.19Zm.49-7.61c0,1.67.74,3,1.9,3.31a1.64,1.64,0,0,0,1.93-.93,1.43,1.43,0,0,0,.12-.63c0-2.28-.62-4.18-2-4.53C183.23,143.3,182.42,144.46,182.42,146.36Z"/><path class="cls-10" d="M188.9,156.87v-1.1l1-1.13c2.47-2.63,3.58-4.07,3.6-6.06,0-1.35-.48-2.7-1.91-3.06a2.27,2.27,0,0,0-2.06.61l-.42-1.37a2.92,2.92,0,0,1,2.74-.67c2.07.53,2.94,2.69,2.94,4.58,0,2.44-1.28,4.1-3.31,6.31l-.77.79v0l4.32,1v1.48Z"/><path class="cls-10" d="M187.92,181v12.35l.88.21-.09,4.71-1-.18-.09-3.34-6.43-1.18-.09,3.33-1-.18-.09-4.8.78.1a17.25,17.25,0,0,0,1-2.87,26.49,26.49,0,0,0,.48-5.77v-3.53Zm-4.47,3.2a24.46,24.46,0,0,1-.51,5.57,13.05,13.05,0,0,1-.84,2.48l4.51.84V182.17l-3.16-.63Z"/><path class="cls-10" d="M197.63,182.91v13.64l-1.28-.23V184.14l-4.61-.93v12.26l-1.3-.24V181.47Z"/><path class="cls-10" d="M183.73,218.89v1.5l-4.13-.62v12.46l-1.34-.18v-14Z"/><path class="cls-10" d="M185.28,228.62l-1.05,4.22-1.37-.18,3.46-13.38,1.58.24,3.43,14.27L190,233.6l-1.08-4.48Zm3.33-.93-1-4.11c-.23-.94-.38-1.78-.53-2.61h0c-.15.8-.31,1.62-.51,2.43l-1,3.86Z"/><path class="cls-10" d="M192.57,221a3.35,3.35,0,0,1,2.62-.64,3.49,3.49,0,0,1,2.9,3.77c0,1.68-.87,2.83-2,3v0a3.65,3.65,0,0,1,2.4,3.76c0,2.82-1.77,3.72-3.58,3.48a4.64,4.64,0,0,1-2.6-1.24l.34-1.34a4.53,4.53,0,0,0,2.23,1.14c1.47.19,2.28-.79,2.28-2.29a2.88,2.88,0,0,0-2.69-3l-.59-.08v-1.35l.59.09a2,2,0,0,0,2.32-2.18,2.17,2.17,0,0,0-1.77-2.41,2.89,2.89,0,0,0-2.07.58Z"/><path class="cls-10" d="M181.93,271.35a4.15,4.15,0,0,0,1.08,0,3.05,3.05,0,0,0,2.06-1.12,6.26,6.26,0,0,0,1.3-3.45h-.05A2.4,2.4,0,0,1,184,268c-1.77-.16-2.91-2.08-2.91-4.37,0-2.55,1.35-4.65,3.37-4.45s3.24,2.54,3.24,5.94c0,2.93-.72,4.92-1.69,6.11a4,4,0,0,1-2.86,1.56,4.56,4.56,0,0,1-1.23,0Zm.49-7.68c0,1.67.74,2.91,1.9,3a1.91,1.91,0,0,0,1.93-1.22,1.57,1.57,0,0,0,.12-.65c0-2.28-.62-4.08-2-4.22C183.23,260.48,182.42,261.77,182.42,263.67Z"/><path class="cls-10" d="M188.78,269.8a3.51,3.51,0,0,1,1.93-3.39l0-.06a3.82,3.82,0,0,1-1.53-3.12c0-2.11,1.3-3.42,3-3.25a3.29,3.29,0,0,1,2.79,3.52,3.21,3.21,0,0,1-1.58,2.95v.06a4.06,4.06,0,0,1,1.93,3.58c0,2.3-1.43,3.72-3.26,3.58A3.67,3.67,0,0,1,188.78,269.8Zm5.2.36a3.15,3.15,0,0,0-2.11-3.07,2.49,2.49,0,0,0-1.74,2.58,2.39,2.39,0,0,0,1.93,2.69C193.23,272.46,194,271.53,194,270.16Zm-3.58-6.94a2.74,2.74,0,0,0,1.84,2.62,2.27,2.27,0,0,0,1.46-2.27c0-1.06-.46-2.2-1.62-2.31S190.4,262.08,190.4,263.22Z"/><polygon class="cls-11" points="332.11 451.13 332.11 465.24 186.54 496.04 186.54 478.61 332.11 451.13"/><polygon class="cls-12" points="169.26 78.26 169.26 292.36 66.93 297.9 66.93 111.88 115.1 96.05 149.15 84.87 169.26 78.26"/><polygon class="cls-11" points="186.54 496.04 83.97 475.28 83.97 460.09 186.54 478.61 186.54 496.04"/><polygon class="cls-11" points="332.11 451.13 231.48 438.7 83.97 460.09 186.54 478.61 332.11 451.13"/><polygon class="cls-13" points="255.09 367.55 255.09 453.69 202.13 462.77 202.13 368.88 202.99 370.02 255.09 367.55"/><polygon class="cls-14" points="149.15 295.22 149.15 299.69 115.1 301.25 115.1 296.99 149.15 295.22"/><polygon class="cls-15" points="257.11 297.12 220 298.72 149.15 295.22 115.1 296.99 115.1 299.91 66.93 297.9 169.26 292.36 257.11 297.12"/><polygon class="cls-16" points="202.99 22.3 149.15 72.66 115.1 84.39 168.88 35.39 202.99 22.3"/><polygon class="cls-17" points="149.15 72.66 149.15 84.87 115.1 96.05 115.1 84.39 149.15 72.66"/><polygon class="cls-18" points="202.13 368.88 168.02 367.45 115.1 301.25 149.15 299.69 202.13 368.88"/><polygon class="cls-13" points="202.13 368.88 202.13 462.77 168.02 457.39 168.02 367.45 202.13 368.88"/><path class="cls-5" d="M155.45,196.46l7.19-1.29v-12.1l-7.19,1.41a77.61,77.61,0,0,0-3.88-20.09h0l6.16-6.51-4.17-9.41-6.1,6.57a41,41,0,0,0-10.29-12.54l3.41-9.58-6.86-4-3.34,9.5A25.53,25.53,0,0,0,117,136.64V126.9L109.56,129v9.64a40.06,40.06,0,0,0-12.65,8.62h0l-3-7.37-6,7.13,3,7.33A75.4,75.4,0,0,0,82,170.53l-5-3.42-3.34,10.08,5,3.48a94.9,94.9,0,0,0-3.14,19.48l-5.67,1.11v10.65l5.67-1a79,79,0,0,0,3.14,18.29v0l-5,5.33L77,243.35l5-5.3a46.12,46.12,0,0,0,8.83,12.83l-3,8.45,6,4.86,3-8.51a26,26,0,0,0,12.65,3.85v9.66l7.43-.67v-9.76a34.65,34.65,0,0,0,13.37-6.82l3.36,8.25,6.86-6.56-3.41-8.3a69.58,69.58,0,0,0,10.3-16.43l6.09,4.28,4.17-11L151.57,218v0A95.08,95.08,0,0,0,155.45,196.46Zm-25.52,4.6c-.09.67-.2,1.33-.33,2a36.27,36.27,0,0,1-3.87,10.66c-.29.54-.6,1-.92,1.53a21.49,21.49,0,0,1-6.58,6.78,9.4,9.4,0,0,1-1.24.68,12.33,12.33,0,0,1-3.74,1.22,10.68,10.68,0,0,1-4.91-.37,13,13,0,0,1-6.28-4.62,9.19,9.19,0,0,1-.86-1.2,25.27,25.27,0,0,1-3.6-9c-.12-.56-.22-1.16-.3-1.76a35.67,35.67,0,0,1-.41-5.46,38.62,38.62,0,0,1,.41-5.62q.12-1,.3-1.89a36.8,36.8,0,0,1,3.59-10.35c.28-.52.55-1,.86-1.52a22.62,22.62,0,0,1,6.29-7c.4-.28.81-.54,1.22-.77a13,13,0,0,1,3.69-1.45,10.8,10.8,0,0,1,3.74-.19,7.31,7.31,0,0,1,1.24.22,12.51,12.51,0,0,1,6.58,4.29c.32.37.63.77.92,1.18a24.85,24.85,0,0,1,3.87,9.22c.13.59.24,1.21.33,1.84a34.87,34.87,0,0,1,.45,5.71A38,38,0,0,1,129.93,201.06Z"/><path class="cls-19" d="M169.1,78.74,121.63,62.61l47.79,15.17a.51.51,0,0,1,.32.63.5.5,0,0,1-.63.33Z"/><path class="cls-20" d="M66.81,112.36,20.5,100.16,67.05,111.4a.49.49,0,0,1,.37.6.5.5,0,0,1-.6.37Z"/><path class="cls-21" d="M202.8,22.76,149.69,0l53.49,21.84a.5.5,0,1,1-.38.92Z"/><path class="cls-22" d="M283.67,56.06,254.9,44.56a.5.5,0,0,1,.37-.93h0Z"/><path class="cls-23" d="M168.7,35.86,115.63,15l53.43,19.94a.5.5,0,0,1,.29.65.49.49,0,0,1-.64.29Z"/><path class="cls-24" d="M349.07,447.94l-16.87,3.69a.49.49,0,0,1-.59-.38.5.5,0,0,1,.38-.6h0Z"/><path class="cls-25" d="M349.07,461.65l-16.86,4.08a.5.5,0,0,1-.6-.37.49.49,0,0,1,.37-.6h0Z"/><path class="cls-26" d="M186.63,479.1l-86.27,15.77,86.09-16.75a.5.5,0,0,1,.19,1Z"/><path class="cls-27" d="M186.64,496.53l-86.28,17.74,86.08-18.72a.49.49,0,0,1,.59.38.5.5,0,0,1-.38.6Z"/><path class="cls-28" d="M84,460.58,0,472.26,83.9,459.6a.49.49,0,0,1,.57.41.5.5,0,0,1-.42.57Z"/><path class="cls-29" d="M0,488.93l83.88-14.14a.5.5,0,1,1,.17,1h0Z"/><path class="cls-30" d="M66.91,298.4,20.5,296,67,297.4a.51.51,0,0,1,.49.52.5.5,0,0,1-.52.48Z"/></g></g></svg>