<svg xmlns="http://www.w3.org/2000/svg" xmlns:xlink="http://www.w3.org/1999/xlink" viewBox="0 0 100 400"><defs><style>.cls-1,.cls-14,.cls-16{fill:none;}.cls-2{fill:#ff0;}.cls-3{fill:#89c33f;}.cls-4{fill:#d0d0f2;}.cls-5{fill:#1d00ff;}.cls-14,.cls-16,.cls-17,.cls-20,.cls-6{stroke:#000;}.cls-13,.cls-14,.cls-20,.cls-6{stroke-miterlimit:10;}.cls-6{stroke-width:0.25px;}.cls-7{font-size:14.7px;font-family:MyriadPro-Regular, Myriad Pro;}.cls-11,.cls-18,.cls-7{fill:#fff;}.cls-8{letter-spacing:-0.08em;}.cls-9{letter-spacing:0.01em;}.cls-10{fill:#ff0089;}.cls-12{fill:#1e5c00;}.cls-13{fill:#d01c00;stroke:#d01c00;}.cls-14,.cls-16,.cls-17,.cls-20{stroke-width:0.5px;}.cls-15{font-size:11.1px;}.cls-15,.cls-18,.cls-19{font-family:ArialMT, Arial;}.cls-16,.cls-17{stroke-linecap:round;stroke-linejoin:round;}.cls-18,.cls-19{font-size:3.93px;}.cls-21{fill:#333;}.cls-22{fill:url(#LED_Yellow);}</style><pattern id="LED_Yellow" data-name="LED Yellow" width="3" height="3" patternUnits="userSpaceOnUse" viewBox="0 0 3 3"><rect class="cls-1" width="3" height="3"/><circle class="cls-2" cx="0.32" cy="0.32" r="0.32"/><circle class="cls-2" cx="1.11" cy="1.11" r="0.32"/><circle class="cls-2" cx="1.89" cy="0.32" r="0.32"/><circle class="cls-2" cx="2.68" cy="1.11" r="0.32"/><circle class="cls-2" cx="0.32" cy="1.89" r="0.32"/><circle class="cls-2" cx="1.11" cy="2.68" r="0.32"/><circle class="cls-2" cx="1.89" cy="1.89" r="0.32"/><circle class="cls-2" cx="2.68" cy="2.68" r="0.32"/><circle class="cls-3" cx="0.32" cy="0.32" r="0.07"/><circle class="cls-3" cx="1.89" cy="0.32" r="0.07"/><circle class="cls-3" cx="2.68" cy="1.11" r="0.07"/><circle class="cls-3" cx="1.11" cy="1.11" r="0.07"/><circle class="cls-3" cx="0.32" cy="1.89" r="0.07"/><circle class="cls-3" cx="1.89" cy="1.89" r="0.07"/><circle class="cls-3" cx="1.11" cy="2.68" r="0.07"/><circle class="cls-3" cx="2.68" cy="2.68" r="0.07"/></pattern></defs><title>STFasad_2</title><g id="Layer_2" data-name="Layer 2"><g id="Layer_1-2" data-name="Layer 1"><rect class="cls-4" width="100" height="400"/><path class="cls-5" d="M81.75,53H18.25a5,5,0,0,0-5,5V342a5,5,0,0,0,5,5h63.5a5,5,0,0,0,5-5V58A5,5,0,0,0,81.75,53Zm-2,261a5,5,0,0,1-5,5H25.25a5,5,0,0,1-5-5V86a5,5,0,0,1,5-5h49.5a5,5,0,0,1,5,5Z"/><rect class="cls-6" x="32.5" y="112.33" width="59.5" height="24.5"/><rect class="cls-6" x="8" y="112.33" width="24.5" height="24.5"/><rect class="cls-6" x="32.5" y="140.18" width="59.5" height="24.5"/><rect class="cls-6" x="8" y="140.18" width="24.5" height="24.5"/><rect class="cls-6" x="32.5" y="168.02" width="59.5" height="24.5"/><rect class="cls-6" x="8" y="168.02" width="24.5" height="24.5"/><rect class="cls-6" x="32.5" y="195.86" width="59.5" height="24.5"/><rect class="cls-6" x="8" y="195.86" width="24.5" height="24.5"/><rect class="cls-6" x="32.5" y="223.7" width="59.5" height="24.5"/><rect class="cls-6" x="8" y="223.7" width="24.5" height="24.5"/><text class="cls-7" transform="translate(12.26 129.31) scale(1.06 1)">95</text><text class="cls-7" transform="translate(12.26 157.15) scale(1.06 1)">92</text><text class="cls-7" transform="translate(10.37 184.49) scale(1.06 1)">ДП</text><text class="cls-7" transform="translate(8.83 212.15) scale(1.06 1)"><tspan class="cls-8">Г</tspan><tspan class="cls-9" x="5.17" y="0">А</tspan><tspan x="14.32" y="0">З</tspan></text><text class="cls-7" transform="translate(12.26 240.68) scale(1.06 1)">98</text><polygon class="cls-10" points="50.63 371.21 41.86 371.21 26.55 347.9 41.86 324.58 50.63 324.58 35.33 347.9 50.63 371.21"/><polygon class="cls-10" points="62.04 371.21 53.27 371.21 37.96 347.9 53.27 324.58 62.04 324.58 46.73 347.9 62.04 371.21"/><polygon class="cls-10" points="73.45 371.21 64.67 371.21 49.37 347.9 64.67 324.58 73.45 324.58 58.14 347.9 73.45 371.21"/><circle class="cls-11" cx="50" cy="68.56" r="27.84"/><path class="cls-12" d="M78.29,68.56a32.33,32.33,0,0,1-7.54,20.75,31.21,31.21,0,0,1-9,7.52,31.8,31.8,0,0,1-24.59,2.83,32.76,32.76,0,0,1-11.81-6.41,32.18,32.18,0,0,1-8.27-11,33.16,33.16,0,0,1-3-13.66q.09-1.75.21-3.51c.16-1.16.36-2.32.56-3.48s.62-2.26.94-3.39.85-2.18,1.29-3.27a32.35,32.35,0,0,1,8.28-11,33.13,33.13,0,0,1,11.79-6.4A32,32,0,0,1,61.7,40.31a31.49,31.49,0,0,1,9,7.51A32.28,32.28,0,0,1,78.29,68.56Zm-.9,0A27.22,27.22,0,0,0,30.87,49.43,27.17,27.17,0,0,0,69.29,87.85,27.39,27.39,0,0,0,77.39,68.56Z"/><path class="cls-13" d="M32.23,80.34V55.08h1.08V79.26h4v1.08Z"/><path class="cls-13" d="M46.3,78.54a1.67,1.67,0,0,1-1.8,1.8H43.05a1.67,1.67,0,0,1-1.8-1.8V56.89a1.69,1.69,0,0,1,1.8-1.81H44.5a1.69,1.69,0,0,1,1.8,1.81ZM45,56.37a.68.68,0,0,0-.52-.2H43.05a.68.68,0,0,0-.52.2.7.7,0,0,0-.2.52V78.54a.69.69,0,0,0,.72.72H44.5a.69.69,0,0,0,.72-.72V56.89A.7.7,0,0,0,45,56.37Z"/><path class="cls-13" d="M53.16,80.34a1.67,1.67,0,0,1-1.81-1.8V56.89a1.69,1.69,0,0,1,1.81-1.81H54.6a1.67,1.67,0,0,1,1.8,1.81v.72H55.32v-.72a.7.7,0,0,0-.2-.52.66.66,0,0,0-.52-.2H53.16a.69.69,0,0,0-.53.2.7.7,0,0,0-.2.52V78.54a.72.72,0,0,0,.2.52.72.72,0,0,0,.53.2H54.6a.7.7,0,0,0,.52-.2.72.72,0,0,0,.2-.52V60.86l-1.08-.72V58.69l2.16,1.45v18.4a1.66,1.66,0,0,1-1.8,1.8Z"/><path class="cls-13" d="M66.51,78.54A1.82,1.82,0,0,1,66,79.86a1.8,1.8,0,0,1-1.32.48H63.26a1.67,1.67,0,0,1-1.81-1.8V56.89a1.69,1.69,0,0,1,1.81-1.81H64.7a1.69,1.69,0,0,1,1.81,1.81ZM65.23,56.37a.7.7,0,0,0-.53-.2H63.26a.69.69,0,0,0-.72.72V78.54a.68.68,0,0,0,.2.52.7.7,0,0,0,.52.2H64.7a.74.74,0,0,0,.53-.2.71.71,0,0,0,.19-.52V56.89A.69.69,0,0,0,65.23,56.37Z"/><rect class="cls-11" x="10" y="255.26" width="17" height="17" rx="1.96" ry="1.96"/><rect class="cls-11" x="31" y="255.26" width="17" height="17" rx="1.96" ry="1.96"/><rect class="cls-11" x="52" y="255.26" width="17" height="17" rx="1.96" ry="1.96"/><rect class="cls-11" x="73" y="255.26" width="17" height="17" rx="1.96" ry="1.96"/><rect class="cls-14" x="74" y="256.26" width="15" height="15" rx="1.96" ry="1.96"/><rect class="cls-14" x="53" y="256.26" width="15" height="15" rx="1.96" ry="1.96"/><rect class="cls-14" x="32" y="256.26" width="15" height="15" rx="1.96" ry="1.96"/><rect class="cls-14" x="11" y="256.26" width="15" height="15" rx="1.96" ry="1.96"/><path d="M24,263.37H22.35l-1.66-4.84-1.19-.08.9,4.92H16.6l.9-4.92-1.19.08-1.67,4.84H13a.93.93,0,1,0,0,1.86c1.33,0,1.11,4.77,1.85,4.77h7.38c.74,0,.52-4.77,1.84-4.77a.93.93,0,0,0,0-1.86ZM21.66,269H15.34c-.53,0-.44-3.77-1.38-3.77H23C22.1,265.23,22.19,269,21.66,269Z"/><text class="cls-15" transform="translate(33.83 267.65) scale(0.61 1)">WC</text><rect class="cls-14" x="53" y="256.26" width="15" height="15" rx="1.96" ry="1.96" transform="translate(121 527.51) rotate(-180)"/><path class="cls-16" d="M66.78,263.75a2.39,2.39,0,0,1-2.39,2.39,2.24,2.24,0,0,1-.73-.12,3.87,3.87,0,0,1-4.72,1.3c1.56.3,1.56-7.46,3.13-7.13a3.86,3.86,0,0,1,1.59,1.29,2.53,2.53,0,0,1,.73-.11A2.38,2.38,0,0,1,66.78,263.75Z"/><path class="cls-17" d="M62.07,260.19c-1.57-.33-1.57,7.43-3.13,7.13h0a3.81,3.81,0,0,1-1.59-1.3,2.25,2.25,0,0,1-.74.12,2.39,2.39,0,1,1,0-4.77,2.19,2.19,0,0,1,.73.12,3.9,3.9,0,0,1,4.74-1.3Z"/><text class="cls-18" transform="translate(55.47 264.8)">Wi</text><text class="cls-19" transform="translate(62.25 264.8)">Fi</text><path class="cls-20" d="M82.5,257.51H76.25V270h2v-4H82.5a4.12,4.12,0,0,0,2.25-.65,4.2,4.2,0,0,0,2-3.39v-.43A4.25,4.25,0,0,0,82.5,257.51ZM84.75,262a2.27,2.27,0,0,1-2.25,2H78.25v-4.51H82.5a2.27,2.27,0,0,1,2.25,2,1.77,1.77,0,0,1,0,.23A1.69,1.69,0,0,1,84.75,262Z"/><path class="cls-20" d="M86.75,261.55a1.48,1.48,0,0,1,0,.21,1.62,1.62,0,0,1,0,.22"/><line class="cls-17" x1="84.75" y1="261.99" x2="84.75" y2="261.53"/><rect class="cls-21" x="35.25" y="112.96" width="54" height="23"/><rect class="cls-21" x="35.25" y="140.93" width="54" height="23"/><rect class="cls-21" x="35.25" y="168.77" width="54" height="23"/><rect class="cls-21" x="35.25" y="196.61" width="54" height="23"/><rect class="cls-21" x="35.25" y="224.45" width="54" height="23"/><path class="cls-22" d="M46.5,123.58v-7.75l-1.75-1.75h-7L36,115.83v7.75l.88.88-.88.88v8l1.75,1.75h7l1.75-1.75v-8h0l-.87-.87.87-.88Zm-1.75,9-.73.72H38.48l-.73-.72v-6.55l.73-.73H44l.73.73Zm0-9.75-.73.72H38.48l-.73-.72v-6.3l.73-.73H44l.73.73Z"/><path class="cls-22" d="M58.75,123.58v-7.75L57,114.08H50l-1.75,1.75v7.75l.88.88-.88.88v8L50,135.08h7l1.75-1.75v-8h0l-.87-.87.87-.88Zm-1.75,9-.73.72H50.73l-.73-.72v-6.55l.73-.73h5.54l.73.73Zm0-9.75-.73.72H50.73l-.73-.72v-6.3l.73-.73h5.54l.73.73Z"/><path class="cls-22" d="M78,123.58l.87.88-.87.87h0v8l1.75,1.75h7l1.75-1.75v-8l-.88-.88.88-.88v-7.75l-1.75-1.75h-7L78,115.83v7.75Zm1.74,2.48.73-.73H86l.73.73v6.55l-.73.72H80.48l-.73-.72Zm0-9.5.73-.73H86l.73.73v6.3l-.73.72H80.48l-.73-.72Z"/><path class="cls-22" d="M65.76,123.58l.87.88-.87.87h0v8l1.75,1.75h7l1.75-1.75v-8l-.88-.88.88-.88v-7.75l-1.75-1.75h-7l-1.75,1.75v7.75Zm1.74,2.48.73-.73h5.54l.73.73v6.55l-.73.72H68.23l-.73-.72Zm0-9.5.73-.73h5.54l.73.73v6.3l-.73.72H68.23l-.73-.72Z"/><circle class="cls-22" cx="62.25" cy="133.33" r="1.75"/><path class="cls-22" d="M46.5,151.42v-7.74l-1.75-1.75h-7L36,143.68v7.74l.88.88-.88.88v8l1.75,1.75h7l1.75-1.75v-8h0l-.87-.87.87-.88Zm-1.75,9-.73.73H38.48l-.73-.73V153.9l.73-.73H44l.73.73Zm0-9.75-.73.72H38.48l-.73-.72v-6.3l.73-.72H44l.73.72Z"/><path class="cls-22" d="M58.75,151.42v-7.74L57,141.93H50l-1.75,1.75v7.74l.88.88-.88.88v8L50,162.93h7l1.75-1.75v-8h0l-.87-.87.87-.88Zm-1.75,9-.73.73H50.73l-.73-.73V153.9l.73-.73h5.54l.73.73Zm0-9.75-.73.72H50.73L50,150.7v-6.3l.73-.72h5.54l.73.72Z"/><path class="cls-22" d="M78,151.42l.87.88-.87.87h0v8l1.75,1.75h7l1.75-1.75v-8l-.88-.88.88-.88v-7.74l-1.75-1.75h-7L78,143.68v7.74Zm1.74,2.48.73-.73H86l.73.73v6.55l-.73.73H80.48l-.73-.73Zm0-9.5.73-.72H86l.73.72v6.3l-.73.72H80.48l-.73-.72Z"/><path class="cls-22" d="M65.76,151.42l.87.88-.87.87h0v8l1.75,1.75h7l1.75-1.75v-8l-.88-.88.88-.88v-7.74l-1.75-1.75h-7l-1.75,1.75v7.74Zm1.74,2.48.73-.73h5.54l.73.73v6.55l-.73.73H68.23l-.73-.73Zm0-9.5.73-.72h5.54l.73.72v6.3l-.73.72H68.23l-.73-.72Z"/><circle class="cls-22" cx="62.25" cy="161.18" r="1.75"/><path class="cls-22" d="M46.5,179.27v-7.75l-1.75-1.75h-7L36,171.52v7.74l.88.88L36,181v8l1.75,1.75h7L46.5,189v-8h0l-.87-.88.87-.87Zm-1.75,9L44,189H38.48l-.73-.73v-6.55l.73-.72H44l.73.72Zm0-9.75-.73.73H38.48l-.73-.73v-6.29l.73-.73H44l.73.73Z"/><path class="cls-22" d="M58.75,179.27v-7.75L57,169.77H50l-1.75,1.75v7.74l.88.88-.88.88v8L50,190.77h7L58.75,189v-8h0l-.87-.88.87-.87Zm-1.75,9-.73.73H50.73l-.73-.73v-6.55l.73-.72h5.54l.73.72Zm0-9.75-.73.73H50.73l-.73-.73v-6.29l.73-.73h5.54l.73.73Z"/><path class="cls-22" d="M78,179.27l.87.87L78,181h0v8l1.75,1.75h7L88.5,189v-8l-.88-.88.88-.88v-7.74l-1.75-1.75h-7L78,171.52v7.75Zm1.74,2.47.73-.72H86l.73.72v6.55L86,189H80.48l-.73-.73Zm0-9.49.73-.73H86l.73.73v6.29l-.73.73H80.48l-.73-.73Z"/><path class="cls-22" d="M65.76,179.27l.87.87-.87.88h0v8l1.75,1.75h7L76.25,189v-8l-.88-.88.88-.88v-7.74l-1.75-1.75h-7l-1.75,1.75v7.75Zm1.74,2.47.73-.72h5.54l.73.72v6.55l-.73.73H68.23l-.73-.73Zm0-9.49.73-.73h5.54l.73.73v6.29l-.73.73H68.23l-.73-.73Z"/><circle class="cls-22" cx="62.25" cy="189.02" r="1.75"/><path class="cls-22" d="M46.5,207.11v-7.75l-1.75-1.75h-7L36,199.36v7.74l.88.88-.88.88v8l1.75,1.75h7l1.75-1.75v-8h0l-.87-.88.87-.87Zm-1.75,9-.73.73H38.48l-.73-.73v-6.54l.73-.73H44l.73.73Zm0-9.75-.73.73H38.48l-.73-.73v-6.29l.73-.73H44l.73.73Z"/><path class="cls-22" d="M58.75,207.11v-7.75L57,197.61H50l-1.75,1.75v7.74l.88.88-.88.88v8L50,218.61h7l1.75-1.75v-8h0l-.87-.88.87-.87Zm-1.75,9-.73.73H50.73l-.73-.73v-6.54l.73-.73h5.54l.73.73Zm0-9.75-.73.73H50.73l-.73-.73v-6.29l.73-.73h5.54l.73.73Z"/><path class="cls-22" d="M78,207.11l.87.87-.87.88h0v8l1.75,1.75h7l1.75-1.75v-8l-.88-.88.88-.88v-7.74l-1.75-1.75h-7L78,199.36v7.75Zm1.74,2.48.73-.73H86l.73.73v6.54l-.73.73H80.48l-.73-.73Zm0-9.5.73-.73H86l.73.73v6.29l-.73.73H80.48l-.73-.73Z"/><path class="cls-22" d="M65.76,207.11l.87.87-.87.88h0v8l1.75,1.75h7l1.75-1.75v-8l-.88-.88.88-.88v-7.74l-1.75-1.75h-7l-1.75,1.75v7.75Zm1.74,2.48.73-.73h5.54l.73.73v6.54l-.73.73H68.23l-.73-.73Zm0-9.5.73-.73h5.54l.73.73v6.29l-.73.73H68.23l-.73-.73Z"/><circle class="cls-22" cx="62.25" cy="216.86" r="1.75"/><path class="cls-22" d="M46.5,235V227.2l-1.75-1.75h-7L36,227.2v7.74l.88.88-.88.89v8l1.75,1.75h7l1.75-1.75v-8h0l-.87-.88.87-.87Zm-1.75,9-.73.73H38.48l-.73-.73v-6.54l.73-.73H44l.73.73Zm0-9.75L44,235H38.48l-.73-.73v-6.29l.73-.73H44l.73.73Z"/><path class="cls-22" d="M58.75,235V227.2L57,225.45H50l-1.75,1.75v7.74l.88.88-.88.89v8L50,246.45h7l1.75-1.75v-8h0l-.87-.88.87-.87ZM57,244l-.73.73H50.73L50,244v-6.54l.73-.73h5.54l.73.73Zm0-9.75-.73.73H50.73l-.73-.73v-6.29l.73-.73h5.54l.73.73Z"/><path class="cls-22" d="M78,235l.87.87-.87.88h0v8l1.75,1.75h7l1.75-1.75v-8l-.88-.89.88-.88V227.2l-1.75-1.75h-7L78,227.2V235Zm1.74,2.48.73-.73H86l.73.73V244l-.73.73H80.48l-.73-.73Zm0-9.5.73-.73H86l.73.73v6.29L86,235H80.48l-.73-.73Z"/><path class="cls-22" d="M65.76,235l.87.87-.87.88h0v8l1.75,1.75h7l1.75-1.75v-8l-.88-.89.88-.88V227.2l-1.75-1.75h-7l-1.75,1.75V235Zm1.74,2.48.73-.73h5.54l.73.73V244l-.73.73H68.23L67.5,244Zm0-9.5.73-.73h5.54l.73.73v6.29l-.73.73H68.23l-.73-.73Z"/><circle class="cls-22" cx="62.25" cy="244.7" r="1.75"/></g></g></svg>