<svg xmlns="http://www.w3.org/2000/svg" xmlns:xlink="http://www.w3.org/1999/xlink" viewBox="0 0 100 400"><defs><style>.cls-1,.cls-10,.cls-13,.cls-18,.cls-22{fill:none;}.cls-2{fill:#ff0;}.cls-3{fill:#89c33f;}.cls-4{fill:#fcd833;}.cls-13,.cls-22,.cls-23,.cls-26,.cls-5{stroke:#000;}.cls-10,.cls-13,.cls-14,.cls-26,.cls-5{stroke-miterlimit:10;}.cls-5{stroke-width:0.25px;}.cls-6{font-size:14.7px;font-family:MyriadPro-Regular, Myriad Pro;}.cls-24,.cls-6,.cls-9{fill:#fff;}.cls-7{letter-spacing:-0.08em;}.cls-8{letter-spacing:0.01em;}.cls-10,.cls-12,.cls-14{stroke:#2434b6;}.cls-11,.cls-12,.cls-14{fill:#2434b6;}.cls-12,.cls-18,.cls-22,.cls-23{stroke-linecap:round;stroke-linejoin:round;}.cls-13,.cls-14,.cls-22,.cls-23,.cls-26{stroke-width:0.5px;}.cls-14{font-size:13.41px;}.cls-14,.cls-21,.cls-24,.cls-25{font-family:ArialMT, Arial;}.cls-15{letter-spacing:-0.03em;}.cls-16{letter-spacing:-0.01em;}.cls-17{letter-spacing:-0.02em;}.cls-18{stroke:#fff;}.cls-19{fill:#333;}.cls-20{fill:url(#LED_Yellow);}.cls-21{font-size:11.1px;}.cls-24,.cls-25{font-size:3.93px;}</style><pattern id="LED_Yellow" data-name="LED Yellow" width="3" height="3" patternUnits="userSpaceOnUse" viewBox="0 0 3 3"><rect class="cls-1" width="3" height="3"/><circle class="cls-2" cx="0.32" cy="0.32" r="0.32"/><circle class="cls-2" cx="1.11" cy="1.11" r="0.32"/><circle class="cls-2" cx="1.89" cy="0.32" r="0.32"/><circle class="cls-2" cx="2.68" cy="1.11" r="0.32"/><circle class="cls-2" cx="0.32" cy="1.89" r="0.32"/><circle class="cls-2" cx="1.11" cy="2.68" r="0.32"/><circle class="cls-2" cx="1.89" cy="1.89" r="0.32"/><circle class="cls-2" cx="2.68" cy="2.68" r="0.32"/><circle class="cls-3" cx="0.32" cy="0.32" r="0.07"/><circle class="cls-3" cx="1.89" cy="0.32" r="0.07"/><circle class="cls-3" cx="2.68" cy="1.11" r="0.07"/><circle class="cls-3" cx="1.11" cy="1.11" r="0.07"/><circle class="cls-3" cx="0.32" cy="1.89" r="0.07"/><circle class="cls-3" cx="1.89" cy="1.89" r="0.07"/><circle class="cls-3" cx="1.11" cy="2.68" r="0.07"/><circle class="cls-3" cx="2.68" cy="2.68" r="0.07"/></pattern></defs><title>STOlasFasad</title><g id="Layer_2" data-name="Layer 2"><g id="Layer_1-2" data-name="Layer 1"><rect class="cls-4" width="100" height="400"/><rect class="cls-5" x="32.5" y="112.33" width="59.5" height="24.5"/><rect class="cls-5" x="8" y="112.33" width="24.5" height="24.5"/><rect class="cls-5" x="32.5" y="140.18" width="59.5" height="24.5"/><rect class="cls-5" x="8" y="140.18" width="24.5" height="24.5"/><rect class="cls-5" x="32.5" y="168.02" width="59.5" height="24.5"/><rect class="cls-5" x="8" y="168.02" width="24.5" height="24.5"/><rect class="cls-5" x="32.5" y="195.86" width="59.5" height="24.5"/><rect class="cls-5" x="8" y="195.86" width="24.5" height="24.5"/><rect class="cls-5" x="32.5" y="223.7" width="59.5" height="24.5"/><rect class="cls-5" x="8" y="223.7" width="24.5" height="24.5"/><text class="cls-6" transform="translate(12.26 129.31) scale(1.06 1)">95</text><text class="cls-6" transform="translate(12.26 157.15) scale(1.06 1)">92</text><text class="cls-6" transform="translate(10.37 184.49) scale(1.06 1)">ДП</text><text class="cls-6" transform="translate(8.83 212.15) scale(1.06 1)"><tspan class="cls-7">Г</tspan><tspan class="cls-8" x="5.17" y="0">А</tspan><tspan x="14.32" y="0">З</tspan></text><text class="cls-6" transform="translate(12.26 240.68) scale(1.06 1)">98</text><ellipse class="cls-9" cx="50" cy="46.05" rx="44.4" ry="20.47"/><ellipse class="cls-9" cx="50" cy="46.05" rx="43.5" ry="20"/><ellipse class="cls-10" cx="50" cy="46.05" rx="41" ry="17.5"/><line class="cls-10" x1="65.19" y1="37.46" x2="65.18" y2="37.46"/><line class="cls-10" x1="34.81" y1="37.46" x2="34.8" y2="37.46"/><path class="cls-11" d="M86.66,45.21c-4.22-3.5-12.1-6.06-21.47-6.75h0c-1.68-.13-3.41-.2-5.18-.2-.64,0-1.27,0-1.9,0-6.33.46-8.1,4.6-8.1,8.73,0-4.13-1.77-8.27-8.1-8.73-.63,0-1.26,0-1.9,0-1.77,0-3.51.07-5.19.2h0c-9.37.69-17.24,3.25-21.46,6.75,2.09-6.19,14.57-11,29.66-11q2.56,0,5,.18l2-2.09,2,2.09q2.44-.18,5-.18C72.09,34.26,84.57,39,86.66,45.21Z"/><path class="cls-12" d="M42.09,58.49A.92.92,0,0,1,42,59a.38.38,0,0,1-.34.19H36.05a.38.38,0,0,1-.34-.19.91.91,0,0,1-.13-.51V50.13a.94.94,0,0,1,.13-.51.38.38,0,0,1,.34-.19h5.58a.38.38,0,0,1,.34.19.94.94,0,0,1,.12.51ZM41.7,50a.09.09,0,0,0-.07,0H36.05A.09.09,0,0,0,36,50a.31.31,0,0,0,0,.11v8.36a.3.3,0,0,0,0,.1.08.08,0,0,0,.07,0h5.58a.08.08,0,0,0,.07,0,.16.16,0,0,0,0-.1V50.13A.18.18,0,0,0,41.7,50Z"/><path class="cls-12" d="M43.12,59.19l3.05-9.76h.41l-3,9.76Zm6.1,0-3-9.76h.41l3.05,9.76Z"/><path class="cls-12" d="M50.37,59.19l3.05-9.76h.41l-3,9.76ZM51,57.8v-.56h5.21v.56Zm5.45,1.39-3-9.76h.41l3.05,9.76Z"/><path class="cls-12" d="M58.37,59.19A.39.39,0,0,1,58,59a.92.92,0,0,1-.12-.51V50.13a.94.94,0,0,1,.12-.51.39.39,0,0,1,.34-.19H64a.37.37,0,0,1,.34.19.86.86,0,0,1,.13.51v.28h-.37v-.28A.18.18,0,0,0,64,50,.08.08,0,0,0,64,50H58.37a.09.09,0,0,0-.06,0,.18.18,0,0,0,0,.11v8.36a.17.17,0,0,0,0,.1.07.07,0,0,0,.06,0H64a.07.07,0,0,0,.07,0,.17.17,0,0,0,0-.1v-.27h.37v.27a.84.84,0,0,1-.13.51.37.37,0,0,1-.34.19Z"/><rect class="cls-13" x="5" y="109.28" width="90" height="141.98"/><rect class="cls-13" x="5" y="251.26" width="90" height="25"/><rect class="cls-13" x="5" y="276.26" width="90" height="36.02"/><text class="cls-14" transform="matrix(0.87, 0, -0.23, 0.97, 15.76, 289.91)">ЕНЕРГІЯ<tspan x="0" y="16.09" xml:space="preserve">    С</tspan><tspan class="cls-15" x="24.59" y="16.09">В</tspan><tspan x="33.08" y="16.09">О</tspan><tspan class="cls-16" x="43.51" y="16.09">Б</tspan><tspan class="cls-17" x="52.16" y="16.09">О</tspan><tspan x="62.3" y="16.09">ДИ</tspan></text><line class="cls-18" x1="8.75" y1="114.33" x2="31.75" y2="114.33"/><line class="cls-18" x1="8.75" y1="134.83" x2="31.75" y2="134.83"/><line class="cls-18" x1="8.75" y1="142.18" x2="31.75" y2="142.18"/><line class="cls-18" x1="8.75" y1="162.68" x2="31.75" y2="162.68"/><line class="cls-18" x1="8.75" y1="170.02" x2="31.75" y2="170.02"/><line class="cls-18" x1="8.75" y1="190.52" x2="31.75" y2="190.52"/><line class="cls-18" x1="8.75" y1="197.86" x2="31.75" y2="197.86"/><line class="cls-18" x1="8.75" y1="218.36" x2="31.75" y2="218.36"/><line class="cls-18" x1="8.75" y1="225.7" x2="31.75" y2="225.7"/><line class="cls-18" x1="8.75" y1="246.2" x2="31.75" y2="246.2"/><rect class="cls-19" x="35.25" y="113.21" width="54" height="23"/><rect class="cls-19" x="35.25" y="140.93" width="54" height="23"/><rect class="cls-19" x="35.25" y="168.77" width="54" height="23"/><rect class="cls-19" x="35.25" y="196.61" width="54" height="23"/><rect class="cls-19" x="35.25" y="224.31" width="54" height="23"/><path class="cls-20" d="M46.5,123.58v-7.75l-1.75-1.75h-7L36,115.83v7.75l.88.88-.88.88v8l1.75,1.75h7l1.75-1.75v-8h0l-.87-.87.87-.88Zm-1.75,9-.73.72H38.48l-.73-.72v-6.55l.73-.73H44l.73.73Zm0-9.75-.73.72H38.48l-.73-.72v-6.3l.73-.73H44l.73.73Z"/><path class="cls-20" d="M58.75,123.58v-7.75L57,114.08H50l-1.75,1.75v7.75l.88.88-.88.88v8L50,135.08h7l1.75-1.75v-8h0l-.87-.87.87-.88Zm-1.75,9-.73.72H50.73l-.73-.72v-6.55l.73-.73h5.54l.73.73Zm0-9.75-.73.72H50.73l-.73-.72v-6.3l.73-.73h5.54l.73.73Z"/><path class="cls-20" d="M78,123.58l.87.88-.87.87h0v8l1.75,1.75h7l1.75-1.75v-8l-.88-.88.88-.88v-7.75l-1.75-1.75h-7L78,115.83v7.75Zm1.74,2.48.73-.73H86l.73.73v6.55l-.73.72H80.48l-.73-.72Zm0-9.5.73-.73H86l.73.73v6.3l-.73.72H80.48l-.73-.72Z"/><path class="cls-20" d="M65.76,123.58l.87.88-.87.87h0v8l1.75,1.75h7l1.75-1.75v-8l-.88-.88.88-.88v-7.75l-1.75-1.75h-7l-1.75,1.75v7.75Zm1.74,2.48.73-.73h5.54l.73.73v6.55l-.73.72H68.23l-.73-.72Zm0-9.5.73-.73h5.54l.73.73v6.3l-.73.72H68.23l-.73-.72Z"/><circle class="cls-20" cx="62.25" cy="133.33" r="1.75"/><path class="cls-20" d="M46.5,151.42v-7.74l-1.75-1.75h-7L36,143.68v7.74l.88.88-.88.88v8l1.75,1.75h7l1.75-1.75v-8h0l-.87-.87.87-.88Zm-1.75,9-.73.73H38.48l-.73-.73V153.9l.73-.73H44l.73.73Zm0-9.75-.73.72H38.48l-.73-.72v-6.3l.73-.72H44l.73.72Z"/><path class="cls-20" d="M58.75,151.42v-7.74L57,141.93H50l-1.75,1.75v7.74l.88.88-.88.88v8L50,162.93h7l1.75-1.75v-8h0l-.87-.87.87-.88Zm-1.75,9-.73.73H50.73l-.73-.73V153.9l.73-.73h5.54l.73.73Zm0-9.75-.73.72H50.73L50,150.7v-6.3l.73-.72h5.54l.73.72Z"/><path class="cls-20" d="M78,151.42l.87.88-.87.87h0v8l1.75,1.75h7l1.75-1.75v-8l-.88-.88.88-.88v-7.74l-1.75-1.75h-7L78,143.68v7.74Zm1.74,2.48.73-.73H86l.73.73v6.55l-.73.73H80.48l-.73-.73Zm0-9.5.73-.72H86l.73.72v6.3l-.73.72H80.48l-.73-.72Z"/><path class="cls-20" d="M65.76,151.42l.87.88-.87.87h0v8l1.75,1.75h7l1.75-1.75v-8l-.88-.88.88-.88v-7.74l-1.75-1.75h-7l-1.75,1.75v7.74Zm1.74,2.48.73-.73h5.54l.73.73v6.55l-.73.73H68.23l-.73-.73Zm0-9.5.73-.72h5.54l.73.72v6.3l-.73.72H68.23l-.73-.72Z"/><circle class="cls-20" cx="62.25" cy="161.18" r="1.75"/><path class="cls-20" d="M46.5,179.27v-7.75l-1.75-1.75h-7L36,171.52v7.74l.88.88L36,181v8l1.75,1.75h7L46.5,189v-8h0l-.87-.88.87-.87Zm-1.75,9L44,189H38.48l-.73-.73v-6.55l.73-.72H44l.73.72Zm0-9.75-.73.73H38.48l-.73-.73v-6.29l.73-.73H44l.73.73Z"/><path class="cls-20" d="M58.75,179.27v-7.75L57,169.77H50l-1.75,1.75v7.74l.88.88-.88.88v8L50,190.77h7L58.75,189v-8h0l-.87-.88.87-.87Zm-1.75,9-.73.73H50.73l-.73-.73v-6.55l.73-.72h5.54l.73.72Zm0-9.75-.73.73H50.73l-.73-.73v-6.29l.73-.73h5.54l.73.73Z"/><path class="cls-20" d="M78,179.27l.87.87L78,181h0v8l1.75,1.75h7L88.5,189v-8l-.88-.88.88-.88v-7.74l-1.75-1.75h-7L78,171.52v7.75Zm1.74,2.47.73-.72H86l.73.72v6.55L86,189H80.48l-.73-.73Zm0-9.49.73-.73H86l.73.73v6.29l-.73.73H80.48l-.73-.73Z"/><path class="cls-20" d="M65.76,179.27l.87.87-.87.88h0v8l1.75,1.75h7L76.25,189v-8l-.88-.88.88-.88v-7.74l-1.75-1.75h-7l-1.75,1.75v7.75Zm1.74,2.47.73-.72h5.54l.73.72v6.55l-.73.73H68.23l-.73-.73Zm0-9.49.73-.73h5.54l.73.73v6.29l-.73.73H68.23l-.73-.73Z"/><circle class="cls-20" cx="62.25" cy="189.02" r="1.75"/><path class="cls-20" d="M46.5,207.11v-7.75l-1.75-1.75h-7L36,199.36v7.74l.88.88-.88.88v8l1.75,1.75h7l1.75-1.75v-8h0l-.87-.88.87-.87Zm-1.75,9-.73.73H38.48l-.73-.73v-6.54l.73-.73H44l.73.73Zm0-9.75-.73.73H38.48l-.73-.73v-6.29l.73-.73H44l.73.73Z"/><path class="cls-20" d="M58.75,207.11v-7.75L57,197.61H50l-1.75,1.75v7.74l.88.88-.88.88v8L50,218.61h7l1.75-1.75v-8h0l-.87-.88.87-.87Zm-1.75,9-.73.73H50.73l-.73-.73v-6.54l.73-.73h5.54l.73.73Zm0-9.75-.73.73H50.73l-.73-.73v-6.29l.73-.73h5.54l.73.73Z"/><path class="cls-20" d="M78,207.11l.87.87-.87.88h0v8l1.75,1.75h7l1.75-1.75v-8l-.88-.88.88-.88v-7.74l-1.75-1.75h-7L78,199.36v7.75Zm1.74,2.48.73-.73H86l.73.73v6.54l-.73.73H80.48l-.73-.73Zm0-9.5.73-.73H86l.73.73v6.29l-.73.73H80.48l-.73-.73Z"/><path class="cls-20" d="M65.76,207.11l.87.87-.87.88h0v8l1.75,1.75h7l1.75-1.75v-8l-.88-.88.88-.88v-7.74l-1.75-1.75h-7l-1.75,1.75v7.75Zm1.74,2.48.73-.73h5.54l.73.73v6.54l-.73.73H68.23l-.73-.73Zm0-9.5.73-.73h5.54l.73.73v6.29l-.73.73H68.23l-.73-.73Z"/><circle class="cls-20" cx="62.25" cy="216.86" r="1.75"/><path class="cls-20" d="M46.5,235V227.2l-1.75-1.75h-7L36,227.2v7.74l.88.88-.88.89v8l1.75,1.75h7l1.75-1.75v-8h0l-.87-.88.87-.87Zm-1.75,9-.73.73H38.48l-.73-.73v-6.54l.73-.73H44l.73.73Zm0-9.75L44,235H38.48l-.73-.73v-6.29l.73-.73H44l.73.73Z"/><path class="cls-20" d="M58.75,235V227.2L57,225.45H50l-1.75,1.75v7.74l.88.88-.88.89v8L50,246.45h7l1.75-1.75v-8h0l-.87-.88.87-.87ZM57,244l-.73.73H50.73L50,244v-6.54l.73-.73h5.54l.73.73Zm0-9.75-.73.73H50.73l-.73-.73v-6.29l.73-.73h5.54l.73.73Z"/><path class="cls-20" d="M78,235l.87.87-.87.88h0v8l1.75,1.75h7l1.75-1.75v-8l-.88-.89.88-.88V227.2l-1.75-1.75h-7L78,227.2V235Zm1.74,2.48.73-.73H86l.73.73V244l-.73.73H80.48l-.73-.73Zm0-9.5.73-.73H86l.73.73v6.29L86,235H80.48l-.73-.73Z"/><path class="cls-20" d="M65.76,235l.87.87-.87.88h0v8l1.75,1.75h7l1.75-1.75v-8l-.88-.89.88-.88V227.2l-1.75-1.75h-7l-1.75,1.75V235Zm1.74,2.48.73-.73h5.54l.73.73V244l-.73.73H68.23L67.5,244Zm0-9.5.73-.73h5.54l.73.73v6.29l-.73.73H68.23l-.73-.73Z"/><circle class="cls-20" cx="62.25" cy="244.7" r="1.75"/><rect class="cls-9" x="10" y="255.26" width="17" height="17" rx="1.96" ry="1.96"/><rect class="cls-9" x="31" y="255.26" width="17" height="17" rx="1.96" ry="1.96"/><rect class="cls-9" x="52" y="255.26" width="17" height="17" rx="1.96" ry="1.96"/><rect class="cls-9" x="73" y="255.26" width="17" height="17" rx="1.96" ry="1.96"/><rect class="cls-13" x="74" y="256.26" width="15" height="15" rx="1.96" ry="1.96"/><rect class="cls-13" x="53" y="256.26" width="15" height="15" rx="1.96" ry="1.96"/><rect class="cls-13" x="32" y="256.26" width="15" height="15" rx="1.96" ry="1.96"/><rect class="cls-13" x="11" y="256.26" width="15" height="15" rx="1.96" ry="1.96"/><path d="M24,263.37H22.35l-1.66-4.84-1.19-.08.9,4.92H16.6l.9-4.92-1.19.08-1.67,4.84H13a.93.93,0,1,0,0,1.86c1.33,0,1.11,4.77,1.85,4.77h7.38c.74,0,.52-4.77,1.84-4.77a.93.93,0,0,0,0-1.86ZM21.66,269H15.34c-.53,0-.44-3.77-1.38-3.77H23C22.1,265.23,22.19,269,21.66,269Z"/><text class="cls-21" transform="translate(33.83 267.65) scale(0.61 1)">WC</text><rect class="cls-13" x="53" y="256.26" width="15" height="15" rx="1.96" ry="1.96" transform="translate(121 527.51) rotate(-180)"/><path class="cls-22" d="M66.78,263.75a2.39,2.39,0,0,1-2.39,2.39,2.24,2.24,0,0,1-.73-.12,3.87,3.87,0,0,1-4.72,1.3c1.56.3,1.56-7.46,3.13-7.13a3.86,3.86,0,0,1,1.59,1.29,2.53,2.53,0,0,1,.73-.11A2.38,2.38,0,0,1,66.78,263.75Z"/><path class="cls-23" d="M62.07,260.19c-1.57-.33-1.57,7.43-3.13,7.13h0a3.81,3.81,0,0,1-1.59-1.3,2.25,2.25,0,0,1-.74.12,2.39,2.39,0,1,1,0-4.77,2.19,2.19,0,0,1,.73.12,3.9,3.9,0,0,1,4.74-1.3Z"/><text class="cls-24" transform="translate(55.47 264.8)">Wi</text><text class="cls-25" transform="translate(62.25 264.8)">Fi</text><path class="cls-26" d="M82.5,257.51H76.25V270h2v-4H82.5a4.12,4.12,0,0,0,2.25-.65,4.2,4.2,0,0,0,2-3.39v-.43A4.25,4.25,0,0,0,82.5,257.51ZM84.75,262a2.27,2.27,0,0,1-2.25,2H78.25v-4.51H82.5a2.27,2.27,0,0,1,2.25,2,1.77,1.77,0,0,1,0,.23A1.69,1.69,0,0,1,84.75,262Z"/><path class="cls-26" d="M86.75,261.55a1.48,1.48,0,0,1,0,.21,1.62,1.62,0,0,1,0,.22"/><line class="cls-23" x1="84.75" y1="261.99" x2="84.75" y2="261.53"/><polygon class="cls-11" points="49.37 335.6 58.16 335.6 73.5 358.6 58.16 381.6 49.37 381.6 64.71 358.6 49.37 335.6"/><polygon class="cls-11" points="37.93 335.6 46.73 335.6 62.07 358.6 46.73 381.6 37.93 381.6 53.27 358.6 37.93 335.6"/><polygon class="cls-11" points="26.5 335.6 35.29 335.6 50.63 358.6 35.29 381.6 26.5 381.6 41.84 358.6 26.5 335.6"/></g></g></svg>