<svg xmlns="http://www.w3.org/2000/svg" viewBox="0 0 120.5 422.67"><defs><style>.cls-1,.cls-17{fill:#fcd833;}.cls-1,.cls-12,.cls-13,.cls-16,.cls-6{stroke:#000;}.cls-1,.cls-16,.cls-3,.cls-6,.cls-7{stroke-miterlimit:10;}.cls-14,.cls-2{fill:#fff;}.cls-12,.cls-18,.cls-3,.cls-6{fill:none;}.cls-3,.cls-5,.cls-7{stroke:#2434b6;}.cls-4,.cls-5,.cls-7{fill:#2434b6;}.cls-12,.cls-13,.cls-5{stroke-linecap:round;stroke-linejoin:round;}.cls-12,.cls-13,.cls-16,.cls-6,.cls-7{stroke-width:0.5px;}.cls-7{font-size:14.2px;}.cls-11,.cls-14,.cls-15,.cls-7{font-family:ArialMT, Arial;}.cls-8{letter-spacing:-0.03em;}.cls-9{letter-spacing:-0.01em;}.cls-10{letter-spacing:-0.02em;}.cls-11{font-size:11.1px;}.cls-14,.cls-15{font-size:3.93px;}</style></defs><title>Third</title><g id="Layer_2" data-name="Layer 2"><g id="Layer_1-2" data-name="Layer 1"><path class="cls-1" d="M70,8.61C42.39,16,20,33.65,20,48V422l100-26.8v-374C120,6.85,97.61,1.21,70,8.61Zm42,236.94L28,268.06v-24.5l84-22.51Zm0-27.84L28,240.22v-24.5l84-22.51Zm0-27.84L28,212.38v-24.5l84-22.51ZM112,162,28,184.54V160l84-22.51Zm0-27.84L28,156.7V132.2l84-22.51Z"/><ellipse class="cls-2" cx="70" cy="54.67" rx="46.98" ry="20.12" transform="translate(-13.74 25.06) rotate(-18.51)"/><ellipse class="cls-3" cx="70" cy="54.67" rx="43.31" ry="17.22" transform="translate(-13.43 24.2) rotate(-17.93)"/><line class="cls-3" x1="85.19" y1="42" x2="85.18" y2="42.01"/><line class="cls-3" x1="54.81" y1="50.14" x2="54.8" y2="50.15"/><path class="cls-4" d="M106.66,44c-4.22-2.37-12.1-2.82-21.47-1h0q-2.52.48-5.18,1.18c-.64.18-1.27.35-1.9.54C71.77,46.89,70,51.5,70,55.63c0-4.13-1.77-7.79-8.1-6.56l-1.9.48c-1.77.48-3.51,1-5.19,1.59h0c-9.37,3.2-17.24,7.87-21.46,12.5C35.43,56.9,47.91,48.79,63,44.75q2.56-.69,5-1.16L70,41l2,1.56c1.63-.56,3.3-1.06,5-1.52C92.09,37,104.57,38.37,106.66,44Z"/><path class="cls-5" d="M62.09,69.22a1.15,1.15,0,0,1-.12.55.57.57,0,0,1-.34.28L56,71.54a.28.28,0,0,1-.33-.1.69.69,0,0,1-.13-.47V62.6a1,1,0,0,1,.13-.54.53.53,0,0,1,.33-.28l5.59-1.49a.31.31,0,0,1,.34.09.79.79,0,0,1,.12.48Zm-.39-8.36a.08.08,0,0,0-.07,0L56,62.34a.13.13,0,0,0-.06,0,.2.2,0,0,0,0,.11v8.37A.12.12,0,0,0,56,71s0,0,.06,0l5.59-1.49a.13.13,0,0,0,.07-.06.36.36,0,0,0,0-.11V61A.22.22,0,0,0,61.7,60.86Z"/><path class="cls-5" d="M63.11,69.65l3.06-10.58.41-.11L63.52,69.54ZM69.22,68l-3-8.94.41-.11,3,8.94Z"/><path class="cls-5" d="M70.37,67.7l3-10.57.41-.11-3,10.57ZM71,66.13v-.55l5.21-1.4v.56Zm5.45-.06-3-8.94.41-.11,3,8.94Z"/><path class="cls-5" d="M78.37,65.56a.29.29,0,0,1-.34-.1A.75.75,0,0,1,77.9,65V56.62a1.13,1.13,0,0,1,.13-.54.55.55,0,0,1,.34-.28L84,54.3a.32.32,0,0,1,.34.1.79.79,0,0,1,.12.48v.28l-.37.1V55a.22.22,0,0,0,0-.1.06.06,0,0,0-.07,0l-5.58,1.5s-.05,0-.07,0a.36.36,0,0,0,0,.11v8.37a.2.2,0,0,0,0,.09.06.06,0,0,0,.07,0L84,63.51a.13.13,0,0,0,.07-.06.43.43,0,0,0,0-.11v-.27l.37-.11v.28a1.15,1.15,0,0,1-.12.55.58.58,0,0,1-.34.28Z"/><polygon class="cls-6" points="115 247.81 25 271.93 25 129.95 115 105.83 115 247.81"/><polygon class="cls-6" points="115 247.81 25 271.93 25 296.93 115 272.81 115 247.81"/><polygon class="cls-6" points="115 272.81 25 296.93 25 332.95 115 308.83 115 272.81"/><text class="cls-7" transform="matrix(0.82, -0.22, -0.21, 0.98, 35.76, 307.7)">ЕНЕРГІЯ<tspan x="0" y="17.04" xml:space="preserve">    С</tspan><tspan class="cls-8" x="26.04" y="17.04">В</tspan><tspan x="35.04" y="17.04">О</tspan><tspan class="cls-9" x="46.09" y="17.04">Б</tspan><tspan class="cls-10" x="55.25" y="17.04">О</tspan><tspan x="65.99" y="17.04">ДИ</tspan></text><path class="cls-2" d="M45,287.56,32,291.06a1.45,1.45,0,0,1-2-1.44V276.55a2.73,2.73,0,0,1,2-2.49L45,270.56A1.46,1.46,0,0,1,47,272v13.08A2.75,2.75,0,0,1,45,287.56Z"/><path class="cls-2" d="M66,281.93,53,285.43A1.45,1.45,0,0,1,51,284V270.92a2.74,2.74,0,0,1,2-2.49L66,264.93a1.46,1.46,0,0,1,2,1.44v13.07A2.75,2.75,0,0,1,66,281.93Z"/><path class="cls-2" d="M87,276.3,74,279.81a1.45,1.45,0,0,1-2-1.44V265.29a2.73,2.73,0,0,1,2-2.48L87,259.3a1.46,1.46,0,0,1,2,1.44v13.07A2.74,2.74,0,0,1,87,276.3Z"/><path class="cls-2" d="M108,270.68,95,274.18a1.45,1.45,0,0,1-2-1.44V259.67a2.73,2.73,0,0,1,2-2.49l13.07-3.5a1.45,1.45,0,0,1,2,1.43v13.08A2.76,2.76,0,0,1,108,270.68Z"/><path class="cls-6" d="M107,269.94l-11.07,3a1.45,1.45,0,0,1-2-1.44V260.4a2.74,2.74,0,0,1,2-2.49l11.07-3a1.46,1.46,0,0,1,2,1.44v11.07A2.74,2.74,0,0,1,107,269.94Z"/><path class="cls-6" d="M86,275.57l-11.07,3a1.45,1.45,0,0,1-2-1.44V266a2.73,2.73,0,0,1,2-2.49l11.07-3A1.46,1.46,0,0,1,88,262v11.07A2.74,2.74,0,0,1,86,275.57Z"/><path class="cls-6" d="M65,281.2l-11.07,3a1.45,1.45,0,0,1-2-1.43V271.65a2.75,2.75,0,0,1,2-2.49l11.07-3a1.46,1.46,0,0,1,2,1.43v11.08A2.75,2.75,0,0,1,65,281.2Z"/><path class="cls-6" d="M44,286.82l-11.07,3a1.45,1.45,0,0,1-2-1.43V277.28a2.74,2.74,0,0,1,2-2.49l11.07-3a1.46,1.46,0,0,1,2,1.44v11.08A2.74,2.74,0,0,1,44,286.82Z"/><path d="M44,278.94l-1.68.45L40.69,275l-1.19.24.9,4.67-3.8,1,.9-5.16-1.19.4-1.67,5.29-1.68.45a1.3,1.3,0,0,0-.93,1.18.69.69,0,0,0,.93.68c1.33-.36,1.11,4.47,1.85,4.27l7.38-2c.74-.19.52-4.9,1.84-5.26a1.29,1.29,0,0,0,.93-1.18A.69.69,0,0,0,44,278.94Zm-2.37,6.27-6.32,1.69c-.53.14-.44-3.65-1.38-3.4L43,281.07C42.1,281.32,42.19,285.06,41.66,285.21Z"/><text class="cls-11" transform="matrix(0.61, -0.16, 0, 1, 53.83, 280.59)">WC</text><path class="cls-6" d="M75,278.54l11.07-3a2.74,2.74,0,0,0,2-2.49V262a1.46,1.46,0,0,0-2-1.44l-11.07,3A2.73,2.73,0,0,0,73,266V277.1A1.45,1.45,0,0,0,75,278.54Z"/><path class="cls-12" d="M86.78,267.87a3.35,3.35,0,0,1-2.39,3,2.32,2.32,0,0,1-.73.07,5.45,5.45,0,0,1-3.16,2.48,3.65,3.65,0,0,1-1.56.09c1.56-.12,1.56-7.88,3.13-8a2.71,2.71,0,0,1,1.59.86,2.88,2.88,0,0,1,.73-.3A1.76,1.76,0,0,1,86.78,267.87Z"/><path class="cls-13" d="M82.07,265.57c-1.57.09-1.57,7.85-3.13,8h0a2.67,2.67,0,0,1-1.59-.87,2.83,2.83,0,0,1-.74.31,1.77,1.77,0,0,1-2.39-1.75,3.34,3.34,0,0,1,2.39-3,2.08,2.08,0,0,1,.73-.07,5.44,5.44,0,0,1,3.17-2.48A3.7,3.7,0,0,1,82.07,265.57Z"/><text class="cls-14" transform="matrix(1, -0.27, 0, 1, 75.46, 271.95)">Wi</text><text class="cls-15" transform="matrix(1, -0.27, 0, 1, 82.25, 270.13)">Fi</text><path class="cls-16" d="M102.5,257.41l-6.25,1.68v12.49l2-.54v-4l4.25-1.14a5.34,5.34,0,0,0,2.25-1.25,5.77,5.77,0,0,0,2-3.92v-.43A3.15,3.15,0,0,0,102.5,257.41Zm2.25,3.88a3.2,3.2,0,0,1-2.25,2.63l-4.25,1.14v-4.51l4.25-1.14a1.67,1.67,0,0,1,2.25,1.42,1.77,1.77,0,0,1,0,.23A1.69,1.69,0,0,1,104.75,261.29Z"/><path class="cls-16" d="M106.75,260.32a1.27,1.27,0,0,1,0,.2,1.85,1.85,0,0,1,0,.23"/><line class="cls-13" x1="104.75" y1="261.29" x2="104.75" y2="260.83"/><polygon class="cls-4" points="70.63 344.04 61.84 346.4 46.5 373.51 61.84 392.4 70.63 390.04 55.29 371.15 70.63 344.04"/><polygon class="cls-4" points="82.06 340.98 73.27 343.34 57.93 370.45 73.27 389.34 82.06 386.98 66.72 368.09 82.06 340.98"/><polygon class="cls-4" points="93.5 337.92 84.7 340.27 69.36 367.38 84.7 386.27 93.5 383.92 78.16 365.03 93.5 337.92"/><line class="cls-17" x1="106.75" y1="7.14" x2="104.64" y2="6.58"/><polygon class="cls-18" points="20 48.01 20 422.01 0 416.65 0 42.65 20 48.01"/><path class="cls-18" d="M104.46,6.54C95.5,4.5,83.36,5,70,8.61,42.39,16,20,33.65,20,48L0,42.65c0-14.36,22.39-32,50-39.4C63.72-.43,76.16-.88,85.19,1.35l1.38.37h0Z"/></g></g></svg>