<svg xmlns="http://www.w3.org/2000/svg" xmlns:xlink="http://www.w3.org/1999/xlink" viewBox="0 0 116.9 117.25"><defs><style>.cls-1,.cls-9{fill:none;}.cls-2{fill:aqua;stroke:aqua;}.cls-2,.cls-3,.cls-4,.cls-5,.cls-9{stroke-miterlimit:10;}.cls-2,.cls-3,.cls-4,.cls-9{stroke-width:2px;}.cls-3{fill:#dc007d;stroke:#dc007d;}.cls-4{fill:#38ff17;stroke:#38ff17;}.cls-5{opacity:0.5;fill:url(#linear-gradient);stroke:url(#linear-gradient-2);}.cls-6{fill:url(#YellowGreenLED);}.cls-7{fill:url(#LightPinkLED);}.cls-8{fill:url(#BlueLED);}.cls-9{stroke:url(#linear-gradient-3);}</style><linearGradient id="linear-gradient" x1="58.45" y1="116.25" x2="58.45" y2="1.36" gradientUnits="userSpaceOnUse"><stop offset="0" stop-color="aqua"/><stop offset="0.5" stop-color="#f0f"/><stop offset="1" stop-color="lime"/></linearGradient><linearGradient id="linear-gradient-2" x1="58.45" y1="116.75" x2="58.45" y2="0.68" gradientUnits="userSpaceOnUse"><stop offset="0" stop-color="aqua"/><stop offset="0.5" stop-color="#dc007d"/><stop offset="1" stop-color="#38ff17"/></linearGradient><pattern id="YellowGreenLED" data-name="YellowGreenLED" width="6" height="6" patternUnits="userSpaceOnUse" viewBox="0 0 6 6"><rect class="cls-1" width="6" height="6"/><circle class="cls-4" cx="3" cy="3" r="0.5"/></pattern><pattern id="LightPinkLED" data-name="LightPinkLED" width="6" height="6" patternUnits="userSpaceOnUse" viewBox="0 0 6 6"><rect class="cls-1" width="6" height="6"/><circle class="cls-3" cx="3" cy="3" r="0.5"/></pattern><pattern id="BlueLED" data-name="BlueLED" width="6" height="6" patternUnits="userSpaceOnUse" viewBox="0 0 6 6"><rect class="cls-1" width="6" height="6"/><circle class="cls-2" cx="3" cy="3" r="0.5"/></pattern><linearGradient id="linear-gradient-3" x1="58.45" y1="117.25" x2="58.45" y2="0" xlink:href="#linear-gradient-2"/></defs><title>TopArrow</title><g id="Layer_2" data-name="Layer 2"><g id="Layer_1-2" data-name="Layer 1"><polygon class="cls-5" points="115.9 54.51 115.9 88.14 71.97 47.51 71.97 116.25 44.95 116.25 44.95 47.5 1 88.14 1 54.5 58.45 1.36 115.9 54.51"/><polygon class="cls-6" points="99.84 39.66 17.04 39.66 58.45 1.36 99.84 39.66"/><polygon class="cls-7" points="115.9 54.51 115.9 77.95 104.88 77.95 71.97 47.51 71.97 77.95 44.95 77.95 44.95 47.5 12.02 77.95 1 77.95 1 54.5 17.04 39.66 99.84 39.66 115.9 54.51"/><polygon class="cls-8" points="12.02 77.95 1 88.14 1 77.95 12.02 77.95"/><rect class="cls-8" x="44.95" y="77.95" width="27.03" height="38.3"/><polygon class="cls-8" points="115.9 77.95 115.9 88.14 104.88 77.95 115.9 77.95"/><polygon class="cls-9" points="115.9 54.51 115.9 88.14 71.97 47.51 71.97 116.25 44.95 116.25 44.95 47.5 1 88.14 1 54.5 58.45 1.36 115.9 54.51"/></g></g></svg>