<svg xmlns="http://www.w3.org/2000/svg" xmlns:xlink="http://www.w3.org/1999/xlink" viewBox="0 0 117.3 117.3"><defs><style>.cls-1,.cls-9{fill:none;}.cls-2{fill:aqua;stroke:aqua;}.cls-2,.cls-3,.cls-4,.cls-5,.cls-9{stroke-miterlimit:10;}.cls-2,.cls-3,.cls-4,.cls-9{stroke-width:2px;}.cls-3{fill:#dc007d;stroke:#dc007d;}.cls-4{fill:#38ff17;stroke:#38ff17;}.cls-5{opacity:0.5;fill:url(#linear-gradient);stroke:url(#linear-gradient-2);}.cls-6{fill:url(#YellowGreenLED);}.cls-7{fill:url(#LightPinkLED);}.cls-8{fill:url(#BlueLED);}.cls-9{stroke:url(#linear-gradient-3);}</style><linearGradient id="linear-gradient" x1="-94.02" y1="260.55" x2="55.97" y2="260.55" gradientTransform="translate(-143.66 224.81) rotate(-135)" gradientUnits="userSpaceOnUse"><stop offset="0" stop-color="aqua"/><stop offset="0.5" stop-color="#f0f"/><stop offset="1" stop-color="lime"/></linearGradient><linearGradient id="linear-gradient-2" x1="-94.52" y1="260.55" x2="56.67" y2="260.55" xlink:href="#linear-gradient"/><pattern id="YellowGreenLED" data-name="YellowGreenLED" width="6" height="6" patternUnits="userSpaceOnUse" viewBox="0 0 6 6"><rect class="cls-1" width="6" height="6"/><circle class="cls-4" cx="3" cy="3" r="0.5"/></pattern><pattern id="LightPinkLED" data-name="LightPinkLED" width="6" height="6" patternUnits="userSpaceOnUse" viewBox="0 0 6 6"><rect class="cls-1" width="6" height="6"/><circle class="cls-3" cx="3" cy="3" r="0.5"/></pattern><pattern id="BlueLED" data-name="BlueLED" width="6" height="6" patternUnits="userSpaceOnUse" viewBox="0 0 6 6"><rect class="cls-1" width="6" height="6"/><circle class="cls-2" cx="3" cy="3" r="0.5"/></pattern><linearGradient id="linear-gradient-3" x1="-95.02" y1="260.55" x2="57.38" y2="260.55" xlink:href="#linear-gradient"/></defs><title>TopLeftArrow</title><g id="Layer_2" data-name="Layer 2"><g id="Layer_1-2" data-name="Layer 1"><polygon class="cls-5" points="98.22 115.89 24.79 42.46 24.79 99.94 1 76.15 1 1 76.15 1.01 99.94 24.79 42.47 24.79 115.89 98.21 98.22 115.89"/><polygon class="cls-6" points="0.99 1 71.68 1.01 47.9 24.79 42.47 24.79 45.19 27.5 27.51 45.18 24.79 42.46 24.79 47.9 1 71.69 0.99 1"/><polygon class="cls-7" points="27.51 45.18 45.19 27.5 80.54 62.86 62.87 80.54 27.51 45.18"/><polygon class="cls-8" points="62.87 80.54 80.54 62.86 115.89 98.21 98.22 115.89 62.87 80.54"/><polygon class="cls-7" points="1 71.69 24.79 47.9 24.8 99.94 1 76.15 1 71.69"/><polygon class="cls-7" points="47.9 24.79 71.68 1.01 76.15 1.01 99.94 24.8 47.9 24.79"/><polygon class="cls-9" points="98.22 115.89 24.79 42.46 24.79 99.94 1 76.15 1 1 76.15 1.01 99.94 24.79 42.47 24.79 115.89 98.21 98.22 115.89"/></g></g></svg>