<svg xmlns="http://www.w3.org/2000/svg" xmlns:xlink="http://www.w3.org/1999/xlink" viewBox="0 0 117.3 117.3"><defs><style>.cls-1,.cls-9{fill:none;}.cls-2{fill:aqua;stroke:aqua;}.cls-2,.cls-3,.cls-4,.cls-5,.cls-9{stroke-miterlimit:10;}.cls-2,.cls-3,.cls-4,.cls-9{stroke-width:2px;}.cls-3{fill:#dc007d;stroke:#dc007d;}.cls-4{fill:#38ff17;stroke:#38ff17;}.cls-5{opacity:0.5;fill:url(#linear-gradient);stroke:url(#linear-gradient-2);}.cls-6{fill:url(#YellowGreenLED);}.cls-7{fill:url(#LightPinkLED);}.cls-8{fill:url(#BlueLED);}.cls-9{stroke:url(#linear-gradient-3);}</style><linearGradient id="linear-gradient" x1="-9.89" y1="58.44" x2="140.1" y2="58.44" gradientTransform="translate(-24.09 58.74) rotate(-45)" gradientUnits="userSpaceOnUse"><stop offset="0" stop-color="aqua"/><stop offset="0.5" stop-color="#f0f"/><stop offset="1" stop-color="lime"/></linearGradient><linearGradient id="linear-gradient-2" x1="-10.39" y1="58.44" x2="140.81" y2="58.44" xlink:href="#linear-gradient"/><pattern id="YellowGreenLED" data-name="YellowGreenLED" width="6" height="6" patternUnits="userSpaceOnUse" viewBox="0 0 6 6"><rect class="cls-1" width="6" height="6"/><circle class="cls-4" cx="3" cy="3" r="0.5"/></pattern><pattern id="LightPinkLED" data-name="LightPinkLED" width="6" height="6" patternUnits="userSpaceOnUse" viewBox="0 0 6 6"><rect class="cls-1" width="6" height="6"/><circle class="cls-3" cx="3" cy="3" r="0.5"/></pattern><pattern id="BlueLED" data-name="BlueLED" width="6" height="6" patternUnits="userSpaceOnUse" viewBox="0 0 6 6"><rect class="cls-1" width="6" height="6"/><circle class="cls-2" cx="3" cy="3" r="0.5"/></pattern><linearGradient id="linear-gradient-3" x1="-10.89" y1="58.44" x2="141.51" y2="58.44" xlink:href="#linear-gradient"/></defs><title>TopRightArrow</title><g id="Layer_2" data-name="Layer 2"><g id="Layer_1-2" data-name="Layer 1"><polygon class="cls-5" points="1.41 98.22 74.84 24.79 17.36 24.79 41.15 1 116.3 1 116.29 76.15 92.51 99.94 92.51 42.47 19.09 115.89 1.41 98.22"/><polygon class="cls-6" points="116.3 0.99 116.3 71.68 92.52 47.9 92.52 42.47 89.8 45.19 72.12 27.51 74.84 24.79 69.4 24.79 45.61 1 116.3 0.99"/><polygon class="cls-7" points="72.12 27.51 89.8 45.19 54.45 80.54 36.77 62.87 72.12 27.51"/><polygon class="cls-8" points="36.77 62.87 54.45 80.54 19.1 115.89 1.41 98.22 36.77 62.87"/><polygon class="cls-7" points="45.61 1 69.4 24.79 17.36 24.8 41.16 1 45.61 1"/><polygon class="cls-7" points="92.52 47.9 116.3 71.68 116.3 76.15 92.51 99.94 92.52 47.9"/><polygon class="cls-9" points="1.41 98.22 74.84 24.79 17.36 24.79 41.15 1 116.3 1 116.29 76.15 92.51 99.94 92.51 42.47 19.09 115.89 1.41 98.22"/></g></g></svg>