<svg xmlns="http://www.w3.org/2000/svg" xmlns:xlink="http://www.w3.org/1999/xlink" viewBox="0 0 210.84 207.46"><defs><style>.cls-1,.cls-3{fill:#816ad5;}.cls-2{fill:#ff0;}.cls-22,.cls-3{stroke:#bed56a;stroke-linecap:round;stroke-linejoin:round;}.cls-4{fill:url(#radial-gradient);}.cls-5{fill:url(#radial-gradient-2);}.cls-6{fill:url(#radial-gradient-3);}.cls-7{fill:url(#radial-gradient-4);}.cls-8{fill:url(#radial-gradient-5);}.cls-9{fill:url(#radial-gradient-6);}.cls-10{fill:url(#radial-gradient-7);}.cls-11{fill:url(#radial-gradient-8);}.cls-12{fill:url(#radial-gradient-9);}.cls-13{fill:url(#radial-gradient-10);}.cls-14{opacity:0.4;}.cls-15{fill:url(#radial-gradient-11);}.cls-16{fill:url(#radial-gradient-12);}.cls-17{fill:url(#radial-gradient-13);}.cls-18{fill:url(#radial-gradient-14);}.cls-19{fill:url(#radial-gradient-15);}.cls-20{fill:url(#radial-gradient-16);}.cls-21{fill:url(#radial-gradient-17);}.cls-22{fill:none;}.cls-23{fill:url(#radial-gradient-18);}.cls-24{fill:url(#radial-gradient-19);}.cls-25{fill:url(#radial-gradient-20);}.cls-26{fill:url(#radial-gradient-21);}.cls-27{fill:url(#radial-gradient-22);}.cls-28{fill:url(#radial-gradient-23);}.cls-29{fill:url(#radial-gradient-24);}.cls-30{fill:url(#radial-gradient-25);}.cls-31{fill:url(#radial-gradient-26);}.cls-32{fill:url(#radial-gradient-27);}.cls-33{fill:url(#radial-gradient-28);}.cls-34{fill:url(#radial-gradient-29);}.cls-35{fill:url(#radial-gradient-30);}.cls-36{fill:url(#radial-gradient-31);}.cls-37{fill:url(#radial-gradient-32);}.cls-38{fill:url(#radial-gradient-33);}.cls-39{fill:url(#radial-gradient-34);}.cls-40{fill:url(#radial-gradient-35);}.cls-41{fill:url(#radial-gradient-36);}.cls-42{fill:url(#radial-gradient-37);}.cls-43{fill:url(#radial-gradient-38);}.cls-44{fill:url(#radial-gradient-39);}.cls-45{fill:url(#radial-gradient-40);}.cls-46{fill:url(#radial-gradient-41);}.cls-47{fill:url(#radial-gradient-42);}.cls-48{fill:url(#radial-gradient-43);}.cls-49{fill:url(#radial-gradient-44);}.cls-50{fill:url(#radial-gradient-45);}.cls-51{fill:url(#radial-gradient-46);}.cls-52{fill:url(#radial-gradient-47);}.cls-53{fill:url(#radial-gradient-48);}.cls-54{fill:url(#radial-gradient-49);}.cls-55{fill:url(#radial-gradient-50);}.cls-56{fill:url(#radial-gradient-51);}.cls-57{fill:url(#radial-gradient-52);}.cls-58{fill:url(#radial-gradient-53);}.cls-59{fill:url(#radial-gradient-54);}.cls-60{fill:url(#radial-gradient-55);}.cls-61{fill:url(#radial-gradient-56);}.cls-62{fill:url(#radial-gradient-57);}.cls-63{fill:url(#radial-gradient-58);}.cls-64{fill:url(#radial-gradient-59);}.cls-65{fill:url(#radial-gradient-60);}.cls-66{fill:url(#radial-gradient-61);}.cls-67{fill:url(#radial-gradient-62);}.cls-68{fill:url(#radial-gradient-63);}.cls-69{fill:url(#radial-gradient-64);}.cls-70{fill:url(#radial-gradient-65);}.cls-71{fill:url(#radial-gradient-66);}.cls-72{fill:url(#radial-gradient-67);}.cls-73{fill:url(#radial-gradient-68);}.cls-74{fill:url(#radial-gradient-69);}.cls-75{fill:url(#radial-gradient-70);}.cls-76{fill:url(#radial-gradient-71);}.cls-77{fill:url(#radial-gradient-72);}.cls-78{fill:url(#radial-gradient-73);}.cls-79{fill:url(#radial-gradient-74);}.cls-80{fill:url(#radial-gradient-75);}.cls-81{fill:url(#radial-gradient-76);}.cls-82{fill:url(#radial-gradient-77);}.cls-83{fill:url(#radial-gradient-78);}</style><radialGradient id="radial-gradient" cx="189.45" cy="137.38" r="2.34" gradientUnits="userSpaceOnUse"><stop offset="0" stop-color="#fff"/><stop offset="1" stop-color="#816ad5"/></radialGradient><radialGradient id="radial-gradient-2" cx="198.06" cy="138.34" r="2.28" xlink:href="#radial-gradient"/><radialGradient id="radial-gradient-3" cx="189.45" cy="151.39" r="2.34" xlink:href="#radial-gradient"/><radialGradient id="radial-gradient-4" cx="189.45" cy="165.4" r="2.34" xlink:href="#radial-gradient"/><radialGradient id="radial-gradient-5" cx="189.45" cy="179.42" r="2.34" xlink:href="#radial-gradient"/><radialGradient id="radial-gradient-6" cx="189.45" cy="193.43" r="2.34" xlink:href="#radial-gradient"/><radialGradient id="radial-gradient-7" cx="198.06" cy="193.26" r="2.28" xlink:href="#radial-gradient"/><radialGradient id="radial-gradient-8" cx="206.32" cy="179.64" r="2.22" xlink:href="#radial-gradient"/><radialGradient id="radial-gradient-9" cx="206.32" cy="166.19" r="2.22" xlink:href="#radial-gradient"/><radialGradient id="radial-gradient-10" cx="206.32" cy="152.73" r="2.22" xlink:href="#radial-gradient"/><radialGradient id="radial-gradient-11" cx="117.57" cy="37.66" r="2.92" xlink:href="#radial-gradient"/><radialGradient id="radial-gradient-12" cx="129.29" cy="41.13" r="2.82" xlink:href="#radial-gradient"/><radialGradient id="radial-gradient-13" cx="140.47" cy="44.45" r="2.74" xlink:href="#radial-gradient"/><radialGradient id="radial-gradient-14" cx="129.29" cy="57.13" r="2.81" xlink:href="#radial-gradient"/><radialGradient id="radial-gradient-15" cx="129.29" cy="73.12" r="2.81" xlink:href="#radial-gradient"/><radialGradient id="radial-gradient-16" cx="129.29" cy="89.12" r="2.8" xlink:href="#radial-gradient"/><radialGradient id="radial-gradient-17" cx="129.29" cy="105.11" r="2.79" xlink:href="#radial-gradient"/><radialGradient id="radial-gradient-18" cx="71.68" cy="95.61" r="3.26" xlink:href="#radial-gradient"/><radialGradient id="radial-gradient-19" cx="71.68" cy="77.72" r="3.27" xlink:href="#radial-gradient"/><radialGradient id="radial-gradient-20" cx="71.68" cy="59.83" r="3.27" xlink:href="#radial-gradient"/><radialGradient id="radial-gradient-21" cx="71.68" cy="41.94" r="3.28" xlink:href="#radial-gradient"/><radialGradient id="radial-gradient-22" cx="71.68" cy="24.05" r="3.3" xlink:href="#radial-gradient"/><radialGradient id="radial-gradient-23" cx="85.63" cy="28.18" r="3.18" xlink:href="#radial-gradient"/><radialGradient id="radial-gradient-24" cx="98.89" cy="49.11" r="3.06" xlink:href="#radial-gradient"/><radialGradient id="radial-gradient-25" cx="85.63" cy="63.05" r="3.16" xlink:href="#radial-gradient"/><radialGradient id="radial-gradient-26" cx="98.89" cy="83.1" r="3.04" xlink:href="#radial-gradient"/><radialGradient id="radial-gradient-27" cx="98.89" cy="100.1" r="3.03" xlink:href="#radial-gradient"/><radialGradient id="radial-gradient-28" cx="16.48" cy="86.51" r="3.74" xlink:href="#radial-gradient"/><radialGradient id="radial-gradient-29" cx="16.48" cy="66.8" r="3.75" xlink:href="#radial-gradient"/><radialGradient id="radial-gradient-30" cx="16.48" cy="47.09" r="3.76" xlink:href="#radial-gradient"/><radialGradient id="radial-gradient-31" cx="16.48" cy="27.38" r="3.77" xlink:href="#radial-gradient"/><radialGradient id="radial-gradient-32" cx="33.36" cy="12.68" r="3.63" xlink:href="#radial-gradient"/><radialGradient id="radial-gradient-33" cx="49.32" cy="36.04" r="3.48" xlink:href="#radial-gradient"/><radialGradient id="radial-gradient-34" cx="49.32" cy="54.67" r="3.47" xlink:href="#radial-gradient"/><radialGradient id="radial-gradient-35" cx="33.36" cy="50.99" r="3.61" xlink:href="#radial-gradient"/><radialGradient id="radial-gradient-36" cx="49.32" cy="73.3" r="3.46" xlink:href="#radial-gradient"/><radialGradient id="radial-gradient-37" cx="49.32" cy="91.93" r="3.45" xlink:href="#radial-gradient"/><radialGradient id="radial-gradient-38" cx="156.31" cy="133.65" r="2.58" xlink:href="#radial-gradient"/><radialGradient id="radial-gradient-39" cx="156.31" cy="148.76" r="2.58" xlink:href="#radial-gradient"/><radialGradient id="radial-gradient-40" cx="156.31" cy="163.86" r="2.58" xlink:href="#radial-gradient"/><radialGradient id="radial-gradient-41" cx="156.31" cy="178.97" r="2.58" xlink:href="#radial-gradient"/><radialGradient id="radial-gradient-42" cx="156.31" cy="194.07" r="2.58" xlink:href="#radial-gradient"/><radialGradient id="radial-gradient-43" cx="166.29" cy="149.55" r="2.51" xlink:href="#radial-gradient"/><radialGradient id="radial-gradient-44" cx="175.85" cy="135.85" r="2.44" xlink:href="#radial-gradient"/><radialGradient id="radial-gradient-45" cx="175.85" cy="150.31" r="2.44" xlink:href="#radial-gradient"/><radialGradient id="radial-gradient-46" cx="175.85" cy="164.77" r="2.44" xlink:href="#radial-gradient"/><radialGradient id="radial-gradient-47" cx="175.85" cy="179.23" r="2.43" xlink:href="#radial-gradient"/><radialGradient id="radial-gradient-48" cx="175.85" cy="193.69" r="2.43" xlink:href="#radial-gradient"/><radialGradient id="radial-gradient-49" cx="117.58" cy="129.3" r="2.88" xlink:href="#radial-gradient"/><radialGradient id="radial-gradient-50" cx="129.3" cy="130.62" r="2.79" xlink:href="#radial-gradient"/><radialGradient id="radial-gradient-51" cx="140.48" cy="131.87" r="2.7" xlink:href="#radial-gradient"/><radialGradient id="radial-gradient-52" cx="117.58" cy="145.68" r="2.88" xlink:href="#radial-gradient"/><radialGradient id="radial-gradient-53" cx="117.58" cy="162.06" r="2.87" xlink:href="#radial-gradient"/><radialGradient id="radial-gradient-54" cx="117.58" cy="178.44" r="2.87" xlink:href="#radial-gradient"/><radialGradient id="radial-gradient-55" cx="117.58" cy="194.83" r="2.87" xlink:href="#radial-gradient"/><radialGradient id="radial-gradient-56" cx="129.3" cy="194.6" r="2.78" xlink:href="#radial-gradient"/><radialGradient id="radial-gradient-57" cx="140.48" cy="194.38" r="2.7" xlink:href="#radial-gradient"/><radialGradient id="radial-gradient-58" cx="129.29" cy="162.61" r="2.78" xlink:href="#radial-gradient"/><radialGradient id="radial-gradient-59" cx="71.68" cy="195.72" r="3.24" xlink:href="#radial-gradient"/><radialGradient id="radial-gradient-60" cx="71.68" cy="177.82" r="3.24" xlink:href="#radial-gradient"/><radialGradient id="radial-gradient-61" cx="71.68" cy="159.93" r="3.24" xlink:href="#radial-gradient"/><radialGradient id="radial-gradient-62" cx="71.68" cy="142.04" r="3.24" xlink:href="#radial-gradient"/><radialGradient id="radial-gradient-63" cx="71.68" cy="124.15" r="3.25" xlink:href="#radial-gradient"/><radialGradient id="radial-gradient-64" cx="85.64" cy="125.71" r="3.13" xlink:href="#radial-gradient"/><radialGradient id="radial-gradient-65" cx="98.89" cy="144.2" r="3.02" xlink:href="#radial-gradient"/><radialGradient id="radial-gradient-66" cx="85.64" cy="160.58" r="3.13" xlink:href="#radial-gradient"/><radialGradient id="radial-gradient-67" cx="98.89" cy="178.19" r="3.02" xlink:href="#radial-gradient"/><radialGradient id="radial-gradient-68" cx="98.89" cy="195.19" r="3.02" xlink:href="#radial-gradient"/><radialGradient id="radial-gradient-69" cx="16.48" cy="196.79" r="3.72" xlink:href="#radial-gradient"/><radialGradient id="radial-gradient-70" cx="16.48" cy="177.08" r="3.72" xlink:href="#radial-gradient"/><radialGradient id="radial-gradient-71" cx="16.48" cy="157.37" r="3.72" xlink:href="#radial-gradient"/><radialGradient id="radial-gradient-72" cx="16.48" cy="137.66" r="3.72" xlink:href="#radial-gradient"/><radialGradient id="radial-gradient-73" cx="16.48" cy="117.95" r="3.73" xlink:href="#radial-gradient"/><radialGradient id="radial-gradient-74" cx="33.36" cy="119.84" r="3.58" xlink:href="#radial-gradient"/><radialGradient id="radial-gradient-75" cx="49.32" cy="140.26" r="3.43" xlink:href="#radial-gradient"/><radialGradient id="radial-gradient-76" cx="33.36" cy="158.15" r="3.57" xlink:href="#radial-gradient"/><radialGradient id="radial-gradient-77" cx="49.32" cy="177.52" r="3.43" xlink:href="#radial-gradient"/><radialGradient id="radial-gradient-78" cx="33.36" cy="196.46" r="3.57" xlink:href="#radial-gradient"/></defs><title>LettersImg1</title><g id="Layer_2" data-name="Layer 2"><g id="Layer_1-2" data-name="Layer 1"><polygon class="cls-1" points="185.02 129.8 185.02 200.59 177.34 200.37 177.34 130.6 185.02 129.8"/><polygon class="cls-1" points="202.24 145.61 194.62 146.16 193.8 146.08 193.8 144.8 202.24 145.61"/><polygon class="cls-1" points="202.24 145.61 202.24 186.38 194.62 186.41 194.62 146.16 202.24 145.61"/><path class="cls-2" d="M202.24,132,185,129.8v70.79l17.22-.61,8.1-13.62v-40Zm0,54.36-8.44,0V144.8l8.44.81Z"/><path class="cls-3" d="M202.24,132,185,129.8v70.79l17.22-.61,8.1-13.62v-40Zm0,54.36-8.44,0V144.8l8.44.81Z"/><path class="cls-4" d="M191.21,137.57c0,1.54-.79,2.71-1.75,2.61s-1.77-1.45-1.77-3,.79-2.72,1.77-2.61S191.21,136,191.21,137.57Z"/><path class="cls-5" d="M199.74,138.53c0,1.51-.75,2.66-1.68,2.56s-1.69-1.41-1.69-2.94.76-2.66,1.69-2.55S199.74,137,199.74,138.53Z"/><path class="cls-6" d="M191.21,151.53c0,1.54-.79,2.73-1.75,2.66s-1.77-1.39-1.77-2.94.79-2.75,1.77-2.66S191.21,150,191.21,151.53Z"/><path class="cls-7" d="M191.21,165.48c0,1.55-.79,2.76-1.75,2.73s-1.77-1.33-1.77-2.89.79-2.77,1.77-2.72S191.21,163.94,191.21,165.48Z"/><path class="cls-8" d="M191.21,179.44c0,1.54-.79,2.79-1.75,2.78s-1.77-1.27-1.77-2.83.79-2.8,1.77-2.78S191.21,177.9,191.21,179.44Z"/><path class="cls-9" d="M191.21,193.4c0,1.54-.79,2.81-1.75,2.83s-1.77-1.21-1.77-2.77.79-2.82,1.77-2.83S191.21,191.85,191.21,193.4Z"/><path class="cls-10" d="M199.74,193.23c0,1.51-.75,2.75-1.68,2.78s-1.69-1.19-1.69-2.71.76-2.77,1.69-2.78S199.74,191.72,199.74,193.23Z"/><path class="cls-11" d="M207.94,179.67c0,1.48-.72,2.67-1.61,2.67s-1.63-1.23-1.63-2.72.73-2.68,1.63-2.67S207.94,178.19,207.94,179.67Z"/><path class="cls-12" d="M207.94,166.26c0,1.48-.72,2.65-1.61,2.62s-1.63-1.28-1.63-2.77.73-2.66,1.63-2.61S207.94,164.78,207.94,166.26Z"/><path class="cls-13" d="M207.94,152.86c0,1.48-.72,2.62-1.61,2.56s-1.63-1.33-1.63-2.82.73-2.64,1.63-2.56S207.94,151.38,207.94,152.86Z"/><polygon class="cls-1" points="111.51 27.57 111.51 44.15 103.78 46.53 103.78 30.23 111.51 27.57"/><polygon class="cls-1" points="123.51 47.51 115.77 49.78 103.78 46.53 111.51 44.15 123.51 47.51"/><polygon class="cls-1" points="123.51 47.51 123.51 112.25 115.77 113.46 115.77 49.78 123.51 47.51"/><polygon class="cls-1" points="134.96 113.95 127.2 115.1 115.77 113.46 123.51 112.25 134.96 113.95"/><polygon class="cls-1" points="145.88 53.78 138.13 55.85 134.96 54.99 134.96 50.72 145.88 53.78"/><polygon class="cls-14" points="185.02 129.8 185.02 200.59 177.34 200.37 177.34 130.6 185.02 129.8"/><polygon class="cls-14" points="202.24 145.61 194.62 146.16 193.8 146.08 193.8 144.8 202.24 145.61"/><polygon class="cls-14" points="202.24 145.61 202.24 186.38 194.62 186.41 194.62 146.16 202.24 145.61"/><polygon class="cls-14" points="123.51 47.51 123.51 112.25 115.77 113.46 115.77 49.78 123.51 47.51"/><polygon class="cls-14" points="134.96 113.95 127.2 115.1 115.77 113.46 123.51 112.25 134.96 113.95"/><polygon class="cls-14" points="145.88 53.78 138.13 55.85 134.96 54.99 134.96 50.72 145.88 53.78"/><polygon class="cls-14" points="111.51 27.57 111.51 44.15 103.78 46.53 103.78 30.23 111.51 27.57"/><polygon class="cls-14" points="123.51 47.51 115.77 49.78 103.78 46.53 111.51 44.15 123.51 47.51"/><polygon class="cls-3" points="145.88 38.33 145.88 53.77 134.96 50.72 134.96 113.95 123.51 112.25 123.51 47.51 111.51 44.15 111.51 27.57 145.88 38.33"/><path class="cls-15" d="M120,38.37c0,1.8-1.07,3-2.39,2.57s-2.41-2.18-2.41-4,1.08-3,2.41-2.56S120,36.57,120,38.37Z"/><path class="cls-16" d="M131.58,41.81c0,1.76-1,2.89-2.28,2.52s-2.3-2.1-2.3-3.88,1-2.9,2.3-2.51S131.58,40.05,131.58,41.81Z"/><path class="cls-17" d="M142.65,45.1c0,1.71-1,2.82-2.17,2.48s-2.2-2-2.2-3.78,1-2.84,2.2-2.47S142.65,43.38,142.65,45.1Z"/><path class="cls-18" d="M131.58,57.73c0,1.76-1,2.92-2.28,2.6s-2.3-2-2.3-3.81,1-2.93,2.3-2.59S131.58,56,131.58,57.73Z"/><path class="cls-19" d="M131.58,73.65c0,1.76-1,3-2.28,2.67s-2.3-1.95-2.3-3.73,1-3,2.3-2.67S131.58,71.89,131.58,73.65Z"/><path class="cls-20" d="M131.58,89.57c0,1.76-1,3-2.28,2.75s-2.3-1.88-2.3-3.66,1-3,2.3-2.74S131.58,87.81,131.58,89.57Z"/><path class="cls-21" d="M131.58,105.49c0,1.76-1,3-2.28,2.82s-2.3-1.8-2.3-3.58,1-3,2.3-2.82S131.58,103.73,131.58,105.49Z"/><polygon class="cls-22" points="111.51 27.57 111.51 44.15 103.78 46.53 103.78 30.23 111.51 27.57"/><polygon class="cls-22" points="123.51 47.51 115.77 49.78 103.78 46.53 111.51 44.15 123.51 47.51"/><polygon class="cls-22" points="123.51 47.51 123.51 112.25 115.77 113.46 115.77 49.78 123.51 47.51"/><polygon class="cls-22" points="134.96 113.95 127.2 115.1 115.77 113.46 123.51 112.25 134.96 113.95"/><polygon class="cls-22" points="145.88 53.78 138.13 55.85 134.96 54.99 134.96 50.72 145.88 53.78"/><polygon class="cls-1" points="105.28 109.54 97.57 110.84 84.68 108.99 92.36 107.63 105.28 109.54"/><polygon class="cls-1" points="64.45 12.83 64.45 103.49 56.88 104.99 56.88 16.02 64.45 12.83"/><polygon class="cls-1" points="78.77 105.61 71.13 107.04 56.88 104.99 64.45 103.49 78.77 105.61"/><polygon class="cls-1" points="92.36 73.21 84.68 75.17 78.77 73.94 78.77 70.29 92.36 73.21"/><polygon class="cls-1" points="92.36 73.21 92.36 107.63 84.68 108.99 84.68 75.17 92.36 73.21"/><path class="cls-3" d="M105.28,42.4,92.36,21.57,64.45,12.83v90.66l14.32,2.12V70.29l13.59,2.92v34.42l12.92,1.91V76L98.9,66.11l6.38-6.92ZM92.36,56,78.77,52.63V35l13.59,3.8Z"/><polygon class="cls-1" points="92.36 38.78 84.68 41.35 78.77 39.75 78.77 34.98 92.36 38.78"/><polygon class="cls-1" points="92.36 38.78 92.36 55.99 84.68 54.09 84.68 41.35 92.36 38.78"/><path class="cls-23" d="M74.55,96.09c0,2-1.28,3.35-2.85,3.11s-2.88-2.07-2.88-4.06,1.29-3.37,2.88-3.1S74.55,94.12,74.55,96.09Z"/><path class="cls-24" d="M74.55,78.29c0,2-1.28,3.32-2.85,3s-2.88-2.16-2.88-4.14,1.29-3.34,2.88-3S74.55,76.32,74.55,78.29Z"/><path class="cls-25" d="M74.55,60.49c0,2-1.28,3.27-2.85,2.92s-2.88-2.26-2.88-4.24,1.29-3.29,2.88-2.92A4.37,4.37,0,0,1,74.55,60.49Z"/><path class="cls-26" d="M74.55,42.69c0,2-1.28,3.23-2.85,2.83s-2.88-2.35-2.88-4.34,1.29-3.25,2.88-2.82A4.55,4.55,0,0,1,74.55,42.69Z"/><path class="cls-27" d="M74.55,24.9c0,2-1.28,3.19-2.85,2.73a4.7,4.7,0,0,1-2.88-4.43c0-2,1.29-3.21,2.88-2.73A4.74,4.74,0,0,1,74.55,24.9Z"/><path class="cls-28" d="M88.35,29c0,1.92-1.21,3.12-2.7,2.68s-2.73-2.36-2.73-4.29,1.22-3.13,2.73-2.68A4.57,4.57,0,0,1,88.35,29Z"/><path class="cls-29" d="M101.47,49.79c0,1.87-1.15,3.09-2.57,2.72s-2.6-2.19-2.6-4.08,1.17-3.1,2.6-2.71S101.47,47.92,101.47,49.79Z"/><path class="cls-30" d="M88.35,63.68c0,1.91-1.21,3.19-2.7,2.86s-2.73-2.18-2.73-4.12,1.22-3.21,2.73-2.85S88.35,61.76,88.35,63.68Z"/><path class="cls-31" d="M101.47,83.61c0,1.87-1.15,3.17-2.57,2.89s-2.6-2-2.6-3.91,1.17-3.18,2.6-2.88S101.47,81.75,101.47,83.61Z"/><path class="cls-32" d="M101.47,100.53c0,1.86-1.15,3.2-2.57,3s-2.6-1.94-2.6-3.83,1.17-3.21,2.6-3S101.47,98.66,101.47,100.53Z"/><polygon class="cls-14" points="105.28 109.54 97.57 110.84 84.68 108.99 92.36 107.63 105.28 109.54"/><polygon class="cls-14" points="64.45 12.83 64.45 103.49 56.88 104.99 56.88 16.02 64.45 12.83"/><polygon class="cls-14" points="78.77 105.61 71.13 107.04 56.88 104.99 64.45 103.49 78.77 105.61"/><polygon class="cls-14" points="92.36 73.21 84.68 75.17 78.77 73.94 78.77 70.29 92.36 73.21"/><polygon class="cls-14" points="92.36 73.21 92.36 107.63 84.68 108.99 84.68 75.17 92.36 73.21"/><polygon class="cls-14" points="92.36 38.78 84.68 41.35 78.77 39.75 78.77 34.98 92.36 38.78"/><polygon class="cls-14" points="92.36 38.78 92.36 55.99 84.68 54.09 84.68 41.35 92.36 38.78"/><polygon class="cls-22" points="105.28 109.54 97.57 110.84 84.68 108.99 92.36 107.63 105.28 109.54"/><polygon class="cls-22" points="64.45 12.83 64.45 103.49 56.88 104.99 56.88 16.02 64.45 12.83"/><polygon class="cls-22" points="78.77 105.61 71.13 107.04 56.88 104.99 64.45 103.49 78.77 105.61"/><polygon class="cls-22" points="92.36 73.21 84.68 75.17 78.77 73.94 78.77 70.29 92.36 73.21"/><polygon class="cls-22" points="92.36 73.21 92.36 107.63 84.68 108.99 84.68 75.17 92.36 73.21"/><polygon class="cls-22" points="92.36 38.78 84.68 41.35 78.77 39.75 78.77 34.98 92.36 38.78"/><polygon class="cls-22" points="92.36 38.78 92.36 55.99 84.68 54.09 84.68 41.35 92.36 38.78"/><path class="cls-3" d="M41.47,5.64,25.06.5,7.68,15.06v80l17.38,2.58V58.79L41.47,62.3v37.78L57,102.38V28.88Zm0,37.77-16.41-4V19.93l16.41,4.6Z"/><path class="cls-33" d="M20,87.09c0,2.16-1.54,3.67-3.45,3.37A4.57,4.57,0,0,1,13,85.94c0-2.19,1.57-3.69,3.5-3.36A4.56,4.56,0,0,1,20,87.09Z"/><path class="cls-34" d="M20,67.49c0,2.17-1.54,3.63-3.45,3.26A4.75,4.75,0,0,1,13,66.12c0-2.19,1.57-3.65,3.5-3.25A4.76,4.76,0,0,1,20,67.49Z"/><path class="cls-35" d="M20,47.9c0,2.16-1.54,3.57-3.45,3.14A5,5,0,0,1,13,46.29c0-2.19,1.57-3.59,3.5-3.13A5,5,0,0,1,20,47.9Z"/><path class="cls-36" d="M20,28.3c0,2.16-1.54,3.52-3.45,3A5.15,5.15,0,0,1,13,26.47c0-2.19,1.57-3.54,3.5-3A5.17,5.17,0,0,1,20,28.3Z"/><path class="cls-37" d="M36.65,13.66c0,2.1-1.46,3.38-3.27,2.86a5.16,5.16,0,0,1-3.3-4.81c0-2.13,1.48-3.4,3.3-2.85A5.17,5.17,0,0,1,36.65,13.66Z"/><path class="cls-38" d="M52.43,36.86c0,2-1.38,3.35-3.09,2.91a4.76,4.76,0,0,1-3.12-4.54c0-2.07,1.4-3.37,3.12-2.91A4.79,4.79,0,0,1,52.43,36.86Z"/><path class="cls-39" d="M52.43,55.39c0,2-1.38,3.39-3.09,3A4.56,4.56,0,0,1,46.22,54c0-2.07,1.4-3.42,3.12-3A4.6,4.6,0,0,1,52.43,55.39Z"/><path class="cls-40" d="M36.65,51.75c0,2.1-1.46,3.48-3.27,3.07a4.74,4.74,0,0,1-3.3-4.59c0-2.12,1.48-3.5,3.3-3.07A4.78,4.78,0,0,1,36.65,51.75Z"/><path class="cls-41" d="M52.43,73.91c0,2-1.38,3.45-3.09,3.12a4.39,4.39,0,0,1-3.12-4.34c0-2.07,1.4-3.46,3.12-3.11A4.41,4.41,0,0,1,52.43,73.91Z"/><path class="cls-42" d="M52.43,92.44c0,2-1.38,3.49-3.09,3.22s-3.12-2.17-3.12-4.24,1.4-3.51,3.12-3.21A4.22,4.22,0,0,1,52.43,92.44Z"/><polygon class="cls-1" points="25.06 0.5 7.68 15.06 0.5 18.52 17.74 4.15 25.06 0.5"/><polygon class="cls-1" points="7.68 15.06 7.68 95.06 0.5 96.9 0.5 18.52 7.68 15.06"/><polygon class="cls-1" points="25.06 97.64 17.74 99.37 0.5 96.9 7.68 95.06 25.06 97.64"/><polygon class="cls-1" points="41.47 62.3 34.03 64.67 25.06 62.8 25.06 58.79 41.47 62.3"/><polygon class="cls-1" points="41.47 62.3 41.47 100.08 34.03 101.71 34.03 64.67 41.47 62.3"/><polygon class="cls-1" points="56.99 102.38 49.47 103.93 34.03 101.71 41.47 100.08 56.99 102.38"/><polygon class="cls-1" points="41.47 24.53 34.03 27.62 25.06 25.19 25.06 19.93 41.47 24.53"/><polygon class="cls-1" points="41.47 24.53 41.47 43.41 34.03 41.57 34.03 27.62 41.47 24.53"/><polygon class="cls-14" points="25.06 0.5 7.68 15.06 0.5 18.52 17.74 4.15 25.06 0.5"/><polygon class="cls-14" points="7.68 15.06 7.68 95.06 0.5 96.9 0.5 18.52 7.68 15.06"/><polygon class="cls-14" points="25.06 97.64 17.74 99.37 0.5 96.9 7.68 95.06 25.06 97.64"/><polygon class="cls-14" points="41.47 62.3 34.03 64.67 25.06 62.8 25.06 58.79 41.47 62.3"/><polygon class="cls-14" points="41.47 62.3 41.47 100.08 34.03 101.71 34.03 64.67 41.47 62.3"/><polygon class="cls-14" points="56.99 102.38 49.47 103.93 34.03 101.71 41.47 100.08 56.99 102.38"/><polygon class="cls-14" points="41.47 24.53 34.03 27.62 25.06 25.19 25.06 19.93 41.47 24.53"/><polygon class="cls-14" points="41.47 24.53 41.47 43.41 34.03 41.57 34.03 27.62 41.47 24.53"/><polygon class="cls-22" points="25.06 0.5 7.68 15.06 0.5 18.52 17.74 4.15 25.06 0.5"/><polygon class="cls-22" points="7.68 15.06 7.68 95.06 0.5 96.9 0.5 18.52 7.68 15.06"/><polygon class="cls-22" points="25.06 97.64 17.74 99.37 0.5 96.9 7.68 95.06 25.06 97.64"/><polygon class="cls-22" points="41.47 62.3 34.03 64.67 25.06 62.8 25.06 58.79 41.47 62.3"/><polygon class="cls-22" points="41.47 62.3 41.47 100.08 34.03 101.71 34.03 64.67 41.47 62.3"/><polygon class="cls-22" points="56.99 102.38 49.47 103.93 34.03 101.71 41.47 100.08 56.99 102.38"/><polygon class="cls-22" points="41.47 24.53 34.03 27.62 25.06 25.19 25.06 19.93 41.47 24.53"/><polygon class="cls-22" points="41.47 24.53 41.47 43.41 34.03 41.57 34.03 27.62 41.47 24.53"/><polygon class="cls-22" points="185.02 129.8 185.02 200.59 177.34 200.37 177.34 130.6 185.02 129.8"/><polygon class="cls-22" points="202.24 145.61 194.62 146.16 193.8 146.08 193.8 144.8 202.24 145.61"/><polygon class="cls-22" points="202.24 145.61 202.24 186.38 194.62 186.41 194.62 146.16 202.24 145.61"/><polygon class="cls-1" points="171.13 171.86 163.41 172.06 161.37 168.93 161.37 156.63 171.13 171.86"/><polygon class="cls-3" points="180.49 129.21 180.49 200.76 171.13 201.09 171.13 171.86 161.37 156.63 161.37 201.44 151.16 201.81 151.16 125.44 161.37 126.75 163.41 130.07 171.13 142.63 171.13 128.01 180.49 129.21"/><path class="cls-43" d="M158.35,133.88c0,1.66-.91,2.91-2,2.8s-2-1.58-2-3.26.92-2.92,2-2.79S158.35,132.22,158.35,133.88Z"/><path class="cls-44" d="M158.35,148.92c0,1.66-.91,2.94-2,2.86s-2-1.51-2-3.18.92-3,2-2.86S158.35,147.26,158.35,148.92Z"/><path class="cls-45" d="M158.35,164c0,1.66-.91,3-2,2.92s-2-1.44-2-3.11.92-3,2-2.93S158.35,162.3,158.35,164Z"/><path class="cls-46" d="M158.35,179c0,1.66-.91,3-2,3s-2-1.37-2-3.05.92-3,2-3S158.35,177.33,158.35,179Z"/><path class="cls-47" d="M158.35,194c0,1.66-.91,3-2,3.06s-2-1.3-2-3,.92-3,2-3.06S158.35,192.37,158.35,194Z"/><path class="cls-48" d="M168.25,149.71c0,1.62-.87,2.88-1.95,2.8s-2-1.47-2-3.11.88-2.9,2-2.8S168.25,148.08,168.25,149.71Z"/><path class="cls-49" d="M177.72,136.06c0,1.59-.83,2.79-1.86,2.68s-1.88-1.5-1.88-3.1.84-2.81,1.88-2.68S177.72,134.47,177.72,136.06Z"/><path class="cls-50" d="M177.72,150.46c0,1.59-.83,2.82-1.86,2.74s-1.88-1.43-1.88-3,.84-2.83,1.88-2.74S177.72,148.87,177.72,150.46Z"/><path class="cls-51" d="M177.72,164.86c0,1.59-.83,2.84-1.86,2.8s-1.88-1.37-1.88-3,.84-2.85,1.88-2.8S177.72,163.27,177.72,164.86Z"/><path class="cls-52" d="M177.72,179.26c0,1.59-.83,2.87-1.86,2.86s-1.88-1.31-1.88-2.91.84-2.89,1.88-2.87S177.72,177.67,177.72,179.26Z"/><path class="cls-53" d="M177.72,193.66c0,1.59-.83,2.9-1.86,2.92s-1.88-1.25-1.88-2.85.84-2.91,1.88-2.93S177.72,192.07,177.72,193.66Z"/><polygon class="cls-1" points="151.16 125.44 151.16 201.81 143.41 201.55 143.41 126.37 151.16 125.44"/><polygon class="cls-1" points="171.13 128.01 171.13 142.63 163.41 130.07 163.41 128.86 171.13 128.01"/><polygon class="cls-1" points="171.13 171.86 171.13 201.09 163.41 200.85 163.41 172.06 171.13 171.86"/><polygon class="cls-14" points="171.13 171.86 163.41 172.06 161.37 168.93 161.37 156.63 171.13 171.86"/><polygon class="cls-14" points="151.16 125.44 151.16 201.81 143.41 201.55 143.41 126.37 151.16 125.44"/><polygon class="cls-14" points="171.13 128.01 171.13 142.63 163.41 130.07 163.41 128.86 171.13 128.01"/><polygon class="cls-14" points="171.13 171.86 171.13 201.09 163.41 200.85 163.41 172.06 171.13 171.86"/><polygon class="cls-22" points="171.13 171.86 163.41 172.06 161.37 168.93 161.37 156.63 171.13 171.86"/><polygon class="cls-22" points="151.16 125.44 151.16 201.81 143.41 201.55 143.41 126.37 151.16 125.44"/><polygon class="cls-22" points="171.13 128.01 171.13 142.63 163.41 130.07 163.41 128.86 171.13 128.01"/><polygon class="cls-22" points="171.13 171.86 171.13 201.09 163.41 200.85 163.41 172.06 171.13 171.86"/><polygon class="cls-3" points="123.51 138.06 123.51 154.25 134.96 154.97 134.96 170.77 123.51 170.43 123.51 186.62 145.88 186.55 145.88 202 111.51 203.23 111.51 120.33 145.88 124.76 145.88 140.21 123.51 138.06"/><path class="cls-54" d="M120,129.57c0,1.8-1.07,3.15-2.39,3s-2.41-1.73-2.41-3.55,1.08-3.16,2.41-3S120,127.77,120,129.57Z"/><path class="cls-55" d="M131.58,130.88c0,1.75-1,3.07-2.27,2.94s-2.3-1.68-2.3-3.46,1-3.09,2.3-2.94S131.58,129.12,131.58,130.88Z"/><path class="cls-56" d="M142.66,132.12c0,1.72-1,3-2.17,2.88s-2.2-1.64-2.2-3.37,1-3,2.2-2.88S142.66,130.4,142.66,132.12Z"/><path class="cls-57" d="M120,145.87c0,1.8-1.07,3.19-2.39,3.09s-2.41-1.65-2.41-3.47,1.08-3.2,2.41-3.08S120,144.07,120,145.87Z"/><path class="cls-58" d="M120,162.18c0,1.8-1.07,3.21-2.39,3.16s-2.41-1.57-2.41-3.39,1.08-3.23,2.41-3.16S120,160.37,120,162.18Z"/><path class="cls-59" d="M120,178.48c0,1.8-1.07,3.25-2.39,3.24s-2.41-1.49-2.41-3.31,1.08-3.27,2.41-3.24S120,176.68,120,178.48Z"/><path class="cls-60" d="M120,194.78c0,1.8-1.07,3.29-2.39,3.32s-2.41-1.41-2.41-3.23,1.08-3.3,2.41-3.32S120,193,120,194.78Z"/><path class="cls-61" d="M131.58,194.55c0,1.76-1,3.21-2.27,3.25s-2.3-1.38-2.3-3.16,1-3.23,2.3-3.24S131.58,192.79,131.58,194.55Z"/><path class="cls-62" d="M142.66,194.34c0,1.72-1,3.13-2.17,3.17s-2.2-1.35-2.2-3.09,1-3.15,2.2-3.16S142.66,192.62,142.66,194.34Z"/><path class="cls-63" d="M131.58,162.71c0,1.76-1,3.15-2.28,3.1s-2.3-1.53-2.3-3.31,1-3.16,2.3-3.09S131.58,161,131.58,162.71Z"/><polygon class="cls-1" points="145.88 140.21 138.13 140.92 123.51 139.56 123.51 138.06 145.88 140.21"/><polygon class="cls-1" points="134.96 170.77 127.21 171.01 123.51 170.9 123.51 170.43 134.96 170.77"/><polygon class="cls-1" points="111.51 120.33 111.51 203.23 103.78 202.93 103.78 121.43 111.51 120.33"/><polygon class="cls-14" points="145.88 140.21 138.13 140.92 123.51 139.56 123.51 138.06 145.88 140.21"/><polygon class="cls-14" points="134.96 170.77 127.21 171.01 123.51 170.9 123.51 170.43 134.96 170.77"/><polygon class="cls-14" points="111.51 120.33 111.51 203.23 103.78 202.93 103.78 121.43 111.51 120.33"/><polygon class="cls-22" points="145.88 140.21 138.13 140.92 123.51 139.56 123.51 138.06 145.88 140.21"/><polygon class="cls-22" points="134.96 170.77 127.21 171.01 123.51 170.9 123.51 170.43 134.96 170.77"/><polygon class="cls-22" points="111.51 120.33 111.51 203.23 103.78 202.93 103.78 121.43 111.51 120.33"/><path class="cls-3" d="M105.29,136.31,92.36,117.86l-27.91-3.59v90.65l14.32-.51V169.09l13.59.41v34.42l12.93-.47V169.88l-6.38-8.69,6.38-8.09Zm-12.93,16-13.59-.86V133.77l13.59,1.3Z"/><path class="cls-64" d="M74.55,195.66c0,2-1.27,3.59-2.85,3.63s-2.88-1.53-2.88-3.52,1.29-3.61,2.88-3.63S74.55,193.69,74.55,195.66Z"/><path class="cls-65" d="M74.55,177.86c0,2-1.27,3.55-2.85,3.54s-2.88-1.63-2.88-3.62,1.29-3.57,2.88-3.53S74.55,175.9,74.55,177.86Z"/><path class="cls-66" d="M74.55,160.06c0,2-1.27,3.51-2.85,3.45s-2.88-1.72-2.88-3.71,1.29-3.53,2.88-3.45S74.55,158.1,74.55,160.06Z"/><path class="cls-67" d="M74.55,142.27c0,2-1.27,3.46-2.85,3.35s-2.88-1.82-2.88-3.81,1.29-3.49,2.88-3.35S74.55,140.3,74.55,142.27Z"/><path class="cls-68" d="M74.55,124.47c0,2-1.27,3.42-2.85,3.26s-2.88-1.92-2.88-3.9,1.29-3.45,2.88-3.26S74.55,122.5,74.55,124.47Z"/><path class="cls-69" d="M88.36,126c0,1.92-1.21,3.34-2.71,3.18s-2.73-1.85-2.73-3.79,1.23-3.36,2.73-3.18S88.36,124.1,88.36,126Z"/><path class="cls-70" d="M101.47,144.4c0,1.87-1.14,3.3-2.57,3.2s-2.59-1.72-2.59-3.61,1.16-3.31,2.59-3.19S101.47,142.54,101.47,144.4Z"/><path class="cls-71" d="M88.36,160.71c0,1.91-1.21,3.42-2.71,3.36s-2.73-1.68-2.73-3.62,1.23-3.44,2.73-3.36S88.36,158.79,88.36,160.71Z"/><path class="cls-72" d="M101.47,178.23c0,1.86-1.14,3.37-2.57,3.36s-2.59-1.55-2.59-3.43,1.16-3.4,2.59-3.37S101.47,176.36,101.47,178.23Z"/><path class="cls-73" d="M101.47,195.14c0,1.87-1.14,3.41-2.57,3.45s-2.59-1.47-2.59-3.35,1.16-3.43,2.59-3.45S101.47,193.27,101.47,195.14Z"/><polygon class="cls-1" points="92.36 135.07 84.68 135.95 78.77 135.4 78.77 133.77 92.36 135.07"/><polygon class="cls-1" points="92.36 135.07 92.36 152.29 84.68 151.8 84.68 135.95 92.36 135.07"/><polygon class="cls-1" points="92.36 169.5 92.36 203.92 84.68 203.59 84.68 169.77 92.36 169.5"/><polygon class="cls-1" points="92.36 169.5 84.68 169.77 78.77 169.6 78.77 169.09 92.36 169.5"/><polygon class="cls-1" points="64.45 114.27 64.45 204.92 56.88 204.55 56.88 115.58 64.45 114.27"/><polygon class="cls-14" points="92.36 135.07 84.68 135.95 78.77 135.4 78.77 133.77 92.36 135.07"/><polygon class="cls-14" points="92.36 135.07 92.36 152.29 84.68 151.8 84.68 135.95 92.36 135.07"/><polygon class="cls-14" points="92.36 169.5 92.36 203.92 84.68 203.59 84.68 169.77 92.36 169.5"/><polygon class="cls-14" points="92.36 169.5 84.68 169.77 78.77 169.6 78.77 169.09 92.36 169.5"/><polygon class="cls-14" points="64.45 114.27 64.45 204.92 56.88 204.55 56.88 115.58 64.45 114.27"/><polygon class="cls-22" points="92.36 135.07 84.68 135.95 78.77 135.4 78.77 133.77 92.36 135.07"/><polygon class="cls-22" points="92.36 135.07 92.36 152.29 84.68 151.8 84.68 135.95 92.36 135.07"/><polygon class="cls-22" points="92.36 169.5 92.36 203.92 84.68 203.59 84.68 169.77 92.36 169.5"/><polygon class="cls-22" points="92.36 169.5 84.68 169.77 78.77 169.6 78.77 169.09 92.36 169.5"/><polygon class="cls-22" points="64.45 114.27 64.45 204.92 56.88 204.55 56.88 115.58 64.45 114.27"/><polygon class="cls-1" points="7.68 106.96 7.68 206.96 0.5 206.51 0.5 108.55 7.68 106.96"/><polygon class="cls-1" points="41.47 130.2 34.04 131.25 25.06 130.42 25.06 128.62 41.47 130.2"/><polygon class="cls-1" points="41.47 130.2 41.47 149.08 34.04 148.61 34.04 131.25 41.47 130.2"/><polygon class="cls-1" points="41.47 167.97 41.47 186.86 34.04 186.88 34.04 168.3 41.47 167.97"/><polygon class="cls-1" points="41.47 167.97 34.04 168.3 25.06 168.04 25.06 167.48 41.47 167.97"/><path class="cls-3" d="M57,131.68,41.47,111.31,7.68,107V207l33.79-1.22L57,186.81V168.44l-7.66-9.55L57,150.06ZM41.47,186.86l-16.41,0V167.48l16.41.49Zm0-37.78-16.41-1V128.62l16.41,1.58Z"/><path class="cls-74" d="M20,196.72a3.83,3.83,0,0,1-3.45,4,3.65,3.65,0,0,1-3.5-3.88,3.82,3.82,0,0,1,3.5-4A3.66,3.66,0,0,1,20,196.72Z"/><path class="cls-75" d="M20,177.12A3.68,3.68,0,0,1,16.5,181a3.79,3.79,0,0,1-3.5-4,3.66,3.66,0,0,1,3.5-3.89A3.78,3.78,0,0,1,20,177.12Z"/><path class="cls-76" d="M20,157.53a3.53,3.53,0,0,1-3.45,3.78,4,4,0,0,1-3.5-4.1,3.52,3.52,0,0,1,3.5-3.78A3.94,3.94,0,0,1,20,157.53Z"/><path class="cls-77" d="M20,137.93a3.4,3.4,0,0,1-3.45,3.67,4.1,4.1,0,0,1-3.5-4.22,3.39,3.39,0,0,1,3.5-3.66A4.11,4.11,0,0,1,20,137.93Z"/><path class="cls-78" d="M20,118.34c0,2.16-1.54,3.75-3.45,3.55a4.27,4.27,0,0,1-3.5-4.33c0-2.19,1.57-3.78,3.5-3.55A4.27,4.27,0,0,1,20,118.34Z"/><path class="cls-79" d="M36.65,120.21c0,2.11-1.46,3.66-3.27,3.47a4.12,4.12,0,0,1-3.3-4.21c0-2.12,1.48-3.67,3.3-3.46A4.13,4.13,0,0,1,36.65,120.21Z"/><path class="cls-80" d="M52.43,140.51c0,2.05-1.38,3.61-3.09,3.48s-3.12-1.9-3.12-4,1.4-3.63,3.12-3.48A3.81,3.81,0,0,1,52.43,140.51Z"/><path class="cls-81" d="M36.65,158.3A3.4,3.4,0,0,1,33.38,162a3.78,3.78,0,0,1-3.3-4c0-2.13,1.48-3.77,3.3-3.68A3.81,3.81,0,0,1,36.65,158.3Z"/><path class="cls-82" d="M52.43,177.56c0,2.05-1.38,3.7-3.09,3.69s-3.12-1.7-3.12-3.77,1.4-3.72,3.12-3.68S52.43,175.52,52.43,177.56Z"/><path class="cls-83" d="M36.65,196.4a3.68,3.68,0,0,1-3.27,3.89,3.5,3.5,0,0,1-3.3-3.77,3.66,3.66,0,0,1,3.3-3.89A3.51,3.51,0,0,1,36.65,196.4Z"/><polygon class="cls-14" points="7.68 106.96 7.68 206.96 0.5 206.51 0.5 108.55 7.68 106.96"/><polygon class="cls-14" points="41.47 130.2 34.04 131.25 25.06 130.42 25.06 128.62 41.47 130.2"/><polygon class="cls-14" points="41.47 130.2 41.47 149.08 34.04 148.61 34.04 131.25 41.47 130.2"/><polygon class="cls-14" points="41.47 167.97 41.47 186.86 34.04 186.88 34.04 168.3 41.47 167.97"/><polygon class="cls-14" points="41.47 167.97 34.04 168.3 25.06 168.04 25.06 167.48 41.47 167.97"/><polygon class="cls-22" points="7.68 106.96 7.68 206.96 0.5 206.51 0.5 108.55 7.68 106.96"/><polygon class="cls-22" points="41.47 130.2 34.04 131.25 25.06 130.42 25.06 128.62 41.47 130.2"/><polygon class="cls-22" points="41.47 130.2 41.47 149.08 34.04 148.61 34.04 131.25 41.47 130.2"/><polygon class="cls-22" points="41.47 167.97 41.47 186.86 34.04 186.88 34.04 168.3 41.47 167.97"/><polygon class="cls-22" points="41.47 167.97 34.04 168.3 25.06 168.04 25.06 167.48 41.47 167.97"/></g></g></svg>