<svg xmlns="http://www.w3.org/2000/svg" xmlns:xlink="http://www.w3.org/1999/xlink" viewBox="0 0 209.84 206.46"><defs><style>.cls-1{fill:#ff0;}.cls-2{fill:url(#radial-gradient);}.cls-3{fill:url(#radial-gradient-2);}.cls-4{fill:url(#radial-gradient-3);}.cls-5{fill:url(#radial-gradient-4);}.cls-6{fill:url(#radial-gradient-5);}.cls-7{fill:url(#radial-gradient-6);}.cls-8{fill:url(#radial-gradient-7);}.cls-9{fill:#b0b900;}.cls-10{fill:url(#radial-gradient-8);}.cls-11{fill:url(#radial-gradient-9);}.cls-12{fill:url(#radial-gradient-10);}.cls-13{fill:url(#radial-gradient-11);}.cls-14{fill:url(#radial-gradient-12);}.cls-15{fill:url(#radial-gradient-13);}.cls-16{fill:url(#radial-gradient-14);}.cls-17{fill:url(#radial-gradient-15);}.cls-18{fill:url(#radial-gradient-16);}.cls-19{fill:url(#radial-gradient-17);}.cls-20{fill:url(#radial-gradient-18);}.cls-21{fill:url(#radial-gradient-19);}.cls-22{fill:url(#radial-gradient-20);}.cls-23{fill:url(#radial-gradient-21);}.cls-24{fill:url(#radial-gradient-22);}.cls-25{fill:url(#radial-gradient-23);}.cls-26{fill:url(#radial-gradient-24);}.cls-27{fill:url(#radial-gradient-25);}.cls-28{fill:url(#radial-gradient-26);}.cls-29{fill:url(#radial-gradient-27);}.cls-30{fill:url(#radial-gradient-28);}.cls-31{fill:url(#radial-gradient-29);}.cls-32{fill:url(#radial-gradient-30);}.cls-33{fill:url(#radial-gradient-31);}.cls-34{fill:url(#radial-gradient-32);}.cls-35{fill:url(#radial-gradient-33);}.cls-36{fill:url(#radial-gradient-34);}.cls-37{fill:url(#radial-gradient-35);}.cls-38{fill:url(#radial-gradient-36);}.cls-39{fill:url(#radial-gradient-37);}.cls-40{fill:url(#radial-gradient-38);}.cls-41{fill:url(#radial-gradient-39);}.cls-42{fill:url(#radial-gradient-40);}.cls-43{fill:url(#radial-gradient-41);}.cls-44{fill:url(#radial-gradient-42);}.cls-45{fill:url(#radial-gradient-43);}.cls-46{fill:url(#radial-gradient-44);}.cls-47{fill:url(#radial-gradient-45);}.cls-48{fill:url(#radial-gradient-46);}.cls-49{fill:url(#radial-gradient-47);}.cls-50{fill:url(#radial-gradient-48);}.cls-51{fill:url(#radial-gradient-49);}.cls-52{fill:url(#radial-gradient-50);}.cls-53{fill:url(#radial-gradient-51);}.cls-54{fill:url(#radial-gradient-52);}.cls-55{fill:url(#radial-gradient-53);}.cls-56{fill:url(#radial-gradient-54);}.cls-57{fill:url(#radial-gradient-55);}.cls-58{fill:url(#radial-gradient-56);}.cls-59{fill:url(#radial-gradient-57);}.cls-60{fill:url(#radial-gradient-58);}.cls-61{fill:url(#radial-gradient-59);}.cls-62{fill:url(#radial-gradient-60);}.cls-63{fill:url(#radial-gradient-61);}.cls-64{fill:url(#radial-gradient-62);}.cls-65{fill:url(#radial-gradient-63);}.cls-66{fill:url(#radial-gradient-64);}.cls-67{fill:url(#radial-gradient-65);}.cls-68{fill:url(#radial-gradient-66);}.cls-69{fill:url(#radial-gradient-67);}.cls-70{fill:url(#radial-gradient-68);}.cls-71{fill:url(#radial-gradient-69);}.cls-72{fill:url(#radial-gradient-70);}.cls-73{fill:url(#radial-gradient-71);}.cls-74{fill:url(#radial-gradient-72);}.cls-75{fill:url(#radial-gradient-73);}.cls-76{fill:url(#radial-gradient-74);}.cls-77{fill:url(#radial-gradient-75);}.cls-78{fill:url(#radial-gradient-76);}.cls-79{fill:url(#radial-gradient-77);}.cls-80{fill:url(#radial-gradient-78);}</style><radialGradient id="radial-gradient" cx="117.07" cy="37.16" r="2.92" gradientUnits="userSpaceOnUse"><stop offset="0" stop-color="#fff"/><stop offset="0.21" stop-color="#fffffc"/><stop offset="0.35" stop-color="#fffff4"/><stop offset="0.46" stop-color="#ffffe5"/><stop offset="0.56" stop-color="#ffffd0"/><stop offset="0.66" stop-color="#ffffb5"/><stop offset="0.75" stop-color="#ffff94"/><stop offset="0.83" stop-color="#ffff6c"/><stop offset="0.91" stop-color="#ffff3e"/><stop offset="0.98" stop-color="#ffff0c"/><stop offset="1" stop-color="#ff0"/></radialGradient><radialGradient id="radial-gradient-2" cx="128.79" cy="40.63" r="2.82" xlink:href="#radial-gradient"/><radialGradient id="radial-gradient-3" cx="139.97" cy="43.95" r="2.74" xlink:href="#radial-gradient"/><radialGradient id="radial-gradient-4" cx="128.79" cy="56.63" r="2.81" xlink:href="#radial-gradient"/><radialGradient id="radial-gradient-5" cx="128.79" cy="72.62" r="2.81" xlink:href="#radial-gradient"/><radialGradient id="radial-gradient-6" cx="128.79" cy="88.62" r="2.8" xlink:href="#radial-gradient"/><radialGradient id="radial-gradient-7" cx="128.79" cy="104.61" r="2.79" xlink:href="#radial-gradient"/><radialGradient id="radial-gradient-8" cx="188.95" cy="136.88" r="2.34" xlink:href="#radial-gradient"/><radialGradient id="radial-gradient-9" cx="197.56" cy="137.84" r="2.28" xlink:href="#radial-gradient"/><radialGradient id="radial-gradient-10" cx="188.95" cy="150.89" r="2.34" xlink:href="#radial-gradient"/><radialGradient id="radial-gradient-11" cx="188.95" cy="164.9" r="2.34" xlink:href="#radial-gradient"/><radialGradient id="radial-gradient-12" cx="188.95" cy="178.92" r="2.34" xlink:href="#radial-gradient"/><radialGradient id="radial-gradient-13" cx="188.95" cy="192.93" r="2.34" xlink:href="#radial-gradient"/><radialGradient id="radial-gradient-14" cx="197.56" cy="192.76" r="2.28" xlink:href="#radial-gradient"/><radialGradient id="radial-gradient-15" cx="205.82" cy="179.14" r="2.22" xlink:href="#radial-gradient"/><radialGradient id="radial-gradient-16" cx="205.82" cy="165.69" r="2.22" xlink:href="#radial-gradient"/><radialGradient id="radial-gradient-17" cx="205.82" cy="152.23" r="2.22" xlink:href="#radial-gradient"/><radialGradient id="radial-gradient-18" cx="155.81" cy="133.15" r="2.58" xlink:href="#radial-gradient"/><radialGradient id="radial-gradient-19" cx="155.81" cy="148.26" r="2.58" xlink:href="#radial-gradient"/><radialGradient id="radial-gradient-20" cx="155.81" cy="163.36" r="2.58" xlink:href="#radial-gradient"/><radialGradient id="radial-gradient-21" cx="155.81" cy="178.47" r="2.58" xlink:href="#radial-gradient"/><radialGradient id="radial-gradient-22" cx="155.81" cy="193.57" r="2.58" xlink:href="#radial-gradient"/><radialGradient id="radial-gradient-23" cx="165.79" cy="149.05" r="2.51" xlink:href="#radial-gradient"/><radialGradient id="radial-gradient-24" cx="175.35" cy="135.35" r="2.44" xlink:href="#radial-gradient"/><radialGradient id="radial-gradient-25" cx="175.35" cy="149.81" r="2.44" xlink:href="#radial-gradient"/><radialGradient id="radial-gradient-26" cx="175.35" cy="164.27" r="2.44" xlink:href="#radial-gradient"/><radialGradient id="radial-gradient-27" cx="175.35" cy="178.73" r="2.43" xlink:href="#radial-gradient"/><radialGradient id="radial-gradient-28" cx="175.35" cy="193.19" r="2.43" xlink:href="#radial-gradient"/><radialGradient id="radial-gradient-29" cx="117.08" cy="128.8" r="2.88" xlink:href="#radial-gradient"/><radialGradient id="radial-gradient-30" cx="128.8" cy="130.12" r="2.79" xlink:href="#radial-gradient"/><radialGradient id="radial-gradient-31" cx="139.98" cy="131.37" r="2.7" xlink:href="#radial-gradient"/><radialGradient id="radial-gradient-32" cx="117.08" cy="145.18" r="2.88" xlink:href="#radial-gradient"/><radialGradient id="radial-gradient-33" cx="117.08" cy="161.56" r="2.87" xlink:href="#radial-gradient"/><radialGradient id="radial-gradient-34" cx="117.08" cy="177.94" r="2.87" xlink:href="#radial-gradient"/><radialGradient id="radial-gradient-35" cx="117.08" cy="194.33" r="2.87" xlink:href="#radial-gradient"/><radialGradient id="radial-gradient-36" cx="128.8" cy="194.1" r="2.78" xlink:href="#radial-gradient"/><radialGradient id="radial-gradient-37" cx="139.98" cy="193.88" r="2.7" xlink:href="#radial-gradient"/><radialGradient id="radial-gradient-38" cx="128.79" cy="162.11" r="2.78" xlink:href="#radial-gradient"/><radialGradient id="radial-gradient-39" cx="71.18" cy="195.22" r="3.24" xlink:href="#radial-gradient"/><radialGradient id="radial-gradient-40" cx="71.18" cy="177.32" r="3.24" xlink:href="#radial-gradient"/><radialGradient id="radial-gradient-41" cx="71.18" cy="159.43" r="3.24" xlink:href="#radial-gradient"/><radialGradient id="radial-gradient-42" cx="71.18" cy="141.54" r="3.24" xlink:href="#radial-gradient"/><radialGradient id="radial-gradient-43" cx="71.18" cy="123.65" r="3.25" xlink:href="#radial-gradient"/><radialGradient id="radial-gradient-44" cx="85.14" cy="125.21" r="3.13" xlink:href="#radial-gradient"/><radialGradient id="radial-gradient-45" cx="98.39" cy="143.7" r="3.02" xlink:href="#radial-gradient"/><radialGradient id="radial-gradient-46" cx="85.14" cy="160.08" r="3.13" xlink:href="#radial-gradient"/><radialGradient id="radial-gradient-47" cx="98.39" cy="177.69" r="3.02" xlink:href="#radial-gradient"/><radialGradient id="radial-gradient-48" cx="98.39" cy="194.69" r="3.02" xlink:href="#radial-gradient"/><radialGradient id="radial-gradient-49" cx="15.98" cy="196.29" r="3.72" xlink:href="#radial-gradient"/><radialGradient id="radial-gradient-50" cx="15.98" cy="176.58" r="3.72" xlink:href="#radial-gradient"/><radialGradient id="radial-gradient-51" cx="15.98" cy="156.87" r="3.72" xlink:href="#radial-gradient"/><radialGradient id="radial-gradient-52" cx="15.98" cy="137.16" r="3.72" xlink:href="#radial-gradient"/><radialGradient id="radial-gradient-53" cx="15.98" cy="117.45" r="3.73" xlink:href="#radial-gradient"/><radialGradient id="radial-gradient-54" cx="32.86" cy="119.34" r="3.58" xlink:href="#radial-gradient"/><radialGradient id="radial-gradient-55" cx="48.82" cy="139.76" r="3.43" xlink:href="#radial-gradient"/><radialGradient id="radial-gradient-56" cx="32.86" cy="157.65" r="3.57" xlink:href="#radial-gradient"/><radialGradient id="radial-gradient-57" cx="48.82" cy="177.02" r="3.43" xlink:href="#radial-gradient"/><radialGradient id="radial-gradient-58" cx="32.86" cy="195.96" r="3.57" xlink:href="#radial-gradient"/><radialGradient id="radial-gradient-59" cx="71.18" cy="95.11" r="3.26" xlink:href="#radial-gradient"/><radialGradient id="radial-gradient-60" cx="71.18" cy="77.22" r="3.27" xlink:href="#radial-gradient"/><radialGradient id="radial-gradient-61" cx="71.18" cy="59.33" r="3.27" xlink:href="#radial-gradient"/><radialGradient id="radial-gradient-62" cx="71.18" cy="41.44" r="3.28" xlink:href="#radial-gradient"/><radialGradient id="radial-gradient-63" cx="71.18" cy="23.55" r="3.3" xlink:href="#radial-gradient"/><radialGradient id="radial-gradient-64" cx="85.13" cy="27.68" r="3.18" xlink:href="#radial-gradient"/><radialGradient id="radial-gradient-65" cx="98.39" cy="48.61" r="3.06" xlink:href="#radial-gradient"/><radialGradient id="radial-gradient-66" cx="85.13" cy="62.55" r="3.16" xlink:href="#radial-gradient"/><radialGradient id="radial-gradient-67" cx="98.39" cy="82.6" r="3.04" xlink:href="#radial-gradient"/><radialGradient id="radial-gradient-68" cx="98.39" cy="99.6" r="3.03" xlink:href="#radial-gradient"/><radialGradient id="radial-gradient-69" cx="15.98" cy="86.01" r="3.74" xlink:href="#radial-gradient"/><radialGradient id="radial-gradient-70" cx="15.98" cy="66.3" r="3.75" xlink:href="#radial-gradient"/><radialGradient id="radial-gradient-71" cx="15.98" cy="46.59" r="3.76" xlink:href="#radial-gradient"/><radialGradient id="radial-gradient-72" cx="15.98" cy="26.88" r="3.77" xlink:href="#radial-gradient"/><radialGradient id="radial-gradient-73" cx="32.86" cy="12.18" r="3.63" xlink:href="#radial-gradient"/><radialGradient id="radial-gradient-74" cx="48.82" cy="35.54" r="3.48" xlink:href="#radial-gradient"/><radialGradient id="radial-gradient-75" cx="48.82" cy="54.17" r="3.47" xlink:href="#radial-gradient"/><radialGradient id="radial-gradient-76" cx="32.86" cy="50.49" r="3.61" xlink:href="#radial-gradient"/><radialGradient id="radial-gradient-77" cx="48.82" cy="72.8" r="3.46" xlink:href="#radial-gradient"/><radialGradient id="radial-gradient-78" cx="48.82" cy="91.43" r="3.45" xlink:href="#radial-gradient"/></defs><title>LettersImg_1</title><g id="Layer_2" data-name="Layer 2"><g id="Layer_1-2" data-name="Layer 1"><polygon class="cls-1" points="145.38 37.83 145.38 53.27 134.46 50.22 134.46 113.45 123.01 111.75 123.01 47.01 111.01 43.65 111.01 27.07 145.38 37.83"/><path class="cls-2" d="M119.47,37.87c0,1.8-1.07,3-2.39,2.57s-2.41-2.18-2.41-4,1.08-3,2.41-2.56S119.47,36.07,119.47,37.87Z"/><path class="cls-3" d="M131.08,41.31c0,1.76-1,2.89-2.28,2.52s-2.3-2.1-2.3-3.88,1-2.9,2.3-2.51S131.08,39.55,131.08,41.31Z"/><path class="cls-4" d="M142.15,44.6c0,1.71-1,2.82-2.17,2.48s-2.2-2-2.2-3.78,1-2.84,2.2-2.47S142.15,42.88,142.15,44.6Z"/><path class="cls-5" d="M131.08,57.23c0,1.76-1,2.92-2.28,2.6s-2.3-2-2.3-3.81,1-2.93,2.3-2.59S131.08,55.47,131.08,57.23Z"/><path class="cls-6" d="M131.08,73.15c0,1.76-1,3-2.28,2.67s-2.3-1.95-2.3-3.73,1-3,2.3-2.67S131.08,71.39,131.08,73.15Z"/><path class="cls-7" d="M131.08,89.07c0,1.76-1,3-2.28,2.75s-2.3-1.88-2.3-3.66,1-3,2.3-2.74S131.08,87.31,131.08,89.07Z"/><path class="cls-8" d="M131.08,105c0,1.76-1,3-2.28,2.82s-2.3-1.8-2.3-3.58,1-3,2.3-2.82S131.08,103.23,131.08,105Z"/><polygon class="cls-9" points="184.52 129.3 184.52 200.09 176.84 199.87 176.84 130.1 184.52 129.3"/><polygon class="cls-9" points="201.74 145.11 194.12 145.66 193.3 145.58 193.3 144.3 201.74 145.11"/><polygon class="cls-9" points="201.74 145.11 201.74 185.88 194.12 185.91 194.12 145.66 201.74 145.11"/><path class="cls-1" d="M201.74,131.52l-17.22-2.22v70.79l17.22-.61,8.1-13.62v-40Zm0,54.36-8.44,0V144.3l8.44.81Z"/><path class="cls-1" d="M201.74,131.52l-17.22-2.22v70.79l17.22-.61,8.1-13.62v-40Zm0,54.36-8.44,0V144.3l8.44.81Z"/><path class="cls-10" d="M190.71,137.07c0,1.54-.79,2.71-1.75,2.61s-1.77-1.45-1.77-3S188,134,189,134.07,190.71,135.53,190.71,137.07Z"/><path class="cls-11" d="M199.24,138c0,1.51-.75,2.66-1.68,2.56s-1.69-1.41-1.69-2.94.76-2.66,1.69-2.55S199.24,136.52,199.24,138Z"/><path class="cls-12" d="M190.71,151c0,1.54-.79,2.73-1.75,2.66s-1.77-1.39-1.77-2.94S188,148,189,148.09,190.71,149.49,190.71,151Z"/><path class="cls-13" d="M190.71,165c0,1.55-.79,2.76-1.75,2.73s-1.77-1.33-1.77-2.89.79-2.77,1.77-2.72S190.71,163.44,190.71,165Z"/><path class="cls-14" d="M190.71,178.94c0,1.54-.79,2.79-1.75,2.78s-1.77-1.27-1.77-2.83.79-2.8,1.77-2.78S190.71,177.4,190.71,178.94Z"/><path class="cls-15" d="M190.71,192.9c0,1.54-.79,2.81-1.75,2.83s-1.77-1.21-1.77-2.77.79-2.82,1.77-2.83S190.71,191.35,190.71,192.9Z"/><path class="cls-16" d="M199.24,192.73c0,1.51-.75,2.75-1.68,2.78s-1.69-1.19-1.69-2.71.76-2.77,1.69-2.78S199.24,191.22,199.24,192.73Z"/><path class="cls-17" d="M207.44,179.17c0,1.48-.72,2.67-1.61,2.67s-1.63-1.23-1.63-2.72.73-2.68,1.63-2.67S207.44,177.69,207.44,179.17Z"/><path class="cls-18" d="M207.44,165.76c0,1.48-.72,2.65-1.61,2.62s-1.63-1.28-1.63-2.77.73-2.66,1.63-2.61S207.44,164.28,207.44,165.76Z"/><path class="cls-19" d="M207.44,152.36c0,1.48-.72,2.62-1.61,2.56s-1.63-1.33-1.63-2.82.73-2.64,1.63-2.56S207.44,150.88,207.44,152.36Z"/><polygon class="cls-9" points="170.63 171.36 162.91 171.56 160.87 168.43 160.87 156.13 170.63 171.36"/><polygon class="cls-1" points="179.99 128.71 179.99 200.26 170.63 200.59 170.63 171.36 160.87 156.13 160.87 200.94 150.66 201.31 150.66 124.94 160.87 126.25 162.91 129.57 170.63 142.13 170.63 127.51 179.99 128.71"/><path class="cls-20" d="M157.85,133.38c0,1.66-.91,2.91-2,2.8s-2-1.58-2-3.26.92-2.92,2-2.79S157.85,131.72,157.85,133.38Z"/><path class="cls-21" d="M157.85,148.42c0,1.66-.91,2.94-2,2.86s-2-1.51-2-3.18.92-3,2-2.86S157.85,146.76,157.85,148.42Z"/><path class="cls-22" d="M157.85,163.46c0,1.66-.91,3-2,2.92s-2-1.44-2-3.11.92-3,2-2.93S157.85,161.8,157.85,163.46Z"/><path class="cls-23" d="M157.85,178.5c0,1.66-.91,3-2,3s-2-1.37-2-3.05.92-3,2-3S157.85,176.83,157.85,178.5Z"/><path class="cls-24" d="M157.85,193.53c0,1.66-.91,3-2,3.06s-2-1.3-2-3,.92-3,2-3.06S157.85,191.87,157.85,193.53Z"/><path class="cls-25" d="M167.75,149.21c0,1.62-.87,2.88-1.95,2.8s-2-1.47-2-3.11.88-2.9,2-2.8S167.75,147.58,167.75,149.21Z"/><path class="cls-26" d="M177.22,135.56c0,1.59-.83,2.79-1.86,2.68s-1.88-1.5-1.88-3.1.84-2.81,1.88-2.68S177.22,134,177.22,135.56Z"/><path class="cls-27" d="M177.22,150c0,1.59-.83,2.82-1.86,2.74s-1.88-1.43-1.88-3,.84-2.83,1.88-2.74S177.22,148.37,177.22,150Z"/><path class="cls-28" d="M177.22,164.36c0,1.59-.83,2.84-1.86,2.8s-1.88-1.37-1.88-3,.84-2.85,1.88-2.8S177.22,162.77,177.22,164.36Z"/><path class="cls-29" d="M177.22,178.76c0,1.59-.83,2.87-1.86,2.86s-1.88-1.31-1.88-2.91.84-2.89,1.88-2.87S177.22,177.17,177.22,178.76Z"/><path class="cls-30" d="M177.22,193.16c0,1.59-.83,2.9-1.86,2.92s-1.88-1.25-1.88-2.85.84-2.91,1.88-2.93S177.22,191.57,177.22,193.16Z"/><polygon class="cls-9" points="150.66 124.94 150.66 201.31 142.91 201.05 142.91 125.87 150.66 124.94"/><polygon class="cls-9" points="170.63 127.51 170.63 142.13 162.91 129.57 162.91 128.36 170.63 127.51"/><polygon class="cls-9" points="170.63 171.36 170.63 200.59 162.91 200.35 162.91 171.56 170.63 171.36"/><polygon class="cls-1" points="123.01 137.56 123.01 153.75 134.46 154.47 134.46 170.27 123.01 169.93 123.01 186.12 145.38 186.05 145.38 201.5 111.01 202.73 111.01 119.83 145.38 124.26 145.38 139.71 123.01 137.56"/><path class="cls-31" d="M119.48,129.07c0,1.8-1.07,3.15-2.39,3s-2.41-1.73-2.41-3.55,1.08-3.16,2.41-3S119.48,127.27,119.48,129.07Z"/><path class="cls-32" d="M131.08,130.38c0,1.75-1,3.07-2.27,2.94s-2.3-1.68-2.3-3.46,1-3.09,2.3-2.94S131.08,128.62,131.08,130.38Z"/><path class="cls-33" d="M142.16,131.62c0,1.72-1,3-2.17,2.88s-2.2-1.64-2.2-3.37,1-3,2.2-2.88S142.16,129.9,142.16,131.62Z"/><path class="cls-34" d="M119.48,145.37c0,1.8-1.07,3.19-2.39,3.09s-2.41-1.65-2.41-3.47,1.08-3.2,2.41-3.08S119.48,143.57,119.48,145.37Z"/><path class="cls-35" d="M119.48,161.68c0,1.8-1.07,3.21-2.39,3.16s-2.41-1.57-2.41-3.39,1.08-3.23,2.41-3.16S119.48,159.87,119.48,161.68Z"/><path class="cls-36" d="M119.48,178c0,1.8-1.07,3.25-2.39,3.24s-2.41-1.49-2.41-3.31,1.08-3.27,2.41-3.24S119.48,176.18,119.48,178Z"/><path class="cls-37" d="M119.48,194.28c0,1.8-1.07,3.29-2.39,3.32s-2.41-1.41-2.41-3.23,1.08-3.3,2.41-3.32S119.48,192.48,119.48,194.28Z"/><path class="cls-38" d="M131.08,194.05c0,1.76-1,3.21-2.27,3.25s-2.3-1.38-2.3-3.16,1-3.23,2.3-3.24S131.08,192.29,131.08,194.05Z"/><path class="cls-39" d="M142.16,193.84c0,1.72-1,3.13-2.17,3.17s-2.2-1.35-2.2-3.09,1-3.15,2.2-3.16S142.16,192.12,142.16,193.84Z"/><path class="cls-40" d="M131.08,162.21c0,1.76-1,3.15-2.28,3.1s-2.3-1.53-2.3-3.31,1-3.16,2.3-3.09S131.08,160.45,131.08,162.21Z"/><polygon class="cls-9" points="145.38 139.71 137.63 140.42 123.01 139.06 123.01 137.56 145.38 139.71"/><polygon class="cls-9" points="134.46 170.27 126.71 170.51 123.01 170.4 123.01 169.93 134.46 170.27"/><polygon class="cls-9" points="111.01 119.83 111.01 202.73 103.28 202.43 103.28 120.93 111.01 119.83"/><path class="cls-1" d="M104.79,135.81,91.86,117.36,64,113.77v90.65l14.32-.51V168.59l13.59.41v34.42l12.93-.47V169.38l-6.38-8.69,6.38-8.09Zm-12.93,16-13.59-.86V133.27l13.59,1.3Z"/><path class="cls-41" d="M74.05,195.16c0,2-1.27,3.59-2.85,3.63s-2.88-1.53-2.88-3.52,1.29-3.61,2.88-3.63S74.05,193.19,74.05,195.16Z"/><path class="cls-42" d="M74.05,177.36c0,2-1.27,3.55-2.85,3.54s-2.88-1.63-2.88-3.62,1.29-3.57,2.88-3.53S74.05,175.4,74.05,177.36Z"/><path class="cls-43" d="M74.05,159.56c0,2-1.27,3.51-2.85,3.45s-2.88-1.72-2.88-3.71,1.29-3.53,2.88-3.45S74.05,157.6,74.05,159.56Z"/><path class="cls-44" d="M74.05,141.77c0,2-1.27,3.46-2.85,3.35s-2.88-1.82-2.88-3.81,1.29-3.49,2.88-3.35S74.05,139.8,74.05,141.77Z"/><path class="cls-45" d="M74.05,124c0,2-1.27,3.42-2.85,3.26s-2.88-1.92-2.88-3.9,1.29-3.45,2.88-3.26S74.05,122,74.05,124Z"/><path class="cls-46" d="M87.86,125.52c0,1.92-1.21,3.34-2.71,3.18s-2.73-1.85-2.73-3.79,1.23-3.36,2.73-3.18S87.86,123.6,87.86,125.52Z"/><path class="cls-47" d="M101,143.9c0,1.87-1.14,3.3-2.57,3.2s-2.59-1.72-2.59-3.61,1.16-3.31,2.59-3.19S101,142,101,143.9Z"/><path class="cls-48" d="M87.86,160.21c0,1.91-1.21,3.42-2.71,3.36s-2.73-1.68-2.73-3.62,1.23-3.44,2.73-3.36S87.86,158.29,87.86,160.21Z"/><path class="cls-49" d="M101,177.73c0,1.86-1.14,3.37-2.57,3.36s-2.59-1.55-2.59-3.43,1.16-3.4,2.59-3.37S101,175.86,101,177.73Z"/><path class="cls-50" d="M101,194.64c0,1.87-1.14,3.41-2.57,3.45s-2.59-1.47-2.59-3.35,1.16-3.43,2.59-3.45S101,192.77,101,194.64Z"/><polygon class="cls-9" points="91.86 134.57 84.18 135.45 78.27 134.9 78.27 133.27 91.86 134.57"/><polygon class="cls-9" points="91.86 134.57 91.86 151.79 84.18 151.3 84.18 135.45 91.86 134.57"/><polygon class="cls-9" points="91.86 169 91.86 203.42 84.18 203.09 84.18 169.27 91.86 169"/><polygon class="cls-9" points="91.86 169 84.18 169.27 78.27 169.1 78.27 168.59 91.86 169"/><polygon class="cls-9" points="63.95 113.77 63.95 204.42 56.38 204.05 56.38 115.08 63.95 113.77"/><polygon class="cls-9" points="7.18 106.46 7.18 206.46 0 206.01 0 108.05 7.18 106.46"/><polygon class="cls-9" points="40.97 129.7 33.54 130.75 24.56 129.92 24.56 128.12 40.97 129.7"/><polygon class="cls-9" points="40.97 129.7 40.97 148.58 33.54 148.11 33.54 130.75 40.97 129.7"/><polygon class="cls-9" points="40.97 167.47 40.97 186.36 33.54 186.38 33.54 167.8 40.97 167.47"/><polygon class="cls-9" points="40.97 167.47 33.54 167.8 24.56 167.54 24.56 166.98 40.97 167.47"/><path class="cls-1" d="M56.5,131.18,41,110.81,7.18,106.46v100L41,205.24,56.5,186.31V167.94l-7.66-9.55,7.66-8.83ZM41,186.36l-16.41,0V167l16.41.49Zm0-37.78-16.41-1V128.12L41,129.7Z"/><path class="cls-51" d="M19.45,196.22a3.83,3.83,0,0,1-3.45,4,3.65,3.65,0,0,1-3.5-3.88,3.82,3.82,0,0,1,3.5-4A3.66,3.66,0,0,1,19.45,196.22Z"/><path class="cls-52" d="M19.45,176.62a3.68,3.68,0,0,1-3.45,3.9,3.79,3.79,0,0,1-3.5-4,3.66,3.66,0,0,1,3.5-3.89A3.78,3.78,0,0,1,19.45,176.62Z"/><path class="cls-53" d="M19.45,157A3.53,3.53,0,0,1,16,160.81a4,4,0,0,1-3.5-4.1,3.52,3.52,0,0,1,3.5-3.78A3.94,3.94,0,0,1,19.45,157Z"/><path class="cls-54" d="M19.45,137.43A3.4,3.4,0,0,1,16,141.1a4.1,4.1,0,0,1-3.5-4.22,3.39,3.39,0,0,1,3.5-3.66A4.11,4.11,0,0,1,19.45,137.43Z"/><path class="cls-55" d="M19.45,117.84c0,2.16-1.54,3.75-3.45,3.55a4.27,4.27,0,0,1-3.5-4.33c0-2.19,1.57-3.78,3.5-3.55A4.27,4.27,0,0,1,19.45,117.84Z"/><path class="cls-56" d="M36.15,119.71c0,2.11-1.46,3.66-3.27,3.47a4.12,4.12,0,0,1-3.3-4.21c0-2.12,1.48-3.67,3.3-3.46A4.13,4.13,0,0,1,36.15,119.71Z"/><path class="cls-57" d="M51.93,140c0,2.05-1.38,3.61-3.09,3.48s-3.12-1.9-3.12-4,1.4-3.63,3.12-3.48A3.81,3.81,0,0,1,51.93,140Z"/><path class="cls-58" d="M36.15,157.8a3.4,3.4,0,0,1-3.27,3.68,3.78,3.78,0,0,1-3.3-4c0-2.13,1.48-3.77,3.3-3.68A3.81,3.81,0,0,1,36.15,157.8Z"/><path class="cls-59" d="M51.93,177.06c0,2.05-1.38,3.7-3.09,3.69s-3.12-1.7-3.12-3.77,1.4-3.72,3.12-3.68S51.93,175,51.93,177.06Z"/><path class="cls-60" d="M36.15,195.9a3.68,3.68,0,0,1-3.27,3.89,3.5,3.5,0,0,1-3.3-3.77,3.66,3.66,0,0,1,3.3-3.89A3.51,3.51,0,0,1,36.15,195.9Z"/><polygon class="cls-9" points="111.01 27.07 111.01 43.65 103.28 46.03 103.28 29.73 111.01 27.07"/><polygon class="cls-9" points="123.01 47.01 115.27 49.28 103.28 46.03 111.01 43.65 123.01 47.01"/><polygon class="cls-9" points="123.01 47.01 123.01 111.75 115.27 112.96 115.27 49.28 123.01 47.01"/><polygon class="cls-9" points="134.46 113.45 126.7 114.6 115.27 112.96 123.01 111.75 134.46 113.45"/><polygon class="cls-9" points="145.38 53.28 137.63 55.35 134.46 54.49 134.46 50.22 145.38 53.28"/><polygon class="cls-9" points="63.95 12.33 63.95 102.99 56.38 104.49 56.38 15.52 63.95 12.33"/><polygon class="cls-9" points="78.27 105.11 70.63 106.54 56.38 104.49 63.95 102.99 78.27 105.11"/><polygon class="cls-9" points="91.86 72.71 84.18 74.67 78.27 73.44 78.27 69.79 91.86 72.71"/><polygon class="cls-9" points="91.86 72.71 91.86 107.13 84.18 108.49 84.18 74.67 91.86 72.71"/><polygon class="cls-9" points="104.78 109.04 97.07 110.34 84.18 108.49 91.86 107.13 104.78 109.04"/><path class="cls-1" d="M104.78,41.9,91.86,21.07,64,12.33V103l14.32,2.12V69.79l13.59,2.92v34.42L104.78,109V75.47L98.4,65.61l6.38-6.92ZM91.86,55.49,78.27,52.13V34.48l13.59,3.8Z"/><polygon class="cls-9" points="91.86 38.28 84.18 40.85 78.27 39.25 78.27 34.48 91.86 38.28"/><polygon class="cls-9" points="91.86 38.28 91.86 55.49 84.18 53.59 84.18 40.85 91.86 38.28"/><path class="cls-61" d="M74.05,95.59c0,2-1.28,3.35-2.85,3.11s-2.88-2.07-2.88-4.06,1.29-3.37,2.88-3.1S74.05,93.62,74.05,95.59Z"/><path class="cls-62" d="M74.05,77.79c0,2-1.28,3.32-2.85,3s-2.88-2.16-2.88-4.14,1.29-3.34,2.88-3S74.05,75.82,74.05,77.79Z"/><path class="cls-63" d="M74.05,60c0,2-1.28,3.27-2.85,2.92s-2.88-2.26-2.88-4.24,1.29-3.29,2.88-2.92A4.37,4.37,0,0,1,74.05,60Z"/><path class="cls-64" d="M74.05,42.19c0,2-1.28,3.23-2.85,2.83s-2.88-2.35-2.88-4.34,1.29-3.25,2.88-2.82A4.55,4.55,0,0,1,74.05,42.19Z"/><path class="cls-65" d="M74.05,24.4c0,2-1.28,3.19-2.85,2.73a4.7,4.7,0,0,1-2.88-4.43c0-2,1.29-3.21,2.88-2.73A4.74,4.74,0,0,1,74.05,24.4Z"/><path class="cls-66" d="M87.85,28.49c0,1.92-1.21,3.12-2.7,2.68s-2.73-2.36-2.73-4.29,1.22-3.13,2.73-2.68A4.57,4.57,0,0,1,87.85,28.49Z"/><path class="cls-67" d="M101,49.29c0,1.87-1.15,3.09-2.57,2.72s-2.6-2.19-2.6-4.08,1.17-3.1,2.6-2.71S101,47.42,101,49.29Z"/><path class="cls-68" d="M87.85,63.18c0,1.91-1.21,3.19-2.7,2.86s-2.73-2.18-2.73-4.12,1.22-3.21,2.73-2.85S87.85,61.26,87.85,63.18Z"/><path class="cls-69" d="M101,83.11C101,85,99.82,86.28,98.4,86s-2.6-2-2.6-3.91,1.17-3.18,2.6-2.88S101,81.25,101,83.11Z"/><path class="cls-70" d="M101,100c0,1.86-1.15,3.2-2.57,3s-2.6-1.94-2.6-3.83S97,96,98.4,96.2,101,98.16,101,100Z"/><path class="cls-1" d="M41,5.14,24.56,0,7.18,14.56v80l17.38,2.58V58.29L41,61.8V99.58l15.52,2.3V28.38Zm0,37.77-16.41-4V19.43L41,24Z"/><path class="cls-71" d="M19.45,86.59c0,2.16-1.54,3.67-3.45,3.37a4.57,4.57,0,0,1-3.5-4.52c0-2.19,1.57-3.69,3.5-3.36A4.56,4.56,0,0,1,19.45,86.59Z"/><path class="cls-72" d="M19.45,67c0,2.17-1.54,3.63-3.45,3.26a4.75,4.75,0,0,1-3.5-4.63c0-2.19,1.57-3.65,3.5-3.25A4.76,4.76,0,0,1,19.45,67Z"/><path class="cls-73" d="M19.45,47.4c0,2.16-1.54,3.57-3.45,3.14a5,5,0,0,1-3.5-4.75c0-2.19,1.57-3.59,3.5-3.13A5,5,0,0,1,19.45,47.4Z"/><path class="cls-74" d="M19.45,27.8c0,2.16-1.54,3.52-3.45,3A5.15,5.15,0,0,1,12.5,26c0-2.19,1.57-3.54,3.5-3A5.17,5.17,0,0,1,19.45,27.8Z"/><path class="cls-75" d="M36.15,13.16c0,2.1-1.46,3.38-3.27,2.86a5.16,5.16,0,0,1-3.3-4.81c0-2.13,1.48-3.4,3.3-2.85A5.17,5.17,0,0,1,36.15,13.16Z"/><path class="cls-76" d="M51.93,36.36c0,2-1.38,3.35-3.09,2.91a4.76,4.76,0,0,1-3.12-4.54c0-2.07,1.4-3.37,3.12-2.91A4.79,4.79,0,0,1,51.93,36.36Z"/><path class="cls-77" d="M51.93,54.89c0,2-1.38,3.39-3.09,3a4.56,4.56,0,0,1-3.12-4.44c0-2.07,1.4-3.42,3.12-3A4.6,4.6,0,0,1,51.93,54.89Z"/><path class="cls-78" d="M36.15,51.25c0,2.1-1.46,3.48-3.27,3.07a4.74,4.74,0,0,1-3.3-4.59c0-2.12,1.48-3.5,3.3-3.07A4.78,4.78,0,0,1,36.15,51.25Z"/><path class="cls-79" d="M51.93,73.41c0,2-1.38,3.45-3.09,3.12a4.39,4.39,0,0,1-3.12-4.34c0-2.07,1.4-3.46,3.12-3.11A4.41,4.41,0,0,1,51.93,73.41Z"/><path class="cls-80" d="M51.93,91.94c0,2-1.38,3.49-3.09,3.22S45.72,93,45.72,90.92s1.4-3.51,3.12-3.21A4.22,4.22,0,0,1,51.93,91.94Z"/><polygon class="cls-9" points="24.56 0 7.18 14.56 0 18.02 17.24 3.65 24.56 0"/><polygon class="cls-9" points="7.18 14.56 7.18 94.56 0 96.4 0 18.02 7.18 14.56"/><polygon class="cls-9" points="24.56 97.14 17.24 98.87 0 96.4 7.18 94.56 24.56 97.14"/><polygon class="cls-9" points="40.97 61.8 33.53 64.17 24.56 62.3 24.56 58.29 40.97 61.8"/><polygon class="cls-9" points="40.97 61.8 40.97 99.58 33.53 101.21 33.53 64.17 40.97 61.8"/><polygon class="cls-9" points="56.49 101.88 48.97 103.43 33.53 101.21 40.97 99.58 56.49 101.88"/><polygon class="cls-9" points="40.97 24.03 33.53 27.12 24.56 24.69 24.56 19.43 40.97 24.03"/><polygon class="cls-9" points="40.97 24.03 40.97 42.91 33.53 41.07 33.53 27.12 40.97 24.03"/></g></g></svg>