<svg xmlns="http://www.w3.org/2000/svg" xmlns:xlink="http://www.w3.org/1999/xlink" viewBox="0 0 84.32 84.32"><defs><style>.cls-1{opacity:0.21;fill:url(#linear-gradient);}.cls-2,.cls-3{fill:none;}.cls-3{stroke:#bed56a;stroke-miterlimit:10;stroke-width:0.5px;}.cls-4{fill:#bed56a;}</style><linearGradient id="linear-gradient" x1="42.16" y1="84.32" x2="42.16" y2="10.04" gradientUnits="userSpaceOnUse"><stop offset="0" stop-color="#bed56a"/><stop offset="0.06" stop-color="#bed56a" stop-opacity="0.91"/><stop offset="0.24" stop-color="#bed56a" stop-opacity="0.64"/><stop offset="0.43" stop-color="#bed56a" stop-opacity="0.41"/><stop offset="0.6" stop-color="#bed56a" stop-opacity="0.23"/><stop offset="0.75" stop-color="#bed56a" stop-opacity="0.1"/><stop offset="0.89" stop-color="#bed56a" stop-opacity="0.03"/><stop offset="1" stop-color="#bed56a" stop-opacity="0"/></linearGradient></defs><title>LogoLemon</title><g id="Layer_2" data-name="Layer 2"><g id="Layer_1-2" data-name="Layer 1"><path class="cls-1" d="M84.32,18.27A110.39,110.39,0,0,0,42.16,10,110.35,110.35,0,0,0,0,18.27V60.7L28.41,84.32H55.93L84.32,60.71Z"/><rect class="cls-2" x="0.01" width="84.32" height="84.32"/><rect class="cls-2" width="84.32" height="84.32"/><polyline class="cls-3" points="2.85 41.56 2.85 12.49 62.3 12.49 75.48 12.49 81.48 12.49 81.48 14.65"/><polyline class="cls-3" points="81.48 27.16 81.48 57.75 31.9 57.75 8.22 57.75 2.85 57.75 2.85 55.92"/><polyline class="cls-3" points="6.29 40.2 3.95 18.91 62.3 12.49 75.32 11.05 75.48 12.49 75.77 15.1"/><polyline class="cls-3" points="77.66 32.2 79.88 52.47 31.9 57.75 8.51 60.32 8.22 57.75 7.94 55.17"/><path class="cls-4" d="M78.39,21.09c-2,0-3.22,1.59-6.45,1.59l-12,.75a7.34,7.34,0,0,0-3.78,1.07c-.12-1.3-2.61-1.93-7.69-1.81-2.73-1.93-5.83-1.93-9.52,1.12a4.34,4.34,0,0,1-1.75,4.74c-1.33.47-1.24.95,1.25.95Q40.69,28,40.2,30a24.25,24.25,0,0,1-9.53,1.63,48.39,48.39,0,0,0-1.41-9.76c-1-2.84-1.45-2.93-3.6-.94L15.94,36.23l-3.14.5c-2.71.89-4.05,4.87-.53,3.77q.69-.34,1.38-.66l-4.2,6.6c-.36.51-.81.67-1.08.19-.48-1.11-1.43-1.05-1.43.24l.33,4.67c0,.39.89.29,1.48-.3l7.38-12.55c4.43-2,8.51-3.39,11.8-3.48.53-.11.83,0,.72.86-.77,5.36-.52,9.52.89,12.29.61.53,4.68-2.1,4-3.32a23.21,23.21,0,0,1-1.67-9.83,19,19,0,0,0,8.55-2.36c-1.16,3-2.28,6-2.28,9.36,0,3.13-1.11,7.77-3.92,7.77-.84,0-1.52,1.15-1.52,2.56s.68,2.55,1.52,2.55c4.86,0,6.79-19.5,7.32-19.5,1,0,1.51,1.39,1.64,2.6,0,2.24,8,8.07,12.48,8.07,1.87,0,2.58-1,1-2.07-6.15-1.92-9.71-5.77-10.14-12a51.24,51.24,0,0,0,7.51-4.74c.54.84,1,1.76,1.88,1.76,1.65,0,3-3.6,4.23-3.6h4.1c.59,0-.49,3.6-.49,5.73,0,1.31-2,3.5-2,5.88-.14,3.64-3.18,6.95-3.18,9.94,0,.49,2.72.52,3.4-.16C63.52,45.48,65,38.72,65,34.46c0-2.25,3.64-7.43,3.64-9.36,0-.46,3.12-.7,3.12,0,0,1,3.09.45,4-.44C77,23.46,79.88,21.09,78.39,21.09Zm-51,12.59a85.38,85.38,0,0,1-9.63,2.23l5.67-9.65c1.18-1.24,1.89-1.22,2.12.06a8.09,8.09,0,0,0,2.06,4.12A5.23,5.23,0,0,1,27.38,33.68ZM42,32.85l2.27-6.67c3.32-.46,8.24-1.75,8.24.2S45.88,30.79,42,32.85Z"/><path class="cls-4" d="M35.75,69.28a3.47,3.47,0,0,0,.37-.8,4.59,4.59,0,0,0,.17-1.27,4.64,4.64,0,0,0-.17-1.27c-.26-.84-.76-1.43-1.35-1.51H29.71V74.7h1.52V70h2.66c.48,0,.88.71.88,1.59V74.7h1.52V71.59A5.21,5.21,0,0,0,36.06,70,4,4,0,0,0,35.75,69.28Zm-1.86-.8H31.23V65.94h2.66c.48,0,.88.57.88,1.27S34.37,68.48,33.89,68.48Z"/><polygon class="cls-4" points="41.87 65.94 41.87 68.48 44.92 68.48 44.92 70 41.87 70 41.87 73.18 45.92 73.18 45.92 74.7 40.35 74.7 40.35 64.42 45.92 64.42 45.92 65.94 41.87 65.94"/><polygon class="cls-4" points="56.56 64.42 56.56 74.7 55.04 74.7 51.5 67.67 51.5 74.7 49.98 74.7 49.98 64.42 51.5 64.42 52.26 65.94 53.54 68.48 54.31 70 55.04 71.46 55.04 64.42 56.56 64.42"/><path class="cls-4" d="M25.11,69.28a3.09,3.09,0,0,0,.36-.8,4.24,4.24,0,0,0,.18-1.27,4.28,4.28,0,0,0-.18-1.27c-.27-.9-.83-1.52-1.46-1.52h-5V74.7h5c.59,0,1.12-.61,1.41-1.52a5.61,5.61,0,0,0,0-3.18A4,4,0,0,0,25.11,69.28Zm-1.84,3.9H20.58V70h2.69c.5,0,.9.71.9,1.59S23.77,73.18,23.27,73.18Zm0-4.7H20.58V65.94h2.69c.5,0,.9.57.9,1.27S23.77,68.48,23.27,68.48Z"/><path class="cls-4" d="M67.2,65.94a1.61,1.61,0,0,0-.48-1,1.62,1.62,0,0,0-1.16-.49H60.62V74.7h4.94a1.65,1.65,0,0,0,1.64-1.52.57.57,0,0,0,0-.13v-7A.57.57,0,0,0,67.2,65.94Zm-1.51,6.41a.83.83,0,0,1-.83.83H62.14V65.94h2.72a.83.83,0,0,1,.83.83Z"/></g></g></svg>