<svg xmlns="http://www.w3.org/2000/svg" xmlns:xlink="http://www.w3.org/1999/xlink" viewBox="0 0 85.32 85.32"><defs><style>.cls-1{opacity:0.21;fill:url(#linear-gradient);}.cls-2{fill:#fff;opacity:0.19;}.cls-2,.cls-6{stroke:#fff;}.cls-2,.cls-4,.cls-6{stroke-miterlimit:10;}.cls-3,.cls-4,.cls-6{fill:none;}.cls-4{stroke:#d5816a;stroke-width:0.5px;}.cls-5{fill:#d5816a;}</style><linearGradient id="linear-gradient" x1="42.66" y1="84.82" x2="42.66" y2="10.54" gradientTransform="matrix(-1, 0, 0, 1, 85.32, 0)" gradientUnits="userSpaceOnUse"><stop offset="0" stop-color="#d5816a"/><stop offset="0.06" stop-color="#d5816a" stop-opacity="0.91"/><stop offset="0.24" stop-color="#d5816a" stop-opacity="0.64"/><stop offset="0.43" stop-color="#d5816a" stop-opacity="0.41"/><stop offset="0.6" stop-color="#d5816a" stop-opacity="0.23"/><stop offset="0.75" stop-color="#d5816a" stop-opacity="0.1"/><stop offset="0.89" stop-color="#d5816a" stop-opacity="0.03"/><stop offset="1" stop-color="#d5816a" stop-opacity="0"/></linearGradient></defs><title>LogoReverse</title><g id="Layer_2" data-name="Layer 2"><g id="Layer_1-2" data-name="Layer 1"><path class="cls-1" d="M.5,61.21,28.89,84.82H56.41L84.82,61.2V18.77a110.35,110.35,0,0,0-42.16-8.23A110.39,110.39,0,0,0,.5,18.77Z"/><rect class="cls-2" x="0.5" y="0.5" width="84.32" height="84.32" transform="translate(85.32 85.32) rotate(-180)"/><rect class="cls-3" x="0.5" y="0.5" width="84.32" height="84.32" transform="translate(85.32 85.32) rotate(-180)"/><rect class="cls-3" x="0.5" y="0.5" width="84.32" height="84.32"/><polyline class="cls-4" points="81.97 42.06 81.97 12.99 22.52 12.99 9.34 12.99 3.34 12.99 3.34 15.15"/><polyline class="cls-4" points="3.34 27.66 3.34 58.25 52.92 58.25 76.6 58.25 81.97 58.25 81.97 56.42"/><polyline class="cls-4" points="78.53 40.7 80.88 19.41 22.52 12.99 9.5 11.55 9.34 12.99 9.05 15.6"/><polyline class="cls-4" points="7.17 32.7 4.94 52.97 52.92 58.25 76.31 60.82 76.6 58.25 76.88 55.67"/><path class="cls-5" d="M9.05,25.16c.9.89,4,1.46,4,.44,0-.7,3.11-.46,3.11,0,0,1.92,3.65,7.1,3.65,9.35,0,4.27,1.5,11,3.05,12.57.67.68,3.39.65,3.39.16,0-3-3-6.3-3.17-9.94,0-2.39-2-4.58-2-5.88,0-2.13-1.08-5.73-.49-5.73h4.1c1.21,0,2.58,3.6,4.23,3.6.94,0,1.34-.92,1.88-1.76a51,51,0,0,0,7.51,4.73c-.43,6.22-4,10.07-10.13,12-1.59,1-.88,2.07,1,2.07,4.53,0,12.49-5.83,12.49-8.07.12-1.21.59-2.6,1.63-2.6.53,0,2.46,19.5,7.32,19.5.84,0,1.52-1.14,1.52-2.56s-.68-2.55-1.52-2.55c-2.81,0-3.92-4.64-3.92-7.77,0-3.35-1.12-6.38-2.28-9.36a19,19,0,0,0,8.56,2.35,23.42,23.42,0,0,1-1.67,9.84c-.66,1.22,3.4,3.85,4,3.31,1.42-2.76,1.66-6.92.9-12.28-.12-.87.18-1,.72-.87,3.28.1,7.36,1.5,11.8,3.49l7.37,12.55c.59.59,1.48.69,1.48.3l.34-4.67c0-1.29-1-1.35-1.43-.24-.28.48-.72.32-1.08-.19l-4.2-6.6,1.37.66c3.52,1.1,2.19-2.88-.53-3.78-1.06-.16-2.11-.32-3.13-.49L59.17,21.42c-2.16-2-2.64-1.9-3.6.94a49,49,0,0,0-1.42,9.76,24.2,24.2,0,0,1-9.52-1.63c-.33-1.31.24-1.48,1.72-.49,2.49,0,2.58-.48,1.26-.95a4.33,4.33,0,0,1-1.76-4.74c-3.69-3-6.79-3-9.51-1.12-5.09-.12-7.57.51-7.7,1.81a7.28,7.28,0,0,0-3.78-1.07l-12-.75c-3.23,0-4.44-1.59-6.45-1.59C4.94,21.59,7.85,24,9.05,25.16Zm48.18,5.78a8.08,8.08,0,0,0,2.05-4.12q.34-1.92,2.13-.06l5.66,9.65a85.18,85.18,0,0,1-9.62-2.23A5.16,5.16,0,0,1,57.23,30.94ZM32.34,26.88c0-1.95,4.92-.66,8.24-.2l2.27,6.67C38.94,31.29,32.34,28.71,32.34,26.88Z"/><path class="cls-5" d="M48.76,70.5a5.54,5.54,0,0,0-.23,1.59V75.2h1.52V72.09c0-.88.4-1.59.89-1.59H53.6v4.7h1.52V64.92H50.05c-.59.08-1.08.67-1.34,1.51a4.57,4.57,0,0,0,0,2.54,2.8,2.8,0,0,0,.37.8A4,4,0,0,0,48.76,70.5Zm1.29-2.79c0-.7.4-1.27.89-1.27H53.6V69H50.94C50.45,69,50.05,68.41,50.05,67.71Z"/><polygon class="cls-5" points="42.95 66.44 42.95 68.98 39.9 68.98 39.9 70.5 42.95 70.5 42.95 73.68 38.9 73.68 38.9 75.2 44.48 75.2 44.48 64.92 38.9 64.92 38.9 66.44 42.95 66.44"/><polygon class="cls-5" points="28.26 64.92 28.26 75.2 29.78 75.2 33.33 68.17 33.33 75.2 34.85 75.2 34.85 64.92 33.33 64.92 32.56 66.44 31.29 68.98 30.52 70.5 29.78 71.96 29.78 64.92 28.26 64.92"/><path class="cls-5" d="M59.4,70.5a5.61,5.61,0,0,0,0,3.18c.29.91.82,1.52,1.42,1.52h4.94V64.92H60.82c-.64,0-1.2.62-1.47,1.52a4.57,4.57,0,0,0,0,2.54,3.1,3.1,0,0,0,.37.8A4,4,0,0,0,59.4,70.5Zm1.25,1.59c0-.88.41-1.59.91-1.59h2.68v3.18H61.56C61.06,73.68,60.65,73,60.65,72.09Zm0-4.38c0-.7.41-1.27.91-1.27h2.68V69H61.56C61.06,69,60.65,68.41,60.65,67.71Z"/><path class="cls-5" d="M17.62,66.57v7a.57.57,0,0,0,0,.13,1.64,1.64,0,0,0,1.64,1.52h4.94V64.92H19.27a1.68,1.68,0,0,0-1.17.48,1.6,1.6,0,0,0-.47,1A.57.57,0,0,0,17.62,66.57Zm1.52.7a.83.83,0,0,1,.82-.83h2.73v7.24H20a.83.83,0,0,1-.82-.83Z"/><rect class="cls-6" x="0.5" y="0.5" width="84.32" height="84.32" transform="translate(85.32 85.32) rotate(-180)"/></g></g></svg>