<svg xmlns="http://www.w3.org/2000/svg" xmlns:xlink="http://www.w3.org/1999/xlink" viewBox="0 0 85.32 85.32"><defs><style>.cls-1{opacity:0.21;fill:url(#linear-gradient);}.cls-2{fill:#fff;opacity:0.19;}.cls-2,.cls-6{stroke:#fff;}.cls-2,.cls-4,.cls-6{stroke-miterlimit:10;}.cls-3,.cls-4,.cls-6{fill:none;}.cls-4{stroke:#d5816a;stroke-width:0.5px;}.cls-5{fill:#d5816a;}</style><linearGradient id="linear-gradient" x1="42.66" y1="84.82" x2="42.66" y2="10.54" gradientUnits="userSpaceOnUse"><stop offset="0" stop-color="#d5816a"/><stop offset="0.06" stop-color="#d5816a" stop-opacity="0.91"/><stop offset="0.24" stop-color="#d5816a" stop-opacity="0.64"/><stop offset="0.43" stop-color="#d5816a" stop-opacity="0.41"/><stop offset="0.6" stop-color="#d5816a" stop-opacity="0.23"/><stop offset="0.75" stop-color="#d5816a" stop-opacity="0.1"/><stop offset="0.89" stop-color="#d5816a" stop-opacity="0.03"/><stop offset="1" stop-color="#d5816a" stop-opacity="0"/></linearGradient></defs><title>Logo_1</title><g id="Layer_2" data-name="Layer 2"><g id="Layer_1-2" data-name="Layer 1"><path class="cls-1" d="M84.82,18.77a110.39,110.39,0,0,0-42.16-8.23A110.35,110.35,0,0,0,.5,18.77V61.2L28.91,84.82H56.43L84.82,61.21Z"/><rect class="cls-2" x="0.5" y="0.5" width="84.32" height="84.32"/><rect class="cls-3" x="0.5" y="0.5" width="84.32" height="84.32"/><rect class="cls-3" x="0.5" y="0.5" width="84.32" height="84.32"/><polyline class="cls-4" points="3.34 42.06 3.34 12.99 62.8 12.99 75.98 12.99 81.98 12.99 81.98 15.15"/><polyline class="cls-4" points="81.98 27.66 81.98 58.25 32.4 58.25 8.72 58.25 3.34 58.25 3.34 56.42"/><polyline class="cls-4" points="6.79 40.7 4.44 19.41 62.8 12.99 75.82 11.55 75.98 12.99 76.27 15.6"/><polyline class="cls-4" points="78.15 32.7 80.38 52.97 32.4 58.25 9 60.82 8.72 58.25 8.44 55.67"/><path class="cls-5" d="M78.89,21.59c-2,0-3.22,1.59-6.45,1.59l-12,.75A7.28,7.28,0,0,0,56.68,25c-.13-1.3-2.61-1.93-7.7-1.81-2.72-1.93-5.83-1.93-9.52,1.12a4.31,4.31,0,0,1-1.75,4.74c-1.32.47-1.23.95,1.26.95,1.48-1,2.05-.82,1.72.49a24.21,24.21,0,0,1-9.53,1.63,48.29,48.29,0,0,0-1.41-9.76c-1-2.84-1.44-2.93-3.6-.94L16.43,36.73l-3.13.49c-2.72.9-4.05,4.88-.54,3.78l1.38-.66-4.2,6.6c-.36.51-.8.67-1.08.19-.47-1.11-1.43-1.05-1.43.24L7.77,52c0,.39.89.29,1.48-.3l7.37-12.55c4.43-2,8.51-3.39,11.8-3.49.53-.1.83,0,.72.87-.76,5.36-.52,9.52.9,12.28.61.54,4.67-2.09,4-3.31a23.42,23.42,0,0,1-1.67-9.84,19,19,0,0,0,8.56-2.35c-1.16,3-2.29,6-2.29,9.36,0,3.13-1.11,7.77-3.91,7.77-.84,0-1.52,1.15-1.52,2.55s.68,2.56,1.52,2.56c4.86,0,6.79-19.5,7.32-19.5,1,0,1.51,1.39,1.63,2.6,0,2.24,8,8.07,12.49,8.07,1.87,0,2.58-1,1-2.07C51,42.77,47.47,38.92,47,32.7A51.6,51.6,0,0,0,54.55,28c.54.84.94,1.76,1.88,1.76,1.65,0,3-3.6,4.23-3.6h4.1c.59,0-.5,3.6-.5,5.73,0,1.3-2,3.49-2,5.88-.14,3.64-3.17,6.95-3.17,9.94,0,.49,2.72.52,3.39-.16,1.55-1.54,3-8.3,3-12.57,0-2.25,3.65-7.43,3.65-9.35,0-.46,3.11-.7,3.11,0,0,1,3.09.45,4-.44C77.47,24,80.38,21.59,78.89,21.59Zm-51,12.59a85.18,85.18,0,0,1-9.62,2.23l5.66-9.65q1.79-1.86,2.13.06a8,8,0,0,0,2.05,4.12A5.16,5.16,0,0,1,27.87,34.18Zm14.59-.83,2.27-6.67c3.33-.46,8.25-1.75,8.25.2S46.38,31.29,42.46,33.35Z"/><path class="cls-5" d="M36.24,69.78a3.1,3.1,0,0,0,.37-.8,4.57,4.57,0,0,0,0-2.54c-.26-.84-.75-1.43-1.34-1.51H30.2V75.2h1.52V70.5h2.66c.49,0,.89.71.89,1.59V75.2h1.52V72.09a5.54,5.54,0,0,0-.23-1.59A4,4,0,0,0,36.24,69.78ZM34.38,69H31.72V66.44h2.66c.49,0,.89.57.89,1.27S34.87,69,34.38,69Z"/><polygon class="cls-5" points="42.36 66.44 42.36 68.98 45.42 68.98 45.42 70.5 42.36 70.5 42.36 73.68 46.42 73.68 46.42 75.2 40.84 75.2 40.84 64.92 46.42 64.92 46.42 66.44 42.36 66.44"/><polygon class="cls-5" points="57.06 64.92 57.06 75.2 55.54 75.2 51.99 68.17 51.99 75.2 50.47 75.2 50.47 64.92 51.99 64.92 52.76 66.44 54.03 68.98 54.8 70.5 55.54 71.96 55.54 64.92 57.06 64.92"/><path class="cls-5" d="M25.6,69.78A3.47,3.47,0,0,0,26,69a4.57,4.57,0,0,0,0-2.54c-.27-.9-.83-1.52-1.47-1.52H19.56V75.2H24.5c.6,0,1.13-.61,1.41-1.52a5.39,5.39,0,0,0,0-3.18A3.39,3.39,0,0,0,25.6,69.78Zm-1.84,3.9H21.08V70.5h2.68c.5,0,.91.71.91,1.59S24.26,73.68,23.76,73.68Zm0-4.7H21.08V66.44h2.68c.5,0,.91.57.91,1.27S24.26,69,23.76,69Z"/><path class="cls-5" d="M67.69,66.44a1.6,1.6,0,0,0-.47-1,1.7,1.7,0,0,0-1.17-.48H61.11V75.2h4.94a1.64,1.64,0,0,0,1.64-1.52.57.57,0,0,0,0-.13v-7A.57.57,0,0,0,67.69,66.44Zm-1.51,6.41a.83.83,0,0,1-.82.83H62.63V66.44h2.73a.83.83,0,0,1,.82.83Z"/><rect class="cls-6" x="0.5" y="0.5" width="84.32" height="84.32"/></g></g></svg>