<svg xmlns="http://www.w3.org/2000/svg" viewBox="0 0 144.21 136.84"><defs><style>.cls-1{fill:#bed56a;}.cls-2,.cls-3{opacity:0.5;}.cls-3{fill:#fff;}</style></defs><title>MenuOpen</title><g id="Layer_2" data-name="Layer 2"><g id="Layer_1-2" data-name="Layer 1"><polygon class="cls-1" points="72.1 108.61 72.1 136.84 0 109.13 0 85.13 72.1 108.61"/><polygon class="cls-1" points="144.21 85.13 144.21 109.13 72.1 136.84 72.1 108.61 144.21 85.13"/><polygon class="cls-1" points="144.21 85.13 72.1 108.61 0 85.13 72.1 67.79 144.21 85.13"/><polygon class="cls-2" points="72.1 108.61 72.1 136.84 0 109.13 0 85.13 72.1 108.61"/><polygon class="cls-2" points="144.21 85.13 72.1 108.61 0 85.13 72.1 67.79 144.21 85.13"/><polygon class="cls-2" points="144.21 85.13 72.1 108.61 0 85.13 72.1 67.79 144.21 85.13"/><polygon class="cls-1" points="72.1 62.73 72.1 90.96 0 70.14 0 46.14 72.1 62.73"/><polygon class="cls-1" points="144.21 46.14 144.21 70.14 72.1 90.96 72.1 62.73 144.21 46.14"/><polygon class="cls-1" points="144.21 46.14 72.1 62.73 0 46.14 72.1 33.89 144.21 46.14"/><polygon class="cls-2" points="72.1 62.73 72.1 90.96 0 70.14 0 46.14 72.1 62.73"/><polygon class="cls-2" points="144.21 46.14 72.1 62.73 0 46.14 72.1 33.89 144.21 46.14"/><polygon class="cls-2" points="144.21 46.14 72.1 62.73 0 46.14 72.1 33.89 144.21 46.14"/><polygon class="cls-1" points="72.1 16.84 72.1 45.08 41.28 39.13 0 31.15 0 7.15 72.1 16.84"/><polygon class="cls-1" points="144.21 7.15 144.21 31.15 102.92 39.13 72.1 45.08 72.1 16.84 144.21 7.15"/><polygon class="cls-1" points="144.21 7.15 72.1 16.84 0 7.15 72.11 0 144.21 7.15"/><polygon class="cls-2" points="72.1 16.84 72.1 45.08 41.28 39.13 0 31.15 0 7.15 72.1 16.84"/><polygon class="cls-3" points="144.21 7.15 72.1 16.84 0 7.15 72.11 0 144.21 7.15"/></g></g></svg>