<svg xmlns="http://www.w3.org/2000/svg" viewBox="0 0 111.09 126.11"><defs><style>.cls-1{fill:#d5816a;}.cls-2{fill:#fff;}.cls-2,.cls-3{opacity:0.5;}</style></defs><title>MenuClose</title><g id="Layer_2" data-name="Layer 2"><g id="Layer_1-2" data-name="Layer 1"><polygon class="cls-1" points="91.2 58.58 111.09 84.98 99.08 109.03 77.96 83.02 54.62 126.11 38.98 109.26 63.88 65.67 38.98 34.98 54.62 10.02 77.96 41.01 99.08 4.05 111.09 21.86 91.2 58.58"/><polygon class="cls-1" points="54.62 10.02 38.98 34.98 0 27.89 15.58 5.11 54.62 10.02"/><polygon class="cls-1" points="63.88 65.66 24.84 56.54 0 27.89 38.98 34.98 63.88 65.66"/><polygon class="cls-1" points="63.88 65.66 38.98 109.26 0 96.14 24.84 56.54 63.88 65.66"/><polygon class="cls-1" points="54.62 126.11 15.58 112.05 0 96.14 38.98 109.26 54.62 126.11"/><polygon class="cls-1" points="99.08 109.02 68.78 99.97 77.96 83.02 99.08 109.02"/><polygon class="cls-1" points="99.08 4.05 77.96 41.01 54.29 9.59 60.31 0 99.08 4.05"/><polygon class="cls-2" points="54.62 10.02 38.98 34.98 0 27.89 15.58 5.11 54.62 10.02"/><polygon class="cls-2" points="63.88 65.66 38.98 109.26 0 96.14 24.84 56.54 63.88 65.66"/><polygon class="cls-2" points="99.08 4.05 77.96 41.01 54.29 9.59 60.31 0 99.08 4.05"/><polygon class="cls-3" points="63.88 65.66 24.84 56.54 0 27.89 38.98 34.98 63.88 65.66"/><polygon class="cls-3" points="54.62 126.11 15.58 112.05 0 96.14 38.98 109.26 54.62 126.11"/><polygon class="cls-3" points="99.08 109.02 68.78 99.97 77.96 83.02 99.08 109.02"/></g></g></svg>