<?xml version="1.0" standalone="no"?>
<!DOCTYPE svg PUBLIC "-//W3C//DTD SVG 20010904//EN"
 "http://www.w3.org/TR/2001/REC-SVG-20010904/DTD/svg10.dtd">
<svg version="1.0" xmlns="http://www.w3.org/2000/svg"
 width="700.000000pt" height="700.000000pt" viewBox="0 0 700.000000 700.000000"
 preserveAspectRatio="xMidYMid meet">
<metadata>
Created by potrace 1.14, written by Peter Selinger 2001-2017
</metadata>
<g transform="translate(0.000000,700.000000) scale(0.100000,-0.100000)"
fill="#000000" stroke="none">
<path d="M0 3500 l0 -3500 3500 0 3500 0 0 3500 0 3500 -3500 0 -3500 0 0
-3500z m4220 3260 l0 -80 -1950 0 -1950 0 0 -3180 0 -3180 425 0 425 0 0 -80
0 -80 -505 0 -505 0 0 3340 0 3340 2030 0 2030 0 0 -80z m2620 -3260 l0 -3340
-2025 0 -2025 0 0 80 0 80 1945 0 1945 0 0 3180 0 3180 -425 0 -425 0 0 80 0
80 505 0 505 0 0 -3340z m-4545 3039 c611 -75 956 -600 1047 -1594 19 -206 19
-2692 0 -2890 -40 -417 -115 -731 -232 -970 -187 -382 -452 -582 -831 -626
-156 -18 -548 -6 -661 20 -475 110 -784 545 -897 1261 -46 289 -46 295 -46
1760 0 1466 0 1471 46 1760 122 769 472 1218 1000 1279 110 13 470 13 574 0z
m2955 -14 c573 -87 863 -401 945 -1024 17 -125 34 -483 35 -698 l0 -133 -544
0 -544 0 -5 358 c-4 301 -7 366 -22 411 -61 194 -258 160 -325 -56 -44 -143
-44 -406 0 -580 11 -43 40 -118 64 -168 85 -177 198 -290 491 -490 286 -194
421 -305 534 -440 259 -305 395 -690 442 -1251 15 -186 7 -682 -14 -819 -48
-307 -129 -540 -250 -719 -90 -132 -237 -261 -382 -334 -82 -41 -230 -87 -350
-108 -138 -24 -432 -24 -570 0 -601 106 -950 514 -1024 1198 -6 54 -11 300
-11 553 l0 455 530 0 530 0 0 -392 c1 -569 14 -704 76 -778 37 -44 80 -63 140
-62 78 1 138 41 178 119 81 161 68 644 -24 923 -48 144 -135 286 -239 390 -88
87 -155 137 -367 275 -243 158 -303 204 -415 315 -232 231 -361 532 -426 990
-26 182 -26 811 0 985 76 509 253 808 574 969 131 66 291 109 470 126 115 11
382 3 503 -15z"/>
<path d="M1953 5570 c-77 -31 -109 -208 -123 -685 -12 -396 -12 -2375 0 -2775
13 -423 41 -612 100 -665 25 -23 101 -31 139 -15 57 23 87 124 113 375 19 188
19 3210 0 3400 -23 229 -56 340 -108 363 -29 14 -89 15 -121 2z"/>
</g>
</svg>
