<svg width="610" height="568" viewBox="0 0 610 568" fill="none" xmlns="http://www.w3.org/2000/svg">
<g opacity="0.3" filter="url(#filter0_f)">
<ellipse rx="223.155" ry="34.1971" transform="matrix(0.99124 -0.132075 -0.0942459 -0.995549 364.139 422.963)" fill="#3F200F"/>
</g>
<g opacity="0.7">
<path fill-rule="evenodd" clip-rule="evenodd" d="M243.183 130.297C288.771 130.686 297.519 81.8749 273.405 71.6708C249.282 61.4714 236.976 82.2341 228.567 103.791C217.49 132.184 171.191 125.659 171.191 125.659L171.209 125.683C160.63 124.632 149.777 127.067 138.792 134.006C133.138 137.578 128.237 141.862 123.996 146.763C123.22 147.656 122.47 148.568 121.748 149.499C120.988 150.472 120.247 151.469 119.532 152.485L119.529 152.476C119.529 152.476 119.489 152.541 119.42 152.645C118.826 153.496 118.256 154.357 117.701 155.232C111.033 164.936 87.3509 196.577 67.1366 188.258C49.0733 180.818 28.7369 177.464 17.6571 206.437C6.57735 235.411 40.3019 261.582 71.9179 220.009C86.787 200.463 99.7345 206.21 100.585 230.246C100.592 231.445 100.605 232.664 100.624 233.867C100.619 234.037 100.622 234.203 100.625 234.368C100.62 234.538 100.626 234.679 100.64 234.816C101.219 262.471 105.966 291.702 111.991 318.135C105.476 329.662 96.5058 342.899 84.7419 354.874C81.87 354.557 79.4305 355.88 78.3686 356.814C76.9237 358.086 76.2326 359.947 76.682 361.545C77.0357 362.793 78.6723 364.949 81.8537 365.235C81.334 367.394 80.8242 369.025 79.8845 370.729C79.3898 370.948 78.9021 371.22 78.4157 371.557C75.5239 373.567 73.9921 376.933 74.9932 379.072C75.9755 381.155 78.9976 381.303 81.8308 379.457C82.0123 379.661 82.1905 379.856 82.3719 380.06C79.7105 382.359 78.2186 386.217 79.1047 389.219C80.1551 392.746 83.9949 393.583 87.5079 390.897C88.9562 389.79 90.0421 388.309 90.7101 386.75C90.8594 386.826 91.0056 386.893 91.1517 386.96C90.5532 388.449 90.3636 390.142 90.8111 391.641C91.6712 394.534 94.3905 395.044 96.5909 392.879C97.9517 391.541 98.711 389.544 98.7556 387.693C98.9873 387.614 99.228 387.531 99.4622 387.429C99.5384 387.689 99.6266 387.953 99.7499 388.2C100.664 390.14 102.588 390.895 104.056 389.878C105.515 388.866 105.965 386.466 105.047 384.516C104.868 384.133 104.654 383.801 104.406 383.522C104.643 383.24 104.873 382.939 105.1 382.629C109.366 376.779 115.755 368.471 122.574 358.32C128.28 377.505 133.755 392.738 137.073 401.092C150.499 434.904 186.263 458.396 244.842 421.386C303.421 384.376 324.089 352.796 304.663 304.465C300.998 295.349 295.542 281.877 288.576 266.348C297.597 268.208 305.513 269.165 310.962 270.001C311.256 270.045 311.546 270.079 311.833 270.104C311.793 270.481 311.79 270.873 311.827 271.265C312.055 273.282 313.411 274.596 314.863 274.212C316.314 273.828 317.305 271.874 317.089 269.862C317.063 269.598 317.01 269.347 316.943 269.115C317.145 269.008 317.344 268.891 317.542 268.774C318.386 270.006 319.791 270.816 321.31 270.729C323.78 270.581 325.418 268.216 324.74 265.592C324.393 264.241 323.521 263.202 322.455 262.635C322.529 262.484 322.599 262.324 322.661 262.168C323.804 262.75 325.206 262.961 326.688 262.638C330.285 261.878 332.569 258.444 331.729 255.239C331.029 252.516 328.297 250.978 325.454 251.369C325.496 251.091 325.529 250.817 325.565 250.553C328.321 249.718 330.338 247.372 330.101 245.204C329.857 242.984 327.319 241.81 324.437 242.579C323.953 242.704 323.498 242.89 323.063 243.1C321.664 242.621 320.603 241.883 319.299 240.786C321.367 238.224 321.542 235.525 321.241 234.405C320.845 232.968 319.559 232.205 318.003 232.4C316.854 232.545 314.596 233.45 312.768 235.805C295.422 236.47 280.374 232.166 270.004 227.93C258.236 205.484 244.331 182.54 228.924 164.074C216.648 147.2 222.242 130.117 243.183 130.297Z" fill="url(#paint0_linear)"/>
<path fill-rule="evenodd" clip-rule="evenodd" d="M213.166 304.31C199.923 317.058 196.551 316.942 171.631 321.182C150.664 324.749 144.16 369.641 187.488 366.071C230.816 362.5 272.817 315.881 256.787 289.069C243.112 266.197 228.166 289.863 213.166 304.31Z" fill="#A80043"/>
<path fill-rule="evenodd" clip-rule="evenodd" d="M213.778 311.44C201.974 323.112 197.858 323.23 175.163 326.722C156.269 329.63 149.638 368.804 188.685 362.43C227.73 356.048 267.114 315.601 253.469 295.805C239.82 276 227.195 298.172 213.778 311.44Z" fill="black"/>
<path fill-rule="evenodd" clip-rule="evenodd" d="M255.063 298.481C254.887 298.585 254.716 298.675 254.534 298.761C252.454 299.655 250.259 298.647 249.531 296.47C249.01 294.914 249.349 293.11 250.313 291.76C251.383 292.829 252.466 294.142 253.554 295.714C254.16 296.593 254.66 297.516 255.063 298.481ZM253.299 307.005C254.297 306.477 255.334 306.396 256.242 306.679C256.001 309.587 255.162 312.66 253.804 315.801C252.467 315.615 251.313 314.687 250.823 313.224C250.055 310.959 251.116 308.161 253.299 307.005ZM244.775 329.82C244.154 329.374 243.66 328.709 243.384 327.884C242.627 325.624 243.685 322.817 245.859 321.666C247.496 320.799 249.226 321.137 250.317 322.326C248.733 324.822 246.874 327.334 244.775 329.82ZM225.973 303.321C226.596 305.75 225.247 308.438 223.082 309.378C221.002 310.272 218.807 309.265 218.082 307.097C218.066 307.051 218.059 307 218.047 306.962C219.948 304.876 221.836 302.72 223.709 300.637C224.778 301.042 225.636 301.984 225.973 303.321ZM236.136 333.163C237.816 332.273 239.634 332.968 240.314 334.669C238.67 336.325 236.919 337.961 235.092 339.55C234.683 339.199 234.352 338.72 234.157 338.137C233.54 336.326 234.396 334.085 236.136 333.163ZM230.498 343.161C230.51 343.198 230.514 343.24 230.521 343.29C228.249 345.05 225.863 346.739 223.406 348.335C223.065 347.948 222.789 347.484 222.607 346.937C221.85 344.677 222.908 341.87 225.082 340.718C227.367 339.508 229.85 340.625 230.498 343.161ZM213.003 315.556C213.643 317.977 212.515 320.547 210.581 321.364C208.722 322.141 206.707 321.039 205.978 318.863C205.916 318.677 205.874 318.492 205.832 318.307C207.704 317 209.605 315.392 211.744 313.387C212.313 313.915 212.763 314.658 213.003 315.556ZM216.725 351.798C216.766 351.951 216.798 352.108 216.822 352.269C214.297 353.662 211.705 354.947 209.077 356.122C208.986 355.941 208.907 355.764 208.838 355.56C208.082 353.3 209.14 350.493 211.314 349.341C213.594 348.144 216.076 349.262 216.725 351.798ZM187.136 362.584C186.617 360.405 187.67 357.851 189.725 356.763C192.01 355.553 194.484 356.674 195.141 359.206C195.284 359.784 195.324 360.384 195.266 360.96C193.112 361.512 190.938 361.977 188.779 362.335C188.217 362.426 187.672 362.507 187.136 362.584ZM171.851 356.841C174.136 355.631 176.609 356.751 177.258 359.287C177.569 360.486 177.389 361.748 176.877 362.827C173.866 362.502 171.316 361.78 169.175 360.754C169.422 359.152 170.384 357.618 171.851 356.841ZM165.636 346.674C166.258 349.104 164.918 351.788 162.745 352.732C162.348 352.898 161.951 353 161.552 353.037C160.36 350.287 159.998 347.228 160.314 344.182C162.575 343.05 165 344.176 165.636 346.674ZM167.651 336.054C166.07 336.728 164.425 336.313 163.4 335.111C165.04 332.421 167.253 330.126 169.887 328.578C170.173 328.982 170.403 329.46 170.546 330.006C171.169 332.436 169.828 335.119 167.651 336.054ZM185.653 325.352C186.275 327.781 184.935 330.466 182.762 331.41C180.682 332.304 178.487 331.296 177.758 329.119C177.451 328.202 177.451 327.211 177.687 326.268C180.618 325.817 183.217 325.422 185.551 325.047C185.593 325.145 185.627 325.246 185.653 325.352ZM199.299 327.34C197.219 328.234 195.025 327.227 194.296 325.05C194.119 324.522 194.042 323.962 194.055 323.4C197.083 322.668 199.598 321.816 201.962 320.63C202.05 320.834 202.133 321.052 202.191 321.283C202.816 323.722 201.467 326.409 199.299 327.34ZM237.1 296.435C234.866 297.618 232.457 296.779 231.712 294.556C231.523 293.991 231.466 293.4 231.506 292.8C233.828 290.829 236.154 289.291 238.483 288.483C239.072 288.891 239.536 289.496 239.796 290.274C240.537 292.488 239.334 295.252 237.1 296.435Z" fill="white"/>
<g opacity="0.2">
<g opacity="0.2">
<path opacity="0.2" fill-rule="evenodd" clip-rule="evenodd" d="M259.846 298.089C262.86 325.069 225.46 361.996 187.078 365.251C169.257 366.756 159.878 359.718 156.471 350.795C157.626 362.246 166.817 373.041 188.47 371.214C229.775 367.717 269.944 325.216 259.846 298.089ZM175.609 328.109C198.38 324.553 202.509 324.424 214.373 312.697C227.86 299.366 240.571 277.113 254.219 296.929C254.905 297.929 255.453 298.97 255.87 300.069C255.495 297.823 254.683 295.721 253.362 293.813C239.715 273.998 227.007 296.26 213.517 309.582C201.652 321.309 197.523 321.438 174.752 324.994C163.708 326.722 156.817 340.764 160.733 350.912C159.085 341.219 165.666 329.666 175.609 328.109Z" fill="black"/>
</g>
</g>
<path fill-rule="evenodd" clip-rule="evenodd" d="M231.664 258.932C223.282 263.333 214.007 259.504 210.934 250.386C207.861 241.267 212.163 230.31 220.536 225.913C228.917 221.512 238.193 225.341 241.266 234.46C244.339 243.578 240.045 254.531 231.664 258.932ZM149.261 302.199C140.88 306.6 131.604 302.771 128.531 293.652C125.458 284.534 129.763 273.585 138.136 269.189C146.518 264.788 155.793 268.617 158.863 277.726C161.945 286.841 157.642 297.798 149.261 302.199Z" fill="white"/>
<path fill-rule="evenodd" clip-rule="evenodd" d="M224.241 240.309C221.89 241.525 220.691 244.593 221.564 247.159C222.437 249.725 225.051 250.822 227.402 249.606C229.752 248.391 230.951 245.323 230.078 242.756C229.206 240.19 226.591 239.094 224.241 240.309ZM144.041 281.781C141.691 282.997 140.492 286.065 141.365 288.631C142.237 291.197 144.852 292.293 147.202 291.078C149.553 289.863 150.752 286.795 149.879 284.228C149.006 281.662 146.392 280.566 144.041 281.781Z" fill="black"/>
<path fill-rule="evenodd" clip-rule="evenodd" d="M225.061 243.443C225.378 244.384 224.937 245.514 224.075 245.971C223.213 246.428 222.261 246.036 221.944 245.095C221.627 244.154 222.068 243.024 222.929 242.567C223.788 242.101 224.744 242.502 225.061 243.443Z" fill="white"/>
<path fill-rule="evenodd" clip-rule="evenodd" d="M145.064 284.366C145.381 285.308 144.941 286.438 144.079 286.894C143.217 287.351 142.264 286.96 141.947 286.018C141.631 285.077 142.071 283.947 142.933 283.49C143.791 283.024 144.747 283.425 145.064 284.366Z" fill="white"/>
<path opacity="0.3" fill-rule="evenodd" clip-rule="evenodd" d="M214.699 271.465L209.295 268.994L237.729 197.824L244.092 200.744L214.699 271.465ZM197.32 253.205L211.988 213.7L225.239 209.6L205.659 266.135L197.32 253.205ZM122.279 314.882L150.713 243.711L157.076 246.632L127.691 317.348L122.279 314.882ZM110.304 299.092L124.971 259.588L138.223 255.488L118.643 312.023L110.304 299.092Z" fill="white"/>
<path fill-rule="evenodd" clip-rule="evenodd" d="M268.06 195.324C268.965 199.24 271.527 204.13 267.972 206.909C264.425 209.683 265.414 211.14 265.414 211.14C266.112 223.038 275.787 240.628 262.405 257.422C249.014 274.221 219.63 281.44 210.914 281.712C202.199 281.983 193.1 260.903 188.139 253.364C185.949 250.029 183.457 250.138 181.762 250.804C180.096 251.65 177.577 253.762 178.014 258.784C178.849 268.533 184.533 291.501 178.256 299.152C171.979 306.804 147.205 328.196 128.176 328.473C109.146 328.75 105.876 307.704 99.5483 298.744C99.5483 298.744 99.4136 296.825 95.3265 298.079C91.2479 299.329 90.2423 293.596 88.6293 290.043C87.0247 286.486 84.9358 281.695 90.9838 277.231C97.0288 272.758 109.565 259.486 131.904 248.405C154.048 237.427 161.183 240.426 176.56 232.072C189.859 224.554 193.923 216.384 214.3 204.968C236.134 192.74 252.405 190.797 259.145 188.513C265.879 186.21 267.155 191.409 268.06 195.324ZM132.932 259.412C124.604 262.98 103.53 272.263 110.836 292.766C118.142 313.27 122.354 318.996 132.874 318.74C143.397 318.494 164.719 301.914 170.102 294.756C175.477 287.602 169.227 270.065 167.81 264.147C162.446 241.629 141.268 255.839 132.932 259.412ZM220.241 213.849C212.393 218.817 189.524 227.84 198.636 248.456C201.037 253.877 206.685 271.797 214.518 271.992C222.35 272.187 246.673 264.691 254.148 255.429C261.624 246.166 261.297 238.378 254.683 217.433C248.06 196.493 228.081 208.885 220.241 213.849Z" fill="#190918"/>
<path fill-rule="evenodd" clip-rule="evenodd" d="M254.08 200.782C253.164 201.252 252.693 202.449 253.037 203.453C253.381 204.458 254.403 204.9 255.327 204.426C256.243 203.956 256.714 202.759 256.368 201.746C256.024 200.741 255.005 200.308 254.08 200.782ZM259.626 197.939C258.71 198.408 258.239 199.606 258.582 200.61C258.926 201.615 259.948 202.056 260.873 201.583C261.789 201.113 262.26 199.916 261.913 198.902C261.569 197.898 260.55 197.465 259.626 197.939ZM94.3509 282.673C93.4349 283.143 92.9637 284.34 93.3074 285.344C93.6511 286.349 94.6733 286.791 95.5976 286.317C96.5135 285.847 96.9848 284.65 96.638 283.637C96.286 282.636 95.2668 282.203 94.3509 282.673ZM99.8964 279.83C98.9805 280.3 98.5092 281.497 98.8529 282.501C99.1966 283.506 100.219 283.948 101.143 283.474C102.059 283.004 102.53 281.807 102.184 280.794C101.832 279.793 100.812 279.36 99.8964 279.83Z" fill="#FCA203"/>
</g>
<path fill-rule="evenodd" clip-rule="evenodd" d="M442.647 10.2662C498.413 25.9059 522.175 -32.244 495.348 -53.0236C468.51 -73.8002 447.88 -51.919 431.816 -27.7485C410.655 4.08563 355.656 -19.4654 355.656 -19.4654L355.672 -19.4294C342.988 -24.2608 329.036 -24.8224 313.72 -19.7944C305.837 -17.2053 298.686 -13.4751 292.178 -8.7539C290.989 -7.89506 289.827 -7.00361 288.693 -6.07925C287.502 -5.11446 286.326 -4.11382 285.179 -3.08057L285.178 -3.09315C285.178 -3.09315 285.111 -3.02454 284.999 -2.91794C284.044 -2.05046 283.115 -1.1631 282.201 -0.252917C271.437 9.66879 233.96 41.3763 211.409 24.2508C191.259 8.9408 167.232 -2.01435 145.912 30.5451C124.593 63.1045 158.931 107.052 208.785 65.5573C232.23 46.0505 246.563 57.5421 241.183 87.8916C240.871 89.3938 240.562 90.9224 240.263 92.4346C240.211 92.6453 240.171 92.8534 240.131 93.0612C240.08 93.272 240.049 93.4501 240.03 93.6263C233.351 128.413 231.359 166.555 231.68 201.622C220.616 213.875 206.087 227.452 188.47 238.522C185.035 237.171 181.692 238.014 180.141 238.829C178.03 239.94 176.686 242.039 176.81 244.187C176.91 245.865 178.34 249.107 182.162 250.522C180.948 253.05 179.888 254.921 178.281 256.74C177.616 256.849 176.946 257.027 176.26 257.287C172.179 258.84 169.402 262.542 170.057 265.55C170.705 268.481 174.369 269.671 178.334 268.305C178.502 268.62 178.669 268.923 178.837 269.238C174.961 271.229 172.101 275.56 172.385 279.61C172.73 284.371 177.213 286.694 182.236 284.501C184.306 283.599 186.033 282.106 187.268 280.378C187.431 280.523 187.592 280.656 187.753 280.788C186.622 282.451 185.937 284.507 186.085 286.53C186.366 290.435 189.563 291.977 192.838 290.001C194.863 288.779 196.327 286.532 196.876 284.233C197.181 284.211 197.498 284.187 197.813 284.136C197.837 284.487 197.874 284.848 197.959 285.197C198.562 287.927 200.717 289.512 202.788 288.728C204.846 287.947 206.039 285.094 205.435 282.35C205.318 281.811 205.145 281.325 204.916 280.893C205.281 280.618 205.643 280.319 206.004 280.006C212.795 274.106 222.846 265.838 233.914 255.406C235.782 281.302 238.421 302.177 240.256 313.729C247.676 360.487 285.23 401.761 366.91 374.937C448.589 348.113 482.356 315.479 471.461 248.566C469.405 235.945 466.318 217.279 461.929 195.539C472.488 200.864 481.933 204.692 488.389 207.549C488.737 207.701 489.083 207.841 489.428 207.968C489.279 208.427 489.17 208.915 489.111 209.418C488.851 212.017 490.162 214.112 492.044 214.113C493.925 214.115 495.661 212.001 495.934 209.412C495.973 209.073 495.976 208.742 495.956 208.43C496.231 208.362 496.506 208.282 496.78 208.202C497.485 210.023 498.991 211.503 500.876 211.9C503.942 212.536 506.581 210.121 506.452 206.614C506.388 204.808 505.597 203.219 504.442 202.155C504.572 201.991 504.701 201.814 504.819 201.64C506.064 202.748 507.726 203.478 509.629 203.567C514.24 203.812 517.956 200.274 517.783 195.986C517.652 192.348 514.716 189.515 511.127 189.06C511.253 188.725 511.366 188.394 511.481 188.076C515.082 187.947 518.18 185.683 518.469 182.893C518.763 180.035 515.967 177.723 512.229 177.726C511.602 177.721 510.996 177.803 510.405 177.921C508.82 176.857 507.716 175.582 506.411 173.776C509.63 171.259 510.565 167.941 510.496 166.439C510.395 164.51 509.022 163.129 507.063 162.855C505.617 162.655 502.607 163.036 499.738 165.375C478.301 160.44 461.009 150.054 449.432 141.308C441.007 109.319 430.096 75.9979 416.147 47.7767C405.61 22.589 417.03 3.08001 442.647 10.2662Z" fill="url(#paint1_linear)"/>
<path fill-rule="evenodd" clip-rule="evenodd" d="M359.596 218.572C339.989 229.777 335.875 228.436 304.137 224.891C277.433 221.907 257.719 275.59 311.909 286.495C366.099 297.4 429.897 254.147 417.193 215.026C406.356 181.654 381.806 205.872 359.596 218.572Z" fill="#A80043"/>
<path fill-rule="evenodd" clip-rule="evenodd" d="M358.49 227.728C340.916 238.075 335.821 236.767 306.99 233.087C282.986 230.025 264.58 276.415 314.282 282.292C363.983 288.157 423.014 251.764 411.407 222.311C399.798 192.845 378.467 215.965 358.49 227.728Z" fill="black"/>
<path fill-rule="evenodd" clip-rule="evenodd" d="M412.67 226.204C412.426 226.271 412.192 226.324 411.946 226.366C409.153 226.743 406.717 224.713 406.39 221.747C406.156 219.627 407.046 217.502 408.585 216.163C409.622 217.872 410.61 219.888 411.538 222.229C412.052 223.536 412.426 224.862 412.67 226.204ZM408.269 236.186C409.635 235.881 410.932 236.148 411.975 236.82C410.918 240.353 409.082 243.88 406.59 247.307C404.994 246.603 403.817 245.041 403.597 243.047C403.244 239.958 405.282 236.852 408.269 236.186ZM391.814 261.555C391.167 260.782 390.733 259.779 390.609 258.656C390.27 255.576 392.306 252.458 395.282 251.794C397.523 251.294 399.562 252.327 400.593 254.192C397.992 256.738 395.047 259.205 391.814 261.555ZM375.618 221.941C375.749 225.183 373.386 228.05 370.477 228.453C367.684 228.831 365.248 226.801 364.922 223.848C364.915 223.785 364.92 223.719 364.915 223.668C367.8 221.744 370.687 219.73 373.535 217.801C374.745 218.682 375.553 220.158 375.618 221.941ZM380.312 262.66C382.612 262.147 384.667 263.654 385.059 266.011C382.603 267.49 380.02 268.906 377.357 270.237C376.946 269.656 376.664 268.943 376.577 268.148C376.292 265.677 377.931 263.191 380.312 262.66ZM370.761 273.105C370.767 273.156 370.761 273.209 370.756 273.274C367.501 274.66 364.124 275.918 360.683 277.034C360.366 276.433 360.148 275.757 360.066 275.013C359.726 271.933 361.762 268.815 364.738 268.151C367.866 267.454 370.627 269.721 370.761 273.105ZM356.462 232.576C356.615 235.814 354.556 238.613 351.962 238.946C349.473 239.255 347.282 237.172 346.955 234.206C346.927 233.954 346.924 233.708 346.921 233.463C349.565 232.499 352.324 231.171 355.481 229.432C356.042 230.29 356.401 231.374 356.462 232.576ZM351.558 278.98C351.569 279.185 351.568 279.391 351.555 279.601C348.084 280.44 344.56 281.124 341.019 281.655C340.954 281.398 340.903 281.149 340.873 280.872C340.533 277.792 342.569 274.674 345.545 274.011C348.663 273.328 351.424 275.597 351.558 278.98ZM312.337 281.937C312.269 279.042 314.232 276.238 317.045 275.611C320.173 274.913 322.922 277.183 323.068 280.564C323.093 281.335 322.986 282.095 322.764 282.792C319.969 282.717 317.174 282.526 314.424 282.209C313.709 282.122 313.017 282.031 312.337 281.937ZM295.036 269.388C298.164 268.69 300.914 270.959 301.048 274.343C301.117 275.944 300.566 277.451 299.653 278.612C296.035 277.143 293.086 275.343 290.722 273.31C291.444 271.403 293.029 269.836 295.036 269.388ZM290.051 254.542C290.181 257.785 287.831 260.65 284.91 261.056C284.379 261.123 283.863 261.109 283.362 261.013C282.616 257.171 282.971 253.238 284.156 249.56C287.234 248.951 289.922 251.209 290.051 254.542ZM295.309 242.042C293.187 242.321 291.273 241.223 290.326 239.365C293.047 236.599 296.37 234.526 300.015 233.531C300.261 234.136 300.419 234.812 300.452 235.541C300.582 238.784 298.232 241.648 295.309 242.042ZM320.254 235.093C320.384 238.335 318.033 241.201 315.112 241.607C312.32 241.984 309.884 239.954 309.557 236.988C309.419 235.739 309.677 234.505 310.215 233.415C313.939 233.89 317.238 234.318 320.208 234.677C320.235 234.814 320.25 234.951 320.254 235.093ZM336.521 242.391C333.728 242.768 331.292 240.739 330.965 237.773C330.886 237.054 330.938 236.33 331.1 235.634C335.016 235.795 338.334 235.625 341.552 234.985C341.607 235.27 341.652 235.57 341.662 235.878C341.794 239.133 339.432 242 336.521 242.391ZM391.108 217.308C388.05 217.99 385.306 216.094 384.972 213.065C384.887 212.295 384.971 211.54 385.177 210.808C388.549 209.177 391.813 208.086 394.89 207.904C395.507 208.62 395.919 209.537 396.036 210.597C396.369 213.613 394.166 216.626 391.108 217.308Z" fill="white"/>
<g opacity="0.2">
<g opacity="0.2">
<path opacity="0.2" fill-rule="evenodd" clip-rule="evenodd" d="M418.926 226.621C415.306 260.577 359.333 293.703 311.295 285.347C288.992 281.46 279.379 269.84 277.616 257.837C275.927 272.207 284.288 288.36 311.387 293.085C363.081 302.085 423.968 263.032 418.926 226.621ZM307.286 236.251C336.227 239.222 341.335 240.391 359.095 229.866C379.283 217.903 400.94 194.782 412.328 223.395C412.899 224.838 413.29 226.286 413.504 227.765C413.652 224.898 413.226 222.067 412.121 219.31C400.733 190.697 379.077 213.832 358.888 225.783C341.128 236.307 336.02 235.139 307.079 232.168C293.041 230.731 280.764 245.683 282.82 259.349C283.427 246.969 294.648 234.959 307.286 236.251Z" fill="black"/>
</g>
</g>
<path fill-rule="evenodd" clip-rule="evenodd" d="M394.426 168.16C382.922 170.636 372.482 162.657 371.092 150.341C369.701 138.024 377.898 126.036 389.391 123.563C400.896 121.088 411.335 129.067 412.726 141.383C414.116 153.699 405.931 165.685 394.426 168.16ZM281.319 192.496C269.814 194.971 259.375 186.992 257.984 174.676C256.593 162.36 264.792 150.383 276.285 147.911C287.789 145.436 298.229 153.414 299.618 165.718C301.02 178.032 292.823 190.021 281.319 192.496Z" fill="white"/>
<path fill-rule="evenodd" clip-rule="evenodd" d="M390.464 143.106C387.226 143.754 384.922 147.066 385.319 150.5C385.716 153.933 388.666 156.194 391.904 155.546C395.141 154.899 397.446 151.587 397.048 148.153C396.651 144.719 393.702 142.459 390.464 143.106ZM279.98 165.207C276.742 165.855 274.438 169.166 274.835 172.6C275.232 176.034 278.182 178.295 281.42 177.647C284.657 177 286.962 173.688 286.564 170.254C286.167 166.82 283.218 164.56 279.98 165.207Z" fill="black"/>
<path fill-rule="evenodd" clip-rule="evenodd" d="M390.778 147.429C390.922 148.727 390.089 149.99 388.914 150.255C387.74 150.521 386.675 149.686 386.531 148.388C386.387 147.09 387.22 145.827 388.394 145.561C389.567 145.283 390.634 146.131 390.778 147.429Z" fill="white"/>
<path fill-rule="evenodd" clip-rule="evenodd" d="M280.344 168.306C280.487 169.604 279.655 170.867 278.48 171.133C277.306 171.398 276.241 170.563 276.097 169.265C275.953 167.967 276.786 166.704 277.96 166.439C279.133 166.16 280.2 167.008 280.344 168.306Z" fill="white"/>
<path opacity="0.3" fill-rule="evenodd" clip-rule="evenodd" d="M370.097 177.564L364.087 172.601L417.824 94.5218L424.899 100.379L370.097 177.564ZM353.477 148.835L381.93 105.103L399.338 104.698L360.356 167.781L353.477 148.835ZM244.796 198.739L298.533 120.659L305.608 126.517L250.818 203.699L244.796 198.739ZM234.186 174.973L262.639 131.241L280.047 130.836L241.065 193.918L234.186 174.973Z" fill="white"/>
<path fill-rule="evenodd" clip-rule="evenodd" d="M455.852 102.167C455.94 107.34 457.813 114.305 452.704 116.495C447.606 118.682 448.443 120.836 448.443 120.836C446.179 135.83 453.484 161.047 432.59 177.141C411.684 193.238 373.59 191.817 362.781 189.078C351.972 186.338 346.294 157 342.161 145.905C340.338 140.998 337.239 140.253 334.975 140.481C332.702 140.942 329.043 142.671 328.264 149.049C326.735 161.427 327.711 191.903 317.97 199.171C308.229 206.44 272.095 224.213 248.577 217.841C225.06 211.469 226.554 184.229 221.11 170.891C221.11 170.891 221.447 168.465 216.083 168.577C210.73 168.687 210.996 161.226 209.941 156.253C208.897 151.278 207.581 144.602 216.203 141.203C224.824 137.792 243.752 125.767 274.181 119.914C304.342 114.121 312.345 120.356 333.482 115.427C351.84 110.802 358.99 102.11 387.09 95.15C417.197 87.6975 437.753 91.0318 446.656 90.5786C455.556 90.1004 455.764 96.9943 455.852 102.167ZM272.558 133.919C261.362 135.403 232.964 139.473 236.584 167.465C240.205 195.456 243.892 204.041 256.92 207.436C269.949 210.844 300.568 197.817 309.078 190.844C317.576 183.874 314.479 159.932 314.285 152.097C313.586 122.293 283.766 132.433 272.558 133.919ZM392.079 108.254C381.107 111.642 350.564 114.757 356.381 143.525C357.915 151.091 360.172 175.297 369.771 178.302C379.369 181.307 411.301 180.599 422.941 171.757C434.581 162.914 436.223 153.145 433.57 124.851C430.906 96.5588 403.04 104.868 392.079 108.254Z" fill="#190918"/>
<path fill-rule="evenodd" clip-rule="evenodd" d="M438.207 105.222C436.943 105.463 436.042 106.774 436.206 108.151C436.371 109.527 437.527 110.459 438.803 110.215C440.066 109.974 440.967 108.663 440.802 107.274C440.638 105.897 439.482 104.978 438.207 105.222ZM445.858 103.762C444.595 104.003 443.694 105.314 443.858 106.691C444.022 108.067 445.179 108.999 446.454 108.755C447.718 108.514 448.619 107.203 448.453 105.814C448.289 104.437 447.134 103.518 445.858 103.762ZM217.819 147.273C216.555 147.515 215.654 148.826 215.818 150.203C215.982 151.579 217.139 152.511 218.414 152.267C219.678 152.026 220.579 150.715 220.414 149.326C220.238 147.951 219.083 147.032 217.819 147.273ZM225.47 145.814C224.206 146.055 223.305 147.366 223.47 148.743C223.634 150.119 224.791 151.051 226.066 150.807C227.33 150.566 228.231 149.255 228.065 147.866C227.889 146.491 226.734 145.572 225.47 145.814Z" fill="#FCA203"/>
<g opacity="0.7">
<path fill-rule="evenodd" clip-rule="evenodd" d="M614.947 320.903C639.118 344.385 658.269 323.931 648.452 306.405C638.629 288.877 625.909 293.193 615.03 299.905C600.7 308.743 577.972 281.765 577.972 281.765L577.974 281.787C572.65 275.847 566.146 271.547 558.234 269.479C554.161 268.415 550.279 268.1 546.564 268.436C545.886 268.495 545.216 268.578 544.555 268.685C543.861 268.793 543.17 268.924 542.488 269.077L542.489 269.071C542.489 269.071 542.448 269.084 542.381 269.102C541.811 269.233 541.252 269.381 540.697 269.545C534.264 271.094 512.254 275.153 503.955 260.581C496.541 247.557 486.703 235.458 472.199 244.592C457.695 253.726 467.892 284.313 497.076 279.234C510.8 276.849 515.992 286.396 509.309 299.102C508.957 299.718 508.602 300.347 508.255 300.972C508.202 301.056 508.154 301.142 508.107 301.228C508.054 301.312 508.015 301.387 507.982 301.464C500.081 315.88 493.932 333.229 489.294 349.802C482.402 352.359 473.693 354.537 463.871 354.643C462.435 353.014 460.743 352.443 459.9 352.378C458.753 352.289 457.832 352.887 457.597 353.932C457.415 354.75 457.647 356.687 459.257 358.457C458.339 359.294 457.583 359.867 456.577 360.257C456.248 360.116 455.908 360.005 455.549 359.929C453.411 359.479 451.596 360.415 451.494 362.018C451.399 363.583 452.965 365.202 455.023 365.707C455.059 365.904 455.096 366.094 455.132 366.291C453.032 366.106 451.091 367.314 450.672 369.299C450.185 371.636 451.982 374.025 454.651 374.447C455.751 374.622 456.769 374.42 457.588 373.965C457.645 374.081 457.703 374.19 457.761 374.298C457 374.753 456.396 375.521 456.19 376.514C455.789 378.431 457.086 380.08 458.901 380.099C460.023 380.111 461.021 379.478 461.594 378.557C461.741 378.635 461.894 378.715 462.049 378.782C462.012 378.954 461.981 379.134 461.973 379.323C461.885 380.78 462.685 382.149 463.769 382.379C464.847 382.608 465.799 381.612 465.889 380.148C465.907 379.861 465.892 379.582 465.843 379.313C466.052 379.289 466.264 379.253 466.477 379.211C470.487 378.403 476.357 377.425 483.003 375.724C480.347 388.434 478.742 399.008 478.029 404.968C475.144 429.088 487.223 459.349 529.417 470.372C571.611 481.395 591.997 475.826 595.995 441.228C596.749 434.702 597.842 425.037 598.741 413.55C602.994 419.108 606.927 423.639 609.582 426.849C609.726 427.022 609.87 427.187 610.015 427.347C609.882 427.519 609.764 427.717 609.668 427.937C609.19 429.083 609.523 430.446 610.41 430.992C611.297 431.537 612.405 431.045 612.887 429.908C612.952 429.759 612.998 429.604 613.031 429.452C613.171 429.5 613.311 429.542 613.452 429.584C613.535 430.643 614.044 431.774 614.879 432.506C616.238 433.692 617.813 433.321 618.231 431.636C618.448 430.768 618.291 429.793 617.892 428.958C617.976 428.919 618.061 428.873 618.14 428.825C618.576 429.706 619.26 430.53 620.146 431.122C622.288 432.571 624.524 431.984 625.027 429.919C625.463 428.171 624.464 425.99 622.834 424.738C622.939 424.617 623.037 424.495 623.135 424.378C624.851 425.359 626.622 425.191 627.139 423.964C627.669 422.706 626.665 420.81 624.902 419.731C624.606 419.547 624.309 419.41 624.014 419.295C623.412 418.336 623.065 417.418 622.696 416.191C624.558 415.939 625.453 414.65 625.625 413.925C625.841 412.989 625.382 411.943 624.496 411.248C623.84 410.735 622.369 410.043 620.696 410.313C611.257 401.792 604.519 391.909 600.252 384.449C600.646 366.979 600.05 348.163 597.324 330.865C595.793 315.98 603.845 310.115 614.947 320.903Z" fill="url(#paint2_linear)"/>
<path fill-rule="evenodd" clip-rule="evenodd" d="M545.132 394.022C534.301 393.943 532.554 392.198 518.109 381.918C505.955 373.269 489.027 393.049 513 412.871C536.973 432.694 573.182 429.77 572.767 408.004C572.413 389.436 557.402 394.107 545.132 394.022Z" fill="#A80043"/>
<path fill-rule="evenodd" clip-rule="evenodd" d="M543.275 398.007C533.524 398.107 531.311 396.117 518.261 386.603C507.396 378.682 492.11 395.446 514.674 411.629C537.239 427.806 570.227 426.703 568.964 409.766C567.702 392.823 554.359 397.893 543.275 398.007Z" fill="black"/>
<path fill-rule="evenodd" clip-rule="evenodd" d="M569.005 411.929C568.88 411.894 568.763 411.856 568.641 411.809C567.272 411.231 566.415 409.622 566.684 408.144C566.876 407.087 567.598 406.332 568.514 406.12C568.759 407.201 568.936 408.413 569.039 409.76C569.095 410.512 569.081 411.234 569.005 411.929ZM565.509 415.417C566.195 415.643 566.768 416.118 567.163 416.715C566.161 418.085 564.794 419.242 563.131 420.174C562.48 419.413 562.149 418.363 562.33 417.369C562.605 415.827 564.007 414.922 565.509 415.417ZM554.141 422.858C553.947 422.321 553.886 421.734 553.988 421.174C554.267 419.639 555.671 418.728 557.167 419.221C558.293 419.593 559.106 420.628 559.325 421.78C557.737 422.27 555.999 422.63 554.141 422.858ZM552.167 399.92C551.766 401.474 550.245 402.179 548.817 401.582C547.448 401.004 546.591 399.395 546.859 397.924C546.865 397.892 546.876 397.862 546.881 397.837C548.514 397.715 550.161 397.551 551.777 397.417C552.221 398.157 552.391 399.067 552.167 399.92ZM548.568 420.268C549.724 420.649 550.477 421.911 550.325 423.121C548.957 423.15 547.539 423.116 546.095 423.02C545.985 422.637 545.954 422.227 546.026 421.83C546.244 420.596 547.371 419.874 548.568 420.268ZM542.58 422.582C542.576 422.607 542.565 422.63 542.554 422.66C540.823 422.429 539.054 422.106 537.275 421.7C537.211 421.332 537.205 420.957 537.272 420.586C537.552 419.051 538.955 418.14 540.451 418.633C542.024 419.151 543 420.96 542.58 422.582ZM541.63 399.727C541.24 401.286 539.871 402.041 538.602 401.496C537.386 400.969 536.652 399.4 536.921 397.922C536.944 397.796 536.977 397.681 537.011 397.565C538.394 397.827 539.882 397.951 541.617 397.989C541.758 398.543 541.773 399.148 541.63 399.727ZM532.7 420.146C532.676 420.245 532.646 420.341 532.61 420.436C530.856 419.891 529.099 419.259 527.356 418.551C527.363 418.414 527.374 418.283 527.399 418.145C527.679 416.61 529.082 415.699 530.578 416.192C532.143 416.715 533.12 418.524 532.7 420.146ZM513.811 410.934C514.192 409.559 515.516 408.776 516.93 409.242C518.503 409.76 519.474 411.566 519.06 413.19C518.962 413.558 518.803 413.885 518.599 414.152C517.293 413.361 516.004 412.517 514.755 411.625C514.431 411.391 514.118 411.162 513.811 410.934ZM507.455 400.379C509.028 400.897 509.999 402.703 509.579 404.325C509.383 405.094 508.908 405.651 508.313 405.949C506.819 404.283 505.688 402.643 504.864 401.051C505.476 400.353 506.446 400.047 507.455 400.379ZM507.226 392.076C506.825 393.63 505.309 394.338 503.876 393.739C503.616 393.627 503.376 393.481 503.153 393.301C503.35 391.299 504.078 389.552 505.161 388.148C506.697 388.695 507.641 390.479 507.226 392.076ZM511.485 387.639C510.446 387.197 509.702 386.165 509.521 385.039C511.197 384.477 513.057 384.404 514.915 384.923C514.945 385.273 514.923 385.632 514.834 385.983C514.433 387.538 512.917 388.245 511.485 387.639ZM524.222 391.123C523.821 392.678 522.305 393.385 520.872 392.786C519.503 392.208 518.646 390.599 518.915 389.121C519.028 388.498 519.326 387.99 519.735 387.625C521.42 388.853 522.913 389.946 524.26 390.916C524.253 390.987 524.24 391.056 524.222 391.123ZM530.84 398.938C529.472 398.36 528.614 396.751 528.883 395.273C528.948 394.915 529.076 394.59 529.252 394.308C531.073 395.441 532.659 396.258 534.266 396.827C534.251 396.976 534.23 397.129 534.19 397.276C533.788 398.836 532.267 399.541 530.84 398.938ZM560.121 401.934C558.584 401.428 557.563 399.798 557.838 398.288C557.907 397.905 558.055 397.573 558.256 397.286C560.077 397.433 561.769 397.804 563.244 398.55C563.432 399.052 563.496 399.593 563.399 400.121C563.126 401.625 561.659 402.441 560.121 401.934Z" fill="white"/>
<g opacity="0.2">
<g opacity="0.2">
<path opacity="0.2" fill-rule="evenodd" clip-rule="evenodd" d="M571.54 414.505C565.151 429.642 534.295 429.549 512.894 411.96C502.959 403.79 500.049 395.535 500.879 389.322C498.101 395.684 499.797 405.741 511.868 415.669C534.898 434.601 568.879 433.265 571.54 414.505ZM517.79 387.455C530.969 397.069 533.206 399.073 542.998 399.096C554.129 399.122 567.491 394.253 568.887 411.1C568.956 411.949 568.94 412.749 568.836 413.513C569.301 412.191 569.492 410.722 569.354 409.097C567.957 392.251 554.595 397.126 543.465 397.094C533.673 397.071 531.436 395.067 518.257 385.453C511.864 380.791 504.035 384.43 503.113 391.517C505.108 385.796 512.035 383.259 517.79 387.455Z" fill="black"/>
</g>
</g>
<path fill-rule="evenodd" clip-rule="evenodd" d="M571.025 379.861C565.254 378.007 561.51 371.509 562.653 365.344C563.796 359.18 569.4 355.686 575.164 357.538C580.935 359.393 584.679 365.89 583.536 372.055C582.393 378.22 576.795 381.715 571.025 379.861ZM514.292 361.63C508.522 359.776 504.777 353.279 505.921 347.114C507.064 340.949 512.666 337.462 518.431 339.314C524.201 341.168 527.945 347.666 526.803 353.825C525.666 359.991 520.063 363.485 514.292 361.63Z" fill="white"/>
<path fill-rule="evenodd" clip-rule="evenodd" d="M572.844 366.156C571.224 365.659 569.643 366.666 569.314 368.404C568.985 370.142 570.033 371.955 571.653 372.452C573.273 372.949 574.854 371.943 575.183 370.205C575.512 368.467 574.464 366.653 572.844 366.156ZM517.56 349.193C515.94 348.696 514.359 349.702 514.03 351.44C513.701 353.178 514.749 354.992 516.369 355.489C517.989 355.986 519.57 354.979 519.899 353.241C520.228 351.503 519.18 349.69 517.56 349.193Z" fill="black"/>
<path fill-rule="evenodd" clip-rule="evenodd" d="M572.451 367.851C572.332 368.497 571.758 368.86 571.165 368.663C570.572 368.467 570.189 367.785 570.307 367.139C570.426 366.493 571 366.13 571.593 366.327C572.187 366.517 572.569 367.205 572.451 367.851Z" fill="white"/>
<path fill-rule="evenodd" clip-rule="evenodd" d="M517.25 351.416C517.131 352.062 516.557 352.425 515.964 352.228C515.372 352.031 514.988 351.35 515.107 350.704C515.225 350.057 515.8 349.694 516.392 349.891C516.986 350.082 517.368 350.77 517.25 351.416Z" fill="white"/>
<path opacity="0.3" fill-rule="evenodd" clip-rule="evenodd" d="M558.463 378.152L556.351 374.22L592.898 351.854L595.381 356.489L558.463 378.152ZM554.789 360.233L574.485 347.268L582.733 351.712L555.292 370.963L554.789 360.233ZM496.46 354.736L533.007 332.37L535.49 337.005L498.578 358.669L496.46 354.736ZM494.898 340.749L514.594 327.784L522.842 332.228L495.401 351.479L494.898 340.749Z" fill="white"/>
<path fill-rule="evenodd" clip-rule="evenodd" d="M609.54 365.517C608.836 367.969 608.713 371.739 605.994 371.403C603.281 371.069 603.364 372.303 603.364 372.303C600.138 378.738 599.941 392.525 587.791 394.503C575.635 396.479 557.917 385.643 553.226 381.472C548.536 377.301 550.092 362.013 549.746 355.701C549.596 352.911 548.245 351.734 547.147 351.237C546.011 350.846 544.041 350.681 542.755 353.468C540.252 358.87 536.319 373.437 530.688 374.248C525.058 375.06 505.496 373.758 495.349 364.489C485.203 355.221 489.832 342.832 489.192 335.117C489.192 335.117 489.701 334.068 487.161 332.689C484.627 331.312 485.827 327.881 486.047 325.265C486.273 322.65 486.616 319.165 491.163 319.871C495.71 320.571 506.349 319.979 521.508 325.354C536.534 330.685 539.401 335.748 550.056 339.077C559.359 341.806 563.976 339.634 578.2 343.868C593.439 348.406 602.63 355.459 606.884 357.623C611.14 359.774 610.244 363.066 609.54 365.517ZM518.727 331.495C513.245 329.203 499.298 323.533 496.967 337.64C494.636 351.746 495.134 356.76 500.774 361.832C506.413 366.909 522.696 368.967 527.705 367.966C532.708 366.963 534.701 354.896 535.739 351.167C539.705 336.989 524.214 333.789 518.727 331.495ZM578.659 351.351C573.008 350.013 558.189 343.322 556.78 358.38C556.411 362.341 553.985 374.306 558.068 378.279C562.151 382.252 577.276 390.444 584.027 389.4C590.778 388.356 592.958 384.208 595.788 370.218C598.612 356.226 584.303 352.688 578.659 351.351Z" fill="#190918"/>
<path fill-rule="evenodd" clip-rule="evenodd" d="M601.705 359.452C601.073 359.263 600.449 359.665 600.316 360.353C600.184 361.041 600.587 361.757 601.225 361.948C601.856 362.138 602.48 361.736 602.614 361.041C602.746 360.353 602.342 359.643 601.705 359.452ZM605.53 360.598C604.898 360.408 604.274 360.81 604.142 361.499C604.01 362.187 604.413 362.903 605.05 363.094C605.682 363.283 606.306 362.881 606.44 362.187C606.572 361.499 606.168 360.788 605.53 360.598ZM491.516 326.456C490.885 326.267 490.261 326.669 490.128 327.357C489.996 328.045 490.399 328.762 491.036 328.952C491.668 329.142 492.292 328.74 492.426 328.045C492.552 327.355 492.148 326.645 491.516 326.456ZM495.342 327.602C494.71 327.412 494.086 327.815 493.954 328.503C493.821 329.191 494.224 329.907 494.862 330.098C495.494 330.287 496.118 329.885 496.251 329.191C496.378 328.501 495.974 327.791 495.342 327.602Z" fill="#FCA203"/>
</g>
<path fill-rule="evenodd" clip-rule="evenodd" d="M200.859 437.071C179.942 439.78 164.944 458.923 167.36 479.826C169.777 500.73 188.693 515.48 209.611 512.771L367.13 492.37L360.147 501.434L378.964 515.592L393.1 497.246L383.758 490.217L410.506 486.752C431.424 484.043 446.422 464.901 444.005 443.997C441.588 423.093 422.672 408.344 401.754 411.053L200.859 437.071Z" fill="white"/>
<path d="M256.543 475.068C257.1 474.987 257.379 474.655 257.52 473.893L257.921 472.004L261.624 471.465L262.406 473.181C262.69 473.873 263.045 474.121 263.609 474.039C264.205 473.952 264.562 473.537 264.504 472.978C264.481 472.76 264.401 472.512 264.258 472.193L260.806 464.918C260.37 463.972 259.865 463.636 258.991 463.763C258.11 463.891 257.681 464.372 257.45 465.407L255.584 473.457C255.494 473.872 255.464 474.121 255.486 474.331C255.541 474.859 255.971 475.152 256.543 475.068ZM258.223 470.375L259.125 465.889L259.225 465.874L261.007 469.969L258.223 470.375ZM267.389 470.83C267.319 470.154 267.772 469.678 268.607 469.556L270.184 469.326L270.273 470.181C270.353 470.958 269.728 471.665 268.847 471.793C268.05 471.909 267.46 471.514 267.389 470.83ZM270.433 471.885L270.534 471.871L270.564 472.158C270.681 472.685 271.068 472.937 271.609 472.858C272.243 472.765 272.558 472.317 272.485 471.618L272.019 467.111C271.83 465.285 270.518 464.434 268.369 464.748C267.472 464.878 266.8 465.134 266.31 465.481C265.629 465.951 265.347 466.489 265.397 466.971C265.44 467.391 265.75 467.653 266.198 467.588C266.531 467.539 266.738 467.422 266.951 467.202C267.365 466.724 267.781 466.427 268.4 466.336C269.335 466.2 269.898 466.56 269.984 467.391L270.054 468.067L268.106 468.351C266.243 468.623 265.219 469.726 265.377 471.249C265.532 472.749 266.719 473.602 268.319 473.369C269.324 473.222 270.092 472.684 270.433 471.885ZM276.002 469.575C275.932 468.899 276.385 468.423 277.219 468.302L278.797 468.072L278.885 468.927C278.965 469.704 278.34 470.41 277.459 470.539C276.663 470.655 276.072 470.259 276.002 469.575ZM279.046 470.631L279.146 470.616L279.176 470.904C279.293 471.431 279.68 471.682 280.221 471.603C280.855 471.511 281.17 471.063 281.098 470.363L280.631 465.856C280.442 464.03 279.13 463.18 276.981 463.493C276.084 463.624 275.412 463.879 274.922 464.227C274.241 464.697 273.959 465.235 274.009 465.717C274.053 466.136 274.362 466.399 274.811 466.333C275.143 466.285 275.351 466.168 275.563 465.948C275.977 465.469 276.393 465.172 277.012 465.082C277.947 464.946 278.51 465.305 278.596 466.137L278.666 466.813L276.718 467.097C274.855 467.368 273.831 468.472 273.989 469.995C274.144 471.495 275.331 472.347 276.931 472.114C277.936 471.968 278.705 471.43 279.046 470.631ZM284.614 468.321C284.544 467.645 284.997 467.169 285.832 467.047L287.409 466.817L287.497 467.672C287.578 468.449 286.952 469.156 286.071 469.284C285.275 469.4 284.685 469.005 284.614 468.321ZM287.658 469.376L287.758 469.362L287.788 469.649C287.906 470.176 288.293 470.428 288.834 470.349C289.468 470.256 289.782 469.808 289.71 469.109L289.243 464.602C289.054 462.776 287.742 461.925 285.593 462.239C284.696 462.369 284.024 462.625 283.534 462.972C282.853 463.442 282.572 463.98 282.621 464.462C282.665 464.882 282.974 465.144 283.423 465.079C283.755 465.03 283.963 464.913 284.176 464.693C284.589 464.215 285.006 463.917 285.624 463.827C286.559 463.691 287.122 464.051 287.209 464.882L287.279 465.558L285.33 465.842C283.467 466.114 282.444 467.217 282.601 468.74C282.756 470.24 283.943 471.093 285.544 470.86C286.549 470.713 287.317 470.175 287.658 469.376ZM293.226 467.066C293.156 466.39 293.609 465.914 294.444 465.793L296.021 465.563L296.11 466.418C296.19 467.195 295.565 467.901 294.683 468.029C293.887 468.145 293.297 467.75 293.226 467.066ZM296.27 468.122L296.371 468.107L296.4 468.395C296.518 468.922 296.905 469.173 297.446 469.094C298.08 469.002 298.394 468.554 298.322 467.854L297.856 463.347C297.667 461.521 296.354 460.671 294.205 460.984C293.308 461.115 292.636 461.37 292.147 461.718C291.465 462.188 291.184 462.726 291.234 463.207C291.277 463.627 291.587 463.89 292.035 463.824C292.368 463.776 292.575 463.659 292.788 463.439C293.201 462.96 293.618 462.663 294.236 462.573C295.172 462.437 295.735 462.796 295.821 463.628L295.891 464.304L293.943 464.588C292.079 464.859 291.056 465.963 291.213 467.486C291.369 468.986 292.555 469.838 294.156 469.605C295.161 469.459 295.929 468.921 296.27 468.122ZM300.16 467.563C300.229 468.231 300.826 468.696 301.483 468.601C302.148 468.504 302.633 467.881 302.564 467.213C302.496 466.552 301.898 466.087 301.233 466.184C300.576 466.28 300.091 466.902 300.16 467.563ZM304.288 466.962C304.357 467.63 304.955 468.095 305.612 467.999C306.277 467.903 306.761 467.28 306.692 466.611C306.624 465.951 306.026 465.486 305.362 465.583C304.704 465.678 304.22 466.301 304.288 466.962ZM308.416 466.36C308.485 467.029 309.083 467.494 309.74 467.398C310.405 467.301 310.89 466.678 310.821 466.01C310.752 465.35 310.155 464.884 309.49 464.981C308.833 465.077 308.348 465.7 308.416 466.36ZM312.299 464.604C312.435 465.909 314.245 466.797 316.348 466.491C318.86 466.125 320.387 464.577 320.189 462.658C320.042 461.243 318.966 460.398 317.63 460.459L317.619 460.35C318.777 460.008 319.476 458.952 319.35 457.739C319.175 456.045 317.494 455.123 315.275 455.446C313.242 455.742 311.688 457.175 311.811 458.364C311.861 458.854 312.245 459.153 312.756 459.078C313.127 459.024 313.389 458.828 313.565 458.487C313.887 457.73 314.519 457.236 315.447 457.101C316.498 456.948 317.291 457.408 317.378 458.247C317.471 459.141 316.828 459.834 315.777 459.987L315.081 460.089C314.602 460.158 314.295 460.534 314.344 461.001C314.393 461.475 314.777 461.774 315.248 461.705L315.936 461.605C317.235 461.416 318.053 461.888 318.158 462.898C318.262 463.908 317.536 464.622 316.244 464.81C315.201 464.962 314.404 464.62 313.973 464.013C313.68 463.685 313.384 463.554 313.051 463.603C312.556 463.675 312.246 464.083 312.299 464.604ZM329.9 464.367C330.565 464.27 330.908 463.794 330.834 463.079L329.955 454.585C329.881 453.87 329.451 453.507 328.786 453.604C328.129 453.7 327.786 454.175 327.86 454.89L328.199 458.162L323.769 458.807L323.43 455.536C323.356 454.821 322.926 454.457 322.269 454.553C321.604 454.65 321.269 455.125 321.343 455.84L322.222 464.333C322.296 465.048 322.718 465.413 323.383 465.316C324.04 465.22 324.383 464.744 324.309 464.029L323.947 460.532L328.377 459.887L328.739 463.384C328.813 464.099 329.243 464.462 329.9 464.367ZM334.425 457.586C334.225 455.651 335.009 454.354 336.501 454.137C337.993 453.919 339.018 454.953 339.218 456.888L339.361 458.271C339.559 460.183 338.771 461.442 337.279 461.659C335.787 461.876 334.766 460.881 334.568 458.97L334.425 457.586ZM332.482 459.281C332.79 462.265 334.631 463.827 337.461 463.415C340.275 463.005 341.758 460.959 341.449 457.975L341.306 456.592C340.993 453.569 339.133 451.97 336.319 452.38C333.52 452.788 332.026 454.875 332.338 457.898L332.482 459.281ZM343.514 457.903C343.581 458.406 344.023 458.728 344.533 458.654C345.028 458.582 345.384 458.159 345.354 457.635L344.972 452.13C344.933 451.52 344.403 451.1 343.761 451.194C343.119 451.287 342.698 451.845 342.784 452.448L343.514 457.903ZM343.618 461.335C343.685 461.98 344.257 462.354 344.899 462.261C345.548 462.166 346.027 461.639 345.96 460.994C345.894 460.349 345.321 459.975 344.672 460.069C344.03 460.163 343.551 460.69 343.618 461.335ZM347.828 457.275C347.895 457.778 348.337 458.1 348.847 458.025C349.342 457.953 349.698 457.531 349.668 457.007L349.286 451.501C349.247 450.892 348.717 450.472 348.075 450.565C347.433 450.659 347.012 451.217 347.098 451.82L347.828 457.275ZM347.932 460.707C347.998 461.352 348.571 461.726 349.212 461.632C349.862 461.538 350.341 461.01 350.274 460.365C350.207 459.72 349.635 459.346 348.986 459.441C348.344 459.534 347.865 460.062 347.932 460.707ZM352.141 456.646C352.209 457.149 352.651 457.471 353.161 457.397C353.656 457.325 354.012 456.902 353.981 456.378L353.6 450.873C353.56 450.263 353.03 449.843 352.389 449.937C351.747 450.03 351.326 450.589 351.412 451.191L352.141 456.646ZM352.246 460.078C352.312 460.723 352.885 461.097 353.526 461.004C354.176 460.909 354.655 460.382 354.588 459.737C354.521 459.092 353.949 458.718 353.299 458.813C352.658 458.906 352.179 459.433 352.246 460.078ZM256 492.872C256.094 493.773 256.596 494.15 257.531 494.014L268.262 492.451L268.399 493.779C268.467 494.44 268.935 494.64 269.422 494.569C269.925 494.496 270.33 494.161 270.262 493.508L270.074 491.69C269.99 490.874 269.566 490.501 268.716 490.625L268.616 490.64L267.806 482.822C267.733 482.107 267.31 481.743 266.645 481.84C265.981 481.937 265.645 482.411 265.719 483.126L266.528 490.944L263.335 491.409L262.526 483.591C262.452 482.877 262.022 482.513 261.357 482.61C260.7 482.706 260.357 483.182 260.431 483.897L261.24 491.714L258.047 492.179L257.238 484.362C257.164 483.647 256.734 483.283 256.077 483.379C255.412 483.476 255.077 483.951 255.151 484.666L256 492.872ZM274.123 483.046C271.881 483.373 270.482 485.02 270.728 487.398L270.829 488.369C271.082 490.809 272.772 491.975 275.014 491.648C277.248 491.323 278.65 489.707 278.397 487.259L278.296 486.287C278.051 483.917 276.358 482.72 274.123 483.046ZM274.288 484.639C275.347 484.485 276.062 485.248 276.206 486.639L276.301 487.556C276.446 488.963 275.908 489.901 274.849 490.055C273.805 490.207 273.068 489.455 272.922 488.048L272.828 487.131C272.684 485.74 273.245 484.791 274.288 484.639ZM285.383 486.367L285.269 485.272C285.133 483.951 285.709 483.07 286.776 482.915C287.866 482.756 288.568 483.474 288.715 484.896L288.792 485.642C288.938 487.056 288.404 487.962 287.33 488.119C286.286 488.271 285.508 487.58 285.383 486.367ZM285.935 491.706L285.619 488.644L285.719 488.63C286.172 489.447 287.067 489.822 288.188 489.658C290.113 489.378 291.129 487.826 290.892 485.533L290.774 484.391C290.536 482.099 289.25 480.89 287.34 481.168C286.188 481.336 285.341 482.019 285.1 482.954L285 482.968L284.959 482.572C284.846 481.941 284.455 481.644 283.852 481.731C283.21 481.825 282.896 482.281 282.972 483.011L283.902 492.002C283.977 492.725 284.382 493.076 285.032 492.982C285.689 492.886 286.01 492.429 285.935 491.706ZM295.677 479.906C293.435 480.233 292.036 481.88 292.282 484.258L292.383 485.229C292.635 487.67 294.325 488.835 296.567 488.509C298.802 488.183 300.204 486.567 299.951 484.119L299.85 483.148C299.605 480.778 297.911 479.581 295.677 479.906ZM295.842 481.499C296.901 481.345 297.616 482.109 297.76 483.5L297.855 484.417C298 485.823 297.462 486.761 296.403 486.916C295.359 487.068 294.622 486.315 294.476 484.909L294.381 483.992C294.237 482.601 294.798 481.651 295.842 481.499ZM304.972 480.627C306.032 480.472 306.767 481.209 306.911 482.6L306.958 483.051C307.106 484.489 306.557 485.397 305.482 485.554C304.4 485.711 303.673 484.981 303.525 483.551L303.478 483.1C303.335 481.717 303.913 480.781 304.972 480.627ZM305.761 477.704C307.376 477.311 308.136 476.695 308.059 475.949C308.009 475.467 307.685 475.215 307.213 475.284C306.927 475.325 306.756 475.413 306.436 475.665C306.137 475.882 305.807 476.025 305.165 476.197L304.716 476.326C301.945 477.076 300.945 478.792 301.312 482.335L301.436 483.54C301.711 486.19 303.243 487.497 305.647 487.147C307.99 486.805 309.255 485.154 309.006 482.753L308.944 482.147C308.724 480.025 307.241 478.735 305.339 479.012C304.172 479.182 303.367 479.827 303.006 480.882L302.921 480.894C302.859 479.16 303.42 478.289 305.142 477.865L305.761 477.704ZM317.546 485.35C318.188 485.257 318.473 484.829 318.395 484.075L317.765 477.982C317.688 477.236 317.279 476.854 316.607 476.952C315.98 477.043 315.728 477.333 315.251 478.341L312.96 482.966L312.875 482.978L312.434 478.719C312.356 477.966 311.992 477.632 311.35 477.726C310.709 477.819 310.423 478.247 310.501 479.001L311.124 485.016C311.206 485.808 311.632 486.212 312.274 486.118C312.939 486.021 313.214 485.721 313.668 484.732L315.945 480.109L316.022 480.098L316.463 484.356C316.541 485.11 316.912 485.443 317.546 485.35ZM323.422 484.494C324.048 484.403 324.403 483.965 324.326 483.219L323.741 477.569L325.38 477.331C325.859 477.261 326.152 476.903 326.104 476.436C326.055 475.97 325.699 475.714 325.22 475.784L319.909 476.558C319.429 476.628 319.136 476.978 319.184 477.444C319.233 477.911 319.59 478.174 320.069 478.104L321.708 477.866L322.292 483.515C322.369 484.253 322.788 484.587 323.422 484.494ZM334.632 482.861C335.273 482.768 335.559 482.34 335.481 481.586L334.85 475.494C334.773 474.748 334.364 474.365 333.692 474.463C333.066 474.555 332.813 474.844 332.337 475.852L330.045 480.477L329.96 480.489L329.519 476.231C329.441 475.477 329.077 475.143 328.436 475.237C327.794 475.33 327.509 475.758 327.587 476.512L328.209 482.527C328.291 483.32 328.718 483.723 329.359 483.629C330.024 483.533 330.299 483.232 330.754 482.243L333.03 477.62L333.107 477.609L333.548 481.868C333.626 482.621 333.998 482.954 334.632 482.861ZM338.754 478.112C338.806 478.609 339.154 478.937 339.718 478.855C340.259 478.776 340.428 478.436 340.574 477.949C340.684 477.271 340.911 476.961 341.601 476.277C342.515 475.395 343.103 474.638 342.979 473.434C342.799 471.701 341.274 470.842 339.241 471.139C338.143 471.299 337.331 471.709 336.816 472.273C336.395 472.752 336.15 473.34 336.203 473.853C336.247 474.28 336.554 474.591 337.041 474.52C337.365 474.472 337.536 474.298 337.742 473.944C338.048 473.253 338.528 472.891 339.27 472.783C340.121 472.659 340.845 473.066 340.924 473.828C340.995 474.512 340.616 474.946 339.927 475.645C338.969 476.621 338.659 477.195 338.754 478.112ZM338.778 481.224C338.845 481.869 339.417 482.243 340.059 482.15C340.701 482.056 341.188 481.528 341.121 480.883C341.054 480.238 340.474 479.865 339.832 479.958C339.191 480.052 338.712 480.579 338.778 481.224ZM346.563 476.974C346.614 477.472 346.962 477.8 347.526 477.717C348.067 477.639 348.236 477.298 348.382 476.812C348.492 476.133 348.719 475.824 349.41 475.14C350.323 474.257 350.912 473.501 350.787 472.297C350.608 470.564 349.083 469.705 347.049 470.001C345.952 470.161 345.139 470.571 344.624 471.135C344.203 471.615 343.958 472.203 344.011 472.716C344.055 473.143 344.362 473.453 344.849 473.382C345.174 473.335 345.344 473.16 345.551 472.807C345.856 472.116 346.336 471.754 347.078 471.646C347.929 471.522 348.654 471.929 348.732 472.69C348.803 473.374 348.424 473.808 347.736 474.508C346.777 475.484 346.468 476.057 346.563 476.974ZM346.587 480.087C346.653 480.732 347.226 481.106 347.867 481.012C348.509 480.919 348.996 480.39 348.929 479.745C348.862 479.1 348.282 478.727 347.64 478.821C346.999 478.914 346.52 479.442 346.587 480.087ZM354.371 475.837C354.422 476.334 354.77 476.662 355.335 476.58C355.876 476.501 356.045 476.161 356.19 475.674C356.301 474.996 356.528 474.687 357.218 474.002C358.131 473.12 358.72 472.364 358.595 471.159C358.416 469.426 356.891 468.568 354.858 468.864C353.76 469.024 352.947 469.434 352.432 469.998C352.011 470.477 351.766 471.065 351.819 471.578C351.863 472.006 352.17 472.316 352.657 472.245C352.982 472.198 353.152 472.023 353.359 471.669C353.664 470.978 354.144 470.616 354.887 470.508C355.737 470.384 356.462 470.791 356.541 471.553C356.611 472.237 356.233 472.671 355.544 473.371C354.585 474.346 354.276 474.92 354.371 475.837ZM354.395 478.949C354.461 479.594 355.034 479.968 355.676 479.875C356.317 479.781 356.804 479.253 356.737 478.608C356.67 477.963 356.09 477.59 355.449 477.683C354.807 477.777 354.328 478.304 354.395 478.949Z" fill="black"/>
<defs>
<filter id="filter0_f" x="42.9146" y="277.932" width="642.449" height="290.062" filterUnits="userSpaceOnUse" color-interpolation-filters="sRGB">
<feFlood flood-opacity="0" result="BackgroundImageFix"/>
<feBlend mode="normal" in="SourceGraphic" in2="BackgroundImageFix" result="shape"/>
<feGaussianBlur stdDeviation="50" result="effect1_foregroundBlur"/>
</filter>
<linearGradient id="paint0_linear" x1="240.478" y1="424.247" x2="95.6929" y2="152.763" gradientUnits="userSpaceOnUse">
<stop stop-color="#FF4D00"/>
<stop offset="1" stop-color="#FFF619"/>
</linearGradient>
<linearGradient id="paint1_linear" x1="360.797" y1="377.065" x2="265.366" y2="-12.9752" gradientUnits="userSpaceOnUse">
<stop stop-color="#FFA800"/>
<stop offset="1" stop-color="#FFE717"/>
</linearGradient>
<linearGradient id="paint2_linear" x1="526.242" y1="469.604" x2="592.152" y2="278.591" gradientUnits="userSpaceOnUse">
<stop stop-color="#FF4D00"/>
<stop offset="1" stop-color="#FFF619"/>
</linearGradient>
</defs>
</svg>
