<svg width="60" height="61" viewBox="0 0 60 61" fill="none" xmlns="http://www.w3.org/2000/svg">
<g clip-path="url(#clip0)">
<path d="M37.6905 25.5407L36.5854 22.9227C36.5854 22.9227 39.1499 17.1429 38.9272 16.9205L35.5308 13.6071C35.294 13.3787 29.5031 16.0149 29.5031 16.0149L26.8313 14.9373C26.8313 14.9373 24.4651 9.07867 24.1453 9.07867H19.3482C19.0163 9.07867 16.8343 14.9535 16.8343 14.9535L14.1646 16.0351C14.1646 16.0351 8.25018 13.5242 8.02348 13.7405L4.62909 17.0621C4.39429 17.2945 7.09645 22.9571 7.09645 22.9571L5.99534 25.5751C5.99534 25.5751 0 27.8777 0 28.1931V32.8873C0 33.2108 6.00951 35.3476 6.00951 35.3476L7.11264 37.9575C7.11264 37.9575 4.5461 43.7414 4.77077 43.9638L8.16921 47.2812C8.39793 47.5056 14.1929 44.8654 14.1929 44.8654L16.8667 45.951C16.8667 45.951 19.2268 51.8056 19.5507 51.8056H24.3477C24.6777 51.8056 26.8657 45.9308 26.8657 45.9308L29.5375 44.8492C29.5375 44.8492 35.4438 47.3601 35.6725 47.1438L39.0689 43.8223C39.3017 43.5979 36.5975 37.9312 36.5975 37.9312L37.7027 35.3133C37.7027 35.3133 43.7 33.0025 43.7 32.6872V27.997C43.7021 27.6756 37.6905 25.5407 37.6905 25.5407ZM21.85 37.2864C17.9941 37.2864 14.8487 34.2135 14.8487 30.4391C14.8487 26.6688 17.9941 23.5959 21.85 23.5959C25.712 23.5959 28.8513 26.6688 28.8513 30.4391C28.8513 34.2155 25.712 37.2864 21.85 37.2864Z" fill="white"/>
<path d="M57.7633 20.0741L57.7916 18.7075C57.7916 18.7075 60.0546 16.6738 59.9999 16.5323L59.162 14.4136C59.0992 14.268 56.0368 14.2883 56.0368 14.2883L55.0773 13.2936C55.0773 13.2936 55.1947 10.2571 55.051 10.1945L52.944 9.25038C52.7942 9.18366 50.683 11.3428 50.683 11.3428L49.2986 11.2882C49.2986 11.2882 47.1955 9.02598 47.0539 9.08056L44.9063 9.87506C44.7626 9.9256 44.8334 12.9439 44.8334 12.9439L43.8315 13.8799C43.8315 13.8799 40.7488 13.7141 40.6861 13.8516L39.7611 15.9136C39.6963 16.0592 41.9167 18.1758 41.9167 18.1758L41.8884 19.5344C41.8884 19.5344 39.6275 21.5722 39.6821 21.7137L40.5221 23.8344C40.5828 23.9759 43.6453 23.9536 43.6453 23.9536L44.6027 24.9523C44.6027 24.9523 44.4914 27.9888 44.6351 28.0515L46.7421 28.9915C46.8879 29.0582 49.001 26.9113 49.001 26.9113L50.3875 26.9578C50.3875 26.9578 52.4865 29.22 52.6322 29.1694L54.7737 28.3749C54.9215 28.3244 54.8506 25.3021 54.8506 25.3021L55.8505 24.3741C55.8505 24.3741 58.9332 24.5318 58.998 24.3943L59.923 22.3323C59.9817 22.1908 57.7633 20.0741 57.7633 20.0741ZM52.9197 20.4926C52.1768 22.1503 50.1932 22.8862 48.493 22.1281C46.8008 21.374 46.0236 19.407 46.7664 17.7452C47.5052 16.0915 49.4949 15.3597 51.187 16.1138C52.8812 16.8759 53.6585 18.8389 52.9197 20.4926Z" fill="white"/>
</g>
<defs>
<clipPath id="clip0">
<rect y="0.47876" width="60" height="59.9269" fill="white"/>
</clipPath>
</defs>
</svg>
