<svg width="50" height="50" viewBox="0 0 50 50" fill="none" xmlns="http://www.w3.org/2000/svg">
<circle cx="25" cy="25" r="25" fill="white"/>
<path d="M30.5524 12H20.4476C16.341 12 13 15.341 13 19.4476V29.5524C13 33.659 16.341 37 20.4476 37H30.5524C34.659 37 38 33.659 38 29.5524V19.4476C38 15.341 34.659 12 30.5524 12ZM35.485 29.5524C35.485 32.2766 33.2766 34.485 30.5524 34.485H20.4476C17.7234 34.485 15.515 32.2766 15.515 29.5524V19.4476C15.515 16.7234 17.7234 14.515 20.4476 14.515H30.5524C33.2766 14.515 35.485 16.7234 35.485 19.4476V29.5524Z" fill="url(#paint0_linear)"/>
<path d="M25.5001 18.0341C21.9348 18.0341 19.0342 20.9347 19.0342 24.5C19.0342 28.0652 21.9348 30.9659 25.5001 30.9659C29.0654 30.9659 31.966 28.0653 31.966 24.5C31.966 20.9347 29.0654 18.0341 25.5001 18.0341ZM25.5001 28.4509C23.318 28.4509 21.5492 26.682 21.5492 24.5C21.5492 22.318 23.3181 20.5491 25.5001 20.5491C27.6821 20.5491 29.451 22.318 29.451 24.5C29.451 26.682 27.6821 28.4509 25.5001 28.4509Z" fill="url(#paint1_linear)"/>
<path d="M31.978 19.6321C32.8337 19.6321 33.5273 18.9384 33.5273 18.0828C33.5273 17.2271 32.8337 16.5334 31.978 16.5334C31.1224 16.5334 30.4287 17.2271 30.4287 18.0828C30.4287 18.9384 31.1224 19.6321 31.978 19.6321Z" fill="url(#paint2_linear)"/>
<defs>
<linearGradient id="paint0_linear" x1="25.5" y1="36.9272" x2="25.5" y2="12.1942" gradientUnits="userSpaceOnUse">
<stop stop-color="#E09B3D"/>
<stop offset="0.3" stop-color="#C74C4D"/>
<stop offset="0.6" stop-color="#C21975"/>
<stop offset="1" stop-color="#7024C4"/>
</linearGradient>
<linearGradient id="paint1_linear" x1="25.5001" y1="36.9272" x2="25.5001" y2="12.1942" gradientUnits="userSpaceOnUse">
<stop stop-color="#E09B3D"/>
<stop offset="0.3" stop-color="#C74C4D"/>
<stop offset="0.6" stop-color="#C21975"/>
<stop offset="1" stop-color="#7024C4"/>
</linearGradient>
<linearGradient id="paint2_linear" x1="31.978" y1="36.9272" x2="31.978" y2="12.1942" gradientUnits="userSpaceOnUse">
<stop stop-color="#E09B3D"/>
<stop offset="0.3" stop-color="#C74C4D"/>
<stop offset="0.6" stop-color="#C21975"/>
<stop offset="1" stop-color="#7024C4"/>
</linearGradient>
</defs>
</svg>
