<svg width="50" height="50" viewBox="0 0 50 50" fill="none" xmlns="http://www.w3.org/2000/svg">
<g clip-path="url(#clip0)">
<mask id="path-2-inside-1" fill="white">
<path d="M49.0242 25.7716C48.4045 25.15 47.5612 24.8002 46.681 24.8002C45.8008 24.8002 44.9571 25.15 44.3378 25.7716L34.6208 35.4164L34.6018 35.4345C35.0912 34.4141 35.0204 33.2156 34.4133 32.2596C33.8066 31.3032 32.7488 30.7234 31.6114 30.7234H14.2152C13.9952 30.7234 13.7849 30.8103 13.6295 30.9646L10.754 33.8223L8.71948 30.3198C8.49094 29.9262 7.98412 29.7911 7.58813 30.0187L0.414147 34.1355C0.0177496 34.3627 -0.117754 34.8664 0.110782 35.26L8.39468 49.521C8.62362 49.9146 9.13003 50.0497 9.52643 49.8221L16.7004 45.7053C17.0964 45.4781 17.2323 44.9744 17.0034 44.5808L15.65 42.2506H35.4136C36.5118 42.2478 37.5647 41.8152 38.3437 41.0457L49.0205 30.4243C49.6471 29.8104 49.9998 28.9722 49.9998 28.0977C49.9998 27.2229 49.6471 26.3847 49.0205 25.7707L49.0242 25.7716ZM9.4156 47.9844L1.9601 35.1498L7.69896 31.8564L15.1545 44.691L9.4156 47.9844ZM47.8475 29.26L37.1699 39.8818C36.7027 40.3425 36.0717 40.6018 35.4136 40.6039H14.6938L14.3528 40.0165L11.6132 35.297L14.5578 32.3702H31.6114C32.5264 32.3702 33.2682 33.1075 33.2682 34.0169C33.2682 34.9263 32.5264 35.6636 31.6114 35.6636H22.4991V37.3104H34.0303C34.6916 37.312 35.3262 37.0503 35.7922 36.5831L45.5116 26.9358C46.1632 26.3071 47.1995 26.3071 47.8512 26.9358C48.1667 27.2414 48.345 27.6607 48.345 28.0989C48.345 28.5368 48.1667 28.9565 47.8512 29.2616L47.8475 29.26Z"/>
</mask>
<path d="M49.0242 25.7716C48.4045 25.15 47.5612 24.8002 46.681 24.8002C45.8008 24.8002 44.9571 25.15 44.3378 25.7716L34.6208 35.4164L34.6018 35.4345C35.0912 34.4141 35.0204 33.2156 34.4133 32.2596C33.8066 31.3032 32.7488 30.7234 31.6114 30.7234H14.2152C13.9952 30.7234 13.7849 30.8103 13.6295 30.9646L10.754 33.8223L8.71948 30.3198C8.49094 29.9262 7.98412 29.7911 7.58813 30.0187L0.414147 34.1355C0.0177496 34.3627 -0.117754 34.8664 0.110782 35.26L8.39468 49.521C8.62362 49.9146 9.13003 50.0497 9.52643 49.8221L16.7004 45.7053C17.0964 45.4781 17.2323 44.9744 17.0034 44.5808L15.65 42.2506H35.4136C36.5118 42.2478 37.5647 41.8152 38.3437 41.0457L49.0205 30.4243C49.6471 29.8104 49.9998 28.9722 49.9998 28.0977C49.9998 27.2229 49.6471 26.3847 49.0205 25.7707L49.0242 25.7716ZM9.4156 47.9844L1.9601 35.1498L7.69896 31.8564L15.1545 44.691L9.4156 47.9844ZM47.8475 29.26L37.1699 39.8818C36.7027 40.3425 36.0717 40.6018 35.4136 40.6039H14.6938L14.3528 40.0165L11.6132 35.297L14.5578 32.3702H31.6114C32.5264 32.3702 33.2682 33.1075 33.2682 34.0169C33.2682 34.9263 32.5264 35.6636 31.6114 35.6636H22.4991V37.3104H34.0303C34.6916 37.312 35.3262 37.0503 35.7922 36.5831L45.5116 26.9358C46.1632 26.3071 47.1995 26.3071 47.8512 26.9358C48.1667 27.2414 48.345 27.6607 48.345 28.0989C48.345 28.5368 48.1667 28.9565 47.8512 29.2616L47.8475 29.26Z" fill="black"/>
<path d="M49.0242 25.7716L45.5733 41.395L98.9474 53.184L60.355 14.4749L49.0242 25.7716ZM44.3378 25.7716L55.6093 37.1273L55.6408 37.096L55.6723 37.0645L44.3378 25.7716ZM34.6208 35.4164L45.6508 47.0069L45.7728 46.8908L45.8923 46.7722L34.6208 35.4164ZM34.6018 35.4345L20.1755 28.5148L45.6318 47.0249L34.6018 35.4345ZM34.4133 32.2596L20.9025 40.8303L20.9067 40.837L34.4133 32.2596ZM13.6295 30.9646L24.908 42.3135L24.9088 42.3127L13.6295 30.9646ZM10.754 33.8223L-3.08113 41.859L7.33025 59.7823L22.0325 45.1712L10.754 33.8223ZM8.71948 30.3198L-5.11719 38.3539L-5.1157 38.3564L8.71948 30.3198ZM7.58813 30.0187L15.5518 43.896L15.5599 43.8913L7.58813 30.0187ZM0.414147 34.1355L8.36919 48.0178L8.37777 48.0128L0.414147 34.1355ZM0.110782 35.26L-13.7259 43.2941L-13.7244 43.2966L0.110782 35.26ZM8.39468 49.521L-5.44056 57.5576L-5.43581 57.5657L8.39468 49.521ZM9.52643 49.8221L1.56281 35.9448L1.56079 35.9459L9.52643 49.8221ZM16.7004 45.7053L8.73925 31.8265L8.73679 31.8279L16.7004 45.7053ZM17.0034 44.5808L3.16776 52.6167L3.17288 52.6255L17.0034 44.5808ZM15.65 42.2506V26.2506H-12.1461L1.81435 50.2865L15.65 42.2506ZM35.4136 42.2506V58.2506H35.4341L35.4546 58.2505L35.4136 42.2506ZM38.3437 41.0457L49.5875 52.4289L49.6077 52.4089L49.6279 52.3888L38.3437 41.0457ZM49.0205 30.4243L37.8227 18.9959L37.7794 19.0384L37.7363 19.0812L49.0205 30.4243ZM49.0205 25.7707L52.4714 10.1473L-2.08435 -1.90271L37.8227 37.1992L49.0205 25.7707ZM9.4156 47.9844L-4.41954 56.0211L3.57509 69.7838L17.3796 61.8616L9.4156 47.9844ZM1.9601 35.1498L-6.00387 21.2727L-19.9541 29.2786L-11.875 43.1866L1.9601 35.1498ZM7.69896 31.8564L21.5341 23.8196L13.5395 10.057L-0.265004 17.9792L7.69896 31.8564ZM15.1545 44.691L23.1184 58.5681L37.0686 50.5622L28.9896 36.6542L15.1545 44.691ZM47.8475 29.26L54.3128 14.6244L44.3135 10.2072L36.5635 17.9167L47.8475 29.26ZM37.1699 39.8818L48.4047 51.2739L48.4293 51.2496L48.4539 51.2251L37.1699 39.8818ZM35.4136 40.6039V56.6039H35.438L35.4625 56.6038L35.4136 40.6039ZM14.6938 40.6039L0.856377 48.6367L5.48145 56.6039H14.6938V40.6039ZM14.3528 40.0165L0.515173 48.049L0.515394 48.0494L14.3528 40.0165ZM11.6132 35.297L0.333906 23.9489L-8.4224 32.6522L-2.22442 43.3295L11.6132 35.297ZM14.5578 32.3702V16.3702H7.95889L3.27857 21.0221L14.5578 32.3702ZM22.4991 35.6636V19.6636H6.49914V35.6636H22.4991ZM22.4991 37.3104H6.49914V53.3104H22.4991V37.3104ZM34.0303 37.3104L34.0692 21.3104L34.0497 21.3104H34.0303V37.3104ZM35.7922 36.5831L24.5207 25.2273L24.4923 25.2555L24.464 25.2839L35.7922 36.5831ZM45.5116 26.9358L34.4015 15.4221L34.3203 15.5005L34.2401 15.5801L45.5116 26.9358ZM47.8512 26.9358L58.9821 15.4423L58.9717 15.4322L58.9613 15.4221L47.8512 26.9358ZM47.8512 29.2616L41.3859 43.8972L51.235 48.2481L58.9746 40.7625L47.8512 29.2616ZM60.355 14.4749C56.7262 10.8352 51.8028 8.80023 46.681 8.80023V40.8002C43.3195 40.8002 40.0829 39.4648 37.6934 37.0682L60.355 14.4749ZM46.681 8.80023C41.5621 8.80023 36.6354 10.8332 33.0033 14.4786L55.6723 37.0645C53.2787 39.4668 50.0395 40.8002 46.681 40.8002V8.80023ZM33.0663 14.4158L23.3493 24.0606L45.8923 46.7722L55.6093 37.1273L33.0663 14.4158ZM23.5908 23.8259L23.5718 23.844L45.6318 47.0249L45.6508 47.0069L23.5908 23.8259ZM49.0281 42.3542C51.9048 36.3568 51.4878 29.3005 47.9199 23.6822L20.9067 40.837C18.5531 37.1308 18.2776 32.4715 20.1755 28.5148L49.0281 42.3542ZM47.9241 23.6889C44.3661 18.0801 38.1964 14.7234 31.6114 14.7234V46.7234C27.3013 46.7234 23.247 44.5262 20.9025 40.8303L47.9241 23.6889ZM31.6114 14.7234H14.2152V46.7234H31.6114V14.7234ZM14.2152 14.7234C9.77476 14.7234 5.50771 16.4783 2.35027 19.6166L24.9088 42.3127C22.062 45.1422 18.2156 46.7234 14.2152 46.7234V14.7234ZM2.35107 19.6158L-0.524426 22.4735L22.0325 45.1712L24.908 42.3135L2.35107 19.6158ZM24.5892 25.7857L22.5547 22.2831L-5.1157 38.3564L-3.08113 41.859L24.5892 25.7857ZM22.5561 22.2857C17.8843 14.2396 7.61447 11.55 -0.383629 16.146L15.5599 43.8913C8.35377 48.0322 -0.90237 45.6128 -5.11719 38.3539L22.5561 22.2857ZM-0.375495 16.1413L-7.54948 20.2582L8.37777 48.0128L15.5518 43.896L-0.375495 16.1413ZM-7.5409 20.2532C-15.6066 24.8752 -18.426 35.1994 -13.7259 43.2941L13.9474 27.2259C18.1905 34.5334 15.6421 43.8501 8.36919 48.0178L-7.5409 20.2532ZM-13.7244 43.2966L-5.44055 57.5576L22.2299 41.4844L13.946 27.2234L-13.7244 43.2966ZM-5.43581 57.5657C-0.763924 65.5976 9.49389 68.2897 17.4921 63.6983L1.56079 35.9459C8.76618 31.8097 18.0112 34.2316 22.2252 41.4763L-5.43581 57.5657ZM17.4901 63.6995L24.664 59.5826L8.73679 31.8279L1.56281 35.9448L17.4901 63.6995ZM24.6616 59.584C32.7108 54.9668 35.5505 44.6449 30.8339 36.5361L3.17288 52.6255C-1.08586 45.3039 1.482 35.9894 8.73925 31.8265L24.6616 59.584ZM30.839 36.5449L29.4856 34.2147L1.81435 50.2865L3.16777 52.6167L30.839 36.5449ZM15.65 58.2506H35.4136V26.2506H15.65V58.2506ZM35.4546 58.2505C40.7285 58.237 45.81 56.1601 49.5875 52.4289L27.0999 29.6625C29.3193 27.4703 32.2951 26.2585 35.3726 26.2506L35.4546 58.2505ZM49.6279 52.3888L60.3048 41.7674L37.7363 19.0812L27.0595 29.7026L49.6279 52.3888ZM60.2184 41.8527C63.9068 38.2387 65.9998 33.2854 65.9998 28.0977H33.9998C33.9998 24.6589 35.3873 21.3821 37.8227 18.9959L60.2184 41.8527ZM65.9998 28.0977C65.9998 22.9107 63.9076 17.9571 60.2184 14.3423L37.8227 37.1992C35.3866 34.8122 33.9998 31.5351 33.9998 28.0977H65.9998ZM45.5697 41.3942L45.5733 41.395L52.475 10.1481L52.4714 10.1473L45.5697 41.3942ZM23.2507 39.9477L15.7952 27.1131L-11.875 43.1866L-4.41954 56.0211L23.2507 39.9477ZM9.92406 49.027L15.6629 45.7335L-0.265004 17.9792L-6.00387 21.2727L9.92406 49.027ZM-6.13619 39.8931L1.31932 52.7277L28.9896 36.6542L21.5341 23.8196L-6.13619 39.8931ZM7.1905 30.8138L1.45164 34.1073L17.3796 61.8616L23.1184 58.5681L7.1905 30.8138ZM36.5635 17.9167L25.8859 28.5385L48.4539 51.2251L59.1315 40.6034L36.5635 17.9167ZM25.9351 28.4897C28.4617 25.998 31.8516 24.6147 35.3647 24.6039L35.4625 56.6038C40.2918 56.589 44.9437 54.6871 48.4047 51.2739L25.9351 28.4897ZM35.4136 24.6039H14.6938V56.6039H35.4136V24.6039ZM28.5311 32.571L28.1901 31.9836L0.515394 48.0494L0.856377 48.6367L28.5311 32.571ZM28.1904 31.984L25.4508 27.2645L-2.22442 43.3295L0.515173 48.049L28.1904 31.984ZM22.8925 46.645L25.8371 43.7182L3.27857 21.0221L0.333906 23.9489L22.8925 46.645ZM14.5578 48.3702H31.6114V16.3702H14.5578V48.3702ZM31.6114 48.3702C23.7816 48.3702 17.2682 42.0356 17.2682 34.0169H49.2682C49.2682 24.1794 41.2711 16.3702 31.6114 16.3702V48.3702ZM17.2682 34.0169C17.2682 25.9982 23.7816 19.6636 31.6114 19.6636V51.6636C41.2711 51.6636 49.2682 43.8544 49.2682 34.0169H17.2682ZM31.6114 19.6636H22.4991V51.6636H31.6114V19.6636ZM6.49914 35.6636V37.3104H38.4991V35.6636H6.49914ZM22.4991 53.3104H34.0303V21.3104H22.4991V53.3104ZM33.9913 53.3103C38.8996 53.3223 43.6311 51.3806 47.1204 47.8823L24.464 25.2839C27.0214 22.72 30.4836 21.3017 34.0692 21.3104L33.9913 53.3103ZM47.0637 47.9389L56.7831 38.2916L34.2401 15.5801L24.5207 25.2273L47.0637 47.9389ZM56.6217 38.4496C51.0743 43.8025 42.2885 43.8025 36.7411 38.4496L58.9613 15.4221C52.1106 8.81164 41.2522 8.81164 34.4015 15.4221L56.6217 38.4496ZM36.7202 38.4294C33.9405 35.7374 32.345 32.0166 32.345 28.0989H64.345C64.345 23.3048 62.3929 18.7454 58.9821 15.4423L36.7202 38.4294ZM32.345 28.0989C32.345 24.1848 33.938 20.459 36.7278 17.7608L58.9746 40.7625C62.3954 37.454 64.345 32.8887 64.345 28.0989H32.345ZM54.3165 14.626L54.3128 14.6244L41.3822 43.8956L41.3859 43.8972L54.3165 14.626Z" fill="black" mask="url(#path-2-inside-1)"/>
<mask id="path-4-inside-2" fill="white">
<path d="M16.7005 28.2547H34.9251C35.3826 28.2547 35.7535 27.886 35.7535 27.4313V1.0835C35.7535 0.628798 35.3826 0.260132 34.9251 0.260132H16.7005C14.414 0.262544 12.561 2.10427 12.5586 4.37698V24.1378C12.5574 25.2298 12.9934 26.2779 13.7704 27.0498C14.5475 27.8221 15.6016 28.2555 16.7005 28.2547ZM16.7005 26.6079C15.3277 26.6079 14.2154 25.5019 14.2154 24.1378C14.2154 22.7733 15.3277 21.6677 16.7005 21.6677H34.0967V23.3145H16.7005V24.9612H34.0967V26.6079H16.7005ZM34.0967 20.021H17.5289V1.90687H34.0967V20.021ZM14.2154 4.37698C14.2194 3.33369 14.8828 2.4058 15.8722 2.05844V20.103C15.8131 20.1155 15.7593 20.1404 15.7015 20.1553C15.5328 20.1959 15.3665 20.2469 15.2043 20.308C15.1214 20.3402 15.0438 20.3748 14.9641 20.4118C14.8132 20.4821 14.6664 20.5613 14.5252 20.649C14.4556 20.692 14.3849 20.7314 14.3189 20.78C14.2849 20.8029 14.2473 20.8202 14.2154 20.8452V4.37698Z"/>
</mask>
<path d="M16.7005 28.2547H34.9251C35.3826 28.2547 35.7535 27.886 35.7535 27.4313V1.0835C35.7535 0.628798 35.3826 0.260132 34.9251 0.260132H16.7005C14.414 0.262544 12.561 2.10427 12.5586 4.37698V24.1378C12.5574 25.2298 12.9934 26.2779 13.7704 27.0498C14.5475 27.8221 15.6016 28.2555 16.7005 28.2547ZM16.7005 26.6079C15.3277 26.6079 14.2154 25.5019 14.2154 24.1378C14.2154 22.7733 15.3277 21.6677 16.7005 21.6677H34.0967V23.3145H16.7005V24.9612H34.0967V26.6079H16.7005ZM34.0967 20.021H17.5289V1.90687H34.0967V20.021ZM14.2154 4.37698C14.2194 3.33369 14.8828 2.4058 15.8722 2.05844V20.103C15.8131 20.1155 15.7593 20.1404 15.7015 20.1553C15.5328 20.1959 15.3665 20.2469 15.2043 20.308C15.1214 20.3402 15.0438 20.3748 14.9641 20.4118C14.8132 20.4821 14.6664 20.5613 14.5252 20.649C14.4556 20.692 14.3849 20.7314 14.3189 20.78C14.2849 20.8029 14.2473 20.8202 14.2154 20.8452V4.37698Z" fill="black"/>
<path d="M16.7005 28.2547V12.2547L16.6888 12.2547L16.7005 28.2547ZM16.7005 0.260132V-15.7399H16.6921L16.6837 -15.7399L16.7005 0.260132ZM12.5586 4.37698L-3.44139 4.35989L-3.4414 4.36843V4.37698H12.5586ZM12.5586 24.1378L28.5586 24.1556L28.5586 24.1467V24.1378H12.5586ZM13.7704 27.0498L25.0497 15.7017L25.0468 15.6988L13.7704 27.0498ZM34.0967 21.6677H50.0967V5.66772H34.0967V21.6677ZM34.0967 23.3145V39.3145H50.0967V23.3145H34.0967ZM16.7005 23.3145V7.31446H0.700541V23.3145H16.7005ZM16.7005 24.9612H0.700541V40.9612H16.7005V24.9612ZM34.0967 24.9612H50.0967V8.9612H34.0967V24.9612ZM34.0967 26.6079V42.6079H50.0967V26.6079H34.0967ZM34.0967 20.021V36.021H50.0967V20.021H34.0967ZM17.5289 20.021H1.52893V36.021H17.5289V20.021ZM17.5289 1.90687V-14.0931H1.52893V1.90687H17.5289ZM34.0967 1.90687H50.0967V-14.0931H34.0967V1.90687ZM14.2154 4.37698L-1.7845 4.31494L-1.78463 4.34596V4.37698H14.2154ZM15.8722 2.05844H31.8722V-20.5164L10.5719 -13.0382L15.8722 2.05844ZM15.8722 20.103L19.176 35.7582L31.8722 33.0788V20.103H15.8722ZM15.7015 20.1553L19.4463 35.7109L19.5666 35.6819L19.6865 35.651L15.7015 20.1553ZM15.2043 20.308L9.56334 5.33543L9.49068 5.3628L9.41829 5.39088L15.2043 20.308ZM14.9641 20.4118L8.22762 5.89901L8.21479 5.90496L8.20198 5.91094L14.9641 20.4118ZM14.5252 20.649L22.9397 34.2576L22.9522 34.2499L22.9647 34.2422L14.5252 20.649ZM14.3189 20.78L23.2656 34.0449L23.5461 33.8557L23.8184 33.6548L14.3189 20.78ZM14.2154 20.8452H-1.78463V53.6181L24.0563 33.4609L14.2154 20.8452ZM16.7005 44.2547H34.9251V12.2547H16.7005V44.2547ZM34.9251 44.2547C44.1273 44.2547 51.7535 36.8141 51.7535 27.4313H19.7535C19.7535 18.9579 26.6379 12.2547 34.9251 12.2547V44.2547ZM51.7535 27.4313V1.0835H19.7535V27.4313H51.7535ZM51.7535 1.0835C51.7535 -8.29931 44.1273 -15.7399 34.9251 -15.7399V16.2601C26.6379 16.2601 19.7535 9.55691 19.7535 1.0835H51.7535ZM34.9251 -15.7399H16.7005V16.2601H34.9251V-15.7399ZM16.6837 -15.7399C5.66535 -15.7282 -3.42945 -6.82737 -3.44139 4.35989L28.5586 4.39406C28.5515 11.0359 23.1626 16.2533 16.7174 16.2601L16.6837 -15.7399ZM-3.4414 4.37698V24.1378H28.5586V4.37698H-3.4414ZM-3.44139 24.12C-3.44736 29.4923 -1.30191 34.6297 2.49412 38.4008L25.0468 15.6988C27.2887 17.926 28.5621 20.9672 28.5586 24.1556L-3.44139 24.12ZM2.49117 38.3978C6.2801 42.1638 11.3985 44.2586 16.7122 44.2547L16.6888 12.2547C19.8046 12.2524 22.8148 13.4804 25.0497 15.7017L2.49117 38.3978ZM16.7005 10.6079C24.0741 10.6079 30.2154 16.5755 30.2154 24.1378H-1.78463C-1.78463 34.4284 6.58129 42.6079 16.7005 42.6079V10.6079ZM30.2154 24.1378C30.2154 31.7014 24.0724 37.6677 16.7005 37.6677V5.66772C6.58299 5.66772 -1.78463 13.8452 -1.78463 24.1378H30.2154ZM16.7005 37.6677H34.0967V5.66772H16.7005V37.6677ZM18.0967 21.6677V23.3145H50.0967V21.6677H18.0967ZM34.0967 7.31446H16.7005V39.3145H34.0967V7.31446ZM0.700541 23.3145V24.9612H32.7005V23.3145H0.700541ZM16.7005 40.9612H34.0967V8.9612H16.7005V40.9612ZM18.0967 24.9612V26.6079H50.0967V24.9612H18.0967ZM34.0967 10.6079H16.7005V42.6079H34.0967V10.6079ZM34.0967 4.02099H17.5289V36.021H34.0967V4.02099ZM33.5289 20.021V1.90687H1.52893V20.021H33.5289ZM17.5289 17.9069H34.0967V-14.0931H17.5289V17.9069ZM18.0967 1.90687V20.021H50.0967V1.90687H18.0967ZM30.2153 4.43901C30.1928 10.2182 26.5223 15.2768 21.1724 17.155L10.5719 -13.0382C3.24329 -10.4652 -1.75401 -3.55083 -1.7845 4.31494L30.2153 4.43901ZM-0.127848 2.05844V20.103H31.8722V2.05844H-0.127848ZM12.5683 4.44783C11.9854 4.57084 11.5096 4.70459 11.1855 4.80288C10.8764 4.89661 10.6328 4.98083 10.5837 4.99771C10.5751 5.00069 10.5678 5.00318 10.5632 5.00478C10.5608 5.00559 10.5588 5.00629 10.5575 5.00675C10.5568 5.00699 10.5562 5.0072 10.5557 5.00735C10.5553 5.00752 10.555 5.0076 10.5548 5.00768C10.5516 5.00879 10.5613 5.00542 10.5743 5.00098C10.5997 4.99227 10.6687 4.96865 10.759 4.93904C10.9358 4.88107 11.2773 4.77239 11.7164 4.65949L19.6865 35.651C20.1545 35.5307 20.5245 35.4133 20.7294 35.3461C20.8338 35.3119 20.9169 35.2835 20.9564 35.27C20.9763 35.2631 20.9931 35.2573 20.9969 35.256C21.005 35.2532 20.997 35.256 20.989 35.2587C20.9718 35.2646 20.9097 35.286 20.8278 35.3131C20.7436 35.3409 20.6212 35.3805 20.4719 35.4258C20.1763 35.5154 19.7294 35.6414 19.176 35.7582L12.5683 4.44783ZM11.9566 4.59968C11.1478 4.7944 10.3481 5.03976 9.56334 5.33543L20.8454 35.2806C20.385 35.4541 19.9178 35.5973 19.4463 35.7109L11.9566 4.59968ZM9.41829 5.39088C8.87453 5.60179 8.44514 5.79804 8.22762 5.89901L21.7005 34.9245C21.6424 34.9515 21.3683 35.0786 20.9904 35.2252L9.41829 5.39088ZM8.20198 5.91094C7.4877 6.24402 6.7798 6.62485 6.08577 7.05574L22.9647 34.2422C22.553 34.4978 22.1387 34.7202 21.7262 34.9126L8.20198 5.91094ZM6.11067 7.04031C6.18543 6.99408 6.24491 6.95847 6.22175 6.97242C6.21961 6.9737 6.19322 6.98957 6.16628 7.00586C6.13652 7.02387 6.09104 7.05146 6.0367 7.0849C5.83766 7.20735 5.37316 7.49671 4.81948 7.90522L23.8184 33.6548C23.3306 34.0147 22.9345 34.26 22.8047 34.3399C22.7423 34.3783 22.6874 34.4112 22.7241 34.3891C22.7358 34.382 22.8302 34.3254 22.9397 34.2576L6.11067 7.04031ZM5.37229 7.51512C5.71368 7.28487 5.99033 7.11831 6.11801 7.04242C6.18369 7.00338 6.23439 6.97396 6.24368 6.96856C6.27685 6.9493 6.22302 6.98054 6.1993 6.99439C6.13054 7.03453 5.89459 7.17229 5.60277 7.35944C5.30131 7.55277 4.86921 7.84351 4.37446 8.22944L24.0563 33.4609C23.5775 33.8344 23.1621 34.1136 22.8777 34.2959C22.603 34.4721 22.3846 34.5995 22.3335 34.6293C22.3186 34.638 22.2736 34.6641 22.3156 34.6397C22.3338 34.6292 22.3933 34.5946 22.4678 34.5503C22.6131 34.464 22.9072 34.2866 23.2656 34.0449L5.37229 7.51512ZM30.2154 20.8452V4.37698H-1.78463V20.8452H30.2154Z" fill="black" mask="url(#path-4-inside-2)"/>
<mask id="path-6-inside-3" fill="white">
<path d="M20.8426 11.786H30.7832C31.2407 11.786 31.6116 11.4173 31.6116 10.9626V6.0224C31.6116 5.5677 31.2407 5.19904 30.7832 5.19904H20.8426C20.3851 5.19904 20.0142 5.5677 20.0142 6.0224V10.9626C20.0142 11.4173 20.3851 11.786 20.8426 11.786ZM21.6709 6.84577H29.9548V10.1392H21.6709V6.84577Z"/>
</mask>
<path d="M20.8426 11.786H30.7832C31.2407 11.786 31.6116 11.4173 31.6116 10.9626V6.0224C31.6116 5.5677 31.2407 5.19904 30.7832 5.19904H20.8426C20.3851 5.19904 20.0142 5.5677 20.0142 6.0224V10.9626C20.0142 11.4173 20.3851 11.786 20.8426 11.786ZM21.6709 6.84577H29.9548V10.1392H21.6709V6.84577Z" fill="black"/>
<path d="M21.6709 6.84577V-9.15423H5.67094V6.84577H21.6709ZM29.9548 6.84577H45.9548V-9.15423H29.9548V6.84577ZM29.9548 10.1392V26.1392H45.9548V10.1392H29.9548ZM21.6709 10.1392H5.67094V26.1392H21.6709V10.1392ZM20.8426 27.786H30.7832V-4.21401H20.8426V27.786ZM30.7832 27.786C39.9854 27.786 47.6116 20.3455 47.6116 10.9626H15.6116C15.6116 2.48918 22.496 -4.21401 30.7832 -4.21401V27.786ZM47.6116 10.9626V6.0224H15.6116V10.9626H47.6116ZM47.6116 6.0224C47.6116 -3.36043 39.9854 -10.801 30.7832 -10.801V21.199C22.496 21.199 15.6116 14.4958 15.6116 6.0224H47.6116ZM30.7832 -10.801H20.8426V21.199H30.7832V-10.801ZM20.8426 -10.801C11.6404 -10.801 4.01416 -3.36043 4.01416 6.0224H36.0142C36.0142 14.4958 29.1298 21.199 20.8426 21.199V-10.801ZM4.01416 6.0224V10.9626H36.0142V6.0224H4.01416ZM4.01416 10.9626C4.01416 20.3455 11.6404 27.786 20.8426 27.786V-4.21401C29.1298 -4.21401 36.0142 2.48918 36.0142 10.9626H4.01416ZM21.6709 22.8458H29.9548V-9.15423H21.6709V22.8458ZM13.9548 6.84577V10.1392H45.9548V6.84577H13.9548ZM29.9548 -5.86075H21.6709V26.1392H29.9548V-5.86075ZM37.6709 10.1392V6.84577H5.67094V10.1392H37.6709Z" fill="black" mask="url(#path-6-inside-3)"/>
</g>
<defs>
<clipPath id="clip0">
<rect y="0.169678" width="50" height="49.697" fill="white"/>
</clipPath>
</defs>
</svg>
