<svg xmlns="http://www.w3.org/2000/svg" viewBox="0 0 102.42 51.48"><defs><style>.cls-1{fill:#fcfaf7;}</style></defs><title>BackTop</title><g id="Layer_2" data-name="Layer 2"><g id="Layer_1-2" data-name="Layer 1"><path class="cls-1" d="M5.58,24.13A1.93,1.93,0,0,1,7,24.66a1.88,1.88,0,0,1,.54,1.42v1.57A1.88,1.88,0,0,1,7,29.07a2,2,0,0,1-1.45.53H4.38V28h1.2a.38.38,0,0,0,.3-.12.45.45,0,0,0,.1-.27V26.08a.35.35,0,0,0-.4-.39H4.38V49.92h1.2a.38.38,0,0,0,.3-.12.45.45,0,0,0,.1-.27V30a.35.35,0,0,0-.4-.39H4.38V28h1.2A2,2,0,0,1,7,28.56,1.92,1.92,0,0,1,7.57,30V49.53A1.92,1.92,0,0,1,7,51a2,2,0,0,1-1.45.52H2.79V24.13Z" transform="translate(-2.79)"/><path class="cls-1" d="M13.15,51.48l1.6-27.35h1.59L14.75,51.48Zm.8-3.9V46h3.19v1.57Zm2.39,3.9L14.75,24.13h1.59l1.59,27.35Z" transform="translate(-2.79)"/><path class="cls-1" d="M25.51,51.48A2,2,0,0,1,24.05,51a1.92,1.92,0,0,1-.54-1.43V26.08a1.88,1.88,0,0,1,.54-1.42,2,2,0,0,1,1.46-.53h.79a2,2,0,0,1,1.46.53,1.88,1.88,0,0,1,.54,1.42v.78H26.7v-.78a.37.37,0,0,0-.1-.29.38.38,0,0,0-.3-.1h-.79a.4.4,0,0,0-.28.1.34.34,0,0,0-.12.29V49.53a.37.37,0,0,0,.12.27.38.38,0,0,0,.28.12h.79a.35.35,0,0,0,.3-.12.39.39,0,0,0,.1-.27v-.78h1.6v.78A1.92,1.92,0,0,1,27.76,51a2,2,0,0,1-1.46.52Z" transform="translate(-2.79)"/><path class="cls-1" d="M32.68,51.48V24.13h1.59V51.48Zm3,0-2-3.9h1.79l2,3.9ZM35.23,46a.64.64,0,0,0,.42-.21.81.81,0,0,0,.22-.57V24.13h1.59V45.62a1.91,1.91,0,0,1-.54,1.43,2,2,0,0,1-1.45.53h-1.2V46Z" transform="translate(-2.79)"/><path class="cls-1" d="M53.8,51.48V25.69H52.21V24.13H57v1.56h-1.6V51.48Z" transform="translate(-2.79)"/><path class="cls-1" d="M66.16,49.53A1.92,1.92,0,0,1,65.62,51a2,2,0,0,1-1.46.52h-.79A2,2,0,0,1,61.91,51a1.92,1.92,0,0,1-.54-1.43V26.08a1.88,1.88,0,0,1,.54-1.42,2,2,0,0,1,1.46-.53h.79a2,2,0,0,1,1.46.53,1.88,1.88,0,0,1,.54,1.42Zm-1.7-23.74a.4.4,0,0,0-.3-.1h-.79a.4.4,0,0,0-.28.1.34.34,0,0,0-.12.29V49.53a.37.37,0,0,0,.12.27.38.38,0,0,0,.28.12h.79a.38.38,0,0,0,.3-.12.39.39,0,0,0,.1-.27V26.08A.37.37,0,0,0,64.46,25.79Z" transform="translate(-2.79)"/><path class="cls-1" d="M82.5,51.48V25.69H80.9V24.13h4.78v1.56H84.09V51.48Z" transform="translate(-2.79)"/><path class="cls-1" d="M94.85,49.53A1.92,1.92,0,0,1,94.31,51a2,2,0,0,1-1.45.52h-.8A2,2,0,0,1,90.61,51a1.92,1.92,0,0,1-.54-1.43V26.08a1.88,1.88,0,0,1,.54-1.42,1.93,1.93,0,0,1,1.45-.53h.8a2,2,0,0,1,1.45.53,1.88,1.88,0,0,1,.54,1.42ZM93.16,25.79a.4.4,0,0,0-.3-.1h-.8a.4.4,0,0,0-.28.1.34.34,0,0,0-.12.29V49.53a.37.37,0,0,0,.12.27.38.38,0,0,0,.28.12h.8a.38.38,0,0,0,.3-.12.44.44,0,0,0,.09-.27V26.08A.4.4,0,0,0,93.16,25.79Z" transform="translate(-2.79)"/><path class="cls-1" d="M103.22,24.13a2,2,0,0,1,1.45.53,1.88,1.88,0,0,1,.54,1.42V45.62a1.91,1.91,0,0,1-.54,1.43,2,2,0,0,1-1.45.53H102V46h1.2a.41.41,0,0,0,.3-.11.45.45,0,0,0,.1-.28V26.08a.35.35,0,0,0-.4-.39H102V51.48h-1.59V24.13Z" transform="translate(-2.79)"/><polygon class="cls-1" points="77.5 19.22 73.21 19.22 51.21 10.42 29.2 19.22 24.91 19.22 51.21 0 77.5 19.22"/></g></g></svg>