<svg xmlns="http://www.w3.org/2000/svg" viewBox="0 0 378.91 378.91"><defs><style>.cls-1{fill:#fdf5f0;}.cls-10,.cls-11,.cls-2,.cls-3,.cls-9{fill:none;stroke-miterlimit:10;}.cls-2,.cls-9{stroke:#b0a096;}.cls-11,.cls-2{stroke-width:2px;}.cls-10,.cls-3{stroke:#bdb08f;}.cls-3{stroke-width:3px;}.cls-4{fill:#ed1c24;}.cls-5{fill:#4d4d4d;}.cls-6{opacity:0.94;}.cls-7{fill:#939594;}.cls-8{fill:#373125;}.cls-11{stroke:#000;}</style></defs><title>BigBen</title><g id="Layer_2" data-name="Layer 2"><g id="Layer_1-2" data-name="Layer 1"><circle class="cls-1" cx="189.46" cy="189.46" r="189.46"/><path d="M189.46,0C84.82,0,0,84.82,0,189.46S84.82,378.91,189.46,378.91s189.45-84.82,189.45-189.45S294.09,0,189.46,0Zm0,373.5a184,184,0,1,1,184-184C373.5,291.1,291.1,373.5,189.46,373.5Z"/><circle class="cls-2" cx="189.46" cy="189.46" r="173.46"/><circle class="cls-2" cx="189.46" cy="189.46" r="155.57"/><circle class="cls-3" cx="189.46" cy="189.46" r="98.19"/><path class="cls-4" d="M199.11,25.07c0,1.77-1,3.2-2.32,3.2a2.16,2.16,0,0,1-1.8-1.19q-1.38-1.72-2.77,0A5.27,5.27,0,0,1,191,29.47s0,0,0,0a4.52,4.52,0,0,0,0,4.15h0a3.79,3.79,0,0,1,3,3.42c0,2-2.07,3.66-4.62,3.66s-4.63-1.64-4.63-3.66a3.78,3.78,0,0,1,3-3.42h0a4.52,4.52,0,0,0,0-4.15s0,0,0,0a5.37,5.37,0,0,1-1.18-2.39c-.92-1.15-1.85-1.15-2.77,0a2.13,2.13,0,0,1-1.8,1.19c-1.28,0-2.31-1.43-2.31-3.2s1-3.19,2.31-3.19a2.13,2.13,0,0,1,1.8,1.19q1.38,1.72,2.76,0h0a5.41,5.41,0,0,1,1.18-2.4,12.82,12.82,0,0,0,0-7.16,3.82,3.82,0,0,1-3-3.44c0-2,2.07-3.65,4.63-3.65s4.62,1.63,4.62,3.65a3.82,3.82,0,0,1-3,3.44,13,13,0,0,0,0,7.15h0a5.21,5.21,0,0,1,1.18,2.4h0c.93,1.14,1.84,1.14,2.76,0a2.16,2.16,0,0,1,1.8-1.19C198.07,21.88,199.11,23.31,199.11,25.07Z"/><path class="cls-4" d="M179.8,353.84c0-1.77,1-3.2,2.32-3.2a2.16,2.16,0,0,1,1.8,1.19q1.38,1.73,2.77,0a5.27,5.27,0,0,1,1.18-2.39v0a4.52,4.52,0,0,0,0-4.15h0a3.79,3.79,0,0,1-3-3.42c0-2,2.07-3.66,4.62-3.66s4.63,1.64,4.63,3.66a3.78,3.78,0,0,1-3,3.42h0a4.52,4.52,0,0,0,0,4.15v0a5.37,5.37,0,0,1,1.18,2.39c.92,1.15,1.85,1.15,2.77,0a2.13,2.13,0,0,1,1.8-1.19c1.28,0,2.31,1.43,2.31,3.2s-1,3.19-2.31,3.19a2.13,2.13,0,0,1-1.8-1.19q-1.38-1.72-2.76,0h0a5.41,5.41,0,0,1-1.18,2.4,12.82,12.82,0,0,0,0,7.16,3.82,3.82,0,0,1,3,3.44c0,2-2.07,3.65-4.63,3.65s-4.62-1.63-4.62-3.65a3.82,3.82,0,0,1,3-3.44,13,13,0,0,0,0-7.15h0a5.21,5.21,0,0,1-1.18-2.4h0c-.93-1.14-1.84-1.14-2.76,0a2.16,2.16,0,0,1-1.8,1.19C180.84,357,179.8,355.6,179.8,353.84Z"/><path class="cls-4" d="M25.07,179.8c1.77,0,3.2,1,3.2,2.32a2.16,2.16,0,0,1-1.19,1.8q-1.72,1.38,0,2.77a5.27,5.27,0,0,1,2.39,1.18h0a4.52,4.52,0,0,0,4.15,0h0a3.79,3.79,0,0,1,3.42-3c2,0,3.66,2.07,3.66,4.62s-1.64,4.63-3.66,4.63a3.78,3.78,0,0,1-3.42-3h0a4.52,4.52,0,0,0-4.15,0h0a5.37,5.37,0,0,1-2.39,1.18c-1.15.92-1.15,1.85,0,2.77a2.13,2.13,0,0,1,1.19,1.8c0,1.28-1.43,2.31-3.2,2.31s-3.19-1-3.19-2.31a2.13,2.13,0,0,1,1.19-1.8q1.72-1.38,0-2.76h0a5.41,5.41,0,0,1-2.4-1.18,12.82,12.82,0,0,0-7.16,0,3.82,3.82,0,0,1-3.44,3c-2,0-3.65-2.07-3.65-4.63s1.63-4.62,3.65-4.62a3.82,3.82,0,0,1,3.44,3,13,13,0,0,0,7.15,0h0a5.21,5.21,0,0,1,2.4-1.18h0c1.14-.93,1.14-1.84,0-2.76a2.16,2.16,0,0,1-1.19-1.8C21.88,180.84,23.31,179.8,25.07,179.8Z"/><path class="cls-4" d="M353.84,199.11c-1.77,0-3.2-1-3.2-2.32a2.16,2.16,0,0,1,1.19-1.8q1.73-1.38,0-2.77a5.27,5.27,0,0,1-2.39-1.18h0a4.52,4.52,0,0,0-4.15,0h0a3.79,3.79,0,0,1-3.42,3c-2,0-3.66-2.07-3.66-4.62s1.64-4.63,3.66-4.63a3.78,3.78,0,0,1,3.42,3h0a4.52,4.52,0,0,0,4.15,0h0a5.37,5.37,0,0,1,2.39-1.18c1.15-.92,1.15-1.85,0-2.77a2.13,2.13,0,0,1-1.19-1.8c0-1.28,1.43-2.31,3.2-2.31s3.19,1,3.19,2.31a2.13,2.13,0,0,1-1.19,1.8q-1.72,1.38,0,2.76h0a5.41,5.41,0,0,1,2.4,1.18,12.82,12.82,0,0,0,7.16,0,3.82,3.82,0,0,1,3.44-3c2,0,3.65,2.07,3.65,4.63s-1.63,4.62-3.65,4.62a3.82,3.82,0,0,1-3.44-3,13,13,0,0,0-7.15,0h0a5.21,5.21,0,0,1-2.4,1.18h0c-1.14.93-1.14,1.84,0,2.76a2.16,2.16,0,0,1,1.19,1.8C357,198.07,355.6,199.11,353.84,199.11Z"/><path class="cls-5" d="M115.62,42.27c.89,1.53.7,3.29-.41,3.93a2.14,2.14,0,0,1-2.15-.13q-2.06-.81-2.4,1.38a5.28,5.28,0,0,1,.18,2.66s0,0,0,0a4.49,4.49,0,0,0,2.08,3.59h0a3.8,3.8,0,0,1,4.34,1.44c1,1.75,0,4.21-2.17,5.48s-4.83.9-5.84-.85a3.78,3.78,0,0,1,.92-4.48h0a4.52,4.52,0,0,0-2.06-3.6h0a5.44,5.44,0,0,1-2.22-1.48c-1.37-.54-2.17-.07-2.4,1.38a2.11,2.11,0,0,1-1,1.93c-1.11.64-2.72-.08-3.6-1.61s-.7-3.28.41-3.92a2.12,2.12,0,0,1,2.15.13c1.37.54,2.17.08,2.39-1.37h0a5.43,5.43,0,0,1-.18-2.67,12.88,12.88,0,0,0-3.58-6.2,3.83,3.83,0,0,1-4.35-1.46c-1-1.75,0-4.2,2.18-5.48s4.82-.9,5.83.85a3.84,3.84,0,0,1-.91,4.5,12.83,12.83,0,0,0,3.57,6.19h0A5.34,5.34,0,0,1,108.66,44h0c1.38.53,2.16.07,2.39-1.39a2.15,2.15,0,0,1,1-1.93C113.13,40,114.74,40.74,115.62,42.27Z"/><path class="cls-5" d="M263.29,336.64c-.88-1.53-.7-3.29.41-3.93a2.17,2.17,0,0,1,2.15.13c1.38.54,2.17.08,2.4-1.38a5.37,5.37,0,0,1-.17-2.66s0,0,0,0a4.52,4.52,0,0,0-2.09-3.59h0a3.79,3.79,0,0,1-4.34-1.44c-1-1.75,0-4.21,2.17-5.48s4.83-.9,5.84.85a3.77,3.77,0,0,1-.93,4.48h0a4.49,4.49,0,0,0,2.07,3.6h0a5.41,5.41,0,0,1,2.22,1.48c1.37.54,2.18.07,2.4-1.38a2.13,2.13,0,0,1,1-1.93c1.11-.64,2.72.08,3.6,1.61s.71,3.28-.4,3.92a2.12,2.12,0,0,1-2.15-.13c-1.38-.53-2.17-.07-2.4,1.37v0a5.38,5.38,0,0,1,.17,2.66A12.91,12.91,0,0,0,278.8,341a3.84,3.84,0,0,1,4.36,1.45c1,1.75,0,4.2-2.19,5.48s-4.81.9-5.82-.85a3.82,3.82,0,0,1,.91-4.5,13,13,0,0,0-3.58-6.19h0a5.19,5.19,0,0,1-2.22-1.49h0c-1.37-.52-2.16-.07-2.38,1.39a2.16,2.16,0,0,1-1,1.93C265.79,338.89,264.17,338.17,263.29,336.64Z"/><path class="cls-5" d="M51.92,98.9c1.53.89,2.25,2.5,1.61,3.61a2.15,2.15,0,0,1-1.93,1c-1.45.22-1.91,1-1.38,2.4a5.28,5.28,0,0,1,1.48,2.21s0,0,0,0a4.56,4.56,0,0,0,3.6,2.07h0a3.79,3.79,0,0,1,4.48-.92c1.75,1,2.13,3.62.86,5.83s-3.74,3.19-5.49,2.18a3.79,3.79,0,0,1-1.44-4.34h0a4.54,4.54,0,0,0-3.59-2.08s0,0,0,0a5.39,5.39,0,0,1-2.66-.18c-1.45.23-1.92,1-1.38,2.4a2.16,2.16,0,0,1,.13,2.16c-.64,1.11-2.4,1.28-3.93.4S40,113.13,40.66,112a2.14,2.14,0,0,1,1.93-1c1.46-.22,1.92-1,1.39-2.39h0a5.4,5.4,0,0,1-1.49-2.22,12.72,12.72,0,0,0-6.2-3.58,3.82,3.82,0,0,1-4.5.91c-1.75-1-2.12-3.62-.84-5.83s3.72-3.19,5.47-2.18a3.84,3.84,0,0,1,1.46,4.35,12.93,12.93,0,0,0,6.19,3.58h0a5.16,5.16,0,0,1,2.66.18h0c1.45-.24,1.91-1,1.37-2.4A2.14,2.14,0,0,1,48,99.32C48.64,98.21,50.4,98,51.92,98.9Z"/><path class="cls-5" d="M327,280c-1.53-.89-2.25-2.5-1.61-3.61a2.14,2.14,0,0,1,1.93-1c1.46-.23,1.92-1,1.39-2.4a5.28,5.28,0,0,1-1.48-2.22l0,0a4.53,4.53,0,0,0-3.59-2.07h0a3.8,3.8,0,0,1-4.48.92c-1.75-1-2.14-3.62-.86-5.83s3.73-3.19,5.48-2.18a3.77,3.77,0,0,1,1.44,4.34h0a4.49,4.49,0,0,0,3.59,2.08h0a5.39,5.39,0,0,1,2.66.18c1.46-.22,1.92-1,1.39-2.4a2.11,2.11,0,0,1-.13-2.16c.64-1.1,2.39-1.28,3.92-.4s2.25,2.49,1.61,3.6a2.13,2.13,0,0,1-1.93,1c-1.46.22-1.92,1-1.39,2.39h0a5.4,5.4,0,0,1,1.49,2.22,12.72,12.72,0,0,0,6.2,3.58,3.82,3.82,0,0,1,4.5-.91c1.75,1,2.13,3.62.85,5.84s-3.72,3.18-5.47,2.17A3.82,3.82,0,0,1,341,278.8a13,13,0,0,0-6.19-3.58h0a5.19,5.19,0,0,1-2.67-.18h0c-1.46.24-1.91,1-1.38,2.4a2.15,2.15,0,0,1,.14,2.15C330.28,280.7,328.52,280.89,327,280Z"/><path class="cls-5" d="M42.27,263.29c1.53-.89,3.29-.7,3.93.41a2.14,2.14,0,0,1-.13,2.15q-.81,2.06,1.38,2.4a5.16,5.16,0,0,1,2.66-.17h0A4.54,4.54,0,0,0,53.73,266h0a3.8,3.8,0,0,1,1.45-4.35c1.75-1,4.2,0,5.48,2.18s.89,4.83-.86,5.84a3.78,3.78,0,0,1-4.48-.93h0a4.52,4.52,0,0,0-3.6,2.06s0,0,0,0A5.31,5.31,0,0,1,50.22,273c-.54,1.37-.07,2.18,1.38,2.4a2.12,2.12,0,0,1,1.93,1c.64,1.11-.08,2.72-1.61,3.6s-3.28.71-3.92-.4a2.16,2.16,0,0,1,.13-2.16c.54-1.37.08-2.16-1.37-2.39h0a5.32,5.32,0,0,1-2.67.18,12.88,12.88,0,0,0-6.2,3.58,3.83,3.83,0,0,1-1.46,4.36c-1.75,1-4.2,0-5.48-2.19s-.9-4.82.85-5.83a3.82,3.82,0,0,1,4.5.92,12.93,12.93,0,0,0,6.19-3.58h0A5.22,5.22,0,0,1,44,270.26v0c.52-1.37.06-2.16-1.39-2.38a2.15,2.15,0,0,1-1.93-1C40,265.78,40.74,264.17,42.27,263.29Z"/><path class="cls-5" d="M336.65,115.62c-1.54.89-3.3.7-3.94-.41a2.15,2.15,0,0,1,.14-2.15c.53-1.37.07-2.17-1.39-2.4a5.15,5.15,0,0,1-2.66.17h0a4.49,4.49,0,0,0-3.59,2.08h0a3.8,3.8,0,0,1-1.44,4.35c-1.75,1-4.21,0-5.48-2.17s-.9-4.83.85-5.84a3.8,3.8,0,0,1,4.49.92h0a4.51,4.51,0,0,0,3.6-2.06s0,0,0,0a5.28,5.28,0,0,1,1.47-2.22c.54-1.37.08-2.18-1.38-2.4a2.13,2.13,0,0,1-1.93-1c-.64-1.11.08-2.72,1.62-3.6s3.27-.71,3.91.4a2.14,2.14,0,0,1-.13,2.16c-.53,1.37-.07,2.17,1.37,2.39h0a5.32,5.32,0,0,1,2.67-.18,12.88,12.88,0,0,0,6.2-3.58,3.82,3.82,0,0,1,1.46-4.35c1.75-1,4.19,0,5.47,2.18s.9,4.82-.85,5.83a3.83,3.83,0,0,1-4.5-.92,13,13,0,0,0-6.19,3.58h0a5.12,5.12,0,0,1-1.49,2.23h0c-.52,1.37-.07,2.16,1.39,2.38a2.16,2.16,0,0,1,1.93,1C338.89,113.13,338.17,114.74,336.65,115.62Z"/><path class="cls-5" d="M98.9,327c.89-1.53,2.51-2.25,3.61-1.61a2.15,2.15,0,0,1,1,1.93c.22,1.46,1,1.92,2.4,1.39a5.1,5.1,0,0,1,2.21-1.48l0,0a4.49,4.49,0,0,0,2.07-3.6h0a3.81,3.81,0,0,1-.92-4.49c1-1.75,3.62-2.13,5.83-.86s3.19,3.74,2.18,5.49a3.77,3.77,0,0,1-4.34,1.44h0a4.54,4.54,0,0,0-2.08,3.59v0a5.5,5.5,0,0,1-.17,2.66c.22,1.46,1,1.92,2.39,1.39a2.14,2.14,0,0,1,2.16-.14c1.11.65,1.28,2.4.4,3.93s-2.49,2.25-3.6,1.61a2.14,2.14,0,0,1-1-1.93c-.22-1.46-1-1.92-2.39-1.39h0a5.4,5.4,0,0,1-2.22,1.49,12.88,12.88,0,0,0-3.58,6.2,3.82,3.82,0,0,1,.91,4.5c-1,1.75-3.62,2.13-5.83.85s-3.19-3.72-2.18-5.47a3.81,3.81,0,0,1,4.35-1.46,13,13,0,0,0,3.58-6.19h0a5.3,5.3,0,0,1,.18-2.67v0c-.24-1.45-1-1.9-2.4-1.37a2.14,2.14,0,0,1-2.15.13C98.21,330.27,98,328.52,98.9,327Z"/><path class="cls-5" d="M280,51.92c-.89,1.53-2.5,2.25-3.61,1.61a2.14,2.14,0,0,1-1-1.93c-.23-1.46-1-1.92-2.4-1.38a5.37,5.37,0,0,1-2.22,1.48h0a4.51,4.51,0,0,0-2.06,3.6h0a3.79,3.79,0,0,1,.92,4.48c-1,1.75-3.62,2.13-5.83.86s-3.19-3.74-2.18-5.49A3.78,3.78,0,0,1,266,53.73h0a4.49,4.49,0,0,0,2.08-3.59s0,0,0,0a5.27,5.27,0,0,1,.17-2.66c-.22-1.46-1-1.92-2.4-1.38a2.14,2.14,0,0,1-2.15.13c-1.11-.64-1.29-2.4-.4-3.93s2.48-2.25,3.59-1.61a2.12,2.12,0,0,1,1,1.93c.23,1.46,1,1.92,2.39,1.39h0a5.43,5.43,0,0,1,2.23-1.49,12.88,12.88,0,0,0,3.58-6.2,3.81,3.81,0,0,1-.92-4.5c1-1.75,3.62-2.13,5.84-.85s3.18,3.73,2.17,5.47a3.81,3.81,0,0,1-4.35,1.46,13,13,0,0,0-3.57,6.2h0a5.19,5.19,0,0,1-.18,2.67v0c.23,1.45,1,1.9,2.39,1.37A2.16,2.16,0,0,1,279.6,48C280.7,48.64,280.89,50.4,280,51.92Z"/><g class="cls-6"><path class="cls-7" d="M175.63,38.83h0c-1.33.11-2.66.25-4,.41L168.89,13c1.32-.15,2.65-.29,4-.41h0Z"/><path class="cls-7" d="M210,365.92c-1.32.16-2.65.29-4,.42l-2.76-26.26h0c1.33-.11,2.66-.25,4-.41Z"/><path class="cls-7" d="M160,41.1h0c-1.31.25-2.62.53-3.91.82l-5.49-25.82c1.29-.29,2.6-.57,3.91-.83h0Z"/><path class="cls-7" d="M228.35,362.8c-1.29.3-2.6.57-3.91.84L219,337.81h0c1.31-.25,2.62-.53,3.91-.82Z"/><path class="cls-7" d="M144.62,45h0c-1.28.38-2.55.79-3.81,1.22l-8.16-25.11q1.89-.63,3.81-1.23h0Z"/><path class="cls-7" d="M246.26,357.79c-1.26.43-2.53.83-3.81,1.24l-8.16-25.12h0c1.28-.38,2.55-.79,3.81-1.22Z"/><path class="cls-7" d="M129.76,50.47h0c-1.23.52-2.45,1.06-3.65,1.62L115.37,28c1.2-.55,2.43-1.09,3.65-1.62h0Z"/><path class="cls-7" d="M263.54,350.93c-1.2.56-2.43,1.09-3.65,1.63l-10.74-24.12h0c1.23-.52,2.45-1.06,3.65-1.62Z"/><path class="cls-7" d="M102.17,65.92h0c-1.09.76-2.17,1.55-3.24,2.35L83.41,46.92c1.07-.79,2.15-1.58,3.24-2.35h0Z"/><path class="cls-7" d="M295.5,332c-1.07.8-2.15,1.57-3.24,2.35L276.74,313h0c1.09-.76,2.17-1.55,3.24-2.34Z"/><path class="cls-7" d="M89.74,75.72h0c-1,.87-2,1.77-3,2.67L69.09,58.78c1-.9,2-1.79,3-2.67h0Z"/><path class="cls-7" d="M309.82,320.13c-1,.91-2,1.79-3,2.68l-17.66-19.62h0c1-.87,2-1.77,3-2.67Z"/><path class="cls-7" d="M78.39,86.77h0c-.91,1-1.81,2-2.68,3L56.09,72.08c.88-1,1.78-2,2.69-3h0Z"/><path class="cls-7" d="M322.82,306.83c-.88,1-1.78,2-2.68,3l-19.62-17.67h0c.91-1,1.81-2,2.68-3Z"/><path class="cls-7" d="M68.27,98.94h0c-.81,1.06-1.6,2.14-2.36,3.23L44.56,86.66c.77-1.08,1.55-2.16,2.35-3.23h0Z"/><path class="cls-7" d="M334.35,292.25c-.76,1.09-1.55,2.17-2.35,3.24L310.64,280h0c.8-1.06,1.59-2.14,2.35-3.23Z"/><path class="cls-7" d="M52.1,126.12h0c-.57,1.21-1.12,2.43-1.64,3.65L26.35,119c.53-1.21,1.07-2.44,1.63-3.65h0Z"/><path class="cls-7" d="M352.56,259.88c-.52,1.22-1.07,2.44-1.63,3.66L326.81,252.8h0c.57-1.2,1.12-2.43,1.64-3.65Z"/><path class="cls-7" d="M46.23,140.82h0c-.44,1.26-.85,2.53-1.25,3.8l-25.11-8.16c.4-1.27.82-2.54,1.25-3.8h0Z"/><path class="cls-7" d="M359,242.44c-.39,1.28-.81,2.54-1.24,3.81l-25.11-8.16h0c.44-1.26.86-2.53,1.25-3.8Z"/><path class="cls-7" d="M41.93,156.06h0c-.31,1.3-.58,2.61-.84,3.92l-25.83-5.49c.27-1.31.55-2.61.84-3.92h0Z"/><path class="cls-7" d="M363.64,224.43c-.26,1.3-.54,2.61-.83,3.91L337,222.85h0c.31-1.3.59-2.61.84-3.91Z"/><path class="cls-7" d="M39.25,171.66h0c-.17,1.32-.31,2.65-.43,4l-26.26-2.76c.13-1.32.27-2.65.43-4h0Z"/><path class="cls-7" d="M366.34,206c-.12,1.33-.27,2.65-.42,4l-26.26-2.76h0c.17-1.32.31-2.65.43-4Z"/><path class="cls-7" d="M38.83,203.28h0c.11,1.33.25,2.66.41,4L13,210c-.15-1.32-.29-2.65-.41-4h0Z"/><path class="cls-7" d="M365.92,168.89c.16,1.32.29,2.65.42,4l-26.26,2.76h0c-.11-1.33-.25-2.66-.41-4Z"/><path class="cls-7" d="M41.1,219h0c.25,1.31.53,2.62.83,3.92l-25.83,5.49c-.29-1.3-.57-2.61-.83-3.92h0Z"/><path class="cls-7" d="M362.81,150.56c.29,1.3.56,2.6.83,3.91L337.81,160h0c-.25-1.31-.52-2.61-.82-3.91Z"/><path class="cls-7" d="M45,234.3h0c.38,1.27.8,2.55,1.23,3.8l-25.12,8.16c-.42-1.26-.83-2.53-1.22-3.81h0Z"/><path class="cls-7" d="M357.79,132.65c.43,1.26.83,2.53,1.24,3.81l-25.11,8.16h0q-.59-1.92-1.23-3.81Z"/><path class="cls-7" d="M50.48,249.15h0c.51,1.23,1.06,2.45,1.62,3.66L28,263.55q-.82-1.82-1.62-3.66h0Z"/><path class="cls-7" d="M350.93,115.37c.56,1.2,1.1,2.43,1.63,3.65l-24.12,10.74h0c-.52-1.23-1.06-2.46-1.62-3.66Z"/><path class="cls-7" d="M65.93,276.74h0c.76,1.1,1.55,2.18,2.35,3.24L46.92,295.5c-.79-1.07-1.58-2.15-2.35-3.24h0Z"/><path class="cls-7" d="M332,83.42c.8,1.06,1.57,2.15,2.35,3.23L313,102.17h0q-1.14-1.65-2.34-3.24Z"/><path class="cls-7" d="M75.73,289.18h0c.87,1,1.77,2,2.68,3L58.78,309.82c-.89-1-1.79-2-2.67-3h0Z"/><path class="cls-7" d="M320.13,69.1c.91,1,1.8,2,2.68,3L303.19,89.74h0q-1.31-1.51-2.67-3Z"/><path class="cls-7" d="M86.77,300.52h0c1,.92,2,1.81,3,2.69L72.08,322.82c-1-.88-2-1.78-3-2.68h0Z"/><path class="cls-7" d="M306.84,56.1c1,.87,2,1.77,3,2.67L292.14,78.4h0c-1-.91-2-1.81-3-2.68Z"/><path class="cls-7" d="M98.94,310.64h0c1.06.81,2.15,1.59,3.23,2.36L86.66,334.36c-1.08-.77-2.16-1.56-3.23-2.36h0Z"/><path class="cls-7" d="M292.25,44.56c1.09.76,2.17,1.56,3.24,2.35L280,68.27h0c-1.07-.81-2.15-1.6-3.24-2.36Z"/><path class="cls-7" d="M126.12,326.81h0c1.21.57,2.43,1.11,3.66,1.63L119,352.56c-1.22-.53-2.44-1.07-3.66-1.63h0Z"/><path class="cls-7" d="M259.88,26.35c1.22.52,2.44,1.08,3.66,1.63L252.8,52.1h0c-1.2-.57-2.43-1.12-3.65-1.64Z"/><path class="cls-7" d="M140.82,332.68h0c1.26.44,2.53.86,3.8,1.25L136.47,359c-1.27-.4-2.54-.81-3.8-1.24h0Z"/><path class="cls-7" d="M242.45,19.88c1.27.39,2.54.82,3.8,1.24l-8.16,25.11h0c-1.26-.44-2.53-.85-3.8-1.24Z"/><path class="cls-7" d="M156.06,337h0c1.3.31,2.61.59,3.92.84l-5.49,25.83c-1.3-.27-2.61-.54-3.92-.84h0Z"/><path class="cls-7" d="M224.43,15.27c1.31.26,2.61.55,3.92.83l-5.49,25.83h0c-1.3-.31-2.6-.58-3.91-.84Z"/><path class="cls-7" d="M171.67,339.66h0c1.32.17,2.65.31,4,.43l-2.76,26.26c-1.33-.13-2.66-.27-4-.43h0Z"/><path class="cls-7" d="M206,12.57c1.33.12,2.65.27,4,.42l-2.76,26.26h0c-1.32-.17-2.65-.31-4-.43Z"/></g><path class="cls-8" d="M249.52,91.89c-.7,1.21-2.52,1.47-4.06.58s-2.23-2.6-1.53-3.81A2.36,2.36,0,0,1,246,87.55l9.51-16.47a2.23,2.23,0,0,1,2-3.45,3.8,3.8,0,0,1,2,.54,3.65,3.65,0,0,1,1.45,1.47,2.21,2.21,0,0,1-2,3.43l-9.52,16.49A2.37,2.37,0,0,1,249.52,91.89Z"/><path class="cls-8" d="M288.14,131.33c-1.21.7-2.92,0-3.81-1.54s-.63-3.36.58-4.06a2.39,2.39,0,0,1,2.34.07l16.47-9.51a2.23,2.23,0,0,1,3.45-2,3.79,3.79,0,0,1,1.46,1.46,3.75,3.75,0,0,1,.53,2,2.21,2.21,0,0,1-3.43,2l-16.49,9.52A2.37,2.37,0,0,1,288.14,131.33Z"/><path class="cls-8" d="M289.14,133.06c-1.21.7-1.47,2.52-.58,4.06s2.6,2.23,3.81,1.53a2.38,2.38,0,0,0,1.11-2.06L310,127.08a2.23,2.23,0,0,0,3.45-2,3.8,3.8,0,0,0-.54-2,3.74,3.74,0,0,0-1.47-1.46,2.21,2.21,0,0,0-3.43,2l-16.49,9.52A2.34,2.34,0,0,0,289.14,133.06Z"/><path class="cls-8" d="M304,184.23c-1.4,0-2.53-1.45-2.53-3.23s1.13-3.23,2.53-3.23a2.37,2.37,0,0,1,2,1.23h19a2.22,2.22,0,0,1,4,0,3.83,3.83,0,0,1,.54,2,3.69,3.69,0,0,1-.55,2,2.21,2.21,0,0,1-4,0H306A2.36,2.36,0,0,1,304,184.23Z"/><path class="cls-8" d="M304,186.23c-1.4,0-2.53,1.45-2.53,3.23s1.13,3.23,2.53,3.23a2.37,2.37,0,0,0,2-1.23h19a2.22,2.22,0,0,0,4,0,3.83,3.83,0,0,0,.54-2,3.69,3.69,0,0,0-.55-2,2.21,2.21,0,0,0-4,0H306A2.36,2.36,0,0,0,304,186.23Z"/><path class="cls-8" d="M304,194.69c-1.4,0-2.53,1.45-2.53,3.23s1.13,3.23,2.53,3.23a2.37,2.37,0,0,0,2-1.23h19a2.22,2.22,0,0,0,4,0,3.83,3.83,0,0,0,.54-2,3.69,3.69,0,0,0-.55-2,2.21,2.21,0,0,0-4,0H306A2.36,2.36,0,0,0,304,194.69Z"/><path class="cls-8" d="M291.25,242.19c-1.21-.7-1.46-2.52-.57-4.06s2.59-2.24,3.8-1.54a2.36,2.36,0,0,1,1.11,2.06l16.47,9.51a2.41,2.41,0,0,1,2.34-.07,2.39,2.39,0,0,1,1.11,2.06,3.89,3.89,0,0,1-.53,2,3.67,3.67,0,0,1-1.48,1.45,2.21,2.21,0,0,1-3.43-2l-16.49-9.52A2.37,2.37,0,0,1,291.25,242.19Z"/><path class="cls-8" d="M302.71,268.34a2.38,2.38,0,0,1-1.11-2.06l-13.73-7.93L286.79,252l-.58-3.37-.28-1.65a4,4,0,0,1,.52-1.55c.89-1.55,2.59-2.24,3.8-1.54a2.37,2.37,0,0,1,1.1,2.06l16.49,9.52a2.21,2.21,0,0,1,3.43,2,3.73,3.73,0,0,1-.52,2,3.88,3.88,0,0,1-1.47,1.46,2.23,2.23,0,0,1-3.45-2l-16.47-9.51a2.44,2.44,0,0,1-.63.25l.86,5,14,8.1a2.21,2.21,0,0,1,3.43,2,3.7,3.7,0,0,1-.52,2,3.81,3.81,0,0,1-1.47,1.46A2.36,2.36,0,0,1,302.71,268.34Z"/><path class="cls-8" d="M251.76,312.29a2.36,2.36,0,0,1,.07-2.34l-7.93-13.74,2.23-6,1.18-3.2.59-1.57a3.81,3.81,0,0,1,1.22-1.09c1.54-.89,3.36-.63,4.06.58a2.37,2.37,0,0,1-.08,2.33l9.52,16.49a2.21,2.21,0,0,1,2,3.43,3.71,3.71,0,0,1-1.45,1.47,3.81,3.81,0,0,1-2,.54,2.23,2.23,0,0,1-2-3.45l-9.51-16.47a2.93,2.93,0,0,1-.67-.1l-1.77,4.79,8.1,14a2.21,2.21,0,0,1,2,3.43,3.74,3.74,0,0,1-1.46,1.47,3.8,3.8,0,0,1-2,.54A2.38,2.38,0,0,1,251.76,312.29Z"/><path class="cls-8" d="M186.23,327a2.37,2.37,0,0,1,1.23-2V309.13l4.94-4.1,2.63-2.18,1.29-1.07a3.94,3.94,0,0,1,1.6-.33c1.78,0,3.23,1.13,3.23,2.53a2.36,2.36,0,0,1-1.23,2v19a2.21,2.21,0,0,1,0,4,3.69,3.69,0,0,1-2,.55,3.83,3.83,0,0,1-2-.54,2.22,2.22,0,0,1,0-4V306a2.45,2.45,0,0,1-.53-.42l-3.93,3.26V325a2.21,2.21,0,0,1,0,4,3.69,3.69,0,0,1-2,.55,3.83,3.83,0,0,1-2-.54A2.37,2.37,0,0,1,186.23,327Z"/><path class="cls-8" d="M177.77,304c0-1.4,1.45-2.53,3.23-2.53s3.23,1.13,3.23,2.53a2.37,2.37,0,0,1-1.23,2v19a2.22,2.22,0,0,1,0,4,3.83,3.83,0,0,1-2,.54,3.69,3.69,0,0,1-2-.55,2.21,2.21,0,0,1,0-4V306A2.36,2.36,0,0,1,177.77,304Z"/><path class="cls-8" d="M120.7,308.56a2.36,2.36,0,0,1,2.06-1.11l7.93-13.74,6.32-1.08,3.37-.57,1.65-.28a3.83,3.83,0,0,1,1.55.51c1.55.89,2.24,2.6,1.54,3.81a2.39,2.39,0,0,1-2.06,1.1l-9.52,16.49a2.21,2.21,0,0,1-2,3.43,3.75,3.75,0,0,1-2-.53,3.86,3.86,0,0,1-1.46-1.46,2.23,2.23,0,0,1,2-3.45l9.51-16.47a2.75,2.75,0,0,1-.25-.63l-5,.86-8.1,14a2.34,2.34,0,0,1,.08,2.33,2.38,2.38,0,0,1-2.06,1.1,3.71,3.71,0,0,1-2-.53,3.79,3.79,0,0,1-1.46-1.46A2.36,2.36,0,0,1,120.7,308.56Z"/><path class="cls-8" d="M125.73,284.91c.7-1.22,2.52-1.47,4.06-.58s2.24,2.59,1.54,3.81a2.4,2.4,0,0,1-2.06,1.11l-9.51,16.47a2.22,2.22,0,0,1-2,3.44,3.79,3.79,0,0,1-2-.53,3.71,3.71,0,0,1-1.45-1.47,2.37,2.37,0,0,1-.08-2.33,2.34,2.34,0,0,1,2.06-1.1l9.52-16.49A2.37,2.37,0,0,1,125.73,284.91Z"/><path class="cls-8" d="M119.27,281.18c.7-1.22,2.52-1.47,4.06-.58s2.24,2.59,1.54,3.81a2.4,2.4,0,0,1-2.06,1.11L113.3,302a2.22,2.22,0,0,1-2,3.44,3.79,3.79,0,0,1-2-.53,3.71,3.71,0,0,1-1.45-1.47,2.37,2.37,0,0,1-.08-2.33,2.34,2.34,0,0,1,2.06-1.1l9.52-16.49A2.37,2.37,0,0,1,119.27,281.18Z"/><line class="cls-9" x1="208.08" y1="330.87" x2="203.51" y2="296.16"/><line class="cls-9" x1="175.41" y1="82.75" x2="170.84" y2="48.05"/><line class="cls-9" x1="330.87" y1="170.84" x2="296.16" y2="175.41"/><line class="cls-9" x1="82.76" y1="203.5" x2="48.05" y2="208.07"/><line class="cls-9" x1="226.38" y1="327.25" x2="217.31" y2="293.42"/><line class="cls-9" x1="161.6" y1="85.49" x2="152.53" y2="51.67"/><line class="cls-9" x1="327.25" y1="152.53" x2="293.42" y2="161.6"/><line class="cls-9" x1="85.5" y1="217.31" x2="51.67" y2="226.38"/><line class="cls-9" x1="244.05" y1="321.25" x2="230.65" y2="288.9"/><line class="cls-9" x1="148.27" y1="90.01" x2="134.87" y2="57.66"/><polyline class="cls-9" points="288.89 148.26 288.9 148.26 321.25 134.86"/><line class="cls-9" x1="90.02" y1="230.64" x2="57.66" y2="244.05"/><line class="cls-9" x1="276.29" y1="302.61" x2="254.97" y2="274.83"/><line class="cls-9" x1="123.95" y1="104.08" x2="102.63" y2="76.31"/><line class="cls-9" x1="302.61" y1="102.63" x2="274.83" y2="123.94"/><line class="cls-9" x1="104.09" y1="254.96" x2="76.31" y2="276.28"/><line class="cls-9" x1="290.3" y1="290.3" x2="265.55" y2="265.55"/><line class="cls-9" x1="113.37" y1="113.37" x2="88.61" y2="88.61"/><polyline class="cls-9" points="265.55 113.36 290.3 88.61 290.31 88.61"/><polyline class="cls-9" points="113.37 265.54 113.37 265.55 88.61 290.3"/><line class="cls-9" x1="302.61" y1="276.28" x2="274.83" y2="254.97"/><line class="cls-9" x1="104.09" y1="123.95" x2="76.31" y2="102.63"/><line class="cls-9" x1="276.28" y1="76.3" x2="254.97" y2="104.08"/><line class="cls-9" x1="123.95" y1="274.83" x2="102.63" y2="302.61"/><line class="cls-9" x1="321.25" y1="244.05" x2="288.9" y2="230.65"/><line class="cls-9" x1="90.02" y1="148.27" x2="57.67" y2="134.86"/><line class="cls-9" x1="244.05" y1="57.66" x2="230.65" y2="90.01"/><line class="cls-9" x1="148.27" y1="288.9" x2="134.87" y2="321.26"/><line class="cls-9" x1="327.25" y1="226.38" x2="293.42" y2="217.31"/><line class="cls-9" x1="85.5" y1="161.6" x2="51.67" y2="152.53"/><line class="cls-9" x1="226.38" y1="51.67" x2="217.31" y2="85.49"/><line class="cls-9" x1="161.6" y1="293.42" x2="152.53" y2="327.25"/><line class="cls-9" x1="330.87" y1="208.07" x2="296.16" y2="203.5"/><line class="cls-9" x1="82.76" y1="175.41" x2="48.05" y2="170.84"/><line class="cls-9" x1="208.08" y1="48.05" x2="203.51" y2="82.75"/><line class="cls-9" x1="175.41" y1="296.16" x2="170.84" y2="330.87"/><path class="cls-8" d="M72.22,261.45a2.36,2.36,0,0,1,2.34.07l13.73-7.93,6,2.23,3.2,1.18,1.57.59a3.81,3.81,0,0,1,1.09,1.22c.89,1.54.63,3.36-.58,4.06a2.37,2.37,0,0,1-2.33-.08l-16.49,9.52a2.21,2.21,0,0,1-3.43,2,3.73,3.73,0,0,1-1.48-1.45,3.89,3.89,0,0,1-.53-2,2.23,2.23,0,0,1,3.45-2l16.47-9.51a2.53,2.53,0,0,1,.1-.67l-4.79-1.77-14,8.1a2.21,2.21,0,0,1-3.43,2,3.76,3.76,0,0,1-1.48-1.46,3.88,3.88,0,0,1-.53-2A2.38,2.38,0,0,1,72.22,261.45Z"/><path class="cls-8" d="M88.41,243.48c1.21-.7,2.91,0,3.8,1.54s.64,3.36-.57,4.06A2.39,2.39,0,0,1,89.3,249l-16.47,9.51a2.23,2.23,0,0,1-3.45,2,3.88,3.88,0,0,1-1.47-1.46,3.73,3.73,0,0,1-.52-2,2.21,2.21,0,0,1,3.43-2l16.49-9.52A2.37,2.37,0,0,1,88.41,243.48Z"/><path class="cls-8" d="M84.68,237c1.21-.7,2.91,0,3.8,1.54s.64,3.36-.57,4.06a2.39,2.39,0,0,1-2.34-.07L69.1,252.06a2.23,2.23,0,0,1-3.45,2,3.88,3.88,0,0,1-1.47-1.46,3.73,3.73,0,0,1-.52-2,2.21,2.21,0,0,1,3.43-2l16.49-9.52A2.37,2.37,0,0,1,84.68,237Z"/><path class="cls-8" d="M81,230.56c1.21-.7,2.91,0,3.8,1.54s.64,3.36-.57,4.06a2.39,2.39,0,0,1-2.34-.07L65.37,245.6a2.23,2.23,0,0,1-3.45,2,3.88,3.88,0,0,1-1.47-1.46,3.73,3.73,0,0,1-.52-2,2.21,2.21,0,0,1,3.43-2l16.49-9.52A2.37,2.37,0,0,1,81,230.56Z"/><path class="cls-8" d="M175,74.9c0,1.4,1.45,2.53,3.23,2.53a3.83,3.83,0,0,0,1.84-.45,2.43,2.43,0,0,0,1.39-2c.5-.71.5-.71,1,0A2.39,2.39,0,0,0,183.87,77a3.75,3.75,0,0,0,1.86.47c1.79,0,3.23-1.13,3.23-2.53a2.3,2.3,0,0,0-.94-1.79,2.84,2.84,0,0,1-2.08.75,3.48,3.48,0,0,1-1.1-.17,2.86,2.86,0,0,0-.84-.78V65.41h4.05l-2.39-5.65v2.65H184V53.92a2.86,2.86,0,0,0,.84-.78,3.48,3.48,0,0,1,1.1-.17,2.84,2.84,0,0,1,2.08.75,2.3,2.3,0,0,0,.94-1.79,2.37,2.37,0,0,0-1.23-2,3.83,3.83,0,0,0-2-.54,3.72,3.72,0,0,0-1.86.47l-.14.08a2.36,2.36,0,0,0-1.23,2c-.5.71-.5.71-1,0v0a2.37,2.37,0,0,0-1.23-2,.31.31,0,0,0-.1,0,3.78,3.78,0,0,0-1.9-.49,3.69,3.69,0,0,0-2,.55,2.36,2.36,0,0,0-1.23,2,2.31,2.31,0,0,0,1,1.8h0a2.82,2.82,0,0,1,2.05-.73,3.29,3.29,0,0,1,1.12.18h0a2.61,2.61,0,0,0,.82.76v8.5H176c1.52,1.67,1.72,4,1.08,6.76l.07,0a4.8,4.8,0,0,0,1.58-3.78H180V73a2.77,2.77,0,0,0-.83.76,3.29,3.29,0,0,1-1.12.18,2.8,2.8,0,0,1-2.08-.76A2.23,2.23,0,0,0,175,74.9Z"/><path class="cls-8" d="M190,74.93c0,1.4,1.45,2.53,3.23,2.53s3.23-1.13,3.23-2.53a2.37,2.37,0,0,0-1.23-2v-19a2.22,2.22,0,0,0,0-4,3.83,3.83,0,0,0-2-.54,3.69,3.69,0,0,0-2,.55,2.21,2.21,0,0,0,0,4V73A2.36,2.36,0,0,0,190,74.93Z"/><path class="cls-8" d="M197.42,74.93c0,1.4,1.45,2.53,3.23,2.53s3.23-1.13,3.23-2.53a2.37,2.37,0,0,0-1.23-2v-19a2.22,2.22,0,0,0,0-4,3.83,3.83,0,0,0-2-.54,3.69,3.69,0,0,0-2,.55,2.21,2.21,0,0,0,0,4V73A2.36,2.36,0,0,0,197.42,74.93Z"/><path class="cls-8" d="M74.9,178.76c1.4,0,2.53,1.45,2.53,3.23a3.83,3.83,0,0,1-.45,1.84,2.43,2.43,0,0,1-2,1.39c-.71.5-.71.5,0,1A2.39,2.39,0,0,1,77,187.59a3.75,3.75,0,0,1,.47,1.86c0,1.79-1.13,3.23-2.53,3.23a2.3,2.3,0,0,1-1.79-.94,2.84,2.84,0,0,0,.75-2.08,3.48,3.48,0,0,0-.17-1.1,2.86,2.86,0,0,1-.78-.84H65.41v4.05l-5.65-2.39h2.65v-1.66H53.92a2.86,2.86,0,0,1-.78.84,3.48,3.48,0,0,0-.17,1.1,2.84,2.84,0,0,0,.75,2.08,2.3,2.3,0,0,1-1.79.94,2.37,2.37,0,0,1-2-1.23,3.83,3.83,0,0,1-.54-2,3.72,3.72,0,0,1,.47-1.86,1,1,0,0,1,.08-.14,2.36,2.36,0,0,1,2-1.23c.71-.5.71-.5,0-1h0a2.37,2.37,0,0,1-2-1.23.31.31,0,0,1,0-.1,3.78,3.78,0,0,1-.49-1.9,3.69,3.69,0,0,1,.55-2,2.36,2.36,0,0,1,2-1.23,2.31,2.31,0,0,1,1.8,1h0a2.82,2.82,0,0,0-.73,2.05,3.29,3.29,0,0,0,.18,1.12h0a2.61,2.61,0,0,1,.76.82h8.5v-4.05c1.67,1.52,4,1.72,6.76,1.08l0,.07a4.8,4.8,0,0,1-3.78,1.58v1.32H73a2.77,2.77,0,0,1,.76-.83,3.29,3.29,0,0,0,.18-1.12,2.8,2.8,0,0,0-.76-2.08A2.23,2.23,0,0,1,74.9,178.76Z"/><path class="cls-8" d="M74.93,193.69c1.4,0,2.53,1.45,2.53,3.23s-1.13,3.23-2.53,3.23a2.37,2.37,0,0,1-2-1.23h-19a2.22,2.22,0,0,1-4,0,3.83,3.83,0,0,1-.54-2,3.69,3.69,0,0,1,.55-2,2.21,2.21,0,0,1,4,0H73A2.36,2.36,0,0,1,74.93,193.69Z"/><path class="cls-8" d="M122.92,95.59c.7,1.22,2.52,1.47,4.06.58a3.76,3.76,0,0,0,1.37-1.31,2.43,2.43,0,0,0,.18-2.47c.08-.87.08-.87.87-.5a2.41,2.41,0,0,0,2.21,1.1,3.82,3.82,0,0,0,1.85-.52c1.55-.9,2.23-2.6,1.53-3.81a2.3,2.3,0,0,0-1.71-1.08,2.86,2.86,0,0,1-1.42,1.69,3.53,3.53,0,0,1-1,.4,2.92,2.92,0,0,0-1.12-.25l-3.77-6.53,3.51-2-4.89-3.7,1.32,2.3-1.44.83-4.24-7.36a2.82,2.82,0,0,0,.34-1.09,3.55,3.55,0,0,1,.86-.7,2.85,2.85,0,0,1,2.18-.39,2.3,2.3,0,0,0-.08-2,2.38,2.38,0,0,0-2.06-1.11,3.85,3.85,0,0,0-2,.53,3.71,3.71,0,0,0-1.38,1.34s0,.09-.08.14A2.34,2.34,0,0,0,117.9,72c-.08.87-.08.87-.87.5l0,0a2.35,2.35,0,0,0-2.06-1.1.2.2,0,0,0-.11,0,3.79,3.79,0,0,0-1.89.53,3.65,3.65,0,0,0-1.45,1.47,2.37,2.37,0,0,0-.08,2.33,2.31,2.31,0,0,0,1.72,1.09h0a2.83,2.83,0,0,1,1.41-1.65,3.26,3.26,0,0,1,1.06-.41h0a2.73,2.73,0,0,0,1.09.25L121,82.3l-3.51,2c2.15.69,3.49,2.61,4.32,5.32l.07,0a4.81,4.81,0,0,0-.52-4.07l1.14-.66,3.77,6.53a2.77,2.77,0,0,0-.34,1.08,3,3,0,0,1-.88.71,2.81,2.81,0,0,1-2.18.39A2.21,2.21,0,0,0,122.92,95.59Z"/><path class="cls-8" d="M135.86,88.16c.7,1.21,2.52,1.46,4.06.57s2.23-2.59,1.53-3.8a2.36,2.36,0,0,0-2.06-1.11l-9.51-16.47a2.23,2.23,0,0,0-2-3.45,3.88,3.88,0,0,0-2,.53,3.76,3.76,0,0,0-1.46,1.48,2.21,2.21,0,0,0,2,3.43l9.52,16.49A2.34,2.34,0,0,0,135.86,88.16Z"/><path class="cls-8" d="M86.77,138.21c1.21.7,2.91,0,3.81-1.54a3.88,3.88,0,0,0,.53-1.82A2.43,2.43,0,0,0,90,132.63c-.37-.79-.37-.79.5-.87A2.36,2.36,0,0,0,93,131.6a3.68,3.68,0,0,0,1.34-1.37c.9-1.55.64-3.36-.57-4.06a2.33,2.33,0,0,0-2-.09,2.81,2.81,0,0,1-.39,2.18,3.4,3.4,0,0,1-.69.87,2.81,2.81,0,0,0-1.1.34L83,125.7l2-3.51L79,121.44l2.29,1.32-.83,1.44L73.08,120a2.75,2.75,0,0,0-.26-1.12,3.57,3.57,0,0,1,.41-1,2.82,2.82,0,0,1,1.69-1.43,2.31,2.31,0,0,0-1.08-1.7,2.36,2.36,0,0,0-2.34.07A3.81,3.81,0,0,0,70,116.2a3.68,3.68,0,0,0-.52,1.84.85.85,0,0,0,0,.16,2.37,2.37,0,0,0,1.1,2.06c.36.79.36.79-.5.87l0,0a2.39,2.39,0,0,0-2.34.07.47.47,0,0,0-.09.06,3.94,3.94,0,0,0-1.38,1.4,3.73,3.73,0,0,0-.52,2,2.37,2.37,0,0,0,1.1,2.06,2.29,2.29,0,0,0,2,.07h0a2.83,2.83,0,0,1,.39-2.14,3.54,3.54,0,0,1,.72-.88h0a2.73,2.73,0,0,0,1.07-.34l7.36,4.25-2,3.51c2.2-.48,4.32.51,6.39,2.45l0-.05a4.78,4.78,0,0,0-2.48-3.26l.66-1.15,6.53,3.77a2.81,2.81,0,0,0,.24,1.1,3.29,3.29,0,0,1-.4,1.06,2.84,2.84,0,0,1-1.7,1.43A2.24,2.24,0,0,0,86.77,138.21Z"/><path class="cls-10" d="M120,189.46h24.69"/><polyline class="cls-10" points="120.01 189.46 120 189.46 94.59 164.04"/><line class="cls-10" x1="122.36" y1="171.48" x2="91.27" y2="189.46"/><path class="cls-10" d="M144.69,189.46c-10.08-.06-6.85-13.83-22.33-18"/><path class="cls-10" d="M160.92,181.81c-8.92,0-15.33,1.87-16.23,7.65"/><circle class="cls-10" cx="166.79" cy="183.38" r="6.07"/><circle class="cls-10" cx="172.86" cy="172.86" r="6.07"/><circle class="cls-10" cx="183.38" cy="166.78" r="6.07"/><circle class="cls-10" cx="212.13" cy="183.38" r="6.07"/><circle class="cls-10" cx="206.05" cy="172.86" r="6.07"/><circle class="cls-10" cx="195.53" cy="166.78" r="6.07"/><circle class="cls-10" cx="166.79" cy="195.53" r="6.07"/><circle class="cls-10" cx="172.86" cy="206.05" r="6.07"/><circle class="cls-10" cx="183.38" cy="212.13" r="6.07"/><circle class="cls-10" cx="212.13" cy="195.53" r="6.07"/><circle class="cls-10" cx="206.05" cy="206.05" r="6.07"/><circle class="cls-10" cx="195.53" cy="212.13" r="6.07"/><polyline class="cls-10" points="120.01 189.46 120 189.46 109.48 199.98 94.59 214.88"/><line class="cls-10" x1="91.27" y1="189.45" x2="122.36" y2="207.43"/><path class="cls-10" d="M122.36,207.43c15.48-4.14,12.25-17.92,22.33-18"/><path class="cls-10" d="M160.92,197.1c-8.92,0-15.33-1.87-16.23-7.65"/><path class="cls-10" d="M234.22,189.46h24.69"/><polyline class="cls-10" points="284.32 164.04 258.91 189.46 258.9 189.46"/><line class="cls-10" x1="287.64" y1="189.46" x2="256.55" y2="171.48"/><path class="cls-10" d="M256.55,171.48c-15.48,4.15-12.25,17.92-22.33,18"/><path class="cls-10" d="M218,181.81c8.92,0,15.34,1.87,16.23,7.65"/><polyline class="cls-10" points="284.32 214.88 269.43 199.98 258.91 189.46 258.9 189.46"/><line class="cls-10" x1="256.55" y1="207.43" x2="287.64" y2="189.45"/><path class="cls-10" d="M234.22,189.45c10.08.06,6.85,13.84,22.33,18"/><path class="cls-10" d="M218,197.1c8.92,0,15.34-1.87,16.23-7.65"/><path class="cls-10" d="M129.3,154.73h0l21,12.11.2.11.2.12"/><polyline class="cls-10" points="129.31 154.74 129.3 154.73 120.01 120.01"/><line class="cls-10" x1="140.34" y1="140.34" x2="104.42" y2="140.37"/><path class="cls-10" d="M150.69,167.08c-8.7-5.09,1-15.41-10.35-26.74"/><path class="cls-10" d="M168.57,168.57c-7.73-4.46-14.22-6-17.88-1.49"/><polyline class="cls-10" points="129.31 154.74 129.3 154.73 114.93 158.58 94.59 164.04"/><line class="cls-10" x1="104.43" y1="140.36" x2="122.36" y2="171.47"/><path class="cls-10" d="M122.36,171.47c15.48,4.16,19.57-9.39,28.33-4.4"/><path class="cls-10" d="M160.92,181.81c-7.72-4.46-12.34-9.29-10.23-14.74"/><path class="cls-10" d="M228.22,211.84l.2.12.2.11,21,12.11h0"/><polyline class="cls-10" points="284.32 214.88 249.61 224.19 249.6 224.18"/><line class="cls-10" x1="274.49" y1="238.55" x2="256.55" y2="207.44"/><path class="cls-10" d="M256.55,207.44c-15.48-4.15-19.57,9.39-28.33,4.4"/><path class="cls-10" d="M218,197.1c7.73,4.46,12.35,9.29,10.23,14.74"/><polyline class="cls-10" points="258.9 258.91 253.46 238.56 249.61 224.19 249.6 224.18"/><line class="cls-10" x1="238.58" y1="238.57" x2="274.49" y2="238.55"/><path class="cls-10" d="M228.23,211.84c8.7,5.09-1,15.4,10.35,26.73"/><path class="cls-10" d="M210.34,210.34c7.73,4.46,14.22,6,17.89,1.5"/><path class="cls-10" d="M154.72,129.31h0l12.11,21,.11.2.12.2"/><polyline class="cls-10" points="154.73 129.31 154.72 129.31 164.03 94.59"/><line class="cls-10" x1="171.48" y1="122.36" x2="140.36" y2="104.43"/><path class="cls-10" d="M167.07,150.69c-5-8.76,8.56-12.85,4.41-28.33"/><path class="cls-10" d="M181.81,160.92c-4.46-7.72-9.29-12.34-14.74-10.23"/><polyline class="cls-10" points="154.73 129.31 154.72 129.31 140.35 125.46 120 120.01"/><line class="cls-10" x1="140.37" y1="104.42" x2="140.34" y2="140.34"/><path class="cls-10" d="M140.34,140.34c11.33,11.33,21.65,1.65,26.74,10.34"/><path class="cls-10" d="M168.57,168.57c-4.46-7.73-6-14.22-1.49-17.89"/><path class="cls-10" d="M211.84,228.23l.11.2.12.2,12.11,21h0"/><polyline class="cls-10" points="258.9 258.9 224.18 249.61 224.18 249.6"/><line class="cls-10" x1="238.55" y1="274.49" x2="238.57" y2="238.58"/><path class="cls-10" d="M238.57,238.58c-11.33-11.34-21.64-1.66-26.73-10.35"/><path class="cls-10" d="M210.34,210.34c4.47,7.73,6,14.22,1.5,17.89"/><polyline class="cls-10" points="214.87 284.32 220.33 263.98 224.18 249.61 224.18 249.6"/><line class="cls-10" x1="207.44" y1="256.55" x2="238.55" y2="274.49"/><path class="cls-10" d="M211.84,228.22c5,8.76-8.55,12.85-4.4,28.33"/><path class="cls-10" d="M197.1,218c4.46,7.73,9.29,12.35,14.74,10.23"/><polyline class="cls-10" points="189.45 120.01 189.45 120 214.87 94.59"/><line class="cls-10" x1="207.43" y1="122.36" x2="189.45" y2="91.27"/><path class="cls-10" d="M189.45,144.69c.06-10.08,13.84-6.85,18-22.33"/><path class="cls-10" d="M197.1,160.92c0-8.92-1.87-15.33-7.65-16.23"/><polyline class="cls-10" points="189.45 120.01 189.45 120 178.93 109.48 164.03 94.59"/><line class="cls-10" x1="189.46" y1="91.27" x2="171.48" y2="122.36"/><path class="cls-10" d="M171.48,122.36c4.15,15.48,17.92,12.25,18,22.33"/><path class="cls-10" d="M181.81,160.92c0-8.92,1.87-15.33,7.65-16.23"/><polyline class="cls-10" points="214.87 284.32 189.45 258.91 189.45 258.9"/><line class="cls-10" x1="189.45" y1="287.64" x2="207.43" y2="256.55"/><path class="cls-10" d="M207.43,256.55c-4.14-15.48-17.92-12.25-18-22.33"/><path class="cls-10" d="M197.1,218c0,8.92-1.87,15.33-7.65,16.23"/><polyline class="cls-10" points="164.03 284.32 178.93 269.43 189.45 258.91 189.45 258.9"/><line class="cls-10" x1="171.48" y1="256.55" x2="189.46" y2="287.64"/><path class="cls-10" d="M189.46,234.22c-.06,10.08-13.83,6.85-18,22.33"/><path class="cls-10" d="M181.81,218c0,8.92,1.87,15.33,7.65,16.23"/><path class="cls-10" d="M224.18,129.3h0l-12.11,21-.12.19-.11.2"/><polyline class="cls-10" points="224.18 129.31 224.18 129.3 258.9 120.01"/><line class="cls-10" x1="238.57" y1="140.34" x2="238.55" y2="104.42"/><path class="cls-10" d="M211.84,150.68c5.09-8.69,15.4,1,26.73-10.34"/><path class="cls-10" d="M210.34,168.57c4.47-7.73,6-14.22,1.5-17.89"/><polyline class="cls-10" points="224.18 129.31 224.18 129.3 220.33 114.93 214.87 94.59"/><line class="cls-10" x1="238.55" y1="104.43" x2="207.44" y2="122.36"/><path class="cls-10" d="M207.44,122.36c-4.15,15.48,9.39,19.57,4.4,28.33"/><path class="cls-10" d="M197.1,160.92c4.46-7.72,9.29-12.34,14.74-10.23"/><path class="cls-10" d="M167.07,228.22l-.12.2-.11.2-12.11,21h0"/><polyline class="cls-10" points="164.03 284.32 154.72 249.6 154.73 249.6"/><line class="cls-10" x1="140.36" y1="274.49" x2="171.48" y2="256.55"/><path class="cls-10" d="M171.48,256.55c4.15-15.48-9.4-19.57-4.41-28.33"/><path class="cls-10" d="M181.81,218c-4.46,7.73-9.29,12.35-14.74,10.23"/><polyline class="cls-10" points="120 258.9 140.35 253.46 154.72 249.6 154.73 249.6"/><line class="cls-10" x1="140.34" y1="238.58" x2="140.37" y2="274.49"/><path class="cls-10" d="M167.08,228.23c-5.09,8.69-15.41-1-26.74,10.35"/><path class="cls-10" d="M168.57,210.34c-4.46,7.73-6,14.22-1.49,17.89"/><path class="cls-10" d="M249.61,154.72h0l-21,12.11-.2.11-.2.12"/><polyline class="cls-10" points="249.6 154.73 249.61 154.72 284.32 164.03"/><line class="cls-10" x1="256.55" y1="171.47" x2="274.49" y2="140.36"/><path class="cls-10" d="M228.22,167.07c8.76-5,12.85,8.56,28.33,4.4"/><path class="cls-10" d="M218,181.81c7.73-4.46,12.35-9.29,10.23-14.74"/><polyline class="cls-10" points="249.6 154.73 249.61 154.72 253.46 140.35 258.9 120"/><line class="cls-10" x1="274.49" y1="140.37" x2="238.58" y2="140.34"/><path class="cls-10" d="M238.58,140.34c-11.34,11.33-1.65,21.65-10.35,26.74"/><path class="cls-10" d="M210.34,168.57c7.73-4.46,14.22-6,17.89-1.49"/><path class="cls-10" d="M150.69,211.84l-.2.11-.2.12-21,12.11h0"/><polyline class="cls-10" points="120.01 258.9 129.3 224.18 129.31 224.18"/><line class="cls-10" x1="104.42" y1="238.55" x2="140.34" y2="238.57"/><path class="cls-10" d="M140.34,238.57c11.33-11.33,1.65-21.64,10.35-26.73"/><path class="cls-10" d="M168.57,210.34c-7.73,4.46-14.22,6-17.88,1.5"/><polyline class="cls-10" points="94.59 214.87 114.93 220.33 129.3 224.18 129.31 224.18"/><line class="cls-10" x1="122.36" y1="207.44" x2="104.43" y2="238.55"/><path class="cls-10" d="M150.69,211.84c-8.76,5-12.85-8.55-28.33-4.4"/><path class="cls-10" d="M160.92,197.1c-7.72,4.46-12.34,9.29-10.23,14.74"/><path d="M189.46,42.37A147.09,147.09,0,1,0,336.55,189.46,147.08,147.08,0,0,0,189.46,42.37Zm0,289.71A142.62,142.62,0,1,1,332.08,189.46,142.62,142.62,0,0,1,189.46,332.08Z"/><circle class="cls-11" cx="189.46" cy="189.46" r="107.61"/></g></g></svg>