<svg xmlns="http://www.w3.org/2000/svg" xmlns:xlink="http://www.w3.org/1999/xlink" viewBox="0 0 353.21 353.21"><defs><style>.cls-1,.cls-5{fill:#393a3a;}.cls-2{font-size:35px;fill:#fef1cd;font-family:SeasideResortNF, Seaside Resort NF;}.cls-3{fill:url(#radial-gradient);}.cls-4{fill:#e68966;}.cls-5{stroke:#393a3a;stroke-miterlimit:10;stroke-width:2px;}</style><radialGradient id="radial-gradient" cx="176.61" cy="176.61" r="162.5" gradientUnits="userSpaceOnUse"><stop offset="0" stop-color="#e68966"/><stop offset="0.1" stop-color="#e68966" stop-opacity="0.95"/><stop offset="0.27" stop-color="#e68966" stop-opacity="0.8"/><stop offset="0.51" stop-color="#e68966" stop-opacity="0.57"/><stop offset="0.8" stop-color="#e68966" stop-opacity="0.25"/><stop offset="1" stop-color="#e68966" stop-opacity="0"/></radialGradient></defs><title>Clock_6</title><g id="Layer_2" data-name="Layer 2"><g id="Layer_1-2" data-name="Layer 1"><path class="cls-1" d="M203.81,215.88h0c-1.18-3.49,2.1-4.84.27-8.55-2.3-3.44-5.11-1.29-7.53-4h0c-2.74-2.43-.59-5.24-4-7.53-3.71-1.83-5.07,1.45-8.55.27h0c-3.59-.73-3.13-4.24-7.26-4.51-4.12.27-3.66,3.78-7.25,4.51h0c-3.48,1.18-4.84-2.1-8.55-.27-3.44,2.29-1.29,5.1-4,7.53h0c-2.43,2.75-5.24.6-7.53,4-1.83,3.71,1.45,5.06.27,8.55h0c-.73,3.6-4.24,3.14-4.51,7.26.27,4.12,3.78,3.67,4.51,7.26h0c1.18,3.49-2.1,4.85-.27,8.56,2.29,3.43,5.1,1.28,7.53,4h0c2.74,2.43.59,5.24,4,7.54,3.71,1.83,5.07-1.45,8.55-.27h0c3.59.73,3.13,4.23,7.25,4.5,4.13-.27,3.67-3.77,7.26-4.5h0c3.48-1.18,4.84,2.1,8.55.27,3.44-2.3,1.29-5.11,4-7.54h0c2.42-2.75,5.23-.6,7.53-4,1.83-3.71-1.45-5.07-.27-8.56h0c.73-3.59,4.24-3.14,4.51-7.26C208.05,219,204.54,219.48,203.81,215.88ZM203,230.19h0c-1.15,3.39,2,4.71.26,8.31-2.23,3.33-5,1.25-7.31,3.91l0,0c-2.66,2.35-.58,5.08-3.91,7.31-3.6,1.77-4.92-1.41-8.31-.26h0c-3.49.71-3,4.11-7,4.37-4-.26-3.56-3.66-7-4.37h0c-3.38-1.15-4.7,2-8.3.26-3.34-2.23-1.25-5-3.92-7.31v0c-2.36-2.66-5.08-.58-7.31-3.91-1.78-3.6,1.4-4.92.26-8.31h0c-.71-3.49-4.11-3.05-4.38-7.05.27-4,3.67-3.56,4.38-7h0c1.14-3.38-2-4.7-.26-8.3,2.23-3.34,4.95-1.25,7.31-3.92h0c2.67-2.36.58-5.09,3.92-7.31,3.6-1.78,4.92,1.4,8.3.26h0c3.48-.71,3-4.12,7-4.38,4,.26,3.56,3.67,7,4.38h0c3.39,1.14,4.71-2,8.31-.26,3.33,2.22,1.25,4.95,3.91,7.31h0c2.35,2.67,5.08.58,7.31,3.92,1.78,3.6-1.41,4.92-.26,8.3h0c.71,3.49,4.11,3,4.38,7C207.13,227.14,203.73,226.7,203,230.19Z"/><path class="cls-1" d="M206,223.14c-.25,3.83-3.5,3.4-4.18,6.74h0c-1.09,3.23,2,4.49.25,7.94-2.13,3.18-4.74,1.19-7,3.74h0c-2.55,2.25-.56,4.86-3.74,7-3.44,1.69-4.7-1.35-7.94-.25h0c-3.33.67-2.91,3.93-6.74,4.18-3.82-.25-3.4-3.51-6.73-4.18h0c-3.24-1.1-4.5,1.94-7.94.25-3.19-2.13-1.19-4.74-3.74-7h0c-2.25-2.55-4.86-.56-7-3.75-1.7-3.44,1.34-4.7.25-7.93h0c-.68-3.34-3.93-2.91-4.18-6.74.25-3.82,3.5-3.4,4.18-6.73h0c1.09-3.24-2-4.5-.25-7.94,2.13-3.19,4.74-1.19,7-3.74h0c2.55-2.26.55-4.86,3.74-7,3.44-1.7,4.7,1.34,7.94.25h0c3.33-.68,2.91-3.93,6.73-4.18,3.83.25,3.41,3.5,6.74,4.18h0c3.24,1.09,4.5-1.95,7.94-.25,3.18,2.13,1.19,4.73,3.74,7h0c2.25,2.55,4.86.55,7,3.74,1.7,3.44-1.34,4.7-.25,7.94h0C202.53,219.74,205.78,219.32,206,223.14Z"/><text class="cls-2" transform="translate(154.75 238.6)">P<tspan x="21.61" y="0">B</tspan></text><rect class="cls-3" x="14.11" y="14.11" width="325" height="325" rx="162.5" ry="162.5"/><path class="cls-4" d="M176.61,339.36a168.57,168.57,0,0,1-62.44-12,164.39,164.39,0,0,1-53.58-34.74A159.72,159.72,0,0,1,12,176.61,163,163,0,0,1,40.64,85.76,167.2,167.2,0,0,1,61.13,61.13,169,169,0,0,1,85.9,40.85a162.52,162.52,0,0,1,28.18-15.2c2.49-1,5-2,7.47-2.91s5-1.79,7.61-2.54,5.12-1.57,7.72-2.21,5.19-1.3,7.81-1.82a165.26,165.26,0,0,1,31.92-3.43A162.69,162.69,0,0,1,293.18,60a165.46,165.46,0,0,1,36,53.38,163.35,163.35,0,0,1-.18,126.3,160.74,160.74,0,0,1-36.3,53,165.11,165.11,0,0,1-53.61,34.72A168.3,168.3,0,0,1,176.61,339.36Zm0-.5a162.19,162.19,0,0,0,31.63-3.23,155.33,155.33,0,0,0,30.29-9.52,160.84,160.84,0,0,0,51.82-35.76A166.12,166.12,0,0,0,310,265.71c1.37-2.23,2.81-4.43,4.13-6.69s2.6-4.56,3.8-6.89,2.4-4.66,3.49-7,2.17-4.77,3.13-7.2a163.78,163.78,0,0,0,9-30.06,163.21,163.21,0,0,0-.1-62.4,163.84,163.84,0,0,0-9-30,160.36,160.36,0,0,0-34.5-52A162.48,162.48,0,0,0,238,28.29,164.24,164.24,0,0,0,208,18.9a161.9,161.9,0,0,0-31.37-3.42,158.79,158.79,0,0,0-61.86,11.79,162.38,162.38,0,0,0-28,14.86A158.15,158.15,0,0,0,62.28,62.28,157.63,157.63,0,0,0,27.75,115a161.58,161.58,0,0,0-11.56,61.66,167.47,167.47,0,0,0,3.22,31.27A165.47,165.47,0,0,0,28.49,238c1,2.43,2.11,4.8,3.16,7.2s2.35,4.69,3.52,7.05,2.55,4.58,3.82,6.88,2.77,4.46,4.15,6.69A167.53,167.53,0,0,0,62.81,290.4a161.35,161.35,0,0,0,51.86,35.75,154.71,154.71,0,0,0,30.3,9.51A162.34,162.34,0,0,0,176.61,338.86Z"/><path class="cls-5" d="M300.78,52.43a175.62,175.62,0,1,0,51.43,124.18A175.09,175.09,0,0,0,300.78,52.43Zm-4.86,243.49a168.74,168.74,0,1,1,49.42-119.31A168.18,168.18,0,0,1,295.92,295.92Z"/><path class="cls-1" d="M190.75,270.56c1,8.12,1.42,12.19,2.27,20.32.14,1.19.21,1.81.22,1.87a1.93,1.93,0,0,0,.68,1.37,2.79,2.79,0,0,0,1.84.29c0,.27-.07.41-.11.69a99.88,99.88,0,0,1-10.46,1.2c.06-.27.09-.41.16-.68a2.51,2.51,0,0,0,2-.95,5.7,5.7,0,0,0,.48-3.34c-.27-5.1-.42-7.65-.74-12.74a84,84,0,0,1-8.2,11.58,24.39,24.39,0,0,0-2.27,3,3.11,3.11,0,0,0-.45,1.44,1.07,1.07,0,0,0,.41.81,3.33,3.33,0,0,0,1.58.52c-.1.27-.15.4-.26.67-2.82,0-4.24,0-7-.13,0-.27,0-.4,0-.67a3.85,3.85,0,0,0,1.48-.57,16.66,16.66,0,0,0,2.57-2.46c7.51-8.36,10.58-12.91,15.22-22.12Z"/><path class="cls-1" d="M169.76,295.74l-.25.66a99.18,99.18,0,0,1-12.16-1.34l.34-.62a3.65,3.65,0,0,0,2.58-.34,6,6,0,0,0,1.88-2.79c2.54-6,3.69-9,5.76-15.12a10.71,10.71,0,0,0,.6-2.18,1.24,1.24,0,0,0-.33-1,3.46,3.46,0,0,0-2-.7c.09-.26.13-.39.22-.64a80.68,80.68,0,0,0,10,.53c-.06.27-.1.4-.16.67a3.25,3.25,0,0,0-2.26.66,7.14,7.14,0,0,0-1.41,3c-1.81,6.19-2.84,9.27-5.12,15.37a8.92,8.92,0,0,0-.59,2.14,1.18,1.18,0,0,0,.43,1.08A5.31,5.31,0,0,0,169.76,295.74Z"/><path class="cls-1" d="M231,70.4l.68-.42a101.89,101.89,0,0,1,20.86,13.67l-.81.23a12.25,12.25,0,0,0-4.46-2.52,6.39,6.39,0,0,0-4.28.71A114.15,114.15,0,0,0,227.23,91a6.65,6.65,0,0,0-1.87,1.53,1.19,1.19,0,0,0,.22,1.33,14.23,14.23,0,0,0,3.24,2.62l-.63.4a81,81,0,0,0-17.9-9.06l.55-.52a11.59,11.59,0,0,0,4.35,1,6.83,6.83,0,0,0,3.65-1.76,101.91,101.91,0,0,1,14.88-10.29,5.34,5.34,0,0,0,1.85-1.51c.23-.4.1-.88-.38-1.45A17.88,17.88,0,0,0,231,70.4Z"/><path class="cls-1" d="M273.54,107l.69-.21a103,103,0,0,1,7.52,12l-.73.09a4.75,4.75,0,0,0-2.09-2.18,5.81,5.81,0,0,0-3.54.07,158.85,158.85,0,0,0-16.05,4.59,10.52,10.52,0,0,0-2.14.87,1.25,1.25,0,0,0-.59,1,4.27,4.27,0,0,0,.83,2.22l-.67.22a80.72,80.72,0,0,0-6.57-9.12l.64-.29a3.75,3.75,0,0,0,2.1,1.51,7,7,0,0,0,3.35-.72,160.15,160.15,0,0,1,15.77-5.44,8.57,8.57,0,0,0,2.11-.86,1.21,1.21,0,0,0,.55-1.09A6.42,6.42,0,0,0,273.54,107Z"/><path class="cls-1" d="M282.4,121.43l.71-.11a100.86,100.86,0,0,1,5.72,12.74h-.74a4.5,4.5,0,0,0-1.74-2.38,5.93,5.93,0,0,0-3.5-.39c-6.68.67-10,1.13-16.51,2.33a9.93,9.93,0,0,0-2.25.56,1.22,1.22,0,0,0-.72.88,4.26,4.26,0,0,0,.5,2.3l-.69.13a79.94,79.94,0,0,0-5.3-10.06l.68-.19a4,4,0,0,0,1.9,1.84,7.09,7.09,0,0,0,3.44-.21c6.47-1.51,9.76-2.14,16.4-3.12a8.61,8.61,0,0,0,2.22-.56,1.19,1.19,0,0,0,.7-1A6.54,6.54,0,0,0,282.4,121.43Z"/><path class="cls-1" d="M295.1,162.56l.7.08a97.66,97.66,0,0,1,.73,9.74l-.69-.17a2.61,2.61,0,0,0-.82-2,7,7,0,0,0-3.15-1c-6.48-1-9.72-1.4-16.21-2a14,14,0,0,0-2.28-.1,1.48,1.48,0,0,0-1,.43,2.22,2.22,0,0,0-.38,1.64l-.69-.06c-.24-3.14-.43-4.69-.92-7.75l.69,0a2.08,2.08,0,0,0,1,1.6,8.81,8.81,0,0,0,3.21.58c6.51.36,9.76.64,16.27,1.4a12.06,12.06,0,0,0,2.26.1,1.37,1.37,0,0,0,1-.51A3.42,3.42,0,0,0,295.1,162.56Z"/><path class="cls-1" d="M295.9,174.24l.69.15c.07,4,0,6-.23,9.87l-.66-.23a2.63,2.63,0,0,0-.63-2.06,6.84,6.84,0,0,0-3-1.33c-6.35-1.65-9.54-2.37-15.94-3.63a14.08,14.08,0,0,0-2.26-.34,1.47,1.47,0,0,0-1,.34,2.28,2.28,0,0,0-.53,1.62l-.68-.14c.06-3.18,0-4.79-.18-7.94l.69.09a2.16,2.16,0,0,0,.8,1.71,8.39,8.39,0,0,0,3.15.91c6.44,1,9.65,1.63,16.06,3.06a11.1,11.1,0,0,0,2.23.33,1.39,1.39,0,0,0,1.07-.41A3.76,3.76,0,0,0,295.9,174.24Z"/><path class="cls-1" d="M295.55,186l.67.21c-.31,3.9-.54,5.82-1.15,9.62l-.65-.3a2.52,2.52,0,0,0-.43-2.07,7,7,0,0,0-2.89-1.6c-6.16-2.23-9.27-3.25-15.51-5.11a15.43,15.43,0,0,0-2.23-.55,1.49,1.49,0,0,0-1.06.22,2.28,2.28,0,0,0-.69,1.53l-.66-.19a78.16,78.16,0,0,0,.6-7.84l.67.15a2.18,2.18,0,0,0,.63,1.79,8.48,8.48,0,0,0,3,1.21c6.31,1.65,9.45,2.56,15.69,4.59a11.6,11.6,0,0,0,2.19.54,1.36,1.36,0,0,0,1.1-.3A3.45,3.45,0,0,0,295.55,186Z"/><path class="cls-1" d="M286.13,224l.54.42a99.86,99.86,0,0,1-4.57,9.37l-.49-.5a2.89,2.89,0,0,0,.37-2.24,6.3,6.3,0,0,0-2.09-2.52c-4.91-4.16-7.43-6.15-12.57-10a13.75,13.75,0,0,0-1.86-1.24,1.41,1.41,0,0,0-1.07-.1,2.59,2.59,0,0,0-1.19,1.34l-.55-.41a80.86,80.86,0,0,0,3.32-7.68l.57.36a2.36,2.36,0,0,0,0,2,7.76,7.76,0,0,0,2.4,2.15c5.28,3.6,7.87,5.5,12.94,9.46a9.93,9.93,0,0,0,1.84,1.22,1.29,1.29,0,0,0,1.13,0A3.92,3.92,0,0,0,286.13,224Z"/><path class="cls-1" d="M259.13,223.66c7,4.25,10.48,6.39,17.42,10.71l1.6,1a2.12,2.12,0,0,0,1.47.37,2.26,2.26,0,0,0,1.25-1.07l.49.49c-1.77,3.18-2.73,4.74-4.71,7.74l-.47-.51a2,2,0,0,0,.28-1.88,6.42,6.42,0,0,0-2.41-2.33c-4.2-2.89-6.31-4.32-10.54-7.17a101.29,101.29,0,0,1,5,12.41,26,26,0,0,0,1.26,3.3,3.86,3.86,0,0,0,.93,1.16,1.14,1.14,0,0,0,.85.21,2.47,2.47,0,0,0,1.2-.72l.41.57c-1.39,1.88-2.1,2.8-3.57,4.6l-.51-.42a3.07,3.07,0,0,0,.26-1.34,15.35,15.35,0,0,0-.71-3.18,100.25,100.25,0,0,0-9.74-23.43Z"/><path class="cls-1" d="M235.35,251.28c4.75,6.67,7.08,10,11.69,16.8.68,1,1,1.49,1.08,1.54a1.6,1.6,0,0,0,1.48.7,5.92,5.92,0,0,0,2.49-1.27c.07.29.1.44.16.73a100.29,100.29,0,0,1-13.35,9.39c0-.29,0-.44-.07-.73a5.1,5.1,0,0,0,2.26-2.36c.31-.84,0-2-.78-3.42-2.52-4.44-3.8-6.65-6.39-11.05a83,83,0,0,1-6.34,16.5,30.94,30.94,0,0,0-1.85,4.2,2.5,2.5,0,0,0,0,1.59c.13.28.43.43.9.47a6.48,6.48,0,0,0,2.39-.55c0,.31,0,.47-.07.78a102,102,0,0,1-9.78,4.23c-.1-.25-.15-.38-.24-.63a7.41,7.41,0,0,0,1.81-1.38,22.08,22.08,0,0,0,2.52-3.8c4.95-10.11,9.61-19.87,11.32-31.14Z"/><path class="cls-1" d="M142.17,265.15c-3.14,7.56-4.72,11.33-7.93,18.85-.46,1.1-.71,1.67-.73,1.73a2.49,2.49,0,0,0-.21,1.49,1.71,1.71,0,0,0,1,1l-.38.57c-2.82-1.08-4.23-1.67-7-2.94.17-.21.25-.32.41-.54a1.62,1.62,0,0,0,1.67-.13,7.46,7.46,0,0,0,1.82-2.78c2.18-4.61,3.26-6.92,5.4-11.55a97.92,97.92,0,0,1-10.45,7.34,25.75,25.75,0,0,0-2.82,1.9,4.22,4.22,0,0,0-1,1.13,1.25,1.25,0,0,0-.1.85,1.9,1.9,0,0,0,.76,1c-.19.2-.29.3-.47.51-1.81-.92-2.7-1.4-4.48-2.41l.33-.58a2.49,2.49,0,0,0,1.22,0,15.4,15.4,0,0,0,2.8-1.36A97.51,97.51,0,0,0,141.74,265Z"/><path class="cls-1" d="M117.32,280.17l-.46.5c-3.14-1.8-4.67-2.76-7.62-4.76l.51-.45a2.27,2.27,0,0,0,1.94.41,7.09,7.09,0,0,0,2.56-1.92c4.46-4.58,6.63-6.92,10.82-11.7a14.12,14.12,0,0,0,1.4-1.74,1.57,1.57,0,0,0,.26-1,2,2,0,0,0-1-1.2l.45-.51c2.47,1.53,3.76,2.27,6.34,3.61l-.42.53a1.91,1.91,0,0,0-1.75-.14A8.83,8.83,0,0,0,128,264c-4,4.92-6.12,7.33-10.45,12a12.76,12.76,0,0,0-1.38,1.71,1.46,1.46,0,0,0-.21,1.1C116.09,279.16,116.53,279.62,117.32,280.17Z"/><path class="cls-1" d="M108.24,274.42l-.5.46c-2.91-2-4.32-3.1-7-5.32l.55-.4a2.27,2.27,0,0,0,1.87.56,7.07,7.07,0,0,0,2.71-1.7c4.83-4.17,7.19-6.32,11.78-10.72a14.47,14.47,0,0,0,1.55-1.62,1.56,1.56,0,0,0,.35-1,2,2,0,0,0-.88-1.28l.49-.46c2.29,1.71,3.47,2.54,5.91,4.1l-.46.5a1.85,1.85,0,0,0-1.72-.3,8.5,8.5,0,0,0-2.48,2c-4.45,4.55-6.74,6.76-11.45,11.08a11.89,11.89,0,0,0-1.52,1.59,1.42,1.42,0,0,0-.32,1.07C107.13,273.33,107.52,273.81,108.24,274.42Z"/><path class="cls-1" d="M102.62,236.21c-6.46,5-9.7,7.51-16.2,12.48l-1.48,1.15A2.92,2.92,0,0,0,84,251a1.24,1.24,0,0,0,.2,1.13l-.6.33c-1.49-1.84-2.22-2.78-3.63-4.7l.61-.31a1.21,1.21,0,0,0,1.31.45,9.27,9.27,0,0,0,2.89-1.62c4.14-3,6.21-4.47,10.33-7.47a117.34,117.34,0,0,1-11.88,2.46,26.16,26.16,0,0,0-3.18.62,5.1,5.1,0,0,0-1.34.6,1.49,1.49,0,0,0-.53.64,1.46,1.46,0,0,0,0,1l-.63.26c-.89-1.3-1.33-2-2.18-3.3l.56-.36a2,2,0,0,0,1,.35,16.13,16.13,0,0,0,2.88-.21,114.59,114.59,0,0,0,22.58-4.92Z"/><path class="cls-1" d="M75.62,240.18l-.62.26c-1.5-2.38-2.23-3.62-3.59-6.09l.66-.2a1.66,1.66,0,0,0,1.33.92,8.2,8.2,0,0,0,3-.74c5.93-2.24,8.87-3.42,14.68-5.91a20.51,20.51,0,0,0,2-.95,1.81,1.81,0,0,0,.73-.73,1.38,1.38,0,0,0-.16-1.26l.62-.27c1.16,2,1.77,2.94,3,4.81l-.6.3a1.36,1.36,0,0,0-1.28-.67,10.51,10.51,0,0,0-2.95,1c-5.73,2.64-8.64,3.9-14.51,6.29a14.91,14.91,0,0,0-2,.94,1.68,1.68,0,0,0-.74.79A2.17,2.17,0,0,0,75.62,240.18Z"/><path class="cls-1" d="M71.37,232.87l-.64.21c-1.33-2.48-2-3.73-3.11-6.26l.66-.16a1.62,1.62,0,0,0,1.26,1,8.3,8.3,0,0,0,3.09-.54c6.07-1.82,9.08-2.8,15.05-4.88a19.16,19.16,0,0,0,2.08-.8,1.84,1.84,0,0,0,.78-.68,1.36,1.36,0,0,0-.07-1.26l.64-.22c1,2,1.55,3,2.69,5l-.62.25a1.39,1.39,0,0,0-1.23-.77,10.45,10.45,0,0,0-3,.82C83,226.83,80,227.88,74,229.85a15.74,15.74,0,0,0-2,.8,1.64,1.64,0,0,0-.79.74A2.15,2.15,0,0,0,71.37,232.87Z"/><path class="cls-1" d="M67.69,225.36l-.66.17c-1.13-2.53-1.66-3.81-2.64-6.38l.67-.11a1.58,1.58,0,0,0,1.19,1.06,8.38,8.38,0,0,0,3.11-.32c6.18-1.42,9.25-2.19,15.34-3.86a18.22,18.22,0,0,0,2.13-.66,1.91,1.91,0,0,0,.84-.61,1.38,1.38,0,0,0,0-1.25l.65-.18c.86,2.07,1.32,3.09,2.31,5.12l-.64.21a1.36,1.36,0,0,0-1.17-.83,10.32,10.32,0,0,0-3.07.61c-6,1.82-9.1,2.66-15.25,4.23a14.5,14.5,0,0,0-2.09.65,1.67,1.67,0,0,0-.85.68A2,2,0,0,0,67.69,225.36Z"/><path class="cls-1" d="M58.07,190.26l-.7-.1a98.65,98.65,0,0,1-.72-10.52l.69.19a2.92,2.92,0,0,0,.81,2.16,6.58,6.58,0,0,0,3.14,1.14c6.48,1.16,9.72,1.63,16.22,2.36a13.73,13.73,0,0,0,2.29.15,1.45,1.45,0,0,0,1-.46,2.56,2.56,0,0,0,.38-1.76l.69.08a79.78,79.78,0,0,0,1,8.36l-.69,0a2.4,2.4,0,0,0-1-1.74,8.31,8.31,0,0,0-3.23-.66c-6.51-.47-9.77-.81-16.29-1.72a12,12,0,0,0-2.26-.14,1.33,1.33,0,0,0-1,.54A4,4,0,0,0,58.07,190.26Z"/><path class="cls-1" d="M70.12,172.76c-3.67,1.07-5.5,1.66-9.14,2.94a9.93,9.93,0,0,0-3,1.43,2.72,2.72,0,0,0-.69,1.74h-.68c-.07-3.86,0-5.81.2-9.63l.67.22a2.19,2.19,0,0,0,.39,1.37,1.4,1.4,0,0,0,1,.39,7.86,7.86,0,0,0,2.27-.44c2.13-.63,3.2-.93,5.34-1.49-1.07-1.05-1.59-1.59-2.63-2.69a23,23,0,0,0-3.21-3.05,2.71,2.71,0,0,0-1.19-.49,1.28,1.28,0,0,0-.94.27,1.77,1.77,0,0,0-.59,1.18l-.66-.26c.29-2.79.47-4.17.91-6.91l.65.24a3.6,3.6,0,0,0,.44,1.52,25.2,25.2,0,0,0,3,3.86c2.19,2.49,3.32,3.69,5.64,6,3.59-.94,5.39-1.35,9-2.09a19,19,0,0,0,3.77-1,2.38,2.38,0,0,0,1-1.21l.66.21c-.36,3-.49,4.48-.63,7.53l-.67-.19a1.48,1.48,0,0,0-.41-1.19,1.65,1.65,0,0,0-1.09-.44,12.5,12.5,0,0,0-3.3.54c-1.91.49-2.86.74-4.77,1.28,1.66,1.48,2.51,2.19,4.22,3.56a14,14,0,0,0,2.65,1.85,2.85,2.85,0,0,0,1.17.24,1.46,1.46,0,0,0,1-.38,1.62,1.62,0,0,0,.46-1.19l.68.16c0,2.41,0,3.6.19,6l-.69-.08a3,3,0,0,0-.67-1.13A30.79,30.79,0,0,0,77,178.5,89.12,89.12,0,0,1,70.12,172.76Z"/><path class="cls-1" d="M83.28,125.19c-4-.23-6-.27-10.13-.22a9.27,9.27,0,0,0-3.57.52,4.58,4.58,0,0,0-1.68,1.93l-.63-.28a102.33,102.33,0,0,1,6.43-12.25l.45.57a3.91,3.91,0,0,0-.59,1.93,1.12,1.12,0,0,0,.59.92,5.77,5.77,0,0,0,2.35.43c2.35.12,3.52.2,5.84.42-.22-1.81-.31-2.72-.46-4.55a28.09,28.09,0,0,0-.69-5.23,2.1,2.1,0,0,0-.71-1.13,1.1,1.1,0,0,0-1.06-.07,3.16,3.16,0,0,0-1.39,1.2c-.16-.24-.25-.36-.41-.61,2.3-3.35,3.5-5,6-8.07l.4.59a6.33,6.33,0,0,0-.77,2,32,32,0,0,0-.22,6,92.52,92.52,0,0,0,.79,10c3.9.38,5.83.64,9.62,1.3a16.64,16.64,0,0,0,4.14.42,3.92,3.92,0,0,0,1.86-1l.44.55A80.19,80.19,0,0,0,94,129.76l-.49-.53a2.83,2.83,0,0,0,.46-1.72,1.44,1.44,0,0,0-.68-1,9.17,9.17,0,0,0-3.35-.74c-2.06-.22-3.09-.3-5.17-.43.5,2.61.8,3.89,1.48,6.39a14.33,14.33,0,0,0,1.24,3.52,2.18,2.18,0,0,0,.91.82,1.23,1.23,0,0,0,1.1-.05,3,3,0,0,0,1.15-1.33l.51.5a81.31,81.31,0,0,0-3.36,7.77l-.57-.41a5.18,5.18,0,0,0,0-1.75,39.8,39.8,0,0,0-1.41-5.23A74.76,74.76,0,0,1,83.28,125.19Z"/><path class="cls-1" d="M117.51,87.94c-3-2.36-4.54-3.51-7.68-5.73A9.86,9.86,0,0,0,107,80.6a2.53,2.53,0,0,0-1.78.42l-.41-.54c3-2.25,4.58-3.32,7.81-5.36l.22.67a2.12,2.12,0,0,0-.89,1.11,1.39,1.39,0,0,0,.25,1,7.71,7.71,0,0,0,1.68,1.59c1.75,1.36,2.62,2,4.33,3.45.23-1.47.36-2.21.66-3.7a23.72,23.72,0,0,0,.63-4.41,2.65,2.65,0,0,0-.29-1.25,1.23,1.23,0,0,0-.78-.6,1.81,1.81,0,0,0-1.31.21l-.18-.68c2.48-1.42,3.72-2.09,6.24-3.34l.18.67a3.6,3.6,0,0,0-1,1.25,25.86,25.86,0,0,0-1.45,4.68c-.77,3.25-1.1,4.88-1.6,8.09,2.86,2.37,4.26,3.59,7,6.07a19.63,19.63,0,0,0,3,2.48,2.51,2.51,0,0,0,1.62.13c.09.27.13.4.21.66-2.67,1.46-4,2.25-6.53,3.91-.09-.26-.14-.39-.24-.65a1.53,1.53,0,0,0,.73-1,1.71,1.71,0,0,0-.28-1.14,12.55,12.55,0,0,0-2.37-2.37c-1.51-1.26-2.28-1.89-3.82-3.12-.22,2.2-.29,3.29-.38,5.46a14.07,14.07,0,0,0,.08,3.2,3,3,0,0,0,.5,1.09,1.47,1.47,0,0,0,.86.58,1.51,1.51,0,0,0,1.21-.31l.28.65c-1.91,1.36-2.84,2.07-4.64,3.54l-.33-.61a2.91,2.91,0,0,0,.5-1.18,28.5,28.5,0,0,0,.28-4.45A80.82,80.82,0,0,1,117.51,87.94Z"/><path class="cls-1" d="M124.66,69.19c-.06-.28-.08-.41-.14-.69a101.93,101.93,0,0,1,9.54-4.11l.05.71a2.82,2.82,0,0,0-1.71,1.46,6.66,6.66,0,0,0,0,3.34c1.07,6.49,1.7,9.7,3.16,16.07a14.38,14.38,0,0,0,.62,2.21,1.44,1.44,0,0,0,.76.79,2.47,2.47,0,0,0,1.77-.22l.15.68a77.89,77.89,0,0,0-7.58,3.7l-.2-.67A2.42,2.42,0,0,0,132.41,91a8.28,8.28,0,0,0-.43-3.27c-1.69-6.31-2.44-9.51-3.75-16a10.58,10.58,0,0,0-.61-2.17,1.33,1.33,0,0,0-.84-.79A3.94,3.94,0,0,0,124.66,69.19Z"/><path class="cls-1" d="M167.22,70.46c-1.21-3.54-1.85-5.3-3.21-8.8a12,12,0,0,0-1.37-2.84,1.79,1.79,0,0,0-1.35-.55l-.09-.68c2.81-.36,4.22-.5,7.08-.69,0,.27-.05.41-.08.69a1.32,1.32,0,0,0-1,.53,1.55,1.55,0,0,0-.18,1,9.89,9.89,0,0,0,.58,2.21c.71,2,1.06,3.08,1.72,5.13.66-1.17,1-1.76,1.7-2.92A23.6,23.6,0,0,0,173,60a3.36,3.36,0,0,0,.23-1.25,1.5,1.5,0,0,0-.31-.89,1.25,1.25,0,0,0-1-.43c0-.27.07-.41.12-.68,2.13-.08,3.21-.1,5.35-.09,0,.28-.06.41-.11.68a2.5,2.5,0,0,0-1.11.67,23.59,23.59,0,0,0-2.58,3.48c-1.63,2.52-2.39,3.79-3.82,6.35,1.11,3.46,1.63,5.19,2.6,8.67a22.46,22.46,0,0,0,1.19,3.61,1.91,1.91,0,0,0,1,.88c0,.27-.05.41-.08.68-2.3.05-3.44.11-5.7.3,0-.28,0-.42.06-.69a1,1,0,0,0,.84-.54,2.12,2.12,0,0,0,.2-1.13,16.49,16.49,0,0,0-.79-3.22c-.58-1.84-.87-2.76-1.49-4.59-.9,1.8-1.32,2.7-2.12,4.52a16.2,16.2,0,0,0-1.05,2.78,4,4,0,0,0,0,1.19,1.82,1.82,0,0,0,.39.93,1,1,0,0,0,.92.36l0,.69c-1.75.2-2.62.32-4.35.6,0-.28,0-.41,0-.69a2.12,2.12,0,0,0,.76-.73,28.25,28.25,0,0,0,1.71-3.63C165.05,74.83,165.73,73.37,167.22,70.46Z"/><path class="cls-1" d="M178.44,57.31c.05-.28.08-.41.14-.68,3.2,0,4.79.13,7.93.38-.08.27-.12.4-.21.67a1.89,1.89,0,0,0-1.68.62,8,8,0,0,0-1.16,3c-1.52,6.32-2.21,9.5-3.42,15.86a16.75,16.75,0,0,0-.34,2.26,1.69,1.69,0,0,0,.24,1,1.65,1.65,0,0,0,1.28.57c-.05.27-.08.4-.13.67-2.55-.11-3.86-.13-6.43-.08,0-.27.06-.41.09-.68a1.65,1.65,0,0,0,1.43-.73,9.88,9.88,0,0,0,.84-3.11c1-6.39,1.62-9.59,3-16a14.21,14.21,0,0,0,.34-2.22,1.62,1.62,0,0,0-.3-1.08A2.47,2.47,0,0,0,178.44,57.31Z"/><path class="cls-1" d="M187.92,57.82c.08-.26.11-.4.19-.66,3.14.3,4.69.5,7.76,1-.1.26-.16.39-.26.65a1.86,1.86,0,0,0-1.7.49,7.92,7.92,0,0,0-1.38,2.91c-2,6.19-2.93,9.3-4.62,15.55a16.48,16.48,0,0,0-.52,2.22,1.81,1.81,0,0,0,.15,1.06,1.59,1.59,0,0,0,1.22.66l-.18.67c-2.5-.31-3.77-.43-6.31-.58.06-.27.08-.41.14-.68a1.56,1.56,0,0,0,1.46-.61,9.9,9.9,0,0,0,1.08-3c1.52-6.3,2.36-9.44,4.19-15.68a13.45,13.45,0,0,0,.5-2.19,1.57,1.57,0,0,0-.2-1.09A2.51,2.51,0,0,0,187.92,57.82Z"/></g></g></svg>