<svg xmlns="http://www.w3.org/2000/svg" viewBox="0 0 334.02 334.02"><defs><style>.cls-1,.cls-5,.cls-6{fill:#09fbd3;}.cls-1{stroke:#09fbd3;}.cls-1,.cls-3{stroke-miterlimit:10;}.cls-2{fill:#fff;}.cls-3{fill:none;stroke:#000;}.cls-4{fill:#fd00f6;}.cls-6{font-size:50.13px;font-family:BernardMT-Condensed, Bernard MT Condensed;}</style></defs><title>Clock_5</title><g id="Layer_2" data-name="Layer 2"><g id="Layer_1-2" data-name="Layer 1"><circle cx="167.01" cy="167.01" r="167.01"/><polygon class="cls-1" points="186.63 50.22 147.39 50.22 127.77 84.21 147.39 118.19 186.63 118.19 206.25 84.21 186.63 50.22"/><polygon class="cls-2" points="193.32 79.27 179.84 100.45 174.89 100.45 188.37 79.27 177.93 62.89 159.13 110.33 154.19 110.33 140.71 89.15 154.19 67.98 159.13 67.98 145.65 89.15 156.09 105.55 174.89 58.09 179.84 58.09 193.32 79.27"/><path class="cls-2" d="M193.67,79.27c-1.81,3.56-3.71,7.25-5.73,11s-4.12,7.53-6.27,11.36a2,2,0,0,1-1.62,1h-.21l-5,.21a2.34,2.34,0,0,1-2.11-3.5l.1-.17L176,93.73l3.22-5.38c2.13-3.6,4.32-7.17,6.51-10.74v3.32c-1.75-2.72-3.55-5.42-5.27-8.16s-3.44-5.49-5.11-8.26l5.35-.51c-3.35,7.82-7,15.53-10.56,23.26-1.76,3.88-3.54,7.75-5.21,11.66s-3.3,7.84-4.86,11.8a1,1,0,0,1-1,.67h0l-4.94,0a1.1,1.1,0,0,1-.92-.49v0c-1.13-1.76-2.29-3.5-3.46-5.24s-2.32-3.48-3.52-5.2c-2.36-3.45-4.77-6.88-7.19-10.3a1.75,1.75,0,0,1-.09-1.89l.09-.17,6.23-10.91c1-1.83,2.1-3.62,3.15-5.43s2.11-3.62,3.19-5.41A2.87,2.87,0,0,1,154,65h.17l4.94-.12a3.06,3.06,0,0,1,3.15,3,3.1,3.1,0,0,1-.44,1.68l-.08.12-6.52,10.73-6.55,10.71V87.22c1.78,2.71,3.58,5.4,5.33,8.12s3.51,5.45,5.24,8.19l-6.66.64q2.37-5.92,4.83-11.82t5-11.75c1.67-3.91,3.35-7.83,5.08-11.71s3.43-7.8,5.21-11.67l.1-.22a2.19,2.19,0,0,1,2.09-1.27l5,.24h.22a1.91,1.91,0,0,1,1.56,1c2.14,3.83,4.26,7.61,6.25,11.35S191.81,75.71,193.67,79.27Zm-.7,0-7.69-10.21c-2.5-3.32-4.87-6.59-7.23-9.83l1.79,1-5,.24,2.2-1.49c-1.36,4-2.78,8.05-4.2,12.07s-2.86,8-4.32,12-2.91,8-4.42,12-3,8-4.57,11.91a3.74,3.74,0,0,1-6.64.66l0,0q-2.62-4.09-5.2-8.21c-1.74-2.74-3.41-5.51-5.11-8.27l-.06-.09a3.51,3.51,0,0,1,.06-3.78l6.92-10.47,7-10.45,2.63,4.8L154.19,71l2.52-1.39c-1.16,1.74-2.35,3.47-3.54,5.19s-2.38,3.45-3.59,5.15l-7.26,10.26V88.12c2.08,3.64,4.16,7.28,6.29,10.88,1,1.82,2.15,3.6,3.22,5.39s2.16,3.58,3.28,5.35l-.92-.51,4.94,0-1,.67c1.58-4,3.11-7.92,4.55-11.92s2.82-8,4.19-12.06c2.69-8.09,5.33-16.19,8.25-24.19a3,3,0,0,1,5.26-.64l.09.13q2.72,4,5.33,8.12c1.75,2.73,3.44,5.49,5.16,8.23l0,.06a3,3,0,0,1,0,3.25c-2.29,3.5-4.6,7-7,10.45l-3.52,5.2-3.58,5.16-2-3.67,5,.21-1.84,1c2.35-3.24,4.69-6.52,7.21-9.82S190.28,82.77,193,79.27Z"/><line class="cls-3" x1="177.93" y1="88.49" x2="177.93" y2="88.48"/><line class="cls-3" x1="177.93" y1="88.49" x2="177.93" y2="88.48"/><polygon class="cls-4" points="17.18 167.01 19.18 174.49 7.1 174.49 5.09 167.01 7.1 159.53 19.18 159.53 17.18 167.01"/><path class="cls-4" d="M17.43,167a33.06,33.06,0,0,1,2.17,3.56A31.8,31.8,0,0,1,21.16,174a1.86,1.86,0,0,1-1.06,2.41,2,2,0,0,1-.46.12l-.46,0c-1,.11-2,.16-3,.19a17,17,0,0,1-3-.15c-2-.28-4-.94-6-1.19l-.23,0a.74.74,0,0,1-.63-.64,23.81,23.81,0,0,0-2.47-7.35.24.24,0,0,1,0-.16l0-.55c.08-1.32.16-2.63.32-3.93s.43-2.55.66-3.83a2.14,2.14,0,0,1,1.93-1.77l.42,0c1-.09,2-.16,3-.21s2-.06,3,0a56,56,0,0,1,6,.56l.63.09a1.84,1.84,0,0,1,1.55,2.08,1.79,1.79,0,0,1-.14.48c-.25.56-.5,1.12-.79,1.68s-.55,1.13-.88,1.7C18.93,164.6,18.24,165.77,17.43,167Zm-.5,0a25.37,25.37,0,0,1-.12-3.92c0-.68.08-1.35.12-2s.13-1.38.22-2.07l2,2.66a56,56,0,0,1-6,.56c-1,0-2,0-3,0s-2-.12-3-.21l2.35-1.8c-.45,1.22-.85,2.44-1.35,3.65s-1.1,2.38-1.69,3.56v-.71A23.55,23.55,0,0,0,8,174.26l-.86-.66c2-.25,4-.91,6-1.19a18,18,0,0,1,3-.16c1,0,2,.09,3,.2l-2,2.57a33.49,33.49,0,0,1-.45-4.08A18.9,18.9,0,0,1,16.93,167Z"/><path class="cls-5" d="M43,86.58a28,28,0,0,1-1.63,3.24,26.84,26.84,0,0,1-2.65,3.72l.53-.92a37.75,37.75,0,0,1-.81,3.8A18.05,18.05,0,0,1,37,100l-.34.66a1.47,1.47,0,0,1-2,.63,1.66,1.66,0,0,1-.3-.22c-.77-.69-1.5-1.42-2.29-2.08a16.46,16.46,0,0,0-2.44-1.82,25.9,25.9,0,0,0-5.54-2.49,1,1,0,0,1-.67-1l0-.55c.08-1.32.16-2.63.32-3.93s.43-2.55.65-3.83a1.67,1.67,0,0,1,.36-.77l.27-.32c.84-1,1.68-2,2.57-2.91a37.27,37.27,0,0,1,2.81-2.67l.26-.23a2.36,2.36,0,0,1,2.85-.18A44.06,44.06,0,0,1,39,82.58,54,54,0,0,1,43,86.58Zm-.5.07c-2.48-.88-4.62-1.49-6.5-2a33.12,33.12,0,0,1-5-1.81l3.12-.41a37.4,37.4,0,0,1-2.68,2.81c-.93.89-1.92,1.73-2.91,2.57l.63-1.09c-.44,1.21-.84,2.44-1.35,3.65s-1.09,2.38-1.68,3.55l-.64-1.53a25.92,25.92,0,0,0,4.93,3.54,17,17,0,0,0,2.8,1.21c1,.35,2,.62,3,.94l-2.61,1.08a18.43,18.43,0,0,1,.55-3.87,36,36,0,0,1,1.2-3.69l.16-.41a1.12,1.12,0,0,1,.37-.5,20.56,20.56,0,0,1,2.82-1.76C39.74,88.3,41,87.6,42.48,86.65Z"/><polygon class="cls-4" points="328.93 167.01 326.93 174.49 314.84 174.49 316.85 167.01 314.84 159.53 326.93 159.53 328.93 167.01"/><path class="cls-4" d="M329.18,167a18.9,18.9,0,0,1,.17,3.93,33.49,33.49,0,0,1-.45,4.08,1.77,1.77,0,0,1-1.55,1.47l-.43,0c-1,.11-2,.16-3,.19a17,17,0,0,1-3-.15c-2-.28-4-.94-6-1.19l-.22,0a.8.8,0,0,1-.69-.9.46.46,0,0,1,.05-.2,23.81,23.81,0,0,0,1.54-7.6v.71c-.59-1.18-1.17-2.36-1.68-3.56s-.9-2.43-1.35-3.65a2.26,2.26,0,0,1,1.35-2.9,2.35,2.35,0,0,1,.57-.13l.43,0c1-.09,2-.16,3-.21s2-.06,3,0a55.8,55.8,0,0,1,6,.56l.6.09A1.7,1.7,0,0,1,329,159c.09.69.17,1.38.21,2.07s.12,1.36.13,2A25.37,25.37,0,0,1,329.18,167Zm-.5,0c-.82-1.24-1.51-2.41-2.12-3.56-.33-.57-.59-1.14-.88-1.7s-.54-1.12-.79-1.68l2,1.57a55.8,55.8,0,0,1-6,.56c-1,0-2,0-3,0s-2-.12-3-.21l2.35-3.06c.22,1.28.49,2.54.65,3.83s.25,2.61.33,3.93l0,.55a.45.45,0,0,1,0,.16,23.55,23.55,0,0,0-2.47,7.35l-.86-1.12c2-.25,4-.91,6-1.19a18,18,0,0,1,3-.16c1,0,2,.09,3,.2L325,174a33.77,33.77,0,0,1,1.55-3.39A31.68,31.68,0,0,1,328.68,167Z"/><path class="cls-5" d="M309.47,240.4a19.67,19.67,0,0,1,.2,3.74,30.63,30.63,0,0,1-.46,4.36,1.27,1.27,0,0,1-.27.6l-.26.32a37.4,37.4,0,0,1-2.59,2.88,19.08,19.08,0,0,1-3.07,2.41l-.64.4a1.25,1.25,0,0,1-1.51-.12c-.76-.69-1.5-1.43-2.28-2.09a18.33,18.33,0,0,0-2.44-1.81,25.88,25.88,0,0,0-5.54-2.5,1.14,1.14,0,0,1-.72-1.43,1.26,1.26,0,0,1,.13-.26l.3-.46c.73-1.1,1.46-2.2,2.25-3.24s1.65-2,2.48-3l-.63,1.09c.23-1.28.47-2.55.77-3.8a36.85,36.85,0,0,1,1.09-3.72l.12-.33a2.44,2.44,0,0,1,3.11-1.51,2.63,2.63,0,0,1,.56.27,51.8,51.8,0,0,1,5.31,4A35.13,35.13,0,0,1,309.47,240.4Zm-.46.19c-2.43-.7-4.49-1.31-6.38-1.92a41.58,41.58,0,0,1-5.15-2l3.79-1.57a37,37,0,0,1-.92,3.77c-.36,1.24-.79,2.46-1.23,3.68l-.14.38a1.65,1.65,0,0,1-.49.71c-1,.83-2,1.69-3,2.48s-2.14,1.52-3.24,2.24l-.28-2.15a26.1,26.1,0,0,0,4.93,3.55A17.81,17.81,0,0,0,299.7,251c1,.34,2,.62,2.95.93l-2.15.29a18.73,18.73,0,0,1,2.41-3.08,37.4,37.4,0,0,1,2.88-2.59l-.53.92a25.06,25.06,0,0,1,1.55-3.12C307.44,243.22,308.17,242,309,240.59Z"/><path class="cls-5" d="M309.47,93.63a16.23,16.23,0,0,1-1.79,2.06c-.7.69-1.46,1.39-2.29,2.07s-1.71,1.35-2.64,2a31,31,0,0,1-2.86,1.77l-.12.07a2.18,2.18,0,0,1-2.95-.88,2.74,2.74,0,0,1-.21-.54,20.07,20.07,0,0,1-.45-3.89c-.05-1.32-.08-2.66-.25-4l.23.4a24.1,24.1,0,0,0-5.82-5.14A1.14,1.14,0,0,1,290,86a1.37,1.37,0,0,1,.2-.22l.41-.36c.77-.68,1.53-1.37,2.33-2s1.61-1.24,2.44-1.81c1.66-1.15,3.31-2.33,5-3.36a2.62,2.62,0,0,1,3.19.38l.05,0c.92.91,1.81,1.84,2.64,2.84s1.65,2,2.43,3l.36.48a1,1,0,0,1,.18.46c.11.75.2,1.5.24,2.24s.11,1.45.11,2.14A29,29,0,0,1,309.47,93.63Zm-.46-.2-2.15-3.73c-.33-.56-.6-1.09-.89-1.6s-.54-1-.77-1.51l.55,1c-1.05-.78-2.07-1.59-3.05-2.43s-1.93-1.72-2.84-2.64l3.24.42c-1.76,1-3.6,1.82-5.43,2.69-.91.44-1.83.85-2.79,1.21s-1.93.68-2.9,1l.28-2.15a23.46,23.46,0,0,0,5.14,5.81.43.43,0,0,1,.14.19l.09.21c.5,1.21,1.14,2.37,1.75,3.54a20,20,0,0,1,1.56,3.6l-3.28-1.36A19.78,19.78,0,0,1,300,96.39c.82-.38,1.69-.71,2.6-1s1.89-.64,2.94-1S307.73,93.75,309,93.43Z"/><path class="cls-5" d="M43,247.44c-.43.58-1.06,1.21-1.7,1.9s-1.42,1.4-2.26,2.11a32.38,32.38,0,0,1-2.69,2.08,28.15,28.15,0,0,1-2.95,1.86l-.12.07a2.14,2.14,0,0,1-2.58-.43,19.87,19.87,0,0,1-2.34-3.14c-.7-1.12-1.39-2.25-2.19-3.29l-.13-.17a.43.43,0,0,1-.1-.22,23.76,23.76,0,0,0-2.46-7.36,1,1,0,0,1,.23-1.19l.4-.35c.78-.68,1.54-1.37,2.34-2a28.61,28.61,0,0,1,2.44-1.82c1.66-1.14,3.31-2.32,5-3.36a2.66,2.66,0,0,1,3.64.91,2.46,2.46,0,0,1,.28.65l0,.07c.34,1.25.65,2.5.87,3.78s.43,2.56.58,3.85l-.55-.94c.49.62,1,1.25,1.38,1.9s.84,1.26,1.18,1.88C42,245.45,42.55,246.56,43,247.44Zm-.5-.07a43.48,43.48,0,0,0-3.79-2.26c-.58-.29-1.07-.58-1.57-.85s-.93-.55-1.36-.84a.83.83,0,0,1-.28-.34l-.26-.61c-.52-1.19-1-2.4-1.43-3.62s-.81-2.46-1.14-3.71l3.94,1.63c-1.76,1-3.61,1.81-5.43,2.68a30.11,30.11,0,0,1-2.79,1.21c-.95.37-1.93.69-2.91,1l.64-1.54a23.55,23.55,0,0,0,1.55,7.6l-.23-.4c1,.8,2.17,1.49,3.28,2.19a19.87,19.87,0,0,1,3.14,2.34l-2.7-.36a17.44,17.44,0,0,1,2.28-1.16c.8-.35,1.64-.64,2.55-.94s1.91-.58,3-.91S41.17,247.8,42.48,247.37Z"/><path class="cls-5" d="M253.7,32.23a17,17,0,0,1-.52,2.68,29.51,29.51,0,0,1-1,2.94c-.38,1-.8,2-1.29,3a31.4,31.4,0,0,1-1.59,3l-.07.12a2.18,2.18,0,0,1-3,.71,2.27,2.27,0,0,1-.45-.37,19.22,19.22,0,0,1-2.33-3.14c-.71-1.12-1.4-2.26-2.19-3.29l.4.23a23.87,23.87,0,0,0-7.61-1.54,1.14,1.14,0,0,1-1.06-1.2,1.35,1.35,0,0,1,.05-.29l.18-.52c.33-1,.65-2,1-2.9s.77-1.88,1.2-2.79c.87-1.83,1.71-3.67,2.69-5.43a2.62,2.62,0,0,1,3-1.27l.06,0c1.25.32,2.48.69,3.7,1.13s2.43.91,3.63,1.43l.55.24a1,1,0,0,1,.39.3c.47.6.92,1.21,1.33,1.82s.82,1.2,1.16,1.8A28.6,28.6,0,0,1,253.7,32.23Zm-.5.06-3.72-2.16c-.57-.31-1.07-.63-1.58-.93s-1-.61-1.42-.92l1,.54c-1.3-.15-2.58-.34-3.86-.58s-2.53-.53-3.77-.87l3-1.25c-1,1.73-2.22,3.38-3.37,5-.57.83-1.16,1.66-1.81,2.44s-1.33,1.56-2,2.33l-.83-2a23.85,23.85,0,0,0,7.36,2.46.54.54,0,0,1,.22.09l.18.14c1,.8,2.17,1.48,3.29,2.19A20.34,20.34,0,0,1,249,41.15l-3.52.46a21.58,21.58,0,0,1,1.43-2.27c.52-.73,1.11-1.46,1.73-2.2s1.32-1.5,2.07-2.3S252.26,33.21,253.2,32.29Z"/><path class="cls-5" d="M99.81,298.68a24.58,24.58,0,0,1-.53,2.49c-.24.93-.53,1.93-.9,3s-.79,2.1-1.28,3.15a31.17,31.17,0,0,1-1.63,3.08l-.07.12a2.13,2.13,0,0,1-2.45.92,19.18,19.18,0,0,1-3.59-1.55c-1.17-.61-2.34-1.26-3.54-1.75l-.21-.09a.45.45,0,0,1-.19-.14,23.68,23.68,0,0,0-5.82-5.14,1,1,0,0,1-.39-1.14l.18-.51c.32-1,.64-2,1-2.91a30.11,30.11,0,0,1,1.21-2.79c.87-1.83,1.7-3.67,2.68-5.43a2.65,2.65,0,0,1,4.17-.61l.05.05c.92.91,1.81,1.85,2.64,2.84s1.66,2,2.43,3l-.94-.55c.73.3,1.46.61,2.14,1s1.37.68,2,1C98,297.44,99,298.13,99.81,298.68Zm-.46.19a42.06,42.06,0,0,0-4.42-.06c-.65,0-1.22,0-1.79,0s-1.08,0-1.59,0a.86.86,0,0,1-.42-.16l-.53-.39c-1-.78-2.06-1.59-3-2.43s-1.93-1.72-2.84-2.64l4.22-.56c-1,1.73-2.21,3.38-3.36,5a28.61,28.61,0,0,1-1.82,2.44c-.64.8-1.33,1.56-2,2.33l-.22-1.65a23.68,23.68,0,0,0,5.14,5.82l-.4-.23c1.29.17,2.62.19,3.94.25a20,20,0,0,1,3.89.45l-2.52,1A16.49,16.49,0,0,1,93,306c.51-.69,1.1-1.37,1.74-2.08s1.35-1.46,2.12-2.28S98.42,299.9,99.35,298.87Z"/><polygon class="cls-4" points="174.49 7.1 174.49 19.18 167.01 17.18 159.53 19.18 159.53 7.1 167.01 5.09 174.49 7.1"/><path class="cls-4" d="M174.69,7a16.52,16.52,0,0,1,.89,2.58c.25,1,.48,2,.65,3s.31,2.15.39,3.27a31.35,31.35,0,0,1,.11,3.36v.14a2.17,2.17,0,0,1-2.82,2,19.47,19.47,0,0,1-3.59-1.55c-1.17-.61-2.34-1.26-3.54-1.75h.46a23.85,23.85,0,0,0-7.36,2.46,1.13,1.13,0,0,1-1.52-.5,1.52,1.52,0,0,1-.09-.28l-.11-.54c-.2-1-.42-2-.57-3s-.28-2-.36-3c-.15-2-.35-4-.39-6a2.64,2.64,0,0,1,1.93-2.58h.06a37.61,37.61,0,0,1,3.78-.87c1.27-.24,2.56-.44,3.86-.58l.59-.07a.93.93,0,0,1,.5.07c.7.28,1.39.58,2.05.91s1.31.63,1.91,1A27.88,27.88,0,0,1,174.69,7Zm-.39.3H170c-.65,0-1.25,0-1.84,0s-1.14,0-1.68-.09h1.09c-1.2.52-2.41,1-3.63,1.42s-2.46.81-3.71,1.14l2-2.59c0,2-.23,4-.39,6-.08,1-.18,2-.35,3s-.37,2-.57,3l-1.73-1.32a23.87,23.87,0,0,0,7.61-1.54.41.41,0,0,1,.24,0l.22,0c1.29.17,2.62.19,3.94.25a20,20,0,0,1,3.89.45l-2.81,2.16a18.55,18.55,0,0,1,.11-2.68c.08-.9.22-1.82.39-2.77s.4-2,.65-3S173.93,8.52,174.3,7.25Z"/><polygon class="cls-4" points="174.49 314.84 174.49 326.93 167.01 328.93 159.53 326.93 159.53 314.84 167.01 316.85 174.49 314.84"/><path class="cls-4" d="M174.65,314.64c.28.67.52,1.52.79,2.42s.5,1.93.7,3,.36,2.21.46,3.37a31.14,31.14,0,0,1,.13,3.48v.14a2.15,2.15,0,0,1-1.66,2,20,20,0,0,1-3.89.45c-1.32,0-2.65.08-3.94.25l-.22,0a.47.47,0,0,1-.24,0,23.87,23.87,0,0,0-7.61-1.54,1,1,0,0,1-.9-.79l-.11-.54c-.2-1-.42-2-.57-3s-.28-2-.36-3c-.15-2-.35-4-.39-6a2.65,2.65,0,0,1,2.61-2.69,2.32,2.32,0,0,1,.7.08l.07,0c1.25.32,2.49.69,3.71,1.13s2.43.91,3.63,1.43h-1.09c.78-.11,1.56-.2,2.33-.25s1.52-.09,2.22-.07C172.44,314.48,173.67,314.58,174.65,314.64Zm-.31.4a40,40,0,0,0-3.86,2.16c-.54.35-1,.63-1.52.92a13.92,13.92,0,0,1-1.4.76.84.84,0,0,1-.44.08l-.65-.08c-1.3-.15-2.59-.34-3.86-.58s-2.53-.53-3.78-.87l3.38-2.59c0,2-.23,4-.39,6-.08,1-.18,2-.35,3s-.37,2-.57,3l-1-1.32a23.61,23.61,0,0,0,7.36,2.47h-.46c1.2-.5,2.37-1.14,3.54-1.76a20.17,20.17,0,0,1,3.59-1.55l-1.65,2.16a14.58,14.58,0,0,1,.13-2.55c.1-.86.26-1.74.46-2.68s.45-1.94.7-3S174.06,316.39,174.34,315Z"/><path class="cls-5" d="M99.81,35.34a28,28,0,0,1-3,2,27.44,27.44,0,0,1-4.16,1.9l.92-.53A37.4,37.4,0,0,1,91,41.58,19.16,19.16,0,0,1,87.87,44l-.63.4a1.46,1.46,0,0,1-2.16-.77c-.32-1-.59-2-.94-2.95a16.92,16.92,0,0,0-1.21-2.79A25.61,25.61,0,0,0,79.39,33a1,1,0,0,1-.09-1.2l.3-.46c.73-1.1,1.46-2.19,2.24-3.23s1.66-2,2.49-3a1.55,1.55,0,0,1,.69-.48l.4-.15c1.22-.43,2.44-.86,3.68-1.23a36.77,36.77,0,0,1,3.76-.91l.34-.07a2.37,2.37,0,0,1,2.56,1.27,45,45,0,0,1,2.62,6.4A55.65,55.65,0,0,1,99.81,35.34Zm-.46-.19c-1.72-2-3.26-3.6-4.62-5a32,32,0,0,1-3.43-4.06l2.9,1.2a34.43,34.43,0,0,1-3.72,1.09c-1.25.31-2.53.54-3.8.77l1.09-.63c-1,.84-2,1.7-3,2.49s-2.13,1.51-3.23,2.24l.22-1.65a26.35,26.35,0,0,0,2.49,5.54,17.57,17.57,0,0,0,1.82,2.44c.66.78,1.39,1.52,2.08,2.28l-2.79-.37a18.48,18.48,0,0,1,2.4-3.07c.92-.91,1.88-1.77,2.89-2.59l.35-.29a1.25,1.25,0,0,1,.57-.24,19.56,19.56,0,0,1,3.32-.11C96.14,35.21,97.61,35.25,99.35,35.15Z"/><path class="cls-5" d="M253.7,301.79a19.91,19.91,0,0,1-1.7,3.34,29.52,29.52,0,0,1-2.58,3.55,1.29,1.29,0,0,1-.54.39l-.38.14a35.1,35.1,0,0,1-3.68,1.2A18.43,18.43,0,0,1,241,311l-.75,0a1.26,1.26,0,0,1-1.25-.86c-.31-1-.59-2-.93-2.95a18.22,18.22,0,0,0-1.21-2.79,26.1,26.1,0,0,0-3.55-4.93,1.14,1.14,0,0,1,.1-1.6,1,1,0,0,1,.24-.16l.49-.25c1.18-.59,2.36-1.17,3.56-1.68s2.43-.91,3.65-1.35l-1.09.63c.84-1,1.68-2,2.57-2.91a35.32,35.32,0,0,1,2.8-2.67l.27-.23a2.44,2.44,0,0,1,3.45.25,3.23,3.23,0,0,1,.34.51,50.28,50.28,0,0,1,2.58,6.17A35.46,35.46,0,0,1,253.7,301.79Zm-.5-.06c-1.75-1.82-3.23-3.37-4.56-4.85a41.67,41.67,0,0,1-3.47-4.3l4.06.54a37.22,37.22,0,0,1-2.67,2.8c-.94.89-1.92,1.73-2.91,2.57l-.31.27a1.74,1.74,0,0,1-.78.36c-1.28.22-2.54.49-3.84.65s-2.6.25-3.92.33l.83-2a25.66,25.66,0,0,0,2.5,5.54,18.33,18.33,0,0,0,1.81,2.44c.66.78,1.4,1.52,2.09,2.28l-2-.82a17.82,17.82,0,0,1,3.62-1.46,37.17,37.17,0,0,1,3.8-.81l-.92.53a27,27,0,0,1,2.9-1.93C250.52,303.22,251.76,302.54,253.2,301.73Z"/><text class="cls-6" transform="translate(46.99 247.91)">C<tspan x="20.36" y="0">O</tspan><tspan x="47.52" y="0">D</tspan><tspan x="74.68" y="0">I</tspan><tspan x="89.33" y="0">N</tspan><tspan x="112.3" y="0">G</tspan><tspan x="139.46" y="0"> </tspan><tspan x="151.73" y="0">T</tspan><tspan x="175.22" y="0">I</tspan><tspan x="189.85" y="0">M</tspan><tspan x="219.13" y="0">E</tspan></text></g></g></svg>