<svg xmlns="http://www.w3.org/2000/svg" xmlns:xlink="http://www.w3.org/1999/xlink" viewBox="0 0 325 325"><defs><style>.cls-1{fill:url(#radial-gradient);}.cls-2{fill:#4b4e4c;}.cls-3{font-size:35px;font-family:SeasideResortNF, Seaside Resort NF;}.cls-3,.cls-4{fill:#fef1cd;}</style><radialGradient id="radial-gradient" cx="162.5" cy="162.5" r="158.5" gradientTransform="translate(-4.1 -4.1) scale(1.03 1.03)" gradientUnits="userSpaceOnUse"><stop offset="0" stop-color="#eec44b"/><stop offset="0.09" stop-color="#eec44b" stop-opacity="0.96"/><stop offset="0.23" stop-color="#eec44b" stop-opacity="0.87"/><stop offset="0.41" stop-color="#eec44b" stop-opacity="0.71"/><stop offset="0.61" stop-color="#eec44b" stop-opacity="0.49"/><stop offset="0.84" stop-color="#eec44b" stop-opacity="0.22"/><stop offset="1" stop-color="#eec44b" stop-opacity="0"/></radialGradient></defs><title>Clock_1</title><g id="Layer_2" data-name="Layer 2"><g id="Layer_1-2" data-name="Layer 1"><rect width="325" height="325" rx="162.5" ry="162.5"/><rect class="cls-1" width="325" height="325" rx="162.5" ry="162.5"/><path class="cls-2" d="M189.7,201.78h0c-1.18-3.48,2.1-4.84.27-8.55-2.29-3.44-5.1-1.29-7.53-4l0,0c-2.74-2.42-.59-5.24-4-7.53-3.71-1.83-5.07,1.45-8.55.27h0c-3.59-.73-3.13-4.24-7.25-4.51-4.13.27-3.67,3.78-7.26,4.51h0c-3.48,1.18-4.84-2.1-8.55-.27-3.44,2.29-1.29,5.11-4,7.53l0,0c-2.42,2.74-5.23.59-7.53,4-1.83,3.71,1.45,5.07.27,8.55h0c-.73,3.59-4.24,3.13-4.51,7.25.27,4.13,3.78,3.67,4.51,7.26h0c1.18,3.48-2.1,4.84-.27,8.55,2.3,3.44,5.11,1.29,7.53,4l0,0c2.74,2.42.59,5.23,4,7.53,3.71,1.83,5.07-1.45,8.55-.27h0c3.59.73,3.13,4.24,7.26,4.51,4.12-.27,3.66-3.78,7.25-4.51h0c3.48-1.18,4.84,2.1,8.55.27,3.44-2.3,1.29-5.11,4-7.53l0,0c2.43-2.74,5.24-.59,7.53-4,1.83-3.71-1.45-5.07-.27-8.55h0c.73-3.59,4.24-3.13,4.51-7.26C193.94,204.91,190.43,205.37,189.7,201.78Zm-.79,14.3h0c-1.14,3.39,2,4.71.26,8.31-2.23,3.33-4.95,1.25-7.31,3.91v0c-2.67,2.35-.58,5.08-3.92,7.31-3.6,1.78-4.92-1.41-8.3-.26h0c-3.48.71-3,4.11-7,4.38-4-.27-3.56-3.67-7.05-4.38h0c-3.39-1.15-4.71,2-8.31.26-3.33-2.23-1.25-5-3.91-7.31l0,0c-2.35-2.66-5.08-.58-7.31-3.91-1.78-3.6,1.41-4.92.26-8.31h0c-.71-3.49-4.11-3-4.38-7.05.27-4,3.67-3.56,4.38-7h0c1.15-3.38-2-4.7-.26-8.3,2.23-3.34,5-1.25,7.31-3.92h0c2.66-2.36.58-5.08,3.91-7.31,3.6-1.78,4.92,1.4,8.31.26h0c3.49-.71,3-4.11,7.05-4.38,4,.27,3.56,3.67,7,4.38h0c3.38,1.14,4.7-2,8.3-.26,3.34,2.23,1.25,4.95,3.92,7.31h0c2.36,2.67,5.08.58,7.31,3.92,1.78,3.6-1.4,4.92-.26,8.3h0c.71,3.48,4.12,3,4.38,7C193,213,189.62,212.59,188.91,216.08Z"/><path class="cls-2" d="M191.92,209c-.25,3.83-3.5,3.41-4.18,6.74h0c-1.09,3.24,1.95,4.5.25,7.94-2.13,3.18-4.74,1.19-7,3.74h0c-2.55,2.25-.55,4.86-3.74,7-3.44,1.7-4.7-1.34-7.94-.25h0c-3.33.68-2.91,3.93-6.73,4.18-3.83-.25-3.41-3.5-6.74-4.18h0c-3.24-1.09-4.5,2-7.94.25-3.18-2.13-1.19-4.74-3.74-7h0c-2.25-2.55-4.86-.56-7-3.74-1.7-3.44,1.35-4.7.25-7.94h0c-.68-3.33-3.93-2.91-4.18-6.74.25-3.82,3.5-3.4,4.18-6.73h0c1.1-3.24-1.95-4.5-.25-7.94,2.13-3.19,4.74-1.19,7-3.74h0c2.55-2.25.56-4.86,3.74-7,3.44-1.7,4.7,1.34,7.94.25h0c3.33-.68,2.91-3.93,6.74-4.18,3.82.25,3.4,3.5,6.73,4.18h0c3.24,1.09,4.5-2,7.94-.25,3.19,2.13,1.19,4.74,3.74,7h0c2.25,2.55,4.86.55,7,3.74,1.7,3.44-1.34,4.7-.25,7.94h0C188.42,205.63,191.67,205.21,191.92,209Z"/><text class="cls-3" transform="translate(140.64 224.49)">P<tspan x="21.61" y="0">B</tspan></text><path class="cls-4" d="M216.88,56.29l.68-.41a101.78,101.78,0,0,1,20.85,13.66l-.8.23a12.35,12.35,0,0,0-4.47-2.52,6.39,6.39,0,0,0-4.28.71,113.05,113.05,0,0,0-15.73,8.89,6.42,6.42,0,0,0-1.88,1.53,1.17,1.17,0,0,0,.22,1.32,14.23,14.23,0,0,0,3.24,2.62l-.62.41a80.89,80.89,0,0,0-17.91-9.07l.55-.52a11.39,11.39,0,0,0,4.35,1,6.77,6.77,0,0,0,3.65-1.75,101.73,101.73,0,0,1,14.88-10.3,5.23,5.23,0,0,0,1.85-1.51c.23-.39.11-.88-.38-1.45A18,18,0,0,0,216.88,56.29Z"/><path class="cls-4" d="M259.43,92.91l.69-.21a101,101,0,0,1,7.52,12l-.73.08a4.75,4.75,0,0,0-2.09-2.18,6,6,0,0,0-3.54.07,160.54,160.54,0,0,0-16,4.59,11.05,11.05,0,0,0-2.15.87,1.25,1.25,0,0,0-.59,1,4.24,4.24,0,0,0,.83,2.22l-.67.22a79.71,79.71,0,0,0-6.57-9.11l.64-.29a3.78,3.78,0,0,0,2.1,1.5,7,7,0,0,0,3.35-.71A160.19,160.19,0,0,1,258,97.46a8.57,8.57,0,0,0,2.11-.86,1.23,1.23,0,0,0,.56-1.09A6.71,6.71,0,0,0,259.43,92.91Z"/><path class="cls-4" d="M268.29,107.32l.71-.1A100.73,100.73,0,0,1,274.72,120H274a4.54,4.54,0,0,0-1.73-2.38,6.07,6.07,0,0,0-3.51-.39c-6.68.67-10,1.14-16.51,2.33a9.93,9.93,0,0,0-2.25.56,1.22,1.22,0,0,0-.72.88,4.26,4.26,0,0,0,.5,2.3l-.69.13a79.94,79.94,0,0,0-5.3-10.06l.68-.19a4,4,0,0,0,1.9,1.84,7,7,0,0,0,3.44-.21c6.47-1.51,9.76-2.14,16.41-3.12a8.19,8.19,0,0,0,2.21-.55,1.21,1.21,0,0,0,.7-1A6.54,6.54,0,0,0,268.29,107.32Z"/><path class="cls-4" d="M281,148.45l.7.08a97.66,97.66,0,0,1,.73,9.74l-.68-.17a2.67,2.67,0,0,0-.83-2,7,7,0,0,0-3.15-1c-6.47-1-9.72-1.39-16.21-2a14.39,14.39,0,0,0-2.28-.11,1.5,1.5,0,0,0-1,.43,2.28,2.28,0,0,0-.38,1.64l-.69-.06c-.24-3.14-.43-4.69-.92-7.75l.69,0a2.08,2.08,0,0,0,1,1.6,8.6,8.6,0,0,0,3.21.58c6.51.36,9.77.64,16.28,1.4a12.16,12.16,0,0,0,2.25.11,1.41,1.41,0,0,0,1-.52A3.42,3.42,0,0,0,281,148.45Z"/><path class="cls-4" d="M281.79,160.13l.69.16c.07,4,0,6-.22,9.87l-.67-.24a2.63,2.63,0,0,0-.63-2.06,7,7,0,0,0-3-1.33c-6.35-1.64-9.54-2.37-15.94-3.63a14.08,14.08,0,0,0-2.26-.34,1.53,1.53,0,0,0-1,.34,2.36,2.36,0,0,0-.53,1.62l-.68-.13c.06-3.19,0-4.8-.17-7.95l.69.09a2.13,2.13,0,0,0,.8,1.72,8.51,8.51,0,0,0,3.14.91c6.44,1,9.65,1.62,16.06,3.05a11.38,11.38,0,0,0,2.23.34,1.39,1.39,0,0,0,1.07-.42A3.55,3.55,0,0,0,281.79,160.13Z"/><path class="cls-4" d="M281.45,171.93l.66.22c-.31,3.89-.54,5.81-1.15,9.61l-.65-.29a2.55,2.55,0,0,0-.43-2.08,6.89,6.89,0,0,0-2.89-1.6c-6.16-2.23-9.27-3.25-15.51-5.11a15.12,15.12,0,0,0-2.23-.55,1.49,1.49,0,0,0-1.06.23,2.21,2.21,0,0,0-.68,1.52l-.67-.19a77.94,77.94,0,0,0,.6-7.84l.68.15a2.12,2.12,0,0,0,.63,1.79,8.46,8.46,0,0,0,3,1.22c6.3,1.64,9.44,2.56,15.68,4.58a11.6,11.6,0,0,0,2.19.54,1.36,1.36,0,0,0,1.1-.3A3.4,3.4,0,0,0,281.45,171.93Z"/><path class="cls-4" d="M272,209.9l.55.42A102.66,102.66,0,0,1,268,219.7l-.49-.5a2.93,2.93,0,0,0,.38-2.25,6.42,6.42,0,0,0-2.1-2.52c-4.91-4.16-7.43-6.15-12.56-10a13.68,13.68,0,0,0-1.87-1.25,1.41,1.41,0,0,0-1.07-.1,2.59,2.59,0,0,0-1.19,1.34l-.55-.4a79.6,79.6,0,0,0,3.32-7.69l.58.37a2.34,2.34,0,0,0,0,2,8.15,8.15,0,0,0,2.4,2.16c5.28,3.6,7.87,5.49,12.95,9.45a10.67,10.67,0,0,0,1.83,1.23,1.35,1.35,0,0,0,1.14,0A4,4,0,0,0,272,209.9Z"/><path class="cls-4" d="M245,209.56c7,4.24,10.48,6.38,17.42,10.71l1.6,1a2.14,2.14,0,0,0,1.48.36,2.17,2.17,0,0,0,1.24-1.07l.49.49c-1.77,3.18-2.73,4.75-4.71,7.75l-.46-.51a2,2,0,0,0,.27-1.89,6.44,6.44,0,0,0-2.4-2.33c-4.21-2.88-6.32-4.32-10.55-7.17a103,103,0,0,1,5,12.41,22.15,22.15,0,0,0,1.26,3.3,3.47,3.47,0,0,0,.93,1.16,1.12,1.12,0,0,0,.84.22,2.39,2.39,0,0,0,1.2-.73l.41.57c-1.39,1.88-2.1,2.8-3.56,4.6l-.52-.42a2.91,2.91,0,0,0,.26-1.33,15.4,15.4,0,0,0-.71-3.19A99.58,99.58,0,0,0,244.75,210Z"/><path class="cls-4" d="M221.24,237.17c4.75,6.67,7.09,10,11.69,16.8l1.08,1.54a1.6,1.6,0,0,0,1.48.7,5.8,5.8,0,0,0,2.49-1.27c.07.29.1.44.16.73a100.29,100.29,0,0,1-13.35,9.39c0-.29,0-.44-.07-.73A5.06,5.06,0,0,0,227,262c.31-.83.05-2-.78-3.41-2.52-4.45-3.8-6.66-6.39-11.06a82.94,82.94,0,0,1-6.33,16.5,30.08,30.08,0,0,0-1.86,4.21,2.51,2.51,0,0,0,0,1.59,1,1,0,0,0,.9.46,6.28,6.28,0,0,0,2.39-.55c0,.31,0,.47-.07.78a102,102,0,0,1-9.78,4.23c-.1-.25-.14-.38-.24-.63a7.41,7.41,0,0,0,1.81-1.38,22.08,22.08,0,0,0,2.52-3.8c5-10.1,9.62-19.87,11.32-31.13Z"/><path class="cls-4" d="M176.64,256.45c1,8.12,1.42,12.19,2.27,20.33.14,1.18.21,1.8.22,1.86a2,2,0,0,0,.68,1.38,2.8,2.8,0,0,0,1.84.28c0,.28-.06.41-.11.69a99.88,99.88,0,0,1-10.46,1.2c.06-.27.1-.4.16-.68a2.47,2.47,0,0,0,2-.95,5.68,5.68,0,0,0,.48-3.34c-.27-5.1-.42-7.64-.74-12.73a84,84,0,0,1-8.2,11.57,25.52,25.52,0,0,0-2.27,3,3.45,3.45,0,0,0-.45,1.45,1.05,1.05,0,0,0,.41.8,3.33,3.33,0,0,0,1.58.52l-.25.67c-2.83,0-4.25,0-7-.13,0-.27,0-.4,0-.67a3.64,3.64,0,0,0,1.48-.57,16.17,16.17,0,0,0,2.57-2.46c7.52-8.36,10.58-12.9,15.22-22.12Z"/><path class="cls-4" d="M155.65,281.64l-.25.65A101.39,101.39,0,0,1,143.24,281l.34-.62a3.69,3.69,0,0,0,2.58-.35,6.09,6.09,0,0,0,1.89-2.79c2.53-6,3.68-9,5.76-15.12a11.25,11.25,0,0,0,.6-2.18,1.29,1.29,0,0,0-.34-1,3.47,3.47,0,0,0-2-.69l.22-.65a80.73,80.73,0,0,0,10,.54c-.07.26-.11.4-.17.66a3.25,3.25,0,0,0-2.26.66,7.14,7.14,0,0,0-1.41,3c-1.81,6.2-2.84,9.27-5.12,15.37a8.92,8.92,0,0,0-.59,2.14,1.23,1.23,0,0,0,.43,1.09A5.44,5.44,0,0,0,155.65,281.64Z"/><path class="cls-4" d="M128.06,251.05c-3.13,7.55-4.72,11.32-7.93,18.84l-.73,1.73a2.5,2.5,0,0,0-.21,1.49,1.7,1.7,0,0,0,1,1l-.39.57c-2.82-1.08-4.22-1.67-7-2.93l.41-.55a1.58,1.58,0,0,0,1.66-.13,7.48,7.48,0,0,0,1.83-2.78c2.17-4.61,3.25-6.92,5.4-11.55a99.08,99.08,0,0,1-10.46,7.34,28.56,28.56,0,0,0-2.82,1.9,4.16,4.16,0,0,0-.94,1.13,1.19,1.19,0,0,0-.11.85,2,2,0,0,0,.76,1l-.47.51c-1.81-.92-2.7-1.4-4.48-2.4l.33-.58a2.65,2.65,0,0,0,1.23,0,15.74,15.74,0,0,0,2.79-1.36,97.47,97.47,0,0,0,19.7-14.18Z"/><path class="cls-4" d="M103.21,266.06l-.46.5c-3.14-1.8-4.67-2.76-7.62-4.76l.52-.45a2.28,2.28,0,0,0,1.93.42,7.15,7.15,0,0,0,2.56-1.93c4.47-4.57,6.63-6.91,10.82-11.7a14.12,14.12,0,0,0,1.4-1.74,1.5,1.5,0,0,0,.26-1,2,2,0,0,0-1-1.2l.45-.51c2.47,1.53,3.76,2.27,6.34,3.61l-.42.54a1.91,1.91,0,0,0-1.75-.15,8.69,8.69,0,0,0-2.29,2.2c-4,4.92-6.13,7.33-10.46,12a11.23,11.23,0,0,0-1.37,1.72,1.43,1.43,0,0,0-.22,1.09C102,265.05,102.42,265.51,103.21,266.06Z"/><path class="cls-4" d="M94.14,260.31l-.51.46c-2.91-2-4.32-3.1-7-5.31l.55-.41a2.23,2.23,0,0,0,1.87.56,7.07,7.07,0,0,0,2.71-1.7c4.84-4.17,7.19-6.32,11.78-10.72a14.68,14.68,0,0,0,1.55-1.61,1.58,1.58,0,0,0,.35-1,2,2,0,0,0-.87-1.27l.48-.47c2.29,1.72,3.47,2.54,5.92,4.1l-.46.5a1.94,1.94,0,0,0-1.73-.3,8.73,8.73,0,0,0-2.48,2c-4.45,4.54-6.74,6.76-11.45,11.08a12,12,0,0,0-1.52,1.59,1.44,1.44,0,0,0-.32,1.06C93,259.22,93.41,259.7,94.14,260.31Z"/><path class="cls-4" d="M88.51,222.1c-6.46,5-9.7,7.51-16.19,12.48l-1.49,1.15a3,3,0,0,0-1,1.12,1.24,1.24,0,0,0,.2,1.13l-.6.33c-1.49-1.84-2.22-2.78-3.63-4.7l.61-.3a1.22,1.22,0,0,0,1.32.44,9.26,9.26,0,0,0,2.88-1.62c4.14-3,6.21-4.47,10.33-7.47a114.66,114.66,0,0,1-11.88,2.46,28.35,28.35,0,0,0-3.18.62,5,5,0,0,0-1.33.6,1.27,1.27,0,0,0-.49,1.66l-.63.26c-.89-1.3-1.32-2-2.18-3.3l.57-.36a1.94,1.94,0,0,0,1,.35,16.82,16.82,0,0,0,2.88-.2,115.58,115.58,0,0,0,22.59-4.93Z"/><path class="cls-4" d="M61.51,226.07l-.62.26c-1.5-2.38-2.22-3.62-3.58-6.09L58,220a1.64,1.64,0,0,0,1.34.92,8.2,8.2,0,0,0,3-.74c5.94-2.24,8.87-3.42,14.68-5.91a20.51,20.51,0,0,0,2-.95,1.85,1.85,0,0,0,.74-.73,1.39,1.39,0,0,0-.17-1.26l.62-.27c1.16,2,1.77,2.94,3,4.81l-.6.3a1.39,1.39,0,0,0-1.27-.67,10.31,10.31,0,0,0-3,1c-5.74,2.64-8.65,3.9-14.52,6.3a14.48,14.48,0,0,0-2,.93,1.67,1.67,0,0,0-.73.8A2.06,2.06,0,0,0,61.51,226.07Z"/><path class="cls-4" d="M57.27,218.76l-.65.21c-1.32-2.48-1.95-3.73-3.11-6.26l.66-.15a1.61,1.61,0,0,0,1.26,1,8.44,8.44,0,0,0,3.09-.53c6.07-1.83,9.08-2.81,15-4.89a18.32,18.32,0,0,0,2.08-.8,1.88,1.88,0,0,0,.79-.68,1.39,1.39,0,0,0-.08-1.26l.64-.22c1,2,1.55,3,2.7,5l-.63.25a1.37,1.37,0,0,0-1.23-.76,10.32,10.32,0,0,0-3,.81c-5.91,2.23-8.9,3.28-14.93,5.26a13.92,13.92,0,0,0-2,.79,1.66,1.66,0,0,0-.8.74A2.11,2.11,0,0,0,57.27,218.76Z"/><path class="cls-4" d="M53.58,211.26l-.66.16c-1.13-2.53-1.66-3.81-2.64-6.37l.67-.11A1.61,1.61,0,0,0,52.14,206a8.44,8.44,0,0,0,3.11-.33c6.18-1.42,9.25-2.19,15.34-3.85a19.73,19.73,0,0,0,2.13-.67,1.83,1.83,0,0,0,.84-.61,1.38,1.38,0,0,0,0-1.25l.65-.18c.86,2.07,1.32,3.09,2.31,5.13l-.64.2a1.38,1.38,0,0,0-1.17-.83,10.57,10.57,0,0,0-3.06.61c-6.06,1.82-9.11,2.67-15.25,4.23a15.66,15.66,0,0,0-2.1.65,1.64,1.64,0,0,0-.84.68A2,2,0,0,0,53.58,211.26Z"/><path class="cls-4" d="M44,176.15l-.7-.1a101.14,101.14,0,0,1-.72-10.52l.69.19a2.92,2.92,0,0,0,.81,2.16A6.68,6.68,0,0,0,47.18,169c6.48,1.16,9.73,1.63,16.22,2.36a14.58,14.58,0,0,0,2.29.14,1.44,1.44,0,0,0,1-.45,2.55,2.55,0,0,0,.38-1.77l.69.08a79.47,79.47,0,0,0,1,8.36l-.69,0a2.35,2.35,0,0,0-1-1.73,8,8,0,0,0-3.22-.67c-6.52-.47-9.78-.81-16.3-1.71a11.28,11.28,0,0,0-2.25-.15,1.4,1.4,0,0,0-1,.54A4,4,0,0,0,44,176.15Z"/><path class="cls-4" d="M56,158.65c-3.67,1.07-5.5,1.66-9.13,2.94a9.67,9.67,0,0,0-3,1.43,2.64,2.64,0,0,0-.69,1.74h-.69c-.07-3.85,0-5.81.21-9.63l.67.22a2.11,2.11,0,0,0,.38,1.37,1.36,1.36,0,0,0,1,.39,7.53,7.53,0,0,0,2.28-.43c2.12-.64,3.19-.94,5.33-1.5-1.06-1.05-1.59-1.59-2.63-2.69a23,23,0,0,0-3.21-3.05,2.79,2.79,0,0,0-1.19-.49,1.25,1.25,0,0,0-.94.28,1.76,1.76,0,0,0-.59,1.17l-.66-.26c.29-2.79.47-4.17.91-6.91l.65.25a3.56,3.56,0,0,0,.44,1.51,25.13,25.13,0,0,0,3,3.87c2.19,2.49,3.32,3.68,5.64,6,3.59-.93,5.39-1.35,9-2.09a20,20,0,0,0,3.77-1,2.47,2.47,0,0,0,1.06-1.22l.66.21c-.37,3-.5,4.49-.63,7.53l-.68-.18a1.49,1.49,0,0,0-.41-1.2,1.68,1.68,0,0,0-1.09-.44,12.5,12.5,0,0,0-3.3.54c-1.91.49-2.86.74-4.77,1.29,1.67,1.47,2.51,2.18,4.22,3.55a13.81,13.81,0,0,0,2.65,1.85,2.85,2.85,0,0,0,1.17.24,1.48,1.48,0,0,0,1-.37,1.59,1.59,0,0,0,.45-1.19l.68.15c0,2.41,0,3.6.19,6L67,168.4a3,3,0,0,0-.67-1.13,29.89,29.89,0,0,0-3.46-2.88A86.9,86.9,0,0,1,56,158.65Z"/><path class="cls-4" d="M69.17,111.08c-4-.22-6.05-.27-10.13-.21a9.17,9.17,0,0,0-3.57.51,4.71,4.71,0,0,0-1.68,1.93c-.25-.11-.38-.16-.62-.28a102.25,102.25,0,0,1,6.42-12.25l.45.57a3.94,3.94,0,0,0-.59,1.93,1.14,1.14,0,0,0,.6.93,6.07,6.07,0,0,0,2.34.43c2.36.11,3.52.19,5.85.41-.23-1.81-.32-2.72-.47-4.55a28.22,28.22,0,0,0-.69-5.23,2.1,2.1,0,0,0-.71-1.13,1.13,1.13,0,0,0-1.06-.07,3.3,3.3,0,0,0-1.39,1.2l-.41-.61c2.3-3.35,3.51-5,6-8.07l.4.59a6,6,0,0,0-.76,2,31.57,31.57,0,0,0-.23,6,92.52,92.52,0,0,0,.79,10c3.9.38,5.83.64,9.62,1.3a16.64,16.64,0,0,0,4.14.42,3.71,3.71,0,0,0,1.86-1l.45.55a79.78,79.78,0,0,0-6,9.22l-.48-.53a2.8,2.8,0,0,0,.45-1.72,1.41,1.41,0,0,0-.68-1,9.32,9.32,0,0,0-3.35-.74c-2.06-.21-3.09-.3-5.17-.43.5,2.62.8,3.9,1.48,6.39a14.8,14.8,0,0,0,1.24,3.52,2.28,2.28,0,0,0,.91.83,1.26,1.26,0,0,0,1.1-.06,2.84,2.84,0,0,0,1.15-1.33l.51.5a80.4,80.4,0,0,0-3.36,7.78l-.57-.41a5.26,5.26,0,0,0,0-1.76,42.75,42.75,0,0,0-1.42-5.23A74.76,74.76,0,0,1,69.17,111.08Z"/><path class="cls-4" d="M103.4,73.83c-3-2.36-4.54-3.51-7.68-5.73a9.86,9.86,0,0,0-2.87-1.61,2.55,2.55,0,0,0-1.78.43l-.41-.55c3-2.25,4.58-3.32,7.81-5.36l.22.67a2.09,2.09,0,0,0-.88,1.11,1.37,1.37,0,0,0,.24,1,7.71,7.71,0,0,0,1.68,1.59c1.75,1.36,2.62,2,4.33,3.46.23-1.48.36-2.22.66-3.71a22.78,22.78,0,0,0,.63-4.41,2.65,2.65,0,0,0-.29-1.25,1.27,1.27,0,0,0-.78-.6,1.78,1.78,0,0,0-1.31.22c-.07-.28-.11-.42-.17-.69,2.47-1.42,3.72-2.09,6.23-3.34l.18.67a3.66,3.66,0,0,0-1,1.25,25.82,25.82,0,0,0-1.46,4.69c-.77,3.24-1.09,4.87-1.6,8.09,2.86,2.36,4.26,3.58,7,6.07a20,20,0,0,0,3,2.47,2.45,2.45,0,0,0,1.62.13c.09.27.13.4.22.66-2.68,1.46-4,2.26-6.53,3.91l-.25-.65a1.49,1.49,0,0,0,.73-1,1.71,1.71,0,0,0-.28-1.14,12.3,12.3,0,0,0-2.37-2.36c-1.51-1.27-2.27-1.9-3.82-3.13-.22,2.2-.29,3.3-.38,5.46a14.13,14.13,0,0,0,.08,3.21,3.13,3.13,0,0,0,.5,1.09,1.42,1.42,0,0,0,2.07.27l.28.64c-1.91,1.37-2.83,2.08-4.63,3.54-.14-.24-.21-.36-.34-.61a3,3,0,0,0,.51-1.18,29.92,29.92,0,0,0,.27-4.44A83.41,83.41,0,0,1,103.4,73.83Z"/><path class="cls-4" d="M110.55,55.08c0-.27-.08-.41-.14-.69A103.08,103.08,0,0,1,120,50.28c0,.29,0,.43.06.71a2.81,2.81,0,0,0-1.71,1.47,6.58,6.58,0,0,0,0,3.33c1.07,6.49,1.7,9.71,3.16,16.07a13.68,13.68,0,0,0,.63,2.21,1.41,1.41,0,0,0,.75.8,2.54,2.54,0,0,0,1.77-.23c.06.27.09.41.16.68a78,78,0,0,0-7.59,3.7l-.2-.67a2.4,2.4,0,0,0,1.34-1.51,8.09,8.09,0,0,0-.43-3.27c-1.69-6.31-2.44-9.51-3.75-16a10.78,10.78,0,0,0-.61-2.17,1.36,1.36,0,0,0-.84-.79A4,4,0,0,0,110.55,55.08Z"/><path class="cls-4" d="M153.11,56.35c-1.21-3.53-1.85-5.29-3.21-8.8a11.56,11.56,0,0,0-1.37-2.84,1.79,1.79,0,0,0-1.35-.55l-.09-.67c2.81-.36,4.22-.5,7.08-.7,0,.27,0,.41-.08.69a1.32,1.32,0,0,0-1,.53,1.64,1.64,0,0,0-.18,1,10.16,10.16,0,0,0,.58,2.21c.71,2,1.06,3.07,1.72,5.12.66-1.17,1-1.75,1.7-2.92a23.6,23.6,0,0,0,1.92-3.58,3.34,3.34,0,0,0,.24-1.24,1.56,1.56,0,0,0-.32-.9,1.22,1.22,0,0,0-1-.42c.05-.28.07-.42.12-.69,2.13-.08,3.21-.1,5.36-.08-.05.27-.07.4-.12.68a2.39,2.39,0,0,0-1.1.66,22.71,22.71,0,0,0-2.59,3.48c-1.63,2.52-2.39,3.79-3.82,6.35,1.11,3.46,1.63,5.19,2.6,8.68a22.19,22.19,0,0,0,1.19,3.6,1.87,1.87,0,0,0,1,.88c0,.27-.05.41-.08.69-2.3,0-3.44.1-5.7.29,0-.28,0-.41.06-.69a1,1,0,0,0,.84-.54,2.12,2.12,0,0,0,.2-1.13,16.28,16.28,0,0,0-.79-3.21c-.57-1.85-.87-2.77-1.49-4.6-.9,1.8-1.32,2.7-2.12,4.52a15.87,15.87,0,0,0-1,2.79,4.31,4.31,0,0,0,0,1.18,1.85,1.85,0,0,0,.39.94,1,1,0,0,0,.92.35l0,.69c-1.75.2-2.62.32-4.35.6,0-.27,0-.41,0-.69a2,2,0,0,0,.76-.73,28.25,28.25,0,0,0,1.71-3.63C151,60.73,151.63,59.26,153.11,56.35Z"/><path class="cls-4" d="M164.33,43.2c0-.27.08-.41.14-.68,3.2,0,4.79.13,7.93.39-.08.26-.12.4-.21.66a1.88,1.88,0,0,0-1.67.62,7.84,7.84,0,0,0-1.17,3c-1.52,6.32-2.21,9.5-3.42,15.86a17,17,0,0,0-.34,2.26,1.76,1.76,0,0,0,.24,1,1.6,1.6,0,0,0,1.28.57l-.13.68c-2.55-.12-3.86-.14-6.43-.09,0-.27.06-.41.09-.68a1.59,1.59,0,0,0,1.43-.73,9.79,9.79,0,0,0,.84-3.1c1-6.4,1.63-9.6,3-16a14.21,14.21,0,0,0,.34-2.22,1.56,1.56,0,0,0-.3-1.08A2.59,2.59,0,0,0,164.33,43.2Z"/><path class="cls-4" d="M173.81,43.72c.08-.27.12-.4.19-.67,3.14.3,4.69.5,7.76,1-.1.26-.15.39-.26.65a1.88,1.88,0,0,0-1.7.49,7.92,7.92,0,0,0-1.38,2.91c-2,6.19-2.92,9.3-4.62,15.55a21.09,21.09,0,0,0-.52,2.23,1.78,1.78,0,0,0,.15,1,1.63,1.63,0,0,0,1.22.67l-.18.66c-2.5-.31-3.76-.43-6.31-.58.06-.27.09-.41.14-.68a1.58,1.58,0,0,0,1.47-.61,10.26,10.26,0,0,0,1.07-3c1.52-6.3,2.36-9.43,4.19-15.68a14.58,14.58,0,0,0,.51-2.18,1.59,1.59,0,0,0-.21-1.1A2.46,2.46,0,0,0,173.81,43.72Z"/></g></g></svg>