<svg xmlns="http://www.w3.org/2000/svg" viewBox="0 0 50 50"><defs><style>.cls-1{fill:#fef1cd;}</style></defs><title>Email</title><g id="Layer_2" data-name="Layer 2"><g id="Layer_1-2" data-name="Layer 1"><path class="cls-1" d="M25,0A25,25,0,1,0,50,25,25,25,0,0,0,25,0Zm0,49A24,24,0,1,1,49,25,24,24,0,0,1,25,49Z"/><path class="cls-1" d="M25,3.5A21.5,21.5,0,1,0,46.5,25,21.5,21.5,0,0,0,25,3.5ZM37.5,35h-25V15h25Z"/><polygon class="cls-1" points="22 24.5 13.5 33 13.5 16 22 24.5"/><polygon class="cls-1" points="35.5 16 25 26.5 14.5 16 35.5 16"/><polygon class="cls-1" points="27.5 25 36.5 34 13.5 34 22.5 25 25 27.5 27.5 25"/><polygon class="cls-1" points="36.5 16 36.5 33 28 24.5 36.5 16"/></g></g></svg>