<svg xmlns="http://www.w3.org/2000/svg" viewBox="0 0 50 50"><defs><style>.cls-1{fill:#fef1cd;}</style></defs><title>Facebook</title><g id="Layer_2" data-name="Layer 2"><g id="Layer_1-2" data-name="Layer 1"><path class="cls-1" d="M25,0A25,25,0,1,0,50,25,25,25,0,0,0,25,0Zm0,49A24,24,0,1,1,49,25,24,24,0,0,1,25,49Z"/><path class="cls-1" d="M25,3.5A21.5,21.5,0,1,0,46.5,25,21.5,21.5,0,0,0,25,3.5ZM38.29,13.78c-8.1-.95-13.5.05-13.5,4.43V20H35.36v2.68H24.79V39.31H17.08V22.68H10.69V20h6.39V18.21c0-6.34,10.29-8.67,22.23-7Z"/></g></g></svg>