<svg xmlns="http://www.w3.org/2000/svg" viewBox="0 0 181 181"><defs><style>.cls-1,.cls-3{fill:#d45244;}.cls-1{stroke:#d45244;stroke-miterlimit:10;}.cls-2{fill:#e6e1d0;}</style></defs><title>Graph</title><g id="Layer_2" data-name="Layer 2"><g id="Layer_1-2" data-name="Layer 1"><path class="cls-1" d="M90.5.5a90,90,0,1,0,90,90A90,90,0,0,0,90.5.5Zm0,177.5A87.5,87.5,0,1,1,178,90.5,87.5,87.5,0,0,1,90.5,178Z"/><circle class="cls-1" cx="90.5" cy="90.5" r="80"/><path class="cls-2" d="M133.63,83.74H47.36c1.5-17.83,3.51-36.4,0-47,40.65,13.63,52.88-3.84,86.27,0C129,46,131.18,64.68,133.63,83.74Z"/><path class="cls-2" d="M133.63,86.87v9.35c0,25.42-37.58,27.68-37.58,46.37a77.45,77.45,0,0,0,4.22,24.26,30.19,30.19,0,0,1-19.64.31c2.37-7.39,4.31-15.23,4.31-24.57,0-18.69-37.58-21-37.58-46.37V86.87Z"/><path class="cls-3" d="M51.75,36.49c.31,2,.49,4,.72,6s.3,4,.43,6c.23,4,.25,8,.28,12s-.19,8-.49,12l-.5,6c-.25,2-.45,4-.76,6a.06.06,0,0,1-.06,0s0,0,0,0c.49-8,.79-16,.85-24s-.07-16-.53-24a0,0,0,0,1,.05,0A.07.07,0,0,1,51.75,36.49Z"/><path class="cls-3" d="M55.59,37.61c.28.94.56,1.9.81,2.86l.69,2.89.52,2.94.42,3a84.7,84.7,0,0,1,.48,11.92A90.3,90.3,0,0,1,57.15,73q-.57,2.92-1.29,5.81c-.55,1.91-1.09,3.82-1.76,5.68a.05.05,0,0,1-.06,0,.08.08,0,0,1,0-.06,109.2,109.2,0,0,0,3.51-23.36,92.31,92.31,0,0,0-2-23.5,0,0,0,0,1,0-.06S55.58,37.58,55.59,37.61Z"/><path class="cls-3" d="M60,38.69c.31,1.89.49,3.8.71,5.7s.3,3.82.42,5.73c.23,3.83.23,7.66.25,11.49s-.22,7.66-.54,11.48q-.24,2.86-.54,5.72c-.26,1.9-.47,3.8-.8,5.69a.06.06,0,0,1-.06,0s0,0,0,0c.56-7.62.9-15.26,1-22.9s0-15.28-.48-22.91a.05.05,0,0,1,.1,0Z"/><path class="cls-3" d="M64.71,84.5c-.4-1.84-.68-3.71-1-5.57s-.49-3.74-.71-5.61c-.41-3.75-.59-7.52-.76-11.3s0-7.55.21-11.32q.19-2.82.49-5.64c.25-1.87.48-3.75.84-5.6a.06.06,0,0,1,.06-.05.07.07,0,0,1,0,.06A190.39,190.39,0,0,0,63.24,62c.18,7.51.74,15,1.57,22.49a.06.06,0,0,1,0,.06A.05.05,0,0,1,64.71,84.5Z"/><path class="cls-3" d="M68.47,40.13c.36,1.83.59,3.68.84,5.52s.35,3.7.48,5.56c.25,3.71.23,7.44.2,11.16s-.36,7.43-.78,11.12c-.22,1.85-.45,3.69-.72,5.53s-.6,3.67-1,5.48a0,0,0,0,1,0,0,.06.06,0,0,1-.05-.06c.86-7.35,1.43-14.75,1.61-22.15a184.85,184.85,0,0,0-.62-22.2.05.05,0,0,1,0,0S68.47,40.11,68.47,40.13Z"/><path class="cls-3" d="M74.07,84.5c-.35-1.81-.6-3.63-.88-5.45l-.64-5.48c-.38-3.66-.55-7.34-.73-11s-.09-7.37.11-11c.1-1.84.23-3.67.4-5.51s.42-3.66.75-5.48a.07.07,0,0,1,.06,0s0,0,0,.05a201.86,201.86,0,0,0-.36,22c.2,7.34.69,14.66,1.35,22a0,0,0,0,1,0,.06A.06.06,0,0,1,74.07,84.5Z"/><path class="cls-3" d="M79.83,40.54A42.26,42.26,0,0,1,80.94,46c.24,1.85.35,3.71.45,5.57A98.32,98.32,0,0,1,81,62.7c-.42,3.69-.9,7.37-1.6,11-.36,1.81-.74,3.63-1.15,5.43s-.89,3.59-1.42,5.37a.05.05,0,0,1-.06,0,.06.06,0,0,1,0-.06C78.14,77.24,79.33,70,80,62.61c.36-3.67.59-7.35.59-11a63.39,63.39,0,0,0-.88-11,.06.06,0,0,1,0-.06S79.83,40.52,79.83,40.54Z"/><path class="cls-3" d="M86.51,40c.43,1.82.71,3.68,1,5.53s.38,3.73.5,5.6c.21,3.74.11,7.48,0,11.22-.28,3.73-.57,7.46-1.1,11.16-.27,1.84-.55,3.69-.86,5.53s-.69,3.67-1.13,5.49a.05.05,0,0,1-.1,0c1-7.37,1.8-14.78,2.19-22.21A120.17,120.17,0,0,0,86.41,40s0-.06,0-.06A.07.07,0,0,1,86.51,40Z"/><path class="cls-3" d="M94.15,84.51c-.46-1.86-.81-3.73-1.19-5.6s-.64-3.75-.94-5.63c-.57-3.77-.94-7.56-1.28-11.36s-.39-7.63-.23-11.45c.1-1.91.21-3.82.44-5.73a48.94,48.94,0,0,1,1-5.63s0,0,.06,0a0,0,0,0,1,0,.06,72.88,72.88,0,0,0-.81,11.34c0,3.8.16,7.59.44,11.38.54,7.57,1.46,15.12,2.51,22.64,0,0,0,.05,0,.06S94.15,84.53,94.15,84.51Z"/><path class="cls-3" d="M98.16,37.94a56.75,56.75,0,0,1,.94,5.79c.21,1.94.32,3.89.43,5.84.17,3.91,0,7.81-.06,11.71s-.5,7.78-.93,11.65l-.7,5.8c-.3,1.93-.56,3.85-.92,5.77a.05.05,0,0,1,0,0,.06.06,0,0,1-.05-.06c.68-7.74,1.3-15.49,1.65-23.26.19-3.88.31-7.76.28-11.65A100.53,100.53,0,0,0,98.07,38s0-.05,0-.05S98.16,37.92,98.16,37.94Z"/><path class="cls-3" d="M103.09,36.94c.36,2,.58,3.94.77,5.92s.25,4,.34,6c.14,4,0,8,0,11.92s-.35,7.94-.67,11.9L103,78.58c-.24,2-.42,4-.72,5.92a0,0,0,0,1,0,0,.05.05,0,0,1,0,0c.39-7.93.78-15.85,1-23.78.13-4,.23-7.93.23-11.89S103.34,40.9,103,37c0,0,0-.06,0-.06A.06.06,0,0,1,103.09,36.94Z"/><path class="cls-3" d="M108,36a35.91,35.91,0,0,1,1.19,6c.2,2,.32,4.07.39,6.11.11,4.08-.1,8.15-.3,12.21s-.67,8.1-1.17,12.13l-.8,6c-.33,2-.61,4-1,6a.06.06,0,0,1-.06,0s0,0,0-.06c.75-8.07,1.54-16.14,2.06-24.23.27-4,.48-8.1.52-12.15a59.07,59.07,0,0,0-.9-12.1.08.08,0,0,1,0-.06A.07.07,0,0,1,108,36Z"/><path class="cls-3" d="M112.88,84.5c-.32-2-.53-4.08-.79-6.12l-.6-6.13c-.38-4.09-.59-8.2-.81-12.3s-.21-8.23,0-12.36c.11-2.06.23-4.11.45-6.17a52.12,52.12,0,0,1,1-6.1,0,0,0,0,1,.06,0s0,0,0,0a91.5,91.5,0,0,0-.8,12.27c0,4.11.08,8.21.24,12.31.31,8.2.83,16.39,1.31,24.59a.05.05,0,0,1,0,0A0,0,0,0,1,112.88,84.5Z"/><path class="cls-3" d="M115.55,84.5c-.34-2-.58-4.1-.87-6.15L114,72.17c-.42-4.12-.68-8.25-.93-12.4s-.22-8.3,0-12.45c.12-2.08.27-4.16.53-6.23a49,49,0,0,1,1.2-6.12.05.05,0,0,1,.1,0,78.46,78.46,0,0,0-1.06,12.34c-.07,4.13,0,8.27.23,12.4.36,8.26,1,16.51,1.59,24.77,0,0,0,0,0,0A.06.06,0,0,1,115.55,84.5Z"/><path class="cls-3" d="M119.57,84.5c-.41-2-.72-4.12-1.07-6.18l-.87-6.21c-.55-4.14-.92-8.31-1.27-12.48s-.42-8.37-.25-12.58c.1-2.1.27-4.2.55-6.29a29.8,29.8,0,0,1,1.57-6.11.06.06,0,0,1,.07,0,.07.07,0,0,1,0,.06,45.25,45.25,0,0,0-1.44,12.38c0,4.17.18,8.34.46,12.5.56,8.33,1.46,16.63,2.32,24.93a.06.06,0,0,1,0,.06A.05.05,0,0,1,119.57,84.5Z"/><path class="cls-3" d="M123.58,84.5c-.36-2.06-.61-4.14-.93-6.21l-.73-6.24c-.46-4.16-.74-8.34-1-12.53s-.25-8.39,0-12.6c.14-2.1.31-4.2.61-6.28a47.58,47.58,0,0,1,1.34-6.16s0,0,.06,0a0,0,0,0,1,0,.06A70.18,70.18,0,0,0,121.7,47c-.11,4.17,0,8.35.21,12.53.39,8.35,1.11,16.68,1.77,25,0,0,0,.06,0,.06A.06.06,0,0,1,123.58,84.5Z"/><path class="cls-3" d="M127.6,84.5c-.38-2.06-.64-4.14-1-6.21l-.76-6.23c-.48-4.16-.79-8.33-1.09-12.51s-.34-8.39-.17-12.59q.13-3.15.49-6.3a34.7,34.7,0,0,1,1.4-6.15.06.06,0,0,1,.07,0s0,0,0,.06A53,53,0,0,0,125.4,47c0,4.17.15,8.35.39,12.52.46,8.35,1.2,16.68,1.91,25a.06.06,0,0,1,0,.06A0,0,0,0,1,127.6,84.5Z"/></g></g></svg>