<svg xmlns="http://www.w3.org/2000/svg" viewBox="0 0 22.01 78.02"><title>HourBen_1</title><g id="Layer_2" data-name="Layer 2"><g id="Layer_1-2" data-name="Layer 1"><path d="M16.39,70c4.62-4.86-3.53-7.83-3.53-12.88s.63-9.37,4.56-11A6,6,0,0,0,16,34.29a5.12,5.12,0,0,0-.56,0A7.2,7.2,0,0,0,17.08,30c0-5.94-5.91-16.68-6.07-30-.17,13.33-6.08,24.07-6.08,30a7.2,7.2,0,0,0,1.63,4.31,5.12,5.12,0,0,0-.56,0A6,6,0,0,0,4.59,46.12c3.94,1.64,4.56,5.84,4.56,11S1,65.15,5.62,70a9.63,9.63,0,0,0-4.26,8H20.65A9.63,9.63,0,0,0,16.39,70ZM16,35.29a5,5,0,1,1-4.46,7.26A5.88,5.88,0,0,0,12,40.29,6.12,6.12,0,0,0,11.56,38a4.84,4.84,0,0,1,1.3-1.61l0,0A4.94,4.94,0,0,1,16,35.29ZM11,13.82C12.77,20.73,15.08,26.3,15.08,30A7.57,7.57,0,0,1,11,36.34h0A7.57,7.57,0,0,1,6.93,30C6.93,26.3,9.24,20.73,11,13.82ZM1,40.29a5,5,0,0,1,5-5A4.89,4.89,0,0,1,9.12,36.4h0A4.84,4.84,0,0,1,10.45,38,6.12,6.12,0,0,0,10,40.29a5.88,5.88,0,0,0,.45,2.26A5,5,0,0,1,1,40.29Zm4.94,6H6a6,6,0,0,0,5-2.7,6,6,0,0,0,5,2.7h.06c-2.93,1.4-3.87,4.35-4.13,8.08a1.28,1.28,0,0,0-.93-.44,1.31,1.31,0,0,0-.94.45C9.82,50.65,8.88,47.69,5.94,46.29ZM11,68.37a9.46,9.46,0,0,0-4.73,1.25C2.77,65.4,8.88,62.57,10,58.38a1.34,1.34,0,0,0,1,.56,1.34,1.34,0,0,0,1-.54c1.12,4.18,7.19,7,3.71,11.21A9.58,9.58,0,0,0,11,68.37Z"/></g></g></svg>