<svg xmlns="http://www.w3.org/2000/svg" viewBox="0 0 50 50"><defs><style>.cls-1{fill:#fef1cd;}</style></defs><title>Instagram</title><g id="Layer_2" data-name="Layer 2"><g id="Layer_1-2" data-name="Layer 1"><path class="cls-1" d="M25,0A25,25,0,1,0,50,25,25,25,0,0,0,25,0Zm0,49A24,24,0,1,1,49,25,24,24,0,0,1,25,49Z"/><path class="cls-1" d="M25,3.5A21.5,21.5,0,1,0,46.5,25,21.49,21.49,0,0,0,25,3.5ZM37.5,34.25a3.26,3.26,0,0,1-3.25,3.25H15.74a3.25,3.25,0,0,1-3.24-3.25V15.74a3.24,3.24,0,0,1,3.24-3.24H34.25a3.25,3.25,0,0,1,3.25,3.24Z"/><path class="cls-1" d="M32.93,14.5H17.06a2.55,2.55,0,0,0-2.56,2.56V32.93a2.56,2.56,0,0,0,2.56,2.57H32.93a2.57,2.57,0,0,0,2.57-2.57V17.06A2.56,2.56,0,0,0,32.93,14.5ZM25,31.5A6.5,6.5,0,1,1,31.5,25,6.5,6.5,0,0,1,25,31.5Zm7.17-12.67a1,1,0,0,1-1-1,1,1,0,1,1,1,1Z"/><circle class="cls-1" cx="25" cy="25" r="5"/></g></g></svg>