<svg xmlns="http://www.w3.org/2000/svg" viewBox="0 0 50 50"><defs><style>.cls-1{fill:#fef1cd;}</style></defs><title>LinkedIn</title><g id="Layer_2" data-name="Layer 2"><g id="Layer_1-2" data-name="Layer 1"><path class="cls-1" d="M25,0A25,25,0,1,0,50,25,25,25,0,0,0,25,0Zm0,49A24,24,0,1,1,49,25,24,24,0,0,1,25,49Z"/><path class="cls-1" d="M25,3.5A21.5,21.5,0,1,0,46.5,25,21.49,21.49,0,0,0,25,3.5Zm12.5,34h-25v-25h25Z"/><path class="cls-1" d="M19.33,17.88v.29a1.72,1.72,0,0,1-1.71,1.71H16.09a1.72,1.72,0,0,1-1.72-1.71v-.29a1.73,1.73,0,0,1,1.72-1.72h1.53A1.72,1.72,0,0,1,19.33,17.88Z"/><path class="cls-1" d="M19.33,21.23V36.16H14.38V21.74A13.51,13.51,0,0,0,19.33,21.23Z"/><path class="cls-1" d="M34.37,25.36v10.8H29.42V25.36c0-1.54,0-2.36-2.57-.36V36.16h-5V21.74a13.51,13.51,0,0,0,5-.51V23.3C32.5,18.77,34.37,21.74,34.37,25.36Z"/></g></g></svg>