<svg xmlns="http://www.w3.org/2000/svg" viewBox="0 0 439.87 439.87"><defs><style>.cls-1{fill:#4b4e4c;}</style></defs><title>Logo_1</title><g id="Layer_2" data-name="Layer 2"><g id="Layer_1-2" data-name="Layer 1"><path class="cls-1" d="M408.54,169.47v0c-8.19-24.25,14.6-33.69,1.88-59.48-16-23.88-35.5-8.94-52.37-28a.43.43,0,0,1-.09-.1c-19.11-16.87-4.16-36.41-28-52.36-25.79-12.73-35.24,10.07-59.48,1.88h0C245.43,26.27,248.6,1.88,219.94,0c-28.66,1.88-25.49,26.27-50.47,31.34h0C145.2,39.54,135.76,16.74,110,29.47c-23.88,16-8.94,35.49-28,52.36a.94.94,0,0,1-.1.1C65,101,45.42,86.09,29.47,110c-12.73,25.8,10.07,35.24,1.88,59.49v0c-5.07,25-29.46,21.81-31.34,50.47,1.88,28.66,26.27,25.49,31.34,50.47v0c8.19,24.24-14.61,33.69-1.88,59.47,16,23.89,35.49,8.94,52.36,28.05a.41.41,0,0,1,.1.09c19.1,16.87,4.16,36.41,28,52.37,25.8,12.72,35.24-10.07,59.49-1.88h0c25,5.07,21.81,29.46,50.47,31.33,28.66-1.87,25.49-26.26,50.47-31.33h0c24.24-8.19,33.69,14.6,59.47,1.88,23.89-16,8.94-35.5,28.05-52.37A.26.26,0,0,1,358,358c16.87-19.11,36.41-4.16,52.37-28,12.72-25.79-10.07-35.24-1.88-59.48v0c5.07-25,29.46-21.81,31.33-50.47C438,191.28,413.61,194.45,408.54,169.47ZM403,268.94h0c-7.95,23.55,14.18,32.72,1.83,57.75-15.49,23.19-34.46,8.68-50.84,27.22l-.1.1c-18.54,16.38-4,35.35-27.22,50.84-25,12.35-34.2-9.78-57.75-1.83,0,0,0,0,0,0-24.25,4.93-21.18,28.61-49,30.43-27.83-1.82-24.75-25.5-49-30.43h0c-23.55-7.95-32.71,14.18-57.75,1.83C90,389.37,104.5,370.4,86,354a.43.43,0,0,0-.09-.1c-16.38-18.54-35.35-4-50.84-27.22-12.36-25,9.77-34.2,1.82-57.75h0c-4.92-24.25-28.6-21.18-30.42-49,1.82-27.83,25.5-24.75,30.42-49v0c7.95-23.55-14.18-32.71-1.82-57.75C50.51,90,69.48,104.5,85.86,86a.26.26,0,0,0,.09-.09C104.5,69.48,90,50.51,113.17,35c25-12.36,34.2,9.77,57.75,1.82h0c24.25-4.92,21.17-28.6,49-30.42,27.82,1.82,24.75,25.5,49,30.42h0C292.5,44.79,301.67,22.66,326.7,35c23.19,15.49,8.68,34.46,27.22,50.84a.41.41,0,0,0,.1.09c16.38,18.55,35.35,4,50.84,27.22,12.35,25-9.78,34.2-1.83,57.75v0c4.93,24.25,28.61,21.17,30.43,49C431.65,247.76,408,244.69,403,268.94Z"/><path class="cls-1" d="M424,219.94c-1.74,26.59-24.37,23.65-29.07,46.82v0c-7.6,22.49,13.55,31.25,1.74,55.18-14.8,22.15-32.93,8.29-48.58,26a.76.76,0,0,0-.09.09c-17.72,15.65-3.86,33.78-26,48.58-23.92,11.81-32.68-9.34-55.17-1.74h0c-23.17,4.7-20.23,27.33-46.82,29.07-26.59-1.74-23.65-24.37-46.82-29.07h0c-22.5-7.6-31.26,13.55-55.19,1.74-22.15-14.8-8.28-32.93-26-48.58,0,0-.06-.06-.08-.09C76.16,330.25,58,344.11,43.23,322,31.43,298,52.58,289.27,45,266.78v0c-4.7-23.17-27.33-20.23-29.07-46.82,1.74-26.59,24.37-23.65,29.07-46.82v0c7.6-22.5-13.55-31.26-1.75-55.19,14.8-22.15,32.93-8.28,48.59-26l.08-.08c17.73-15.66,3.86-33.79,26-48.59,23.92-11.8,32.68,9.35,55.18,1.75h0c23.17-4.7,20.23-27.33,46.82-29.07,26.59,1.74,23.65,24.37,46.82,29.07h0C289.27,52.58,298,31.43,322,43.23c22.15,14.8,8.29,32.93,26,48.59l.09.08c15.65,17.73,33.78,3.86,48.58,26,11.81,23.92-9.34,32.68-1.74,55.18v0C399.61,196.29,422.24,193.35,424,219.94Z"/></g></g></svg>