<svg xmlns="http://www.w3.org/2000/svg" viewBox="0 0 15.29 81.37"><title>MinBen_2</title><g id="Layer_2" data-name="Layer 2"><g id="Layer_1-2" data-name="Layer 1"><path d="M11,76.51c2.47-2,4.29-9.18,4.29-17.72,0-9.26-2.14-16.92-4.92-18.12.91-2.18,2.66-4,2.81-6a8.33,8.33,0,0,1-3.59,3,8.87,8.87,0,0,1-.3-2.38c0-7,6.48-16,3.2-18.13a3.22,3.22,0,0,0,.43-1.6A3.13,3.13,0,0,0,12,13.31C14.47,12.33,7.64,6,7.65,0h0c0,6-6.84,12.35-4.32,13.31a3.14,3.14,0,0,0-.95,2.23,3.09,3.09,0,0,0,.44,1.59C-.89,19.46,7.67,30.52,5.7,37.65a8.39,8.39,0,0,1-3.59-3,7.12,7.12,0,0,0,1.12,2.95,28.64,28.64,0,0,1,1.69,3.09C2.14,41.87,0,49.53,0,58.79c0,8.54,1.83,15.72,4.3,17.72C1.75,77.38,0,79.23,0,81.37H15.29C15.29,79.23,13.54,77.38,11,76.51ZM8.71,13.35a2.88,2.88,0,0,1,.59-.07,2.36,2.36,0,0,1,2.46,2.26,2.19,2.19,0,0,1-1,1.82,2.65,2.65,0,0,1-1.46.44,2.32,2.32,0,0,1-.59-.07,3.11,3.11,0,0,0,0-4.38ZM7.64,5.12h0C9,8.39,11.23,11.32,11.5,12.9a3.81,3.81,0,0,0-2.2-.69,3.74,3.74,0,0,0-1.65.38,3.84,3.84,0,0,0-3.86.31C4.06,11.32,6.3,8.39,7.64,5.12Zm.81,10.42a2.16,2.16,0,0,1-.8,1.66,2.12,2.12,0,0,1,0-3.32A2.16,2.16,0,0,1,8.45,15.54ZM6,13.28a2.79,2.79,0,0,1,.58.07,3.17,3.17,0,0,0-.89,2.19,3.14,3.14,0,0,0,.89,2.19A2.25,2.25,0,0,1,6,17.8a2.61,2.61,0,0,1-1.47-.45,2.22,2.22,0,0,1-1-1.81A2.36,2.36,0,0,1,6,13.28Zm-2,5a3.9,3.9,0,0,0,3.67.19,3.88,3.88,0,0,0,3.66-.19C12,21,8.76,26.78,7.65,32.13,6.53,26.78,3.25,21,4,18.31ZM6.72,74.56a1.66,1.66,0,0,1-1,.39C3.1,75,1,67.71,1,58.79S3.1,42.62,5.69,42.62a1.72,1.72,0,0,1,1,.39h0c-.1.18-.19.38-.29.58,0,0,0,0,0,0a19.89,19.89,0,0,0-1,2.82,46.56,46.56,0,0,0-1.5,12.35c0,6.72,1.13,12.59,2.81,15.77ZM4.91,58.79c0-6.53,1.12-12.15,2.74-14.71,1.62,2.56,2.74,8.18,2.74,14.71S9.27,70.93,7.65,73.49C6,70.93,4.91,65.31,4.91,58.79ZM9.6,75a1.64,1.64,0,0,1-1-.39c1.68-3.18,2.81-9,2.81-15.77a46.56,46.56,0,0,0-1.5-12.35,19.89,19.89,0,0,0-1-2.82h0c-.1-.2-.19-.4-.29-.58a1.65,1.65,0,0,1,1-.4c2.6,0,4.7,7.24,4.7,16.17S12.2,75,9.6,75Z"/></g></g></svg>