<svg xmlns="http://www.w3.org/2000/svg" viewBox="0 0 50 50"><defs><style>.cls-1{fill:#fef1cd;}.cls-2{fill:none;}</style></defs><title>Mobile</title><g id="Layer_2" data-name="Layer 2"><g id="Layer_1-2" data-name="Layer 1"><path class="cls-1" d="M25,0A25,25,0,1,0,50,25,25,25,0,0,0,25,0Zm0,49A24,24,0,1,1,49,25,24,24,0,0,1,25,49Z"/><path class="cls-1" d="M25,3.5A21.5,21.5,0,1,0,46.5,25,21.49,21.49,0,0,0,25,3.5Zm10,36.79A2.09,2.09,0,0,1,33,42.37H17a2.09,2.09,0,0,1-2.09-2.08V9.7A2.09,2.09,0,0,1,17,7.62H33A2.09,2.09,0,0,1,35.05,9.7Z"/><path class="cls-1" d="M31.77,8H18.22a2.81,2.81,0,0,0-2.8,2.8V39.23a2.81,2.81,0,0,0,2.8,2.8H31.77a2.81,2.81,0,0,0,2.8-2.8V10.76A2.81,2.81,0,0,0,31.77,8Zm2,30.82A1.85,1.85,0,0,1,32,40.62H18a1.85,1.85,0,0,1-1.83-1.84V11.21A1.85,1.85,0,0,1,18,9.37H32a1.85,1.85,0,0,1,1.83,1.84Z"/><path class="cls-2" d="M31.48,9.81h-13a1.94,1.94,0,0,0-1.94,1.94V38.24a1.94,1.94,0,0,0,1.94,1.94h13a1.94,1.94,0,0,0,1.94-1.94V11.75A1.94,1.94,0,0,0,31.48,9.81ZM25,39.57a1.84,1.84,0,1,1,1.84-1.84A1.84,1.84,0,0,1,25,39.57Z"/><path class="cls-1" d="M26.43,37.73A1.44,1.44,0,1,1,25,36.29,1.43,1.43,0,0,1,26.43,37.73Z"/></g></g></svg>