<svg xmlns="http://www.w3.org/2000/svg" xmlns:xlink="http://www.w3.org/1999/xlink" viewBox="0 0 1160.34 112"><defs><style>.cls-1{fill:#fef1cd;}.cls-2{fill:#6f7e80;}.cls-3{fill:#fef1a3;}.cls-4{fill:url(#linear-gradient);}.cls-5{fill:url(#linear-gradient-2);}.cls-6{fill:url(#linear-gradient-3);}</style><linearGradient id="linear-gradient" x1="932" y1="55" x2="902.5" y2="55" gradientUnits="userSpaceOnUse"><stop offset="0" stop-opacity="0"/><stop offset="1"/></linearGradient><linearGradient id="linear-gradient-2" y1="55" y2="55" gradientTransform="matrix(1, 0, 0, -1, -674.16, 110)" xlink:href="#linear-gradient"/><linearGradient id="linear-gradient-3" x1="580" y1="111.5" x2="580" y2="60.5" xlink:href="#linear-gradient"/></defs><title>Rib</title><g id="Layer_2" data-name="Layer 2"><g id="Layer_1-2" data-name="Layer 1"><g id="Ribbon"><polygon class="cls-1" points="167.5 112 212 67.5 166.5 22 237.5 22 237.5 88 277.5 112 167.5 112"/><polygon class="cls-2" points="277.5 88 277.5 112 237.5 88 277.5 88"/><circle class="cls-3" cx="5.5" cy="66" r="5.5"/><circle class="cls-3" cx="53.5" cy="66" r="5.5"/><circle class="cls-3" cx="100.5" cy="66" r="5.5"/><circle class="cls-3" cx="148.5" cy="66" r="5.5"/><circle class="cls-3" cx="1154.84" cy="66" r="5.5"/><circle class="cls-3" cx="1106.84" cy="66" r="5.5"/><polygon class="cls-1" points="948 67.5 992.5 112 882.84 112 922.84 88 922.84 22 993.5 22 948 67.5"/><circle class="cls-3" cx="1059.84" cy="66" r="5.5"/><circle class="cls-3" cx="1011.84" cy="66" r="5.5"/><rect class="cls-4" x="902.5" y="21.5" width="29.5" height="67" rx="12" ry="12"/><polygon class="cls-2" points="922.84 88 882.84 112 882.84 88 922.84 88"/><rect class="cls-5" x="228.34" y="21.5" width="29.5" height="67" rx="12" ry="12" transform="translate(486.18 110) rotate(-180)"/><rect class="cls-6" x="277" y="60.5" width="606" height="51" rx="12" ry="12"/><rect class="cls-1" x="237.5" width="685.34" height="88"/></g></g></g></svg>