<svg xmlns="http://www.w3.org/2000/svg" viewBox="0 0 301.72 17.55"><defs><style>.cls-1{fill:#fef1cd;}</style></defs><title>SnipLight</title><g id="Layer_2" data-name="Layer 2"><g id="Layer_1-2" data-name="Layer 1"><polygon class="cls-1" points="153.2 8.78 159.97 15.55 157.97 17.55 151.2 10.78 144.42 17.55 142.42 15.55 149.2 8.78 142.42 2 144.42 0 151.2 6.78 157.97 0 159.97 2 153.2 8.78"/><polygon class="cls-1" points="175.2 8.78 181.97 15.55 179.97 17.55 173.2 10.78 166.42 17.55 164.42 15.55 171.2 8.78 164.42 2 166.42 0 173.2 6.78 179.97 0 181.97 2 175.2 8.78"/><polygon class="cls-1" points="111.42 5.77 111.42 11.77 0 8.77 111.42 5.77"/><polygon class="cls-1" points="131.2 8.78 137.97 15.55 135.97 17.55 129.2 10.78 122.42 17.55 120.42 15.55 127.2 8.78 120.42 2 122.42 0 129.2 6.78 135.97 0 137.97 2 131.2 8.78"/><polygon class="cls-1" points="301.72 8.77 190.97 11.77 190.97 5.77 301.72 8.77"/></g></g></svg>