<svg xmlns="http://www.w3.org/2000/svg" viewBox="0 0 181 181"><defs><style>.cls-1{fill:#d45244;}.cls-1,.cls-4,.cls-5{stroke:#d45244;stroke-miterlimit:10;}.cls-2,.cls-5{fill:none;}.cls-3,.cls-4{fill:#e6e1d0;}</style></defs><title>Tutor</title><g id="Layer_2" data-name="Layer 2"><g id="Layer_1-2" data-name="Layer 1"><path class="cls-1" d="M90.5.5a90,90,0,1,0,90,90A90,90,0,0,0,90.5.5Zm0,177.5A87.5,87.5,0,1,1,178,90.5,87.51,87.51,0,0,1,90.5,178Z"/><circle class="cls-1" cx="90.5" cy="90.5" r="80"/><line class="cls-2" x1="90.5" y1="110.23" x2="90.5" y2="70.77"/><line class="cls-2" x1="90.5" y1="110.23" x2="90.5" y2="70.77"/><line class="cls-2" x1="90.5" y1="70.77" x2="90.5" y2="110.23"/><polygon class="cls-3" points="90.5 57.71 37.86 84.5 90.5 111.29 143.15 84.5 90.5 57.71"/><path class="cls-4" d="M117.5,97.55v19h0c0,23-54,23-54,0h0v-19"/><polygon class="cls-3" points="131.87 91.75 131.87 108.23 129.87 108.23 129.87 92.77 131.87 91.75"/><polygon class="cls-3" points="134.09 111.23 127.65 111.23 129.19 109.23 132.56 109.23 134.09 111.23"/><polygon class="cls-3" points="135.66 120.23 126.09 120.23 127.65 112.23 134.09 112.23 135.66 120.23"/><polygon class="cls-5" points="90.5 57.71 37.86 84.5 90.5 111.29 143.15 84.5 90.5 57.71"/></g></g></svg>