<svg xmlns="http://www.w3.org/2000/svg" viewBox="0 0 181 181"><defs><style>.cls-1{fill:#d45244;stroke-miterlimit:10;}.cls-1,.cls-3,.cls-4{stroke:#d45244;}.cls-2,.cls-3{fill:#e6e1d0;}.cls-3,.cls-4{stroke-linecap:round;stroke-linejoin:round;}.cls-4{fill:none;}</style></defs><title>Web</title><g id="Layer_2" data-name="Layer 2"><g id="Layer_1-2" data-name="Layer 1"><path class="cls-1" d="M90.5.5a90,90,0,1,0,90,90A90,90,0,0,0,90.5.5Zm0,177.5A87.5,87.5,0,1,1,178,90.5,87.51,87.51,0,0,1,90.5,178Z"/><circle class="cls-1" cx="90.5" cy="90.5" r="80"/><path class="cls-2" d="M70.39,93.33,30.94,125.64l71,9.76,39.45-32.31ZM129,104l-2.88,2.37-3.32-.47,2.89-2.35Zm-51.48.9,3.32.46-2.73,2.24-3.31-.46Zm-4.38,2h0l-3.31-.45,2.73-2.24h0l3.32.47Zm9.36-1.32,3.32.46-2.72,2.22h0l-3.32-.46Zm5,.68,3.32.47L88.11,109l-3.31-.45Zm5,.69,3.33.45-2.73,2.24h0l-3.31-.46Zm5,.68,3.31.46-2.72,2.23-3.32-.45Zm5,.69,3.31.45L103,111l-3.32-.46Zm5,.68,3.32.46L108,111.7l-3.32-.45Zm5,.69,3.32.45L113,112.39l-3.31-.47Zm1.37-1.12,2.72-2.24,3.31.47L117.09,109Zm-1.66-.23h0l-3.31-.47,2.72-2.23h0l3.32.45Zm-5-.69-3.32-.45,2.72-2.24,3.32.46Zm-5-.68-3.32-.45,2.72-2.24h0l3.31.47Zm-5-.68-3.31-.47,2.72-2.22,3.32.45Zm-5-.69-3.32-.45,2.73-2.24,3.32.46Zm-5-.68-3.32-.46,2.74-2.23,3.31.45Zm-5-.69-3.32-.45,2.73-2.24L85,102Zm-5-.68L74,103.1l2.73-2.23,3.32.45Zm-5-.69L69,102.42l2.72-2.24,3.32.45ZM70.93,104l-2.73,2.24-3.31-.47,2.72-2.22Zm-4.1,3.35-2.73,2.24-3.32-.46,2.74-2.23Zm1.66.23,3.32.46-2.73,2.23-3.32-.45Zm5,.69,3.32.45L74.07,111l-3.32-.46Zm5,.68h0l3.32.46L79,111.63l-3.32-.45Zm5,.68,3.32.46L84,112.32l-3.32-.46Zm5,.7h0l3.32.46L89,113l-3.31-.46Zm5,.67,3.32.46L94,113.69l-3.31-.46Zm5,.7h0l3.32.46L99,114.37h0l-3.31-.47Zm5,.67,3.31.47-2.72,2.22-3.32-.45Zm5,.69,3.31.45-2.73,2.24-3.32-.46Zm5,.68,3.32.46-2.73,2.23-3.32-.45Zm1.37-1.12,2.72-2.22h0l3.31.46L118,113.07Zm4.09-3.35,2.73-2.23,3.32.45-2.73,2.24Zm5.32-5.94-2.88,2.36-3.32-.46,2.88-2.36Zm-5-.69L116.21,105h0l-3.31-.46,2.88-2.36Zm-5-.68-2.89,2.36-3.31-.45,2.88-2.37Zm-5-.68-2.89,2.36-3.32-.46,2.89-2.36Zm-5-.69-2.88,2.36L98,102.49l2.89-2.37Zm-5-.68-2.88,2.35h0L93,101.8l2.89-2.36Zm-5-.69-2.88,2.37L88,101.11l2.87-2.35Zm-5-.68-2.88,2.36L83,100.43l2.88-2.36Zm-5-.69-2.87,2.37-3.32-.46,2.88-2.36Zm-5-.68-2.88,2.36-3.32-.45L76,96.7ZM71,96l3.32.45-2.88,2.37h0l-3.31-.46ZM66.73,99.5l3.32.45-2.73,2.24L64,101.73Zm-4.1,3.35h0l3.31.47-2.73,2.23-3.32-.45Zm-4.09,3.35,3.31.46-2.72,2.24-3.32-.46Zm-6.82,5.6,2.72-2.24,3.32.45L55,112.25ZM60,112.94l-3.32-.46,2.73-2.24h0l3.31.47L60,112.94Zm1.66.23,2.73-2.24,3.32.45L65,113.62ZM70,114.31l-3.32-.46,2.74-2.24h0l3.32.45L70,114.3Zm1.67.22,2.73-2.24,3.31.47L75,115Zm5,.68L79.34,113l3.31.45-2.72,2.24Zm5,.69,2.73-2.24,3.32.46-2.73,2.23Zm5,.68,2.73-2.23,3.32.45L89.88,117Zm8.29,1.14-3.31-.45L94.26,115l3.32.46Zm1.67.23,2.72-2.23,3.32.45-2.73,2.24Zm5,.69,2.73-2.23,3.32.45-2.73,2.23Zm5,.68,2.72-2.23,3.32.46-2.74,2.23Zm9.64,1.33-4.68-.65,2.73-2.23,4.68.64Zm4.09-3.36-4.66-.64,2.72-2.23,4.67.64Zm4.1-3.35-4.68-.64,2.73-2.24,4.67.65Zm4.09-3.35-4.67-.64,2.73-2.24,4.66.64Zm-.58-4,2.88-2.36,4.68.64-2.89,2.37Z"/><path class="cls-3" d="M62.76,43.09l7.63,50.24,71,9.76L133.8,52.86Zm74.57,55.53L73.26,89.81,66.85,47.57l64.07,8.81Z"/><path class="cls-4" d="M70.39,93.33,30.94,125.64l71,9.76,39.45-32.31Z"/></g></g></svg>