<svg xmlns="http://www.w3.org/2000/svg" viewBox="0 0 61.79 61.86">
  <title>Close</title>
  <path d="M31.37,47.51l-.31,13.72a.27.27,0,0,1-.53,0h0l-1.18-13,.54.29c-9.45,4.89-19.18,9.19-29,13.26a.64.64,0,0,1-.83-.35.62.62,0,0,1,.23-.77h0c9.56-6.45,19-13.09,27.92-20.35l-.32.82c-.59-3.34-1.19-6.68-2.06-9.94a61.27,61.27,0,0,0-3.22-9.55,27.73,27.73,0,0,0-5.28-8.28,16.46,16.46,0,0,0-3.76-2.92A15.27,15.27,0,0,0,9.09,9h0A1.15,1.15,0,0,1,8.13,7.7a1.21,1.21,0,0,1,.3-.61,34.84,34.84,0,0,1,5.31-4.72A16.33,16.33,0,0,1,17,.61,8.69,8.69,0,0,1,21,0,7,7,0,0,1,24.7,1.69a12.42,12.42,0,0,1,2.45,3,27.62,27.62,0,0,1,2.68,6.69,81.86,81.86,0,0,1,2.28,13.78c.42,4.61.6,9.22.68,13.83l-2.51-1.16c2.44-2.09,4.86-4.2,7.16-6.41A74.53,74.53,0,0,0,44,24.44a30.29,30.29,0,0,0,4.81-7.83,10.94,10.94,0,0,0,.7-4.16A7.48,7.48,0,0,0,48,8.72l0-.07a1.35,1.35,0,0,1,1.71-2,35.87,35.87,0,0,1,6.49,4.12,15.69,15.69,0,0,1,4.91,6.27,10.41,10.41,0,0,1,.68,4.1,12.58,12.58,0,0,1-1,4,22.27,22.27,0,0,1-4.46,6.32,47.57,47.57,0,0,1-5.71,4.94,73.11,73.11,0,0,1-6.2,4.18c-2.13,1.29-4.29,2.51-6.48,3.68-1.09.59-2.19,1.15-3.3,1.71Zm-.26-.16,3.27-1.9c1.06-.65,2.14-1.25,3.19-1.9,2.1-1.28,4.18-2.61,6.21-4A64.54,64.54,0,0,0,55,30.18a20.7,20.7,0,0,0,3.84-5.88,10.51,10.51,0,0,0,.66-3.24,7.87,7.87,0,0,0-.6-3.14,13.26,13.26,0,0,0-4.28-5.16A34.37,34.37,0,0,0,48.5,9.09l1.66-2a10.25,10.25,0,0,1,2.12,5.17,13.73,13.73,0,0,1-.76,5.38,30.89,30.89,0,0,1-5.19,8.75,76.34,76.34,0,0,1-6.74,7.28c-2.34,2.31-4.85,4.41-7.35,6.52A1.5,1.5,0,0,1,30.1,40a1.56,1.56,0,0,1-.37-1c0-4.56-.18-9.1-.52-13.62a78.48,78.48,0,0,0-2-13.33A24.69,24.69,0,0,0,24.93,6c-1.05-1.8-2.49-3.3-4.28-3.48s-3.8.66-5.57,1.84a31.31,31.31,0,0,0-5,4.33L9.43,6.75a17.21,17.21,0,0,1,5.2,1.77,18.68,18.68,0,0,1,4.26,3.37,30,30,0,0,1,5.58,9,62.94,62.94,0,0,1,3.19,9.89c.86,3.35,1.43,6.75,2,10.14a.87.87,0,0,1-.32.82C20.24,48.91,10.69,55.46,1,61.75L.41,60.62c9.86-3.89,19.64-8,29.14-12.73h0a.36.36,0,0,1,.49.16.74.74,0,0,1,0,.14l1,13h-.53Z"/>
</svg>
