<svg xmlns="http://www.w3.org/2000/svg" viewBox="0 0 40.15 36.26"><title>Menu</title><g id="Слой_2" data-name="Слой 2"><g id="Слой_1-2" data-name="Слой 1"><path d="M35.16,22c-1-.33-2.47-.7-3.61-1-.6-.18-1.21-.32-1.81-.48s-1.2-.32-1.8-.44a27.76,27.76,0,0,0-7.2-.8,26.63,26.63,0,0,0-7,1.37c-2.3.74-4.58,1.7-6.87,2.63a1.45,1.45,0,0,1-1.9-.8,1.87,1.87,0,0,1-.07-.22l0-.1-1-4.42V17.6a1.47,1.47,0,0,1,.88-1.69c2.35-1,4.75-1.9,7.23-2.67a28.22,28.22,0,0,1,7.8-1.34,23.83,23.83,0,0,1,7.79,1.34,56.81,56.81,0,0,1,7.07,3l.06,0a.41.41,0,0,1,.24.39C34.93,18.42,35,20.19,35.16,22Zm0,0A34.43,34.43,0,0,1,34,16.72l.31.43c-2.41-.76-4.81-1.51-7.22-2a23.67,23.67,0,0,0-7.17-.65,27.76,27.76,0,0,0-7,1.53c-2.33.76-4.63,1.71-6.95,2.67l.87-1.76,1,4.73-2-1.12A64.06,64.06,0,0,1,13,18a25.51,25.51,0,0,1,7.76-1,25.39,25.39,0,0,1,7.54,1.7,36,36,0,0,1,3.5,1.48c.55.28,1.17.54,1.65.82S34.54,21.69,35.16,22Z"/><path d="M40.15,36.26c-.62-.21-1.35-.35-2.17-.57-.4-.11-.84-.25-1.2-.37L35.72,35,31.5,33.68a43.28,43.28,0,0,0-8.38-1.83,24.19,24.19,0,0,0-8.23.74,73.16,73.16,0,0,0-8.25,2.66l-.07,0a1.28,1.28,0,0,1-1.66-.75,1.29,1.29,0,0,1,0-.8,23.4,23.4,0,0,0,.77-5v-.06a1.11,1.11,0,0,1,.73-1,65.8,65.8,0,0,1,7.73-2.5,23.65,23.65,0,0,1,8.22-.66,30.83,30.83,0,0,1,7.89,2c2.52,1,5,2.05,7.38,3.16h0a.37.37,0,0,1,.19.2c.34,1,.72,2.08,1.11,3.1l.61,1.54.32.76.17.38A2.07,2.07,0,0,1,40.15,36.26Zm-.21-.21c-.1-.1-.19-.13-.22-.21l-.19-.36-.37-.74-.72-1.5c-.47-1-.91-2-1.32-3.06l.2.21c-2.48-1-5-1.91-7.48-2.7a32,32,0,0,0-7.64-1.54,21.81,21.81,0,0,0-7.59,1,66,66,0,0,0-7.35,2.75L8,28.81a26.74,26.74,0,0,1-.58,5.54L5.64,32.83a60.71,60.71,0,0,1,8.49-3.22,21.05,21.05,0,0,1,9.35-.6,33.54,33.54,0,0,1,8.71,2.82q2,.95,4,2l1,.53c.32.17.55.32.84.51A18.73,18.73,0,0,0,39.94,36.05Z"/><path d="M36.07,5.26a21.42,21.42,0,0,0-.9,4.52.38.38,0,0,1-.41.33l-.08,0,0,0C32,9.23,29.41,8.41,26.8,7.84a22.67,22.67,0,0,0-7.8-.5,32,32,0,0,0-7.61,2c-2.51.93-5,2-7.52,3.07a1.48,1.48,0,0,1-1.94-.75l0-.08C1.29,10.21.72,8.83.14,7.46l0-.07A1.46,1.46,0,0,1,.89,5.48C3.69,4.3,6.48,3.09,9.39,2.1A33.88,33.88,0,0,1,18.51.05a22.62,22.62,0,0,1,9.24,1.43c.73.26,1.45.51,2.15.82s1.41.58,2.09.92,1.36.62,2.08,1S35.43,5,36.07,5.26Zm0,0c-1.56-.51-2.87-.86-4.35-1.32s-2.89-.83-4.34-1.13A31.41,31.41,0,0,0,23,2.13a22.94,22.94,0,0,0-4.31.15,37.08,37.08,0,0,0-8.38,2.4C7.59,5.79,4.83,7,2.08,8.19l.75-2c.62,1.42,1.25,2.85,1.84,4.29l-2-.83c2.55-1.06,5.1-2.12,7.76-3A32.16,32.16,0,0,1,18.8,4.91a22.67,22.67,0,0,1,8.46,1.21,57.17,57.17,0,0,1,7.67,3.22l-.54.3A17.73,17.73,0,0,1,36.07,5.26Z"/></g></g></svg>