<svg xmlns="http://www.w3.org/2000/svg" viewBox="0 0 142.35 146.54"><defs><style>.cls-1{isolation:isolate;}.cls-2{fill:#b4b4b4;}.cls-3{fill:#828282;}.cls-4{fill:#dfdfdf;}</style></defs><title>3D</title><g id="Layer_2" data-name="Layer 2"><g id="Layer_1-2" data-name="Layer 1"><g class="cls-1"><polygon points="141.24 128.93 118.44 116.53 118.66 1.09 141.45 13.48 141.24 128.93"/><polygon points="23.68 145.46 0.89 133.06 118.44 116.53 141.24 128.93 23.68 145.46"/><polygon class="cls-2" points="23.9 30.01 1.1 17.61 118.66 1.09 141.45 13.48 23.9 30.01"/><polygon class="cls-3" points="23.68 145.46 0.89 133.06 1.1 17.61 23.9 30.01 23.68 145.46"/><path d="M23,29.17,142.35,12.4l-.22,117.37L22.79,146.54Zm118.23,99.76.21-115.44L23.9,30l-.22,115.44,117.56-16.52"/><polygon class="cls-4" points="141.45 13.48 141.24 128.93 23.68 145.46 23.9 30.01 141.45 13.48"/><polygon points="22.79 146.54 0 134.14 0.22 16.77 23.01 29.17 22.79 146.54"/><polygon points="23.01 29.17 0.22 16.77 119.56 0 142.35 12.4 23.01 29.17"/></g></g></g></svg>