<svg xmlns="http://www.w3.org/2000/svg" viewBox="0 0 111 111"><defs><style>.cls-1,.cls-5,.cls-7{fill:#810f2e;}.cls-1,.cls-3,.cls-4{stroke:#810f2e;}.cls-1,.cls-2,.cls-4,.cls-6{stroke-miterlimit:10;}.cls-2{stroke:#000;opacity:0.05;}.cls-3,.cls-6{fill:#fff;}.cls-3,.cls-7{stroke-linecap:round;stroke-linejoin:round;stroke-width:0.25px;}.cls-4{fill:none;stroke-width:0.15px;}.cls-6{stroke:#8b001d;}.cls-7{stroke:#fff;}</style></defs><title>IconInstall_1</title><g id="Layer_2" data-name="Layer 2"><g id="Layer_1-2" data-name="Layer 1"><circle class="cls-1" cx="55.5" cy="55.51" r="50"/><path class="cls-1" d="M55.5.5a55,55,0,1,0,55,55A55,55,0,0,0,55.5.5Zm0,107.5A52.5,52.5,0,1,1,108,55.5,52.49,52.49,0,0,1,55.5,108Z"/><path class="cls-2" d="M55.5.5a55,55,0,1,0,55,55A55,55,0,0,0,55.5.5Zm0,107.5A52.5,52.5,0,1,1,108,55.5,52.49,52.49,0,0,1,55.5,108Z"/><polygon class="cls-3" points="63.81 70.31 63.81 70.31 62.09 85.69 48.92 91.33 51.81 71.23 51.81 71.23 48.92 51.58 62.09 55.19 63.81 70.31"/><polygon class="cls-3" points="51.81 71.23 48.92 91.33 47.45 90.68 50.34 71.13 47.45 51.99 48.92 51.58 51.81 71.23"/><polygon class="cls-3" points="65.61 33.15 65.61 55.53 49.78 50.95 49.78 19.68 65.61 33.15"/><polyline class="cls-4" points="52.91 36.61 52.91 29.34 61.24 35.33 62.75 36.41 63.4 36.88 63.4 37.31"/><polyline class="cls-4" points="63.4 39.81 63.4 45.93 57.34 42.88 53.79 41.09 52.91 40.65 52.91 40.19"/><polyline class="cls-4" points="53.47 36.6 53.09 31.08 61.24 35.33 62.73 36.11 62.75 36.41 62.78 36.97"/><polyline class="cls-4" points="62.98 40.56 63.23 44.78 57.34 42.88 53.83 41.75 53.79 41.09 53.74 40.44"/><path class="cls-5" d="M63.06,38.37c-.21-.14-.35.09-.71-.15L61,37.45a.5.5,0,0,0-.46-.08c0-.29-.32-.62-1-1-.35-.65-.75-.93-1.24-.58,0,.48,0,.79-.24.91s-.17.11.17.32c.2-.09.27,0,.23.26a2.24,2.24,0,0,1-1.3-.45,22.69,22.69,0,0,0-.2-2.38c-.14-.75-.21-.82-.52-.56L55,36.54l-.49-.17c-.43,0-.64.81-.08.86l.22,0L54,38.43c-.06.09-.13.09-.17,0-.08-.32-.23-.39-.23-.07l.05,1.18c0,.09.15.14.24,0L55,37.15a2.93,2.93,0,0,1,1.75.23c.07,0,.12.07.1.26A8.56,8.56,0,0,0,57,40.55c.08.17.65-.12.56-.45a10.09,10.09,0,0,1-.23-2.38,1.42,1.42,0,0,0,1.16.19,7.08,7.08,0,0,0-.3,1.91c0,.71-.15,1.67-.54,1.46-.11-.06-.21.15-.21.47a1,1,0,0,0,.21.69c.66.34.92-3.87,1-3.83s.2.43.22.71A5.74,5.74,0,0,0,60.45,42c.23.12.31-.05.12-.38a5.16,5.16,0,0,1-1.27-3.35,3,3,0,0,0,1-.42c.06.22.11.45.23.52s.36-.53.51-.43l.48.32a8,8,0,0,1,0,1.16c0,.27-.24.58-.24,1.09,0,.75-.38,1.24-.38,1.88,0,.1.32.29.4.19a6.8,6.8,0,0,0,.36-2.42c0-.47.42-1.28.42-1.68,0-.1.35.09.35.23s.35.32.45.2S63.23,38.48,63.06,38.37ZM56.7,37a8.47,8.47,0,0,1-1.42-.34l.84-1.75c.18-.18.28-.11.31.21a4.48,4.48,0,0,0,.3,1.15A1.75,1.75,0,0,1,56.7,37Zm2,1.06L59,36.75c.43.18,1,.31,1,.73S59.22,37.9,58.71,38Z"/><path class="cls-5" d="M57.87,45.76a.75.75,0,0,0,.05-.16,1.2,1.2,0,0,0,0-.28,1.53,1.53,0,0,0,0-.3.66.66,0,0,0-.18-.42h0L57,44.26v2.37l.21.09V45.64l.37.16c.07,0,.13.22.13.42v.71L58,47v-.7a2.1,2.1,0,0,0,0-.37A.8.8,0,0,0,57.87,45.76Zm-.26-.3-.37-.17v-.58l.37.17c.07,0,.13.19.13.35S57.68,45.49,57.61,45.46Z"/><polygon class="cls-5" points="58.69 45.38 58.69 45.95 59.09 46.13 59.09 46.46 58.69 46.28 58.69 46.99 59.22 47.22 59.22 47.55 58.49 47.24 58.49 44.95 59.22 45.29 59.22 45.63 58.69 45.38"/><polygon class="cls-5" points="60.56 45.92 60.56 48.12 60.37 48.04 59.93 46.33 59.93 47.85 59.74 47.77 59.74 45.54 59.93 45.63 60.03 46 60.18 46.62 60.28 46.99 60.37 47.34 60.37 45.84 60.56 45.92"/><path class="cls-5" d="M56.37,45.08a.6.6,0,0,0,.05-.16,1.2,1.2,0,0,0,0-.28,1.55,1.55,0,0,0,0-.31.7.7,0,0,0-.21-.46l-.73-.34V46l.73.31c.09,0,.16-.07.21-.27a1.83,1.83,0,0,0,0-.35,2.38,2.38,0,0,0,0-.39C56.4,45.2,56.39,45.14,56.37,45.08Zm-.27.8-.4-.17V45l.4.18c.07,0,.13.23.13.43S56.17,45.91,56.1,45.88Zm0-1.11-.4-.18V44l.4.18c.07,0,.13.19.13.36S56.17,44.81,56.1,44.77Z"/><path class="cls-5" d="M61.81,46.83a.64.64,0,0,0-.05-.24c0-.08-.08-.14-.14-.16L61,46.15v2.17l.58.25c.1,0,.19-.07.19-.24v-1.5Zm-.17,1.26c0,.09,0,.15-.1.13l-.32-.14V46.56l.32.15c.06,0,.1.12.1.21Z"/><polygon class="cls-3" points="65.61 55.53 62.25 56.08 62.19 56.06 62.09 55.19 48.92 51.58 47.45 51.99 47.57 52.76 45.39 52.22 49.78 50.95 65.61 55.53"/><polygon class="cls-3" points="49.78 19.68 49.78 50.95 45.39 52.22 45.39 23.42 49.78 19.68"/><line class="cls-6" x1="63.67" y1="71.58" x2="63.66" y2="71.59"/><line class="cls-6" x1="63.11" y1="76.57" x2="63.1" y2="76.57"/><polygon class="cls-3" points="65.25 56.84 65.25 60.37 50.46 57.9 50.46 53.07 65.25 56.84"/><polygon class="cls-3" points="65.25 61.78 65.25 65.31 50.46 64.65 50.46 59.83 65.25 61.78"/><polygon class="cls-3" points="65.25 70.25 50.46 71.41 50.46 66.58 65.25 66.72 65.25 70.25"/><polygon class="cls-3" points="65.25 75.19 50.46 78.16 50.46 73.34 65.25 71.66 65.25 75.19"/><polygon class="cls-3" points="65.25 80.13 50.46 84.92 50.46 80.09 65.25 76.6 65.25 80.13"/><polygon class="cls-5" points="57.46 56.2 57.46 56.71 57.15 56.64 57.15 56.13 56.84 56.06 56.84 57.6 57.15 57.66 57.15 57.15 57.46 57.22 57.46 57.72 57.15 58.17 56.84 58.11 56.52 57.54 56.52 55.99 56.84 55.55 57.15 55.63 57.46 56.2"/><polygon class="cls-5" points="58.47 55.94 58.47 56.43 58.17 56.37 58.17 58.36 57.87 58.3 57.87 56.3 57.57 56.23 57.57 55.72 58.47 55.94"/><polygon class="cls-5" points="59.43 56.17 59.43 56.65 58.86 56.52 58.86 57.01 59.15 57.08 59.15 57.56 58.86 57.5 58.86 57.99 59.43 58.11 59.43 58.59 58.57 58.43 58.57 55.96 59.43 56.17"/><polygon class="cls-5" points="60.36 56.39 60.36 58.76 60.09 58.71 60.09 56.8 59.81 56.74 59.81 58.66 59.53 58.61 59.53 56.67 59.81 56.26 60.36 56.39"/><polygon class="cls-5" points="61.25 56.6 61.25 58.92 60.98 58.88 60.98 58.41 60.72 58.83 60.45 58.78 60.45 56.41 60.72 56.47 60.72 58.36 60.98 57.94 60.98 56.53 61.25 56.6"/><polygon class="cls-5" points="56.15 61.45 56.15 64.04 55.82 64.02 55.82 61.93 55.48 61.9 55.48 64 55.15 63.98 55.15 61.86 55.48 61.37 56.15 61.45"/><path class="cls-5" d="M56.57,61.49l-.32.49v.51l.16.28-.16.24v1l.32,0V63l.32,0v1l.32,0V61.57Zm.32,1.06-.32,0V62l.32,0Z"/><path class="cls-5" d="M54.69,63.42V61.81l-.34-.57-.35,0-.36.5v1.64l-.36,0v.55L55,64v-.53Zm-.34,0-.35,0V61.74l.35,0Z"/><path class="cls-5" d="M58.71,62.23l-.29-.52-.6-.07v2.5l.6,0,.29-.47v-.49L58.57,63l.14-.24Zm-.29,1.46-.3,0v-.49l.3,0Zm0-1-.3,0v-.5l.3,0Z"/><path class="cls-5" d="M59.1,61.78l-.29.46v2h.29v-1l.29,0v1l.28,0V61.85Zm.29,1-.29,0v-.49l.29,0Z"/><polygon class="cls-5" points="61.12 62.01 61.12 64.35 59.76 64.27 59.76 61.86 60.04 61.89 60.04 63.8 60.31 63.82 60.31 62.4 60.58 62.43 60.58 63.84 60.85 63.86 60.85 61.98 61.12 62.01"/><path class="cls-5" d="M61.72,62.08l-.26,0-.26.44v1.4l.26.48.26,0,.26-.45V62.57Zm0,1.85-.26,0V62.52l.26,0Z"/><path class="cls-5" d="M63.36,62.27l-.24,0-.24.42V64l.24.46.24,0,.24-.43V62.74Zm0,1.77h-.24V62.69l.24,0Z"/><polygon class="cls-5" points="62.8 62.21 62.8 62.66 62.31 62.6 62.31 64.42 62.06 64.41 62.06 62.12 62.8 62.21"/><polygon class="cls-5" points="60.98 67.93 60.98 68.4 60.72 68.41 60.72 67.94 60.45 67.94 60.45 69.36 60.72 69.35 60.72 68.88 60.98 68.87 60.98 69.34 60.72 69.82 60.45 69.84 60.18 69.38 60.18 67.95 60.45 67.47 60.72 67.47 60.98 67.93"/><polygon class="cls-5" points="60.08 67.47 60.08 67.95 59.53 67.96 59.53 68.44 59.81 68.43 59.81 68.91 59.53 68.92 59.53 69.41 60.08 69.38 60.08 69.86 59.24 69.91 59.24 67.48 60.08 67.47"/><path class="cls-5" d="M56.41,68.53h-.32V68h.48V67.5h-.81v2.61l.65,0,.32-.53V69Zm0,1h-.32v-.52h.32Z"/><polygon class="cls-5" points="57.15 68 56.84 68.01 56.84 67.5 57.15 67.49 57.15 68"/><polygon class="cls-5" points="57.15 70.04 56.84 70.06 56.84 68.52 57.15 68.51 57.15 70.04"/><polygon class="cls-5" points="58.17 68.48 58.02 68.74 58.17 68.98 58.17 69.48 57.87 69.99 57.26 70.03 57.26 69.52 57.87 69.49 57.87 68.99 57.57 69 57.57 68.5 57.87 68.49 57.87 67.99 57.26 68 57.26 67.49 57.87 67.49 58.17 67.98 58.17 68.48"/><polygon class="cls-5" points="59.15 67.48 59.15 69.92 58.86 69.93 58.86 68.95 58.57 68.96 58.57 69.95 58.27 69.97 58.27 67.48 58.57 67.48 58.57 68.47 58.86 68.46 58.86 67.48 59.15 67.48"/><polygon class="cls-5" points="61.85 67.45 61.85 69.29 61.59 69.77 61.07 69.8 61.07 69.33 61.59 69.31 61.59 68.84 61.33 68.85 61.07 68.4 61.07 67.46 61.33 67.46 61.33 68.39 61.59 68.38 61.59 67.46 61.85 67.45"/><polygon class="cls-5" points="58.96 73.19 58.96 73.68 58.66 73.72 58.66 75.69 58.37 75.75 58.37 73.76 58.07 73.81 58.07 73.31 58.96 73.19"/><path class="cls-5" d="M59.34,73.14l-.29.53v2l.29-.05v-1l.28,0v1l.28,0v-2.4Zm.28.93-.28,0v-.48l.28,0Z"/><polygon class="cls-5" points="60.36 79.02 60.36 79.5 60.08 79.57 60.08 79.09 59.81 79.17 59.81 80.61 60.08 80.53 60.08 80.05 60.36 79.97 60.36 80.45 60.08 81.01 59.81 81.09 59.53 80.69 59.53 79.24 59.81 78.69 60.08 78.62 60.36 79.02"/><path class="cls-5" d="M57.87,79.18l-.3.58v2l.3-.1v-1l.3-.08v1l.3-.09V79Zm.3.92-.3.08v-.5l.3-.08Z"/><polygon class="cls-5" points="59.43 79.75 59.29 80.03 59.43 80.24 59.43 80.72 59.15 81.29 58.57 81.47 58.57 80.98 59.15 80.81 59.15 80.32 58.86 80.4 58.86 79.91 59.15 79.83 59.15 79.34 58.57 79.5 58.57 79 59.15 78.86 59.43 79.27 59.43 79.75"/><polygon class="cls-7" points="65.25 60.37 62.71 60.61 62.68 60.33 61.24 60.1 49.91 58.31 48.44 58.54 48.51 58.96 46.07 58.62 50.46 57.9 65.25 60.37"/><polygon class="cls-3" points="50.46 53.07 50.46 57.9 46.07 58.62 46.07 54.17 50.46 53.07"/><polygon class="cls-7" points="65.25 65.31 63.26 65.36 63.25 65.32 50.86 64.8 50.86 64.8 49.4 64.86 49.41 64.97 46.07 64.84 50.46 64.65 65.25 65.31"/><polygon class="cls-3" points="50.46 59.83 50.46 64.65 46.07 64.84 46.07 60.4 50.46 59.83"/><polygon class="cls-3" points="50.46 66.58 50.46 71.41 46.07 71.07 46.07 66.62 50.46 66.58"/><polygon class="cls-7" points="65.25 71.66 50.46 73.34 46.07 72.85 50.15 72.46 50.1 72.74 51.57 72.88 63.66 71.59 63.66 71.56 65.25 71.66"/><polygon class="cls-3" points="50.46 73.34 50.46 78.17 46.07 77.3 46.07 72.85 50.46 73.34"/><polygon class="cls-7" points="65.25 76.6 63.04 77.12 50.46 80.09 46.07 79.08 49.26 78.44 49.17 79.03 50.64 79.35 63.1 76.57 63.13 76.32 65.25 76.6"/><polygon class="cls-3" points="50.46 80.09 50.46 84.92 46.07 83.53 46.07 79.08 50.46 80.09"/></g></g></svg>