<svg xmlns="http://www.w3.org/2000/svg" viewBox="0 0 111 111"><defs><style>.cls-1{fill:#810f2e;}.cls-1,.cls-4,.cls-5{stroke:#810f2e;}.cls-1,.cls-2,.cls-3,.cls-4,.cls-5,.cls-6{stroke-miterlimit:10;}.cls-2{stroke:#000;opacity:0.05;}.cls-3,.cls-4,.cls-7{fill:#fff;}.cls-3,.cls-6,.cls-7{stroke:#fff;}.cls-5,.cls-6{fill:none;}.cls-7{stroke-linecap:round;stroke-linejoin:round;}</style></defs><title>IconDesign_1</title><g id="Layer_2" data-name="Layer 2"><g id="Layer_1-2" data-name="Layer 1"><circle class="cls-1" cx="55.5" cy="55.51" r="50"/><path class="cls-1" d="M55.5.5a55,55,0,1,0,55,55A55,55,0,0,0,55.5.5Zm0,107.5A52.5,52.5,0,1,1,108,55.5,52.49,52.49,0,0,1,55.5,108Z"/><path class="cls-2" d="M55.5.5a55,55,0,1,0,55,55A55,55,0,0,0,55.5.5Zm0,107.5A52.5,52.5,0,1,1,108,55.5,52.49,52.49,0,0,1,55.5,108Z"/><path class="cls-3" d="M70.39,68.68A18.12,18.12,0,0,0,58.8,83.43H42.19A18.12,18.12,0,0,0,30.6,68.68c9.26-6.17,16.75-25.42,19.89-50.51C53.64,43.26,61.13,62.51,70.39,68.68Z"/><rect class="cls-4" x="38.33" y="83.43" width="24.32" height="9.41"/><line class="cls-5" x1="50.49" y1="55.44" x2="50.49" y2="11.21"/><circle class="cls-1" cx="50.5" cy="58.49" r="3.05"/><path class="cls-6" d="M25.24,27.08A40.3,40.3,0,0,1,90.58,54.13"/><rect class="cls-7" x="17.62" y="25.62" width="8.73" height="8.73" transform="translate(-14.76 24.33) rotate(-45)"/><rect class="cls-7" x="86.45" y="54.13" width="8.73" height="8.73" transform="translate(149.31 -32.32) rotate(90)"/></g></g></svg>