<svg xmlns="http://www.w3.org/2000/svg" viewBox="0 0 111 111"><defs><style>.cls-1,.cls-4{fill:#810f2e;}.cls-1{stroke:#810f2e;}.cls-1,.cls-2{stroke-miterlimit:10;}.cls-2{stroke:#000;opacity:0.05;}.cls-3{fill:#fff;}</style></defs><title>IconDelivery_1</title><g id="Layer_2" data-name="Layer 2"><g id="Layer_1-2" data-name="Layer 1"><circle class="cls-1" cx="55.5" cy="55.51" r="50"/><path class="cls-1" d="M55.5.5a55,55,0,1,0,55,55A55,55,0,0,0,55.5.5Zm0,107.5A52.5,52.5,0,1,1,108,55.5,52.49,52.49,0,0,1,55.5,108Z"/><path class="cls-2" d="M55.5.5a55,55,0,1,0,55,55A55,55,0,0,0,55.5.5Zm0,107.5A52.5,52.5,0,1,1,108,55.5,52.49,52.49,0,0,1,55.5,108Z"/><path class="cls-3" d="M14.12,56.12c0,2.71,4.68,4.26,7.93,4.26-1.22-5.87,1.32-8.54,7.74-7.63,5.94,1,8,4.78,7.56,10.39,4.46,0,12.7-.23,19.64-.23h8.58c2.86,0,6.29.45,8.71.45V60.44c0-8.83,13.85-9.21,13.85.18v3.2h7.16c1.22,0,2.36,0,1.19-.92s-1.09-2,.84-3c.67-.79.24-1.79-1-2.55l-1-.06c-11.29-5.54-28.1-12.13-32.65-12.13-13.41,0-14.78,0-21.46.73-5.24.58-10.38,1.19-15.42,1.8a18.21,18.21,0,0,1-2.91-3.44,9.48,9.48,0,0,0-5.61.36c1.68,1.26,2.61,2.79,2,3.89l-2,.25c-1.48.83-1.65,2.55-1.65,4.48l2.55,2.93Z"/><path class="cls-3" d="M75.05,60.69a6.16,6.16,0,1,0,6.15-6.16A6.16,6.16,0,0,0,75.05,60.69Zm1.33,0a4.83,4.83,0,1,1,4.82,4.82A4.82,4.82,0,0,1,76.38,60.69Z"/><path class="cls-4" d="M76.38,60.69a4.83,4.83,0,1,0,4.82-4.83A4.82,4.82,0,0,0,76.38,60.69Z"/><path class="cls-3" d="M23,60.16a6.68,6.68,0,1,0,6.68-6.69A6.68,6.68,0,0,0,23,60.16Zm1.85,0A4.83,4.83,0,1,1,29.7,65,4.83,4.83,0,0,1,24.87,60.16Z"/><path class="cls-4" d="M24.87,60.16a4.83,4.83,0,1,0,4.83-4.83A4.82,4.82,0,0,0,24.87,60.16Z"/><path class="cls-4" d="M87.13,56.78l4.06.14a32.17,32.17,0,0,1,4,.31s0,0,0,0h0a32.12,32.12,0,0,1-4-.14l-4.05-.32h0Z"/><path class="cls-4" d="M21.89,56.34l-1.91,0a7.17,7.17,0,0,1-1.9-.19v0h0a7.18,7.18,0,0,1,1.91,0l1.9.2h0A0,0,0,0,1,21.89,56.34Z"/><path class="cls-4" d="M53,59.26c3.42,0,6.86.08,10.28.36s6.83.74,10.21,1.34l-.14.12a10.71,10.71,0,0,1,1.35-5.48,9.75,9.75,0,0,1,4.2-3.74V52c-2-1.08-4.07-2.07-6.16-3s-4.21-1.78-6.38-2.48a27.13,27.13,0,0,0-3.3-.86,16.88,16.88,0,0,0-3.41-.15l-6.85,0,.1-.07a47.2,47.2,0,0,0-1.27,4.7.08.08,0,0,1-.08.07h0a2.67,2.67,0,0,0-.64,0,.63.63,0,0,0-.43.37,2.9,2.9,0,0,0-.22,1.25,9.48,9.48,0,0,0,.42,2.59A15,15,0,0,0,53,59.26Zm0,0a14.32,14.32,0,0,1-2.45-4.71,9.73,9.73,0,0,1-.45-2.63,3,3,0,0,1,.23-1.33.78.78,0,0,1,.54-.46,3.22,3.22,0,0,1,.68,0l-.09.07a42.7,42.7,0,0,1,1.24-4.73.12.12,0,0,1,.11-.08l6.85,0a17.9,17.9,0,0,1,3.43.19,29.44,29.44,0,0,1,3.31.9A88.49,88.49,0,0,1,79,51.86.11.11,0,0,1,79,52a.1.1,0,0,1,0,0,9.71,9.71,0,0,0-4.09,3.68,10.52,10.52,0,0,0-1.31,5.36.12.12,0,0,1-.12.12h0c-3.38-.58-6.77-1.06-10.19-1.39S56.39,59.33,53,59.28Z"/><path class="cls-4" d="M52.8,50.2c9,.72,16.65,1.8,21.35,3.7L77.39,52c-5.52-2.76-12.32-6.1-16.12-6.1H53.48A33.25,33.25,0,0,0,52.8,50.2Z"/><path class="cls-4" d="M42.84,49.56q3.85.19,7.52.46a17.5,17.5,0,0,1,1.4-4.17C48.06,45.76,45,46.85,42.84,49.56Z"/><path class="cls-4" d="M45.15,62.15h2.2c-1.9,0-3.35-4.23-2.39-4.34-.58,0-1.15,0-1.73,0C41.05,57.78,42.16,62.15,45.15,62.15Z"/><circle class="cls-3" cx="81.21" cy="60.68" r="0.87"/><circle class="cls-3" cx="81.99" cy="58.23" r="0.62"/><path class="cls-3" d="M77.75,59.89l-.06.63,0,0h-.27l0,0,0,.66-.06,0,.27,0a.06.06,0,0,1,.06,0h0l.14.59a.07.07,0,0,1,0,.08l-.26.08,0-.08.25.6-.1,0,.23-.12a.08.08,0,0,1,.11,0h0l.33.51h0a.08.08,0,0,1,0,.12l-.21.16,0-.12.44.48h-.14l.18-.2a.11.11,0,0,1,.13,0h0l.48.36h0a.11.11,0,0,1,0,.14l-.14.22,0-.15.57.3-.14.06.1-.24a.12.12,0,0,1,.14-.06,4.23,4.23,0,0,0,.57.19.1.1,0,0,1,.08.12l-.06.26-.07-.12.64.1-.09.06h0v0l0-.26a.08.08,0,0,1,.08-.08h0l.6,0h0a.08.08,0,0,1,.08.07l0,.26-.08-.06.64-.14,0,.09-.07-.26a.07.07,0,0,1,0-.08l.57-.22h0a.05.05,0,0,1,.07,0l.12.23-.07,0,.56-.34v.06l-.16-.21s0,0,0-.06l.45-.41a0,0,0,0,1,.06,0l.2.17H84l.39-.53,0,.07-.23-.14a0,0,0,0,1,0-.07h0l.28-.54a.05.05,0,0,1,.07,0l.25.1-.08,0a5,5,0,0,0,.19-.63l0,.08-.26-.06s-.05,0-.05-.07h0l.07-.6h0a.08.08,0,0,1,.07-.07H85l-.08.07,0-.64.1.07-.26,0a.1.1,0,0,1-.1-.07h0l-.13-.59h0a.1.1,0,0,1,.07-.12l.25-.08-.07.13L84.5,59l.15,0-.24.12a.1.1,0,0,1-.14,0h0l-.32-.5h0a.11.11,0,0,1,0-.15l.21-.16,0,.16L83.72,58h.16l-.18.2a.11.11,0,0,1-.15,0h0l-.48-.36h0a.11.11,0,0,1,0-.16l.14-.22,0,.16-.57-.29.16-.07-.1.25a.12.12,0,0,1-.16.06,3.45,3.45,0,0,0-.57-.18.13.13,0,0,1-.09-.15l.06-.25.09.14L81.38,57l.13-.12v.26a.12.12,0,0,1-.12.12h0l-.6,0h0a.14.14,0,0,1-.13-.11l0-.26.14.1-.63.13.07-.14.08.25a.13.13,0,0,1-.07.14h0l-.55.22h0a.09.09,0,0,1-.12,0l-.12-.23.06,0h.07l-.55.34,0-.12.15.21a.08.08,0,0,1,0,.11h0l-.46.4h0a.07.07,0,0,1-.1,0l-.19-.18h.1l-.41.51,0-.08.22.14a.08.08,0,0,1,0,.09l-.3.53h0a0,0,0,0,1-.06,0l-.24-.11,0,0a4.7,4.7,0,0,0-.22.63v0Zm0,0-.25,0,0,0h0a5.31,5.31,0,0,1,.19-.65l0,0h0l.25.1-.06,0,.28-.56,0,.08L78,58.67a.05.05,0,0,1,0-.08h0l.41-.54a.07.07,0,0,1,.09,0h0l.2.18h-.11l.47-.43,0,.12-.16-.21h0a.09.09,0,0,1,0-.12h0l.57-.37a.09.09,0,0,1,.07,0h0l.06,0,.12.23-.14,0,.59-.25-.07.14L80,57.08h0a.11.11,0,0,1,.07-.13h0l.67-.15a.1.1,0,0,1,.13.08h0l0,.27L80.74,57l.64,0-.13.12v-.26h0a.1.1,0,0,1,.11-.11h0l.68.1a.1.1,0,0,1,.1.12h0l-.06.26L82,57.1a4.82,4.82,0,0,1,.61.2l-.16.06.1-.24h0a.13.13,0,0,1,.15-.06h0l.6.32a.1.1,0,0,1,0,.14h0l-.15.22,0-.16.51.39h-.17l.18-.2h0a.1.1,0,0,1,.15,0h0l.46.51a.11.11,0,0,1,0,.15h0l-.21.16,0-.16.34.54-.15,0,.23-.12h0a.11.11,0,0,1,.14.05h0l.25.63a.1.1,0,0,1-.06.13h0l-.26.08.07-.13.13.62-.11-.08.27,0h0a.09.09,0,0,1,.09.08h0l0,.68A.08.08,0,0,1,85,61h0l-.26,0,.08-.07-.1.62,0-.08.26.06a.06.06,0,0,1,0,.08h0a4.79,4.79,0,0,1-.21.64.07.07,0,0,1-.08,0h0l-.24-.11.07,0-.3.55v-.07l.22.15h0a0,0,0,0,1,0,.06h0L84,63.3s0,0-.06,0h0l-.2-.19h.06l-.46.43v-.06l.16.2a0,0,0,0,1,0,.06h0l-.56.36a0,0,0,0,1-.07,0h0l-.12-.23.08,0-.58.24,0-.08.08.26a.06.06,0,0,1,0,.08h0l-.66.15a.07.07,0,0,1-.09-.05h0l0-.26.08.06-.63,0,.09-.08v.28h0a.07.07,0,0,1-.08,0l-.68-.08a.09.09,0,0,1-.07-.1h0l.06-.25.07.11a3.28,3.28,0,0,1-.61-.18l.14-.06-.1.24h0a.1.1,0,0,1-.13.06h0L79.08,64a.09.09,0,0,1,0-.13h0l.14-.22,0,.15-.5-.39h.14l-.18.19h0a.08.08,0,0,1-.12,0h0l-.45-.51a.09.09,0,0,1,0-.12h0l.22-.16,0,.13L78,62.35l.11,0-.24.12h0a.07.07,0,0,1-.09,0h0l-.24-.63a.07.07,0,0,1,0-.09h0l.25-.08,0,.09-.13-.62.07,0-.26,0h0a.07.07,0,0,1-.06,0h0V60.5a0,0,0,0,1,0,0h.27l0,0Z"/><circle class="cls-3" cx="83.78" cy="60.67" r="0.62"/><circle class="cls-3" cx="82.01" cy="63.13" r="0.62"/><circle class="cls-3" cx="79.13" cy="62.21" r="0.62"/><circle class="cls-3" cx="79.12" cy="59.18" r="0.62"/><circle class="cls-3" cx="29.7" cy="60.16" r="0.87"/><circle class="cls-3" cx="28.87" cy="57.72" r="0.62"/><path class="cls-3" d="M26.45,61.58l.32.53s0,0,0,0l-.21.16v-.05l.42.5H26.9l.19-.18a.06.06,0,0,1,.08,0h0l.46.39a.08.08,0,0,1,0,.1l-.15.21v-.09l.55.33-.1,0,.12-.24a.08.08,0,0,1,.09,0h0l.57.21h0a.09.09,0,0,1,.06.11l-.07.25-.06-.11.63.12-.1.09,0-.27a.11.11,0,0,1,.1-.09h.62a.12.12,0,0,1,.11.1l0,.26-.12-.1.64-.09-.08.13-.06-.26a.1.1,0,0,1,.08-.12c.19,0,.38-.12.57-.19a.09.09,0,0,1,.13,0l.1.24-.12,0,.57-.3,0,.1h0v0l-.14-.21a.08.08,0,0,1,0-.12h0l.48-.38h0a.07.07,0,0,1,.1,0l.18.19h-.11l.44-.49,0,.09-.22-.16a.06.06,0,0,1,0-.09l.32-.51h0a.06.06,0,0,1,.07,0l.23.12-.07,0,.25-.61,0,.06-.26-.08a.05.05,0,0,1,0,0l.13-.6a0,0,0,0,1,0,0l.26,0,0,0v-.65l0,0-.27,0s-.05,0-.05,0h0l-.1-.61s0-.06,0-.06l.26-.07,0,.07a4.52,4.52,0,0,0-.21-.62l.08,0-.24.11a.06.06,0,0,1-.08,0h0l-.3-.53h0a.07.07,0,0,1,0-.1l.21-.15,0,.11-.41-.5h.12l-.19.19a.09.09,0,0,1-.12,0h0l-.46-.39h0a.11.11,0,0,1,0-.14l.16-.21,0,.14-.56-.32.15-.06-.11.24a.12.12,0,0,1-.14.06h0l-.56-.21h0a.1.1,0,0,1-.07-.13l.07-.26.08.14-.63-.12.13-.11,0,.27a.12.12,0,0,1-.12.1h-.62a.13.13,0,0,1-.12-.11v-.26l.12.11-.63.1.09-.15.06.26a.12.12,0,0,1-.09.14,4.3,4.3,0,0,0-.57.2.14.14,0,0,1-.16-.07l-.1-.24.16.07-.57.31,0-.18.15.22a.14.14,0,0,1,0,.17h0l-.46.37h0a.14.14,0,0,1-.17,0l-.18-.2h.17l-.43.48,0-.16.21.16a.14.14,0,0,1,0,.15h0l-.32.51h0a.11.11,0,0,1-.13,0l-.24-.12h.08l.05-.05-.24.6-.06-.1.25.07a.1.1,0,0,1,.06.1h0l-.13.59h0a.07.07,0,0,1-.08.05l-.26,0,.08-.06,0,.65-.06-.06h.26a.06.06,0,0,1,.06.06l.08.6h0s0,0,0,0L26,61.1l0-.05a4.71,4.71,0,0,0,.19.64h0Zm0,0-.23.11s0,0,0,0h0a4.32,4.32,0,0,1-.24-.63s0,0,0,0h0l.26-.07,0,0-.12-.62.07.06-.27,0a.06.06,0,0,1-.06,0h0v-.68a.07.07,0,0,1,.07-.06h0l.27,0-.09.07.12-.62.05.1L26,59.17h0a.08.08,0,0,1-.06-.1h0l.24-.64a.1.1,0,0,1,0,0h0a.09.09,0,0,1,.07,0l.24.12-.14,0,.33-.55,0,.16L26.55,58h0a.11.11,0,0,1,0-.15h0l.44-.52a.11.11,0,0,1,.16,0h0l.18.19h-.18l.51-.4,0,.17-.15-.22h0a.1.1,0,0,1,0-.15h0l.6-.33a.11.11,0,0,1,.15.05h0l.11.23-.16-.06a4,4,0,0,1,.61-.2l-.09.14-.07-.25h0a.11.11,0,0,1,.08-.13h0l.68-.1a.1.1,0,0,1,.12.09h0l0,.26-.13-.11.65,0-.13.1,0-.26h0a.09.09,0,0,1,.11-.09h0l.68.13a.11.11,0,0,1,.08.13h0l-.07.25-.08-.14.6.23-.15.05.11-.23h0a.09.09,0,0,1,.13,0h0L32,57a.1.1,0,0,1,0,.14h0l-.16.21,0-.14.48.43H32.2l.19-.18h0a.08.08,0,0,1,.11,0h0l.42.54a.07.07,0,0,1,0,.1h0l-.22.15,0-.11.3.56-.09,0,.24-.1a.07.07,0,0,1,.09,0h0a4.79,4.79,0,0,1,.21.64.06.06,0,0,1,0,.08h0l-.26.06,0-.07.09.62,0-.05h.27a0,0,0,0,1,0,0h0l0,.67a0,0,0,0,1,0,0h0l-.27,0,0,0-.12.61,0,0,.25.07a0,0,0,0,1,0,0h0l-.24.62s0,0-.06,0h0l-.23-.11.07,0-.32.54V62.2l.21.15a.07.07,0,0,1,0,.09h0l-.44.51a.07.07,0,0,1-.1,0h0l-.18-.19h.11l-.49.4,0-.12.15.22v0h0a.09.09,0,0,1,0,.1l-.6.33a.07.07,0,0,1-.11,0h0L31,63.44l.13.05a4.84,4.84,0,0,1-.6.22l.07-.13.07.25h0a.1.1,0,0,1-.07.12h0l-.68.11a.1.1,0,0,1-.11-.08h0l0-.26.12.1-.64,0,.11-.08,0,.26h0a.1.1,0,0,1-.1.08h0l-.67-.15a.08.08,0,0,1-.06-.1h0l.08-.25.06.11-.59-.24.11,0-.12.23h0a.08.08,0,0,1-.1,0h0l-.58-.36a.07.07,0,0,1,0-.09h0l.15-.21,0,.09-.47-.42h.08l-.19.18h0a0,0,0,0,1-.07,0h0l-.41-.53a0,0,0,0,1,0,0h0l.23-.15v0Z"/><circle class="cls-3" cx="31.76" cy="58.61" r="0.62"/><circle class="cls-3" cx="31.8" cy="61.64" r="0.62"/><circle class="cls-3" cx="28.93" cy="62.62" r="0.62"/><circle class="cls-3" cx="27.12" cy="60.19" r="0.62"/></g></g></svg>