<svg xmlns="http://www.w3.org/2000/svg" viewBox="0 0 111 111"><defs><style>.cls-1{fill:#810f2e;stroke:#810f2e;}.cls-1,.cls-2{stroke-miterlimit:10;}.cls-2{stroke:#000;opacity:0.05;}.cls-3{fill:#fff;}</style></defs><title>IconProduction_1</title><g id="Layer_2" data-name="Layer 2"><g id="Layer_1-2" data-name="Layer 1"><circle class="cls-1" cx="55.5" cy="55.51" r="50"/><path class="cls-1" d="M55.5.5a55,55,0,1,0,55,55A55,55,0,0,0,55.5.5Zm0,107.5A52.5,52.5,0,1,1,108,55.5,52.49,52.49,0,0,1,55.5,108Z"/><path class="cls-2" d="M55.5.5a55,55,0,1,0,55,55A55,55,0,0,0,55.5.5Zm0,107.5A52.5,52.5,0,1,1,108,55.5,52.49,52.49,0,0,1,55.5,108Z"/><polygon class="cls-3" points="40.91 41.46 32.53 49.85 21.07 46.78 18 35.33 26.38 26.94 37.84 30.01 40.91 41.46"/><path class="cls-3" d="M70.37,55,92.16,76.76c2.07,2.07,0,6.22-3.11,9.33s-7.26,5.18-9.33,3.11L65.11,74.59c-11.75-11.76-13.23-7-21.81-9.25S26.37,56.1,22,48.54l10.46,2.81a11.73,11.73,0,1,0,6.07-22.66l-10.48-2.8h0c7.54-4.36,18.28-6.19,26.84-3.91C64.92,24.66,62,46.62,70.37,55Z"/></g></g></svg>