<svg xmlns="http://www.w3.org/2000/svg" viewBox="0 0 125.19 125.19"><defs><style>.cls-1{fill:none;stroke:#0f4c81;stroke-miterlimit:10;stroke-width:0.75px;}.cls-2{fill:#0f4c81;}</style></defs><title>LogoBlue</title><g id="Layer_2" data-name="Layer 2"><g id="Layer_1-2" data-name="Layer 1"><rect class="cls-1" x="0.38" y="0.38" width="124.44" height="124.44"/><polyline class="cls-1" points="17.22 60.45 17.22 28.57 82.39 28.57 96.84 28.57 103.42 28.57 103.42 30.95"/><polyline class="cls-1" points="103.42 44.66 103.42 78.19 49.07 78.19 23.11 78.19 17.22 78.19 17.22 76.19"/><polyline class="cls-1" points="21 58.95 18.42 35.62 82.39 28.57 96.67 27 96.84 28.57 97.16 31.44"/><polyline class="cls-1" points="99.23 50.19 101.67 72.41 49.07 78.19 23.42 81.02 23.11 78.19 22.8 75.37"/><path class="cls-2" d="M100,38c-2.2,0-3.54,1.75-7.07,1.75l-13.14.82a8,8,0,0,0-4.14,1.18c-.14-1.43-2.86-2.12-8.44-2-3-2.11-6.39-2.12-10.43,1.23a4.76,4.76,0,0,1-1.92,5.19c-1.45.52-1.35,1,1.37,1,1.63-1.07,2.25-.9,1.89.54a26.45,26.45,0,0,1-10.44,1.79,53.34,53.34,0,0,0-1.55-10.7c-1.05-3.11-1.59-3.22-4-1L31.57,54.6l-3.44.55c-3,1-4.44,5.34-.58,4.13.5-.25,1-.49,1.51-.72L24.45,65.8c-.39.56-.88.73-1.18.21-.52-1.23-1.57-1.16-1.57.26l.37,5.11c0,.44,1,.33,1.62-.32L31.77,57.3c4.86-2.18,9.34-3.72,12.94-3.82.59-.12.91,0,.79,1-.84,5.87-.57,10.44,1,13.46.67.59,5.13-2.29,4.4-3.63a25.82,25.82,0,0,1-1.83-10.78,20.78,20.78,0,0,0,9.38-2.58c-1.27,3.27-2.5,6.59-2.5,10.26,0,3.43-1.22,8.52-4.3,8.52-.92,0-1.66,1.25-1.66,2.8s.74,2.8,1.66,2.8c5.33,0,7.45-21.38,8-21.38,1.14,0,1.66,1.52,1.79,2.86,0,2.45,8.73,8.84,13.69,8.84,2,0,2.83-1.13,1.09-2.27C69.49,61.23,65.59,57,65.12,50.19A55.88,55.88,0,0,0,73.35,45c.59.92,1,1.93,2.06,1.93,1.81,0,3.32-4,4.64-4h4.49c.65,0-.53,4-.53,6.28,0,1.44-2.21,3.84-2.21,6.45-.16,4-3.48,7.62-3.48,10.9,0,.53,3,.56,3.72-.18,1.69-1.69,3.34-9.1,3.34-13.77,0-2.47,4-8.15,4-10.26,0-.5,3.41-.77,3.41,0,0,1.12,3.39.5,4.37-.48C98.48,40.6,101.67,38,100,38ZM44.11,51.81a97,97,0,0,1-10.55,2.45l6.21-10.59q1.95-2,2.33.06a8.84,8.84,0,0,0,2.25,4.52A5.73,5.73,0,0,1,44.11,51.81Zm16-.91,2.49-7.32c3.64-.5,9-1.91,9,.22S64.4,48.64,60.11,50.9Z"/><path class="cls-2" d="M53.28,90.83a3.5,3.5,0,0,0,.41-.87,5.08,5.08,0,0,0,.19-1.39,5,5,0,0,0-.19-1.39c-.28-.92-.83-1.57-1.47-1.66H46.66V96.78h1.67V91.62h2.92c.53,0,1,.79,1,1.75v3.41h1.66V93.37a5.91,5.91,0,0,0-.25-1.75A4.09,4.09,0,0,0,53.28,90.83Zm-2-.87H48.33V87.18h2.92c.53,0,1,.62,1,1.39S51.78,90,51.25,90Z"/><polygon class="cls-2" points="59.99 87.18 59.99 89.95 63.34 89.95 63.34 91.62 59.99 91.62 59.99 95.11 64.44 95.11 64.44 96.78 58.33 96.78 58.33 85.51 64.44 85.51 64.44 87.18 59.99 87.18"/><polygon class="cls-2" points="76.11 85.51 76.11 96.78 74.44 96.78 70.55 89.07 70.55 96.78 68.88 96.78 68.88 85.51 70.55 85.51 71.39 87.18 72.79 89.95 73.63 91.62 74.44 93.22 74.44 85.51 76.11 85.51"/><path class="cls-2" d="M41.62,90.83A3.49,3.49,0,0,0,42,90a4.71,4.71,0,0,0,.2-1.39,4.67,4.67,0,0,0-.2-1.39c-.3-1-.91-1.67-1.61-1.67H35V96.78h5.41c.66,0,1.24-.67,1.55-1.67a5.79,5.79,0,0,0,.26-1.74A5.9,5.9,0,0,0,42,91.62,4.08,4.08,0,0,0,41.62,90.83Zm-2,4.28H36.66V91.62H39.6c.55,0,1,.78,1,1.75S40.15,95.11,39.6,95.11Zm0-5.15H36.66V87.18H39.6c.55,0,1,.62,1,1.39S40.15,90,39.6,90Z"/><path class="cls-2" d="M87.76,87.18A1.76,1.76,0,0,0,87.24,86,1.78,1.78,0,0,0,86,85.51H80.55V96.78H86a1.8,1.8,0,0,0,1.79-1.67.61.61,0,0,0,0-.14V87.32A.61.61,0,0,0,87.76,87.18Zm-1.65,7a.9.9,0,0,1-.9.9h-3V87.18h3a.9.9,0,0,1,.9.9Z"/></g></g></svg>