<svg xmlns="http://www.w3.org/2000/svg" viewBox="0 0 121 423.16"><defs><style>.cls-1{fill:#810f2e;}.cls-1,.cls-3{stroke:#810f2e;}.cls-1,.cls-3,.cls-5,.cls-7,.cls-8,.cls-9{stroke-miterlimit:10;}.cls-2{opacity:0.2;}.cls-3,.cls-8,.cls-9{fill:none;}.cls-4{fill:#666;}.cls-4,.cls-5,.cls-6,.cls-7,.cls-8{stroke:#000;}.cls-4,.cls-6{stroke-linecap:round;stroke-linejoin:round;}.cls-4,.cls-5{stroke-width:0.5px;}.cls-10,.cls-5{fill:#fff;}.cls-6,.cls-7{fill:#333;}.cls-9{stroke:#b92200;}.cls-10{opacity:0.3;}</style></defs><title>PicFirst</title><g id="Layer_2" data-name="Layer 2"><g id="Layer_1-2" data-name="Layer 1"><polygon class="cls-1" points="120.5 21.72 120.5 395.72 100.5 390.36 100.5 16.36 120.5 21.72"/><polygon class="cls-2" points="120.5 21.72 120.5 395.72 100.5 390.36 100.5 16.36 120.5 21.72"/><polygon class="cls-3" points="120.5 21.72 120.5 395.72 100.5 390.36 100.5 16.36 120.5 21.72"/><polygon class="cls-4" points="120.5 395.72 20.5 422.51 0.5 417.15 100.5 390.36 120.5 395.72"/><path class="cls-5" d="M100.5,16.36v374L.5,417.15v-374c0-14.36,22.39-32,50-39.4S100.5,2,100.5,16.36Z"/><polygon class="cls-6" points="104.72 31.44 104.72 396.74 94.72 399.42 94.72 44.12 34.72 60.2 34.72 415.5 24.72 418.18 24.72 52.88 104.72 31.44"/><polygon class="cls-6" points="104.72 31.44 24.72 52.88 14.69 50.2 94.69 28.77 104.72 31.44"/><polygon class="cls-6" points="24.72 52.88 24.72 418.18 14.69 415.51 14.69 50.2 24.72 52.88"/><polygon class="cls-7" points="94.72 44.12 94.72 399.42 84.69 396.75 84.69 46.81 94.72 44.12"/><line class="cls-8" x1="115.5" y1="25.07" x2="115.49" y2="25.06"/><line class="cls-9" x1="95.64" y1="394.44" x2="95.65" y2="394.44"/><line class="cls-9" x1="26.59" y1="413.45" x2="26.58" y2="413.45"/><polygon class="cls-1" points="20.5 48.51 20.5 422.51 0.5 417.15 0.5 43.15 20.5 48.51"/><path class="cls-1" d="M105,7C96,5,83.86,5.53,70.5,9.11c-27.61,7.4-50,25-50,39.4L.5,43.15c0-14.36,22.39-32,50-39.4C64.22.07,76.66-.38,85.69,1.85l1.38.37h0Z"/><path class="cls-1" d="M120.5,21.72l-20-5.36A12.61,12.61,0,0,0,94.87,5.88C110.16,6.23,120.5,12,120.5,21.72Z"/><polygon class="cls-10" points="20.5 48.51 20.5 422.51 0.5 417.15 0.5 43.15 20.5 48.51"/><path class="cls-10" d="M105,7C96,5,83.86,5.53,70.5,9.11c-27.61,7.4-50,25-50,39.4L.5,43.15c0-14.36,22.39-32,50-39.4C64.22.07,76.66-.38,85.69,1.85l1.38.37h0Z"/><polygon class="cls-3" points="20.5 48.51 20.5 422.51 0.5 417.15 0.5 43.15 20.5 48.51"/><path class="cls-3" d="M105,7C96,5,83.86,5.53,70.5,9.11c-27.61,7.4-50,25-50,39.4L.5,43.15c0-14.36,22.39-32,50-39.4C64.22.07,76.66-.38,85.69,1.85l1.38.37h0Z"/><path class="cls-2" d="M120.5,21.72l-20-5.36A12.61,12.61,0,0,0,94.87,5.88C110.16,6.23,120.5,12,120.5,21.72Z"/><path class="cls-3" d="M120.5,21.72l-20-5.36A12.61,12.61,0,0,0,94.87,5.88C110.16,6.23,120.5,12,120.5,21.72Z"/></g></g></svg>