<svg xmlns="http://www.w3.org/2000/svg" xmlns:xlink="http://www.w3.org/1999/xlink" viewBox="0 0 120 422.01"><defs><style>.cls-1,.cls-14,.cls-15,.cls-19,.cls-4{fill:none;}.cls-2,.cls-8{fill:#ff0;}.cls-3{fill:#89c33f;}.cls-19,.cls-4,.cls-9{stroke:#000;}.cls-14,.cls-19,.cls-4,.cls-7,.cls-8,.cls-9{stroke-miterlimit:10;}.cls-5{fill:#007308;}.cls-6{fill:#efc651;}.cls-7{fill:#836e4e;stroke:#836e4e;}.cls-8{stroke:#ff0;}.cls-19,.cls-9{stroke-width:0.25px;}.cls-10,.cls-11{font-size:14.7px;fill:#fff;font-family:MyriadPro-Regular, Myriad Pro;}.cls-11{letter-spacing:-0.08em;}.cls-12{letter-spacing:0.01em;}.cls-13{letter-spacing:0em;}.cls-14{stroke:#2434b6;}.cls-15{stroke:#fff;stroke-linecap:round;stroke-linejoin:round;}.cls-16{fill:#333;}.cls-17{fill:url(#LED_Yellow);}.cls-18{fill:#666;}</style><pattern id="LED_Yellow" data-name="LED Yellow" width="3" height="3" patternUnits="userSpaceOnUse" viewBox="0 0 3 3"><rect class="cls-1" width="3" height="3"/><circle class="cls-2" cx="0.32" cy="0.32" r="0.32"/><circle class="cls-2" cx="1.11" cy="1.11" r="0.32"/><circle class="cls-2" cx="1.89" cy="0.32" r="0.32"/><circle class="cls-2" cx="2.68" cy="1.11" r="0.32"/><circle class="cls-2" cx="0.32" cy="1.89" r="0.32"/><circle class="cls-2" cx="1.11" cy="2.68" r="0.32"/><circle class="cls-2" cx="1.89" cy="1.89" r="0.32"/><circle class="cls-2" cx="2.68" cy="2.68" r="0.32"/><circle class="cls-3" cx="0.32" cy="0.32" r="0.07"/><circle class="cls-3" cx="1.89" cy="0.32" r="0.07"/><circle class="cls-3" cx="2.68" cy="1.11" r="0.07"/><circle class="cls-3" cx="1.11" cy="1.11" r="0.07"/><circle class="cls-3" cx="0.32" cy="1.89" r="0.07"/><circle class="cls-3" cx="1.89" cy="1.89" r="0.07"/><circle class="cls-3" cx="1.11" cy="2.68" r="0.07"/><circle class="cls-3" cx="2.68" cy="2.68" r="0.07"/></pattern></defs><title>PicSecond</title><g id="Layer_2" data-name="Layer 2"><g id="Layer_1-2" data-name="Layer 1"><line class="cls-4" x1="22.51" y1="47.87" x2="22.5" y2="47.88"/><polygon class="cls-5" points="107.5 307.29 107.5 360.29 27.5 381.73 27.5 328.73 107.5 307.29"/><polygon class="cls-5" points="107.5 250.29 107.5 302.29 27.5 323.73 27.5 271.73 107.5 250.29"/><polygon class="cls-5" points="107.5 31.79 107.5 104.42 27.5 125.86 27.5 53.23 107.5 31.79"/><path class="cls-6" d="M39.44,62.68a16,16,0,0,0-5.38,2.45,8.24,8.24,0,0,0-3.37,4.7,3.88,3.88,0,0,0,.42,2.83,4.21,4.21,0,0,0,2.34,1.7,11.28,11.28,0,0,0,5.93-.17,11.32,11.32,0,0,1-6,.29A4.38,4.38,0,0,1,31,72.76a4.09,4.09,0,0,1-.5-3,8.51,8.51,0,0,1,3.39-5,16.48,16.48,0,0,1,5.47-2.63.24.24,0,0,1,.31.17.25.25,0,0,1-.17.31Z"/><path class="cls-6" d="M39.44,86.6a11,11,0,0,1-6.14.1,4.16,4.16,0,0,1-2.86-5,8.65,8.65,0,0,1,3.43-5,16,16,0,0,1,5.51-2.56A15.81,15.81,0,0,0,34,76.85a8.4,8.4,0,0,0-3.26,4.92,3.83,3.83,0,0,0,2.73,4.57,10.65,10.65,0,0,0,5.89-.22h0a.25.25,0,1,1,.13.48Z"/><path class="cls-6" d="M39.44,98.56a11.28,11.28,0,0,1-6.1.14,4.46,4.46,0,0,1-2.46-1.87,4.33,4.33,0,0,1-.44-3,8.6,8.6,0,0,1,3.45-4.91,16.24,16.24,0,0,1,5.49-2.53A16.1,16.1,0,0,0,34,89a8.35,8.35,0,0,0-3.28,4.86,4,4,0,0,0,.46,2.82,4.09,4.09,0,0,0,2.31,1.67,10.8,10.8,0,0,0,5.85-.26h0a.25.25,0,1,1,.13.48Z"/><path class="cls-6" d="M39.44,110.53a11.28,11.28,0,0,1-6.1.13,4.46,4.46,0,0,1-2.46-1.87,4.33,4.33,0,0,1-.44-3,8.6,8.6,0,0,1,3.45-4.91,16.24,16.24,0,0,1,5.49-2.53A16.1,16.1,0,0,0,34,101a8.35,8.35,0,0,0-3.28,4.86,4,4,0,0,0,.46,2.82,4.09,4.09,0,0,0,2.31,1.67,10.8,10.8,0,0,0,5.85-.26h0a.25.25,0,0,1,.13.49Z"/><path class="cls-6" d="M49,59.93a7,7,0,0,1-1.19,3.85,6.69,6.69,0,0,1-3.11,2.5A4.11,4.11,0,0,1,40.82,66a4.22,4.22,0,0,1-1.44-3.56,4.15,4.15,0,0,0,1.51,3.46,4,4,0,0,0,3.72.15,6.38,6.38,0,0,0,2.89-2.47,6.66,6.66,0,0,0,1-3.65.26.26,0,0,1,.25-.26.25.25,0,0,1,.25.25Z"/><path class="cls-6" d="M58.38,57.42a7.1,7.1,0,0,1-1.19,3.85,6.66,6.66,0,0,1-3.12,2.5,4.12,4.12,0,0,1-3.87-.28,4.2,4.2,0,0,1-1.45-3.56,4.17,4.17,0,0,0,1.52,3.46,4,4,0,0,0,3.71.15,6.37,6.37,0,0,0,2.9-2.48,6.6,6.6,0,0,0,1-3.64.25.25,0,0,1,.5,0Z"/><path class="cls-6" d="M67.75,54.9a7.08,7.08,0,0,1-1.19,3.86,6.75,6.75,0,0,1-3.11,2.5A4.17,4.17,0,0,1,59.57,61a4.22,4.22,0,0,1-1.44-3.56,4.17,4.17,0,0,0,1.51,3.46,4,4,0,0,0,3.72.14,6.38,6.38,0,0,0,2.89-2.47,6.61,6.61,0,0,0,1-3.65.25.25,0,0,1,.25-.25.23.23,0,0,1,.25.24Z"/><path class="cls-6" d="M77.13,52.39a7.1,7.1,0,0,1-1.19,3.85,6.6,6.6,0,0,1-3.12,2.5A4.12,4.12,0,0,1,69,58.47,4.22,4.22,0,0,1,67.5,54.9,4.19,4.19,0,0,0,69,58.37a3.93,3.93,0,0,0,3.71.14A6.41,6.41,0,0,0,75.63,56a6.63,6.63,0,0,0,1-3.65.24.24,0,0,1,.24-.25.24.24,0,0,1,.26.24Z"/><path class="cls-6" d="M86.5,49.88a7,7,0,0,1-1.19,3.85,6.63,6.63,0,0,1-3.11,2.5A4.14,4.14,0,0,1,78.32,56a4.25,4.25,0,0,1-1.44-3.57,4.15,4.15,0,0,0,1.51,3.46,4,4,0,0,0,3.72.15A6.38,6.38,0,0,0,85,53.53a6.66,6.66,0,0,0,1-3.65.26.26,0,0,1,.25-.26.25.25,0,0,1,.25.25Z"/><path class="cls-6" d="M95.88,47.37a7.1,7.1,0,0,1-1.19,3.85,6.66,6.66,0,0,1-3.12,2.5,4.09,4.09,0,0,1-3.87-.28,4.2,4.2,0,0,1-1.45-3.56,4.16,4.16,0,0,0,1.52,3.46,3.93,3.93,0,0,0,3.71.15A6.37,6.37,0,0,0,94.38,51a6.6,6.6,0,0,0,1-3.64.25.25,0,0,1,.24-.26.25.25,0,0,1,.26.24Z"/><path class="cls-6" d="M49,71.68a7,7,0,0,1-1.19,3.85A6.69,6.69,0,0,1,44.7,78a4.11,4.11,0,0,1-3.88-.28,4.22,4.22,0,0,1-1.44-3.56,4.15,4.15,0,0,0,1.51,3.46,4,4,0,0,0,3.72.15,6.38,6.38,0,0,0,2.89-2.47,6.66,6.66,0,0,0,1-3.65.26.26,0,0,1,.25-.26.25.25,0,0,1,.25.25Z"/><path class="cls-6" d="M58.38,69.17A7.1,7.1,0,0,1,57.19,73a6.66,6.66,0,0,1-3.12,2.5,4.09,4.09,0,0,1-3.87-.28,4.2,4.2,0,0,1-1.45-3.56,4.16,4.16,0,0,0,1.52,3.46,4,4,0,0,0,3.71.15,6.37,6.37,0,0,0,2.9-2.48,6.6,6.6,0,0,0,1-3.64.25.25,0,0,1,.24-.26.25.25,0,0,1,.26.24Z"/><path class="cls-6" d="M67.75,66.65a7,7,0,0,1-1.19,3.86A6.69,6.69,0,0,1,63.45,73a4.17,4.17,0,0,1-3.88-.28,4.22,4.22,0,0,1-1.44-3.56,4.17,4.17,0,0,0,1.51,3.46,4,4,0,0,0,3.72.14,6.27,6.27,0,0,0,2.89-2.47,6.61,6.61,0,0,0,1-3.65.25.25,0,0,1,.25-.25.23.23,0,0,1,.25.24Z"/><path class="cls-6" d="M77.13,64.14A7.16,7.16,0,0,1,75.94,68a6.64,6.64,0,0,1-3.12,2.49A4.12,4.12,0,0,1,69,70.22a4.22,4.22,0,0,1-1.45-3.57A4.18,4.18,0,0,0,69,70.12a3.93,3.93,0,0,0,3.71.14,6.41,6.41,0,0,0,2.9-2.47,6.61,6.61,0,0,0,1-3.65.24.24,0,0,1,.24-.25.24.24,0,0,1,.26.24Z"/><path class="cls-6" d="M86.5,61.63a7,7,0,0,1-1.19,3.85A6.63,6.63,0,0,1,82.2,68a4.14,4.14,0,0,1-3.88-.27,4.24,4.24,0,0,1-1.44-3.57,4.15,4.15,0,0,0,1.51,3.46,4,4,0,0,0,3.72.15A6.38,6.38,0,0,0,85,65.28a6.63,6.63,0,0,0,1-3.65.26.26,0,0,1,.25-.26.25.25,0,0,1,.25.25Z"/><path class="cls-6" d="M95.88,59.12A7.1,7.1,0,0,1,94.69,63a6.66,6.66,0,0,1-3.12,2.5,4.09,4.09,0,0,1-3.87-.28,4.2,4.2,0,0,1-1.45-3.56,4.16,4.16,0,0,0,1.52,3.46,3.93,3.93,0,0,0,3.71.15,6.41,6.41,0,0,0,2.9-2.47,6.66,6.66,0,0,0,1-3.65.25.25,0,1,1,.5,0Z"/><path class="cls-6" d="M49,83.76a7,7,0,0,1-1.19,3.85,6.63,6.63,0,0,1-3.11,2.5,4.14,4.14,0,0,1-3.88-.27,4.24,4.24,0,0,1-1.44-3.57,4.15,4.15,0,0,0,1.51,3.46,4,4,0,0,0,3.72.15,6.38,6.38,0,0,0,2.89-2.47,6.66,6.66,0,0,0,1-3.65.26.26,0,0,1,.25-.26.25.25,0,0,1,.25.25Z"/><path class="cls-6" d="M58.38,81.25a7.1,7.1,0,0,1-1.19,3.85,6.66,6.66,0,0,1-3.12,2.5,4.09,4.09,0,0,1-3.87-.28,4.2,4.2,0,0,1-1.45-3.56,4.16,4.16,0,0,0,1.52,3.46,3.93,3.93,0,0,0,3.71.15,6.41,6.41,0,0,0,2.9-2.47,6.66,6.66,0,0,0,1-3.65.25.25,0,0,1,.24-.26.26.26,0,0,1,.26.25Z"/><path class="cls-6" d="M67.75,78.74a7,7,0,0,1-1.19,3.85,6.69,6.69,0,0,1-3.11,2.5,4.14,4.14,0,0,1-3.88-.28,4.22,4.22,0,0,1-1.44-3.56,4.17,4.17,0,0,0,1.51,3.46,4,4,0,0,0,3.72.15,6.34,6.34,0,0,0,2.89-2.48,6.6,6.6,0,0,0,1-3.64.26.26,0,0,1,.25-.26.25.25,0,0,1,.25.24Z"/><path class="cls-6" d="M77.13,76.22a7.11,7.11,0,0,1-1.19,3.86,6.73,6.73,0,0,1-3.12,2.5A4.15,4.15,0,0,1,69,82.3a4.2,4.2,0,0,1-1.45-3.56A4.17,4.17,0,0,0,69,82.2a3.93,3.93,0,0,0,3.71.14,6.41,6.41,0,0,0,2.9-2.47,6.61,6.61,0,0,0,1-3.65.25.25,0,0,1,.24-.25.24.24,0,0,1,.26.24Z"/><path class="cls-6" d="M86.5,73.71a7,7,0,0,1-1.19,3.85,6.63,6.63,0,0,1-3.11,2.5,4.14,4.14,0,0,1-3.88-.27,4.24,4.24,0,0,1-1.44-3.57,4.18,4.18,0,0,0,1.51,3.47,4,4,0,0,0,3.72.14A6.38,6.38,0,0,0,85,77.36a6.63,6.63,0,0,0,1-3.65.25.25,0,0,1,.25-.25.23.23,0,0,1,.25.24Z"/><path class="cls-6" d="M95.88,71.2a7.1,7.1,0,0,1-1.19,3.85,6.6,6.6,0,0,1-3.12,2.5,4.12,4.12,0,0,1-3.87-.27,4.23,4.23,0,0,1-1.45-3.57,4.16,4.16,0,0,0,1.52,3.46,3.93,3.93,0,0,0,3.71.15,6.41,6.41,0,0,0,2.9-2.47,6.66,6.66,0,0,0,1-3.65.25.25,0,1,1,.5,0Z"/><path class="cls-6" d="M49,95.81a7,7,0,0,1-1.19,3.85,6.63,6.63,0,0,1-3.11,2.5,4.14,4.14,0,0,1-3.88-.27,4.24,4.24,0,0,1-1.44-3.57,4.18,4.18,0,0,0,1.51,3.47,4,4,0,0,0,3.72.14,6.38,6.38,0,0,0,2.89-2.47,6.63,6.63,0,0,0,1-3.65.25.25,0,0,1,.25-.25.23.23,0,0,1,.25.24Z"/><path class="cls-6" d="M58.38,93.3a7.1,7.1,0,0,1-1.19,3.85,6.6,6.6,0,0,1-3.12,2.5,4.12,4.12,0,0,1-3.87-.27,4.23,4.23,0,0,1-1.45-3.57,4.16,4.16,0,0,0,1.52,3.46,3.93,3.93,0,0,0,3.71.15A6.41,6.41,0,0,0,56.88,97a6.66,6.66,0,0,0,1-3.65.25.25,0,1,1,.5,0Z"/><path class="cls-6" d="M67.75,90.79a7,7,0,0,1-1.19,3.85,6.69,6.69,0,0,1-3.11,2.5,4.11,4.11,0,0,1-3.88-.28,4.22,4.22,0,0,1-1.44-3.56,4.15,4.15,0,0,0,1.51,3.46,4,4,0,0,0,3.72.15,6.38,6.38,0,0,0,2.89-2.47,6.66,6.66,0,0,0,1-3.65.26.26,0,0,1,.25-.26.25.25,0,0,1,.25.25Z"/><path class="cls-6" d="M77.13,88.28a7.1,7.1,0,0,1-1.19,3.85,6.66,6.66,0,0,1-3.12,2.5A4.12,4.12,0,0,1,69,94.35a4.2,4.2,0,0,1-1.45-3.56A4.17,4.17,0,0,0,69,94.25a4,4,0,0,0,3.71.15,6.37,6.37,0,0,0,2.9-2.48,6.6,6.6,0,0,0,1-3.64.25.25,0,0,1,.24-.26.25.25,0,0,1,.26.24Z"/><path class="cls-6" d="M86.5,85.76a7.08,7.08,0,0,1-1.19,3.86,6.75,6.75,0,0,1-3.11,2.5,4.17,4.17,0,0,1-3.88-.28,4.22,4.22,0,0,1-1.44-3.56,4.17,4.17,0,0,0,1.51,3.46,4,4,0,0,0,3.72.14A6.38,6.38,0,0,0,85,89.41a6.61,6.61,0,0,0,1-3.65.25.25,0,0,1,.25-.25.23.23,0,0,1,.25.24Z"/><path class="cls-6" d="M95.88,83.25a7.1,7.1,0,0,1-1.19,3.85,6.6,6.6,0,0,1-3.12,2.5,4.12,4.12,0,0,1-3.87-.27,4.22,4.22,0,0,1-1.45-3.57,4.19,4.19,0,0,0,1.52,3.47,3.93,3.93,0,0,0,3.71.14,6.41,6.41,0,0,0,2.9-2.47,6.63,6.63,0,0,0,1-3.65.24.24,0,0,1,.24-.25.24.24,0,0,1,.26.24Z"/><path class="cls-6" d="M49,107.86a7.08,7.08,0,0,1-1.19,3.86,6.75,6.75,0,0,1-3.11,2.5,4.17,4.17,0,0,1-3.88-.28,4.22,4.22,0,0,1-1.44-3.56,4.17,4.17,0,0,0,1.51,3.46,4,4,0,0,0,3.72.14,6.38,6.38,0,0,0,2.89-2.47,6.61,6.61,0,0,0,1-3.65.25.25,0,0,1,.25-.25.23.23,0,0,1,.25.24Z"/><path class="cls-6" d="M58.38,105.35a7.1,7.1,0,0,1-1.19,3.85,6.6,6.6,0,0,1-3.12,2.5,4.12,4.12,0,0,1-3.87-.27,4.22,4.22,0,0,1-1.45-3.57,4.19,4.19,0,0,0,1.52,3.47,3.93,3.93,0,0,0,3.71.14,6.41,6.41,0,0,0,2.9-2.47,6.63,6.63,0,0,0,1-3.65.24.24,0,0,1,.24-.25.24.24,0,0,1,.26.24Z"/><path class="cls-6" d="M67.75,102.84a7,7,0,0,1-1.19,3.85,6.63,6.63,0,0,1-3.11,2.5,4.14,4.14,0,0,1-3.88-.27,4.25,4.25,0,0,1-1.44-3.57,4.15,4.15,0,0,0,1.51,3.46,4,4,0,0,0,3.72.15,6.38,6.38,0,0,0,2.89-2.47,6.66,6.66,0,0,0,1-3.65.26.26,0,0,1,.25-.26.25.25,0,0,1,.25.25Z"/><path class="cls-6" d="M77.13,100.33a7.1,7.1,0,0,1-1.19,3.85,6.66,6.66,0,0,1-3.12,2.5A4.09,4.09,0,0,1,69,106.4a4.2,4.2,0,0,1-1.45-3.56A4.16,4.16,0,0,0,69,106.3a3.93,3.93,0,0,0,3.71.15,6.37,6.37,0,0,0,2.9-2.48,6.6,6.6,0,0,0,1-3.64.25.25,0,0,1,.24-.26.25.25,0,0,1,.26.24Z"/><path class="cls-6" d="M86.5,97.82a7,7,0,0,1-1.19,3.85,6.69,6.69,0,0,1-3.11,2.5,4.14,4.14,0,0,1-3.88-.28,4.22,4.22,0,0,1-1.44-3.56,4.17,4.17,0,0,0,1.51,3.46,4,4,0,0,0,3.72.15A6.34,6.34,0,0,0,85,101.46a6.6,6.6,0,0,0,1-3.64.26.26,0,0,1,.25-.26.24.24,0,0,1,.25.24Z"/><path class="cls-6" d="M95.88,95.3a7.16,7.16,0,0,1-1.19,3.86,6.73,6.73,0,0,1-3.12,2.5,4.15,4.15,0,0,1-3.87-.28,4.2,4.2,0,0,1-1.45-3.56,4.17,4.17,0,0,0,1.52,3.46,3.93,3.93,0,0,0,3.71.14A6.41,6.41,0,0,0,94.38,99a6.61,6.61,0,0,0,1-3.65.25.25,0,0,1,.24-.25.24.24,0,0,1,.26.24Z"/><path class="cls-6" d="M39.44,275a18.65,18.65,0,0,0-5.18,2.14,7.75,7.75,0,0,0-3.56,4.12,2.63,2.63,0,0,0,.58,2.55A4.37,4.37,0,0,0,33.76,285a14.27,14.27,0,0,0,5.62-.46,14.18,14.18,0,0,1-5.64.58,4.44,4.44,0,0,1-2.59-1.17,2.84,2.84,0,0,1-.69-2.74,8.06,8.06,0,0,1,3.6-4.38,19.53,19.53,0,0,1,5.25-2.31.25.25,0,0,1,.31.17.24.24,0,0,1-.17.31Z"/><path class="cls-6" d="M39.44,294.87a13.76,13.76,0,0,1-5.78.41,4.42,4.42,0,0,1-2.6-1.35,3.1,3.1,0,0,1-.61-2.82,8,8,0,0,1,3.64-4.38,18.26,18.26,0,0,1,5.29-2.23,18.29,18.29,0,0,0-5.22,2.33,7.88,7.88,0,0,0-3.46,4.33,2.83,2.83,0,0,0,.59,2.57,4.14,4.14,0,0,0,2.44,1.18,13.25,13.25,0,0,0,5.58-.52h0a.25.25,0,0,1,.31.17.26.26,0,0,1-.18.31Z"/><path class="cls-6" d="M39.44,304.82a14.11,14.11,0,0,1-5.75.44,4.52,4.52,0,0,1-2.61-1.3,3,3,0,0,1-.62-2.8,8,8,0,0,1,3.65-4.33,18.46,18.46,0,0,1,5.27-2.2,18.51,18.51,0,0,0-5.2,2.3,7.82,7.82,0,0,0-3.48,4.28,2.68,2.68,0,0,0,.61,2.54,4.18,4.18,0,0,0,2.44,1.14,13.65,13.65,0,0,0,5.56-.55h0a.25.25,0,1,1,.13.48Z"/><path class="cls-6" d="M39.44,314.77a13.94,13.94,0,0,1-5.75.44,4.52,4.52,0,0,1-2.61-1.3,3,3,0,0,1-.62-2.8,8,8,0,0,1,3.65-4.33,18.75,18.75,0,0,1,5.27-2.2,18.8,18.8,0,0,0-5.2,2.3,7.81,7.81,0,0,0-3.48,4.29,2.67,2.67,0,0,0,.61,2.53,4.18,4.18,0,0,0,2.44,1.14,13.65,13.65,0,0,0,5.56-.55h0a.25.25,0,1,1,.13.48Z"/><path class="cls-6" d="M49,272.21a5.49,5.49,0,0,1-1.33,3.45,6.82,6.82,0,0,1-3,2.06,4.94,4.94,0,0,1-3.61,0,2.72,2.72,0,0,1-1.3-1.25,3.84,3.84,0,0,1-.36-1.76,3.8,3.8,0,0,0,.41,1.73,2.58,2.58,0,0,0,1.3,1.16,4.73,4.73,0,0,0,3.47-.13,6.67,6.67,0,0,0,2.82-2.06,5.07,5.07,0,0,0,1.12-3.22.25.25,0,0,1,.25-.25.25.25,0,0,1,.25.25Z"/><path class="cls-6" d="M58.38,269.7a5.49,5.49,0,0,1-1.33,3.45,6.85,6.85,0,0,1-3,2.06,4.92,4.92,0,0,1-3.6,0A2.74,2.74,0,0,1,49.11,274a4,4,0,0,1-.36-1.77,3.85,3.85,0,0,0,.42,1.74,2.62,2.62,0,0,0,1.3,1.16,4.71,4.71,0,0,0,3.46-.13,6.64,6.64,0,0,0,2.83-2.06,5.09,5.09,0,0,0,1.12-3.22.25.25,0,0,1,.24-.25.25.25,0,0,1,.26.24Z"/><path class="cls-6" d="M67.75,267.19a5.51,5.51,0,0,1-1.33,3.45,6.9,6.9,0,0,1-3,2.06,4.94,4.94,0,0,1-3.61,0,2.72,2.72,0,0,1-1.3-1.25,3.88,3.88,0,0,1-.36-1.77,3.87,3.87,0,0,0,.41,1.74,2.62,2.62,0,0,0,1.3,1.16,4.73,4.73,0,0,0,3.47-.14,6.51,6.51,0,0,0,2.82-2.06,5,5,0,0,0,1.12-3.21.25.25,0,0,1,.25-.25.23.23,0,0,1,.25.24Z"/><path class="cls-6" d="M77.13,264.68a5.51,5.51,0,0,1-1.33,3.45,7,7,0,0,1-3,2.06,4.92,4.92,0,0,1-3.6,0A2.72,2.72,0,0,1,67.86,269a4,4,0,0,1-.36-1.77,3.88,3.88,0,0,0,.42,1.74,2.62,2.62,0,0,0,1.3,1.16,4.71,4.71,0,0,0,3.46-.14,6.56,6.56,0,0,0,2.83-2.06,5.06,5.06,0,0,0,1.12-3.21.26.26,0,0,1,.24-.26.26.26,0,0,1,.26.25Z"/><path class="cls-6" d="M86.5,262.17a5.51,5.51,0,0,1-1.33,3.45,7,7,0,0,1-3,2.06,5,5,0,0,1-3.61,0,2.68,2.68,0,0,1-1.3-1.25,3.84,3.84,0,0,1-.36-1.76,3.8,3.8,0,0,0,.41,1.73,2.6,2.6,0,0,0,1.3,1.17,4.78,4.78,0,0,0,3.47-.14,6.67,6.67,0,0,0,2.82-2.06A5.06,5.06,0,0,0,86,262.17a.26.26,0,0,1,.25-.26.25.25,0,0,1,.25.25Z"/><path class="cls-6" d="M95.88,259.65a5.49,5.49,0,0,1-1.33,3.45,6.85,6.85,0,0,1-3,2.06,4.92,4.92,0,0,1-3.6,0,2.74,2.74,0,0,1-1.31-1.25,4,4,0,0,1-.36-1.76,3.81,3.81,0,0,0,.42,1.73,2.58,2.58,0,0,0,1.3,1.16,4.71,4.71,0,0,0,3.46-.13,6.64,6.64,0,0,0,2.83-2.06,5.07,5.07,0,0,0,1.12-3.22.25.25,0,0,1,.24-.25.26.26,0,0,1,.26.25Z"/><path class="cls-6" d="M49,282a5.51,5.51,0,0,1-1.33,3.45,6.82,6.82,0,0,1-3,2.06,4.94,4.94,0,0,1-3.61,0,2.72,2.72,0,0,1-1.3-1.25,3.88,3.88,0,0,1-.36-1.77,3.87,3.87,0,0,0,.41,1.74,2.62,2.62,0,0,0,1.3,1.16,4.78,4.78,0,0,0,3.47-.13,6.61,6.61,0,0,0,2.82-2.07A5,5,0,0,0,48.5,282a.25.25,0,0,1,.25-.25A.23.23,0,0,1,49,282Z"/><path class="cls-6" d="M58.38,279.48a5.51,5.51,0,0,1-1.33,3.45A7,7,0,0,1,54,285a4.87,4.87,0,0,1-3.6,0,2.68,2.68,0,0,1-1.31-1.24,4,4,0,0,1-.36-1.77,3.88,3.88,0,0,0,.42,1.74,2.62,2.62,0,0,0,1.3,1.16,4.71,4.71,0,0,0,3.46-.14,6.48,6.48,0,0,0,2.83-2.06,5,5,0,0,0,1.12-3.21.26.26,0,0,1,.24-.26.26.26,0,0,1,.26.25Z"/><path class="cls-6" d="M67.75,277a5.51,5.51,0,0,1-1.33,3.45,7,7,0,0,1-3,2.06,4.94,4.94,0,0,1-3.61,0,2.68,2.68,0,0,1-1.3-1.25,3.81,3.81,0,0,1-.36-1.76,3.87,3.87,0,0,0,.41,1.74,2.62,2.62,0,0,0,1.3,1.16,4.78,4.78,0,0,0,3.47-.14,6.67,6.67,0,0,0,2.82-2.06A5.06,5.06,0,0,0,67.25,277a.26.26,0,0,1,.25-.26.25.25,0,0,1,.25.25Z"/><path class="cls-6" d="M77.13,274.45a5.51,5.51,0,0,1-1.33,3.46,6.91,6.91,0,0,1-3,2,4.92,4.92,0,0,1-3.6,0,2.74,2.74,0,0,1-1.31-1.25A4,4,0,0,1,67.5,277a3.81,3.81,0,0,0,.42,1.73,2.64,2.64,0,0,0,1.3,1.17,4.76,4.76,0,0,0,3.46-.14,6.64,6.64,0,0,0,2.83-2.06,5.07,5.07,0,0,0,1.12-3.22.25.25,0,0,1,.24-.25.26.26,0,0,1,.26.25Z"/><path class="cls-6" d="M86.5,271.94a5.49,5.49,0,0,1-1.33,3.45,6.82,6.82,0,0,1-3,2.06,4.94,4.94,0,0,1-3.61,0,2.72,2.72,0,0,1-1.3-1.25,3.85,3.85,0,0,1-.36-1.77,3.84,3.84,0,0,0,.41,1.74,2.62,2.62,0,0,0,1.3,1.16,4.73,4.73,0,0,0,3.47-.13,6.67,6.67,0,0,0,2.82-2.06A5.09,5.09,0,0,0,86,271.94a.25.25,0,0,1,.5,0Z"/><path class="cls-6" d="M95.88,269.43a5.51,5.51,0,0,1-1.33,3.45,6.85,6.85,0,0,1-3,2.06,4.92,4.92,0,0,1-3.6,0,2.74,2.74,0,0,1-1.31-1.25,4,4,0,0,1-.36-1.77,3.88,3.88,0,0,0,.42,1.74,2.62,2.62,0,0,0,1.3,1.16,4.76,4.76,0,0,0,3.46-.13,6.58,6.58,0,0,0,2.83-2.07,5,5,0,0,0,1.12-3.21.25.25,0,0,1,.24-.25.24.24,0,0,1,.26.24Z"/><path class="cls-6" d="M49,292a5.49,5.49,0,0,1-1.33,3.45,6.82,6.82,0,0,1-3,2.06,4.94,4.94,0,0,1-3.61,0,2.72,2.72,0,0,1-1.3-1.25,3.85,3.85,0,0,1-.36-1.77,3.84,3.84,0,0,0,.41,1.74,2.62,2.62,0,0,0,1.3,1.16,4.73,4.73,0,0,0,3.47-.13,6.67,6.67,0,0,0,2.82-2.06A5.09,5.09,0,0,0,48.5,292a.25.25,0,0,1,.5,0Z"/><path class="cls-6" d="M58.38,289.53A5.51,5.51,0,0,1,57.05,293,6.85,6.85,0,0,1,54,295a4.92,4.92,0,0,1-3.6,0,2.74,2.74,0,0,1-1.31-1.25,4,4,0,0,1-.36-1.77,3.88,3.88,0,0,0,.42,1.74,2.62,2.62,0,0,0,1.3,1.16,4.76,4.76,0,0,0,3.46-.13,6.58,6.58,0,0,0,2.83-2.07,5,5,0,0,0,1.12-3.21.25.25,0,0,1,.24-.25.24.24,0,0,1,.26.24Z"/><path class="cls-6" d="M67.75,287a5.51,5.51,0,0,1-1.33,3.45,7,7,0,0,1-3,2.06,4.89,4.89,0,0,1-3.61,0,2.66,2.66,0,0,1-1.3-1.24,3.88,3.88,0,0,1-.36-1.77,3.87,3.87,0,0,0,.41,1.74,2.62,2.62,0,0,0,1.3,1.16,4.73,4.73,0,0,0,3.47-.14,6.59,6.59,0,0,0,2.82-2.06A5.06,5.06,0,0,0,67.25,287a.26.26,0,0,1,.25-.26.25.25,0,0,1,.25.25Z"/><path class="cls-6" d="M77.13,284.51A5.51,5.51,0,0,1,75.8,288a7,7,0,0,1-3,2.06,5,5,0,0,1-3.6,0,2.7,2.7,0,0,1-1.31-1.25A3.94,3.94,0,0,1,67.5,287a3.88,3.88,0,0,0,.42,1.74,2.62,2.62,0,0,0,1.3,1.16,4.76,4.76,0,0,0,3.46-.14,6.64,6.64,0,0,0,2.83-2.06,5.06,5.06,0,0,0,1.12-3.21.25.25,0,1,1,.5,0Z"/><path class="cls-6" d="M86.5,282a5.46,5.46,0,0,1-1.33,3.45,6.82,6.82,0,0,1-3,2.06,4.94,4.94,0,0,1-3.61,0,2.72,2.72,0,0,1-1.3-1.25,3.84,3.84,0,0,1-.36-1.76,3.8,3.8,0,0,0,.41,1.73,2.64,2.64,0,0,0,1.3,1.17,4.78,4.78,0,0,0,3.47-.14,6.67,6.67,0,0,0,2.82-2.06A5.07,5.07,0,0,0,86,282a.25.25,0,0,1,.25-.25.25.25,0,0,1,.25.25Z"/><path class="cls-6" d="M95.88,279.48a5.49,5.49,0,0,1-1.33,3.45,6.85,6.85,0,0,1-3,2.06,4.92,4.92,0,0,1-3.6,0,2.74,2.74,0,0,1-1.31-1.25,4,4,0,0,1-.36-1.77,3.85,3.85,0,0,0,.42,1.74,2.62,2.62,0,0,0,1.3,1.16,4.71,4.71,0,0,0,3.46-.13,6.64,6.64,0,0,0,2.83-2.06,5.09,5.09,0,0,0,1.12-3.22.25.25,0,0,1,.24-.25.25.25,0,0,1,.26.24Z"/><path class="cls-6" d="M49,302.07a5.51,5.51,0,0,1-1.33,3.45,7,7,0,0,1-3,2.06,4.89,4.89,0,0,1-3.61,0,2.66,2.66,0,0,1-1.3-1.24,3.88,3.88,0,0,1-.36-1.77,3.87,3.87,0,0,0,.41,1.74,2.62,2.62,0,0,0,1.3,1.16,4.73,4.73,0,0,0,3.47-.14,6.51,6.51,0,0,0,2.82-2.06,5,5,0,0,0,1.12-3.21.25.25,0,0,1,.25-.25.23.23,0,0,1,.25.24Z"/><path class="cls-6" d="M58.38,299.56A5.51,5.51,0,0,1,57.05,303a7,7,0,0,1-3,2.06,4.92,4.92,0,0,1-3.6,0,2.72,2.72,0,0,1-1.31-1.24,4,4,0,0,1-.36-1.77,3.88,3.88,0,0,0,.42,1.74,2.62,2.62,0,0,0,1.3,1.16,4.71,4.71,0,0,0,3.46-.14,6.64,6.64,0,0,0,2.83-2.06,5.06,5.06,0,0,0,1.12-3.21.26.26,0,0,1,.24-.26.26.26,0,0,1,.26.25Z"/><path class="cls-6" d="M67.75,297.05a5.51,5.51,0,0,1-1.33,3.45,7,7,0,0,1-3,2.06,5,5,0,0,1-3.61,0,2.68,2.68,0,0,1-1.3-1.25,3.84,3.84,0,0,1-.36-1.76,3.8,3.8,0,0,0,.41,1.73,2.64,2.64,0,0,0,1.3,1.17,4.78,4.78,0,0,0,3.47-.14,6.67,6.67,0,0,0,2.82-2.06,5.06,5.06,0,0,0,1.12-3.21.26.26,0,0,1,.25-.26.25.25,0,0,1,.25.25Z"/><path class="cls-6" d="M77.13,294.53A5.49,5.49,0,0,1,75.8,298a6.85,6.85,0,0,1-3,2.06,4.92,4.92,0,0,1-3.6,0,2.74,2.74,0,0,1-1.31-1.25,4,4,0,0,1-.36-1.76,3.81,3.81,0,0,0,.42,1.73,2.62,2.62,0,0,0,1.3,1.16,4.71,4.71,0,0,0,3.46-.13,6.64,6.64,0,0,0,2.83-2.06,5.07,5.07,0,0,0,1.12-3.22.25.25,0,0,1,.5,0Z"/><path class="cls-6" d="M86.5,292a5.49,5.49,0,0,1-1.33,3.45,6.82,6.82,0,0,1-3,2.06,4.94,4.94,0,0,1-3.61,0,2.72,2.72,0,0,1-1.3-1.25,3.85,3.85,0,0,1-.36-1.77,3.84,3.84,0,0,0,.41,1.74,2.62,2.62,0,0,0,1.3,1.16,4.73,4.73,0,0,0,3.47-.13,6.67,6.67,0,0,0,2.82-2.06A5.09,5.09,0,0,0,86,292a.25.25,0,0,1,.25-.25.23.23,0,0,1,.25.24Z"/><path class="cls-6" d="M95.88,289.51A5.51,5.51,0,0,1,94.55,293a7,7,0,0,1-3,2.06,4.87,4.87,0,0,1-3.6,0,2.68,2.68,0,0,1-1.31-1.24,4,4,0,0,1-.36-1.77,3.88,3.88,0,0,0,.42,1.74,2.62,2.62,0,0,0,1.3,1.16,4.71,4.71,0,0,0,3.46-.14,6.48,6.48,0,0,0,2.83-2.06,5,5,0,0,0,1.12-3.21.26.26,0,0,1,.24-.26.26.26,0,0,1,.26.25Z"/><path class="cls-6" d="M49,312.1a5.51,5.51,0,0,1-1.33,3.45,7,7,0,0,1-3,2.06,4.94,4.94,0,0,1-3.61,0,2.68,2.68,0,0,1-1.3-1.25,3.81,3.81,0,0,1-.36-1.76,3.87,3.87,0,0,0,.41,1.74,2.62,2.62,0,0,0,1.3,1.16,4.78,4.78,0,0,0,3.47-.14,6.67,6.67,0,0,0,2.82-2.06,5.06,5.06,0,0,0,1.12-3.21.26.26,0,0,1,.25-.26.25.25,0,0,1,.25.25Z"/><path class="cls-6" d="M58.38,309.58A5.51,5.51,0,0,1,57.05,313a6.91,6.91,0,0,1-3,2,4.92,4.92,0,0,1-3.6,0,2.74,2.74,0,0,1-1.31-1.25,4,4,0,0,1-.36-1.76,3.81,3.81,0,0,0,.42,1.73,2.64,2.64,0,0,0,1.3,1.17,4.76,4.76,0,0,0,3.46-.14,6.64,6.64,0,0,0,2.83-2.06,5.07,5.07,0,0,0,1.12-3.22.25.25,0,0,1,.24-.25.26.26,0,0,1,.26.25Z"/><path class="cls-6" d="M67.75,307.07a5.49,5.49,0,0,1-1.33,3.45,6.82,6.82,0,0,1-3,2.06,4.94,4.94,0,0,1-3.61,0,2.72,2.72,0,0,1-1.3-1.25,3.85,3.85,0,0,1-.36-1.77,3.84,3.84,0,0,0,.41,1.74,2.62,2.62,0,0,0,1.3,1.16,4.73,4.73,0,0,0,3.47-.13,6.67,6.67,0,0,0,2.82-2.06,5.09,5.09,0,0,0,1.12-3.22.25.25,0,0,1,.5,0Z"/><path class="cls-6" d="M77.13,304.56A5.51,5.51,0,0,1,75.8,308a6.85,6.85,0,0,1-3,2.06,4.92,4.92,0,0,1-3.6,0,2.74,2.74,0,0,1-1.31-1.25,4,4,0,0,1-.36-1.77,3.88,3.88,0,0,0,.42,1.74,2.62,2.62,0,0,0,1.3,1.16,4.76,4.76,0,0,0,3.46-.13,6.58,6.58,0,0,0,2.83-2.07,5,5,0,0,0,1.12-3.21.25.25,0,0,1,.24-.25.24.24,0,0,1,.26.24Z"/><path class="cls-6" d="M86.5,302.05a5.51,5.51,0,0,1-1.33,3.45,7,7,0,0,1-3,2.06,4.89,4.89,0,0,1-3.61,0,2.66,2.66,0,0,1-1.3-1.24,3.88,3.88,0,0,1-.36-1.77,3.87,3.87,0,0,0,.41,1.74,2.62,2.62,0,0,0,1.3,1.16,4.73,4.73,0,0,0,3.47-.14,6.51,6.51,0,0,0,2.82-2.06A5.06,5.06,0,0,0,86,302.05a.26.26,0,0,1,.25-.26.25.25,0,0,1,.25.25Z"/><path class="cls-6" d="M95.88,299.54A5.51,5.51,0,0,1,94.55,303a7,7,0,0,1-3,2.06,5,5,0,0,1-3.6,0,2.7,2.7,0,0,1-1.31-1.25,3.94,3.94,0,0,1-.36-1.76,3.88,3.88,0,0,0,.42,1.74A2.62,2.62,0,0,0,88,305a4.76,4.76,0,0,0,3.46-.14,6.64,6.64,0,0,0,2.83-2.06,5.06,5.06,0,0,0,1.12-3.21.25.25,0,1,1,.5,0Z"/><polygon class="cls-7" points="41.88 59.27 41.88 64.27 36.88 65.61 36.88 60.61 41.88 59.27"/><polygon class="cls-7" points="41.88 71.23 41.88 76.23 36.88 77.57 36.88 72.57 41.88 71.23"/><polygon class="cls-7" points="41.88 95.15 41.88 100.15 36.88 101.49 36.88 96.49 41.88 95.15"/><polygon class="cls-7" points="41.88 107.11 41.88 112.11 36.88 113.45 36.88 108.45 41.88 107.11"/><polygon class="cls-7" points="41.88 83.19 41.88 88.19 36.88 89.53 36.88 84.53 41.88 83.19"/><polygon class="cls-7" points="51.25 68.72 51.25 73.72 46.25 75.06 46.25 70.06 51.25 68.72"/><polygon class="cls-7" points="51.25 92.64 51.25 97.64 46.25 98.98 46.25 93.98 51.25 92.64"/><polygon class="cls-7" points="51.25 104.6 51.25 109.6 46.25 110.94 46.25 105.94 51.25 104.6"/><polygon class="cls-7" points="51.25 80.68 51.25 85.68 46.25 87.02 46.25 82.02 51.25 80.68"/><polygon class="cls-7" points="51.25 56.76 51.25 61.76 46.25 63.1 46.25 58.1 51.25 56.76"/><polygon class="cls-7" points="60.63 66.21 60.63 71.21 55.63 72.55 55.63 67.55 60.63 66.21"/><polygon class="cls-7" points="60.63 90.13 60.63 95.13 55.63 96.47 55.63 91.47 60.63 90.13"/><polygon class="cls-7" points="60.63 102.09 60.63 107.09 55.63 108.43 55.63 103.43 60.63 102.09"/><polygon class="cls-7" points="60.63 78.17 60.63 83.17 55.63 84.51 55.63 79.51 60.63 78.17"/><polygon class="cls-7" points="60.63 54.24 60.63 59.24 55.63 60.59 55.63 55.59 60.63 54.24"/><polygon class="cls-7" points="70 63.7 70 68.69 65 70.03 65 65.03 70 63.7"/><polygon class="cls-7" points="70 87.62 70 92.62 65 93.96 65 88.96 70 87.62"/><polygon class="cls-7" points="70 99.58 70 104.58 65 105.92 65 100.92 70 99.58"/><polygon class="cls-7" points="70 75.66 70 80.66 65 82 65 77 70 75.66"/><polygon class="cls-7" points="70 51.73 70 56.73 65 58.07 65 53.07 70 51.73"/><polygon class="cls-7" points="79.38 61.18 79.38 66.18 74.38 67.52 74.38 62.52 79.38 61.18"/><polygon class="cls-7" points="79.38 85.11 79.38 90.11 74.38 91.44 74.38 86.44 79.38 85.11"/><polygon class="cls-7" points="79.38 97.07 79.38 102.07 74.38 103.41 74.38 98.41 79.38 97.07"/><polygon class="cls-7" points="79.38 73.14 79.38 78.14 74.38 79.48 74.38 74.48 79.38 73.14"/><polygon class="cls-7" points="79.38 49.22 79.38 54.22 74.38 55.56 74.38 50.56 79.38 49.22"/><polygon class="cls-7" points="88.75 46.71 88.75 51.71 83.75 53.05 83.75 48.05 88.75 46.71"/><polygon class="cls-7" points="88.75 70.63 88.75 75.63 83.75 76.97 83.75 71.97 88.75 70.63"/><polygon class="cls-7" points="88.75 94.56 88.75 99.56 83.75 100.89 83.75 95.89 88.75 94.56"/><polygon class="cls-7" points="88.75 82.59 88.75 87.59 83.75 88.93 83.75 83.93 88.75 82.59"/><polygon class="cls-7" points="88.75 58.67 88.75 63.67 83.75 65.01 83.75 60.01 88.75 58.67"/><polygon class="cls-7" points="98.13 56.16 98.13 61.16 93.13 62.5 93.13 57.5 98.13 56.16"/><polygon class="cls-7" points="98.13 80.08 98.13 85.08 93.13 86.42 93.13 81.42 98.13 80.08"/><polygon class="cls-7" points="98.13 92.04 98.13 97.04 93.13 98.38 93.13 93.38 98.13 92.04"/><polygon class="cls-7" points="98.13 68.12 98.13 73.12 93.13 74.46 93.13 69.46 98.13 68.12"/><polygon class="cls-7" points="98.13 44.2 98.13 49.2 93.13 50.54 93.13 45.54 98.13 44.2"/><ellipse class="cls-8" cx="39.38" cy="62.44" rx="1.14" ry="0.87" transform="translate(-33.54 50.96) rotate(-48.82)"/><ellipse class="cls-8" cx="48.75" cy="59.93" rx="1.14" ry="0.87" transform="translate(-28.45 57.16) rotate(-48.82)"/><ellipse class="cls-8" cx="58.13" cy="57.42" rx="1.14" ry="0.87" transform="translate(-23.36 63.36) rotate(-48.82)"/><ellipse class="cls-8" cx="67.5" cy="54.9" rx="1.14" ry="0.87" transform="translate(-18.27 69.55) rotate(-48.82)"/><ellipse class="cls-8" cx="76.88" cy="52.39" rx="1.14" ry="0.87" transform="translate(-13.17 75.75) rotate(-48.82)"/><ellipse class="cls-8" cx="86.25" cy="49.88" rx="1.14" ry="0.87" transform="translate(-8.08 81.95) rotate(-48.82)"/><ellipse class="cls-8" cx="95.63" cy="47.37" rx="1.14" ry="0.87" transform="translate(-2.99 88.15) rotate(-48.82)"/><ellipse class="cls-8" cx="39.38" cy="74.19" rx="1.14" ry="0.87" transform="translate(-42.39 54.97) rotate(-48.82)"/><ellipse class="cls-8" cx="48.75" cy="71.68" rx="1.14" ry="0.87" transform="translate(-37.29 61.17) rotate(-48.82)"/><ellipse class="cls-8" cx="58.13" cy="69.17" rx="1.14" ry="0.87" transform="translate(-32.2 67.37) rotate(-48.82)"/><ellipse class="cls-8" cx="67.5" cy="66.65" rx="1.14" ry="0.87" transform="translate(-27.11 73.57) rotate(-48.82)"/><ellipse class="cls-8" cx="76.88" cy="64.14" rx="1.14" ry="0.87" transform="translate(-22.02 79.76) rotate(-48.82)"/><ellipse class="cls-8" cx="86.25" cy="61.63" rx="1.14" ry="0.87" transform="translate(-16.93 85.96) rotate(-48.82)"/><ellipse class="cls-8" cx="95.63" cy="59.12" rx="1.14" ry="0.87" transform="translate(-11.83 92.16) rotate(-48.82)"/><ellipse class="cls-8" cx="39.38" cy="86.36" rx="1.14" ry="0.87" transform="translate(-51.55 59.13) rotate(-48.82)"/><ellipse class="cls-8" cx="48.75" cy="83.85" rx="1.14" ry="0.87" transform="translate(-46.45 65.33) rotate(-48.82)"/><ellipse class="cls-8" cx="58.13" cy="81.34" rx="1.14" ry="0.87" transform="translate(-41.36 71.53) rotate(-48.82)"/><ellipse class="cls-8" cx="67.5" cy="78.83" rx="1.14" ry="0.87" transform="translate(-36.27 77.72) rotate(-48.82)"/><ellipse class="cls-8" cx="76.88" cy="76.31" rx="1.14" ry="0.87" transform="translate(-31.18 83.92) rotate(-48.82)"/><ellipse class="cls-8" cx="86.25" cy="73.8" rx="1.14" ry="0.87" transform="translate(-26.09 90.12) rotate(-48.82)"/><ellipse class="cls-8" cx="95.63" cy="71.29" rx="1.14" ry="0.87" transform="translate(-20.99 96.32) rotate(-48.82)"/><ellipse class="cls-8" cx="39.38" cy="98.32" rx="1.14" ry="0.87" transform="translate(-60.55 63.21) rotate(-48.82)"/><ellipse class="cls-8" cx="48.75" cy="95.81" rx="1.14" ry="0.87" transform="translate(-55.46 69.41) rotate(-48.82)"/><ellipse class="cls-8" cx="58.13" cy="93.3" rx="1.14" ry="0.87" transform="translate(-50.36 75.61) rotate(-48.82)"/><ellipse class="cls-8" cx="67.5" cy="90.79" rx="1.14" ry="0.87" transform="translate(-45.27 81.81) rotate(-48.82)"/><ellipse class="cls-8" cx="76.88" cy="88.28" rx="1.14" ry="0.87" transform="translate(-40.18 88.01) rotate(-48.82)"/><ellipse class="cls-8" cx="86.25" cy="85.76" rx="1.14" ry="0.87" transform="translate(-35.09 94.2) rotate(-48.82)"/><ellipse class="cls-8" cx="95.63" cy="83.25" rx="1.14" ry="0.87" transform="translate(-30 100.4) rotate(-48.82)"/><ellipse class="cls-8" cx="39.38" cy="110.28" rx="1.14" ry="0.87" transform="translate(-69.55 67.3) rotate(-48.82)"/><ellipse class="cls-8" cx="48.75" cy="107.77" rx="1.14" ry="0.87" transform="translate(-64.46 73.5) rotate(-48.82)"/><ellipse class="cls-8" cx="58.13" cy="105.26" rx="1.14" ry="0.87" transform="translate(-59.37 79.7) rotate(-48.82)"/><ellipse class="cls-8" cx="67.5" cy="102.75" rx="1.14" ry="0.87" transform="translate(-54.27 85.89) rotate(-48.82)"/><ellipse class="cls-8" cx="76.88" cy="100.24" rx="1.14" ry="0.87" transform="translate(-49.18 92.09) rotate(-48.82)"/><ellipse class="cls-8" cx="86.25" cy="97.72" rx="1.14" ry="0.87" transform="translate(-44.09 98.29) rotate(-48.82)"/><ellipse class="cls-8" cx="95.63" cy="95.21" rx="1.14" ry="0.87" transform="translate(-39 104.49) rotate(-48.82)"/><polygon class="cls-7" points="41.88 271.56 41.88 276.56 36.88 277.9 36.88 272.9 41.88 271.56"/><polygon class="cls-7" points="41.88 281.47 41.88 286.47 36.88 287.81 36.88 282.81 41.88 281.47"/><polygon class="cls-7" points="41.88 301.29 41.88 306.29 36.88 307.63 36.88 302.63 41.88 301.29"/><polygon class="cls-7" points="41.88 311.2 41.88 316.2 36.88 317.54 36.88 312.54 41.88 311.2"/><polygon class="cls-7" points="41.88 291.38 41.88 296.38 36.88 297.72 36.88 292.72 41.88 291.38"/><polygon class="cls-7" points="51.25 278.95 51.25 283.95 46.25 285.29 46.25 280.29 51.25 278.95"/><polygon class="cls-7" points="51.25 298.78 51.25 303.78 46.25 305.12 46.25 300.12 51.25 298.78"/><polygon class="cls-7" points="51.25 308.69 51.25 313.69 46.25 315.03 46.25 310.03 51.25 308.69"/><polygon class="cls-7" points="51.25 288.87 51.25 293.87 46.25 295.2 46.25 290.2 51.25 288.87"/><polygon class="cls-7" points="51.25 269.04 51.25 274.04 46.25 275.38 46.25 270.38 51.25 269.04"/><polygon class="cls-7" points="60.63 276.44 60.63 281.44 55.63 282.78 55.63 277.78 60.63 276.44"/><polygon class="cls-7" points="60.63 296.26 60.63 301.26 55.63 302.6 55.63 297.6 60.63 296.26"/><polygon class="cls-7" points="60.63 306.18 60.63 311.18 55.63 312.51 55.63 307.51 60.63 306.18"/><polygon class="cls-7" points="60.63 286.35 60.63 291.35 55.63 292.69 55.63 287.69 60.63 286.35"/><polygon class="cls-7" points="60.63 266.53 60.63 271.53 55.63 272.87 55.63 267.87 60.63 266.53"/><polygon class="cls-7" points="70 273.93 70 278.93 65 280.27 65 275.27 70 273.93"/><polygon class="cls-7" points="70 293.75 70 298.75 65 300.09 65 295.09 70 293.75"/><polygon class="cls-7" points="70 303.66 70 308.66 65 310 65 305 70 303.66"/><polygon class="cls-7" points="70 283.84 70 288.84 65 290.18 65 285.18 70 283.84"/><polygon class="cls-7" points="70 264.02 70 269.02 65 270.36 65 265.36 70 264.02"/><polygon class="cls-7" points="79.38 271.42 79.38 276.42 74.38 277.76 74.38 272.76 79.38 271.42"/><polygon class="cls-7" points="79.38 291.24 79.38 296.24 74.38 297.58 74.38 292.58 79.38 291.24"/><polygon class="cls-7" points="79.38 301.15 79.38 306.15 74.38 307.49 74.38 302.49 79.38 301.15"/><polygon class="cls-7" points="79.38 281.33 79.38 286.33 74.38 287.67 74.38 282.67 79.38 281.33"/><polygon class="cls-7" points="79.38 261.51 79.38 266.51 74.38 267.85 74.38 262.85 79.38 261.51"/><polygon class="cls-7" points="88.75 259 88.75 264 83.75 265.34 83.75 260.34 88.75 259"/><polygon class="cls-7" points="88.75 278.82 88.75 283.82 83.75 285.16 83.75 280.16 88.75 278.82"/><polygon class="cls-7" points="88.75 298.64 88.75 303.64 83.75 304.98 83.75 299.98 88.75 298.64"/><polygon class="cls-7" points="88.75 288.73 88.75 293.73 83.75 295.07 83.75 290.07 88.75 288.73"/><polygon class="cls-7" points="88.75 268.91 88.75 273.91 83.75 275.25 83.75 270.25 88.75 268.91"/><polygon class="cls-7" points="98.13 266.39 98.13 271.39 93.13 272.73 93.13 267.73 98.13 266.39"/><polygon class="cls-7" points="98.13 286.22 98.13 291.22 93.13 292.56 93.13 287.56 98.13 286.22"/><polygon class="cls-7" points="98.13 296.13 98.13 301.13 93.13 302.47 93.13 297.47 98.13 296.13"/><polygon class="cls-7" points="98.13 276.31 98.13 281.31 93.13 282.64 93.13 277.64 98.13 276.31"/><polygon class="cls-7" points="98.13 256.48 98.13 261.48 93.13 262.82 93.13 257.82 98.13 256.48"/><ellipse class="cls-8" cx="39.38" cy="274.73" rx="1.14" ry="0.87" transform="translate(-193.31 123.46) rotate(-48.82)"/><ellipse class="cls-8" cx="48.75" cy="272.21" rx="1.14" ry="0.87" transform="translate(-188.22 129.66) rotate(-48.82)"/><ellipse class="cls-8" cx="58.13" cy="269.7" rx="1.14" ry="0.87" transform="translate(-183.12 135.85) rotate(-48.82)"/><ellipse class="cls-8" cx="67.5" cy="267.19" rx="1.14" ry="0.87" transform="translate(-178.03 142.05) rotate(-48.82)"/><ellipse class="cls-8" cx="76.88" cy="264.68" rx="1.14" ry="0.87" transform="translate(-172.94 148.25) rotate(-48.82)"/><ellipse class="cls-8" cx="86.25" cy="262.17" rx="1.14" ry="0.87" transform="translate(-167.85 154.45) rotate(-48.82)"/><ellipse class="cls-8" cx="95.63" cy="259.65" rx="1.14" ry="0.87" transform="translate(-162.75 160.64) rotate(-48.82)"/><ellipse class="cls-8" cx="39.38" cy="284.43" rx="1.14" ry="0.87" transform="translate(-200.61 126.77) rotate(-48.82)"/><ellipse class="cls-8" cx="48.75" cy="281.91" rx="1.14" ry="0.87" transform="translate(-195.52 132.97) rotate(-48.82)"/><ellipse class="cls-8" cx="58.13" cy="279.4" rx="1.14" ry="0.87" transform="translate(-190.42 139.17) rotate(-48.82)"/><ellipse class="cls-8" cx="67.5" cy="276.89" rx="1.14" ry="0.87" transform="translate(-185.33 145.36) rotate(-48.82)"/><ellipse class="cls-8" cx="76.88" cy="274.38" rx="1.14" ry="0.87" transform="translate(-180.24 151.56) rotate(-48.82)"/><ellipse class="cls-8" cx="86.25" cy="271.87" rx="1.14" ry="0.87" transform="translate(-175.15 157.76) rotate(-48.82)"/><ellipse class="cls-8" cx="95.63" cy="269.35" rx="1.14" ry="0.87" transform="translate(-170.06 163.96) rotate(-48.82)"/><ellipse class="cls-8" cx="39.38" cy="294.55" rx="1.14" ry="0.87" transform="translate(-208.23 130.23) rotate(-48.82)"/><ellipse class="cls-8" cx="48.75" cy="292.04" rx="1.14" ry="0.87" transform="translate(-203.13 136.43) rotate(-48.82)"/><ellipse class="cls-8" cx="58.13" cy="289.52" rx="1.14" ry="0.87" transform="translate(-198.04 142.62) rotate(-48.82)"/><ellipse class="cls-8" cx="67.5" cy="287.01" rx="1.14" ry="0.87" transform="translate(-192.95 148.82) rotate(-48.82)"/><ellipse class="cls-8" cx="76.88" cy="284.5" rx="1.14" ry="0.87" transform="translate(-187.86 155.02) rotate(-48.82)"/><ellipse class="cls-8" cx="86.25" cy="281.99" rx="1.14" ry="0.87" transform="translate(-182.76 161.22) rotate(-48.82)"/><ellipse class="cls-8" cx="95.63" cy="279.47" rx="1.14" ry="0.87" transform="translate(-177.67 167.41) rotate(-48.82)"/><ellipse class="cls-8" cx="39.38" cy="304.46" rx="1.14" ry="0.87" transform="translate(-215.68 133.61) rotate(-48.82)"/><ellipse class="cls-8" cx="48.75" cy="301.95" rx="1.14" ry="0.87" transform="translate(-210.59 139.81) rotate(-48.82)"/><ellipse class="cls-8" cx="58.13" cy="299.43" rx="1.14" ry="0.87" transform="translate(-205.5 146.01) rotate(-48.82)"/><ellipse class="cls-8" cx="67.5" cy="296.92" rx="1.14" ry="0.87" transform="translate(-200.41 152.21) rotate(-48.82)"/><ellipse class="cls-8" cx="76.88" cy="294.41" rx="1.14" ry="0.87" transform="translate(-195.32 158.4) rotate(-48.82)"/><ellipse class="cls-8" cx="86.25" cy="291.9" rx="1.14" ry="0.87" transform="translate(-190.22 164.6) rotate(-48.82)"/><ellipse class="cls-8" cx="95.63" cy="289.39" rx="1.14" ry="0.87" transform="translate(-185.13 170.8) rotate(-48.82)"/><ellipse class="cls-8" cx="39.38" cy="314.37" rx="1.14" ry="0.87" transform="translate(-223.14 137) rotate(-48.82)"/><ellipse class="cls-8" cx="48.75" cy="311.86" rx="1.14" ry="0.87" transform="translate(-218.05 143.19) rotate(-48.82)"/><ellipse class="cls-8" cx="58.13" cy="309.34" rx="1.14" ry="0.87" transform="translate(-212.96 149.39) rotate(-48.82)"/><ellipse class="cls-8" cx="67.5" cy="306.83" rx="1.14" ry="0.87" transform="translate(-207.87 155.59) rotate(-48.82)"/><ellipse class="cls-8" cx="76.88" cy="304.32" rx="1.14" ry="0.87" transform="translate(-202.77 161.79) rotate(-48.82)"/><ellipse class="cls-8" cx="86.25" cy="301.81" rx="1.14" ry="0.87" transform="translate(-197.68 167.99) rotate(-48.82)"/><ellipse class="cls-8" cx="95.63" cy="299.3" rx="1.14" ry="0.87" transform="translate(-192.59 174.18) rotate(-48.82)"/><path class="cls-6" d="M39.44,331.44a18.65,18.65,0,0,0-5.18,2.14,7.77,7.77,0,0,0-3.56,4.13,2.64,2.64,0,0,0,.58,2.55,4.42,4.42,0,0,0,2.48,1.17,14.27,14.27,0,0,0,5.62-.45,14.18,14.18,0,0,1-5.64.57,4.49,4.49,0,0,1-2.59-1.16,2.84,2.84,0,0,1-.69-2.74,8,8,0,0,1,3.6-4.38A18.92,18.92,0,0,1,39.31,331a.25.25,0,1,1,.14.48Z"/><path class="cls-6" d="M39.44,351.35a13.92,13.92,0,0,1-5.78.41,4.53,4.53,0,0,1-2.6-1.35,3.12,3.12,0,0,1-.61-2.83,8.11,8.11,0,0,1,3.64-4.38A18.24,18.24,0,0,1,39.38,341a18,18,0,0,0-5.22,2.33,7.82,7.82,0,0,0-3.46,4.33,2.8,2.8,0,0,0,.59,2.56,4.21,4.21,0,0,0,2.44,1.19,13.42,13.42,0,0,0,5.58-.53h0a.26.26,0,0,1,.31.18.25.25,0,0,1-.18.3Z"/><path class="cls-6" d="M39.44,361.3a14.11,14.11,0,0,1-5.75.43,4.46,4.46,0,0,1-2.61-1.3,3,3,0,0,1-.62-2.8,8,8,0,0,1,3.65-4.33,18.75,18.75,0,0,1,5.27-2.2,18.53,18.53,0,0,0-5.2,2.31,7.79,7.79,0,0,0-3.48,4.28,2.67,2.67,0,0,0,.61,2.53,4.12,4.12,0,0,0,2.44,1.14,13.65,13.65,0,0,0,5.56-.55h0a.25.25,0,1,1,.13.49Z"/><path class="cls-6" d="M39.44,371.25a14.29,14.29,0,0,1-5.75.44,4.54,4.54,0,0,1-2.61-1.31,3,3,0,0,1-.62-2.8,8,8,0,0,1,3.65-4.33,18.73,18.73,0,0,1,5.27-2.19,18.51,18.51,0,0,0-5.2,2.3,7.79,7.79,0,0,0-3.48,4.28,2.67,2.67,0,0,0,.61,2.53,4.19,4.19,0,0,0,2.44,1.15,13.83,13.83,0,0,0,5.56-.55h0a.25.25,0,0,1,.31.17.26.26,0,0,1-.18.31Z"/><path class="cls-6" d="M49,328.69a5.51,5.51,0,0,1-1.33,3.45,7,7,0,0,1-3,2.06,4.89,4.89,0,0,1-3.61,0,2.66,2.66,0,0,1-1.3-1.24,3.88,3.88,0,0,1-.36-1.77,3.87,3.87,0,0,0,.41,1.74,2.62,2.62,0,0,0,1.3,1.16,4.73,4.73,0,0,0,3.47-.14,6.51,6.51,0,0,0,2.82-2.06,5.06,5.06,0,0,0,1.12-3.21.26.26,0,0,1,.25-.26.25.25,0,0,1,.25.25Z"/><path class="cls-6" d="M58.38,326.18a5.51,5.51,0,0,1-1.33,3.45,7,7,0,0,1-3,2.06,5,5,0,0,1-3.6,0,2.7,2.7,0,0,1-1.31-1.25,3.94,3.94,0,0,1-.36-1.76,3.88,3.88,0,0,0,.42,1.74,2.62,2.62,0,0,0,1.3,1.16,4.76,4.76,0,0,0,3.46-.14,6.64,6.64,0,0,0,2.83-2.06,5.06,5.06,0,0,0,1.12-3.21.25.25,0,1,1,.5,0Z"/><path class="cls-6" d="M67.75,323.66a5.46,5.46,0,0,1-1.33,3.45,6.82,6.82,0,0,1-3,2.06,4.94,4.94,0,0,1-3.61,0,2.72,2.72,0,0,1-1.3-1.25,3.84,3.84,0,0,1-.36-1.76,3.8,3.8,0,0,0,.41,1.73,2.64,2.64,0,0,0,1.3,1.17,4.78,4.78,0,0,0,3.47-.14,6.67,6.67,0,0,0,2.82-2.06,5.07,5.07,0,0,0,1.12-3.22.25.25,0,0,1,.25-.25.25.25,0,0,1,.25.25Z"/><path class="cls-6" d="M77.13,321.15a5.49,5.49,0,0,1-1.33,3.45,6.85,6.85,0,0,1-3,2.06,4.92,4.92,0,0,1-3.6,0,2.74,2.74,0,0,1-1.31-1.25,4,4,0,0,1-.36-1.77,3.85,3.85,0,0,0,.42,1.74,2.62,2.62,0,0,0,1.3,1.16,4.71,4.71,0,0,0,3.46-.13,6.64,6.64,0,0,0,2.83-2.06,5.09,5.09,0,0,0,1.12-3.22.25.25,0,0,1,.24-.25.25.25,0,0,1,.26.24Z"/><path class="cls-6" d="M86.5,318.64a5.51,5.51,0,0,1-1.33,3.45,6.82,6.82,0,0,1-3,2.06,4.94,4.94,0,0,1-3.61,0,2.72,2.72,0,0,1-1.3-1.25,3.88,3.88,0,0,1-.36-1.77,3.87,3.87,0,0,0,.41,1.74,2.62,2.62,0,0,0,1.3,1.16,4.78,4.78,0,0,0,3.47-.13,6.61,6.61,0,0,0,2.82-2.07A5,5,0,0,0,86,318.64a.25.25,0,0,1,.25-.25.23.23,0,0,1,.25.24Z"/><path class="cls-6" d="M95.88,316.13a5.51,5.51,0,0,1-1.33,3.45,7,7,0,0,1-3,2.06,4.87,4.87,0,0,1-3.6,0,2.68,2.68,0,0,1-1.31-1.24,4,4,0,0,1-.36-1.77,3.88,3.88,0,0,0,.42,1.74,2.62,2.62,0,0,0,1.3,1.16,4.71,4.71,0,0,0,3.46-.14,6.48,6.48,0,0,0,2.83-2.06,5.06,5.06,0,0,0,1.12-3.21.26.26,0,0,1,.24-.26.26.26,0,0,1,.26.25Z"/><path class="cls-6" d="M49,338.47a5.51,5.51,0,0,1-1.33,3.45,7,7,0,0,1-3,2.06A5,5,0,0,1,41,344a2.68,2.68,0,0,1-1.3-1.25,3.84,3.84,0,0,1-.36-1.76,3.8,3.8,0,0,0,.41,1.73,2.64,2.64,0,0,0,1.3,1.17,4.78,4.78,0,0,0,3.47-.14,6.67,6.67,0,0,0,2.82-2.06,5.06,5.06,0,0,0,1.12-3.21.26.26,0,0,1,.25-.26.25.25,0,0,1,.25.25Z"/><path class="cls-6" d="M58.38,336a5.49,5.49,0,0,1-1.33,3.45,6.85,6.85,0,0,1-3,2.06,4.92,4.92,0,0,1-3.6,0,2.74,2.74,0,0,1-1.31-1.25,4,4,0,0,1-.36-1.76,3.81,3.81,0,0,0,.42,1.73,2.62,2.62,0,0,0,1.3,1.16,4.71,4.71,0,0,0,3.46-.13,6.64,6.64,0,0,0,2.83-2.06A5.07,5.07,0,0,0,57.88,336a.25.25,0,0,1,.5,0Z"/><path class="cls-6" d="M67.75,333.44a5.49,5.49,0,0,1-1.33,3.45,6.82,6.82,0,0,1-3,2.06,4.94,4.94,0,0,1-3.61,0,2.72,2.72,0,0,1-1.3-1.25,3.85,3.85,0,0,1-.36-1.77,3.84,3.84,0,0,0,.41,1.74,2.62,2.62,0,0,0,1.3,1.16,4.73,4.73,0,0,0,3.47-.13,6.67,6.67,0,0,0,2.82-2.06,5.09,5.09,0,0,0,1.12-3.22.25.25,0,0,1,.25-.25.23.23,0,0,1,.25.24Z"/><path class="cls-6" d="M77.13,330.93a5.51,5.51,0,0,1-1.33,3.45,7,7,0,0,1-3,2.06,4.87,4.87,0,0,1-3.6,0,2.68,2.68,0,0,1-1.31-1.24,4,4,0,0,1-.36-1.77,3.88,3.88,0,0,0,.42,1.74,2.62,2.62,0,0,0,1.3,1.16,4.71,4.71,0,0,0,3.46-.14,6.48,6.48,0,0,0,2.83-2.06,5,5,0,0,0,1.12-3.21.26.26,0,0,1,.24-.26.26.26,0,0,1,.26.25Z"/><path class="cls-6" d="M86.5,328.42a5.51,5.51,0,0,1-1.33,3.45,7,7,0,0,1-3,2.06,4.94,4.94,0,0,1-3.61,0,2.7,2.7,0,0,1-1.3-1.24,3.88,3.88,0,0,1-.36-1.77,3.87,3.87,0,0,0,.41,1.74,2.62,2.62,0,0,0,1.3,1.16,4.73,4.73,0,0,0,3.47-.14,6.67,6.67,0,0,0,2.82-2.06A5.06,5.06,0,0,0,86,328.42a.26.26,0,0,1,.25-.26.25.25,0,0,1,.25.25Z"/><path class="cls-6" d="M95.88,325.91a5.51,5.51,0,0,1-1.33,3.45,6.91,6.91,0,0,1-3,2.05,4.92,4.92,0,0,1-3.6,0,2.7,2.7,0,0,1-1.31-1.25,4,4,0,0,1-.36-1.76,3.81,3.81,0,0,0,.42,1.73,2.64,2.64,0,0,0,1.3,1.17,4.76,4.76,0,0,0,3.46-.14,6.64,6.64,0,0,0,2.83-2.06,5.06,5.06,0,0,0,1.12-3.21.25.25,0,1,1,.5,0Z"/><path class="cls-6" d="M49,348.52A5.51,5.51,0,0,1,47.67,352a7,7,0,0,1-3,2.06A4.94,4.94,0,0,1,41,354a2.7,2.7,0,0,1-1.3-1.24,3.88,3.88,0,0,1-.36-1.77,3.87,3.87,0,0,0,.41,1.74,2.62,2.62,0,0,0,1.3,1.16,4.73,4.73,0,0,0,3.47-.14,6.67,6.67,0,0,0,2.82-2.06,5.06,5.06,0,0,0,1.12-3.21.26.26,0,0,1,.25-.26.25.25,0,0,1,.25.25Z"/><path class="cls-6" d="M58.38,346a5.51,5.51,0,0,1-1.33,3.46,6.91,6.91,0,0,1-3,2.05,4.92,4.92,0,0,1-3.6,0,2.74,2.74,0,0,1-1.31-1.25,4,4,0,0,1-.36-1.76,3.81,3.81,0,0,0,.42,1.73,2.64,2.64,0,0,0,1.3,1.17,4.76,4.76,0,0,0,3.46-.14,6.64,6.64,0,0,0,2.83-2.06A5.07,5.07,0,0,0,57.88,346a.25.25,0,0,1,.24-.25.26.26,0,0,1,.26.25Z"/><path class="cls-6" d="M67.75,343.49a5.49,5.49,0,0,1-1.33,3.45,6.82,6.82,0,0,1-3,2.06,4.94,4.94,0,0,1-3.61,0,2.72,2.72,0,0,1-1.3-1.25,3.85,3.85,0,0,1-.36-1.77,3.84,3.84,0,0,0,.41,1.74,2.62,2.62,0,0,0,1.3,1.16,4.73,4.73,0,0,0,3.47-.13,6.67,6.67,0,0,0,2.82-2.06,5.09,5.09,0,0,0,1.12-3.22.25.25,0,0,1,.5,0Z"/><path class="cls-6" d="M77.13,341a5.49,5.49,0,0,1-1.33,3.45,6.85,6.85,0,0,1-3,2.06,4.92,4.92,0,0,1-3.6,0,2.74,2.74,0,0,1-1.31-1.25,4,4,0,0,1-.36-1.77,3.88,3.88,0,0,0,.42,1.74,2.62,2.62,0,0,0,1.3,1.16,4.71,4.71,0,0,0,3.46-.13,6.58,6.58,0,0,0,2.83-2.07A5,5,0,0,0,76.63,341a.25.25,0,0,1,.24-.25.24.24,0,0,1,.26.24Z"/><path class="cls-6" d="M86.5,338.47a5.51,5.51,0,0,1-1.33,3.45,7,7,0,0,1-3,2.06,4.89,4.89,0,0,1-3.61,0,2.66,2.66,0,0,1-1.3-1.24,3.88,3.88,0,0,1-.36-1.77,3.87,3.87,0,0,0,.41,1.74,2.62,2.62,0,0,0,1.3,1.16,4.73,4.73,0,0,0,3.47-.14,6.51,6.51,0,0,0,2.82-2.06A5,5,0,0,0,86,338.47a.26.26,0,0,1,.25-.26.25.25,0,0,1,.25.25Z"/><path class="cls-6" d="M95.88,336a5.51,5.51,0,0,1-1.33,3.45,7,7,0,0,1-3,2.06,4.92,4.92,0,0,1-3.6,0,2.7,2.7,0,0,1-1.31-1.25,3.94,3.94,0,0,1-.36-1.76,3.88,3.88,0,0,0,.42,1.74,2.62,2.62,0,0,0,1.3,1.16,4.76,4.76,0,0,0,3.46-.14,6.64,6.64,0,0,0,2.83-2.06A5.06,5.06,0,0,0,95.38,336a.25.25,0,1,1,.5,0Z"/><path class="cls-6" d="M49,358.54A5.46,5.46,0,0,1,47.67,362a6.82,6.82,0,0,1-3,2.06,4.94,4.94,0,0,1-3.61,0,2.72,2.72,0,0,1-1.3-1.25,3.84,3.84,0,0,1-.36-1.76,3.8,3.8,0,0,0,.41,1.73,2.64,2.64,0,0,0,1.3,1.17,4.78,4.78,0,0,0,3.47-.14,6.67,6.67,0,0,0,2.82-2.06,5.07,5.07,0,0,0,1.12-3.22.25.25,0,0,1,.25-.25.25.25,0,0,1,.25.25Z"/><path class="cls-6" d="M58.38,356a5.49,5.49,0,0,1-1.33,3.45,6.85,6.85,0,0,1-3,2.06,4.92,4.92,0,0,1-3.6,0,2.74,2.74,0,0,1-1.31-1.25,4,4,0,0,1-.36-1.77,3.85,3.85,0,0,0,.42,1.74,2.62,2.62,0,0,0,1.3,1.16,4.71,4.71,0,0,0,3.46-.13,6.64,6.64,0,0,0,2.83-2.06A5.09,5.09,0,0,0,57.88,356a.25.25,0,0,1,.24-.25.25.25,0,0,1,.26.24Z"/><path class="cls-6" d="M67.75,353.52A5.51,5.51,0,0,1,66.42,357a6.9,6.9,0,0,1-3,2.06,4.94,4.94,0,0,1-3.61,0,2.72,2.72,0,0,1-1.3-1.25,3.88,3.88,0,0,1-.36-1.77,3.87,3.87,0,0,0,.41,1.74,2.62,2.62,0,0,0,1.3,1.16,4.73,4.73,0,0,0,3.47-.14,6.51,6.51,0,0,0,2.82-2.06,5,5,0,0,0,1.12-3.21.25.25,0,0,1,.25-.25.23.23,0,0,1,.25.24Z"/><path class="cls-6" d="M77.13,351a5.51,5.51,0,0,1-1.33,3.45,7,7,0,0,1-3,2.06,4.87,4.87,0,0,1-3.6,0,2.68,2.68,0,0,1-1.31-1.24,4,4,0,0,1-.36-1.77,3.88,3.88,0,0,0,.42,1.74,2.62,2.62,0,0,0,1.3,1.16,4.71,4.71,0,0,0,3.46-.14,6.56,6.56,0,0,0,2.83-2.06A5.06,5.06,0,0,0,76.63,351a.26.26,0,0,1,.24-.26.26.26,0,0,1,.26.25Z"/><path class="cls-6" d="M86.5,348.5A5.51,5.51,0,0,1,85.17,352a7,7,0,0,1-3,2.06,5,5,0,0,1-3.61,0,2.68,2.68,0,0,1-1.3-1.25,3.81,3.81,0,0,1-.36-1.76,3.87,3.87,0,0,0,.41,1.74,2.62,2.62,0,0,0,1.3,1.16,4.78,4.78,0,0,0,3.47-.14,6.67,6.67,0,0,0,2.82-2.06A5.06,5.06,0,0,0,86,348.5a.26.26,0,0,1,.25-.26.25.25,0,0,1,.25.25Z"/><path class="cls-6" d="M95.88,346a5.49,5.49,0,0,1-1.33,3.45,6.85,6.85,0,0,1-3,2.06,4.92,4.92,0,0,1-3.6,0,2.74,2.74,0,0,1-1.31-1.25,4,4,0,0,1-.36-1.76,3.81,3.81,0,0,0,.42,1.73A2.64,2.64,0,0,0,88,351.4a4.76,4.76,0,0,0,3.46-.14,6.64,6.64,0,0,0,2.83-2.06A5.07,5.07,0,0,0,95.38,346a.25.25,0,0,1,.24-.25.26.26,0,0,1,.26.25Z"/><path class="cls-6" d="M49,368.57A5.49,5.49,0,0,1,47.67,372a6.82,6.82,0,0,1-3,2.06,4.94,4.94,0,0,1-3.61,0,2.72,2.72,0,0,1-1.3-1.25,3.85,3.85,0,0,1-.36-1.77,3.84,3.84,0,0,0,.41,1.74,2.62,2.62,0,0,0,1.3,1.16,4.73,4.73,0,0,0,3.47-.13,6.67,6.67,0,0,0,2.82-2.06,5.09,5.09,0,0,0,1.12-3.22.25.25,0,0,1,.25-.25.23.23,0,0,1,.25.24Z"/><path class="cls-6" d="M58.38,366.06a5.51,5.51,0,0,1-1.33,3.45,7,7,0,0,1-3,2.06,4.87,4.87,0,0,1-3.6,0,2.68,2.68,0,0,1-1.31-1.24,4,4,0,0,1-.36-1.77,3.88,3.88,0,0,0,.42,1.74,2.62,2.62,0,0,0,1.3,1.16,4.71,4.71,0,0,0,3.46-.14,6.48,6.48,0,0,0,2.83-2.06,5,5,0,0,0,1.12-3.21.26.26,0,0,1,.24-.26.26.26,0,0,1,.26.25Z"/><path class="cls-6" d="M67.75,363.55A5.51,5.51,0,0,1,66.42,367a7,7,0,0,1-3,2.06,4.94,4.94,0,0,1-3.61,0,2.7,2.7,0,0,1-1.3-1.24,3.88,3.88,0,0,1-.36-1.77,3.87,3.87,0,0,0,.41,1.74,2.62,2.62,0,0,0,1.3,1.16,4.73,4.73,0,0,0,3.47-.14,6.67,6.67,0,0,0,2.82-2.06,5.06,5.06,0,0,0,1.12-3.21.26.26,0,0,1,.25-.26.25.25,0,0,1,.25.25Z"/><path class="cls-6" d="M77.13,361a5.51,5.51,0,0,1-1.33,3.45,6.91,6.91,0,0,1-3,2.05,4.92,4.92,0,0,1-3.6,0,2.7,2.7,0,0,1-1.31-1.25,4,4,0,0,1-.36-1.76,3.81,3.81,0,0,0,.42,1.73,2.64,2.64,0,0,0,1.3,1.17,4.76,4.76,0,0,0,3.46-.14,6.64,6.64,0,0,0,2.83-2.06A5.06,5.06,0,0,0,76.63,361a.25.25,0,1,1,.5,0Z"/><path class="cls-6" d="M86.5,358.52A5.49,5.49,0,0,1,85.17,362a6.82,6.82,0,0,1-3,2.06,4.94,4.94,0,0,1-3.61,0,2.72,2.72,0,0,1-1.3-1.25,3.84,3.84,0,0,1-.36-1.76,3.83,3.83,0,0,0,.41,1.73,2.62,2.62,0,0,0,1.3,1.16,4.73,4.73,0,0,0,3.47-.13,6.67,6.67,0,0,0,2.82-2.06A5.09,5.09,0,0,0,86,358.52a.25.25,0,0,1,.25-.25.25.25,0,0,1,.25.24Z"/><path class="cls-6" d="M95.88,356a5.49,5.49,0,0,1-1.33,3.45,6.85,6.85,0,0,1-3,2.06,4.92,4.92,0,0,1-3.6,0,2.74,2.74,0,0,1-1.31-1.25,4,4,0,0,1-.36-1.77,3.85,3.85,0,0,0,.42,1.74,2.62,2.62,0,0,0,1.3,1.16,4.71,4.71,0,0,0,3.46-.13,6.58,6.58,0,0,0,2.83-2.07A5,5,0,0,0,95.38,356a.25.25,0,0,1,.24-.25.24.24,0,0,1,.26.24Z"/><polygon class="cls-7" points="41.88 328.03 41.88 333.03 36.88 334.37 36.88 329.37 41.88 328.03"/><polygon class="cls-7" points="41.88 337.94 41.88 342.94 36.88 344.28 36.88 339.28 41.88 337.94"/><polygon class="cls-7" points="41.88 357.76 41.88 362.76 36.88 364.1 36.88 359.1 41.88 357.76"/><polygon class="cls-7" points="41.88 367.67 41.88 372.67 36.88 374.01 36.88 369.01 41.88 367.67"/><polygon class="cls-7" points="41.88 347.85 41.88 352.85 36.88 354.19 36.88 349.19 41.88 347.85"/><polygon class="cls-7" points="51.25 335.43 51.25 340.43 46.25 341.77 46.25 336.77 51.25 335.43"/><polygon class="cls-7" points="51.25 355.25 51.25 360.25 46.25 361.59 46.25 356.59 51.25 355.25"/><polygon class="cls-7" points="51.25 365.16 51.25 370.16 46.25 371.5 46.25 366.5 51.25 365.16"/><polygon class="cls-7" points="51.25 345.34 51.25 350.34 46.25 351.68 46.25 346.68 51.25 345.34"/><polygon class="cls-7" points="51.25 325.52 51.25 330.52 46.25 331.86 46.25 326.86 51.25 325.52"/><polygon class="cls-7" points="60.63 332.92 60.63 337.92 55.63 339.26 55.63 334.26 60.63 332.92"/><polygon class="cls-7" points="60.63 352.74 60.63 357.74 55.63 359.08 55.63 354.08 60.63 352.74"/><polygon class="cls-7" points="60.63 362.65 60.63 367.65 55.63 368.99 55.63 363.99 60.63 362.65"/><polygon class="cls-7" points="60.63 342.83 60.63 347.83 55.63 349.17 55.63 344.17 60.63 342.83"/><polygon class="cls-7" points="60.63 323.01 60.63 328.01 55.63 329.35 55.63 324.35 60.63 323.01"/><polygon class="cls-7" points="70 330.4 70 335.4 65 336.75 65 331.75 70 330.4"/><polygon class="cls-7" points="70 350.23 70 355.23 65 356.57 65 351.57 70 350.23"/><polygon class="cls-7" points="70 360.14 70 365.14 65 366.48 65 361.48 70 360.14"/><polygon class="cls-7" points="70 340.32 70 345.32 65 346.66 65 341.66 70 340.32"/><polygon class="cls-7" points="70 320.5 70 325.5 65 326.83 65 321.83 70 320.5"/><polygon class="cls-7" points="79.38 327.89 79.38 332.89 74.38 334.23 74.38 329.23 79.38 327.89"/><polygon class="cls-7" points="79.38 347.71 79.38 352.71 74.38 354.05 74.38 349.05 79.38 347.71"/><polygon class="cls-7" points="79.38 357.63 79.38 362.63 74.38 363.96 74.38 358.96 79.38 357.63"/><polygon class="cls-7" points="79.38 337.8 79.38 342.8 74.38 344.14 74.38 339.14 79.38 337.8"/><polygon class="cls-7" points="79.38 317.98 79.38 322.98 74.38 324.32 74.38 319.32 79.38 317.98"/><polygon class="cls-7" points="88.75 315.47 88.75 320.47 83.75 321.81 83.75 316.81 88.75 315.47"/><polygon class="cls-7" points="88.75 335.29 88.75 340.29 83.75 341.63 83.75 336.63 88.75 335.29"/><polygon class="cls-7" points="88.75 355.11 88.75 360.11 83.75 361.45 83.75 356.45 88.75 355.11"/><polygon class="cls-7" points="88.75 345.2 88.75 350.2 83.75 351.54 83.75 346.54 88.75 345.2"/><polygon class="cls-7" points="88.75 325.38 88.75 330.38 83.75 331.72 83.75 326.72 88.75 325.38"/><polygon class="cls-7" points="98.13 322.87 98.13 327.87 93.13 329.21 93.13 324.21 98.13 322.87"/><polygon class="cls-7" points="98.13 342.69 98.13 347.69 93.13 349.03 93.13 344.03 98.13 342.69"/><polygon class="cls-7" points="98.13 352.6 98.13 357.6 93.13 358.94 93.13 353.94 98.13 352.6"/><polygon class="cls-7" points="98.13 332.78 98.13 337.78 93.13 339.12 93.13 334.12 98.13 332.78"/><polygon class="cls-7" points="98.13 312.96 98.13 317.96 93.13 319.3 93.13 314.3 98.13 312.96"/><ellipse class="cls-8" cx="39.38" cy="331.2" rx="1.14" ry="0.87" transform="translate(-235.81 142.75) rotate(-48.82)"/><ellipse class="cls-8" cx="48.75" cy="328.69" rx="1.14" ry="0.87" transform="translate(-230.72 148.94) rotate(-48.82)"/><ellipse class="cls-8" cx="58.13" cy="326.18" rx="1.14" ry="0.87" transform="translate(-225.63 155.14) rotate(-48.82)"/><ellipse class="cls-8" cx="67.5" cy="323.66" rx="1.14" ry="0.87" transform="translate(-220.53 161.34) rotate(-48.82)"/><ellipse class="cls-8" cx="76.88" cy="321.15" rx="1.14" ry="0.87" transform="translate(-215.44 167.54) rotate(-48.82)"/><ellipse class="cls-8" cx="86.25" cy="318.64" rx="1.14" ry="0.87" transform="translate(-210.35 173.73) rotate(-48.82)"/><ellipse class="cls-8" cx="95.63" cy="316.13" rx="1.14" ry="0.87" transform="translate(-205.26 179.93) rotate(-48.82)"/><ellipse class="cls-8" cx="39.38" cy="340.9" rx="1.14" ry="0.87" transform="translate(-243.11 146.06) rotate(-48.82)"/><ellipse class="cls-8" cx="48.75" cy="338.39" rx="1.14" ry="0.87" transform="translate(-238.02 152.26) rotate(-48.82)"/><ellipse class="cls-8" cx="58.13" cy="335.88" rx="1.14" ry="0.87" transform="translate(-232.93 158.45) rotate(-48.82)"/><ellipse class="cls-8" cx="67.5" cy="333.36" rx="1.14" ry="0.87" transform="translate(-227.83 164.65) rotate(-48.82)"/><ellipse class="cls-8" cx="76.88" cy="330.85" rx="1.14" ry="0.87" transform="translate(-222.74 170.85) rotate(-48.82)"/><ellipse class="cls-8" cx="86.25" cy="328.34" rx="1.14" ry="0.87" transform="translate(-217.65 177.05) rotate(-48.82)"/><ellipse class="cls-8" cx="95.63" cy="325.83" rx="1.14" ry="0.87" transform="translate(-212.56 183.24) rotate(-48.82)"/><ellipse class="cls-8" cx="39.38" cy="351.02" rx="1.14" ry="0.87" transform="translate(-250.73 149.51) rotate(-48.82)"/><ellipse class="cls-8" cx="48.75" cy="348.51" rx="1.14" ry="0.87" transform="translate(-245.64 155.71) rotate(-48.82)"/><ellipse class="cls-8" cx="58.13" cy="346" rx="1.14" ry="0.87" transform="translate(-240.54 161.91) rotate(-48.82)"/><ellipse class="cls-8" cx="67.5" cy="343.49" rx="1.14" ry="0.87" transform="translate(-235.45 168.11) rotate(-48.82)"/><ellipse class="cls-8" cx="76.88" cy="340.97" rx="1.14" ry="0.87" transform="translate(-230.36 174.3) rotate(-48.82)"/><ellipse class="cls-8" cx="86.25" cy="338.46" rx="1.14" ry="0.87" transform="translate(-225.27 180.5) rotate(-48.82)"/><ellipse class="cls-8" cx="95.63" cy="335.95" rx="1.14" ry="0.87" transform="translate(-220.17 186.7) rotate(-48.82)"/><ellipse class="cls-8" cx="39.38" cy="360.93" rx="1.14" ry="0.87" transform="translate(-258.19 152.9) rotate(-48.82)"/><ellipse class="cls-8" cx="48.75" cy="358.42" rx="1.14" ry="0.87" transform="translate(-253.09 159.1) rotate(-48.82)"/><ellipse class="cls-8" cx="58.13" cy="355.91" rx="1.14" ry="0.87" transform="translate(-248 165.29) rotate(-48.82)"/><ellipse class="cls-8" cx="67.5" cy="353.4" rx="1.14" ry="0.87" transform="translate(-242.91 171.49) rotate(-48.82)"/><ellipse class="cls-8" cx="76.88" cy="350.88" rx="1.14" ry="0.87" transform="translate(-237.82 177.69) rotate(-48.82)"/><ellipse class="cls-8" cx="86.25" cy="348.37" rx="1.14" ry="0.87" transform="translate(-232.73 183.89) rotate(-48.82)"/><ellipse class="cls-8" cx="95.63" cy="345.86" rx="1.14" ry="0.87" transform="translate(-227.63 190.08) rotate(-48.82)"/><ellipse class="cls-8" cx="39.38" cy="370.84" rx="1.14" ry="0.87" transform="translate(-265.65 156.28) rotate(-48.82)"/><ellipse class="cls-8" cx="48.75" cy="368.33" rx="1.14" ry="0.87" transform="translate(-260.55 162.48) rotate(-48.82)"/><ellipse class="cls-8" cx="58.13" cy="365.82" rx="1.14" ry="0.87" transform="translate(-255.46 168.68) rotate(-48.82)"/><ellipse class="cls-8" cx="67.5" cy="363.31" rx="1.14" ry="0.87" transform="translate(-250.37 174.88) rotate(-48.82)"/><ellipse class="cls-8" cx="76.88" cy="360.8" rx="1.14" ry="0.87" transform="translate(-245.28 181.07) rotate(-48.82)"/><ellipse class="cls-8" cx="86.25" cy="358.28" rx="1.14" ry="0.87" transform="translate(-240.18 187.27) rotate(-48.82)"/><ellipse class="cls-8" cx="95.63" cy="355.77" rx="1.14" ry="0.87" transform="translate(-235.09 193.47) rotate(-48.82)"/><polygon class="cls-9" points="112 109.69 112 134.19 52.5 150.13 52.5 125.63 112 109.69"/><polygon class="cls-9" points="52.5 125.63 52.5 150.13 28 156.7 28 132.2 52.5 125.63"/><polygon class="cls-9" points="112 137.53 112 162.03 52.5 177.97 52.5 153.47 112 137.53"/><polygon class="cls-9" points="52.5 153.47 52.5 177.97 28 184.54 28 160.04 52.5 153.47"/><polygon class="cls-9" points="112 165.37 112 189.87 52.5 205.81 52.5 181.31 112 165.37"/><polygon class="cls-9" points="52.5 181.31 52.5 205.81 28 212.38 28 187.88 52.5 181.31"/><polygon class="cls-9" points="112 193.22 112 217.72 52.5 233.66 52.5 209.16 112 193.22"/><polygon class="cls-9" points="52.5 209.16 52.5 233.66 28 240.22 28 215.72 52.5 209.16"/><polygon class="cls-9" points="112 221.05 112 245.55 52.5 261.5 52.5 237 112 221.05"/><polygon class="cls-9" points="52.5 237 52.5 261.5 28 268.06 28 243.56 52.5 237"/><text class="cls-10" transform="matrix(1.06, -0.28, 0, 1, 32.32, 148.02)">95</text><text class="cls-10" transform="matrix(1.06, -0.28, 0, 1, 32.32, 175.86)">92</text><text class="cls-10" transform="matrix(1.06, -0.28, 0, 1, 30.43, 203.71)"></text><text class="cls-11" transform="matrix(1.06, -0.28, 0, 1, 28.89, 231.78)"><tspan class="cls-12" x="5.17" y="0"></tspan><tspan class="cls-13" x="14.32" y="0"></tspan></text><text class="cls-10" transform="matrix(1.06, -0.28, 0, 1, 32.32, 259.39)">98</text><line class="cls-14" x1="85.19" y1="42" x2="85.18" y2="42.01"/><line class="cls-14" x1="54.81" y1="50.14" x2="54.8" y2="50.15"/><line class="cls-15" x1="28.75" y1="134" x2="51.75" y2="127.84"/><line class="cls-15" x1="28.75" y1="154.5" x2="51.75" y2="148.34"/><line class="cls-15" x1="28.75" y1="161.84" x2="51.75" y2="155.68"/><line class="cls-15" x1="28.75" y1="182.34" x2="51.75" y2="176.18"/><line class="cls-15" x1="28.75" y1="189.68" x2="51.75" y2="183.52"/><line class="cls-15" x1="28.75" y1="210.18" x2="51.75" y2="204.02"/><line class="cls-15" x1="28.75" y1="217.52" x2="51.75" y2="211.36"/><line class="cls-15" x1="28.75" y1="238.02" x2="51.75" y2="231.86"/><line class="cls-15" x1="28.75" y1="245.36" x2="51.75" y2="239.2"/><line class="cls-15" x1="28.75" y1="265.45" x2="51.75" y2="259.29"/><polygon class="cls-16" points="109.25 134.31 55.25 148.77 55.25 125.77 109.25 111.31 109.25 134.31"/><polygon class="cls-16" points="109.25 162.02 55.25 176.49 55.25 153.49 109.25 139.02 109.25 162.02"/><polygon class="cls-16" points="109.25 189.86 55.25 204.33 55.25 181.33 109.25 166.86 109.25 189.86"/><polygon class="cls-16" points="109.25 217.7 55.25 232.17 55.25 209.17 109.25 194.7 109.25 217.7"/><polygon class="cls-16" points="109.25 245.4 55.25 259.87 55.25 236.87 109.25 222.4 109.25 245.4"/><path class="cls-17" d="M66.5,133.13v-7.75l-1.75-1.28-7,1.88L56,128.2v7.74l.88.65L56,137.7v8L57.75,147l7-1.88,1.75-2.22v-8h0l-.87-.65.87-1.1Zm-1.75,9.5-.73.92L58.48,145l-.73-.53V138l.73-.93L64,135.55l.73.53Zm0-9.76-.73.93-5.54,1.48-.73-.53v-6.29l.73-.93L64,126.05l.73.53Z"/><path class="cls-17" d="M78.75,129.85V122.1L77,120.82l-7,1.88-1.75,2.22v7.74l.88.64-.88,1.12v8L70,143.7l7-1.88,1.75-2.22v-8h0l-.87-.64.87-1.11ZM77,139.34l-.73.93-5.54,1.48-.73-.53v-6.55l.73-.92,5.54-1.48.73.53Zm0-9.75-.73.93L70.73,132l-.73-.53v-6.3l.73-.92,5.54-1.48.73.53Z"/><path class="cls-17" d="M98,124.69l.87.64L98,126.44h0v8l1.75,1.29,7-1.88,1.75-2.22v-8l-.88-.65.88-1.12v-7.74l-1.75-1.28-7,1.88L98,116.94v7.75Zm1.74,2,.73-.92,5.54-1.49.73.54v6.54l-.73.92-5.54,1.49-.73-.53Zm0-9.5.73-.92,5.54-1.49.73.54v6.29l-.73.92L100.48,124l-.73-.53Z"/><path class="cls-17" d="M85.76,128l.87.64-.87,1.11h0v8L87.5,139l7-1.88,1.75-2.22v-8l-.88-.65.88-1.12v-7.74l-1.75-1.28-7,1.88-1.75,2.22V128Zm1.74,2,.73-.92,5.54-1.48.73.53v6.54l-.73.93-5.54,1.48-.73-.53Zm0-9.49.73-.93,5.54-1.48.73.53v6.29l-.73.93-5.54,1.48-.73-.53Z"/><ellipse class="cls-17" cx="82.25" cy="138.66" rx="2" ry="1.53" transform="translate(-76.27 109.26) rotate(-48.82)"/><path class="cls-17" d="M66.5,161v-7.74l-1.75-1.29-7,1.88L56,156v7.74l.88.65L56,165.55v8l1.75,1.28,7-1.88,1.75-2.21v-8h0l-.87-.64.87-1.11Zm-1.75,9.5-.73.92-5.54,1.49-.73-.54V165.8l.73-.93L64,163.39l.73.53Zm0-9.75-.73.92-5.54,1.48-.73-.53V156.3l.73-.92L64,153.89l.73.53Z"/><path class="cls-17" d="M78.75,157.69v-7.75L77,148.66l-7,1.88-1.75,2.22v7.74l.88.64-.88,1.12v8L70,171.54l7-1.88,1.75-2.22v-8h0l-.87-.64.87-1.11ZM77,167.18l-.73.93-5.54,1.48-.73-.53v-6.55l.73-.92,5.54-1.48.73.53Zm0-9.75-.73.93-5.54,1.48-.73-.53V153l.73-.93,5.54-1.48.73.53Z"/><path class="cls-17" d="M98,152.53l.87.64L98,154.28h0v8l1.75,1.28,7-1.88,1.75-2.22v-8l-.88-.65.88-1.12V142l-1.75-1.28-7,1.88L98,144.79v7.74Zm1.74,2,.73-.92,5.54-1.49.73.54v6.54l-.73.93-5.54,1.48-.73-.53Zm0-9.5.73-.92,5.54-1.48.73.53v6.29l-.73.92-5.54,1.49-.73-.53Z"/><path class="cls-17" d="M85.76,155.81l.87.65-.87,1.1h0v8l1.75,1.28,7-1.88,1.75-2.22v-8l-.88-.65.88-1.11v-7.75L94.5,144l-7,1.88-1.75,2.22v7.75Zm1.74,2,.73-.93,5.54-1.48.73.53v6.55l-.73.92-5.54,1.48-.73-.53Zm0-9.5.73-.93,5.54-1.48.73.53v6.29l-.73.93-5.54,1.48-.73-.53Z"/><ellipse class="cls-17" cx="82.25" cy="166.51" rx="2" ry="1.53" transform="translate(-97.22 118.76) rotate(-48.82)"/><path class="cls-17" d="M66.5,188.82v-7.75l-1.75-1.28-7,1.87L56,183.88v7.74l.88.65L56,193.39v8l1.75,1.28,7-1.87,1.75-2.22v-8h0l-.87-.64.87-1.11Zm-1.75,9.49-.73.92-5.54,1.49-.73-.54v-6.54l.73-.92L64,191.23l.73.53Zm0-9.75-.73.92L58.48,191l-.73-.54v-6.29l.73-.92L64,181.73l.73.53Z"/><path class="cls-17" d="M78.75,185.53v-7.75L77,176.5l-7,1.88-1.75,2.22v7.74l.88.65-.88,1.11v8L70,199.38l7-1.88,1.75-2.22v-8h0l-.87-.65.87-1.1ZM77,195l-.73.92-5.54,1.48L70,196.9v-6.54l.73-.93L76.27,188l.73.53Zm0-9.76-.73.93-5.54,1.48-.73-.53v-6.29l.73-.93,5.54-1.48L77,179Z"/><path class="cls-17" d="M98,180.37l.87.64L98,182.12h0v8l1.75,1.28,7-1.88,1.75-2.22v-8l-.88-.65.88-1.11v-7.75l-1.75-1.28-7,1.88L98,172.63v7.75Zm1.74,2,.73-.92L106,180l.73.53v6.54L106,188l-5.54,1.48-.73-.53Zm0-9.49.73-.93,5.54-1.48.73.53v6.29l-.73.93-5.54,1.48-.73-.53Z"/><path class="cls-17" d="M85.76,183.66l.87.64-.87,1.11h0v8l1.75,1.28,7-1.88,1.75-2.21v-8l-.88-.64.88-1.12V173.1l-1.75-1.29-7,1.88-1.75,2.22v7.75Zm1.74,2,.73-.93,5.54-1.48.73.53v6.55l-.73.92-5.54,1.48-.73-.53Zm0-9.5.73-.93,5.54-1.48.73.53v6.3l-.73.92L88.23,183l-.73-.53Z"/><ellipse class="cls-17" cx="82.25" cy="194.35" rx="2" ry="1.53" transform="translate(-118.17 128.27) rotate(-48.82)"/><path class="cls-17" d="M66.5,216.66v-7.75l-1.75-1.28-7,1.87L56,211.72v7.74l.88.65L56,221.23v8l1.75,1.28,7-1.87,1.75-2.22v-8h0l-.87-.64.87-1.11Zm-1.75,9.49-.73.92-5.54,1.49-.73-.54v-6.54l.73-.92L64,219.07l.73.53Zm0-9.75-.73.92-5.54,1.49-.73-.54V212l.73-.92L64,209.57l.73.54Z"/><path class="cls-17" d="M78.75,213.37v-7.74L77,204.34l-7,1.88-1.75,2.22v7.74l.88.65L68.25,218v8L70,227.22l7-1.88,1.75-2.21v-8h0l-.87-.64.87-1.11ZM77,222.87l-.73.92-5.54,1.49-.73-.54V218.2l.73-.93,5.54-1.48.73.53Zm0-9.75-.73.92-5.54,1.48L70,215V208.7l.73-.92,5.54-1.49.73.53Z"/><path class="cls-17" d="M98,208.21l.87.65L98,210h0v8l1.75,1.28,7-1.88,1.75-2.22v-8l-.88-.65.88-1.11v-7.75l-1.75-1.28-7,1.88L98,200.47v7.75Zm1.74,2,.73-.93,5.54-1.48.73.53v6.55l-.73.92-5.54,1.48-.73-.53Zm0-9.5.73-.93,5.54-1.48.73.53v6.29l-.73.93-5.54,1.48-.73-.53Z"/><path class="cls-17" d="M85.76,211.5l.87.64-.87,1.11h0v8l1.75,1.28,7-1.87,1.75-2.22v-8l-.88-.64.88-1.12v-7.74l-1.75-1.28-7,1.87-1.75,2.22v7.75Zm1.74,2,.73-.92,5.54-1.49.73.53v6.55l-.73.92-5.54,1.49-.73-.54Zm0-9.5.73-.92,5.54-1.49.73.53v6.3l-.73.92-5.54,1.49-.73-.54Z"/><ellipse class="cls-17" cx="82.25" cy="222.19" rx="2" ry="1.53" transform="translate(-139.13 137.78) rotate(-48.82)"/><path class="cls-17" d="M66.5,244.5v-7.75l-1.75-1.28-7,1.87L56,239.56v7.74l.88.65L56,249.07v8l1.75,1.28,7-1.87,1.75-2.22v-8h0l-.87-.64.87-1.11ZM64.75,254l-.73.92-5.54,1.49-.73-.53v-6.55l.73-.92L64,246.91l.73.54Zm0-9.75-.73.92-5.54,1.49-.73-.53v-6.3l.73-.92L64,237.41l.73.54Z"/><path class="cls-17" d="M78.75,241.22v-7.75L77,232.19l-7,1.87-1.75,2.22V244l.88.65-.88,1.12v8L70,255.06l7-1.87L78.75,251v-8h0l-.87-.64.87-1.11ZM77,250.71l-.73.92-5.54,1.49-.73-.54V246l.73-.92,5.54-1.49.73.53ZM77,241l-.73.92-5.54,1.49-.73-.54v-6.29l.73-.92,5.54-1.49.73.53Z"/><path class="cls-17" d="M98,236.06l.87.64L98,237.81h0v8l1.75,1.28,7-1.88L108.5,243v-8l-.88-.64.88-1.12V225.5l-1.75-1.29-7,1.88L98,228.31v7.75Zm1.74,2,.73-.93,5.54-1.48.73.53v6.55l-.73.92-5.54,1.49-.73-.54Zm0-9.5.73-.92,5.54-1.49.73.53V233l-.73.92-5.54,1.48-.73-.53Z"/><path class="cls-17" d="M85.76,239.34l.87.64-.87,1.11h0v8l1.75,1.28,7-1.87,1.75-2.22v-8l-.88-.64.88-1.12v-7.74L94.5,227.5l-7,1.87-1.75,2.22v7.75Zm1.74,2,.73-.92,5.54-1.49.73.53V246l-.73.92-5.54,1.49-.73-.54Zm0-9.5.73-.92,5.54-1.49.73.53v6.3l-.73.92-5.54,1.49-.73-.54Z"/><ellipse class="cls-17" cx="82.25" cy="250.03" rx="2" ry="1.53" transform="translate(-160.08 147.29) rotate(-48.82)"/><polygon class="cls-18" points="112 221.05 52.5 237 28 243.56 23 242.56 107 220.05 112 221.05"/><polygon class="cls-16" points="28 243.56 28 268.06 23 267.06 23 242.56 28 243.56"/><polygon class="cls-16" points="28 215.72 28 240.22 23 239.22 23 214.72 28 215.72"/><line class="cls-18" x1="107" y1="192.22" x2="23" y2="214.72"/><line class="cls-19" x1="112" y1="193.22" x2="107" y2="192.22"/><polygon class="cls-16" points="28 187.88 28 212.38 23 211.38 23 186.88 28 187.88"/><polygon class="cls-18" points="112 165.37 52.5 181.31 28 187.88 23 186.88 107 164.37 112 165.37"/><polygon class="cls-16" points="28 160.04 28 184.54 23 183.54 23 159.04 28 160.04"/><polygon class="cls-18" points="112 137.53 52.5 153.47 28 160.04 23 159.04 107 136.53 112 137.53"/><polygon class="cls-18" points="112 109.69 52.5 125.63 28 132.2 23 131.2 107 108.69 112 109.69"/><polygon class="cls-16" points="28 132.2 28 156.7 23 155.7 23 131.2 28 132.2"/><path class="cls-1" d="M120,21.22v374L20,422V48c0-14.36,22.39-32,50-39.4S120,6.86,120,21.22Z"/><polygon class="cls-1" points="20 48.01 20 422.01 0 416.65 0 42.65 20 48.01"/><path class="cls-1" d="M104.46,6.54C95.5,4.5,83.36,5,70,8.61,42.39,16,20,33.65,20,48L0,42.65c0-14.36,22.39-32,50-39.4C63.72-.43,76.16-.88,85.19,1.35l1.38.37h0Z"/></g></g></svg>