<svg xmlns="http://www.w3.org/2000/svg" viewBox="0 0 1920 1080"><defs><style>.cls-1{opacity:0.8;}.cls-2{fill:#fff;}</style></defs><title>PopUpBG_1</title><g id="Layer_2" data-name="Layer 2"><g id="Layer_1-2" data-name="Layer 1"><rect class="cls-1" width="1920" height="1080"/><path class="cls-2" d="M1908.21,46.37a2.73,2.73,0,0,1,0,3.84,2.74,2.74,0,0,1-3.85,0L1889,34.84l-15.36,15.37a2.75,2.75,0,0,1-3.85,0,2.78,2.78,0,0,1-.79-1.93,2.71,2.71,0,0,1,.79-1.91L1885.16,31l-15.37-15.36a2.75,2.75,0,0,1,0-3.85,2.74,2.74,0,0,1,3.85,0L1889,27.16l15.36-15.37a2.72,2.72,0,0,1,4.64,1.92,2.78,2.78,0,0,1-.79,1.93L1892.85,31Z"/></g></g></svg>