<svg xmlns="http://www.w3.org/2000/svg" viewBox="0 0 84.32 84.32"><defs><style>.cls-1,.cls-2{fill:none;}.cls-2{stroke:#8b001d;stroke-miterlimit:10;stroke-width:0.5px;}.cls-3{fill:#8b001d;}</style></defs><title>PreloadLogo_1</title><g id="Layer_2" data-name="Layer 2"><g id="Layer_1-2" data-name="Layer 1"><rect class="cls-1" width="84.32" height="84.32"/><rect class="cls-1" width="84.32" height="84.32"/><polyline class="cls-2" points="2.84 41.56 2.84 12.49 62.3 12.49 75.48 12.49 81.48 12.49 81.48 14.65"/><polyline class="cls-2" points="81.48 27.16 81.48 57.75 31.9 57.75 8.22 57.75 2.84 57.75 2.84 55.92"/><polyline class="cls-2" points="6.29 40.2 3.94 18.91 62.3 12.49 75.32 11.05 75.48 12.49 75.77 15.1"/><polyline class="cls-2" points="77.65 32.2 79.88 52.47 31.9 57.75 8.5 60.32 8.22 57.75 7.94 55.17"/><path class="cls-3" d="M78.39,21.09c-2,0-3.22,1.59-6.45,1.59l-12,.75a7.28,7.28,0,0,0-3.78,1.07c-.13-1.3-2.61-1.93-7.7-1.81-2.72-1.93-5.83-1.93-9.52,1.12a4.31,4.31,0,0,1-1.75,4.74c-1.32.47-1.23.95,1.26.95Q40.69,28,40.19,30a24.21,24.21,0,0,1-9.53,1.63,48.39,48.39,0,0,0-1.41-9.76c-1-2.84-1.44-2.93-3.6-.94L15.93,36.23l-3.13.5c-2.72.89-4.05,4.87-.54,3.77l1.38-.66-4.2,6.6c-.36.51-.8.67-1.08.19-.47-1.11-1.43-1.05-1.43.24l.34,4.67c0,.39.89.29,1.48-.3l7.37-12.55c4.43-2,8.51-3.39,11.8-3.48.53-.11.83,0,.72.86-.76,5.36-.52,9.52.9,12.29.61.53,4.67-2.1,4-3.32a23.37,23.37,0,0,1-1.67-9.83,19,19,0,0,0,8.56-2.36c-1.16,3-2.29,6-2.29,9.36C38.15,45.34,37,50,34.24,50c-.84,0-1.52,1.15-1.52,2.56s.68,2.55,1.52,2.55c4.86,0,6.79-19.5,7.32-19.5,1,0,1.51,1.39,1.63,2.6,0,2.24,8,8.07,12.49,8.07,1.87,0,2.58-1,1-2.07-6.15-1.92-9.7-5.77-10.13-12a52.37,52.37,0,0,0,7.51-4.74c.54.84.94,1.76,1.88,1.76,1.65,0,3-3.6,4.23-3.6h4.1c.59,0-.5,3.6-.5,5.73,0,1.31-2,3.5-2,5.88-.14,3.64-3.17,6.95-3.17,9.94,0,.49,2.72.52,3.39-.16,1.55-1.54,3-8.3,3-12.56,0-2.25,3.65-7.43,3.65-9.36,0-.46,3.11-.7,3.11,0,0,1,3.09.45,4-.44C77,23.46,79.88,21.09,78.39,21.09Zm-51,12.59a85.18,85.18,0,0,1-9.62,2.23l5.66-9.65q1.79-1.86,2.13.06a8,8,0,0,0,2.05,4.12A5.16,5.16,0,0,1,27.37,33.68ZM42,32.85l2.27-6.67c3.33-.46,8.25-1.75,8.25.2S45.88,30.79,42,32.85Z"/><path class="cls-3" d="M35.74,69.28a3.1,3.1,0,0,0,.37-.8,4.58,4.58,0,0,0,.18-1.27,4.64,4.64,0,0,0-.18-1.27c-.26-.84-.75-1.43-1.34-1.51H29.7V74.7h1.52V70h2.66c.49,0,.89.71.89,1.59V74.7h1.52V71.59A5.54,5.54,0,0,0,36.06,70,4,4,0,0,0,35.74,69.28Zm-1.86-.8H31.22V65.94h2.66c.49,0,.89.57.89,1.27S34.37,68.48,33.88,68.48Z"/><polygon class="cls-3" points="41.86 65.94 41.86 68.48 44.92 68.48 44.92 70 41.86 70 41.86 73.18 45.92 73.18 45.92 74.7 40.34 74.7 40.34 64.42 45.92 64.42 45.92 65.94 41.86 65.94"/><polygon class="cls-3" points="56.56 64.42 56.56 74.7 55.04 74.7 51.49 67.67 51.49 74.7 49.97 74.7 49.97 64.42 51.49 64.42 52.26 65.94 53.53 68.48 54.3 70 55.04 71.46 55.04 64.42 56.56 64.42"/><path class="cls-3" d="M25.1,69.28a3.47,3.47,0,0,0,.37-.8,4.58,4.58,0,0,0,.18-1.27,4.64,4.64,0,0,0-.18-1.27c-.27-.9-.83-1.52-1.47-1.52H19.06V74.7H24c.6,0,1.13-.61,1.41-1.52a5.39,5.39,0,0,0,0-3.18A3.39,3.39,0,0,0,25.1,69.28Zm-1.84,3.9H20.58V70h2.68c.5,0,.91.71.91,1.59S23.76,73.18,23.26,73.18Zm0-4.7H20.58V65.94h2.68c.5,0,.91.57.91,1.27S23.76,68.48,23.26,68.48Z"/><path class="cls-3" d="M67.19,65.94a1.55,1.55,0,0,0-.47-1,1.67,1.67,0,0,0-1.17-.49H60.61V74.7h4.94a1.64,1.64,0,0,0,1.64-1.52.57.57,0,0,0,0-.13v-7A.57.57,0,0,0,67.19,65.94Zm-1.51,6.41a.83.83,0,0,1-.82.83H62.13V65.94h2.73a.83.83,0,0,1,.82.83Z"/></g></g></svg>