<svg xmlns="http://www.w3.org/2000/svg" viewBox="0 0 1920 200"><defs><style>.cls-1,.cls-2{fill:#810f2e;}.cls-1{opacity:0.1;}</style></defs><title>RedTopSection</title><g id="Layer_2" data-name="Layer 2"><g id="Layer_1-2" data-name="Layer 1"><path class="cls-1" d="M1920,105.65V200H0V39.15a164,164,0,0,1,222.35,8.9l.38.38c12.2,12.14,26.36,23.45,40.84,29.45,16.92,7,34.3,6.78,49.55-7.82l.9-.88a134.15,134.15,0,0,1,196.31,7.07l0,0a119.68,119.68,0,0,0,20.21,13.77c16.59,8.82,33.8,11.66,48.2,3.08a108.82,108.82,0,0,1,159.57-6.06c28.84,28.84,72.83,32.35,111.74,22,25.49-6.78,48.8-19.51,64.26-35a127.12,127.12,0,0,1,179.9,0c27,27,59.91,50.74,85.91,24.73a92.26,92.26,0,0,1,130.45,0c31.39,31.4,54.44,59.28,80.9,33.05l.18-.18a45.75,45.75,0,0,1,64.72,0l.11.1a44.53,44.53,0,0,1,4,4.59h0c21.53,11.2,61-5.79,85.18-25.56a83.18,83.18,0,0,1,33.06-24h0a83.19,83.19,0,0,1,89.61,18.44c25.23,25.23,51.46,49.23,74.43,26.84l.4-.39a45.75,45.75,0,0,1,64.72,0l.18.18c18.18,17.92,50.25,11.24,70.61-9.11A58.22,58.22,0,0,1,1920,105.65Z"/><path class="cls-2" d="M1920,93V200H0V159.46a58.22,58.22,0,0,1,41.29,17.11c20.36,20.35,52.43,27,70.61,9.11l.18-.18a45.75,45.75,0,0,1,64.72,0l.4.39c23,22.39,49.2-1.61,74.43-26.84a83.15,83.15,0,0,1,122.69,5.59C398.48,184.41,438,201.4,459.5,190.2h0a44.53,44.53,0,0,1,4-4.59l.11-.1a45.75,45.75,0,0,1,64.72,0l.18.18C555,211.91,578,184,609.4,152.63a92.26,92.26,0,0,1,130.45,0c26,26,59,2.22,85.91-24.73a127.2,127.2,0,0,1,179.9,0c39.06,39.06,128.27,60.71,176,13a108.87,108.87,0,0,1,159.57,6.06c20.42,12.16,46.47,1.38,68.41-16.85l0,0A134.15,134.15,0,0,1,1606,123c28.44,28.44,64.55,5.86,91.29-20.75l.38-.38A164,164,0,0,1,1920,93Z"/></g></g></svg>