<svg xmlns="http://www.w3.org/2000/svg" xmlns:xlink="http://www.w3.org/1999/xlink" viewBox="0 0 84.73 455.93"><defs><style>.cls-1,.cls-11,.cls-12,.cls-13,.cls-5,.cls-6,.cls-9{fill:none;}.cls-2{fill:#fff;}.cls-3{fill:#9a203a;}.cls-10,.cls-14,.cls-4,.cls-7,.cls-8{fill:#8b001d;}.cls-10,.cls-13,.cls-14,.cls-4,.cls-5,.cls-8,.cls-9{stroke:#8b001d;}.cls-10,.cls-12,.cls-4,.cls-5,.cls-6,.cls-9{stroke-miterlimit:10;}.cls-4{stroke-width:0.25px;}.cls-6{stroke:#2434b4;}.cls-11,.cls-13,.cls-14,.cls-8{stroke-linecap:round;stroke-linejoin:round;}.cls-10,.cls-12,.cls-13,.cls-14,.cls-9{stroke-width:0.5px;}.cls-11{stroke:#fff;}.cls-12{stroke:#000;}.cls-15{opacity:0.4;}.cls-16{fill:url(#LED_White);}</style><pattern id="LED_White" data-name="LED White" width="3" height="3" patternUnits="userSpaceOnUse" viewBox="0 0 3 3"><rect class="cls-1" width="3" height="3"/><circle class="cls-2" cx="0.32" cy="0.32" r="0.32"/><circle class="cls-2" cx="1.11" cy="1.11" r="0.32"/><circle class="cls-2" cx="1.89" cy="0.32" r="0.32"/><circle class="cls-2" cx="2.68" cy="1.11" r="0.32"/><circle class="cls-2" cx="0.32" cy="1.89" r="0.32"/><circle class="cls-2" cx="1.11" cy="2.68" r="0.32"/><circle class="cls-2" cx="1.89" cy="1.89" r="0.32"/><circle class="cls-2" cx="2.68" cy="2.68" r="0.32"/><circle class="cls-2" cx="0.32" cy="0.32" r="0.07"/><circle class="cls-2" cx="1.89" cy="0.32" r="0.07"/><circle class="cls-2" cx="2.68" cy="1.11" r="0.07"/><circle class="cls-2" cx="1.11" cy="1.11" r="0.07"/><circle class="cls-2" cx="0.32" cy="1.89" r="0.07"/><circle class="cls-2" cx="1.89" cy="1.89" r="0.07"/><circle class="cls-2" cx="1.11" cy="2.68" r="0.07"/><circle class="cls-2" cx="2.68" cy="2.68" r="0.07"/></pattern></defs><title>StellaAZS</title><g id="Layer_2" data-name="Layer 2"><g id="Layer_1-2" data-name="Layer 1"><path class="cls-2" d="M81.7,40.86V424.33L18.79,452.82v-431C18.79,5.24,34.2-2.7,52.08,3.67,68.85,9.63,81.7,26.14,81.7,40.86Z"/><path class="cls-3" d="M80.37,40.86c.17.52.58.21.42-1.15l-.71-.92Z"/><path class="cls-3" d="M80,31.52a8.4,8.4,0,0,0-1.37-1.9c-.46-.4-.81-.47-.88.12a6.24,6.24,0,0,1,1.12,1.5A12.07,12.07,0,0,0,80,32.88c.42,1.34.39,2.41.1,2.23.31.45.2,2.13.74,2.81a9.47,9.47,0,0,0-.11-3.07,11.86,11.86,0,0,0-1.24-3.28C79.48,31,79.81,31.45,80,31.52Z"/><path class="cls-3" d="M17.86,74.56l.08-.9C17.9,73.91,17.88,74.21,17.86,74.56Z"/><path class="cls-3" d="M17.5,160.6c0-.66-.08-.93-.14-1C17.4,160.24,17.44,160.74,17.5,160.6Z"/><path class="cls-3" d="M16.77,175.29l.05-.87A2.45,2.45,0,0,0,16.77,175.29Z"/><path class="cls-3" d="M17.86,74.56l-.2,2.29C17.87,77,17.82,75.68,17.86,74.56Z"/><path class="cls-3" d="M68.78,16.57a8,8,0,0,0,1,.75l-.84-.77Z"/><path class="cls-3" d="M17.33,36.63v-.7a4.43,4.43,0,0,0-.27-.58Z"/><path class="cls-3" d="M22.09,7.55c-.52.51-.18,1.08-.14,1.44a2.07,2.07,0,0,1,.18-.71,4.57,4.57,0,0,1,.47-.71C22.53,7.49,22.37,7.48,22.09,7.55Z"/><path class="cls-3" d="M65.53,10.56l.7.46Z"/><path class="cls-3" d="M17.21,57.46a.47.47,0,0,0-.2.27C17.08,57.73,17.14,57.62,17.21,57.46Z"/><path class="cls-3" d="M79.06,74.6s.07,0,.1,0C79.1,74.43,79.06,74.38,79.06,74.6Z"/><path class="cls-3" d="M81.84,40.86l0,.47a.84.84,0,0,0,.32.1Z"/><path class="cls-3" d="M16.05,202.17v-.12C16,201.34,16,201.74,16.05,202.17Z"/><path class="cls-3" d="M16.47,449.81c.25-2.44.41-.47.58.87.08.69.17,1.27.27,1.26s.21-.62.35-2.1C17.45,450.67,16.79,444.31,16.47,449.81Z"/><path class="cls-3" d="M68.32,16c-.27-.26-.53-.56-.82-.81C67.88,15.55,68.11,15.82,68.32,16Z"/><path class="cls-3" d="M17.67,449.84h0l.06-.6Z"/><path class="cls-3" d="M16.39,264.11a2.15,2.15,0,0,0,.25-.63C16.58,263.5,16.51,263.65,16.39,264.11Z"/><path class="cls-3" d="M17.19,218l-.08,1.14A10.6,10.6,0,0,0,17.19,218Z"/><path class="cls-3" d="M17.18,288.08a7.38,7.38,0,0,0,0,1.67,1.26,1.26,0,0,0,.07-.25A3.65,3.65,0,0,1,17.18,288.08Z"/><path class="cls-3" d="M17.19,313c0-.13.07-.3.11-.46l0-.79Z"/><path class="cls-3" d="M79.33,150.4a3.82,3.82,0,0,1,.51-1.15C79.44,149.63,79.29,146,79.33,150.4Z"/><path class="cls-3" d="M69,16.34a1.06,1.06,0,0,1-.67-.34l.58.55C69,16.55,69.08,16.5,69,16.34Z"/><path class="cls-3" d="M21.62,289.09l-.09,4C21.59,291.94,21.62,290.5,21.62,289.09Z"/><path class="cls-3" d="M79.41,329.31l-.07-.91A3.5,3.5,0,0,0,79.41,329.31Z"/><path class="cls-3" d="M21.62,304.81a12.37,12.37,0,0,0-.39,2.23,2.1,2.1,0,0,0,.14.46Z"/><path class="cls-3" d="M79.84,149.24h0Z"/><path class="cls-3" d="M78.51,123.14c0,3.77.72,1.77,1.14,2.57.21,4.51-.54,2.09-.92,3.62.2,2.82.88,5,.85,7.07-.12.16-.17.57-.32.09.59,3,0,8.83.76,12.29a1.1,1.1,0,0,1-.18.46c.37-.56.75-.65,1-.54,0,1.7.46,3.15,0,3.78a3.25,3.25,0,0,0-.33-1.61l.21,1.78c-.7,1.59-.24-2.42-.76-2.42.23,3.45.8,7.48.61,10.13-.68.56-.23-6.19-.83-2.66l.26-4.1c-1.08,3.14.07-2.49-1.08.39-.19,5.4.35,6,.15,11.42.38,1.21.56-.4.94.81.68,7.65-1.71,6-.81,11.65.46,1.45,1.32,2,.86,6l-.77-1.36c-.07,5.22,1.11,3,.59,8.45-.3-1-.25-4.11-.34-3.32-.61,3.55.43,2.51.43,5.24l-.68.56c.11,5.56.6,11.69.72,17.85-.2-.34-.41-1.4-.62,0,.34,7.77-.08,16.59-.49,24.08l.59,2.87c0,.66-.26,1.23-.38.51-.22,2.92.37.15.6,1.56.05,1.66-.33,2.19-.51,1.14.5,5.15,1.07,14.68.44,20.11l-.17-1.06c-.24,4.23,1.2,4.77.66,8.69L80,268.5c-.25,9.18.28,19.32-.6,26.32.84,1.33-.38,9.08.8,9.67-.58,5.25-.79,3.74-1.19,11.12,0,2,.74,2.94.86,5.38l-.61.06.64,3.31-.73,1.76.15,2.28c0-.91.28-1.93.46-1.79.28,3.57-.43,8.7-.75,8.79l.52,8.44a9.79,9.79,0,0,1-.49-2.72c.63,4.51-.65.82-.07,4.95.14-.55.37.3.49.4a62.62,62.62,0,0,0-.22,10.21l-.42-.66c-.11,6.26.2,13.21.19,20.24.2-2.53.94-1.95,1,.12l-.65.82c.4,1.33.24-2.15.74.58-.08,2.63-.74,1.77-1,.26l.23,3.19c-.19.19-.3-.56-.55-.76.41,1.31-.65,5.52,0,7.41l-.19.18c0,7,.22,10.21.25,15.94.56.11.44,2.35.89,4.06-.18,4.2-.62,8.87-.57,13.94.24,1.26.42.75.68,1.23.06,0,0,.07,0,.14a1.32,1.32,0,0,0-.61,0l-.33,0a1.47,1.47,0,0,0-.31.1l-.36.12c-.93.31-1.51.49-.39-.22-5.51,2.59-7,3.3-13.88,6.85.85-.15,1.74-.45,1.37-.09-1.24.65-3,1.11-2.9.8l.31-.2c-7.55,4.27-18.78,6.87-24.6,10.68l.33-.21-6.27,3.45c-3,1.27,1.63-1.16-.71-.45a64,64,0,0,1-7.31,3.71l-1.64.7-.28.12-.12,0-.24.09a6.06,6.06,0,0,0-.93.4,3.94,3.94,0,0,0-.18-.85l.25-.4c.07-.15.13-.07.18-.61.11-.83.17-1.74.21-2.73.07-2,0-4.19,0-6.47-.1-4.57-.26-9.35.22-12.66l-.36.38c-.34-1.71.21-2.07.29-3.33-.28.18-.32,1.86-.51.8-.43-14.5.52-29.92.84-44.78.09-5.44-1.84-3.09-1-9.94l.66,1.95c-.8-11,0-22.43-.65-33.17a4.36,4.36,0,0,1,.35,1.71c.48-2.27,0-8.39-.37-8.43,0-1.67.36-.38.55-1.41.29-2.28-.61-5.71-.13-6.92.08-.21.16.64.19,1.05-.23-1.48.06-6.9-.49-5.49.26-4-.25-7.7.08-10.92-.62-2.09.3-6.9-.58-7.56.91.29.73-7.07.31-9.62.27.86.28-2.21.66-1.21,0-2.91-.18-5.58-.65-5.07,1.08-5.36-.87-10.77.52-13.78-.49-8.64-.82-16.63-1-24.4.9.28.09,8.58,1,8.25-.37-7.37-1.15-11.62-.93-18.93.12-1.89.39,1.07.55,1.71-.38-7.36.08-14.24-.41-20.79A5,5,0,0,1,21,217c0-1.29.13-3-.28-2.85l.11,1.25c-.59,2.07-1.24-5.12-1.55-5.36,1.17,2.2.29-6.47,1.78-3-.08-.85-.27-1.91-.55-1.72.08-1.26.24-1.66.55-.38-.22-4.63-.66-3-.65-7.17.2,0,.28.86.51,1.29a30.54,30.54,0,0,1-.6-7.79c.12.21.27-.2.27.85-.06-6.08-1-10.36-.66-17,.86,2,.29-2.27,1-2.62l-.22-3.59-.36,1.44c0-3.14-.53-5.92-.29-8.62l.31,2.33-.14-5.89-.29,3.34c-.38-3.18-.94.34-.73-3.84a44.94,44.94,0,0,1,.45-4.79h0a21.48,21.48,0,0,1-.31-5.47c.24-.61.83.48,1,.09-.62-1.54-.17-7.36-.84-9.31.16.65.55.69.63.47l-.51-1.28c.16-1.46.24-1.67.56-1.44.09-4.38-.95,1.39-.54-3.8a8.72,8.72,0,0,1,.19,1.06c.21-5.22-.32-10.09-.07-14.88.75-1.42.18,4.19.82,2.57-.14-6.92-.9-14.33-.73-21l-.08,1.25c-1.06-.93.52-5,0-8.37.08.83.59,1.08.47.86.17-4.58-.26-9.37-.59-16.32l.27.86c.25-2.7.14-7.11.27-10-.28-.86-.23-2.53-.63-1.52,1.55-9-.83-17.16.46-25.14,0,1,.24,2.27.24,1.51L20,36.18c-.46.54-.28.89-.64,2.32A18.57,18.57,0,0,1,18.89,34c.3,3.06.74,0,1-1.35-.15.22-.3-.23-.45-.12.83-3.55-.93-.59-.37-5.44l.24.25a52.18,52.18,0,0,1-.38-5.44c.54-.81.25,1.93.69,2a15.44,15.44,0,0,0-.16-2l-.18-2a7.5,7.5,0,0,1,.53-3.75,23.49,23.49,0,0,0-.27,3.92c.35-1.3.65-2,.81-2.58a12.32,12.32,0,0,1,.58-2l-.07.17c.29-.67.5-1.37.85-2l1.07-1.87-.63.9a5.42,5.42,0,0,1,.19-1.28,10.91,10.91,0,0,1,.51-1.17,5.93,5.93,0,0,1,.69-1.12c.28-.34.58-.67.89-1a21.28,21.28,0,0,1,2.12-2c.36-.37.82-.61,1.23-1s.83-.74,1.31-1.07c-1.73,1.49-1.74,1.71-1.44,1.61s1.05-.47,1.06-.12a7.78,7.78,0,0,1,1.66-.57c.49-.13.79-.17.61,0a5.89,5.89,0,0,1,2.6-1c.46-.14,1-.19,1.51-.32a16.89,16.89,0,0,0,1.85-.6c.15.18,2.21-.16,1.77.37.66-.11.95-.13,1-.17s-.09-.09-.32-.15c-.47-.06-1.24-.1-1.14-.23,2.06-.53,4.59-.15,7.22.43,1.3.4,2.68.66,4.06,1.15.69.22,1.41.4,2.13.6s1.44.44,2.2.62c2.49.88,4,1.39,5.46,2a23.38,23.38,0,0,1,5,2.53c1.15,1.3-1.51-.3-1.54-.25,1,.88,1.89,1.72,2.82,2.42s1.78,1.48,2.8,2.26c-.49-.24-.19.23.18.94,1.43,1.44,1.53.44,3,2.71a9.72,9.72,0,0,1-1.92-1l2.59,2.48a36.27,36.27,0,0,1,2.43,2.76c0,.37-.28.13-.67-.28s-1-.94-1.3-1.22c.92,1,1.92,2.51,2.86,3.76a12.44,12.44,0,0,0,2,2.67c-.19-.58-.44-1.12-.66-1.69.5.9-.17.68-.61.07a9.78,9.78,0,0,1-1.36-2.25,1.87,1.87,0,0,1-.15-1L76,24c0-1.07-1-2.62-2.38-4.11a30.67,30.67,0,0,0-2.2-2.22c-.72-.75-1.49-1.4-2.1-2.06l1.65.51c-1-.72-2-1.51-3.11-2.14-.44-.68-.54-1.4.89-.28-1.69-2.06-1.88-1.38-3.37-3.11-.15-.21,0-.17.17-.06-.74-.45-1.44-1-2.21-1.35.52.16,0-.74,1.22.3a17.71,17.71,0,0,0-4.81-3.08,12.23,12.23,0,0,1-3.1-1.7l.38.12a12.52,12.52,0,0,0-2.73-1c-.44-.09-.5,0-.52.09s.1.51-2.24,0c-.84-.78-1.72-1.6-2.65-2.38l-.77.46c-.64-.16-1.91-.48-1.63-.67-2.5-.07.37.32-1.1.45a19.32,19.32,0,0,0-2.67-.54c-1-.1-2-.06-2.94-.09s-1.81.12-2.49.09a5.07,5.07,0,0,1-.87-.09.9.9,0,0,1-.53-.2c-.53.35.24.26.73.29.24,0,.41,0,.32.09s-.47.1-1.29.36a1.56,1.56,0,0,0-1.13-.21A4.92,4.92,0,0,0,32.92,2c-.57.24-1.19.52-1.85.76a12.61,12.61,0,0,1-2,.8c.58-.86,3.32-1.79.38-1A6.27,6.27,0,0,1,28,3.65a18.78,18.78,0,0,1-1.92,1.08c-.65.42-1.33.88-2,1.32A8.55,8.55,0,0,0,22.6,7.57c.12.15-.05.48-.37,1s-.72,1.21-1.25,2-.92,1.79-1.36,2.79l-.5,1.58a7.52,7.52,0,0,0-.35,1.57c-.05-.07-.19.37-.39,1.14A9.43,9.43,0,0,0,18.09,19c-.06.54-.12,1.13-.18,1.75-.17,1.28-.15,2.58-.22,3.86s-.12,2.48-.18,3.43l-.12-.11c.73.73.59,4.64.74,7.49-.44-.11-.61-.63-.81-2.17v2.68a10.94,10.94,0,0,1,.44,3.2l-.55-.67c0,3.56.65,7.17.28,11.76.51.25,1.43-3.65,1.77,1.2-.28.18-.75.36-.86-.91a10.4,10.4,0,0,1,.11,2.32l-.47-1.94c-.2,2.09.39,1.09.35,2.76-.4,0-.28,1.24-.6,1a12.1,12.1,0,0,0,0-2.1,21.78,21.78,0,0,1-.6,4.91c.22-.16.53,0,.58,1.38,0,3.56-.48,1.22-.68,3.3.28.86,0,3.13.58,3.19A2.87,2.87,0,0,1,17.25,67c.26,1.84.08,8.61.71,6.53L18,73l0,.3h0c.59,6-.33,12.56-.08,18.55h-.2c.23,3.58.14,8,.56,10.53,0,1.06-.36,2.5-.59,2a33.77,33.77,0,0,1,0,7c-.34-2.75-.31,1-.25-2.82-.17,3.56-.49,4.36.05,8.18-.5-1.3-.64,2.67-.48,4.36l.36-2.49c.07,1.9,0,3.57,0,5.25l-.66-.91c-.81,7.28,1.38,13.12,0,18.66.47,1.92.33-3.95.87-2.23-.09,3.35-1,6.83-1,7.88-.37,4.59,1,4.28.72,9.08.23-.62.87-1.2,1.09,2.39-.09,3.35-1,4.11-1.19,2,0-.8.06-1.19.14-1.16-.09-1.08-.19-2.5-.45-1.17l.24.43c-.24,1.66-.22,6.27-.6,5.19.22,2.53.38,1.08.51-.79-.35,4.29,0,6.71-.24,11.13.13-.7.41-1.35.4-.65-.29,6.48.45,2.85.56,7.25-.36,2.5-.87-.9-.56,3.53-.25,2.7-.63.57-.83-.5.46,4-.3,7.53-.38,9.83l-.19-2.12c.11,1.26.11,2.3.11,3.36l.47-1.21c-.08,1.25-.08,2.3-.28,2.28.31,1.28.79-1,1.21,1.56-.24,1.67.26,5.07-.37,5.64.22-5.23-.63.58-.73-3.85a22.07,22.07,0,0,1,0,3.15c-.07.18-.13-.18-.17-.52-.56,5,.71,2.3.7,7.48-.36-.66-.67,1.2-.6,2,0-2.09.59-1,.87.92-.28,3.32.2,3.61.17,5.35l.13-2c.35.67.31,2.34.42,4.65-.28.2-.19-2.1-.31-1.28.62,2.58-.65,5.82-.23,9.4-.24,1.66-.67.16-.83,1.62.46,4-.48,4.36-.1,8.58.47-1.22.36-1.43.82,1.55l-.33-6.95.69,4.46c0-2.1-.3-4.43-.22-5.68.39,2.12.27,1.9.67.9-.72,2.87.41,5.69-.07,9l-1.18-.1c-.53,5,.61,8.86.31,15.33l.2-2.08c.47.87.07,4,.26,6.09-.4-.19-.54,1.12-.78,2,.29-.11,0,4.74.76,5.33l-.52,2.89c-.22,5.22,1.12,6,1,11-.43-1.52-.71.77-1-2.6,0,1.68-.07,3.19.2,3.21-.25,1,.53,4.65.16,6.2a6.05,6.05,0,0,1,.55,2.82c-.08.2-.19,0-.19,0,.19,0,.26,2.95.7,1.3-1.23,5.17.09,14.45-1,18.94.13,3.66.26,8.08.29,11.4-.12-.21-.2,0-.16-.64-.37,4.58,1.14,2.82.73,8-.64,2.67-.35-2.77-.59-1.1-1.3.72.18,6.29-.58,9.8l-.08-.85c-.44,2.69.49,6.55.4,10.93,0,0-.12-.21-.2,0,.67,3,.89,8.67,1.07,12.89-.51-1.31-.27-1.92-.79-1.12.08,1.9.83-.55,1,3.22-.28,1.23-.52,4-1.07,4.31l0-3.55c-.72,1.82,0,4.6-.1,6.48l-.32-.24c.11,5.45.89,5.53.84,11.39l.23-.6c.78,3.2-.44,2.68.14,5.88l-.79,1c.19,2.11.77,7.4.91,11.19-.58-2.14-.88-6.58-1.23-9.33,0,2.1.06,7.13.45,8.22a12.67,12.67,0,0,1-.15-2.74,43.7,43.7,0,0,1,.91,10.13c-1.53-.74-.38,10.88-1.57,13.91.57,7.39-.24,14.66-.15,23.26,1.19-3.05,0,2.52,1.26,2l0,1.28v1.11a4.87,4.87,0,0,1-.07,1.07l-.42,5.39L20.6,454c1-.25.32.13-.67.64a11.47,11.47,0,0,0-2.21,1.26c3.44-1.5,4.19-1.7,4.66-1.74a4.14,4.14,0,0,0,.84-.1c.21,0,.5-.13.9-.26l.32-.12.3-.1.47-.14c-.72-.15,1.13-1.2,3.48-2.08l-3.44.94c5.32-3.13,5.25-1.25,10.62-4.39l-1.63,1.16c2.8-1.52,10.67-4.83,13.1-7,.57-.11,1.38-.11.14.55,7-3,15-7.92,20.57-9.8l-.4.51c1.25-.66,2-1.53,3.74-2,0,.15-.39.5.21.25a30,30,0,0,1,5-2.64l-1.32,1c1.5-.58,2.83-1.17,4-1.76L84,425.8c0-.67-.07-1.33-.11-2l-.06-.95c0-.31,0-.67-.06-.81-.09-.75-.17-1.5-.25-2.26-.16-1.52-.3-3.08-.36-4.83.88,0,1.17-5.81,1.31-8.71l.13.1c.11-8.61-.73-14.63-1.08-22.6,1-4.95.4-16.77.94-24.73-.16,1.22-.69-.2-.78-1.61.18-1.87-.61-5.16.2-4.87l0,.67c.8-1.41.59-5.25.61-8.24l-1.06-.5c1.54-7.83-.56-20.53.81-24.81-.26-1.89-.26-4.23-.52-6.11l.56.1c.15-5.24.22-7.85.08-14.33l.41,1.32c0-3.65-1.63-4.61-1.67-8l.85-1c0-6.37.73-12.82,0-19.12.13.11.37.29.4,1.32,0-3,.58-11.6-.58-10.51.75-.08.07-6.58-.26-10l.55.54a24.81,24.81,0,0,1-1.1-7.06c.07-1,.45-.84.3.44.3-3.21-.52-2.5-.23-6.39l.36,1.45a12.43,12.43,0,0,0-.56-4.85c-.23-2.07.14-6.25.64-6.74a8.62,8.62,0,0,1-.57-4.19c.19-.26.31.45.36.8.38-5.51-.64-8.19-.1-12,.19-.08.28-.33.34-.65,0,4.38,0,7.91-.09,7.58.51,0,.6-3.54,1.31-.72-.38-2.84-1.22-7.7-1-11.15a2.35,2.35,0,0,1,.17-.45l.06.36a11,11,0,0,0-.08-2.18c.08-1.1.15-1.8.15-2.86.43-.41.23-4,.25-5.82-.56.15-.47-2.16-.93,0,0-.28.06.33.09,1.51a5.18,5.18,0,0,0,.06.75l-.05-.12c0,1.16,0,2.67,0,4.38a12.56,12.56,0,0,1-.21-4.8c-.36-.9-.73-1.9-.91-2.46.79-2.41,1.21-7.06,1.69-7.71-.31-5.39-.2-12.69-1.26-16.07a3.64,3.64,0,0,1,.47-2.34,24.19,24.19,0,0,0,.24,2.42c-.27-3.07-.1-9.07-.84-9.8.33-3.86.68,2.16.56-3.14l.22.72c1.18-10.43-1.88-17-.37-28.52a3.59,3.59,0,0,1-.26,1.36c.67-13.18-.62-27.17.44-40.18.21-3.69-.26-4.09-.62-6.35l.6-.8-.69-3.86C82,79,84,75,83,68l-.4.89c.07-2.49-.24-7.88.22-7.47a2.79,2.79,0,0,1-.21-1.78l.32-.08-.54-6.11c.23-4.74,1.25.74,1.31-6.17-.12-2.57-.92-7.32-1.13-6.36,0,1-.19,2.65-.51,2.73l-.17-2.35c-.93-.43-1.88-2.23-2.53,3.54l.57,4-.45,1.29,0-3.38a9.52,9.52,0,0,0,.21,4.5,3.59,3.59,0,0,0-.5,1.68l.89,4c-.36.48-.72-1.77-.92.88.41,1.85.81-1.77,1.08,1.29-.42,1.92-.76,1.36-.4,3.62-.24.31-.4-.17-.5-1.06.29,2,.12,5.32.62,6.36-.53,2,.13,6.78-.75,6.58A29,29,0,0,1,79.89,80c-1.06-3.37-.06,6.91-1.19,6,.94,2.49.42,9,.94,13.43a3.28,3.28,0,0,1-.18-1.12,38.63,38.63,0,0,1-.54,4.81c.78.32,1,4.19,1.45,6.28-.76,3-.92-1.85-1.65-.89.63-.16.63,5.29,1.16,4.26-.47,2.33-.22,2-.87,3.21,1,.41.16,2.17.76,4.1-.48,3.38-.91.87-.62,4.58C78.85,126.44,78.51,123.14,78.51,123.14Zm1.69,88.18h0c0-.76,0-1.41,0-1.82C80.17,209.88,80.18,210.4,80.2,211.32Zm0,7.41c0-.9,0-2,0-3.21.2-.26.4,0,.39.76C80.49,215.88,80.37,217.63,80.21,218.73Zm3.9-15.67c.08,1.17,0,1.56-.15,1.72,0-.55,0-1.2-.07-2.05,0,0,0-.1-.07-.14A1.15,1.15,0,0,1,84.11,203.06Z"/><path class="cls-3" d="M83.37,201c0-.17,0-.27,0-.49,0,.24-.09.47-.13.7l.18.42Z"/><path class="cls-3" d="M18,73.5l0,.16a3.23,3.23,0,0,1,.08-.33A.63.63,0,0,1,18,73.5Z"/><polygon class="cls-3" points="79.13 321.06 79.28 321.05 79.15 320.4 79.13 321.06"/><path class="cls-3" d="M19.89,32.69a1.65,1.65,0,0,0,.14-.54A1.76,1.76,0,0,0,19.89,32.69Z"/><path class="cls-3" d="M20.93,15.51l.46-1.08c.08-.17.14-.36.23-.53l.3-.5c-.13.22-.27.41-.37.61l-.24.56Z"/><path class="cls-3" d="M28.62,6a.62.62,0,0,0,.09-.34h0Z"/><path class="cls-3" d="M21,217a4.33,4.33,0,0,0,0,.53C21.09,218.78,21,218,21,217Z"/><path class="cls-3" d="M19.64,152.89c.1.68.2,1.36.26,2.07C20,153.81,20,152.93,19.64,152.89Z"/><path class="cls-3" d="M21.63,288.65h0v0Z"/><path class="cls-3" d="M19.89,157.94a14.84,14.84,0,0,0,0-3A26.91,26.91,0,0,0,19.89,157.94Z"/><path class="cls-3" d="M75.67,25.9l.28.56s.07,0,.11,0Z"/><path class="cls-3" d="M76.06,26.48l.39.58A1.92,1.92,0,0,0,76.06,26.48Z"/><path class="cls-3" d="M77.21,28.32a11.71,11.71,0,0,0-.76-1.26A6.43,6.43,0,0,0,77.21,28.32Z"/><path class="cls-3" d="M64.75,12.59l-.29,0A.29.29,0,0,0,64.75,12.59Z"/><path class="cls-3" d="M60.45,9.53c1,.75,2.37,2.1,3.78,3.12l.23,0a8.24,8.24,0,0,1-1.84-1.54A8.47,8.47,0,0,0,60.45,9.53Z"/><path class="cls-3" d="M39.85.53l2.36.14C43,.75,43.75.9,44.52,1c-.77-.31-1.84-.74.32-.53-3-.7-2.67-.48-2.39-.29S42.94.63,39.85.53Z"/><path class="cls-3" d="M25.76,4.49c2.16-1.49-.2-.25-.17-.42C24.39,5.3,24.14,5.59,25.76,4.49Z"/><path class="cls-3" d="M17.51,105.47l-.51-.24C17.07,107.12,17.19,105.24,17.51,105.47Z"/><polygon class="cls-3" points="20.15 125.05 20.47 123.2 20 122.33 20.15 125.05"/><polygon class="cls-3" points="16.51 136.61 16.43 135.78 16.62 138.94 16.51 136.61"/><path class="cls-3" d="M16.69,308.58l.63-.57C17.21,306.73,16.5,306.46,16.69,308.58Z"/><path class="cls-3" d="M17.33,382.82a9.14,9.14,0,0,0-.21,4.18C17.17,385.33,17.41,383.67,17.33,382.82Z"/><polygon class="cls-3" points="84.19 340.75 84.4 342.24 84.22 339.43 84.19 340.75"/><polygon class="cls-4" points="77.18 140.8 77.18 162.79 40.88 160.53 40.88 136.98 77.18 140.8"/><polygon class="cls-4" points="40.88 136.98 40.88 160.53 24.39 159.51 24.39 135.25 40.88 136.98"/><polygon class="cls-4" points="77.18 165.79 77.18 187.78 40.88 187.29 40.88 163.74 77.18 165.79"/><polygon class="cls-4" points="40.88 163.74 40.88 187.29 24.39 187.07 24.39 162.81 40.88 163.74"/><polygon class="cls-4" points="77.18 190.78 77.18 212.77 40.88 214.06 40.88 190.51 77.18 190.78"/><polygon class="cls-4" points="40.88 190.51 40.88 214.06 24.39 214.64 24.39 190.38 40.88 190.51"/><polygon class="cls-4" points="77.18 215.77 77.18 237.76 40.88 240.82 40.88 217.27 77.18 215.77"/><polygon class="cls-4" points="40.88 217.27 40.88 240.82 24.39 242.21 24.39 217.95 40.88 217.27"/><polygon class="cls-4" points="77.18 240.76 77.18 262.75 40.88 267.58 40.88 244.03 77.18 240.76"/><polygon class="cls-4" points="40.88 244.03 40.88 267.58 24.39 269.78 24.39 245.52 40.88 244.03"/><path class="cls-2" d="M28.35,151.46a3.11,3.11,0,0,0,.76,0,2.16,2.16,0,0,0,1.44-.79,4.49,4.49,0,0,0,.91-2.42h0a1.68,1.68,0,0,1-1.62.87c-1.24-.1-2-1.43-2-3,0-1.78.95-3.25,2.36-3.12s2.26,1.76,2.26,4.14a6.8,6.8,0,0,1-1.17,4.28,2.88,2.88,0,0,1-2,1.1,3.19,3.19,0,0,1-.87,0Zm.35-5.38c0,1.17.52,2,1.32,2.11a1.35,1.35,0,0,0,1.35-.87.92.92,0,0,0,.09-.45c0-1.6-.43-2.86-1.41-2.94C29.26,143.85,28.7,144.76,28.7,146.08Z"/><path class="cls-2" d="M37.26,144.84l-2.57-.24L34.43,147a2.55,2.55,0,0,1,2,.61,3.19,3.19,0,0,1,1,2.46c0,1.8-1,3.07-2.51,3a2.76,2.76,0,0,1-1.69-.7l.23-.94a2.64,2.64,0,0,0,1.45.63c.86.07,1.6-.65,1.6-1.88a2,2,0,0,0-1.94-2.22,5.51,5.51,0,0,0-.94,0l.43-4.42,3.23.29Z"/><path class="cls-2" d="M28.35,178.83a2.85,2.85,0,0,0,.76,0,2.28,2.28,0,0,0,1.44-.87,4.63,4.63,0,0,0,.91-2.45h0a1.8,1.8,0,0,1-1.62,1c-1.24,0-2-1.34-2-2.95,0-1.78.95-3.3,2.36-3.23s2.26,1.64,2.26,4a7.1,7.1,0,0,1-1.17,4.35,3,3,0,0,1-2,1.19,3,3,0,0,1-.87.05Zm.35-5.39c0,1.17.52,2,1.32,2a1.43,1.43,0,0,0,1.35-.93,1,1,0,0,0,.09-.46c0-1.59-.43-2.83-1.41-2.87C29.26,171.18,28.7,172.11,28.7,173.44Z"/><path class="cls-2" d="M33.23,179.86v-.78l.72-.93c1.73-2.21,2.51-3.38,2.52-4.77,0-.94-.33-1.82-1.34-1.87a2,2,0,0,0-1.44.73l-.29-.9a2.46,2.46,0,0,1,1.92-.86c1.45.06,2,1.46,2,2.78,0,1.7-.89,3.05-2.31,4.89l-.55.67v0l3,.09v1Z"/><path class="cls-2" d="M31.74,196.86v8.66l.62,0-.06,3.31-.72,0-.06-2.33-4.51.1L26.94,209l-.73,0-.06-3.35.55,0a14.77,14.77,0,0,0,.7-2.16,19.13,19.13,0,0,0,.34-4.11v-2.47Zm-3.13,2.89a17.51,17.51,0,0,1-.37,4,10.77,10.77,0,0,1-.58,1.86l3.16-.06V197.9H28.61Z"/><path class="cls-2" d="M38.55,196.83v9.56l-.89,0v-8.54l-3.24,0v8.59l-.91,0v-9.65Z"/><path class="cls-2" d="M29.61,224v1.05l-2.89.16v8.71l-.93.06V224.2Z"/><path class="cls-2" d="M30.7,230.59l-.74,3.1-1,.07,2.43-9.86,1.1-.05,2.4,9.49-1,.07-.75-3ZM33,229.47l-.69-2.74c-.16-.63-.26-1.19-.37-1.75h0c-.1.58-.22,1.18-.36,1.77l-.69,2.85Z"/><path class="cls-2" d="M35.79,224.24a2.88,2.88,0,0,1,1.84-.82c1.2-.06,2,.76,2,2.23a2.48,2.48,0,0,1-1.42,2.41v0c1,.08,1.68.92,1.68,2.29a2.67,2.67,0,0,1-2.5,3,2.7,2.7,0,0,1-1.82-.5l.23-1a2.6,2.6,0,0,0,1.56.48A1.74,1.74,0,0,0,39,230.4a1.59,1.59,0,0,0-1.88-1.73l-.42,0v-.93l.42,0a1.81,1.81,0,0,0,1.62-1.86c0-1-.49-1.47-1.24-1.43a2.54,2.54,0,0,0-1.45.7Z"/><path class="cls-2" d="M28.35,261a3.35,3.35,0,0,0,.76-.14,2.74,2.74,0,0,0,1.44-1.07,5.45,5.45,0,0,0,.91-2.6h0a2.16,2.16,0,0,1-1.62,1.19c-1.24.14-2-1-2-2.65,0-1.78.95-3.44,2.36-3.58s2.26,1.31,2.26,3.7a7.89,7.89,0,0,1-1.17,4.51,3.66,3.66,0,0,1-2,1.49,4,4,0,0,1-.87.18Zm.35-5.44c0,1.16.52,1.93,1.32,1.84a1.71,1.71,0,0,0,1.35-1.13,1,1,0,0,0,.09-.47c0-1.59-.43-2.77-1.41-2.67C29.26,253.17,28.7,254.19,28.7,255.52Z"/><path class="cls-2" d="M33.15,258.91a3.09,3.09,0,0,1,1.34-2.64v0a2.13,2.13,0,0,1-1.07-2,2.51,2.51,0,0,1,2.09-2.69c1.31-.14,2,.92,2,2.07a2.78,2.78,0,0,1-1.11,2.28v0a2.26,2.26,0,0,1,1.35,2.24,2.79,2.79,0,0,1-2.28,3A2,2,0,0,1,33.15,258.91Zm3.64-.48a1.73,1.73,0,0,0-1.48-1.85,2.21,2.21,0,0,0-1.22,2.05c0,.95.49,1.72,1.35,1.62A1.68,1.68,0,0,0,36.79,258.43Zm-2.52-4.35a1.5,1.5,0,0,0,1.29,1.57,2,2,0,0,0,1-1.79c0-.74-.32-1.48-1.14-1.39A1.47,1.47,0,0,0,34.27,254.08Z"/><path class="cls-2" d="M78.89,81.69c0,10.37-11.67,16.63-26.81,13.83-16-3-29.77-14.84-29.77-26.37S36,51.83,52.08,56C67.22,59.89,78.89,71.31,78.89,81.69Z"/><path class="cls-5" d="M76.93,81.25c0,8.9-10.84,14.06-24.85,11.4C37.3,89.84,24.7,79.5,24.7,69.69S37.3,55.11,52.08,58.85C66.09,62.39,76.93,72.35,76.93,81.25Z"/><line class="cls-6" x1="61.44" y1="69.87" x2="61.43" y2="69.87"/><line class="cls-6" x1="42.39" y1="65.37" x2="42.38" y2="65.36"/><path class="cls-7" d="M74.12,79.87c-2.44-3.72-7.07-7.12-12.68-9.07h0a28.71,28.71,0,0,0-3.15-.93l-1.17-.25c-3.92-.49-5,3.15-5,7,0-3.89-1.11-8-5.12-9.42-.41-.12-.81-.22-1.22-.32a32.42,32.42,0,0,0-3.35-.6h0c-6.16-.77-11.43.5-14.31,3.28,1.43-5.75,9.8-8.4,19.59-6,1.09.27,2.14.58,3.17.94l1.25-1.66,1.25,2.27a28.14,28.14,0,0,1,3.11.58C65.58,67.92,72.92,74,74.12,79.87Z"/><path class="cls-8" d="M47.08,86.47a1.12,1.12,0,0,1-.08.46c0,.11-.13.16-.22.14l-3.59-.71c-.09,0-.16-.1-.22-.23a1.41,1.41,0,0,1-.08-.5v-8a1.14,1.14,0,0,1,.08-.47c.06-.11.13-.16.22-.14l3.59.78A.32.32,0,0,1,47,78a1.41,1.41,0,0,1,.08.5Zm-.25-8.11a.07.07,0,0,0,0,0l-3.59-.77s0,0,0,0a.22.22,0,0,0,0,.1v8a.29.29,0,0,0,0,.09s0,0,0,0l3.59.72a.05.05,0,0,0,0,0,.28.28,0,0,0,0-.09v-8A.31.31,0,0,0,46.83,78.36Z"/><path class="cls-8" d="M47.73,87.26l1.94-8.85.26.06L48,87.31Zm3.86.76-1.92-9.61.26.06,1.92,9.6Z"/><path class="cls-8" d="M52.32,88.17l1.9-8.78.25.06-1.9,8.77Zm.4-1.23v-.53l3.24.66v.52Zm3.39,2-1.89-9.53.25.06L56.36,89Z"/><path class="cls-8" d="M57.28,89.15a.31.31,0,0,1-.21-.22,1.32,1.32,0,0,1-.08-.49v-7.8a1.12,1.12,0,0,1,.08-.46c0-.11.12-.15.21-.13l3.41.74c.09,0,.15.09.21.21a1.37,1.37,0,0,1,.07.49v.26l-.22,0v-.26a.3.3,0,0,0,0-.1.08.08,0,0,0,0,0l-3.41-.73,0,0a.25.25,0,0,0,0,.1v7.8a.2.2,0,0,0,0,.09s0,0,0,0l3.41.68s0,0,0,0a.2.2,0,0,0,0-.09v-.25L61,89v.26a1.06,1.06,0,0,1-.07.45c-.06.11-.12.16-.21.14Z"/><polygon class="cls-9" points="78.89 265.26 22.3 273.09 22.3 131.99 78.89 138.25 78.89 265.26"/><polygon class="cls-9" points="78.89 265.26 22.3 273.09 22.3 297.94 78.89 287.62 78.89 265.26"/><polygon class="cls-9" points="78.89 287.62 22.3 297.94 22.3 333.74 78.89 319.85 78.89 287.62"/><path class="cls-10" d="M30.34,309.88l1.47-9.44,4.05-.77-.17,1.1-3.31.64-.45,2.88,3.1-.61-.17,1.1-3.1.61-.5,3.22,3.45-.71L34.54,309Z"/><path class="cls-10" d="M35.58,308.8,37,299.45l.74-.14-.6,3.83,2.86-.57.59-3.8.72-.14-1.42,9.27-.73.15.68-4.38-2.87.57-.68,4.4Z"/><path class="cls-10" d="M41.13,307.65l1.41-9.25,3.9-.74-.17,1.08-3.18.61-.43,2.83,3-.59-.16,1.08-3,.59L42,306.41l3.32-.68-.16,1.09Z"/><path class="cls-10" d="M46.15,306.61l1.39-9.16,2-.38a2.74,2.74,0,0,1,.79-.07.82.82,0,0,1,.58.31,1.52,1.52,0,0,1,.29.79,4.51,4.51,0,0,1,0,1.21,5.45,5.45,0,0,1-.73,2.05,2.41,2.41,0,0,1-1.67,1.11l-1.36.27-.57,3.73Zm1.43-4.95,1.38-.27a1.56,1.56,0,0,0,1-.63,2.81,2.81,0,0,0,.47-1.27,2.27,2.27,0,0,0,0-.95.58.58,0,0,0-.36-.45,1.69,1.69,0,0,0-.64,0l-1.35.26Z"/><path class="cls-10" d="M52.47,296.51l3.36-.63-.16,1.06-2.67.51-1.21,8-.69.14Z"/><path class="cls-10" d="M55.15,304.76l1.35-9,.68-.13-1.34,9Z"/><path class="cls-10" d="M60.4,303.67l.59-4-.78.15a1.91,1.91,0,0,0-.38.12,1.78,1.78,0,0,0-.34.3,3.73,3.73,0,0,0-.43.67c-.17.31-.4.75-.67,1.33l-1,2-.86.17,1.26-2.63a10.54,10.54,0,0,1,.74-1.3,3.19,3.19,0,0,1,.48-.53,1,1,0,0,1-1-.62,2.79,2.79,0,0,1-.11-1.54,5.07,5.07,0,0,1,.41-1.39,2.65,2.65,0,0,1,.7-1,2.4,2.4,0,0,1,1.07-.43l2.24-.43-1.32,8.9Zm1.18-7.93-1.61.31a1.39,1.39,0,0,0-.89.56,2.6,2.6,0,0,0-.41,1.1,2,2,0,0,0,0,.78A.67.67,0,0,0,59,299a1.21,1.21,0,0,0,.7,0l1.44-.28Z"/><path class="cls-10" d="M41,319.59l.68.14a7.93,7.93,0,0,1-1.17,2.51,2.82,2.82,0,0,1-1.58,1.13,1.33,1.33,0,0,1-1.35-.27,2.73,2.73,0,0,1-.58-1.59,9.85,9.85,0,0,1,.1-2.45,11,11,0,0,1,.72-2.63A5.85,5.85,0,0,1,39,314.58a2.81,2.81,0,0,1,1.41-.85,1.14,1.14,0,0,1,1.27.41,3,3,0,0,1,.47,1.82l-.75.44a2.45,2.45,0,0,0-.32-1.35.77.77,0,0,0-.84-.27,2,2,0,0,0-1.14.75,4.57,4.57,0,0,0-.81,1.52,11.64,11.64,0,0,0-.45,1.83,8.83,8.83,0,0,0-.11,2,1.8,1.8,0,0,0,.43,1.19.91.91,0,0,0,.87.22,2.06,2.06,0,0,0,1.12-.84A5.81,5.81,0,0,0,41,319.59Z"/><path class="cls-10" d="M42.08,322.48l1.42-9.27,2-.44a1.24,1.24,0,0,1,.94.07,1.06,1.06,0,0,1,.45.73,3,3,0,0,1,0,1.17,4.11,4.11,0,0,1-.35,1.15,3.41,3.41,0,0,1-.69,1,.92.92,0,0,1,.62.66,3.06,3.06,0,0,1,.05,1.34,5.83,5.83,0,0,1-.34,1.24,4.13,4.13,0,0,1-.52.95,2.46,2.46,0,0,1-.66.59,2.86,2.86,0,0,1-.89.36Zm.89-1.26,1.34-.31a2,2,0,0,0,.49-.16,1.41,1.41,0,0,0,.45-.34,2.12,2.12,0,0,0,.35-.58,3.24,3.24,0,0,0,.23-.8,2.19,2.19,0,0,0,0-.86.6.6,0,0,0-.35-.44,1.41,1.41,0,0,0-.76,0l-1.25.28Zm.65-4.28,1.16-.26a2.1,2.1,0,0,0,.7-.26,1.62,1.62,0,0,0,.48-.55,2.45,2.45,0,0,0,.25-.83,2,2,0,0,0,0-.78.5.5,0,0,0-.29-.4,1.65,1.65,0,0,0-.8.05l-1.08.24Z"/><path class="cls-10" d="M47.34,316.93a9.85,9.85,0,0,1,1.25-3.74,3.38,3.38,0,0,1,2-1.68,1.27,1.27,0,0,1,1.22.31,2.55,2.55,0,0,1,.64,1.49,8.75,8.75,0,0,1-.06,2.37,10.57,10.57,0,0,1-.7,2.56,5.92,5.92,0,0,1-1.16,1.87,2.78,2.78,0,0,1-1.37.86,1.23,1.23,0,0,1-1.24-.31,2.55,2.55,0,0,1-.64-1.5A8,8,0,0,1,47.34,316.93Zm.73-.15a4.65,4.65,0,0,0,.12,2.5.94.94,0,0,0,1.15.66,2.54,2.54,0,0,0,1.44-1.27,7.6,7.6,0,0,0,.91-2.83,7.48,7.48,0,0,0,.08-1.9,1.94,1.94,0,0,0-.44-1.14.85.85,0,0,0-.87-.25,2.4,2.4,0,0,0-1.41,1.16A7.56,7.56,0,0,0,48.07,316.78Z"/><path class="cls-10" d="M54,310.92l3.35-.72-.16,1.06-2.66.58-.42,2.8,1.24-.28a1.85,1.85,0,0,1,1,0,.91.91,0,0,1,.52.71,3.63,3.63,0,0,1,0,1.41,5.85,5.85,0,0,1-.36,1.32,4.16,4.16,0,0,1-.66,1.09,2.27,2.27,0,0,1-1.24.66l-2,.47Zm-.51,7.91,1.37-.32a1.48,1.48,0,0,0,.89-.59,2.87,2.87,0,0,0,.45-1.25,2,2,0,0,0,0-.9.5.5,0,0,0-.36-.4,2.57,2.57,0,0,0-.95.09l-.91.21Z"/><path class="cls-10" d="M57.73,314.58a9.73,9.73,0,0,1,1.21-3.66,3.19,3.19,0,0,1,1.94-1.64,1.2,1.2,0,0,1,1.17.31,2.47,2.47,0,0,1,.61,1.46,8,8,0,0,1,0,2.33,11,11,0,0,1-.67,2.5,5.89,5.89,0,0,1-1.12,1.84,2.71,2.71,0,0,1-1.32.84,1.17,1.17,0,0,1-1.19-.32,2.5,2.5,0,0,1-.62-1.47A8.11,8.11,0,0,1,57.73,314.58Zm.7-.14a4.66,4.66,0,0,0,.12,2.45.89.89,0,0,0,1.1.65A2.38,2.38,0,0,0,61,316.31a7.58,7.58,0,0,0,.88-2.78,7.12,7.12,0,0,0,.07-1.86,2,2,0,0,0-.42-1.12.82.82,0,0,0-.84-.25,2.37,2.37,0,0,0-1.36,1.13A7.72,7.72,0,0,0,58.43,314.44Z"/><path class="cls-10" d="M64.42,308.66l3-.66-1.14,7.81.45-.1-.45,3.11-.59.14.3-2.07-3.3.77-.31,2.09-.59.14.46-3.14.39-.1A26.72,26.72,0,0,0,64.23,310Zm2.21.53-1.73.38-.06.45c-.12.76-.3,1.8-.57,3.13a20.86,20.86,0,0,1-.93,3.35l2.31-.54Z"/><path class="cls-10" d="M68.67,307.74l.59-.13-1,7L71.86,307l.64-.14-1.26,8.77-.59.13,1-6.93L68,316.41l-.66.16Z"/><line class="cls-11" x1="24.91" y1="137.28" x2="40.39" y2="138.85"/><line class="cls-11" x1="24.91" y1="157.56" x2="40.39" y2="158.58"/><line class="cls-11" x1="24.91" y1="164.82" x2="40.39" y2="165.64"/><line class="cls-11" x1="24.91" y1="185.1" x2="40.39" y2="185.36"/><line class="cls-11" x1="24.91" y1="192.36" x2="40.39" y2="192.43"/><line class="cls-11" x1="24.91" y1="212.64" x2="40.39" y2="212.15"/><line class="cls-11" x1="24.91" y1="219.91" x2="40.39" y2="219.21"/><line class="cls-11" x1="24.91" y1="240.19" x2="40.39" y2="238.94"/><line class="cls-11" x1="24.91" y1="247.45" x2="40.39" y2="246"/><line class="cls-11" x1="24.91" y1="267.73" x2="40.39" y2="265.72"/><polygon class="cls-7" points="75.61 162.13 42.67 160.04 42.67 138.01 75.61 141.42 75.61 162.13"/><polygon class="cls-7" points="75.61 187.08 42.67 186.6 42.67 164.56 75.61 166.38 75.61 187.08"/><polygon class="cls-7" points="75.61 212.15 42.67 213.28 42.67 191.24 75.61 191.44 75.61 212.15"/><polygon class="cls-7" points="75.61 237.22 42.67 239.95 42.67 217.91 75.61 216.51 75.61 237.22"/><polygon class="cls-7" points="75.61 262.15 42.67 266.49 42.67 244.45 75.61 241.45 75.61 262.15"/><path class="cls-2" d="M36,291.57l-8.83,1.55c-.75.13-1.35-.63-1.35-1.71V278.5c0-1.07.6-2,1.35-2.13L36,275.08c.72-.11,1.3.66,1.3,1.71v12.65A2.08,2.08,0,0,1,36,291.57Z"/><path class="cls-2" d="M49.59,289.18l-8.41,1.47c-.7.13-1.28-.62-1.28-1.66V276.4c0-1,.58-2,1.28-2.08l8.41-1.22c.68-.1,1.24.65,1.24,1.67v12.34C50.83,288.13,50.27,289.06,49.59,289.18Z"/><path class="cls-2" d="M62.55,286.91l-8,1.4c-.67.12-1.22-.61-1.22-1.63V274.4c0-1,.55-1.93,1.22-2l8-1.16c.66-.09,1.19.64,1.19,1.64v12C63.74,285.89,63.21,286.79,62.55,286.91Z"/><path class="cls-2" d="M74.91,284.74l-7.62,1.34c-.64.11-1.17-.61-1.17-1.6v-12c0-1,.53-1.87,1.17-2l7.62-1.11c.63-.09,1.13.63,1.13,1.6v11.77C76,283.75,75.54,284.63,74.91,284.74Z"/><path class="cls-9" d="M74.34,283.94l-6.46,1.12c-.64.11-1.16-.61-1.16-1.6V273.32c0-1,.52-1.88,1.16-2l6.46-1c.62-.09,1.13.62,1.13,1.6v10C75.47,283,75,283.83,74.34,283.94Z"/><path class="cls-12" d="M62,286.09l-6.77,1.17c-.68.12-1.22-.61-1.22-1.63V275.24c0-1,.54-1.92,1.22-2l6.77-1c.66-.09,1.18.64,1.18,1.64v10.21C63.13,285.07,62.61,286,62,286.09Z"/><path class="cls-9" d="M49,288.34l-7.11,1.24c-.71.12-1.29-.62-1.29-1.67V277.26c0-1,.58-2,1.29-2.08l7.11-1c.69-.1,1.24.64,1.24,1.67v10.46C50.19,287.3,49.64,288.22,49,288.34Z"/><path class="cls-9" d="M35.3,290.71,27.81,292c-.74.13-1.35-.63-1.35-1.7V279.38a2.05,2.05,0,0,1,1.35-2.13l7.49-1.1c.72-.11,1.3.66,1.3,1.71v10.73C36.6,289.64,36,290.59,35.3,290.71Z"/><path class="cls-7" d="M35.29,283.06l-1.12.18-1.11-4.54-.8,0,.6,4.71-2.57.41.61-4.92-.8.2L29,284.07l-1.15.18a1,1,0,0,0-.64,1c0,.51.29.87.64.81.91-.14.76,4.57,1.27,4.48l5-.85c.5-.09.35-4.7,1.23-4.85.35-.05.62-.49.62-1S35.64,283,35.29,283.06Zm-1.58,5.73-4.27.73c-.36.06-.3-3.65-.94-3.55l6.13-1C34,285.07,34.06,288.73,33.71,288.79Z"/><path class="cls-7" d="M42.65,286l-.84-7.48.43-.07.48,4.92c.05.51.09,1,.13,1.53.08-.82.13-1.3.14-1.43l.6-5.23.5-.07.46,3.77q.16,1.4.24,2.64c0-.48.09-1,.16-1.67l.49-4.95.41-.06L45,285.59l-.4.07L43.93,280c0-.48-.09-.77-.1-.88,0,.36-.06.66-.09.91l-.67,5.9Z"/><path class="cls-7" d="M48.46,282.37l.4.18a5.93,5.93,0,0,1-.46,1.95c-.22.47-.49.73-.82.79a.81.81,0,0,1-.82-.36,3.48,3.48,0,0,1-.48-1.37,11.34,11.34,0,0,1-.16-2,10.06,10.06,0,0,1,.19-2.09,4.07,4.07,0,0,1,.52-1.42,1.15,1.15,0,0,1,.76-.57.76.76,0,0,1,.78.46,3.94,3.94,0,0,1,.44,1.55l-.4.29a3.33,3.33,0,0,0-.31-1.15.5.5,0,0,0-.52-.29.82.82,0,0,0-.6.51,3.62,3.62,0,0,0-.34,1.17,11.83,11.83,0,0,0-.1,1.47,9.91,9.91,0,0,0,.12,1.66,2.38,2.38,0,0,0,.36,1,.56.56,0,0,0,.53.27c.23,0,.42-.23.58-.58A4.79,4.79,0,0,0,48.46,282.37Z"/><path class="cls-9" d="M55.18,287.26,62,286.09c.66-.12,1.18-1,1.18-2V273.86c0-1-.52-1.73-1.18-1.64l-6.77,1c-.68.1-1.22,1-1.22,2v10.39C54,286.65,54.5,287.38,55.18,287.26Z"/><path class="cls-13" d="M62.4,279.08c0,1.22-.64,2.31-1.44,2.44a.85.85,0,0,1-.45,0,2.84,2.84,0,0,1-1.92,1.83,1.49,1.49,0,0,1-1-.15c1,.12,1-7.1,1.92-6.94a2.3,2.3,0,0,1,1,1,1.08,1.08,0,0,1,.45-.17C61.76,277,62.4,277.86,62.4,279.08Z"/><path class="cls-14" d="M59.55,276.23c-1-.16-1,7.06-1.92,6.94h0a2.22,2.22,0,0,1-1-1.05,1.22,1.22,0,0,1-.46.19c-.82.13-1.48-.76-1.48-2s.66-2.33,1.48-2.46a1,1,0,0,1,.45,0,2.82,2.82,0,0,1,2-1.82A1.59,1.59,0,0,1,59.55,276.23Z"/><path class="cls-2" d="M56,281.09l-.46-2.55.23,0,.27,1.68c0,.18,0,.35.07.53,0-.29.07-.46.08-.5l.33-1.83.28,0,.24,1.29a8.28,8.28,0,0,1,.14.9c0-.17.05-.36.09-.58l.27-1.73.23,0-.48,2.69-.22,0L56.69,279l-.06-.3c0,.12,0,.23-.05.31l-.37,2.06Z"/><path class="cls-2" d="M57.93,278.53v-.37l.22,0v.37Zm0,2.25v-1.9l.22,0v1.9Z"/><path class="cls-7" d="M59.85,280.46v-2.61l1.15-.18V278l-.92.15v.8l.8-.12v.3l-.8.13v1.19Z"/><path class="cls-7" d="M61.27,278v-.37l.21,0V278Zm0,2.23v-1.88l.21,0v1.88Z"/><path class="cls-10" d="M71.71,271.92l-3.66.55v11.41l1.18-.2v-3.63l2.48-.41a2.17,2.17,0,0,0,1.31-.8,5.23,5.23,0,0,0,1.15-3.25v-.39C74.11,273.18,73,271.73,71.71,271.92ZM73,275.78c-.07,1.05-.63,1.94-1.31,2.05l-2.48.4v-4.11l2.48-.38c.68-.1,1.24.62,1.31,1.63a2.11,2.11,0,0,1,0,.41Z"/><polygon class="cls-7" points="51.68 391.85 57.15 389.84 66.42 365.36 57.15 346.94 51.68 348.5 61.15 367.09 51.68 391.85"/><polygon class="cls-7" points="44.41 394.52 50.02 392.46 59.54 367.61 50.02 348.98 44.41 350.59 54.13 369.38 44.41 394.52"/><polygon class="cls-7" points="36.93 397.26 42.7 395.15 52.48 369.92 42.7 351.08 36.93 352.73 46.92 371.74 36.93 397.26"/><path class="cls-2" d="M31.61,2.86C23.88,5.6,18.79,12.27,18.79,21.78v431L3,445.65V26.58C3,16.76,8.7,10,17.25,7.61l.1,0Z"/><path class="cls-3" d="M32,4.13c.41-.32,0-.6-1.23-.1L30.09,5Z"/><path class="cls-3" d="M23,5.82c-1.41.81-3,1.92-1.82,2.18,1.31-1.1,1.75-1,3.13-2.22,1.26-.5,2.31-.54,2.17-.24.4-.31,2-.52,2.61-1.15A14.26,14.26,0,0,0,23,6.28C22.53,6.29,22.93,6,23,5.82Z"/><path class="cls-3" d="M2.05,127.18l.07-.86A6.64,6.64,0,0,0,2.05,127.18Z"/><path class="cls-3" d="M1.68,209.13c0-.62-.08-.88-.14-.91C1.58,208.8,1.63,209.27,1.68,209.13Z"/><path class="cls-3" d="M1,223.13,1,222.3A2.24,2.24,0,0,0,1,223.13Z"/><path class="cls-3" d="M2.05,127.18l-.21,2.19C2.05,129.52,2,128.24,2.05,127.18Z"/><path class="cls-3" d="M8.44,15.14A6.09,6.09,0,0,0,9,14.2L8.4,15A.42.42,0,0,1,8.44,15.14Z"/><path class="cls-3" d="M1.51,91.05v-.67a4.68,4.68,0,0,0-.27-.55Z"/><path class="cls-3" d="M1.41,63.32c0,.63.54.85.78,1.09A2.91,2.91,0,0,1,1.81,63C1.7,63,1.57,63.11,1.41,63.32Z"/><path class="cls-3" d="M3.58,19.29l.21-.78Z"/><path class="cls-3" d="M1.39,110.89a.48.48,0,0,0-.2.26C1.26,111.15,1.32,111.05,1.39,110.89Z"/><path class="cls-3" d="M16.15,29.44s.07,0,.1,0C16.2,29.28,16.16,29.23,16.15,29.44Z"/><path class="cls-3" d="M31.66,3l-.4.19a.72.72,0,0,0,0,.33Z"/><path class="cls-3" d="M.23,248.73v-.11C.18,248,.19,248.33.23,248.73Z"/><path class="cls-3" d="M21.12,432c-.5,2.66-.65-4.33-1.2-.32C20.14,431.32,20.79,435.34,21.12,432Z"/><path class="cls-3" d="M8,15.61c-.19.28-.38.56-.59.84A7.25,7.25,0,0,0,8,15.61Z"/><path class="cls-3" d="M19.92,431.7h0l-.05.41Z"/><path class="cls-3" d="M.57,307.74a1.9,1.9,0,0,0,.25-.6C.76,307.16.69,307.29.57,307.74Z"/><path class="cls-3" d="M1.37,263.78l-.07,1.09C1.35,264.44,1.36,264.09,1.37,263.78Z"/><path class="cls-3" d="M1.36,330.56a6.8,6.8,0,0,0,0,1.6,1.37,1.37,0,0,0,.07-.24A3.53,3.53,0,0,1,1.36,330.56Z"/><path class="cls-3" d="M1.37,354.32c0-.13.07-.29.11-.44l0-.75Z"/><path class="cls-3" d="M16.42,101.63a3.85,3.85,0,0,1,.51-1.09C16.53,100.9,16.39,97.41,16.42,101.63Z"/><path class="cls-3" d="M8.18,15a1.06,1.06,0,0,1-.2.66A5.19,5.19,0,0,1,8.4,15C8.38,14.92,8.32,14.86,8.18,15Z"/><path class="cls-3" d="M5.8,331.53l-.08,3.77C5.77,334.25,5.8,332.88,5.8,331.53Z"/><path class="cls-3" d="M16.51,272.06l-.07-.87A2.58,2.58,0,0,0,16.51,272.06Z"/><path class="cls-3" d="M5.8,346.5a12.15,12.15,0,0,0-.39,2.13,2.05,2.05,0,0,0,.15.44Z"/><path class="cls-3" d="M16.94,100.53h0Z"/><path class="cls-3" d="M15.6,75.67c0,3.6.72,1.69,1.15,2.45.21,4.29-.55,2-.92,3.45.19,2.68.87,4.73.84,6.73-.12.15-.16.54-.32.09.59,2.83,0,8.41.77,11.71a1.32,1.32,0,0,1-.18.43c.37-.54.74-.62,1-.51,0,1.61.47,3,0,3.6a2.84,2.84,0,0,0-.33-1.53l.21,1.69c-.69,1.52-.24-2.31-.75-2.31.22,3.3.8,7.13.6,9.66-.68.53-.23-5.9-.83-2.54l.26-3.9c-1.07,3,.07-2.37-1.07.37-.2,5.14.34,5.75.15,10.87.37,1.16.55-.38.93.78.68,7.28-1.71,5.73-.8,11.09.45,1.39,1.31,1.93.86,5.74l-.77-1.3c-.08,5,1.1,2.84.59,8-.31-.92-.26-3.91-.35-3.16-.61,3.38.44,2.39.44,5l-.68.53c.1,5.3.59,11.14.72,17-.21-.33-.42-1.33-.63,0,.34,7.4-.08,15.8-.48,22.94l.58,2.72c0,.64-.26,1.18-.37.49-.23,2.78.37.15.6,1.48,0,1.59-.34,2.09-.51,1.09.49,4.91,1.07,14,.44,19.16l-.18-1c-.23,4,1.21,4.54.66,8.28l-.1-.72c-.26,8.75.28,18.41-.61,25.08.85,1.26-.37,8.65.81,9.21-.59,5-.8,3.56-1.19,10.59-.06,1.88.73,2.8.86,5.12l-.62.06.65,3.15L16.28,269l.16,2.17c0-.86.27-1.84.45-1.71.28,3.4-.43,8.29-.74,8.38l.52,8a8.63,8.63,0,0,1-.49-2.59c.63,4.3-.65.78-.08,4.72.14-.53.37.28.5.37a54.91,54.91,0,0,0-.22,9.73L16,297.5c-.11,6,.21,12.58.2,19.28.2-2.41.93-1.85,1,.11l-.65.79c.4,1.26.25-2.06.74.55-.07,2.5-.74,1.68-.95.24l.22,3c-.19.18-.29-.53-.54-.72.4,1.25-.65,5.25,0,7.06l-.2.17c0,6.69.22,9.73.26,15.18.56.11.43,2.24.89,3.87-.18,4-.62,8.45-.58,13.28.28,3.4.48,1,.81,2.52-.51.25-.46,5.07-.83,2.57.09,5.8.1,7.4.52,14.73.21-.79.3-1.69.48-1.22.08,1.33-.22,3-.47,2.83l0-.35c.77,8.23-1.49,19-.42,25.54l-.06-.36.56,6.79c-.09,3.13-.38-1.87-.7.44.85,7.33-.13,11.58.44,17.62-.7,2.16-.73,5.88-.65,9.87,0,2,.08,4.06.12,6V448a.93.93,0,0,1,0,.24c0,.14-.06.24-.13.24a1.37,1.37,0,0,1-.28-.32,5,5,0,0,0,.26.52c0,.17-.21,0-.3-.12a3.43,3.43,0,0,1-.18-.42c-.08.27.27.48.06.6l-.2-.07-.11,0-.08,0-.19-.08-1.57-.67-3.15-1.4L7.1,445l-1.36-.64-.42-.22c.14-4.28.28-8.6.43-12.93.17-4.82.35-9.65.46-14.41.09-5.18-1.84-2.94-1-9.46l.66,1.85c-.79-10.45,0-21.36-.65-31.59a3.79,3.79,0,0,1,.35,1.62c.48-2.16,0-8-.37-8,0-1.6.36-.37.56-1.35.28-2.17-.62-5.44-.14-6.59.08-.2.16.61.19,1-.23-1.41.06-6.58-.49-5.22.26-3.84-.25-7.35.08-10.41-.62-2,.3-6.57-.58-7.21.91.28.73-6.72.31-9.15.27.81.28-2.11.66-1.16,0-2.77-.18-5.31-.65-4.83,1.09-5.1-.87-10.25.52-13.13-.49-8.23-.81-15.84-1-23.24.91.27.09,8.18,1,7.86-.37-7-1.15-11.07-.93-18,.13-1.8.39,1,.55,1.63-.37-7,.08-13.56-.41-19.8a4.42,4.42,0,0,1,.24,1.32c0-1.23.14-2.86-.27-2.72l.11,1.2c-.6,2-1.25-4.88-1.56-5.11,1.17,2.09.29-6.16,1.78-2.84-.08-.81-.27-1.83-.55-1.64.08-1.2.24-1.59.56-.37-.23-4.4-.66-2.84-.65-6.83.19,0,.27.82.5,1.23a27.76,27.76,0,0,1-.6-7.42c.12.2.27-.19.27.81-.06-5.79-1-9.87-.66-16.23.87,1.88.29-2.16,1-2.5l-.22-3.41-.36,1.37c0-3-.53-5.64-.29-8.22l.31,2.23-.14-5.61L4.1,210c-.38-3-.94.33-.73-3.66a43.7,43.7,0,0,1,.45-4.55h0a19.23,19.23,0,0,1-.3-5.22c.24-.58.82.46,1,.09-.62-1.46-.17-7-.84-8.87.16.62.55.65.63.45L3.78,187c.17-1.38.24-1.59.56-1.36.09-4.17-.95,1.33-.54-3.63a6.89,6.89,0,0,1,.19,1c.21-5-.32-9.61-.07-14.18.75-1.35.18,4,.82,2.45-.14-6.59-.9-13.64-.73-20l-.08,1.19c-1.06-.89.53-4.75,0-8,.07.79.58,1,.47.82.17-4.37-.26-8.93-.6-15.55l.27.82c.25-2.57.14-6.77.27-9.55-.27-.83-.23-2.42-.63-1.45,1.56-8.57-.83-16.35.46-24,0,.91.24,2.16.24,1.44l-.25-6.48c-.46.52-.28.85-.64,2.21a16.85,16.85,0,0,1-.48-4.25c.3,2.91.74,0,1-1.28-.14.21-.3-.22-.44-.12.82-3.38-.93-.56-.38-5.18l.24.24a45.25,45.25,0,0,1-.37-5.18c.53-.78.25,1.84.69,2,0-2.62-1-5.17-.48-7.54.15,1.11.15,2.71.3,3.82a17.56,17.56,0,0,0,.56-4.8v.19l.28-4.43-.17,1.13C2.9,64.11,4,60.72,3.13,56.3c.86,4.29.5.71,1.1,1,.17-1.13.36-2.84.53-2.35-.49-2.09.38-3.49-.33-6.43.19-.13,0-2.23.51-1.76-.16-2.71-.34.64-.59.41-.66-4.18.81-9.83-.1-15.84-.18-2.59-.48-4.15-.67-5.6a14.26,14.26,0,0,1,.15-5.31c.75-1.45.3,1.45.36,1.45a40,40,0,0,1,2.64-6.25c-.14.49.27.16.85-.29,1.12-1.45.19-1.5,2.22-3A11.32,11.32,0,0,1,9,14.2a17.67,17.67,0,0,1,4.9-4.45c.35,0,.09.29-.32.62a16,16,0,0,0-1.22,1.07A25.58,25.58,0,0,1,16.12,9.3c.69-.28,1.25-.54,1.82-.82a3.49,3.49,0,0,0,1-.7l-1.72.36c.95-.33.64.29,0,.61-2,1-3,1-3.27.84a16,16,0,0,1,1.48-.77c-1-.24-2.62.51-4.12,1.72a26,26,0,0,0-3.85,4.17c.08-.52.17-1.06.28-1.62A18,18,0,0,0,6.2,16.32c-.55.51-1.24.77-.47-.8a8.74,8.74,0,0,0-.85,1.19,6.54,6.54,0,0,0-.32.83,7.69,7.69,0,0,1-.87,1.89c-.16.2-.16.08-.11-.14-.12.4-.17.82-.25,1.23s-.15.81-.18,1.23c0-.51-.7.27-.18-1.2A12.25,12.25,0,0,0,2.25,26a8.24,8.24,0,0,1-.08,3.33l0-.36c.28,6,.61.58,1.33,5.12L1.94,37.17l.61.59c0,.63-.07,1.86-.31,1.63.42,2.33.27-.39.66,1-.56,3,.26,8.27-.71,8.95.46,1.08.36-2.87.68.33-1,.92.18,3.71-.3,6.45-.54-.84-.26-3.44-.74-.69.91,1.65-.2,5.34,0,7.65.72.11.3,5,.54,8.91-.24-.24-.4,7.31-.66,10.92l-.12-.11c.73.7.59,4.42.75,7.14-.44-.11-.62-.6-.81-2.07v2.55A10,10,0,0,1,2,93.43l-.55-.64c0,3.4.65,6.84.28,11.2.52.25,1.43-3.47,1.77,1.15-.28.17-.75.34-.86-.87a9.48,9.48,0,0,1,.11,2.21l-.47-1.85c-.2,2,.39,1,.35,2.63-.4,0-.28,1.18-.6.95a10,10,0,0,0,0-2,19.72,19.72,0,0,1-.6,4.67c.22-.15.53,0,.58,1.32,0,3.39-.47,1.16-.68,3.14.28.82,0,3,.58,3A2.65,2.65,0,0,1,1.44,120c.26,1.76.07,8.21.7,6.23l0-.45,0,.28h0c.59,5.76-.33,12-.08,17.67H1.93c.22,3.41.13,7.59.55,10,0,1-.36,2.38-.59,2a29.93,29.93,0,0,1,0,6.66c-.34-2.62-.3.9-.25-2.69-.17,3.39-.49,4.16.05,7.79-.5-1.23-.63,2.55-.48,4.16l.36-2.37c.07,1.81,0,3.39,0,5l-.67-.87c-.81,6.93,1.38,12.5,0,17.78.47,1.83.33-3.77.87-2.13-.09,3.19-1,6.51-1,7.51-.37,4.37,1,4.07.72,8.64.23-.58.87-1.13,1.09,2.28-.09,3.19-1,3.92-1.18,1.91,0-.77.05-1.13.13-1.1-.08-1-.19-2.39-.44-1.12l.23.41c-.24,1.58-.21,6-.6,4.94.22,2.41.39,1,.51-.75-.34,4.09,0,6.39-.24,10.6.13-.67.41-1.28.41-.62-.3,6.18.45,2.72.55,6.91C1.6,231,1.1,227.74,1.4,232c-.25,2.57-.63.54-.82-.48.45,3.84-.3,7.17-.39,9.37l-.19-2C.11,240,.11,241,.11,242l.47-1.15C.5,242.05.5,243.06.3,243c.31,1.22.79-.94,1.22,1.49-.24,1.58.26,4.82-.37,5.37.21-5-.64.55-.74-3.67a18.76,18.76,0,0,1,0,3c-.07.18-.13-.17-.17-.5-.56,4.77.72,2.19.7,7.13-.35-.63-.67,1.15-.6,1.95,0-2,.6-.95.87.87-.28,3.17.2,3.44.17,5.1l.13-1.89c.36.64.31,2.22.42,4.43-.28.19-.19-2-.31-1.22.62,2.45-.65,5.54-.23,9-.24,1.58-.66.15-.83,1.54.46,3.83-.48,4.15-.1,8.17.47-1.16.36-1.36.82,1.47l-.33-6.61.69,4.24c0-2-.3-4.21-.22-5.41.39,2,.27,1.82.67.86-.72,2.73.42,5.42-.07,8.58l-1.18-.1c-.53,4.75.61,8.44.31,14.6l.21-2c.47.83.06,3.81.25,5.8-.39-.18-.54,1.07-.78,1.92.29-.1,0,4.51.76,5.07L1.06,315c-.21,5,1.12,5.69,1,10.47-.43-1.44-.71.73-1-2.47,0,1.6-.07,3,.2,3.06-.25.93.53,4.43.16,5.9a5.42,5.42,0,0,1,.55,2.69c-.08.19-.19,0-.19,0,.19,0,.26,2.81.7,1.24-1.23,4.92.09,13.76-1,18,.13,3.49.26,7.69.29,10.85-.12-.2-.2,0-.16-.6-.36,4.36,1.14,2.68.73,7.65-.64,2.54-.35-2.64-.59-1.06-1.3.69.18,6-.58,9.34l-.08-.8c-.44,2.55.49,6.23.4,10.41,0,0-.11-.21-.19,0,.66,2.86.88,8.27,1.06,12.28-.51-1.25-.27-1.82-.78-1.06.07,1.8.83-.53,1,3.07-.28,1.17-.52,3.76-1.07,4.1l0-3.39c-.72,1.74,0,4.39-.1,6.18L1,410.59c.1,5.2.88,5.27.83,10.85l.23-.57c.78,3.05-.43,2.56.14,5.6l-.79.92c.19,2,.77,7.06.92,10.67-.59-2.05-.89-6.27-1.24-8.89,0,2,.06,6.78.45,7.82a12,12,0,0,1-.15-2.61,28.09,28.09,0,0,1,.7,4.25c.07.81.13,1.66.17,2.56l0,1.39c0,.5,0,1,0,1.54-.42-.19-.63.69-.76,2.42q.69.39,1.62.84l1.69.82,3,1.45a19.31,19.31,0,0,1,4.72,2.81l.67.25,1.1.45,2.14.9c1.41.6,2.8,1.22,4.22,1.87,0-2.08,0-4.15.07-6.29,0-.9,0-1.79.07-2.7,0-.67,0-1.34.07-2,.09-2.71.18-5.53.15-8.52-1.19,2.91,0-2.39-1.26-1.89a12,12,0,0,1,0-2.81l.73-5.78c.36-1.37.27,1.81.55,1.64.09-4.18.51-1.76.84-4.52-.44.56-.63-1.46-.46-3.84L21,422.56c-.66-5.85,1-5.05.38-10.94l.38,1.86c-.22-3,0-11.15-1-14.11.14-.54.47-1.24.56.09.15-7.23-1-16.08-.44-21.69l.3.54c-.09-1.34-.56-2.34-.26-4,.12.09.3.54.32-.08a26.33,26.33,0,0,1-.35-5.37l.33,1.53c.39-7-.82-10.81-1-16.72.88,0,1.16-5.53,1.31-8.29l.12.09c.11-8.2-.73-13.93-1.07-21.53.95-4.72.4-16,.93-23.55-.16,1.16-.68-.19-.77-1.54.18-1.78-.61-4.92.19-4.63v.63c.79-1.34.58-5,.6-7.85l-1.05-.47c1.53-7.46-.57-19.56.81-23.63-.27-1.8-.26-4-.53-5.82l.57.09c.14-5,.21-7.48.08-13.65l.4,1.26c0-3.48-1.63-4.39-1.66-7.6l.84-1c0-6.07.73-12.22,0-18.22.12.1.36.28.4,1.26,0-2.85.57-11.05-.59-10,.76-.07.07-6.27-.26-9.55l.56.51A22.46,22.46,0,0,1,20,193.45c.08-.91.45-.8.31.42.29-3.05-.53-2.38-.23-6.08l.35,1.38a11.11,11.11,0,0,0-.56-4.62c-.22-2,.14-6,.64-6.42a8.09,8.09,0,0,1-.57-4c.19-.25.31.42.37.76.38-5.25-.65-7.81-.1-11.42.18-.07.27-.31.33-.61,0,4.17,0,7.53-.09,7.22.52,0,.61-3.37,1.32-.69-.39-2.71-1.23-7.33-1-10.61a1.76,1.76,0,0,1,.18-.44l.06.34a10,10,0,0,0-.09-2.08c.09-1,.15-1.71.16-2.72.42-.38.23-3.86.25-5.54-.56.14-.47-2.06-.94,0,0-.27.07.32.09,1.44,0,.25,0,.55.06.71l-.05-.11c0,1.1,0,2.54,0,4.17A11,11,0,0,1,20.3,150c-.37-.86-.74-1.81-.91-2.34.78-2.3,1.21-6.73,1.69-7.35-.32-5.13-.21-12.09-1.26-15.31a3.4,3.4,0,0,1,.46-2.22,19.39,19.39,0,0,0,.25,2.3c-.28-2.92-.11-8.64-.85-9.34.34-3.68.68,2.07.56-3l.23.68c1.18-9.94-1.89-16.16-.37-27.17a3.83,3.83,0,0,1-.26,1.3c.67-12.56-.63-25.88.43-38.27.21-3.52-.26-3.9-.62-6l.61-.77-.7-3.67c-.51-5.21,1.48-9,.52-15.63l-.41.85c0-.59,0-1.35,0-2.16s0-1.61.09-2.35l.11-1c.05-.3.11-.57.17-.79.12-.43.22-.65.32-.53a2.18,2.18,0,0,1,.18-1.63l.32,0a18.27,18.27,0,0,1,1.87-5.21c1.37-1.7,1.57-1.29,1.82-1.17s.58,0,2.87-1.86c.84-.7,2-1.74,3.09-2.44s1.76-1.24,1.31-1.19-1,.33-1.52.46-.89.19-1,.07l1-.55,1-.49c0-.51.37-1.15,0-1.48-.16-.18-.52-.26-1.2-.2a5.8,5.8,0,0,0-1.28.25A10.8,10.8,0,0,0,27,2.43a19.68,19.68,0,0,0-3.11,2.93L22.56,6c.43-.42.86-.85,1.31-1.24s.92-.79,1.42-1.13A7.2,7.2,0,0,0,21.89,7,3.29,3.29,0,0,0,20.38,8.1a19.47,19.47,0,0,0-1.31,4.07c-.54.33.09-2-1.22.5-.28,2,1.36-1.44.57,1.64-.52.87-.74,1.19-1,1.55a4.17,4.17,0,0,0-.29,2c-.3.29-.36-.22-.3-1.17-.07,1.07-.22,2.45-.22,3.7A7.39,7.39,0,0,0,17,23.16c-.52,1.91.14,6.47-.75,6.28A24.86,24.86,0,0,1,17,34.57c-1.05-3.22-.06,6.58-1.19,5.73.95,2.38.42,8.59.95,12.8A2.63,2.63,0,0,1,16.56,52,34.75,34.75,0,0,1,16,56.61c.79.3,1,4,1.45,6-.76,2.91-.92-1.76-1.65-.85.64-.15.64,5.05,1.17,4.06-.47,2.22-.23,1.91-.88,3.06,1,.39.17,2.07.77,3.91-.48,3.22-.92.83-.62,4.36C16,78.81,15.6,75.67,15.6,75.67Zm1.7,84h0c0-.73,0-1.34,0-1.74C17.26,158.29,17.27,158.79,17.3,159.67Zm0,7.06c0-.86,0-1.93,0-3.07.19-.24.39,0,.38.73C17.58,164,17.47,165.67,17.3,166.73Zm3.9-14.94c.08,1.12,0,1.5-.15,1.65,0-.53,0-1.15-.06-1.95l-.07-.14A1,1,0,0,1,21.2,151.79Z"/><path class="cls-3" d="M20.46,149.79c0-.17,0-.25,0-.46q-.08.33-.12.66l.17.4Z"/><path class="cls-3" d="M2.14,126.18l0,.14c0-.12,0-.23.08-.31A1.07,1.07,0,0,1,2.14,126.18Z"/><polygon class="cls-3" points="16.23 264.2 16.37 264.19 16.25 263.57 16.23 264.2"/><path class="cls-3" d="M4.07,87.3a1.33,1.33,0,0,0,.14-.51A1.47,1.47,0,0,0,4.07,87.3Z"/><path class="cls-3" d="M4.19,70.5l.2-2.37C4.28,69.16,4.23,69.91,4.19,70.5Z"/><path class="cls-3" d="M4.47,57.59a.63.63,0,0,0-.24-.25v0Z"/><path class="cls-3" d="M5.13,262.89c0,.18,0,.35,0,.5C5.27,264.56,5.22,263.77,5.13,262.89Z"/><path class="cls-3" d="M3.82,201.8c.1.65.2,1.28.26,2C4.13,202.67,4.14,201.83,3.82,201.8Z"/><path class="cls-3" d="M5.81,331.12h0v0Z"/><path class="cls-3" d="M4.08,206.6a14.13,14.13,0,0,0,0-2.84A22.43,22.43,0,0,0,4.08,206.6Z"/><path class="cls-3" d="M17.11,9.5l.56-.16s0-.07,0-.1Z"/><path class="cls-3" d="M17.71,9.24c.29-.11.45-.2.68-.29A2.49,2.49,0,0,0,17.71,9.24Z"/><path class="cls-3" d="M19.73,8.35,18.39,9A4.07,4.07,0,0,0,19.73,8.35Z"/><path class="cls-3" d="M5.74,19.43l.13.24A.27.27,0,0,0,5.74,19.43Z"/><path class="cls-3" d="M4.68,24.1A40.2,40.2,0,0,1,6,19.86l-.1-.19a2.63,2.63,0,0,1-.24.83c-.13.36-.3.77-.49,1.2A5.32,5.32,0,0,0,4.68,24.1Z"/><path class="cls-3" d="M2,45.6l.16-4.36C2,42,1.66,43,1.61,41,1,46.51,2.09,39.89,2,45.6Z"/><path class="cls-3" d="M1.69,59.09c-.1-2.34-.31,0-.44-.09C1.45,60.48,1.5,60.84,1.69,59.09Z"/><path class="cls-3" d="M1.69,156.63l-.51-.24C1.25,158.2,1.38,156.41,1.69,156.63Z"/><polygon class="cls-3" points="4.33 175.27 4.65 173.52 4.18 172.68 4.33 175.27"/><polygon class="cls-3" points="0.69 186.29 0.62 185.5 0.8 188.51 0.69 186.29"/><path class="cls-3" d="M.87,350.09l.63-.54C1.39,348.33.68,348.07.87,350.09Z"/><path class="cls-3" d="M1.51,420.81a8.47,8.47,0,0,0-.21,4C1.35,423.21,1.59,421.62,1.51,420.81Z"/><polygon class="cls-3" points="21.28 282.95 21.49 284.38 21.32 281.69 21.28 282.95"/><polygon class="cls-15" points="75.61 162.13 42.67 160.04 42.67 138.01 75.61 141.42 75.61 162.13"/><polygon class="cls-15" points="75.61 187.08 42.67 186.6 42.67 164.56 75.61 166.38 75.61 187.08"/><polygon class="cls-15" points="75.61 212.15 42.67 213.28 42.67 191.24 75.61 191.44 75.61 212.15"/><polygon class="cls-15" points="75.61 237.22 42.67 239.95 42.67 217.91 75.61 216.51 75.61 237.22"/><polygon class="cls-15" points="75.61 262.15 42.67 266.49 42.67 244.45 75.61 241.45 75.61 262.15"/><path class="cls-16" d="M49.88,148.56v-7.32l-1.11-1.77L44.29,139l-1.13,1.56V148l.57.89-.57.8v7.65l1.13,1.75,4.48.29,1.11-1.58v-7.56h0l-.55-.88.55-.78ZM48.77,157l-.46.66-3.55-.25-.47-.72v-6.26l.47-.65,3.55.29.46.73Zm0-9.24-.46.65-3.55-.3-.47-.74v-6l.47-.65,3.55.35.46.74Z"/><path class="cls-16" d="M57.51,149.22V142l-1.08-1.74-4.35-.44L51,141.35v7.3l.56.88-.56.79v7.54l1.1,1.72,4.35.29,1.08-1.57v-7.45h0L57,150l.54-.77Zm-1.08,8.33-.44.65L52.54,158l-.46-.71v-6.17l.46-.64,3.45.28.44.72Zm0-9.11-.44.65-3.45-.3-.46-.72v-5.93l.46-.64,3.45.34.44.73Z"/><path class="cls-16" d="M69.08,150.21l.52.84-.52.75h0v7.3l1,1.66,4.06.26,1-1.51v-7.2l-.51-.84.51-.75v-7l-1-1.68-4.06-.41-1,1.49v7.06Zm1,2.34.42-.63,3.22.27.42.69v5.91l-.42.63-3.22-.23-.42-.69Zm0-8.65.42-.62,3.22.32.42.7V150l-.42.62-3.22-.27-.42-.7Z"/><path class="cls-16" d="M61.78,149.58l.53.85-.53.77h0v7.4l1,1.68,4.18.28,1-1.53v-7.31l-.52-.85.52-.76V143l-1-1.71-4.18-.42-1,1.51v7.16Zm1,2.38.44-.64,3.31.27.43.71v6l-.43.63-3.31-.22-.44-.7Zm0-8.77.44-.63,3.31.33.43.71v5.76l-.43.63-3.31-.28-.44-.71Z"/><path class="cls-16" d="M60.72,158.52c0,.9-.48,1.59-1.07,1.56s-1.07-.8-1.07-1.7.48-1.6,1.07-1.55S60.72,157.63,60.72,158.52Z"/><path class="cls-16" d="M49.88,174.89v-7.33l-1.11-1.71-4.48-.24-1.13,1.61v7.41l.57.87-.57.82V184l1.13,1.7,4.48.07,1.11-1.63v-7.57h0l-.55-.85.55-.8Zm-1.11,8.5-.46.68L44.76,184l-.47-.71v-6.25l.47-.68,3.55.12.46.7Zm0-9.23-.46.67-3.55-.13-.47-.71v-6l.47-.67,3.55.18.46.71Z"/><path class="cls-16" d="M57.51,175.17v-7.23l-1.08-1.69L52.08,166l-1.1,1.6v7.3l.56.85-.56.81v7.55l1.1,1.67,4.35.07,1.08-1.62V176.8h0L57,176l.54-.79Zm-1.08,8.38-.44.67-3.45-.06-.46-.7V177.3l.46-.67,3.45.12.44.69Zm0-9.1-.44.66L52.54,175l-.46-.7v-5.92l.46-.67,3.45.18.44.7Z"/><path class="cls-16" d="M69.08,175.59l.52.82-.52.78h0v7.29l1,1.61,4.06.07,1-1.56v-7.2l-.51-.82.51-.77v-7l-1-1.63L70.11,167l-1,1.54v7.07Zm1,2.29.42-.65,3.22.11.42.67v5.91l-.42.65-3.22-.06-.42-.67Zm0-8.64.42-.64,3.22.16.42.68v5.68l-.42.64-3.22-.12-.42-.67Z"/><path class="cls-16" d="M61.78,175.32l.53.83-.53.79h0v7.4l1,1.63L67,186l1-1.58v-7.3l-.52-.83.52-.78v-7.08l-1-1.65-4.18-.22-1,1.56v7.16Zm1,2.33.44-.66,3.31.11.43.68v6l-.43.66-3.31-.06-.44-.68Zm0-8.77.44-.65,3.31.17.43.69v5.76l-.43.65-3.31-.12-.44-.69Z"/><path class="cls-16" d="M60.72,184.32c0,.89-.48,1.61-1.07,1.6s-1.07-.75-1.07-1.64.48-1.62,1.07-1.61S60.72,183.42,60.72,184.32Z"/><path class="cls-16" d="M49.88,201.21v-7.33l-1.11-1.66-4.48,0-1.13,1.67v7.41l.57.84-.57.85v7.66l1.13,1.63,4.48-.14,1.11-1.69v-7.57h0l-.55-.82.55-.83Zm-1.11,8.56-.46.7-3.55.11-.47-.68v-6.26l.47-.7,3.55-.05.46.68Zm0-9.24-.46.7-3.55,0-.47-.69v-6l.47-.69h3.55l.46.69Z"/><path class="cls-16" d="M57.51,201.12v-7.23l-1.08-1.63-4.35,0L51,193.88v7.31l.56.82-.56.84v7.55l1.1,1.61,4.35-.14,1.08-1.67v-7.45h0l-.54-.81.54-.82Zm-1.08,8.44-.44.69-3.45.1-.46-.67v-6.16l.46-.7,3.45,0,.44.67Zm0-9.11-.44.68-3.45.05-.46-.68v-5.93l.46-.68H56l.44.68Z"/><path class="cls-16" d="M69.08,201l.52.79-.52.8h0v7.3l1,1.56,4.06-.13,1-1.61v-7.21l-.51-.78.51-.81v-7l-1-1.58-4.06,0-1,1.59V201Zm1,2.24.42-.67,3.22-.05.42.65v5.91l-.42.67-3.22.09-.42-.65Zm0-8.65.42-.66h3.22l.42.65v5.69l-.42.66-3.22,0-.42-.66Z"/><path class="cls-16" d="M61.78,201.06l.53.81-.53.81h0v7.4l1,1.58,4.18-.13,1-1.63v-7.31l-.52-.8.52-.81v-7.07l-1-1.61H62.83l-1,1.61v7.16Zm1,2.28.44-.68,3.31,0,.43.66v6l-.43.68-3.31.1-.44-.66Zm0-8.77.44-.67h3.31l.43.66v5.76l-.43.68-3.31,0-.44-.67Z"/><path class="cls-16" d="M60.72,210.11c0,.9-.48,1.64-1.07,1.66s-1.07-.7-1.07-1.6.48-1.64,1.07-1.65S60.72,209.22,60.72,210.11Z"/><path class="cls-16" d="M49.88,227.53v-7.32l-1.11-1.61-4.48.2-1.13,1.72v7.42l.57.8-.57.88v7.66l1.13,1.58,4.48-.36,1.11-1.75v-7.56h0l-.55-.8.55-.86Zm-1.11,8.62-.46.72-3.55.28-.47-.66v-6.25l.47-.72,3.55-.23.46.66Zm0-9.24-.46.72-3.55.21-.47-.66v-6l.47-.72,3.55-.17.46.67Z"/><path class="cls-16" d="M57.51,227.07v-7.23l-1.08-1.58-4.35.19-1.1,1.7v7.31l.56.8-.56.86v7.55l1.1,1.56,4.35-.36,1.08-1.71V228.7h0l-.54-.78.54-.85Zm-1.08,8.49-.44.71-3.45.27-.46-.65v-6.16l.46-.71L56,228.8l.44.65Zm0-9.11-.44.71-3.45.21-.46-.66v-5.92l.46-.71,3.45-.16.44.65Z"/><path class="cls-16" d="M69.08,226.36l.52.77-.52.83h0v7.29l1,1.51,4.06-.33,1-1.66v-7.2l-.51-.76.51-.83v-7l-1-1.54-4.06.18-1,1.64v7.07Zm1,2.19.42-.69,3.22-.2.42.63v5.91l-.42.69-3.22.25-.42-.63Zm0-8.64.42-.68,3.22-.16.42.64v5.68l-.42.69-3.22.19-.42-.63Z"/><path class="cls-16" d="M61.78,226.81l.53.77-.53.84h0v7.4l1,1.53L67,237l1-1.68V228l-.52-.77.52-.84v-7.08l-1-1.55-4.18.19-1,1.66v7.17Zm1,2.22.44-.7,3.31-.21.43.63v6l-.43.7-3.31.26-.44-.64Zm0-8.77.44-.69,3.31-.16.43.65v5.76l-.43.69-3.31.2-.44-.64Z"/><path class="cls-16" d="M60.72,235.9c0,.9-.48,1.66-1.07,1.71s-1.07-.64-1.07-1.54.48-1.66,1.07-1.71S60.72,235,60.72,235.9Z"/><path class="cls-16" d="M49.88,253.86v-7.33L48.77,245l-4.48.42-1.13,1.78v7.41l.57.78-.57.91v7.65l1.13,1.53,4.48-.59,1.11-1.8v-7.56h0l-.55-.77.55-.88Zm-1.11,8.67-.46.74-3.55.45-.47-.63v-6.25l.47-.75,3.55-.4.46.63Zm0-9.24-.46.74-3.55.39-.47-.65v-6l.47-.74,3.55-.34.46.65Z"/><path class="cls-16" d="M57.51,253v-7.23l-1.08-1.53-4.35.41L51,246.42v7.31l.56.77-.56.89v7.54l1.1,1.51,4.35-.56,1.08-1.77v-7.46h0l-.54-.76.54-.87Zm-1.08,8.54-.44.74-3.45.44-.46-.63V256l.46-.74,3.45-.39.44.63Zm0-9.1-.44.72-3.45.38-.46-.63V247l.46-.73,3.45-.33.44.64Z"/><path class="cls-16" d="M69.08,251.75l.52.74-.52.85h0v7.3l1,1.46,4.06-.53,1-1.71v-7.2l-.51-.74.51-.85v-7l-1-1.48-4.06.38-1,1.69v7.07Zm1,2.14.42-.71,3.22-.37.42.61v5.91l-.42.71-3.22.41-.42-.61Zm0-8.65.42-.7,3.22-.31.42.62v5.68l-.42.7-3.22.36-.42-.62Z"/><path class="cls-16" d="M61.78,252.55l.53.75-.53.87h0v7.39l1,1.48L67,262.5l1-1.73v-7.31l-.52-.74.52-.87v-7.07l-1-1.5-4.18.39-1,1.71v7.17Zm1,2.17.44-.72,3.31-.38.43.62v6l-.43.72-3.31.42-.44-.61Zm0-8.77.44-.71,3.31-.32.43.63v5.76l-.43.71-3.31.36-.44-.62Z"/><path class="cls-16" d="M60.72,261.7c0,.89-.48,1.68-1.07,1.76s-1.07-.59-1.07-1.49.48-1.69,1.07-1.76S60.72,260.8,60.72,261.7Z"/></g></g></svg>