<svg xmlns="http://www.w3.org/2000/svg" viewBox="0 0 208.95 735.34"><defs><style>.cls-1{fill:#fff;stroke-linecap:round;stroke-linejoin:round;stroke-width:2px;}.cls-1,.cls-4{stroke:#8b001d;}.cls-2,.cls-4{fill:none;stroke-miterlimit:10;}.cls-2{stroke:#810f2e;stroke-width:0.75px;}.cls-3{fill:#810f2e;}.cls-5{fill:#8b001d;}</style></defs><title>StellaHeader_1</title><g id="Layer_2" data-name="Layer 2"><g id="Layer_1-2" data-name="Layer 1"><polygon class="cls-1" points="189.58 519.16 189.58 519.17 171.96 676.57 37.13 734.34 66.7 528.64 66.7 528.62 37.13 327.5 171.96 364.49 189.58 519.16"/><polygon class="cls-1" points="66.71 528.62 37.13 734.34 22.15 727.72 51.72 527.55 22.15 331.74 37.13 327.5 66.71 528.62"/><polygon class="cls-1" points="207.95 138.9 207.95 367.97 45.97 321 45.97 1 207.95 138.9"/><polyline class="cls-2" points="77.94 174.25 77.94 99.92 163.29 161.2 178.67 172.25 185.33 177.03 185.33 181.46"/><polyline class="cls-2" points="185.33 207.06 185.33 269.64 123.33 238.45 86.96 220.16 77.94 215.62 77.94 210.94"/><polyline class="cls-2" points="83.76 174.16 79.81 117.63 163.29 161.2 178.49 169.14 178.67 172.25 178.99 177.91"/><polyline class="cls-2" points="181.1 214.74 183.58 257.91 123.33 238.45 87.43 226.86 86.96 220.16 86.49 213.43"/><path class="cls-3" d="M181.93,192.32c-2.24-1.51-3.61.87-7.29-1.59l-14.19-7.88a5,5,0,0,0-4.67-.77c-.16-3-3.28-6.42-9.82-10.53-3.57-6.74-7.71-9.55-12.72-6q.85,7.4-2.42,9.3c-1.84-.08-1.72,1.11,1.73,3.31q3-1.44,2.37,2.62-5.79.27-13.36-4.65a215.78,215.78,0,0,0-2-24.3c-1.4-7.65-2.11-8.37-5.29-5.79L99.38,173.58c-1.62-.55-3.28-1.16-5-1.78-4.39-.42-6.57,8.27-.85,8.86.74-.14,1.48-.25,2.21-.35L89,192.86c-.59.94-1.32.93-1.77-.52-.79-3.24-2.37-4-2.37-.71l.55,12.07c0,1,1.48,1.53,2.45.57l11.85-24.48c6.87-.73,13-.35,17.9,2.38.78.23,1.21.74,1,2.69-1.12,12-.76,22.08,1.3,29.74.89,1.75,6.69-1.2,5.76-4.57a102.72,102.72,0,0,1-2.38-24.36c5.15,2.49,9.12,3.11,11.94,1.91-1.58,5.85-3.13,11.88-3.13,19.58,0,7.19-1.53,17-5.46,14.91-1.2-.65-2.16,1.51-2.16,4.8s1,6.47,2.16,7.08c6.76,3.49,9.39-39.62,10.12-39.19,1.4.86,2,4.39,2.19,7.24,0,5.07,10.45,24.11,16.18,27.31,2.33,1.3,3.21-.46,1.24-3.84-7.78-8.66-12.41-20-13-34.27q6.59-2,9.68-4.37c.68,2.29,1.19,4.64,2.36,5.39,2.06,1.31,3.75-5.43,5.23-4.46l5,3.25c.7.46-.59,7.33-.59,11.89,0,2.8-2.43,6-2.43,11.14-.17,7.75-3.88,12.77-3.88,19.28,0,1.06,3.33,3,4.15,1.94,1.86-2.28,3.66-15.7,3.66-24.8,0-4.81,4.29-13.08,4.29-17.15,0-1,3.61.91,3.61,2.38,0,2.13,3.53,3.25,4.53,2.06C180.34,196.16,183.58,193.44,181.93,192.32Zm-65.16-14.25a83.51,83.51,0,0,1-14.55-3.53l8.67-17.91c1.77-1.81,2.83-1.07,3.17,2.2a40.94,40.94,0,0,0,3,11.75A18,18,0,0,1,116.77,178.07Zm20.55,10.79,3.05-13.17c4.39,1.84,10.74,3.15,10.74,7.45C151.11,187.18,142.55,187.48,137.32,188.86Z"/><path class="cls-3" d="M128.77,267.88a7.35,7.35,0,0,0,.52-1.62,15.62,15.62,0,0,0,.24-2.82,19.71,19.71,0,0,0-.24-3c-.36-2.12-1.06-3.81-1.89-4.38l-.17-.11-7.06-3.32V276.8l2.19.92v-11l3.79,1.69c.69.31,1.25,2.21,1.25,4.25v7.22l2.13.9v-7.19a22.78,22.78,0,0,0-.32-3.82A15.48,15.48,0,0,0,128.77,267.88Zm-2.62-3-3.79-1.71v-5.94l3.79,1.75c.69.32,1.25,1.9,1.25,3.53S126.84,265.15,126.15,264.84Z"/><polygon class="cls-3" points="137.19 264.06 137.19 269.83 141.28 271.68 141.28 275.11 137.19 273.29 137.19 280.53 142.6 282.85 142.6 286.27 135.12 283.11 135.12 259.63 142.6 263.16 142.6 266.58 137.19 264.06"/><polygon class="cls-3" points="156.25 269.59 156.25 292.04 154.35 291.24 149.85 273.76 149.85 289.34 147.9 288.51 147.9 265.65 149.85 266.58 150.83 270.4 152.45 276.73 153.43 280.51 154.35 284.12 154.35 268.7 156.25 269.59"/><path class="cls-3" d="M113.41,261a6.58,6.58,0,0,0,.55-1.66,14.6,14.6,0,0,0,.27-2.9,18.54,18.54,0,0,0-.27-3.14c-.4-2.35-1.24-4.21-2.19-4.66l-7.51-3.54v25l7.51,3.18c.89.37,1.68-.75,2.11-2.74a17.41,17.41,0,0,0,.35-3.64,22.24,22.24,0,0,0-.35-3.95A17.08,17.08,0,0,0,113.41,261Zm-2.75,8.14-4.07-1.75v-7.7l4.07,1.81c.75.33,1.36,2.3,1.36,4.41S111.41,269.45,110.66,269.13Zm0-11.29L106.59,256v-6.13l4.07,1.88c.75.35,1.36,2,1.36,3.67S111.41,258.18,110.66,257.84Z"/><path class="cls-3" d="M169.13,278.89a6.87,6.87,0,0,0-.56-2.47,3.21,3.21,0,0,0-1.38-1.67l-5.94-2.8v22.2l5.94,2.51c1,.44,1.86-.64,1.94-2.41a2.26,2.26,0,0,0,0-.26V279.16A2.53,2.53,0,0,0,169.13,278.89Zm-1.79,12.84c0,1-.44,1.57-1,1.34l-3.27-1.41V276.09l3.27,1.52a2.59,2.59,0,0,1,1,2.21Z"/><polygon class="cls-1" points="207.95 367.97 173.58 373.53 172.98 373.38 171.96 364.49 37.13 327.5 22.15 331.74 23.33 339.57 1 334.04 45.97 321 207.95 367.97"/><polygon class="cls-1" points="45.97 1 45.97 321 1 334.04 1 39.28 45.97 1"/><line class="cls-4" x1="188.12" y1="532.25" x2="187.99" y2="532.26"/><line class="cls-4" x1="182.41" y1="583.23" x2="182.33" y2="583.25"/><polygon class="cls-1" points="204.29 381.36 204.29 417.47 52.95 392.17 52.95 342.78 204.29 381.36"/><polygon class="cls-1" points="204.29 431.92 204.29 468.03 52.95 461.31 52.95 411.92 204.29 431.92"/><polygon class="cls-1" points="204.29 518.59 52.95 530.45 52.95 481.06 204.29 482.48 204.29 518.59"/><polygon class="cls-1" points="204.29 569.15 52.95 599.6 52.95 550.21 204.29 533.03 204.29 569.15"/><polygon class="cls-1" points="204.29 619.71 52.95 668.74 52.95 619.35 204.29 583.59 204.29 619.71"/><polygon class="cls-5" points="124.6 374.83 124.6 380.01 121.43 379.32 121.43 374.11 118.22 373.38 118.22 389.1 121.43 389.73 121.43 384.53 124.6 385.18 124.6 390.35 121.43 394.94 118.22 394.34 114.96 388.47 114.96 372.65 118.22 368.15 121.43 368.91 124.6 374.83"/><polygon class="cls-5" points="134.89 372.1 134.89 377.17 131.85 376.48 131.85 396.86 128.77 396.29 128.77 375.78 125.65 375.07 125.65 369.91 134.89 372.1"/><polygon class="cls-5" points="144.76 374.45 144.76 379.41 138.89 378.07 138.89 383.1 141.84 383.74 141.84 388.73 138.89 388.12 138.89 393.14 144.76 394.29 144.76 399.25 135.9 397.61 135.9 372.34 144.76 374.45"/><polygon class="cls-5" points="154.23 376.69 154.23 401 151.43 400.48 151.43 380.92 148.59 380.28 148.59 399.96 145.72 399.43 145.72 379.63 148.59 375.36 154.23 376.69"/><polygon class="cls-5" points="163.33 378.85 163.33 402.68 160.64 402.18 160.64 397.39 157.91 401.68 155.16 401.17 155.16 376.92 157.91 377.57 157.91 396.86 160.64 392.6 160.64 378.21 163.33 378.85"/><polygon class="cls-5" points="111.1 428.46 111.1 455.04 107.75 454.83 107.75 433.43 104.36 433.07 104.36 454.62 100.92 454.4 100.92 432.72 104.36 427.69 111.1 428.46"/><path class="cls-5" d="M115.5,429l-3.29,4.92v5.3l1.65,2.8-1.65,2.51v10.6l3.29.21V444.77l3.25.27v10.47l3.21.2v-26Zm3.25,10.84-3.25-.31v-5.27l3.25.34Z"/><path class="cls-5" d="M96.26,448.64V432.23l-3.56-5.88-3.6-.41-3.65,5.17v16.75l-3.7-.27v5.63l18,1.11V448.9Zm-3.56-.25-3.6-.26V431.49l3.6.37Z"/><path class="cls-5" d="M137.4,436.51l-3-5.38-6.14-.7V456.1l6.14.38,3-4.85v-5l-1.5-2.65,1.5-2.39Zm-3,14.9-3-.22v-5.1l3,.25Zm0-10.14-3-.29v-5.1l3,.32Z"/><path class="cls-5" d="M141.35,431.93l-3,4.69v20.1l3,.19v-10l2.92.24v9.93l2.89.18V432.59Zm2.92,10.26-2.92-.27v-5l2.92.31Z"/><polygon class="cls-5" points="161.99 434.29 161.99 458.19 148.12 457.33 148.12 432.7 150.96 433.03 150.96 452.61 153.76 452.81 153.76 438.22 156.54 438.5 156.54 453.01 159.28 453.21 159.28 433.98 161.99 434.29"/><path class="cls-5" d="M168.18,435l-2.63-.3-2.67,4.46v14.31l2.67,4.94,2.63.16,2.6-4.52V440Zm0,18.86-2.63-.19V439.44l2.63.28Z"/><path class="cls-5" d="M185,436.93l-2.44-.28-2.46,4.3v13.77l2.46,4.74,2.44.15,2.41-4.36V441.71Zm0,18.14-2.44-.17V441.21l2.44.25Z"/><polygon class="cls-5" points="179.25 436.27 179.25 440.87 174.21 440.34 174.21 458.94 171.64 458.79 171.64 435.4 179.25 436.27"/><polygon class="cls-5" points="160.64 494.85 160.64 499.64 157.91 499.73 157.91 494.9 155.16 494.95 155.16 509.51 157.91 509.37 157.91 504.55 160.64 504.44 160.64 509.23 157.91 514.19 155.16 514.36 152.37 509.65 152.37 495.01 155.16 490.11 157.91 490.08 160.64 494.85"/><polygon class="cls-5" points="151.43 490.14 151.43 495.02 145.72 495.13 145.72 500.08 148.59 500 148.59 504.92 145.72 505.03 145.72 509.98 151.43 509.69 151.43 514.58 142.82 515.11 142.82 490.21 151.43 490.14"/><path class="cls-5" d="M113.86,501l-3.31.1v-5.32l5-.09v-5.27l-8.31.07v26.77l6.67-.4,3.27-5.45v-5.25Zm0,10.57-3.31.17v-5.32l3.31-.13Z"/><polygon class="cls-5" points="121.43 495.59 118.22 495.65 118.22 490.41 121.43 490.38 121.43 495.59"/><polygon class="cls-5" points="121.43 516.41 118.22 516.6 118.22 500.89 121.43 500.79 121.43 516.41"/><polygon class="cls-5" points="131.85 500.49 130.31 503.09 131.85 505.58 131.85 510.68 128.77 515.96 122.49 516.34 122.49 511.15 128.77 510.83 128.77 505.71 125.65 505.83 125.65 500.67 128.77 500.58 128.77 495.45 122.49 495.57 122.49 490.37 128.77 490.32 131.85 495.39 131.85 500.49"/><polygon class="cls-5" points="141.84 490.21 141.84 515.17 138.89 515.35 138.89 505.3 135.9 505.42 135.9 515.53 132.87 515.71 132.87 490.29 135.9 490.26 135.9 500.37 138.89 500.28 138.89 490.24 141.84 490.21"/><polygon class="cls-5" points="169.49 489.98 169.49 508.78 166.87 513.64 161.54 513.97 161.54 509.18 166.87 508.91 166.87 504.19 164.22 504.29 161.54 499.62 161.54 490.05 164.22 490.03 164.22 499.54 166.87 499.46 166.87 490.01 169.49 489.98"/><polygon class="cls-5" points="139.88 548.7 139.88 553.71 136.9 554.13 136.9 574.3 133.88 574.86 133.88 554.56 130.83 554.99 130.83 549.88 139.88 548.7"/><path class="cls-5" d="M143.79,548.18l-2.93,5.39v20l2.93-.53v-9.95l2.89-.47v9.88l2.86-.52V547.43Zm2.89,9.5-2.89.44v-5l2.89-.41Z"/><polygon class="cls-5" points="154.23 608.38 154.23 613.24 151.43 614.01 151.43 609.12 148.59 609.87 148.59 624.63 151.43 623.79 151.43 618.9 154.23 618.1 154.23 622.96 151.43 628.68 148.59 629.55 145.72 625.48 145.72 610.63 148.59 604.95 151.43 604.23 154.23 608.38"/><path class="cls-5" d="M128.77,610l-3.12,6v20.64l3.12-1V625.37l3.08-.88v10.19l3-.93V608.43Zm3.08,9.41-3.08.85v-5.13l3.08-.81Z"/><polygon class="cls-5" points="144.76 615.85 143.31 618.73 144.76 620.81 144.76 625.77 141.84 631.62 135.9 633.44 135.9 628.39 141.84 626.63 141.84 621.64 138.89 622.48 138.89 617.46 141.84 616.65 141.84 611.66 135.9 613.23 135.9 608.17 141.84 606.67 144.76 610.89 144.76 615.85"/><polygon class="cls-1" points="204.29 417.47 178.33 419.92 177.99 417.03 163.23 414.7 47.26 396.35 32.26 398.71 32.92 403.07 7.95 399.51 52.95 392.17 204.29 417.47"/><polygon class="cls-1" points="52.95 342.78 52.95 392.17 7.95 399.51 7.95 353.97 52.95 342.78"/><line class="cls-1" x1="45.97" y1="321" x2="207.95" y2="367.97"/><polygon class="cls-1" points="204.29 468.03 183.91 468.54 183.86 468.14 57.04 462.84 57.03 462.84 42.04 463.43 42.21 464.56 7.95 463.26 52.95 461.31 204.29 468.03"/><polygon class="cls-1" points="52.95 411.92 52.95 461.31 7.95 463.26 7.95 417.72 52.95 411.92"/><polygon class="cls-1" points="52.95 481.07 52.95 530.45 7.95 527.01 7.95 481.47 52.95 481.07"/><polygon class="cls-1" points="204.29 533.03 52.95 550.21 7.95 545.22 49.71 541.17 49.29 544.03 64.28 545.54 187.99 532.26 188.02 531.99 204.29 533.03"/><polygon class="cls-1" points="52.95 550.21 52.95 599.6 7.95 590.76 7.95 545.22 52.95 550.21"/><polygon class="cls-1" points="204.29 583.59 181.69 588.93 52.95 619.35 7.95 608.97 40.67 602.37 39.76 608.51 54.76 611.76 182.33 583.25 182.61 580.7 204.29 583.59"/><polygon class="cls-1" points="52.95 619.35 52.95 668.74 7.95 654.51 7.95 608.97 52.95 619.35"/></g></g></svg>