<svg xmlns="http://www.w3.org/2000/svg" xmlns:xlink="http://www.w3.org/1999/xlink" viewBox="0 0 80.73 453.35"><defs><style>.cls-1,.cls-11,.cls-12,.cls-13,.cls-5,.cls-6,.cls-9{fill:none;}.cls-2,.cls-3{fill:#fff;}.cls-10,.cls-13,.cls-14,.cls-3,.cls-4,.cls-5,.cls-8,.cls-9{stroke:#8b001d;}.cls-11,.cls-13,.cls-14,.cls-3,.cls-8{stroke-linecap:round;stroke-linejoin:round;}.cls-3{stroke-width:2px;}.cls-10,.cls-14,.cls-4,.cls-7,.cls-8{fill:#8b001d;}.cls-10,.cls-12,.cls-4,.cls-5,.cls-6,.cls-9{stroke-miterlimit:10;}.cls-4{stroke-width:0.25px;}.cls-6{stroke:#2434b4;}.cls-10,.cls-12,.cls-13,.cls-14,.cls-9{stroke-width:0.5px;}.cls-11{stroke:#fff;}.cls-12{stroke:#000;}.cls-15{opacity:0.4;}.cls-16{fill:url(#LED_White);}</style><pattern id="LED_White" data-name="LED White" width="3" height="3" patternUnits="userSpaceOnUse" viewBox="0 0 3 3"><rect class="cls-1" width="3" height="3"/><circle class="cls-2" cx="0.32" cy="0.32" r="0.32"/><circle class="cls-2" cx="1.11" cy="1.11" r="0.32"/><circle class="cls-2" cx="1.89" cy="0.32" r="0.32"/><circle class="cls-2" cx="2.68" cy="1.11" r="0.32"/><circle class="cls-2" cx="0.32" cy="1.89" r="0.32"/><circle class="cls-2" cx="1.11" cy="2.68" r="0.32"/><circle class="cls-2" cx="1.89" cy="1.89" r="0.32"/><circle class="cls-2" cx="2.68" cy="2.68" r="0.32"/><circle class="cls-2" cx="0.32" cy="0.32" r="0.07"/><circle class="cls-2" cx="1.89" cy="0.32" r="0.07"/><circle class="cls-2" cx="2.68" cy="1.11" r="0.07"/><circle class="cls-2" cx="1.11" cy="1.11" r="0.07"/><circle class="cls-2" cx="0.32" cy="1.89" r="0.07"/><circle class="cls-2" cx="1.89" cy="1.89" r="0.07"/><circle class="cls-2" cx="1.11" cy="2.68" r="0.07"/><circle class="cls-2" cx="2.68" cy="2.68" r="0.07"/></pattern></defs><title>StellaAZS_1</title><g id="Layer_2" data-name="Layer 2"><g id="Layer_1-2" data-name="Layer 1"><path class="cls-3" d="M79.73,40.39V423.86L16.82,452.35v-431c0-16.55,15.4-24.48,33.29-18.12C66.88,9.16,79.73,25.66,79.73,40.39Z"/><polygon class="cls-4" points="75.21 140.32 75.21 162.31 38.91 160.06 38.91 136.5 75.21 140.32"/><polygon class="cls-4" points="38.91 136.5 38.91 160.06 22.42 159.03 22.42 134.77 38.91 136.5"/><polygon class="cls-4" points="75.21 165.31 75.21 187.3 38.91 186.82 38.91 163.27 75.21 165.31"/><polygon class="cls-4" points="38.91 163.27 38.91 186.82 22.42 186.6 22.42 162.34 38.91 163.27"/><polygon class="cls-4" points="75.21 190.3 75.21 212.29 38.91 213.58 38.91 190.03 75.21 190.3"/><polygon class="cls-4" points="38.91 190.03 38.91 213.58 22.42 214.16 22.42 189.91 38.91 190.03"/><polygon class="cls-4" points="75.21 215.29 75.21 237.28 38.91 240.34 38.91 216.79 75.21 215.29"/><polygon class="cls-4" points="38.91 216.79 38.91 240.34 22.42 241.73 22.42 217.47 38.91 216.79"/><polygon class="cls-4" points="75.21 240.28 75.21 262.27 38.91 267.11 38.91 243.55 75.21 240.28"/><polygon class="cls-4" points="38.91 243.55 38.91 267.11 22.42 269.3 22.42 245.04 38.91 243.55"/><path class="cls-2" d="M26.38,151a2.61,2.61,0,0,0,.76,0,2.18,2.18,0,0,0,1.44-.8,4.37,4.37,0,0,0,.9-2.41h0a1.69,1.69,0,0,1-1.61.88c-1.25-.1-2.05-1.44-2.05-3,0-1.77.95-3.25,2.36-3.12s2.27,1.76,2.27,4.14a6.71,6.71,0,0,1-1.18,4.28,2.81,2.81,0,0,1-2,1.1,3.12,3.12,0,0,1-.86,0Zm.34-5.37c0,1.17.52,2,1.33,2.1a1.35,1.35,0,0,0,1.35-.86,1.15,1.15,0,0,0,.08-.46c0-1.59-.43-2.85-1.4-2.94C27.29,143.38,26.72,144.28,26.72,145.61Z"/><path class="cls-2" d="M35.29,144.36l-2.57-.23-.26,2.36a3.12,3.12,0,0,1,.55,0,2.52,2.52,0,0,1,1.45.62,3.18,3.18,0,0,1,1,2.46c0,1.81-1,3.08-2.5,3a2.88,2.88,0,0,1-1.69-.7l.23-.94a2.57,2.57,0,0,0,1.44.62c.87.07,1.6-.64,1.6-1.88a2,2,0,0,0-1.94-2.22,5.54,5.54,0,0,0-.94,0l.44-4.42,3.23.3Z"/><path class="cls-2" d="M26.38,178.36a2.93,2.93,0,0,0,.76,0,2.26,2.26,0,0,0,1.44-.86,4.62,4.62,0,0,0,.9-2.46h0a1.79,1.79,0,0,1-1.61,1c-1.25,0-2.05-1.34-2.05-2.94,0-1.78.95-3.3,2.36-3.24s2.27,1.65,2.27,4a7,7,0,0,1-1.18,4.34,3.06,3.06,0,0,1-2,1.2,3.35,3.35,0,0,1-.86.05Zm.34-5.39c0,1.16.52,2,1.33,2a1.44,1.44,0,0,0,1.35-.93,1.07,1.07,0,0,0,.08-.45c0-1.6-.43-2.84-1.4-2.88C27.29,170.71,26.72,171.64,26.72,173Z"/><path class="cls-2" d="M31.26,179.38v-.77l.72-.94c1.73-2.2,2.5-3.37,2.51-4.77,0-.94-.33-1.82-1.34-1.86a1.9,1.9,0,0,0-1.43.73l-.3-.9a2.44,2.44,0,0,1,1.92-.87c1.45.07,2.06,1.46,2.06,2.78,0,1.71-.9,3.06-2.32,4.89l-.54.67v0l3,.09v1Z"/><path class="cls-2" d="M29.76,196.38V205l.62,0-.06,3.31-.71,0-.07-2.32-4.51.09L25,208.51l-.73,0-.07-3.35.55,0a13.89,13.89,0,0,0,.71-2.15,20,20,0,0,0,.34-4.12V196.4Zm-3.13,2.89a17.72,17.72,0,0,1-.36,4,11.32,11.32,0,0,1-.59,1.86l3.17-.06v-7.63l-2.22,0Z"/><path class="cls-2" d="M36.58,196.36v9.56l-.89,0V197.4l-3.25,0V206l-.9,0v-9.64Z"/><path class="cls-2" d="M27.64,223.52v1.06l-2.89.15v8.71l-.94.07v-9.79Z"/><path class="cls-2" d="M28.72,230.11l-.74,3.1-.95.07,2.42-9.85,1.11-.06,2.4,9.5-1,.06-.75-3ZM31.05,229l-.69-2.74c-.16-.62-.27-1.19-.37-1.75h0c-.11.58-.22,1.17-.36,1.77l-.7,2.84Z"/><path class="cls-2" d="M33.82,223.77a2.83,2.83,0,0,1,1.84-.82c1.2-.07,2,.75,2,2.23a2.47,2.47,0,0,1-1.42,2.4v0c1,.08,1.68.92,1.68,2.29a2.75,2.75,0,0,1-4.33,2.45l.24-1a2.5,2.5,0,0,0,1.56.48A1.73,1.73,0,0,0,37,229.92a1.6,1.6,0,0,0-1.88-1.73l-.41,0v-.94l.41,0a1.8,1.8,0,0,0,1.63-1.85c0-1-.49-1.48-1.25-1.44a2.5,2.5,0,0,0-1.44.71Z"/><path class="cls-2" d="M26.38,260.48a3.34,3.34,0,0,0,.76-.13,2.81,2.81,0,0,0,1.44-1.08,5.27,5.27,0,0,0,.9-2.59h0a2.14,2.14,0,0,1-1.61,1.19c-1.25.14-2.05-1-2.05-2.64,0-1.78.95-3.44,2.36-3.59s2.27,1.32,2.27,3.7a7.81,7.81,0,0,1-1.18,4.51,3.66,3.66,0,0,1-2,1.49,3,3,0,0,1-.86.18Zm.34-5.44c0,1.17.52,1.93,1.33,1.84a1.73,1.73,0,0,0,1.35-1.13,1.17,1.17,0,0,0,.08-.47c0-1.59-.43-2.77-1.4-2.67C27.29,252.7,26.72,253.71,26.72,255Z"/><path class="cls-2" d="M31.17,258.44a3.1,3.1,0,0,1,1.35-2.65v0a2.14,2.14,0,0,1-1.08-2,2.52,2.52,0,0,1,2.1-2.69c1.3-.14,1.95.92,1.95,2.07a2.8,2.8,0,0,1-1.1,2.29v0a2.24,2.24,0,0,1,1.35,2.23,2.79,2.79,0,0,1-2.28,3A2,2,0,0,1,31.17,258.44Zm3.64-.48a1.74,1.74,0,0,0-1.48-1.86,2.24,2.24,0,0,0-1.22,2.06c0,.94.49,1.71,1.36,1.61A1.67,1.67,0,0,0,34.81,258ZM32.3,253.6a1.5,1.5,0,0,0,1.29,1.58,2,2,0,0,0,1-1.8c0-.74-.32-1.47-1.14-1.39A1.47,1.47,0,0,0,32.3,253.6Z"/><path class="cls-2" d="M76.91,81.21c0,10.37-11.66,16.63-26.8,13.84-16-3-29.78-14.85-29.78-26.37S34.06,51.35,50.11,55.5C65.25,59.41,76.91,70.83,76.91,81.21Z"/><path class="cls-5" d="M75,80.78c0,8.9-10.83,14.06-24.84,11.39-14.78-2.8-27.38-13.15-27.38-23s12.6-14.58,27.38-10.84C64.12,61.92,75,71.87,75,80.78Z"/><line class="cls-6" x1="59.47" y1="69.4" x2="59.46" y2="69.39"/><line class="cls-6" x1="40.41" y1="64.89" x2="40.41" y2="64.89"/><path class="cls-7" d="M72.15,79.39c-2.45-3.72-7.07-7.12-12.68-9.07h0a31.87,31.87,0,0,0-3.15-.93c-.4-.09-.78-.17-1.17-.24-3.92-.49-5,3.15-5,7,0-3.88-1.11-8-5.13-9.42l-1.21-.32a32.51,32.51,0,0,0-3.36-.59h0c-6.16-.78-11.44.49-14.31,3.28,1.42-5.76,9.79-8.4,19.59-6a30.47,30.47,0,0,1,3.17.94l1.25-1.67,1.24,2.27a29.68,29.68,0,0,1,3.11.58C63.61,67.44,70.94,73.52,72.15,79.39Z"/><path class="cls-8" d="M45.11,86a1.17,1.17,0,0,1-.08.47c-.06.11-.13.15-.22.13l-3.59-.71a.3.3,0,0,1-.22-.22,1.27,1.27,0,0,1-.08-.51v-8a1,1,0,0,1,.08-.47.18.18,0,0,1,.22-.13l3.59.77c.09,0,.16.1.22.23a1.37,1.37,0,0,1,.08.5Zm-.26-8.11a.08.08,0,0,0,0,0l-3.59-.77,0,0a.28.28,0,0,0,0,.1v8a.31.31,0,0,0,0,.1.12.12,0,0,0,0,0l3.59.71s0,0,0,0a.2.2,0,0,0,0-.09V78A.31.31,0,0,0,44.85,77.88Z"/><path class="cls-8" d="M45.76,86.78l1.94-8.85L48,78,46,86.83Zm3.86.77L47.7,77.93,48,78l1.93,9.61Z"/><path class="cls-8" d="M50.34,87.69l1.91-8.78.25.06-1.9,8.77Zm.41-1.23v-.52l3.24.65v.52Zm3.39,2-1.89-9.53.25.06,1.89,9.52Z"/><path class="cls-8" d="M55.31,88.68a.31.31,0,0,1-.21-.22A1.36,1.36,0,0,1,55,88V80.16a1.12,1.12,0,0,1,.08-.46c0-.1.12-.15.21-.13l3.41.74a.32.32,0,0,1,.2.22A1.36,1.36,0,0,1,59,81v.25l-.23,0V81a.25.25,0,0,0,0-.1s0,0,0,0l-3.41-.74s0,0,0,0,0,0,0,.09V88a.16.16,0,0,0,0,.1.07.07,0,0,0,0,0l3.41.68s0,0,0,0a.19.19,0,0,0,0-.08v-.26l.23,0v.26a1.12,1.12,0,0,1-.08.46c-.05.1-.12.15-.2.13Z"/><polygon class="cls-9" points="76.91 264.78 20.33 272.62 20.33 131.51 76.91 137.77 76.91 264.78"/><polygon class="cls-9" points="76.91 264.78 20.33 272.62 20.33 297.46 76.91 287.14 76.91 264.78"/><polygon class="cls-9" points="76.91 287.14 20.33 297.46 20.33 333.26 76.91 319.37 76.91 287.14"/><path class="cls-10" d="M28.36,309.4,29.84,300l4-.77-.17,1.11-3.3.63L30,303.81l3.1-.61-.17,1.1-3.1.62-.5,3.21,3.44-.7-.17,1.1Z"/><path class="cls-10" d="M33.6,308.32,35.05,299l.73-.14-.59,3.83,2.86-.56.59-3.81.72-.14-1.43,9.27-.72.15.67-4.38-2.86.57-.68,4.41Z"/><path class="cls-10" d="M39.15,307.17l1.42-9.25,3.89-.74-.16,1.08-3.18.61-.43,2.83,3-.59-.16,1.08-3,.59L40,305.93l3.32-.68-.17,1.09Z"/><path class="cls-10" d="M44.17,306.14,45.56,297l2-.38a3,3,0,0,1,.78-.06.79.79,0,0,1,.59.3,1.62,1.62,0,0,1,.29.79,4.16,4.16,0,0,1,0,1.21,5.16,5.16,0,0,1-.72,2.05A2.43,2.43,0,0,1,46.81,302l-1.37.28L44.88,306Zm1.44-5,1.37-.27a1.57,1.57,0,0,0,1-.62,3,3,0,0,0,.47-1.28,2.27,2.27,0,0,0,0-.95.59.59,0,0,0-.36-.45,1.77,1.77,0,0,0-.64.05l-1.36.26Z"/><path class="cls-10" d="M50.49,296l3.36-.64-.16,1.06L51,297l-1.2,8-.69.15Z"/><path class="cls-10" d="M53.18,304.28l1.34-9,.68-.13-1.34,9Z"/><path class="cls-10" d="M58.43,303.2l.59-4-.78.16a1.36,1.36,0,0,0-.38.11,1.81,1.81,0,0,0-.35.3,5,5,0,0,0-.43.67c-.17.31-.39.75-.67,1.33l-.95,2-.86.18,1.26-2.63a9.56,9.56,0,0,1,.74-1.31,3.51,3.51,0,0,1,.47-.53,1,1,0,0,1-1-.61,2.88,2.88,0,0,1-.12-1.54,5.23,5.23,0,0,1,.42-1.39,2.48,2.48,0,0,1,.69-1,2.34,2.34,0,0,1,1.07-.44l2.25-.43-1.32,8.91Zm1.17-7.94-1.6.31a1.35,1.35,0,0,0-.89.57,2.51,2.51,0,0,0-.42,1.09,2,2,0,0,0,0,.78.62.62,0,0,0,.32.46,1.1,1.1,0,0,0,.69,0l1.45-.28Z"/><path class="cls-10" d="M39,319.11l.67.15a7.46,7.46,0,0,1-1.17,2.5A2.87,2.87,0,0,1,37,322.9a1.33,1.33,0,0,1-1.35-.28A2.66,2.66,0,0,1,35,321a9.83,9.83,0,0,1,.09-2.45,10.45,10.45,0,0,1,.73-2.62A5.78,5.78,0,0,1,37,314.1a2.9,2.9,0,0,1,1.42-.85,1.16,1.16,0,0,1,1.27.41,3.12,3.12,0,0,1,.47,1.82l-.75.44a2.56,2.56,0,0,0-.33-1.35.75.75,0,0,0-.84-.26,2,2,0,0,0-1.13.74,4.57,4.57,0,0,0-.81,1.52,10.18,10.18,0,0,0-.45,1.83,9.51,9.51,0,0,0-.12,2,1.78,1.78,0,0,0,.44,1.19.87.87,0,0,0,.86.22,2,2,0,0,0,1.13-.84A5.72,5.72,0,0,0,39,319.11Z"/><path class="cls-10" d="M40.11,322l1.41-9.28,2-.44a1.34,1.34,0,0,1,.94.07,1.08,1.08,0,0,1,.45.73,3.25,3.25,0,0,1,0,1.17,4.36,4.36,0,0,1-.35,1.15,3.28,3.28,0,0,1-.69,1,1,1,0,0,1,.62.67,3,3,0,0,1,.05,1.33,5.19,5.19,0,0,1-.35,1.24,3.61,3.61,0,0,1-.52.95,2.37,2.37,0,0,1-.66.6,2.76,2.76,0,0,1-.89.35Zm.88-1.27,1.35-.31a2.23,2.23,0,0,0,.49-.15,1.7,1.7,0,0,0,.45-.35,2.22,2.22,0,0,0,.35-.58,3.24,3.24,0,0,0,.22-.8,2,2,0,0,0,0-.86.59.59,0,0,0-.34-.44,1.52,1.52,0,0,0-.76,0l-1.25.29Zm.65-4.28,1.17-.26a1.77,1.77,0,0,0,.69-.26,1.36,1.36,0,0,0,.48-.55,2.45,2.45,0,0,0,.26-.83,2,2,0,0,0,0-.78.5.5,0,0,0-.3-.4,1.75,1.75,0,0,0-.79.05l-1.08.24Z"/><path class="cls-10" d="M45.37,316.45a9.8,9.8,0,0,1,1.25-3.73,3.32,3.32,0,0,1,2-1.69,1.25,1.25,0,0,1,1.22.32,2.42,2.42,0,0,1,.63,1.48,8.07,8.07,0,0,1-.06,2.38,10.61,10.61,0,0,1-.69,2.55,5.92,5.92,0,0,1-1.16,1.87,2.88,2.88,0,0,1-1.37.87,1.25,1.25,0,0,1-1.24-.32,2.43,2.43,0,0,1-.64-1.5A7.64,7.64,0,0,1,45.37,316.45Zm.72-.14a4.72,4.72,0,0,0,.12,2.49,1,1,0,0,0,1.15.66,2.46,2.46,0,0,0,1.45-1.26,7.91,7.91,0,0,0,.91-2.84,6.92,6.92,0,0,0,.07-1.89,2,2,0,0,0-.43-1.15.89.89,0,0,0-.88-.25,2.47,2.47,0,0,0-1.4,1.16A7.76,7.76,0,0,0,46.09,316.31Z"/><path class="cls-10" d="M52,310.45l3.35-.73-.16,1.06-2.67.59-.41,2.79,1.23-.28a2,2,0,0,1,1.06,0,.94.94,0,0,1,.51.71A3.67,3.67,0,0,1,55,316a5.65,5.65,0,0,1-.37,1.32,3.82,3.82,0,0,1-.66,1.09,2.33,2.33,0,0,1-1.23.65l-2,.48Zm-.52,7.9L52.9,318a1.46,1.46,0,0,0,.89-.59,2.82,2.82,0,0,0,.45-1.25,2.19,2.19,0,0,0,0-.9.52.52,0,0,0-.37-.4,2.59,2.59,0,0,0-.94.1l-.92.21Z"/><path class="cls-10" d="M55.76,314.11a9.61,9.61,0,0,1,1.2-3.66,3.24,3.24,0,0,1,1.94-1.65,1.2,1.2,0,0,1,1.18.32,2.5,2.5,0,0,1,.61,1.46,8.46,8.46,0,0,1-.06,2.33,10.66,10.66,0,0,1-.66,2.5,6.15,6.15,0,0,1-1.12,1.83,2.72,2.72,0,0,1-1.32.84,1.21,1.21,0,0,1-1.2-.31,2.53,2.53,0,0,1-.61-1.48A7.66,7.66,0,0,1,55.76,314.11Zm.69-.14a4.68,4.68,0,0,0,.12,2.45.91.91,0,0,0,1.11.64,2.3,2.3,0,0,0,1.38-1.23,7.58,7.58,0,0,0,.89-2.78A7.49,7.49,0,0,0,60,311.2a1.93,1.93,0,0,0-.43-1.13.82.82,0,0,0-.83-.25A2.34,2.34,0,0,0,57.4,311,7.71,7.71,0,0,0,56.45,314Z"/><path class="cls-10" d="M62.44,308.18l3-.65-1.14,7.8.45-.1-.46,3.12-.58.13.3-2.07-3.31.77-.3,2.09-.6.14.46-3.14.4-.09a27.07,27.07,0,0,0,1.56-6.7Zm2.22.53-1.73.38-.07.46c-.11.75-.3,1.8-.57,3.12a20.65,20.65,0,0,1-.92,3.35l2.3-.53Z"/><path class="cls-10" d="M66.7,307.26l.59-.13-1,7,3.61-7.54.65-.14-1.27,8.76-.58.14,1-6.94-3.62,7.55-.65.15Z"/><line class="cls-11" x1="22.94" y1="136.8" x2="38.42" y2="138.38"/><line class="cls-11" x1="22.94" y1="157.08" x2="38.42" y2="158.1"/><line class="cls-11" x1="22.94" y1="164.35" x2="38.42" y2="165.16"/><line class="cls-11" x1="22.94" y1="184.63" x2="38.42" y2="184.89"/><line class="cls-11" x1="22.94" y1="191.89" x2="38.42" y2="191.95"/><line class="cls-11" x1="22.94" y1="212.17" x2="38.42" y2="211.67"/><line class="cls-11" x1="22.94" y1="219.43" x2="38.42" y2="218.74"/><line class="cls-11" x1="22.94" y1="239.71" x2="38.42" y2="238.46"/><line class="cls-11" x1="22.94" y1="246.97" x2="38.42" y2="245.52"/><line class="cls-11" x1="22.94" y1="267.25" x2="38.42" y2="265.25"/><polygon class="cls-7" points="73.64 161.65 40.7 159.57 40.7 137.53 73.64 140.95 73.64 161.65"/><polygon class="cls-7" points="73.64 186.61 40.7 186.12 40.7 164.09 73.64 165.9 73.64 186.61"/><polygon class="cls-7" points="73.64 211.67 40.7 212.8 40.7 190.76 73.64 190.97 73.64 211.67"/><polygon class="cls-7" points="73.64 236.74 40.7 239.47 40.7 217.44 73.64 216.03 73.64 236.74"/><polygon class="cls-7" points="73.64 261.68 40.7 266.01 40.7 243.97 73.64 240.97 73.64 261.68"/><path class="cls-2" d="M34,291.09l-8.84,1.55c-.74.13-1.35-.63-1.35-1.7V278a2.05,2.05,0,0,1,1.35-2.13L34,274.6c.72-.1,1.3.66,1.3,1.71V289A2.08,2.08,0,0,1,34,291.09Z"/><path class="cls-2" d="M47.61,288.7l-8.4,1.48c-.71.12-1.28-.63-1.28-1.67V275.92c0-1,.57-2,1.28-2.08l8.4-1.22c.69-.1,1.24.65,1.24,1.67v12.34C48.85,287.66,48.3,288.58,47.61,288.7Z"/><path class="cls-2" d="M60.58,286.43l-8,1.4c-.67.12-1.22-.61-1.22-1.63V273.92c0-1,.55-1.92,1.22-2l8-1.17c.65-.09,1.18.64,1.18,1.64v12C61.76,285.41,61.23,286.31,60.58,286.43Z"/><path class="cls-2" d="M72.94,284.26l-7.63,1.34c-.64.11-1.16-.6-1.16-1.6V272c0-1,.52-1.87,1.16-2l7.63-1.1c.62-.1,1.13.62,1.13,1.6V282.3C74.07,283.27,73.56,284.15,72.94,284.26Z"/><path class="cls-9" d="M72.37,283.46l-6.46,1.12c-.64.11-1.17-.6-1.17-1.59V272.84c0-1,.53-1.87,1.17-2l6.46-.95c.62-.09,1.12.63,1.12,1.6v10C73.49,282.47,73,283.35,72.37,283.46Z"/><path class="cls-12" d="M60,285.61l-6.78,1.18c-.67.11-1.22-.62-1.22-1.63v-10.4c0-1,.55-1.92,1.22-2l6.78-1c.65-.1,1.18.63,1.18,1.63V283.6C61.16,284.59,60.63,285.5,60,285.61Z"/><path class="cls-9" d="M47,287.87l-7.12,1.23c-.7.12-1.28-.62-1.28-1.66V276.78c0-1,.58-2,1.28-2.07l7.12-1c.69-.1,1.24.65,1.24,1.67V285.8C48.22,286.82,47.67,287.75,47,287.87Z"/><path class="cls-9" d="M33.32,290.24l-7.48,1.3c-.74.12-1.35-.64-1.35-1.71V278.91a2.07,2.07,0,0,1,1.35-2.14l7.48-1.1c.72-.11,1.31.66,1.31,1.71v10.73A2.09,2.09,0,0,1,33.32,290.24Z"/><path class="cls-7" d="M33.32,282.58l-1.12.18-1.12-4.54-.8,0,.61,4.71-2.57.41.61-4.91-.81.2L27,283.59l-1.15.19c-.35.05-.64.51-.64,1s.29.87.64.82c.91-.15.76,4.56,1.26,4.47l5-.85c.49-.08.35-4.7,1.23-4.84a1,1,0,0,0,.62-1C33.94,282.89,33.67,282.53,33.32,282.58Zm-1.59,5.74-4.27.72c-.36.06-.3-3.65-.94-3.54l6.13-1C32,284.6,32.09,288.26,31.73,288.32Z"/><path class="cls-7" d="M40.67,285.51,39.83,278l.43-.07.48,4.92c0,.52.1,1,.14,1.54.08-.83.12-1.31.14-1.43l.6-5.23.5-.08.45,3.77c.11.94.2,1.82.25,2.65q.06-.73.15-1.68l.49-5,.42-.06L43,285.11l-.4.07L42,279.5c-.06-.47-.09-.76-.1-.87q0,.53-.09.9l-.67,5.91Z"/><path class="cls-7" d="M46.48,281.89l.41.19a6.34,6.34,0,0,1-.46,1.95c-.23.47-.5.73-.82.78a.77.77,0,0,1-.82-.36,3.49,3.49,0,0,1-.48-1.36,11.37,11.37,0,0,1-.16-2,10.92,10.92,0,0,1,.18-2.09,4.08,4.08,0,0,1,.53-1.41,1.21,1.21,0,0,1,.75-.58.78.78,0,0,1,.79.46,4,4,0,0,1,.44,1.55l-.4.29a3.22,3.22,0,0,0-.32-1.14.5.5,0,0,0-.51-.3.87.87,0,0,0-.6.51,3.45,3.45,0,0,0-.34,1.17,11.28,11.28,0,0,0,0,3.14,2.14,2.14,0,0,0,.36,1,.55.55,0,0,0,.52.27c.23,0,.43-.23.59-.58A4.49,4.49,0,0,0,46.48,281.89Z"/><path class="cls-9" d="M53.2,286.79,60,285.61c.65-.11,1.18-1,1.18-2V273.38c0-1-.53-1.73-1.18-1.63l-6.78,1c-.67.1-1.22,1-1.22,2v10.4C52,286.17,52.53,286.9,53.2,286.79Z"/><path class="cls-13" d="M60.43,278.6c0,1.22-.65,2.32-1.45,2.45a.93.93,0,0,1-.44,0,2.83,2.83,0,0,1-1.93,1.83,1.47,1.47,0,0,1-1-.15c1,.12,1-7.09,1.91-6.93a2.24,2.24,0,0,1,1,1,1.09,1.09,0,0,1,.44-.17C59.78,276.51,60.43,277.38,60.43,278.6Z"/><path class="cls-14" d="M57.57,275.76c-1-.16-1,7.05-1.91,6.93h0a2.32,2.32,0,0,1-1-1.06,1,1,0,0,1-.45.19c-.82.14-1.48-.76-1.48-2s.66-2.34,1.48-2.47a.86.86,0,0,1,.45.05,2.8,2.8,0,0,1,1.94-1.82A1.5,1.5,0,0,1,57.57,275.76Z"/><path class="cls-2" d="M54,280.62l-.47-2.56.24,0,.27,1.68c0,.18.05.35.07.53,0-.29.07-.45.08-.5l.33-1.82.27-.05.25,1.29c.06.32.11.62.14.91,0-.17.05-.37.08-.59l.27-1.72.23,0-.47,2.7-.22,0-.37-1.94a2.84,2.84,0,0,1-.05-.3c0,.13,0,.23,0,.32l-.37,2.06Z"/><path class="cls-2" d="M56,278.05v-.37l.21,0V278Zm0,2.25v-1.9l.21,0v1.89Z"/><path class="cls-7" d="M57.88,280v-2.61L59,277.2v.3l-.92.15v.81l.8-.13v.31l-.8.13V280Z"/><path class="cls-7" d="M59.3,277.52v-.37l.21,0v.37Zm0,2.24v-1.89l.21,0v1.88Z"/><path class="cls-10" d="M69.74,271.45l-3.66.55v11.41l1.17-.21v-3.62l2.49-.41a2.25,2.25,0,0,0,1.31-.8,5.28,5.28,0,0,0,1.15-3.25v-.39C72.14,272.71,71.07,271.25,69.74,271.45Zm1.31,3.86c-.07,1-.63,1.93-1.31,2l-2.49.4v-4.11l2.49-.38c.68-.1,1.24.62,1.31,1.63v.42Z"/><polygon class="cls-7" points="49.71 391.37 55.17 389.37 64.45 364.88 55.17 346.46 49.71 348.03 59.17 366.61 49.71 391.37"/><polygon class="cls-7" points="42.43 394.04 48.05 391.98 57.57 367.13 48.05 348.5 42.43 350.11 52.15 368.9 42.43 394.04"/><polygon class="cls-7" points="34.96 396.79 40.73 394.67 50.51 369.44 40.73 350.6 34.96 352.25 44.94 371.26 34.96 396.79"/><path class="cls-3" d="M29.64,2.39C21.91,5.13,16.82,11.8,16.82,21.31v431L1,445.18V26.11c0-9.82,5.73-16.58,14.28-19l.1,0Z"/><polygon class="cls-15" points="73.64 161.65 40.7 159.57 40.7 137.53 73.64 140.95 73.64 161.65"/><polygon class="cls-15" points="73.64 186.61 40.7 186.12 40.7 164.09 73.64 165.9 73.64 186.61"/><polygon class="cls-15" points="73.64 211.67 40.7 212.8 40.7 190.76 73.64 190.97 73.64 211.67"/><polygon class="cls-15" points="73.64 236.74 40.7 239.47 40.7 217.44 73.64 216.03 73.64 236.74"/><polygon class="cls-15" points="73.64 261.68 40.7 266.01 40.7 243.97 73.64 240.97 73.64 261.68"/><path class="cls-16" d="M47.9,148.09v-7.33L46.8,139l-4.48-.46-1.13,1.56v7.42l.57.89-.57.79v7.66l1.13,1.75,4.48.29,1.1-1.58v-7.57h0l-.55-.87.55-.78Zm-1.1,8.45-.47.66L42.79,157l-.47-.73V150l.47-.66,3.54.29.47.73Zm0-9.24-.47.65-3.54-.3-.47-.74v-6l.47-.65,3.54.35.47.74Z"/><path class="cls-16" d="M55.54,148.74v-7.22l-1.08-1.74-4.35-.45L49,140.87v7.3l.55.88-.55.79v7.54l1.1,1.72,4.35.29,1.08-1.56v-7.46h0l-.53-.86.53-.77Zm-1.08,8.33-.45.65-3.45-.23-.45-.72v-6.16l.45-.65,3.45.28.45.72Zm0-9.1-.45.64-3.45-.3-.45-.72v-5.93l.45-.64,3.45.35.45.72Z"/><path class="cls-16" d="M67.11,149.73l.51.84-.51.75h0v7.3l1,1.66,4.07.27,1-1.51v-7.21L72.7,151l.51-.76v-7l-1-1.68-4.07-.42-1,1.49v7.07Zm1,2.34.43-.63,3.22.27.42.69v5.91l-.42.63-3.22-.22-.43-.69Zm0-8.64.43-.62,3.22.32.42.69v5.69l-.42.62-3.22-.28-.43-.7Z"/><path class="cls-16" d="M59.81,149.1l.53.86-.53.76h0v7.4l1.06,1.69,4.18.27,1-1.53v-7.3l-.53-.85.53-.77v-7.07l-1-1.7-4.18-.43-1.06,1.51v7.16Zm1,2.38.44-.64,3.31.28.43.7v6l-.43.64-3.31-.23-.44-.7Zm0-8.76.44-.63,3.31.33.43.7v5.77l-.43.62-3.31-.28-.44-.71Z"/><path class="cls-16" d="M58.74,158.05c0,.89-.47,1.59-1.06,1.55s-1.07-.8-1.07-1.7.48-1.59,1.07-1.55S58.74,157.15,58.74,158.05Z"/><path class="cls-16" d="M47.9,174.41v-7.33l-1.1-1.71-4.48-.24-1.13,1.62v7.41l.57.86-.57.83v7.65l1.13,1.69,4.48.08,1.1-1.64v-7.57h0l-.55-.84.55-.81Zm-1.1,8.51-.47.68-3.54-.07-.47-.71v-6.25l.47-.68,3.54.12.47.71Zm0-9.24-.47.67-3.54-.13-.47-.71v-6l.47-.67,3.54.17.47.72Z"/><path class="cls-16" d="M55.54,174.69v-7.22l-1.08-1.69-4.35-.23L49,167.14v7.3l.55.86-.55.81v7.54l1.1,1.67,4.35.07,1.08-1.61v-7.46h0l-.53-.83.53-.8Zm-1.08,8.39-.45.67-3.45-.07-.45-.69v-6.17l.45-.67,3.45.12.45.69Zm0-9.11-.45.66-3.45-.12-.45-.71v-5.92l.45-.66,3.45.17.45.7Z"/><path class="cls-16" d="M67.11,175.11l.51.82-.51.78h0V184l1,1.62,4.07.06,1-1.56v-7.2l-.51-.81.51-.78v-7l-1-1.63-4.07-.21-1,1.54v7.06Zm1,2.3.43-.65,3.22.11.42.67v5.91l-.42.65L68.56,184l-.43-.67Zm0-8.65.43-.64,3.22.16.42.68v5.68l-.42.64-3.22-.11-.43-.68Z"/><path class="cls-16" d="M59.81,174.85l.53.82-.53.79h0v7.4l1.06,1.64,4.18.07,1-1.59v-7.3l-.53-.82.53-.79V168l-1-1.66-4.18-.22-1.06,1.56v7.17Zm1,2.32.44-.66,3.31.12.43.68v6l-.43.66-3.31-.07-.44-.68Zm0-8.76.44-.65,3.31.16.43.69v5.76l-.43.65-3.31-.12-.44-.69Z"/><path class="cls-16" d="M58.74,183.84c0,.9-.47,1.61-1.06,1.6s-1.07-.74-1.07-1.64.48-1.62,1.07-1.6S58.74,183,58.74,183.84Z"/><path class="cls-16" d="M47.9,200.73v-7.32l-1.1-1.66-4.48,0-1.13,1.67v7.41l.57.83-.57.86v7.65l1.13,1.64,4.48-.15L47.9,210v-7.56h0l-.55-.82.55-.84Zm-1.1,8.56-.47.71-3.54.1-.47-.68v-6.25l.47-.7,3.54-.06.47.68Zm0-9.23-.47.69-3.54.05-.47-.69v-6l.47-.69h3.54l.47.69Z"/><path class="cls-16" d="M55.54,200.64v-7.22l-1.08-1.64-4.35,0L49,193.41v7.3l.55.83-.55.84v7.54l1.1,1.62,4.35-.15,1.08-1.66v-7.46h0l-.53-.81.53-.82Zm-1.08,8.44-.45.69-3.45.1-.45-.67V203l.45-.69,3.45-.06.45.68Zm0-9.11-.45.69-3.45,0-.45-.68v-5.93l.45-.68H54l.45.69Z"/><path class="cls-16" d="M67.11,200.5l.51.79-.51.8h0v7.3l1,1.56,4.07-.13,1-1.61V202l-.51-.79.51-.8v-7l-1-1.58-4.07,0-1,1.59v7.07Zm1,2.24.43-.67,3.22,0,.42.65v5.91l-.42.67-3.22.1-.43-.65Zm0-8.64.43-.66h3.22l.42.66v5.68l-.42.66-3.22,0-.43-.66Z"/><path class="cls-16" d="M59.81,200.59l.53.8-.53.82h0v7.39l1.06,1.59,4.18-.14,1-1.63v-7.3l-.53-.8.53-.82v-7.07l-1-1.6-4.18,0-1.06,1.61v7.17Zm1,2.27.44-.68,3.31-.05.43.66v6l-.43.68-3.31.1-.44-.66Zm0-8.76.44-.68h3.31l.43.67v5.76l-.43.67-3.31,0-.44-.67Z"/><path class="cls-16" d="M58.74,209.63c0,.9-.47,1.64-1.06,1.66s-1.07-.69-1.07-1.59.48-1.64,1.07-1.66S58.74,208.74,58.74,209.63Z"/><path class="cls-16" d="M47.9,227.06v-7.33l-1.1-1.61-4.48.2-1.13,1.73v7.41l.57.81-.57.88v7.65l1.13,1.58L46.8,238l1.1-1.75v-7.56h0l-.55-.79.55-.86Zm-1.1,8.61-.47.73-3.54.27-.47-.65v-6.26l.47-.72,3.54-.23.47.66Zm0-9.24-.47.72-3.54.22-.47-.67v-6l.47-.72,3.54-.17.47.67Z"/><path class="cls-16" d="M55.54,226.59v-7.22l-1.08-1.59-4.35.2-1.1,1.7V227l.55.8-.55.87v7.54l1.1,1.56,4.35-.35,1.08-1.72v-7.46h0l-.53-.78.53-.85Zm-1.08,8.49-.45.72-3.45.27-.45-.65v-6.17l.45-.71,3.45-.22.45.65Zm0-9.1-.45.7-3.45.21-.45-.65v-5.93l.45-.71,3.45-.16.45.66Z"/><path class="cls-16" d="M67.11,225.88l.51.77-.51.83h0v7.29l1,1.52L72.2,236l1-1.66v-7.21l-.51-.76.51-.82v-7l-1-1.53-4.07.18-1,1.64v7.06Zm1,2.2.43-.69,3.22-.21.42.63v5.91l-.42.69-3.22.25-.43-.63Zm0-8.65.43-.68,3.22-.15.42.63v5.69l-.42.68-3.22.2-.43-.64Z"/><path class="cls-16" d="M59.81,226.33l.53.78-.53.84h0v7.4l1.06,1.53,4.18-.34,1-1.68v-7.31l-.53-.77.53-.84v-7.07l-1-1.56-4.18.19-1.06,1.66v7.17Zm1,2.22.44-.7,3.31-.21.43.64v6l-.43.7-3.31.26-.44-.64Zm0-8.76.44-.7,3.31-.15.43.64v5.76l-.43.7-3.31.2-.44-.65Z"/><path class="cls-16" d="M58.74,235.43c0,.89-.47,1.66-1.06,1.71s-1.07-.65-1.07-1.55.48-1.66,1.07-1.7S58.74,234.53,58.74,235.43Z"/><path class="cls-16" d="M47.9,253.38v-7.33l-1.1-1.55-4.48.42-1.13,1.78v7.41l.57.78-.57.91v7.65L42.32,265l4.48-.58,1.1-1.8V255h0l-.55-.76.55-.89Zm-1.1,8.67-.47.75-3.54.45-.47-.64v-6.25l.47-.75,3.54-.4.47.64Zm0-9.24-.47.74-3.54.39-.47-.64v-6l.47-.74,3.54-.35.47.65Z"/><path class="cls-16" d="M55.54,252.54v-7.22l-1.08-1.53-4.35.4L49,246v7.3l.55.77-.55.9v7.54l1.1,1.51,4.35-.57,1.08-1.77v-7.46h0l-.53-.75.53-.88Zm-1.08,8.55-.45.73-3.45.44-.45-.63v-6.16l.45-.74,3.45-.39.45.63Zm0-9.11-.45.73-3.45.38-.45-.64v-5.92l.45-.73,3.45-.34.45.64Z"/><path class="cls-16" d="M67.11,251.27l.51.74-.51.85h0v7.3l1,1.46,4.07-.53,1-1.7v-7.21l-.51-.74.51-.85v-7l-1-1.49-4.07.38-1,1.69v7.07Zm1,2.14.43-.71,3.22-.36.42.61v5.91l-.42.71-3.22.41-.43-.61Zm0-8.64.43-.71,3.22-.31.42.62v5.68l-.42.71-3.22.35-.43-.62Z"/><path class="cls-16" d="M59.81,252.07l.53.75-.53.87h0v7.4l1.06,1.48L65,262l1-1.73V253l-.53-.75.53-.86V244.3l-1-1.5-4.18.39-1.06,1.72v7.16Zm1,2.17.44-.72,3.31-.37.43.61v6l-.43.72-3.31.42-.44-.62Zm0-8.76.44-.72,3.31-.32.43.63v5.76l-.43.71-3.31.37-.44-.63Z"/><path class="cls-16" d="M58.74,261.22c0,.9-.47,1.68-1.06,1.76s-1.07-.59-1.07-1.49.48-1.68,1.07-1.76S58.74,260.33,58.74,261.22Z"/></g></g></svg>