<svg xmlns="http://www.w3.org/2000/svg" viewBox="0 0 1920 1080"><defs><style>.cls-1{fill:#810f2e;}.cls-2{fill:#fff;}</style></defs><title>TextBG</title><g id="Layer_2" data-name="Layer 2"><g id="Layer_1-2" data-name="Layer 1"><polygon class="cls-1" points="1230 1080 1080 1080 0 0 150 0 1230 1080"/><polygon class="cls-2" points="1380 1080 1230 1080 150 0 300 0 1380 1080"/><polygon class="cls-1" points="1530 1080 1380 1080 300 0 450 0 1530 1080"/><polygon class="cls-2" points="1680 1080 1530 1080 450 0 600 0 1680 1080"/><polygon class="cls-1" points="1830 1080 1680 1080 600 0 750 0 1830 1080"/><polygon class="cls-2" points="1920 1020 1920 1080 1830 1080 750 0 900 0 1920 1020"/><polygon class="cls-1" points="1920 870 1920 1020 900 0 1050 0 1920 870"/><polygon class="cls-2" points="1920 720 1920 870 1050 0 1200 0 1920 720"/><polygon class="cls-1" points="1920 570 1920 720 1200 0 1350 0 1920 570"/><polygon class="cls-2" points="1920 420 1920 570 1350 0 1500 0 1920 420"/><polygon class="cls-1" points="1920 270 1920 420 1500 0 1650 0 1920 270"/><polygon class="cls-2" points="1920 120 1920 270 1650 0 1800 0 1920 120"/><polygon class="cls-1" points="1920 0 1920 120 1800 0 1920 0"/><polygon class="cls-2" points="1080 1080 930 1080 0 150 0 0 1080 1080"/><polygon class="cls-1" points="930 1080 780 1080 0 300 0 150 930 1080"/><polygon class="cls-2" points="780 1080 630 1080 0 450 0 300 780 1080"/><polygon class="cls-1" points="630 1080 480 1080 0 600 0 450 630 1080"/><polygon class="cls-2" points="480 1080 330 1080 0 750 0 600 480 1080"/><polygon class="cls-1" points="330 1080 180 1080 0 900 0 750 330 1080"/><polygon class="cls-2" points="180 1080 30 1080 0 1050 0 900 180 1080"/><polygon class="cls-1" points="30 1080 0 1080 0 1050 30 1080"/></g></g></svg>