<svg xmlns="http://www.w3.org/2000/svg" viewBox="0 0 110 110"><title>TopButton</title><g id="Layer_2" data-name="Layer 2"><g id="Layer_1-2" data-name="Layer 1"><path d="M55,0a55,55,0,1,0,55,55A55,55,0,0,0,55,0ZM88.05,86.3,55,58.14,22,86.3c-.09-.08-.17-.17-.26-.26L52.24,53.35l.74-.79a2.71,2.71,0,0,1,3.81-.22,2.44,2.44,0,0,1,.23.22l.74.79L88.31,86C88.22,86.13,88.14,86.22,88.05,86.3Zm4.65-5.79L55,44.81,17.3,80.51l-.2-.32L51.89,38.82l.83-1A3.14,3.14,0,0,1,55,36.71a3,3,0,0,1,2,.85,3.57,3.57,0,0,1,.27.28l.82,1L92.9,80.19Zm4.42-8.31L55,31.48,12.88,72.2c-.12-.27-.23-.54-.33-.82h0l38.8-47.08,1-1.18A3.62,3.62,0,0,1,55,21.76a3.47,3.47,0,0,1,2.33,1l.31.32,1,1.18,38.8,47.08h0C97.35,71.66,97.24,71.93,97.12,72.2Z"/></g></g></svg>