<svg xmlns="http://www.w3.org/2000/svg" viewBox="0 0 1920 200"><defs><style>.cls-1{fill:#0f4c81;opacity:0.1;}</style></defs><title>UnderHeader</title><g id="Layer_2" data-name="Layer 2"><g id="Layer_1-2" data-name="Layer 1"><path class="cls-1" d="M0,94.35V0H1920V160.85a164,164,0,0,1-222.35-8.9l-.38-.38c-12.2-12.14-26.36-23.45-40.84-29.45-16.92-7-34.3-6.78-49.55,7.82l-.9.88a134.15,134.15,0,0,1-196.31-7.07l0,0A119.68,119.68,0,0,0,1389.43,110c-16.59-8.82-33.8-11.66-48.2-3.08a108.6,108.6,0,0,1-82.59,37.94,109.32,109.32,0,0,1-23.89-2.63,108.66,108.66,0,0,1-53.09-29.25c-28.84-28.84-72.83-32.35-111.74-22-25.49,6.78-48.8,19.51-64.26,35a126.81,126.81,0,0,1-89.95,37.26,127.59,127.59,0,0,1-30.23-3.61,127.1,127.1,0,0,1-59.72-33.65c-27-26.95-59.91-50.74-85.91-24.73a92.26,92.26,0,0,1-130.45,0C578,69.78,555,41.9,528.5,68.13l-.18.18a45.75,45.75,0,0,1-64.72,0l-.11-.1a44.53,44.53,0,0,1-4-4.59h0c-21.53-11.2-61,5.79-85.18,25.56a83.18,83.18,0,0,1-33.06,24h0a83.19,83.19,0,0,1-89.61-18.44C226.4,69.53,200.17,45.53,177.2,67.92l-.4.39a45.75,45.75,0,0,1-64.72,0l-.18-.18C93.72,50.21,61.65,56.89,41.29,77.24A58.22,58.22,0,0,1,0,94.35Z"/></g></g></svg>