<svg xmlns="http://www.w3.org/2000/svg" viewBox="0 0 245.86 249.76"><defs><style>.cls-1{fill:#81720f;}</style></defs><title>Wave</title><g id="Layer_2" data-name="Layer 2"><g id="Layer_1-2" data-name="Layer 1"><path class="cls-1" d="M245.86,126.5A125.61,125.61,0,0,1,211,212.32a121.92,121.92,0,0,1-39,27.32,120.4,120.4,0,0,1-22.89,7.4,123.16,123.16,0,0,1-111.81-32.7A125.39,125.39,0,0,1,9,78.37,124.64,124.64,0,0,1,54.83,21.18,122.09,122.09,0,0,1,100.49,2.23,127.51,127.51,0,0,1,125.21,0a119.72,119.72,0,0,1,48,10.64A120.77,120.77,0,0,1,194.38,23a122.8,122.8,0,0,1,18.14,16.21,127.23,127.23,0,0,1,25,40.77A128.5,128.5,0,0,1,245.86,126.5Zm-1.3,0a112.66,112.66,0,0,0-9.95-45.31,114,114,0,0,0-27-37.08,119.18,119.18,0,0,0-38.53-23.5,117.44,117.44,0,0,0-21.63-5.84A121,121,0,0,0,125.21,13a114.57,114.57,0,0,0-22.11,2.38A116.58,116.58,0,0,0,62.25,32.27a114.54,114.54,0,0,0-18.91,176.1,116.07,116.07,0,0,0,81.87,34.88,119.1,119.1,0,0,0,83.89-32.86,117.47,117.47,0,0,0,15.12-17.73,113.86,113.86,0,0,0,18.15-42.85A121.57,121.57,0,0,0,244.56,126.5Z"/></g></g></svg>