<?xml version="1.0" encoding="utf-8"?>
<!-- Svg Vector Icons : http://www.onlinewebfonts.com/icon -->
<!DOCTYPE svg PUBLIC "-//W3C//DTD SVG 1.1//EN" "http://www.w3.org/Graphics/SVG/1.1/DTD/svg11.dtd">
<svg version="1.1" xmlns="http://www.w3.org/2000/svg" xmlns:xlink="http://www.w3.org/1999/xlink" x="0px" y="0px" viewBox="0 0 1000 1000" enable-background="new 0 0 1000 1000" xml:space="preserve">
<metadata> Svg Vector Icons : http://www.onlinewebfonts.com/icon </metadata>
<g><g transform="translate(0.000000,511.000000) scale(0.100000,-0.100000)"><path d="M4517,5002.5c-938.2-100.2-1835.9-464.8-2577.9-1049.1c-223.9-172.7-684.5-646.1-859.3-880.6c-484-646.1-784.7-1347.6-938.2-2183.5c-55.4-307-55.4-1249.5,0-1556.6c96-522.4,223.9-923.3,441.4-1364.6c258-526.7,513.9-887,938.2-1313.5C2269.6-4098.1,3195-4575.7,4239.8-4742c458.4-72.5,1194.1-61.8,1652.5,25.6C7320.9-4443.5,8534.2-3577.8,9257-2319.8C10453.2-234.4,9939.3,2443.7,8056.6,3947c-654.6,522.4-1439.3,870-2292.2,1017.1C5568.2,4996.1,4719.6,5023.8,4517,5002.5z M5382.7,4034.4c2273-230.3,3880.7-2343.3,3494.8-4595C8529.9-2582,6642.9-4019.2,4612.9-3810.2c-1443.5,147.1-2684.5,1059.7-3247.4,2383.9C1143.7-897.5,1064.9-500.9,1064.9,111c0,612,78.9,1008.6,300.6,1537.4C2039.3,3232.7,3676.9,4205,5382.7,4034.4z"/><path d="M4751.5,3183.6c-113-66.1-189.8-164.2-223.9-281.5c-29.8-104.5-27.7-2840.2,2.1-2948.9c29.8-108.8,194-272.9,309.2-307.1c64-19.2,394.5-25.6,1238.8-25.6c1270.8,0,1277.2,0,1411.6,132.2C7596-142.7,7645-29.7,7645,111c0,187.6-93.8,339-270.8,432.8c-83.2,44.8-108.7,46.9-995.8,53.3l-912.6,6.4v1145c0,1068.3-4.3,1151.4-40.5,1230.3C5310.2,3228.4,4994.6,3324.4,4751.5,3183.6z"/></g></g>
</svg>