<svg xmlns="http://www.w3.org/2000/svg" viewBox="0 0 12 12"><defs><style>.cls-1{fill:#fbca00;opacity:0.68;}</style></defs><title>YellowStar</title><g id="Слой_2" data-name="Слой 2"><g id="Слой_1-2" data-name="Слой 1"><path class="cls-1" d="M12,4.58a14.81,14.81,0,0,0-4.65.1A15.15,15.15,0,0,0,6,0,15.15,15.15,0,0,0,4.65,4.68,14.81,14.81,0,0,0,0,4.58a8.84,8.84,0,0,0,3.82,2.8A10.55,10.55,0,0,0,2.29,12,14.75,14.75,0,0,0,6,9a14.75,14.75,0,0,0,3.71,3A10.55,10.55,0,0,0,8.18,7.38,8.84,8.84,0,0,0,12,4.58Z"/></g></g></svg>