<?xml version="1.0" encoding="utf-8"?>
<!-- Generator: Adobe Illustrator 22.0.1, SVG Export Plug-In . SVG Version: 6.00 Build 0)  -->
<svg version="1.1" id="Слой_1" xmlns="http://www.w3.org/2000/svg" xmlns:xlink="http://www.w3.org/1999/xlink" x="0px" y="0px"
	 viewBox="0 0 12 12" style="enable-background:new 0 0 12 12;" xml:space="preserve">
<style type="text/css">
	.st0{opacity:0.68;fill:#FBCA00;}
</style>
<path class="st0" d="M12,4.6c-1.6-0.2-3.1-0.2-4.7,0.1C7.2,3.3,6.8,1.7,6,0C5.2,1.7,4.8,3.3,4.7,4.7C3.1,4.4,1.6,4.4,0,4.6
	c1,1.3,2.4,2.2,3.8,2.8C2.8,9,2.4,10.5,2.3,12c1.4-0.8,2.6-1.8,3.7-3c1.1,1.2,2.3,2.2,3.7,3c-0.2-1.5-0.6-3-1.5-4.6
	C9.6,6.8,11,5.9,12,4.6z"/>
</svg>
